<svg id="b3dae3fe-7a4f-486d-aeef-ff30e9254cb3" data-name="6838c3e1-efa4-4623-9be6-c272a445ec4c" xmlns="http://www.w3.org/2000/svg" viewBox="0 0 90 340.16">
    <defs>
        <style>
            .f8a69f73-9a7e-40cc-8846-01459aaa434c{fill:none;clip-rule:evenodd}.\38 46aa722-5ca1-46c5-be8f-86db4ba2c88e{clip-path:url(#c6520a6a-7cf8-48fc-91e8-decd0e2c4a70)}.bf511d6e-e8e7-4464-9bcb-d9a92982e723{fill:#222c30}.\39 3ca3a07-97c3-470e-82eb-e05bde39ea12{clip-path:url(#94a84bcb-a241-466c-859e-1358f7dc7e02)}.\37 27f9119-11d1-4d3f-8037-98e16f70dcb2{fill:#424f55}.dde2b803-d7c7-43c3-b3a9-0336d2aee862{clip-path:url(#85a7b891-cdd9-46d5-aa32-266c9ccf4e83)}.\32 a893a99-768a-4392-a947-85cba660580e{clip-path:url(#de6669a5-88d4-40ea-9c6a-56b9826a7fdc)}.a3ce3c26-de28-4e4d-bdb5-4988a2baa2a4{fill:#e27a49}.\37 ab39964-58fb-408b-9d5c-aa524d1fd5a3{clip-path:url(#9a626009-27b9-4edd-b351-4329827455f9)}.bbf6b24f-575e-488b-94d2-8a0fab747d22{fill:#ba643c}.\36 8e62911-651f-4a41-abdf-90b6fcead02e{clip-path:url(#841ba8ac-2fe0-4053-92e7-2b66f01a5917)}.\36 a9e1ce2-5914-4d3c-8b7d-e06498fb265a{fill:#fff}.f454e36b-e907-42a0-b924-5d985651b2c4{clip-path:url(#177c785b-741f-4da3-b80b-08e4969e7411)}.\34 91902f6-c565-4669-bd63-ac2743b1cfc0{fill:#e5e5e4}.\31 0e49f63-d2ae-451a-9fa7-5101799de0f3{clip-path:url(#f850f380-c8c7-49fe-aa9d-12b9bf8de7b6)}.\31 10f06fe-c36c-4441-9899-070068e56603{clip-path:url(#1fa085c3-ee00-4f33-b4cc-184d71215d02)}.\39 805a032-a35a-4806-b123-1b357974e959{clip-path:url(#000b937a-9849-4e11-aa4c-37f85471a521)}.f403a8dd-5550-4d1a-8169-66669bbf56c1{fill:#985535}.\36 f0a3f9a-93c9-437d-a47e-71f135288b55{clip-path:url(#42b93a2d-adca-4bb0-a9c3-d6e147c78aa1)}.f8f3225b-dcca-43c4-8422-075e66612e3d{clip-path:url(#fc26e89e-fbd0-4d36-8857-e0b92e4330bc)}.bb276e16-30e8-4f2c-8333-cc9603f4c436{clip-path:url(#ce7deb08-48c3-4547-9eb8-0950b5e64d1e)}.\38 f9a76e3-8930-4237-83c1-51fe498fe0ad{clip-path:url(#b706c1f4-a7b0-45df-abfe-2fef47f461c4)}.c79826b3-3fd9-4476-a063-cec9fceac625{clip-path:url(#c95ed22e-5c5f-49bc-a896-e50f8d3091f0)}.\38 5036225-79a1-4b3b-a266-ff9851fcd98c{clip-path:url(#5a42524d-8dfa-4eed-9a33-3a2cd4c4e8a4)}.\32 2d65273-9ea7-4c91-b32b-6f1c8bc30302{clip-path:url(#e39cf10b-9af7-4dac-88c5-d633f56b8ebf)}.c33527b2-cbeb-4031-a9a3-c41a7866b667{fill:#367878}.ae96f014-4646-47da-88f3-55ac3ea2b544{clip-path:url(#92a48d1e-0e92-4403-8a7d-c80d1da60eea)}.\36 3bf2d04-5d16-4920-96a0-955ffca9f790{clip-path:url(#df275cdd-6101-4f34-ad9e-0427b74453ea)}.\30 24379d3-5dcb-4dcd-b1ba-d12c44781edd{clip-path:url(#77e2928e-e97d-41fe-a448-295a58f449f6)}.\34 a4f83f1-071d-4cad-a990-bdace62e1506{clip-path:url(#25131c94-731a-422c-a107-9439bd6d32b7)}.\34 6d30819-0ebf-49c0-b79a-40440f03b842{fill:#dd314e}.\39 70d9647-9f91-407c-a6ba-907b5597ce1d{clip-path:url(#ccfdcc4e-525b-47e4-bbe0-1ef5e121841d)}.c3986178-de98-4bd9-94ed-f2516f819e19{fill:#ffcc05}.bc631141-1189-446f-b989-a8e10b7ad107{clip-path:url(#5a0c44df-82d6-4e49-80cd-4d9f89dd225b)}.\39 ffd2cec-6a82-405f-90d9-3ad0b32f03c4{fill:#b7942f}.f1728b17-7e81-4ef0-a3f9-c0e71e71545a{clip-path:url(#6b1f30e5-40a4-45a0-bfbe-cdff32c35129)}.\37 55fae28-5117-47e4-b9db-613b8c2fcb65{clip-path:url(#bc55cb45-c201-40ce-8698-4673051454a7)}.\36 4e80725-eb8c-488a-b2df-0634d9604ee8{clip-path:url(#b7181bea-4cb5-4cc9-8ee1-a6525f2aa4b2)}.e31ca201-80d9-4112-84ee-92700476d355{clip-path:url(#0553ce07-e036-49f9-9f7d-25d76a47b0d5)}.\38 4ce2d49-0ddb-4b76-83a1-d66a4a37da55{clip-path:url(#f88ef639-b2ec-4646-9306-d847059f1f15)}.ad4b959d-223d-4d8e-95e4-e089d616ddb6{fill:#bc2c45}.def9bcf7-3c2a-43db-a84d-f2464158931a{clip-path:url(#6f10b428-b6d4-4e40-b557-fdd900b90dee)}.e43bc363-9eb8-482c-bbee-672535061b34{fill:#c93827}.b6e66eac-1e01-42ed-847d-a3c9fcb43960{clip-path:url(#2dd0f0fe-a9c8-41f4-bba5-7cb4617ab320)}.\33 4a0b2df-4cfa-403d-88c7-5d2b5293a20b{fill:#971b1e}.e4a3d07e-bab9-4552-ad9e-0e4e2261780a{clip-path:url(#2b0882d8-55bd-4b1b-85c1-9e63e66de543)}.\35 bb1ece1-c99a-474a-bf67-f852790deb51{clip-path:url(#cc7b6aa1-eb0e-4814-993b-1693a5809f95)}.\33 6d6afc4-6037-4c74-9339-a8fb8cb50afa{clip-path:url(#8ab29013-ad83-4456-8df9-2664becf747f)}.\37 962a858-808e-4b2a-accb-018833f621c3{clip-path:url(#4a9af23b-73d8-47e5-8f95-0f6f26071ddc)}.\38 6f3bfc5-5b2d-44e3-af21-a27518f016de{clip-path:url(#15775f25-94cf-4beb-9be7-d0e6acb3e1f4)}.b113de0e-9915-47e4-8eda-af9b8f87e174{clip-path:url(#de18a1ef-c87f-4789-8a84-2021350bf884)}.b7a0caee-816d-4d73-9043-4f3d178bfe51{clip-path:url(#4e36a21e-23cc-45d6-b84a-24283dcb358b)}.\35 2b7da58-1074-4a76-b26e-2b5f30b60f9a{clip-path:url(#7b7841e7-affa-4b9c-b1ae-f015b0c8bb47)}.\30 cc034ed-ecad-4f5c-98eb-dfd6cc2289c0{clip-path:url(#acbf6141-493d-4de7-8f8c-9d94fa5e79f5)}.b461d86a-0576-4814-a332-e02b883b75b0{clip-path:url(#51e3fc27-cd16-45c1-9219-656f3aaa42fc)}
        </style>
        <clipPath id="c6520a6a-7cf8-48fc-91e8-decd0e2c4a70">
            <path class="f8a69f73-9a7e-40cc-8846-01459aaa434c" d="M45 36.326A23.27 23.27 0 0 1 68.265 59.6 23.253 23.253 0 0 0 78.59 78.939a23.275 23.275 0 0 1-21.958 15.567H45v-58.18z"/>
        </clipPath>
        <clipPath id="94a84bcb-a241-466c-859e-1358f7dc7e02">
            <path class="f8a69f73-9a7e-40cc-8846-01459aaa434c" d="M45 94.506H33.367A23.274 23.274 0 0 1 11.41 78.94 23.251 23.251 0 0 0 21.735 59.6 23.267 23.267 0 0 1 45 36.327v58.18z"/>
        </clipPath>
        <clipPath id="85a7b891-cdd9-46d5-aa32-266c9ccf4e83">
            <path class="f8a69f73-9a7e-40cc-8846-01459aaa434c" d="M22.012 56A23.273 23.273 0 0 1 45 36.326v42.666z"/>
        </clipPath>
        <clipPath id="de6669a5-88d4-40ea-9c6a-56b9826a7fdc">
            <path class="f8a69f73-9a7e-40cc-8846-01459aaa434c" d="M76.02 121.656H13.979v-9.7c0-3.878 1.968-4.863 3.879-5.818l17.448-8.728V86.748h19.388v10.666l17.448 8.728c1.909.955 3.878 1.94 3.878 5.818v9.7z"/>
        </clipPath>
        <clipPath id="9a626009-27b9-4edd-b351-4329827455f9">
            <path class="f8a69f73-9a7e-40cc-8846-01459aaa434c" d="M74.028 121.656H63.124L35.305 93.83v-7.082h19.388v10.666l5.797 2.901 13.538 21.341z"/>
        </clipPath>
        <clipPath id="841ba8ac-2fe0-4053-92e7-2b66f01a5917">
            <path class="f8a69f73-9a7e-40cc-8846-01459aaa434c" d="M67.167 169.986c2.735 4.754 4.974 9.832 4.974 15.669a27.362 27.362 0 0 1-.277 3.879h-53.73a27.362 27.362 0 0 1-.277-3.879c0-5.834 2.3-11.029 4.969-15.663a51.8 51.8 0 0 0 6.663-25.064 48.372 48.372 0 0 0-5.108-22.138l3.169-21.5v.969c0 4.267 3.172 7.758 7.049 7.758H55.4c3.878 0 7.049-3.491 7.049-7.758l8.709 11.672a53.087 53.087 0 0 0-10.648 30.994 46.742 46.742 0 0 0 6.659 25.058"/>
        </clipPath>
        <clipPath id="177c785b-741f-4da3-b80b-08e4969e7411">
            <path class="f8a69f73-9a7e-40cc-8846-01459aaa434c" d="M67.167 169.986a47.338 47.338 0 0 1 3.012 6.087l-41.015-41.029-.009-.074a9.694 9.694 0 0 0 13.074-.71 3.874 3.874 0 0 1 5.539 0 9.692 9.692 0 0 0 13.175.625 3.061 3.061 0 0 1 .8-.519 48.345 48.345 0 0 0-1.234 10.563 46.742 46.742 0 0 0 6.659 25.058"/>
        </clipPath>
        <clipPath id="f850f380-c8c7-49fe-aa9d-12b9bf8de7b6">
            <path class="f8a69f73-9a7e-40cc-8846-01459aaa434c" d="M63.124 121.656l-11.633-11.635H55.4c3.879 0 7.051-3.491 7.051-7.758z"/>
        </clipPath>
        <clipPath id="1fa085c3-ee00-4f33-b4cc-184d71215d02">
            <path class="f8a69f73-9a7e-40cc-8846-01459aaa434c" d="M64.387 63.477a3.878 3.878 0 1 0 3.878 3.879 3.878 3.878 0 0 0-3.878-3.879"/>
        </clipPath>
        <clipPath id="000b937a-9849-4e11-aa4c-37f85471a521">
            <path class="f8a69f73-9a7e-40cc-8846-01459aaa434c" d="M64.387 65.415a1.939 1.939 0 1 0 1.938 1.94 1.94 1.94 0 0 0-1.938-1.94"/>
        </clipPath>
        <clipPath id="42b93a2d-adca-4bb0-a9c3-d6e147c78aa1">
            <path class="f8a69f73-9a7e-40cc-8846-01459aaa434c" d="M25.612 63.477a3.878 3.878 0 1 0 3.878 3.879 3.877 3.877 0 0 0-3.878-3.879"/>
        </clipPath>
        <clipPath id="fc26e89e-fbd0-4d36-8857-e0b92e4330bc">
            <path class="f8a69f73-9a7e-40cc-8846-01459aaa434c" d="M25.612 65.415a1.939 1.939 0 1 0 1.938 1.94 1.939 1.939 0 0 0-1.938-1.94"/>
        </clipPath>
        <clipPath id="ce7deb08-48c3-4547-9eb8-0950b5e64d1e">
            <path class="f8a69f73-9a7e-40cc-8846-01459aaa434c" d="M64.387 63.477v13.575a19.387 19.387 0 1 1-38.774 0V63.477A23.241 23.241 0 0 0 45 53.069a23.241 23.241 0 0 0 19.387 10.408"/>
        </clipPath>
        <clipPath id="b706c1f4-a7b0-45df-abfe-2fef47f461c4">
            <path class="f8a69f73-9a7e-40cc-8846-01459aaa434c" d="M64.387 63.477v13.575a19.367 19.367 0 0 1-6.7 14.632L29.212 63.2A23.266 23.266 0 0 0 45 53.069a23.241 23.241 0 0 0 19.387 10.408"/>
        </clipPath>
        <clipPath id="c95ed22e-5c5f-49bc-a896-e50f8d3091f0">
            <path class="f8a69f73-9a7e-40cc-8846-01459aaa434c" d="M35.306 63.477a3.878 3.878 0 1 1-3.878 3.879 3.878 3.878 0 0 1 3.878-3.879"/>
        </clipPath>
        <clipPath id="5a42524d-8dfa-4eed-9a33-3a2cd4c4e8a4">
            <path class="f8a69f73-9a7e-40cc-8846-01459aaa434c" d="M54.694 63.477a3.879 3.879 0 1 1-3.878 3.879 3.878 3.878 0 0 1 3.878-3.879"/>
        </clipPath>
        <clipPath id="e39cf10b-9af7-4dac-88c5-d633f56b8ebf">
            <path class="f8a69f73-9a7e-40cc-8846-01459aaa434c" d="M35.306 65.415a1.939 1.939 0 1 1-1.938 1.94 1.94 1.94 0 0 1 1.938-1.94"/>
        </clipPath>
        <clipPath id="92a48d1e-0e92-4403-8a7d-c80d1da60eea">
            <path class="f8a69f73-9a7e-40cc-8846-01459aaa434c" d="M54.694 65.415a1.939 1.939 0 1 1-1.938 1.94 1.94 1.94 0 0 1 1.938-1.94"/>
        </clipPath>
        <clipPath id="df275cdd-6101-4f34-ad9e-0427b74453ea">
            <path class="f8a69f73-9a7e-40cc-8846-01459aaa434c" d="M33.367 66.385a.969.969 0 1 1-.97.97.97.97 0 0 1 .97-.97"/>
        </clipPath>
        <clipPath id="77e2928e-e97d-41fe-a448-295a58f449f6">
            <path class="f8a69f73-9a7e-40cc-8846-01459aaa434c" d="M52.755 66.385a.969.969 0 1 1-.97.97.97.97 0 0 1 .97-.97"/>
        </clipPath>
        <clipPath id="25131c94-731a-422c-a107-9439bd6d32b7">
            <path class="f8a69f73-9a7e-40cc-8846-01459aaa434c" d="M52.115 81.153A.966.966 0 0 1 53.4 82.6a12.674 12.674 0 0 1-16.79 0 .966.966 0 0 1 1.28-1.447 10.767 10.767 0 0 0 14.23 0"/>
        </clipPath>
        <clipPath id="ccfdcc4e-525b-47e4-bbe0-1ef5e121841d">
            <path class="f8a69f73-9a7e-40cc-8846-01459aaa434c" d="M48.84 107.368a10.667 10.667 0 0 1-14.5-9.953.969.969 0 1 1 1.938 0 8.728 8.728 0 0 0 11.031 8.419l1.639.279z"/>
        </clipPath>
        <clipPath id="5a0c44df-82d6-4e49-80cd-4d9f89dd225b">
            <path class="f8a69f73-9a7e-40cc-8846-01459aaa434c" d="M53.724 97.415a.969.969 0 1 1 1.938 0 10.669 10.669 0 0 1-6.822 9.953l-1.535-1.534a8.73 8.73 0 0 0 6.419-8.419"/>
        </clipPath>
        <clipPath id="6b1f30e5-40a4-45a0-bfbe-cdff32c35129">
            <path class="f8a69f73-9a7e-40cc-8846-01459aaa434c" d="M43.061 71.233a1.939 1.939 0 0 0 0 3.879h5.816L45 71.233h-1.939z"/>
        </clipPath>
        <clipPath id="bc55cb45-c201-40ce-8698-4673051454a7">
            <path class="f8a69f73-9a7e-40cc-8846-01459aaa434c" d="M33.367 294.258h9.693v7.758h-9.693v-1.94l-1.938-1.939a1.94 1.94 0 0 0 1.938-1.915v-1.964z"/>
        </clipPath>
        <clipPath id="b7181bea-4cb5-4cc9-8ee1-a6525f2aa4b2">
            <path class="f8a69f73-9a7e-40cc-8846-01459aaa434c" d="M44.034 67.355a.965.965 0 1 1 1.931 0v3.878A.968.968 0 0 1 45 72.2h-1.94a.972.972 0 0 0 0 1.944H45a.966.966 0 0 1 0 1.931h-1.939a2.909 2.909 0 0 1 0-5.818h.973v-2.902z"/>
        </clipPath>
        <clipPath id="0553ce07-e036-49f9-9f7d-25d76a47b0d5">
            <path class="f8a69f73-9a7e-40cc-8846-01459aaa434c" d="M56.632 294.258h-9.694v7.758h9.693v-1.94l1.938-1.939a1.939 1.939 0 0 1-1.938-1.915v-1.964z"/>
        </clipPath>
        <clipPath id="f88ef639-b2ec-4646-9306-d847059f1f15">
            <path class="f8a69f73-9a7e-40cc-8846-01459aaa434c" d="M50.521 84.514l-1.464-1.464a10.718 10.718 0 0 0 3.058-1.9.966.966 0 0 1 1.285 1.45 12.711 12.711 0 0 1-2.874 1.914"/>
        </clipPath>
        <clipPath id="6f10b428-b6d4-4e40-b557-fdd900b90dee">
            <path class="f8a69f73-9a7e-40cc-8846-01459aaa434c" d="M71.867 189.534L67.4 220.83l-15.612.11-4.847-19.77a1.939 1.939 0 1 0-3.879 0v95.03h-9.694L18.133 189.534l3.6-11.636h46.531z"/>
        </clipPath>
        <clipPath id="2dd0f0fe-a9c8-41f4-bba5-7cb4617ab320">
            <path class="f8a69f73-9a7e-40cc-8846-01459aaa434c" d="M67.4 220.83L56.631 296.2h-9.693v-95.031a1.954 1.954 0 0 0-.568-1.372z"/>
        </clipPath>
        <clipPath id="2b0882d8-55bd-4b1b-85c1-9e63e66de543">
            <path class="f8a69f73-9a7e-40cc-8846-01459aaa434c" d="M25.612 205.049a.969.969 0 1 1-1.938 0v-3.879a.97.97 0 1 0-1.939 0v5.818A.97.97 0 0 1 19.8 207v.957a.969.969 0 0 1-1.938 0v-.97a.969.969 0 1 1-1.938 0v-2.909a.97.97 0 1 1-1.939 0v-72.725h11.627l-1.939 56.242.711 1.421a11.132 11.132 0 0 1 1.229 5.2v10.829z"/>
        </clipPath>
        <clipPath id="cc7b6aa1-eb0e-4814-993b-1693a5809f95">
            <path class="f8a69f73-9a7e-40cc-8846-01459aaa434c" d="M64.386 205.049a.97.97 0 1 0 1.939 0v-3.879a.969.969 0 1 1 1.938 0v5.818A.97.97 0 0 0 70.2 207v.957a.969.969 0 0 0 1.938 0v-.97a.97.97 0 1 0 1.939 0v-2.909a.97.97 0 1 0 1.939 0v-72.725h-11.63l1.939 56.242-.711 1.421a11.132 11.132 0 0 0-1.229 5.2v10.829z"/>
        </clipPath>
        <clipPath id="8ab29013-ad83-4456-8df9-2664becf747f">
            <path class="f8a69f73-9a7e-40cc-8846-01459aaa434c" d="M76.02 199.23v-19.946l-9.742 6.959.047 1.351-.647 1.293L76.02 199.23z"/>
        </clipPath>
        <clipPath id="4a9af23b-73d8-47e5-8f95-0f6f26071ddc">
            <path class="f8a69f73-9a7e-40cc-8846-01459aaa434c" d="M60.509 104.204v52.36h3.878l3.877-38.787-7.755-13.573z"/>
        </clipPath>
        <clipPath id="15775f25-94cf-4beb-9be7-d0e6acb3e1f4">
            <path class="f8a69f73-9a7e-40cc-8846-01459aaa434c" d="M76.018 187.594V111.96c0-3.878-1.968-4.863-3.876-5.818L58.96 99.548a7.767 7.767 0 0 1 1.549 4.656v14.837l3.876 3.879v64.674h11.633z"/>
        </clipPath>
        <clipPath id="de18a1ef-c87f-4789-8a84-2021350bf884">
            <path class="f8a69f73-9a7e-40cc-8846-01459aaa434c" d="M13.98 187.594V111.96c0-3.878 1.968-4.863 3.878-5.818l13.182-6.594a7.759 7.759 0 0 0-1.55 4.652v52.361h-3.878v31.029H13.98z"/>
        </clipPath>
        <clipPath id="4e36a21e-23cc-45d6-b84a-24283dcb358b">
            <path class="f8a69f73-9a7e-40cc-8846-01459aaa434c" d="M45 303.954H15.918v1.94a1.945 1.945 0 0 0 1.939 1.94h25.2a1.945 1.945 0 0 0 1.943-1.94v-1.94z"/>
        </clipPath>
        <clipPath id="7b7841e7-affa-4b9c-b1ae-f015b0c8bb47">
            <path class="f8a69f73-9a7e-40cc-8846-01459aaa434c" d="M15.918 303.954a3.88 3.88 0 0 1 2.867-3.744l13.454-3.7a6.785 6.785 0 0 0 10.7 1.653.774.774 0 0 1 1.284.339 19.42 19.42 0 0 1 .777 5.452H15.918z"/>
        </clipPath>
        <clipPath id="acbf6141-493d-4de7-8f8c-9d94fa5e79f5">
            <path class="f8a69f73-9a7e-40cc-8846-01459aaa434c" d="M45 303.954h29.08v1.94a1.944 1.944 0 0 1-1.938 1.94h-25.2a1.944 1.944 0 0 1-1.942-1.94v-1.94z"/>
        </clipPath>
        <clipPath id="51e3fc27-cd16-45c1-9219-656f3aaa42fc">
            <path class="f8a69f73-9a7e-40cc-8846-01459aaa434c" d="M74.08 303.954a3.878 3.878 0 0 0-2.867-3.744l-13.454-3.7a6.783 6.783 0 0 1-10.7 1.653.775.775 0 0 0-1.285.339 19.42 19.42 0 0 0-.774 5.452h29.08z"/>
        </clipPath>
    </defs>
    <title>
        people-originals
    </title>
    <path class="846aa722-5ca1-46c5-be8f-86db4ba2c88e bf511d6e-e8e7-4464-9bcb-d9a92982e723" d="M40.385 31.712h42.818v67.407H40.385z"/>
    <path class="93ca3a07-97c3-470e-82eb-e05bde39ea12 727f9119-11d1-4d3f-8037-98e16f70dcb2" d="M6.796 31.713h42.817V99.12H6.796z"/>
    <path class="dde2b803-d7c7-43c3-b3a9-0336d2aee862 bf511d6e-e8e7-4464-9bcb-d9a92982e723" d="M17.398 31.712h32.215v51.893H17.398z"/>
    <path class="2a893a99-768a-4392-a947-85cba660580e a3ce3c26-de28-4e4d-bdb5-4988a2baa2a4" d="M9.365 82.134h71.269v44.136H9.365z"/>
    <path class="7ab39964-58fb-408b-9d5c-aa524d1fd5a3 bbf6b24f-575e-488b-94d2-8a0fab747d22" d="M30.691 82.134h47.951v44.136H30.691z"/>
    <path class="68e62911-651f-4a41-abdf-90b6fcead02e 6a9e1ce2-5914-4d3c-8b7d-e06498fb265a" d="M13.244 96.68h63.511v97.468H13.244z"/>
    <path class="f454e36b-e907-42a0-b924-5d985651b2c4 491902f6-c565-4669-bd63-ac2743b1cfc0" d="M24.541 128.482h50.252v52.205H24.541z"/>
    <path class="10e49f63-d2ae-451a-9fa7-5101799de0f3 491902f6-c565-4669-bd63-ac2743b1cfc0" d="M46.878 97.649h20.86v28.621h-20.86z"/>
    <path class="110f06fe-c36c-4441-9899-070068e56603 bbf6b24f-575e-488b-94d2-8a0fab747d22" d="M55.895 58.863h16.983v16.984H55.895z"/>
    <path class="9805a032-a35a-4806-b123-1b357974e959 f403a8dd-5550-4d1a-8169-66669bbf56c1" d="M57.835 60.801h13.104v13.107H57.835z"/>
    <path class="6f0a3f9a-93c9-437d-a47e-71f135288b55 a3ce3c26-de28-4e4d-bdb5-4988a2baa2a4" d="M17.121 58.863h16.983v16.984H17.121z"/>
    <path class="f8f3225b-dcca-43c4-8422-075e66612e3d bbf6b24f-575e-488b-94d2-8a0fab747d22" d="M19.06 60.801h13.104v13.107H19.06z"/>
    <path class="bb276e16-30e8-4f2c-8333-cc9603f4c436 a3ce3c26-de28-4e4d-bdb5-4988a2baa2a4" d="M20.999 48.455h48.002v52.603H20.999z"/>
    <path class="8f9a76e3-8930-4237-83c1-51fe498fe0ad bbf6b24f-575e-488b-94d2-8a0fab747d22" d="M24.598 48.455H69v47.842H24.598z"/>
    <path class="c79826b3-3fd9-4476-a063-cec9fceac625 6a9e1ce2-5914-4d3c-8b7d-e06498fb265a" d="M26.815 58.863h16.983v16.984H26.815z"/>
    <path class="85036225-79a1-4b3b-a266-ff9851fcd98c 491902f6-c565-4669-bd63-ac2743b1cfc0" d="M46.202 58.863h16.983v16.985H46.202z"/>
    <path class="22d65273-9ea7-4c91-b32b-6f1c8bc30302 c33527b2-cbeb-4031-a9a3-c41a7866b667" d="M28.754 60.801h13.104v13.107H28.754z"/>
    <path class="ae96f014-4646-47da-88f3-55ac3ea2b544 c33527b2-cbeb-4031-a9a3-c41a7866b667" d="M48.141 60.801h13.104v13.107H48.141z"/>
    <path class="63bf2d04-5d16-4920-96a0-955ffca9f790 6a9e1ce2-5914-4d3c-8b7d-e06498fb265a" d="M27.784 61.771h11.167v11.167H27.784z"/>
    <path class="024379d3-5dcb-4dcd-b1ba-d12c44781edd 6a9e1ce2-5914-4d3c-8b7d-e06498fb265a" d="M47.171 61.771h11.166v11.167H47.171z"/>
    <path class="4a4f83f1-071d-4cad-a990-bdace62e1506 46d30819-0ebf-49c0-b79a-40440f03b842" d="M31.665 76.297h26.669v14.097H31.665z"/>
    <path class="970d9647-9f91-407c-a6ba-907b5597ce1d c3986178-de98-4bd9-94ed-f2516f819e19" d="M29.723 91.831h23.836v20.864H29.723z"/>
    <path class="bc631141-1189-446f-b989-a8e10b7ad107 9ffd2cec-6a82-405f-90d9-3ad0b32f03c4" d="M42.691 91.831h17.585v20.151H42.691z"/>
    <path class="f1728b17-7e81-4ef0-a3f9-c0e71e71545a a3ce3c26-de28-4e4d-bdb5-4988a2baa2a4" d="M36.508 66.619h16.983v13.107H36.508z"/>
    <path class="755fae28-5117-47e4-b9db-613b8c2fcb65 a3ce3c26-de28-4e4d-bdb5-4988a2baa2a4" d="M26.815 289.644h20.859v16.985H26.815z"/>
    <path class="64e80725-eb8c-488a-b2df-0634d9604ee8 f403a8dd-5550-4d1a-8169-66669bbf56c1" d="M35.539 61.775h15.04v18.92h-15.04z"/>
    <path class="e31ca201-80d9-4112-84ee-92700476d355 bbf6b24f-575e-488b-94d2-8a0fab747d22" d="M42.324 289.644h20.859v16.985H42.324z"/>
    <path class="84ce2d49-0ddb-4b76-83a1-d66a4a37da55 ad4b959d-223d-4d8e-95e4-e089d616ddb6" d="M44.443 76.297h13.891v12.832H44.443z"/>
    <path class="def9bcf7-3c2a-43db-a84d-f2464158931a e43bc363-9eb8-482c-bbee-672535061b34" d="M13.519 173.283h62.962V300.81H13.519z"/>
    <path class="b6e66eac-1e01-42ed-847d-a3c9fcb43960 34a0b2df-4cfa-403d-88c7-5d2b5293a20b" d="M41.756 195.183h30.255V300.81H41.756z"/>
    <path class="e4a3d07e-bab9-4552-ad9e-0e4e2261780a a3ce3c26-de28-4e4d-bdb5-4988a2baa2a4" d="M9.366 126.739h20.86v86.801H9.366z"/>
    <path class="5bb1ece1-c99a-474a-bf67-f852790deb51 a3ce3c26-de28-4e4d-bdb5-4988a2baa2a4" d="M59.772 126.739h20.862v86.801H59.772z"/>
    <path class="36d6afc4-6037-4c74-9339-a8fb8cb50afa bbf6b24f-575e-488b-94d2-8a0fab747d22" d="M61.064 174.67h19.569v29.174H61.064z"/>
    <path class="7962a858-808e-4b2a-accb-018833f621c3 727f9119-11d1-4d3f-8037-98e16f70dcb2" d="M55.895 99.591h16.983v61.587H55.895z"/>
    <path class="86f3bfc5-5b2d-44e3-af21-a27518f016de bf511d6e-e8e7-4464-9bcb-d9a92982e723" d="M54.347 94.934h26.286v97.274H54.347z"/>
    <path class="b113de0e-9915-47e4-8eda-af9b8f87e174 727f9119-11d1-4d3f-8037-98e16f70dcb2" d="M9.366 94.934h26.287v97.274H9.366z"/>
    <path class="b7a0caee-816d-4d73-9043-4f3d178bfe51 6a9e1ce2-5914-4d3c-8b7d-e06498fb265a" d="M11.304 299.34h38.309v13.108H11.304z"/>
    <path class="52b7da58-1074-4a76-b26e-2b5f30b60f9a 727f9119-11d1-4d3f-8037-98e16f70dcb2" d="M11.304 291.894h38.309v16.674H11.304z"/>
    <path class="0cc034ed-ecad-4f5c-98eb-dfd6cc2289c0 491902f6-c565-4669-bd63-ac2743b1cfc0" d="M40.386 299.34h38.308v13.108H40.386z"/>
    <path class="b461d86a-0576-4814-a332-e02b883b75b0 bf511d6e-e8e7-4464-9bcb-d9a92982e723" d="M40.385 291.894h38.309v16.674H40.385z"/>
</svg>
