<svg id="b1304056-957a-448d-98e8-1d6997ff4a95" data-name="6838c3e1-efa4-4623-9be6-c272a445ec4c" xmlns="http://www.w3.org/2000/svg" viewBox="0 0 90 340.16">
    <defs>
        <style>
            .\37 15e3e6c-8ed2-477c-afa5-c27887fb987a,.af2171f2-ec05-4595-a2b1-d754a9a8eaa5{fill:none}.\37 15e3e6c-8ed2-477c-afa5-c27887fb987a{clip-rule:evenodd}.\35 d7d68dc-7044-4432-88b2-62506a4bc6e7{clip-path:url(#c13c14d5-86a8-4cd2-b4d8-3d35d8d8c78f)}.\34 490dfbe-e9b0-474e-b7c4-3c91fe4a2df7{fill:#5ba2a2}.c32b1a07-cf58-4ed6-b133-3d11816941a6{clip-path:url(#d0d04215-388e-423f-a83c-06b19a10d9e5)}.\31 2e31df1-06dd-4ca3-a041-c9c5285f6c54{fill:#367878}.\38 6f5d4ff-925c-4368-acf8-9e03959099d1{clip-path:url(#f620925b-1895-4364-a346-1d515b3166fc)}.ff2ebf09-16da-452c-bf5a-44879e06ed00{fill:#fbd4cb}.ec83e666-5eec-4d91-8a16-7705a7966822{clip-path:url(#fd444b96-f5f0-415b-8ec1-db950b7e2dfb)}.\39 1435cef-3326-4d9e-9ea5-25b91ef7e10b{clip-path:url(#0bcfc3ae-3e6b-4941-bd78-6516e9eaba22)}.\37 3d10ec1-102a-43cb-bbad-e79d538cb5b3{fill:#d0aea4}.a3367af6-3187-4b91-a7b7-fb7fe1794147{clip-path:url(#b7693cf6-f2d6-4e52-ad7c-e7fd4efa6a17)}.\37 9318fd7-5bef-4ed0-8715-77a771a2d625{fill:#af8b81}.\33 9751af9-8592-4367-8135-0268eb43d2ca{clip-path:url(#79223ca6-749b-489f-94d5-cd59f6d34388)}.\31 0683b65-26d9-4560-b2c0-c0932bb850d1{clip-path:url(#64fb99d6-ff2e-4661-a3f9-621100397f0e)}.\38 3c93ab0-d1ff-4cfe-9b52-5ea285ec21f5{clip-path:url(#241cff3c-db8a-4dac-b7f0-0b113bf98b93)}.\37 6bb084b-4c8f-455c-83a0-8034534aa785{clip-path:url(#d55c0613-6885-4650-81d2-ffa341fb6403)}.d620c03b-810b-4b8e-988b-4b3116bdd162{fill:#ddb3a8}.\32 47c36bc-a8e1-4de3-9606-eb687d0e1288{clip-path:url(#134257da-7285-449d-a884-09524b921d2f)}.\34 2860470-517e-493a-beaa-74dc7af11b3e{clip-path:url(#5ea4c380-c4a5-4dce-ab98-c341dec27f7a)}.\32 244c6c9-184d-4548-bdde-0f392b94f28b{clip-path:url(#2473743a-5710-4872-b94e-1157b7fef0e4)}.\38 7c6e8f0-4a5d-49a2-8fad-9de04b82bf30{fill:#653614}.\31 2bee9c9-4c16-4a2b-99af-0722595dc76b{clip-path:url(#28d78c2e-dfca-44d9-9916-40038ffc8b7a)}.e03dca08-1a45-4d32-a1b1-2ceef61ea3a6{fill:#3f2410}.b998e690-85c7-4129-ac1d-43f23fa5e9a6{clip-path:url(#336c06f5-7cdc-4698-babe-db5cecd1f254)}.e18b570d-78a6-42f7-913f-a6baa90da2bc{fill:#a4c4e7}.\34 50e98cc-5aca-454f-a4fa-a5949f627f99{clip-path:url(#fa7c163d-4829-4b4d-9ebf-23b92d4b6c3c)}.d556e4a5-8630-4a74-a7a6-1da21bd11c72{fill:#789bc7}.\30 83f8e63-b688-4057-bca7-d3e1c23b575e{clip-path:url(#6322bef3-5baf-495c-87fd-25438705c3e1)}.\32 09a2080-80d4-4084-8b2b-781bf39c22df{fill:#fff}.f4022ba1-7e7a-4569-88a3-57e79f880d7d{clip-path:url(#de4ce4ed-2054-4b9e-8b36-a132d26dab1a)}.\35 e4fe599-75d0-48f5-8ee9-d1218cad7e71{clip-path:url(#0b918da2-ced7-4d08-840a-1a70cc0e7a74)}.\32 e56c40a-8673-41db-a27a-8169459dc6f1{clip-path:url(#515ab434-b906-4b8a-bbef-6336ffc3e681)}.c2dc545b-3eb7-4342-9149-101931f2b8d7{clip-path:url(#c6a1558e-b0e3-47e3-8d8c-1eb39ea8a438)}.\32 52ed3f8-10c4-425c-9153-5c2037466fbe{clip-path:url(#d9579410-ab3f-4853-b2f6-1afad9b7e628)}.acc50d4b-8be5-4e18-9766-7bc70d40114f{clip-path:url(#0b9866e2-baa7-4283-8cfc-35c1d10d1f01)}.\39 0a92088-21be-46ca-995b-d6db83a44399{clip-path:url(#9b58104f-3827-4f8d-99f9-de59091ddc75)}.da2b82f8-59bb-4a85-a444-ef77c35f936c{clip-path:url(#e7d2f7bb-e62f-434d-bb84-2b50e09fd88d)}.\38 71ed2c0-c258-4773-9d06-56e8edd8da35{clip-path:url(#089a9a04-4cb7-4b1a-9e75-e00fa7de9774)}.\35 a0448ea-263f-4f06-8e56-2b024cff8782{clip-path:url(#ab204c62-ee78-4082-acdb-f4a0a46bee7f)}.\38 fa40089-6898-44e7-99d0-dd5c92fb21b5{fill:#222c30}.\38 081e7d1-9115-4dec-913c-4ff49c28fbe3{clip-path:url(#613001b8-f339-45f7-b544-7d4a2fd234c7)}.\38 635cd97-3995-4944-b8db-be1a54a82649{fill:#41494d}.\36 235c578-4f48-45b7-9518-32ba68a490d0{clip-path:url(#0e145c8e-30e0-4405-aae4-7fe9635c65f4)}.\35 8db3a49-8742-43dc-a620-cd8be317c7fe{fill:#b82025}.\38 02bd419-afae-4661-b4bc-43d3a4870d5a{clip-path:url(#758ba8ea-f110-485c-82a5-75cc61da622c)}.\36 73e657c-7283-4425-ad13-b61f48d96b06{fill:#971b1e}.dfc00827-ee2e-45bf-b8f4-8c0f5aa73a86{clip-path:url(#c9e46faa-8058-4ebf-a903-806850c1e834)}.\30 8fc6b6d-f39e-4414-ba0b-4b039c3d37b6{clip-path:url(#6aa23eb8-f325-4bde-90f6-8790d6dfb6e3)}.\39 f41b728-33d4-4351-9154-e909ad3b16a8{clip-path:url(#ac1ac57f-d9b2-4ca9-a536-df2593539e1d)}.\33 8884a6a-5a2d-4bf0-aa5a-3f4e9205cd5e{clip-path:url(#19a6d9e7-0628-40a0-9187-f5fa3983d9a9)}.\39 568fae9-7f1c-4c14-9b4f-c1047180f9ca{clip-path:url(#0aa85794-fc24-4c19-824b-d5867ad0e1b1)}.\32 96d0865-7093-4ef8-aa3f-abe1d0a531b9{clip-path:url(#4559c6fc-33b2-4dc6-8978-3f90b46786e7)}.\36 941bf2d-0b45-427f-96ee-d016b26a1060{fill:#f06162}.\36 6294db9-7bd2-43ea-98eb-af45dffc738b{clip-path:url(#ad5528a0-802c-418b-9df1-e65b8c80bb81)}.ebc5da4b-3a6b-407f-88dc-3cb33c301b52{fill:#de3331}.\32 c03b1d6-7310-4c68-a28e-023fb3f13a2f{clip-path:url(#ed386aef-b9d8-4a1b-841a-32b498f426b6)}.fa7d7812-39d3-41ef-9878-e09490db4818{clip-path:url(#2116e719-1ae5-46ec-a671-7e191705264a)}.\30 c93fa9a-0034-447e-a771-f996bbef24f0{fill:#ba643c}.d8fc12b0-7734-436e-8ba7-d9ff2c2aa54c{clip-path:url(#43558a8c-fc1d-4ea4-bce1-7c0c4d4fe698)}.ff21d5cb-9162-4dda-8eb2-affeac751476{fill:#e5e5e4}.\38 83cef5d-23a4-4621-a798-96f2c1423f7b{clip-path:url(#3a9124f4-e6fd-45cf-842a-9f3ba3812799)}.afbf6ce2-9395-4ae3-ab61-eb49ad98b9fe{fill:#9d5031}.d0953177-54e9-4a5c-ad93-a33322edf636{clip-path:url(#6dd38670-9945-4296-af92-fa2ad69350a7)}
        </style>
        <clipPath id="c13c14d5-86a8-4cd2-b4d8-3d35d8d8c78f">
            <path class="715e3e6c-8ed2-477c-afa5-c27887fb987a" d="M21.716 172.626h46.529v49.662l-21.326-20.572a1.939 1.939 0 1 0-3.878 0l-7.755 91.149h-13.57V172.626z"/>
        </clipPath>
        <clipPath id="d0d04215-388e-423f-a83c-06b19a10d9e5">
            <path class="715e3e6c-8ed2-477c-afa5-c27887fb987a" d="M68.245 222.288v70.577H54.674l-7.755-91.149a2.264 2.264 0 0 0-.53-1.292z"/>
        </clipPath>
        <clipPath id="f620925b-1895-4364-a346-1d515b3166fc">
            <path class="715e3e6c-8ed2-477c-afa5-c27887fb987a" d="M21.716 213.352a.969.969 0 1 1-1.938 0v-3.879a.97.97 0 1 0-1.939 0v5.819a.97.97 0 0 1-1.939.012v.958a.969.969 0 1 1-1.938 0v-.97a.969.969 0 1 1-1.938 0v-2.91a.969.969 0 1 1-1.938 0v-76.6h11.63v77.574z"/>
        </clipPath>
        <clipPath id="fd444b96-f5f0-415b-8ec1-db950b7e2dfb">
            <path class="715e3e6c-8ed2-477c-afa5-c27887fb987a" d="M68.245 213.352a.969.969 0 1 0 1.938 0v-3.879a.97.97 0 1 1 1.939 0v5.819a.969.969 0 0 0 1.938.012v.958a.97.97 0 1 0 1.939 0v-.97a.969.969 0 1 0 1.938 0v-2.91a.97.97 0 1 0 1.939 0v-76.6H68.245v77.574z"/>
        </clipPath>
        <clipPath id="0bcfc3ae-3e6b-4941-bd78-6516e9eaba22">
            <path class="af2171f2-ec05-4595-a2b1-d754a9a8eaa5" d="M33.348 87.296h23.264v27.149H33.348z"/>
        </clipPath>
        <clipPath id="b7693cf6-f2d6-4e52-ad7c-e7fd4efa6a17">
            <path class="715e3e6c-8ed2-477c-afa5-c27887fb987a" d="M33.348 87.296h23.264v27.149h-4.153L33.348 95.329v-8.033z"/>
        </clipPath>
        <clipPath id="79223ca6-749b-489f-94d5-cd59f6d34388">
            <path class="715e3e6c-8ed2-477c-afa5-c27887fb987a" d="M64.368 64.023a3.879 3.879 0 1 0 3.877 3.877 3.877 3.877 0 0 0-3.878-3.879"/>
        </clipPath>
        <clipPath id="64fb99d6-ff2e-4661-a3f9-621100397f0e">
            <path class="715e3e6c-8ed2-477c-afa5-c27887fb987a" d="M64.368 65.961a1.94 1.94 0 1 0 1.938 1.94 1.939 1.939 0 0 0-1.938-1.94"/>
        </clipPath>
        <clipPath id="241cff3c-db8a-4dac-b7f0-0b113bf98b93">
            <path class="715e3e6c-8ed2-477c-afa5-c27887fb987a" d="M25.593 64.023a3.879 3.879 0 1 0 3.878 3.877 3.877 3.877 0 0 0-3.878-3.879"/>
        </clipPath>
        <clipPath id="d55c0613-6885-4650-81d2-ffa341fb6403">
            <path class="715e3e6c-8ed2-477c-afa5-c27887fb987a" d="M25.593 65.961a1.94 1.94 0 1 0 1.938 1.94 1.94 1.94 0 0 0-1.938-1.94"/>
        </clipPath>
        <clipPath id="134257da-7285-449d-a884-09524b921d2f">
            <path class="715e3e6c-8ed2-477c-afa5-c27887fb987a" d="M44.98 40.751a19.447 19.447 0 0 1 19.388 19.393v19.394a19.387 19.387 0 1 1-38.774 0V60.144A19.446 19.446 0 0 1 44.98 40.751"/>
        </clipPath>
        <clipPath id="5ea4c380-c4a5-4dce-ab98-c341dec27f7a">
            <path class="715e3e6c-8ed2-477c-afa5-c27887fb987a" d="M63.914 83.7a19.532 19.532 0 0 1-13.235 14.372l6.05-21.559z"/>
        </clipPath>
        <clipPath id="2473743a-5710-4872-b94e-1157b7fef0e4">
            <path class="715e3e6c-8ed2-477c-afa5-c27887fb987a" d="M44.98 39.78a20.417 20.417 0 0 1 20.357 20.364v19.393a20.356 20.356 0 0 1-40.712 0V60.144A20.419 20.419 0 0 1 44.98 39.78m-7.769 6.774c-7.6 0-10.649 6.818-10.649 13.59V72.75a6.787 6.787 0 0 0 6.785 6.788h23.265a6.787 6.787 0 0 0 6.787-6.78V60.144c0-6.78-3.055-13.59-10.663-13.59a11.6 11.6 0 0 0-7.763 2.965 11.6 11.6 0 0 0-7.761-2.965"/>
        </clipPath>
        <clipPath id="28d78c2e-dfca-44d9-9916-40038ffc8b7a">
            <path class="715e3e6c-8ed2-477c-afa5-c27887fb987a" d="M64.72 84.505a20.51 20.51 0 0 1-13.272 14.337L33.229 80.615v-1.079h23.383a6.755 6.755 0 0 0 2.619-.524z"/>
        </clipPath>
        <clipPath id="336c06f5-7cdc-4698-babe-db5cecd1f254">
            <path class="715e3e6c-8ed2-477c-afa5-c27887fb987a" d="M33.348 98.93a11.632 11.632 0 1 0 23.264 0v85.331H33.348V98.93z"/>
        </clipPath>
        <clipPath id="fa7c163d-4829-4b4d-9ebf-23b92d4b6c3c">
            <path class="715e3e6c-8ed2-477c-afa5-c27887fb987a" d="M36.754 107.159a11.631 11.631 0 0 0 19.859-8.229v28.093z"/>
        </clipPath>
        <clipPath id="6322bef3-5baf-495c-87fd-25438705c3e1">
            <path class="715e3e6c-8ed2-477c-afa5-c27887fb987a" d="M35.287 64.023a3.879 3.879 0 1 1-3.878 3.877 3.878 3.878 0 0 1 3.878-3.879"/>
        </clipPath>
        <clipPath id="de4ce4ed-2054-4b9e-8b36-a132d26dab1a">
            <path class="715e3e6c-8ed2-477c-afa5-c27887fb987a" d="M54.674 64.023A3.879 3.879 0 1 1 50.8 67.9a3.878 3.878 0 0 1 3.878-3.879"/>
        </clipPath>
        <clipPath id="0b918da2-ced7-4d08-840a-1a70cc0e7a74">
            <path class="715e3e6c-8ed2-477c-afa5-c27887fb987a" d="M35.287 65.961a1.94 1.94 0 1 1-1.938 1.94 1.94 1.94 0 0 1 1.938-1.94"/>
        </clipPath>
        <clipPath id="515ab434-b906-4b8a-bbef-6336ffc3e681">
            <path class="715e3e6c-8ed2-477c-afa5-c27887fb987a" d="M54.674 65.961a1.94 1.94 0 1 1-1.938 1.94 1.94 1.94 0 0 1 1.938-1.94"/>
        </clipPath>
        <clipPath id="c6a1558e-b0e3-47e3-8d8c-1eb39ea8a438">
            <path class="715e3e6c-8ed2-477c-afa5-c27887fb987a" d="M33.348 66.931a.97.97 0 1 1-.97.97.97.97 0 0 1 .97-.97"/>
        </clipPath>
        <clipPath id="d9579410-ab3f-4853-b2f6-1afad9b7e628">
            <path class="715e3e6c-8ed2-477c-afa5-c27887fb987a" d="M52.736 66.931a.97.97 0 1 1-.97.97.97.97 0 0 1 .97-.97"/>
        </clipPath>
        <clipPath id="0b9866e2-baa7-4283-8cfc-35c1d10d1f01">
            <path class="715e3e6c-8ed2-477c-afa5-c27887fb987a" d="M35.287 75.659a.97.97 0 0 1 0 1.94.966.966 0 0 0-.968.97.947.947 0 0 0 .96.956h1.947a1.945 1.945 0 0 0 1.939-1.933 2.076 2.076 0 0 1 1.935-1.933h7.768a2.075 2.075 0 0 1 1.932 1.933 1.944 1.944 0 0 0 1.938 1.933h1.948a.947.947 0 0 0 .96-.956.966.966 0 0 0-.968-.97.97.97 0 0 1 0-1.94 2.9 2.9 0 1 1 .009 5.8h-7.764a2.911 2.911 0 0 1-1.939-.735 2.908 2.908 0 0 1-1.938.735h-7.764a2.9 2.9 0 1 1 .009-5.8"/>
        </clipPath>
        <clipPath id="9b58104f-3827-4f8d-99f9-de59091ddc75">
            <path class="715e3e6c-8ed2-477c-afa5-c27887fb987a" d="M44.015 67.9a.965.965 0 1 1 1.931 0v3.88a.97.97 0 0 1-.965.97h-1.94a.971.971 0 0 0 0 1.943h1.939a.966.966 0 0 1 0 1.932h-1.939a2.909 2.909 0 0 1 0-5.819h.973V67.9z"/>
        </clipPath>
        <clipPath id="e7d2f7bb-e62f-434d-bb84-2b50e09fd88d">
            <path class="715e3e6c-8ed2-477c-afa5-c27887fb987a" d="M32.379 63.048a.966.966 0 1 1 0-1.931h5.816a.965.965 0 1 1 0 1.93h-5.816z"/>
        </clipPath>
        <clipPath id="089a9a04-4cb7-4b1a-9e75-e00fa7de9774">
            <path class="715e3e6c-8ed2-477c-afa5-c27887fb987a" d="M51.766 63.048a.966.966 0 1 1 0-1.931h5.816a.965.965 0 1 1 0 1.93h-5.816z"/>
        </clipPath>
        <clipPath id="ab204c62-ee78-4082-acdb-f4a0a46bee7f">
            <path class="715e3e6c-8ed2-477c-afa5-c27887fb987a" d="M60.49 64.993H50.8a.97.97 0 0 0-.97.969V67.9a2.92 2.92 0 0 0 2.908 2.909h4.847A2.92 2.92 0 0 0 60.49 67.9v-2.907zm-15.51-1.94a4.83 4.83 0 0 1 3.362 1.357 2.917 2.917 0 0 1 2.458-1.357h14.536a.97.97 0 0 1 0 1.94H62.43V67.9a4.86 4.86 0 0 1-4.847 4.849h-4.848a4.86 4.86 0 0 1-4.846-4.849 2.909 2.909 0 0 0-2.909-2.909l-.776-.97z"/>
        </clipPath>
        <clipPath id="613001b8-f339-45f7-b544-7d4a2fd234c7">
            <path class="715e3e6c-8ed2-477c-afa5-c27887fb987a" d="M24.624 64.992a.97.97 0 0 1 0-1.94h14.54a2.916 2.916 0 0 1 2.455 1.357 4.831 4.831 0 0 1 3.361-1.357v1.94a2.908 2.908 0 0 0-2.908 2.908 4.86 4.86 0 0 1-4.846 4.849h-4.847a4.86 4.86 0 0 1-4.848-4.849v-2.908h-2.907zm14.541 0h-9.694V67.9a2.919 2.919 0 0 0 2.908 2.909h4.847a2.92 2.92 0 0 0 2.908-2.909v-1.94a.971.971 0 0 0-.97-.968z"/>
        </clipPath>
        <clipPath id="0e145c8e-30e0-4405-aae4-7fe9635c65f4">
            <path class="715e3e6c-8ed2-477c-afa5-c27887fb987a" d="M79.877 122.2v-7.758c0-3.876-1.968-4.863-3.876-5.816l-19.389-9.7v100.852h11.633V160.99h11.632V122.2zM33.348 98.93l-19.388 9.7-.089.044-.09.045-.089.045-.09.046-.089.045-.09.046-.089.046-.089.046-.089.048-.088.049-.089.048-.086.05-.086.05-.086.053-.086.051-.084.055-.085.053-.084.056-.084.058-.081.056-.081.06c-.029.02-.055.04-.081.061l-.08.061-.079.065a2.44 2.44 0 0 0-.078.065l-.077.068-.076.07-.074.071-.073.071-.073.075-.07.076c-.024.025-.046.051-.069.079l-.069.08-.066.084-.064.085c-.023.029-.043.058-.064.086l-.061.091-.061.093-.058.094-.056.1-.055.1-.053.1-.051.106-.049.109c-.016.038-.033.073-.048.111s-.031.075-.045.114-.03.078-.044.119l-.041.12-.04.124a1.806 1.806 0 0 0-.035.126l-.034.13-.031.135c-.01.046-.021.09-.03.138-.009.046-.019.093-.026.14s-.018.1-.026.145l-.023.148-.02.152c-.006.052-.013.1-.018.156l-.016.16-.013.161c-.004.053-.006.111-.009.169s-.006.113-.007.17V160.989h11.622v38.787h11.633V98.93z"/>
        </clipPath>
        <clipPath id="758ba8ea-f110-485c-82a5-75cc61da622c">
            <path class="715e3e6c-8ed2-477c-afa5-c27887fb987a" d="M79.877 122.2v-7.758c0-3.878-1.968-4.863-3.876-5.818l-19.389-9.7v28.093l23.265 23.272V122.2z"/>
        </clipPath>
        <clipPath id="c9e46faa-8058-4ebf-a903-806850c1e834">
            <path class="715e3e6c-8ed2-477c-afa5-c27887fb987a" d="M10.084 141.6h3.876v-3.88h-3.876v-3.878h3.876v-3.879h-3.876v-3.879h3.876V122.2h-3.876v-3.876h3.876v-3.88h-3.876a6.075 6.075 0 0 1 1.117-3.878h2.759v-1.94l3.878-1.94 7.755-3.878h3.877v-1.94l3.878-1.94v100.85H21.715v-38.787H10.084v-3.88h3.876v-3.878h-3.876v-3.878h3.876v-3.879h-3.876V141.6zm7.754-23.272h3.878v-3.88h-3.878v3.88zm7.755 0h3.877v-3.88h-3.877v3.88zm-7.755-11.638v3.88h3.878v-3.88h-3.878zm7.755 3.88h3.877v-3.88h-3.877v3.88zm0 69.816h3.877v-3.876h-3.877v3.878zm0 7.758h3.877v-3.879h-3.877v3.879zm0 7.758h3.877v-3.882h-3.877v3.88zm3.878-34.908h-3.878v3.878h3.877v-3.878zm-3.878 11.635h3.877v-3.878h-3.877v3.878zm0-31.029h3.877v-3.88h-3.877v3.88zm0 7.758h3.877v-3.879h-3.877v3.879zm-7.755 0h3.878v-3.879h-3.878v3.879zm0 3.878v3.879h3.878v-3.879h-3.878zm7.755 3.879h3.877v-3.879h-3.877v3.879zm0-31.029h3.877V122.2h-3.877v3.88zm-7.755 0h3.878V122.2h-3.878v3.88zm0 15.515h3.878v-3.88h-3.878v3.88zm0-11.636v3.879h3.878v-3.879h-3.878zm7.755 3.879h3.877v-3.879h-3.877v3.879z"/>
        </clipPath>
        <clipPath id="6aa23eb8-f325-4bde-90f6-8790d6dfb6e3">
            <path class="715e3e6c-8ed2-477c-afa5-c27887fb987a" d="M21.715 104.749l3.878-1.939v3.878h-3.878v-1.939zm11.633 87.27H29.47v-3.879h3.878v3.879zm0 7.759H29.47V195.9h3.878v3.88zm-7.755-11.638h-3.878v3.879h3.878v-3.879zm0 7.758h-3.878v3.88h3.878V195.9zm7.755-19.392H29.47v-3.879h3.878v3.879zm0 7.756H29.47v-3.879h3.878v3.879zm-7.755-11.635h-3.878v3.879h3.878v-3.879zm0 7.756h-3.878v3.879h3.878v-3.879zm7.755-19.393H29.47v-3.88h3.878v3.88zm0 7.758H29.47v-3.88h3.878v3.88zm-7.755-11.638h-3.878v3.88h3.878v-3.88zm-7.755 0H13.96v3.88h3.878v-3.88zm7.755 7.758h-3.878v3.88h3.878v-3.88zm7.755-19.393H29.47V141.6h3.878v3.879zm0 7.756H29.47v-3.879h3.878v3.879zm-19.388-3.876h3.878v3.879H13.96v-3.879zm11.633-7.755h-3.878v3.879h3.878V141.6zm-7.755 0H13.96v3.879h3.878V141.6zm7.755 7.758h-3.878v3.879h3.878v-3.879zm7.755-19.394H29.47v-3.879h3.878v3.879zm0 7.756H29.47v-3.878h3.878v3.878zm-19.388-3.881h3.878v3.878H13.96v-3.878zm11.633-7.758h-3.878v3.879h3.878v-3.879zm-7.755 0H13.96v3.879h3.878v-3.879zm7.755 7.758h-3.878v3.878h3.878v-3.878zm7.755-27.152H29.47v-3.877h3.878v3.878zm0 7.758H29.47v-3.878h3.878v3.878zm0 7.756H29.47v-3.878h3.878v3.877zm-19.388-3.876h3.878v3.875H13.96v-3.878zm11.633-7.758h-3.878v3.878h3.878v-3.878zm-7.755 0H13.96v3.878h3.878v-3.878zm7.755 7.758h-3.878v3.875h3.878v-3.878z"/>
        </clipPath>
        <clipPath id="ac1ac57f-d9b2-4ca9-a536-df2593539e1d">
            <path class="715e3e6c-8ed2-477c-afa5-c27887fb987a" d="M79.877 141.6H76v-3.88h3.876v-3.878H76v-3.879h3.876v-3.879H76V122.2h3.876v-3.876H76v-3.88h3.876a6.082 6.082 0 0 0-1.117-3.878H76v-1.94l-3.879-1.94-7.754-3.878h-3.876v-1.94l-3.879-1.94v100.85h11.633v-38.787h11.632v-3.88H76v-3.878h3.876v-3.878H76v-3.879h3.876V141.6zm-7.755-23.272h-3.877v-3.88h3.878v3.88zm-7.754 0h-3.877v-3.88h3.878v3.88zm7.755-11.638v3.88h-3.878v-3.88h3.879zm-7.755 3.88h-3.877v-3.88h3.878v3.88zm0 69.816h-3.877v-3.876h3.878v3.878zm0 7.758h-3.877v-3.879h3.878v3.879zm0 7.758h-3.877v-3.882h3.878v3.88zm-3.878-34.908h3.878v3.878h-3.877v-3.878zm3.878 11.635h-3.877v-3.878h3.878v3.878zm0-31.029h-3.877v-3.88h3.878v3.88zm0 7.758h-3.877v-3.879h3.878v3.879zm7.754 0h-3.877v-3.879h3.878v3.879zm0 3.878v3.879h-3.877v-3.879h3.879zm-7.755 3.879h-3.876v-3.879h3.878v3.879zm0-31.029h-3.876V122.2h3.878v3.88zm7.754 0h-3.876V122.2h3.878v3.88zm0 15.515h-3.876v-3.88h3.878v3.88zm0-11.636v3.879h-3.876v-3.879h3.879zm-7.755 3.879h-3.875v-3.879h3.878v3.879z"/>
        </clipPath>
        <clipPath id="19a6d9e7-0628-40a0-9187-f5fa3983d9a9">
            <path class="715e3e6c-8ed2-477c-afa5-c27887fb987a" d="M79.877 141.6H76v-3.88h3.876v-3.88H76v-3.879h3.876v-3.879H76V122.2h3.876v-3.878H76v-3.88h3.876a6.074 6.074 0 0 0-1.117-3.876H76v-1.94l-3.879-1.94-7.754-3.878h-3.876v-1.94l-3.879-1.94v28.093l3.879 3.879v-.941h3.878v3.879h-.943l4.82 4.819v-.941h3.876v3.88h-.941l4.819 4.82v-.94h3.876V141.6zm0 8.7v-.942h-.94zm-7.755-31.972h-3.878v-3.88h3.878v3.88zm-7.754 0h-3.877v-3.88h3.878v3.88zm7.755-11.636v3.88h-3.877v-3.88h3.878zm-7.755 3.88h-3.877v-3.88h3.878v3.88zm0 15.514h-3.877V122.2h3.878v3.88zm7.754 0h-3.878V122.2h3.878v3.88zm0 3.879v3.879h-3.876v-3.879h3.878z"/>
        </clipPath>
        <clipPath id="0aa85794-fc24-4c19-824b-d5867ad0e1b1">
            <path class="715e3e6c-8ed2-477c-afa5-c27887fb987a" d="M68.245 104.749l-3.876-1.939v3.878h3.876v-1.939zm-11.633 87.27h3.878v-3.879h-3.878v3.879zm0 7.759h3.878V195.9h-3.878v3.88zm7.756-11.638h3.878v3.879h-3.878v-3.879zm0 7.758h3.878v3.88h-3.878V195.9zm-7.756-19.392h3.878v-3.879h-3.878v3.879zm0 7.756h3.878v-3.879h-3.878v3.879zm7.756-11.635h3.878v3.879h-3.878v-3.879zm0 7.756h3.878v3.879h-3.878v-3.879zm-7.756-19.393h3.878v-3.88h-3.878v3.88zm0 7.758h3.878v-3.88h-3.878v3.88zm7.756-11.638h3.878v3.88h-3.878v-3.88zm7.754 0H76v3.88h-3.878v-3.88zm-7.754 7.758h3.878v3.88h-3.878v-3.88zm-7.756-19.393h3.878V141.6h-3.878v3.879zm0 7.756h3.878v-3.879h-3.878v3.879zM76 149.355h-3.877v3.879H76v-3.879zM64.368 141.6h3.878v3.879h-3.878V141.6zm7.754 0H76v3.879h-3.878V141.6zm-7.754 7.758h3.878v3.879h-3.878v-3.879zm-7.756-19.394h3.878v-3.879h-3.878v3.879zm0 7.756h3.878v-3.878h-3.878v3.878zM76 133.839h-3.877v3.878H76v-3.878zm-11.633-7.758h3.878v3.879h-3.877v-3.879zm7.754 0H76v3.879h-3.878v-3.879zm-7.754 7.758h3.878v3.878h-3.877v-3.878zm-7.756-27.152h3.879v-3.877h-3.878v3.878zm0 7.758h3.879v-3.878h-3.878v3.878zm0 7.756h3.879v-3.878h-3.878v3.877zM76 118.325h-3.877v3.875H76v-3.878zm-11.633-7.758h3.878v3.878h-3.877v-3.878zm7.754 0H76v3.878h-3.878v-3.878zm-7.754 7.758h3.878v3.875h-3.877v-3.878z"/>
        </clipPath>
        <clipPath id="4559c6fc-33b2-4dc6-8978-3f90b46786e7">
            <path class="af2171f2-ec05-4595-a2b1-d754a9a8eaa5" d="M10.084 160.991h11.633v7.758H10.084z"/>
        </clipPath>
        <clipPath id="ad5528a0-802c-418b-9df1-e65b8c80bb81">
            <path class="af2171f2-ec05-4595-a2b1-d754a9a8eaa5" d="M68.245 160.991h11.633v7.758H68.245z"/>
        </clipPath>
        <clipPath id="ed386aef-b9d8-4a1b-841a-32b498f426b6">
            <path class="715e3e6c-8ed2-477c-afa5-c27887fb987a" d="M2.348 304.5h34.9v2.91a.972.972 0 0 1-.97.969H3.316a.973.973 0 0 1-.968-.969v-2.91z"/>
        </clipPath>
        <clipPath id="2116e719-1ae5-46ec-a671-7e191705264a">
            <path class="715e3e6c-8ed2-477c-afa5-c27887fb987a" d="M35.326 290.925a.974.974 0 0 1 .97.97v1.94a.97.97 0 0 1-.427.8 47.6 47.6 0 0 1 1.37 9.864H2.348a3.666 3.666 0 0 1 2.639-3.676l11.49-2.553a6.944 6.944 0 0 0 4.462-3.914.978.978 0 0 1-.154-.523v-1.94a.973.973 0 0 1 .95-.97h13.591z"/>
        </clipPath>
        <clipPath id="43558a8c-fc1d-4ea4-bce1-7c0c4d4fe698">
            <path class="715e3e6c-8ed2-477c-afa5-c27887fb987a" d="M87.652 304.5h-34.9v2.91a.973.973 0 0 0 .97.969h32.96a.973.973 0 0 0 .97-.969v-2.91z"/>
        </clipPath>
        <clipPath id="3a9124f4-e6fd-45cf-842a-9f3ba3812799">
            <path class="715e3e6c-8ed2-477c-afa5-c27887fb987a" d="M54.674 290.925a.974.974 0 0 0-.97.97v1.94a.97.97 0 0 0 .427.8 47.6 47.6 0 0 0-1.37 9.864h34.89a3.666 3.666 0 0 0-2.639-3.676l-11.49-2.553a6.949 6.949 0 0 1-4.463-3.914.967.967 0 0 0 .154-.523v-1.94a.972.972 0 0 0-.95-.97H54.674z"/>
        </clipPath>
        <clipPath id="6dd38670-9945-4296-af92-fa2ad69350a7">
            <path class="715e3e6c-8ed2-477c-afa5-c27887fb987a" d="M74.061 171.656a2.91 2.91 0 0 1 .968 5.654v.165H76v1.939h-.97v3.714a2.911 2.911 0 0 0 1.938-2.744h1.939a4.847 4.847 0 1 1-9.693 0h1.939a2.909 2.909 0 0 0 1.938 2.744v-3.714h-.97v-1.939h.97v-.166a2.91 2.91 0 0 1 .97-5.652m0 1.94a.969.969 0 1 0 .968.97.964.964 0 0 0-.968-.97"/>
        </clipPath>
    </defs>
    <title>
        people-originals
    </title>
    <path class="5d7d68dc-7044-4432-88b2-62506a4bc6e7 4490dfbe-e9b0-474e-b7c4-3c91fe4a2df7" d="M17.102 168.012h55.757v129.467H17.102z"/>
    <path class="c32b1a07-cf58-4ed6-b133-3d11816941a6 12e31df1-06dd-4ca3-a041-c9c5285f6c54" d="M41.775 195.81h31.084v101.668H41.775z"/>
    <path class="86f5d4ff-925c-4368-acf8-9e03959099d1 ff2ebf09-16da-452c-bf5a-44879e06ed00" d="M5.469 131.165h20.86v90.681H5.469z"/>
    <path class="ec83e666-5eec-4d91-8a16-7705a7966822 ff2ebf09-16da-452c-bf5a-44879e06ed00" d="M63.631 131.165h20.86v90.681h-20.86z"/>
    <path class="91435cef-3326-4d9e-9ea5-25b91ef7e10b 73d10ec1-102a-43cb-bbad-e79d538cb5b3" d="M28.734 82.682h32.492v36.377H28.734z"/>
    <path class="a3367af6-3187-4b91-a7b7-fb7fe1794147 79318fd7-5bef-4ed0-8715-77a771a2d625" d="M28.734 82.682h32.492v36.377H28.734z"/>
    <path class="39751af9-8592-4367-8135-0268eb43d2ca 73d10ec1-102a-43cb-bbad-e79d538cb5b3" d="M55.876 59.409h16.983v16.985H55.876z"/>
    <path class="10683b65-26d9-4560-b2c0-c0932bb850d1 79318fd7-5bef-4ed0-8715-77a771a2d625" d="M57.816 61.347H70.92v13.108H57.816z"/>
    <path class="83c93ab0-d1ff-4cfe-9b52-5ea285ec21f5 ff2ebf09-16da-452c-bf5a-44879e06ed00" d="M17.102 59.409h16.983v16.985H17.102z"/>
    <path class="76bb084b-4c8f-455c-83a0-8034534aa785 d620c03b-810b-4b8e-988b-4b3116bdd162" d="M19.041 61.347h13.104v13.108H19.041z"/>
    <path class="247c36bc-a8e1-4de3-9606-eb687d0e1288 ff2ebf09-16da-452c-bf5a-44879e06ed00" d="M20.98 36.137h48.002v67.407H20.98z"/>
    <path class="42860470-517e-493a-beaa-74dc7af11b3e d620c03b-810b-4b8e-988b-4b3116bdd162" d="M46.065 71.898h22.463v30.787H46.065z"/>
    <path class="2244c6c9-184d-4548-bdde-0f392b94f28b 87c6e8f0-4a5d-49a2-8fad-9de04b82bf30" d="M20.01 35.166h49.94v69.347H20.01z"/>
    <path class="12bee9c9-4c16-4a2b-99af-0722595dc76b e03dca08-1a45-4d32-a1b1-2ceef61ea3a6" d="M28.615 74.399h40.719v29.056H28.615z"/>
    <path class="b998e690-85c7-4129-ac1d-43f23fa5e9a6 e18b570d-78a6-42f7-913f-a6baa90da2bc" d="M28.734 94.316h32.492v94.559H28.734z"/>
    <path class="450e98cc-5aca-454f-a4fa-a5949f627f99 d556e4a5-8630-4a74-a7a6-1da21bd11c72" d="M32.141 94.317h29.086v37.321H32.141z"/>
    <path class="083f8e63-b688-4057-bca7-d3e1c23b575e 209a2080-80d4-4084-8b2b-781bf39c22df" d="M26.795 59.409h16.983v16.985H26.795z"/>
    <path class="f4022ba1-7e7a-4569-88a3-57e79f880d7d 209a2080-80d4-4084-8b2b-781bf39c22df" d="M46.183 59.409h16.983v16.987H46.183z"/>
    <path class="5e4fe599-75d0-48f5-8ee9-d1218cad7e71 87c6e8f0-4a5d-49a2-8fad-9de04b82bf30" d="M28.735 61.347h13.104v13.108H28.735z"/>
    <path class="2e56c40a-8673-41db-a27a-8169459dc6f1 87c6e8f0-4a5d-49a2-8fad-9de04b82bf30" d="M48.122 61.347h13.104v13.108H48.122z"/>
    <path class="c2dc545b-3eb7-4342-9149-101931f2b8d7 209a2080-80d4-4084-8b2b-781bf39c22df" d="M27.765 62.317h11.166v11.168H27.765z"/>
    <path class="252ed3f8-10c4-425c-9153-5c2037466fbe 209a2080-80d4-4084-8b2b-781bf39c22df" d="M47.152 62.317h11.166v11.168H47.152z"/>
    <path class="acc50d4b-8be5-4e18-9766-7bc70d40114f 87c6e8f0-4a5d-49a2-8fad-9de04b82bf30" d="M27.765 71.045h34.431v15.032H27.765z"/>
    <path class="90a92088-21be-46ca-995b-d6db83a44399 79318fd7-5bef-4ed0-8715-77a771a2d625" d="M35.519 62.321h15.04v18.922h-15.04z"/>
    <path class="da2b82f8-59bb-4a85-a444-ef77c35f936c 87c6e8f0-4a5d-49a2-8fad-9de04b82bf30" d="M26.799 56.503h16.975v11.159H26.799z"/>
    <path class="871ed2c0-c258-4773-9d06-56e8edd8da35 87c6e8f0-4a5d-49a2-8fad-9de04b82bf30" d="M46.186 56.503h16.975v11.159H46.186z"/>
    <path class="5a0448ea-263f-4f06-8e56-2b024cff8782 8fa40089-6898-44e7-99d0-dd5c92fb21b5" d="M39.59 58.439h31.329v18.925H39.59z"/>
    <path class="8081e7d1-9115-4dec-913c-4ff49c28fbe3 8635cd97-3995-4944-b8db-be1a54a82649" d="M19.04 58.439h30.554v18.925H19.04z"/>
    <path class="6235c578-4f48-45b7-9518-32ba68a490d0 58db3a49-8742-43dc-a620-cd8be317c7fe" d="M5.469 94.316h79.023v110.076H5.469z"/>
    <path class="802bd419-afae-4661-b4bc-43d3a4870d5a 673e657c-7283-4425-ad13-b61f48d96b06" d="M51.998 94.317h32.493v60.592H51.998z"/>
    <path class="dfc00827-ee2e-45bf-b8f4-8c0f5aa73a86 8635cd97-3995-4944-b8db-be1a54a82649" d="M5.47 94.316h32.492v110.076H5.47z"/>
    <path class="08fc6b6d-f39e-4414-ba0b-4b039c3d37b6 8fa40089-6898-44e7-99d0-dd5c92fb21b5" d="M9.346 98.196h28.616v106.196H9.346z"/>
    <path class="9f41b728-33d4-4351-9154-e909ad3b16a8 8635cd97-3995-4944-b8db-be1a54a82649" d="M51.998 94.316h32.493v110.076H51.998z"/>
    <path class="38884a6a-5a2d-4bf0-aa5a-3f4e9205cd5e 8fa40089-6898-44e7-99d0-dd5c92fb21b5" d="M51.998 94.316h32.493v60.593H51.998z"/>
    <path class="9568fae9-7f1c-4c14-9b4f-c1047180f9ca 8fa40089-6898-44e7-99d0-dd5c92fb21b5" d="M51.998 98.196h28.617v106.196H51.998z"/>
    <path class="296d0865-7093-4ef8-aa3f-abe1d0a531b9 6941bf2d-0b45-427f-96ee-d016b26a1060" d="M5.47 156.377h20.86v16.985H5.47z"/>
    <path class="66294db9-7bd2-43ea-98eb-af45dffc738b ebc5da4b-3a6b-407f-88dc-3cb33c301b52" d="M63.631 156.377h20.86v16.985h-20.86z"/>
    <path class="2c03b1d6-7310-4c68-a28e-023fb3f13a2f 209a2080-80d4-4084-8b2b-781bf39c22df" d="M-2.266 299.887h44.124v13.107H-2.266z"/>
    <path class="fa7d7812-39d3-41ef-9878-e09490db4818 0c93fa9a-0034-447e-a771-f996bbef24f0" d="M-2.266 286.311h44.118v22.804H-2.266z"/>
    <path class="d8fc12b0-7734-436e-8ba7-d9ff2c2aa54c ff21d5cb-9162-4dda-8eb2-affeac751476" d="M48.14 299.887h44.126v13.107H48.14z"/>
    <path class="883cef5d-23a4-4621-a798-96f2c1423f7b afbf6ce2-9395-4ae3-ab61-eb49ad98b9fe" d="M48.147 286.311h44.118v22.804H48.147z"/>
    <path class="d0953177-54e9-4a5c-ad93-a33322edf636 79318fd7-5bef-4ed0-8715-77a771a2d625" d="M64.6 167.042h18.921v22.804H64.6z"/>
</svg>
