<svg id="53529ba9-7bf2-4ee0-854f-926a789e45d7" data-name="Layer 1" xmlns="http://www.w3.org/2000/svg" xmlns:xlink="http://www.w3.org/1999/xlink" viewBox="0 0 226.77 340.16">
  <defs>
    <style>
      .\37 92331e2-a4af-4dde-a5f3-270e7c29ab12, .da7c978d-0f3b-4aa8-9172-edbc47c83640 {
        fill: none;
      }

      .da7c978d-0f3b-4aa8-9172-edbc47c83640 {
        clip-rule: evenodd;
      }

      .\33 6539a46-6bfe-4c46-aacd-e21194fc81d6 {
        clip-path: url(#1ee0afdd-0c65-4200-866c-275219483e33);
      }

      .fe9b7569-a701-4ec1-a207-ce103f3ecc9b {
        fill: #e27a49;
      }

      .f83390d2-d0a8-4e3b-ace9-fff4e6c0a85e {
        clip-path: url(#5746ebe1-1178-4803-bb2f-0e49e9428c8a);
      }

      .d6634604-a28b-4f51-94d4-ca270d022f93 {
        fill: #ffcc05;
      }

      .\38 91f2244-6696-4056-be08-2257854770a1 {
        clip-path: url(#f7a69011-d6ae-4d65-afec-1b5c48ecf8e9);
      }

      .\33 14fc2a0-957e-4f3a-8db4-2955a52b7caa {
        fill: #b7942f;
      }

      .\32 8288b7a-72d6-4405-8433-3b07e4132d34 {
        clip-path: url(#30b4d845-c59b-422a-8051-d9eec6f65613);
      }

      .\31 3cfc7d6-9e1a-4c59-b46d-f427a2358071 {
        clip-path: url(#8f424e88-e9cc-40f5-a1e7-e20931d8d45d);
      }

      .\30 33fd283-f0ed-420b-b4f0-e61af1cf1164 {
        fill: #c69155;
      }

      .\34 3021452-8fa7-4fcc-ab72-9198f22fa505 {
        clip-path: url(#39388928-7abc-46c4-8db3-ebe8be10cb47);
      }

      .\35 efc7cb0-27a3-42cc-9921-04c2e1cd5b9a {
        fill: #a77841;
      }

      .\38 73aefe3-58fb-44f2-9ae4-0ebee95e309d {
        clip-path: url(#ed9c3dbf-14dc-4eb2-a285-34b8b7d08fca);
      }

      .\38 62dae9b-bcb3-4eef-a282-eb8165eed320 {
        clip-path: url(#fd59ddeb-f94b-451c-89d4-8f308cccd4fa);
      }

      .\34 bf8b8bf-84cf-4603-b634-c73da418fd2d {
        clip-path: url(#fffcd797-f16d-4cab-a318-9171ab6168f5);
      }

      .\32 c02646e-15d6-4839-be59-598a171ef7f3 {
        fill: #e7b174;
      }

      .\33 44c82ec-b21a-4168-9f1f-bcf3123fac49 {
        clip-path: url(#7f73b54a-7cf5-4f3b-9c25-0abe91038fa6);
      }

      .c14974c5-e2f4-41e4-ad17-b19432af2515 {
        clip-path: url(#95ec5f21-eb49-46ce-aa46-c3c32f034767);
      }

      .\32 0758401-9a31-4ec6-9d33-18e2ca9b45a6 {
        clip-path: url(#12794c1d-11f3-4814-890e-dd927d454b45);
      }

      .\37 96fbd2b-ea96-430b-a800-2c76f1e3cbc7 {
        clip-path: url(#371660ed-84ee-47c9-a950-924badf229ac);
      }

      .\32 50b83ad-b785-4462-b122-0542f9190d26 {
        fill: #222c30;
      }

      .\31 a577b69-1b48-4dec-b7d6-db890afd63e0 {
        clip-path: url(#ceff4b2d-25b9-419d-9c39-6009532fbf98);
      }

      .\36 ef7a6f3-6edb-4294-b0ec-1b00adededba {
        fill: #dd314e;
      }

      .\35 fe78605-f953-471b-99dc-f20f0bfd68ff {
        clip-path: url(#1dc96946-088b-491c-82ee-bb81886894ab);
      }

      .\33 afdb9e6-b93a-40ae-b4a5-52b75d0ff4aa {
        fill: #fff;
      }

      .\37 ab7f4e1-8078-44fe-b2c2-dcc6ff16012f {
        clip-path: url(#29e9e426-66ed-43f4-96c8-d385f63000db);
      }

      .\32 4daecca-917e-497f-8267-ffe8c80ab02b {
        clip-path: url(#60555365-fea7-47fc-a6f8-5fcd7386c589);
      }

      .dbf9de0c-7670-434c-bb42-f42d85c24531 {
        clip-path: url(#a18eeb1a-1679-4c01-a9d1-15ae194c3548);
      }

      .de1934ae-2c27-4f10-9718-cbfdf48bfa22 {
        clip-path: url(#76b82b89-14af-417d-9b7d-204111a65032);
      }

      .fc27e9c7-413b-4f98-a423-6008340a4951 {
        fill: #367878;
      }

      .df488bc1-4faf-48d0-abb7-c7f51ebcc3e4 {
        clip-path: url(#2d2ebbfe-30c0-4282-a597-df723127eb55);
      }

      .\34 a56a2ff-6e03-44f0-955a-69c99f3b45ff {
        clip-path: url(#ab801791-e918-409c-b718-d4ab3a1599fe);
      }

      .e45675b7-2435-41bd-8741-637e325b5f3f {
        clip-path: url(#e94bc783-79bd-47f7-92bf-73127cf4a161);
      }

      .\31 1457c2f-a50d-4f7f-b697-e6b1bf4a5f36 {
        clip-path: url(#60d9ff26-3409-442c-969f-b4a0ec8326b6);
      }

      .\30 a39fafb-dff8-42ec-ba2e-5674f14e4446 {
        fill: #424f55;
      }

      .c323663b-7485-467b-ba3e-2e4457eb7149 {
        clip-path: url(#f344b5bf-78c6-4fe3-99b7-5ee0eb192db7);
      }

      .b929d2ac-c9e5-4d52-8d0a-4d9fd817886b {
        clip-path: url(#a81b6c7a-3a69-4a55-ae76-5d90436cff43);
      }

      .\37 1e80721-da64-4dfe-8e31-8b04aace27bf {
        clip-path: url(#fbac111d-09f1-4c7d-a4f6-ae50f84e2413);
      }

      .\34 232c43a-356e-4a29-b4a2-0101f0029631 {
        clip-path: url(#7ca8870b-014a-48f0-bfee-e1ae92340e42);
      }

      .aeda65f7-14d6-41d6-a1b4-b9469a0a74b6 {
        clip-path: url(#7337fd58-51bd-4fae-8642-5be6b7690d9c);
      }

      .\34 7127ac8-eb14-4abf-9b6f-b1423f6c8d27 {
        clip-path: url(#7d4e56e3-487e-40f8-a937-d617dbe0fb0c);
      }

      .afe9bbb9-d67d-47ba-b5c8-cdda20418a83 {
        clip-path: url(#17bc57a4-e190-4571-bd55-9b8e6a5f232c);
      }

      .bd2ded07-32d6-414f-a191-9a7badd316b1 {
        clip-path: url(#78e15584-44a5-49fc-a028-c77e68845412);
      }

      .\36 afb2566-a4ed-4a1f-b3c8-505958ca7979 {
        clip-path: url(#6206857b-005d-4dae-be97-bfe26a7bdd87);
      }

      .d1af2069-912d-4130-a532-da8e39aefdcd {
        fill: #9d5031;
      }

      .\31 cd16d7d-85dd-4938-ab3f-948b7e1aedc0 {
        clip-path: url(#4fe97c47-33e7-4e86-8a55-7935a0f71e4e);
      }

      .\33 3bd71fd-2cf7-43cd-bdc5-ef536ca2c63f {
        fill: #804026;
      }

      .f0736e67-4306-40a4-909a-0e403d1f68cd {
        clip-path: url(#852aa0f4-9dbd-42b3-a5f4-7da035e481b0);
      }

      .\32 e63cc74-da21-475f-9576-f1e373cff7a9 {
        clip-path: url(#9e800861-5915-4609-abca-7b97cf704c0e);
      }

      .\34 22a653a-12c1-43b9-b192-f9f59738bc4c {
        clip-path: url(#5c828b17-d222-4a69-8478-910729c844ad);
      }

      .c14a5ee2-6761-44a0-a22a-bc5caf931d6c {
        clip-path: url(#2c90cc06-0aea-478f-85ed-32a6794fb55b);
      }

      .ff7b90a2-30ca-4c09-8181-ef1acd8a1666 {
        fill: #ba643c;
      }

      .\35 e358be6-f424-4389-84c0-7d751dc4e243 {
        clip-path: url(#224d7ec4-cf01-41b3-bc9a-2d7daa98e7d8);
      }

      .f3a74534-e3b9-456d-bed3-553b66747478 {
        fill: #e5e5e4;
      }

      .\37 ed7c534-6e1b-460e-86bc-1f46ead825f6 {
        clip-path: url(#fe9da4ae-2062-4a9e-a7d3-7f4b9ca1a7e2);
      }

      .\33 b9909af-2720-4008-ba74-46906a076130 {
        clip-path: url(#e87e4b76-cb46-4691-a359-a88f6a0c6b97);
      }

      .e7ec8bfb-76d8-4033-baed-34f704b6acbb {
        fill: #653614;
      }

      .\39 f470c98-47e0-421c-b553-24f8026a71f0 {
        clip-path: url(#f1ab7e27-ea40-4ca2-a521-17d5521145e8);
      }

      .\30 9d3a240-4f0c-474b-b642-9683208956ee {
        fill: #3f2410;
      }
    </style>
    <clipPath id="1ee0afdd-0c65-4200-866c-275219483e33">
      <path class="da7c978d-0f3b-4aa8-9172-edbc47c83640" d="M138.6168,214.1121a1.0508,1.0508,0,1,0,2.1017,0V209.91a1.05,1.05,0,1,1,2.1,0v6.3044a1.0509,1.0509,0,0,0,2.1017.0135v1.0377a1.05,1.05,0,1,0,2.1,0v-1.0512a1.0508,1.0508,0,1,0,2.1017,0v-3.1522a1.05,1.05,0,0,0,2.1,0v-80.913H138.6168v81.9628Z"/>
    </clipPath>
    <clipPath id="5746ebe1-1178-4803-bb2f-0e49e9428c8a">
      <path class="da7c978d-0f3b-4aa8-9172-edbc47c83640" d="M88.1947,178.3842h50.4231v45.4113l-23.1105-22.2933a2.101,2.101,0,0,0-4.202,0l-8.4041,98.7764H88.1947V178.3842Z"/>
    </clipPath>
    <clipPath id="f7a69011-d6ae-4d65-afec-1b5c48ecf8e9">
      <path class="da7c978d-0f3b-4aa8-9172-edbc47c83640" d="M100.8005,188.893A13.6649,13.6649,0,0,1,88.1944,197.3v-2.1023a11.4973,11.4973,0,0,0,6.663-2.1119,11.62,11.62,0,0,0,3.6339-4.1925h2.3091Zm25.2108,0A13.6611,13.6611,0,0,0,138.6175,197.3v-2.1023a11.55,11.55,0,0,1-10.2969-6.3044h-2.3092Z"/>
    </clipPath>
    <clipPath id="30b4d845-c59b-422a-8051-d9eec6f65613">
      <path class="da7c978d-0f3b-4aa8-9172-edbc47c83640" d="M138.6176,223.7957v76.4831H123.9112l-8.4041-98.7764a2.4533,2.4533,0,0,0-.5749-1.3984Z"/>
    </clipPath>
    <clipPath id="8f424e88-e9cc-40f5-a1e7-e20931d8d45d">
      <rect class="792331e2-a4af-4dde-a5f3-270e7c29ab12" x="100.8003" y="77.5076" width="25.2122" height="29.4224"/>
    </clipPath>
    <clipPath id="39388928-7abc-46c4-8db3-ebe8be10cb47">
      <polygon class="da7c978d-0f3b-4aa8-9172-edbc47c83640" points="100.8 77.507 126.013 77.507 126.013 106.93 121.511 106.93 100.8 86.212 100.8 77.507"/>
    </clipPath>
    <clipPath id="ed9c3dbf-14dc-4eb2-a285-34b8b7d08fca">
      <path class="da7c978d-0f3b-4aa8-9172-edbc47c83640" d="M134.4157,52.2879a4.2034,4.2034,0,1,0,4.202,4.202,4.2025,4.2025,0,0,0-4.202-4.202"/>
    </clipPath>
    <clipPath id="fd59ddeb-f94b-451c-89d4-8f308cccd4fa">
      <path class="da7c978d-0f3b-4aa8-9172-edbc47c83640" d="M134.4157,54.3888a2.1017,2.1017,0,1,0,2.1,2.101,2.1015,2.1015,0,0,0-2.1-2.101"/>
    </clipPath>
    <clipPath id="fffcd797-f16d-4cab-a318-9171ab6168f5">
      <path class="da7c978d-0f3b-4aa8-9172-edbc47c83640" d="M92.3966,52.2879a4.2034,4.2034,0,1,0,4.202,4.202,4.2016,4.2016,0,0,0-4.202-4.202"/>
    </clipPath>
    <clipPath id="7f73b54a-7cf5-4f3b-9c25-0abe91038fa6">
      <path class="da7c978d-0f3b-4aa8-9172-edbc47c83640" d="M92.3966,54.3888a2.1017,2.1017,0,1,0,2.1,2.101,2.1007,2.1007,0,0,0-2.1-2.101"/>
    </clipPath>
    <clipPath id="95ec5f21-eb49-46ce-aa46-c3c32f034767">
      <path class="da7c978d-0f3b-4aa8-9172-edbc47c83640" d="M113.4066,27.0687A21.0732,21.0732,0,0,1,134.4154,48.083V69.1013a21.0095,21.0095,0,1,1-42.019,0V48.083a21.0744,21.0744,0,0,1,21.01-21.0143"/>
    </clipPath>
    <clipPath id="12794c1d-11f3-4814-890e-dd927d454b45">
      <path class="da7c978d-0f3b-4aa8-9172-edbc47c83640" d="M92.6925,71.2015a21.3083,21.3083,0,0,0,41.4278,0h-8.2834l-12.4312-6.3044-12.4312,6.3044h-8.282Z"/>
    </clipPath>
    <clipPath id="371660ed-84ee-47c9-a950-924badf229ac">
      <path class="da7c978d-0f3b-4aa8-9172-edbc47c83640" d="M117.4766,76.456A8.4055,8.4055,0,0,0,121.81,69.1l-8.4041,1.0512L105.002,69.1a8.4028,8.4028,0,0,0,4.3336,7.3556h8.141Z"/>
    </clipPath>
    <clipPath id="ceff4b2d-25b9-419d-9c39-6009532fbf98">
      <path class="da7c978d-0f3b-4aa8-9172-edbc47c83640" d="M113.4058,77.5072a8.3684,8.3684,0,0,0,4.0705-1.0512,8.4067,8.4067,0,0,0-8.141,0,8.3723,8.3723,0,0,0,4.0705,1.0512"/>
    </clipPath>
    <clipPath id="1dc96946-088b-491c-82ee-bb81886894ab">
      <path class="da7c978d-0f3b-4aa8-9172-edbc47c83640" d="M102.9013,52.2879a4.2034,4.2034,0,1,1-4.202,4.202,4.2025,4.2025,0,0,1,4.202-4.202"/>
    </clipPath>
    <clipPath id="29e9e426-66ed-43f4-96c8-d385f63000db">
      <path class="da7c978d-0f3b-4aa8-9172-edbc47c83640" d="M119.7094,69.1007a2.1106,2.1106,0,0,1-2.1017,2.101h-8.4041a2.1085,2.1085,0,0,1-2.1-2.101h12.6061Z"/>
    </clipPath>
    <clipPath id="60555365-fea7-47fc-a6f8-5fcd7386c589">
      <path class="da7c978d-0f3b-4aa8-9172-edbc47c83640" d="M113.4058,64.8977a6.3046,6.3046,0,0,0,6.3037,6.3044h6.3024a6.3034,6.3034,0,0,0-6.3024-6.3044h-6.3037Z"/>
    </clipPath>
    <clipPath id="a18eeb1a-1679-4c01-a9d1-15ae194c3548">
      <path class="da7c978d-0f3b-4aa8-9172-edbc47c83640" d="M123.9112,52.2879a4.2034,4.2034,0,1,1-4.202,4.202,4.2025,4.2025,0,0,1,4.202-4.202"/>
    </clipPath>
    <clipPath id="76b82b89-14af-417d-9b7d-204111a65032">
      <path class="da7c978d-0f3b-4aa8-9172-edbc47c83640" d="M102.9013,54.3888a2.1017,2.1017,0,1,1-2.1,2.101,2.1015,2.1015,0,0,1,2.1-2.101"/>
    </clipPath>
    <clipPath id="2d2ebbfe-30c0-4282-a597-df723127eb55">
      <path class="da7c978d-0f3b-4aa8-9172-edbc47c83640" d="M123.9112,54.3888a2.1017,2.1017,0,1,1-2.1,2.101,2.1015,2.1015,0,0,1,2.1-2.101"/>
    </clipPath>
    <clipPath id="ab801791-e918-409c-b718-d4ab3a1599fe">
      <path class="da7c978d-0f3b-4aa8-9172-edbc47c83640" d="M100.8,55.44A1.0506,1.0506,0,1,1,99.75,56.49,1.05,1.05,0,0,1,100.8,55.44"/>
    </clipPath>
    <clipPath id="e94bc783-79bd-47f7-92bf-73127cf4a161">
      <path class="da7c978d-0f3b-4aa8-9172-edbc47c83640" d="M121.81,55.44a1.0506,1.0506,0,1,1-1.0508,1.05,1.0514,1.0514,0,0,1,1.0508-1.05"/>
    </clipPath>
    <clipPath id="60d9ff26-3409-442c-969f-b4a0ec8326b6">
      <path class="da7c978d-0f3b-4aa8-9172-edbc47c83640" d="M96.5985,43.8815V35.4747a4.2016,4.2016,0,0,0-4.202,4.2021v8.41a4.2031,4.2031,0,0,0,4.202-4.2048"/>
    </clipPath>
    <clipPath id="f344b5bf-78c6-4fe3-99b7-5ee0eb192db7">
      <path class="da7c978d-0f3b-4aa8-9172-edbc47c83640" d="M126.013,37.576H94.4971a12.6083,12.6083,0,0,1,12.6061-12.61H138.62a12.61,12.61,0,0,1-12.6074,12.61"/>
    </clipPath>
    <clipPath id="a81b6c7a-3a69-4a55-ae76-5d90436cff43">
      <path class="da7c978d-0f3b-4aa8-9172-edbc47c83640" d="M126.013,37.576H94.4971c0-.0556.0027-0.11,0.0027-0.1641a6.3039,6.3039,0,0,1,6.301-6.1417h31.5159a6.3036,6.3036,0,0,0,6.301-6.14A12.608,12.608,0,0,1,126.013,37.576"/>
    </clipPath>
    <clipPath id="fbac111d-09f1-4c7d-a4f6-ae50f84e2413">
      <path class="da7c978d-0f3b-4aa8-9172-edbc47c83640" d="M130.2133,43.8815V35.4747a4.2025,4.2025,0,0,1,4.202,4.2021v8.4081a4.2036,4.2036,0,0,1-4.202-4.2034"/>
    </clipPath>
    <clipPath id="7ca8870b-014a-48f0-bfee-e1ae92340e42">
      <path class="da7c978d-0f3b-4aa8-9172-edbc47c83640" d="M113.4058,64.8977h-6.3024A6.3037,6.3037,0,0,0,100.8,71.2021h6.3037a6.3034,6.3034,0,0,0,6.3024-6.3044"/>
    </clipPath>
    <clipPath id="7337fd58-51bd-4fae-8642-5be6b7690d9c">
      <path class="da7c978d-0f3b-4aa8-9172-edbc47c83640" d="M112.3594,56.49a1.0461,1.0461,0,0,1,2.0922,0v4.2047a1.05,1.05,0,0,1-1.0454,1.05h-2.1017a1.0532,1.0532,0,0,0,0,2.1065h2.1017a1.0471,1.0471,0,0,1,0,2.0942l-2.1017.0027a3.1522,3.1522,0,0,1,0-6.3044h1.0549V56.49Z"/>
    </clipPath>
    <clipPath id="7d4e56e3-487e-40f8-a937-d617dbe0fb0c">
      <path class="da7c978d-0f3b-4aa8-9172-edbc47c83640" d="M99.7539,52.2834a1.0464,1.0464,0,1,1,0-2.0929h6.3037a1.0464,1.0464,0,0,1,0,2.0929H99.7539Z"/>
    </clipPath>
    <clipPath id="17bc57a4-e190-4571-bd55-9b8e6a5f232c">
      <path class="da7c978d-0f3b-4aa8-9172-edbc47c83640" d="M120.5706,52.2834a1.0464,1.0464,0,0,1,0-2.0929h6.3037a1.0464,1.0464,0,1,1,0,2.0929h-6.3037Z"/>
    </clipPath>
    <clipPath id="78e15584-44a5-49fc-a028-c77e68845412">
      <path class="da7c978d-0f3b-4aa8-9172-edbc47c83640" d="M88.1947,214.1121a1.0508,1.0508,0,1,1-2.1017,0V209.91a1.05,1.05,0,1,0-2.1,0v6.3044a1.05,1.05,0,0,1-2.1.0135v1.0377a1.0508,1.0508,0,1,1-2.1017,0v-1.0512a1.0508,1.0508,0,1,1-2.1017,0v-3.1522a1.05,1.05,0,0,1-2.1,0v-80.913H88.1947v81.9628Z"/>
    </clipPath>
    <clipPath id="6206857b-005d-4dae-be97-bfe26a7bdd87">
      <path class="da7c978d-0f3b-4aa8-9172-edbc47c83640" d="M75.5891,190.9953V106.93c0-4.2034,2.1329-5.27,4.2007-6.3057L100.8,90.1152a12.6061,12.6061,0,1,0,25.2122,0l21.01,10.5092c2.0678,1.0362,4.202,2.1051,4.202,6.3057l-0.0014,84.0652H138.6183V178.3838H88.1952v12.6115H75.5891Z"/>
    </clipPath>
    <clipPath id="4fe97c47-33e7-4e86-8a55-7935a0f71e4e">
      <path class="da7c978d-0f3b-4aa8-9172-edbc47c83640" d="M104.4918,99.0337a12.6062,12.6062,0,0,0,21.52-8.9167l21.01,10.5064c2.0692,1.0363,4.202,2.1024,4.202,6.3058l-0.0014,38.85Z"/>
    </clipPath>
    <clipPath id="852aa0f4-9dbd-42b3-a5f4-7da035e481b0">
      <path class="da7c978d-0f3b-4aa8-9172-edbc47c83640" d="M130.214,94.3214a4.2036,4.2036,0,0,1-4.202-4.2034v8.4055A4.2037,4.2037,0,0,1,121.81,94.32v4.2047a4.2039,4.2039,0,0,1-4.202-4.2047v4.2047a4.2019,4.2019,0,0,1-4.2007-4.2047l-2.1017-6.3044,2.1-6.3072a12.6068,12.6068,0,0,0,12.6061-12.6074,8.4081,8.4081,0,0,1,8.4041-8.4068l4.202,25.219a4.203,4.203,0,0,1-4.202-4.2048v8.4082a4.2028,4.2028,0,0,1-4.202-4.2034v8.4081Z"/>
    </clipPath>
    <clipPath id="9e800861-5915-4609-abca-7b97cf704c0e">
      <path class="da7c978d-0f3b-4aa8-9172-edbc47c83640" d="M113.4066,94.32a4.203,4.203,0,0,1-4.202,4.2047V94.32a4.2037,4.2037,0,0,1-4.202,4.2034V94.32a4.2028,4.2028,0,0,1-4.202,4.2034V90.118a4.2036,4.2036,0,0,1-4.202,4.2034V85.9133a4.2028,4.2028,0,0,1-4.202,4.2034V81.7085a4.2057,4.2057,0,0,1-4.202,4.2048l4.202-25.219A8.407,8.407,0,0,1,100.8005,69.1a12.6068,12.6068,0,0,0,12.6048,12.6088h0.0014V94.32Z"/>
    </clipPath>
    <clipPath id="5c828b17-d222-4a69-8478-910729c844ad">
      <path class="da7c978d-0f3b-4aa8-9172-edbc47c83640" d="M67.1636,314.9908h37.817v3.1522a1.0537,1.0537,0,0,1-1.0508,1.0512H68.2131a1.0543,1.0543,0,0,1-1.0495-1.0512v-3.1522Z"/>
    </clipPath>
    <clipPath id="2c90cc06-0aea-478f-85ed-32a6794fb55b">
      <path class="da7c978d-0f3b-4aa8-9172-edbc47c83640" d="M102.9,300.2788a1.0554,1.0554,0,0,1,1.0508,1.0512v2.1024a1.0482,1.0482,0,0,1-.4624.8694,51.6747,51.6747,0,0,1,1.4847,10.69h-37.81a3.9716,3.9716,0,0,1,2.86-3.9837l12.4515-2.767a7.53,7.53,0,0,0,4.8366-4.2414,1.0484,1.0484,0,0,1-.1668-0.567V301.33a1.0547,1.0547,0,0,1,1.0292-1.0512H102.9Z"/>
    </clipPath>
    <clipPath id="224d7ec4-cf01-41b3-bc9a-2d7daa98e7d8">
      <path class="da7c978d-0f3b-4aa8-9172-edbc47c83640" d="M159.6058,314.9908H121.7889v3.1522a1.0545,1.0545,0,0,0,1.0509,1.0512H158.555a1.0545,1.0545,0,0,0,1.0508-1.0512v-3.1522Z"/>
    </clipPath>
    <clipPath id="fe9da4ae-2062-4a9e-a7d3-7f4b9ca1a7e2">
      <path class="da7c978d-0f3b-4aa8-9172-edbc47c83640" d="M123.8682,300.2788a1.0543,1.0543,0,0,0-1.0495,1.0512v2.1024a1.05,1.05,0,0,0,.461.8694,51.7659,51.7659,0,0,0-1.4847,10.69h37.8115a3.9727,3.9727,0,0,0-2.861-3.9837l-12.45-2.767a7.5239,7.5239,0,0,1-4.8366-4.2414,1.0484,1.0484,0,0,0,.1668-0.567V301.33a1.0547,1.0547,0,0,0-1.0292-1.0512H123.8682Z"/>
    </clipPath>
    <clipPath id="e87e4b76-cb46-4691-a359-a88f6a0c6b97">
      <path class="da7c978d-0f3b-4aa8-9172-edbc47c83640" d="M92.3963,140.5547l-4.202-8.4054,4.202-8.4068-4.202-8.4068,4.202-8.4068,4.202,8.4068-4.202,8.4068,4.202,8.4068-4.202,8.4054,4.202,8.4082-4.202,8.4054,4.202,8.4068-4.202,8.4068-4.202-8.4068,4.202-8.4068-4.202-8.4054Zm42.019-16.8122-4.2007-8.4068,4.2007-8.4068,4.202,8.4068-4.202,8.4068,4.202,8.4068-4.202,8.4054,4.202,8.4082-4.202,8.4054,4.202,8.4068-4.202,8.4068-4.2007-8.4068,4.2007-8.4068-4.2007-8.4054,4.2007-8.4082-4.2007-8.4054Zm-8.4041,0-4.202-8.4068,4.202-8.4068,4.2034,8.4068-4.2034,8.4068,4.2034,8.4068-4.2034,8.4054,4.2034,8.4082-4.2034,8.4054,4.2034,8.4068-4.2034,8.4068-4.202-8.4068,4.202-8.4068-4.202-8.4054,4.202-8.4082-4.202-8.4054Zm-8.4041,0-4.2007-8.4068,4.2007-8.4068,4.202,8.4068-4.202,8.4068,4.202,8.4068-4.202,8.4054,4.202,8.4082-4.202,8.4054,4.202,8.4068-4.202,8.4068-4.2007-8.4068,4.2007-8.4068-4.2007-8.4054,4.2007-8.4082-4.2007-8.4054Zm-8.4027,0-4.202-8.4068,4.202-8.4068,4.202,8.4068-4.202,8.4068,4.202,8.4068-4.202,8.4054,4.202,8.4082-4.202,8.4054,4.202,8.4068-4.202,8.4068-4.202-8.4068,4.202-8.4068-4.202-8.4054,4.202-8.4082-4.202-8.4054Zm-8.4041,0-4.202-8.4068,4.202-8.4068,4.202,8.4068-4.202,8.4068,4.202,8.4068-4.202,8.4054,4.202,8.4082-4.202,8.4054,4.202,8.4068-4.202,8.4068-4.202-8.4068,4.202-8.4068-4.202-8.4054,4.202-8.4082-4.202-8.4054Z"/>
    </clipPath>
    <clipPath id="f1ab7e27-ea40-4ca2-a521-17d5521145e8">
      <path class="da7c978d-0f3b-4aa8-9172-edbc47c83640" d="M138.2774,132.83l-5.6027-5.6045,1.74-3.4832-4.2007-8.4068,4.2007-8.4054,4.202,8.4054-4.202,8.4068,4.202,8.4068Zm-11.2041-11.2091-4.2441-4.2441-1.02-2.0413,4.202-8.4054,4.202,8.4054Zm-5.6041-5.6059-5.6014-5.6031,1.74-3.4818,4.202,8.4054Z"/>
    </clipPath>
  </defs>
  <title>people</title>
  <g>
    <g class="36539a46-6bfe-4c46-aacd-e21194fc81d6">
      <rect class="fe9b7569-a701-4ec1-a207-ce103f3ecc9b" x="133.6168" y="127.1493" width="22.6061" height="96.1675"/>
    </g>
    <g class="f83390d2-d0a8-4e3b-ace9-fff4e6c0a85e">
      <rect class="d6634604-a28b-4f51-94d4-ca270d022f93" x="83.1947" y="173.3842" width="60.4231" height="131.8944"/>
    </g>
    <g class="891f2244-6696-4056-be08-2257854770a1">
      <rect class="314fc2a0-957e-4f3a-8db4-2955a52b7caa" x="83.1944" y="183.893" width="60.423" height="18.4067"/>
    </g>
    <g class="28288b7a-72d6-4405-8433-3b07e4132d34">
      <rect class="314fc2a0-957e-4f3a-8db4-2955a52b7caa" x="109.9322" y="195.1039" width="33.6854" height="110.1748"/>
    </g>
    <g class="13cfc7d6-9e1a-4c59-b46d-f427a2358071">
      <rect class="033fd283-f0ed-420b-b4f0-e61af1cf1164" x="95.8003" y="72.5076" width="35.2122" height="39.4224"/>
    </g>
    <g class="43021452-8fa7-4fcc-ab72-9198f22fa505">
      <rect class="5efc7cb0-27a3-42cc-9921-04c2e1cd5b9a" x="95.8004" y="72.5072" width="35.2122" height="39.4224"/>
    </g>
    <g class="873aefe3-58fb-44f2-9ae4-0ebee95e309d">
      <rect class="033fd283-f0ed-420b-b4f0-e61af1cf1164" x="125.2137" y="47.2879" width="18.4041" height="18.4068"/>
    </g>
    <g class="862dae9b-bcb3-4eef-a282-eb8165eed320">
      <rect class="5efc7cb0-27a3-42cc-9921-04c2e1cd5b9a" x="127.3154" y="49.3888" width="14.2007" height="14.2034"/>
    </g>
    <g class="4bf8b8bf-84cf-4603-b634-c73da418fd2d">
      <rect class="2c02646e-15d6-4839-be59-598a171ef7f3" x="83.1946" y="47.2879" width="18.4041" height="18.4068"/>
    </g>
    <g class="344c82ec-b21a-4168-9f1f-bcf3123fac49">
      <rect class="033fd283-f0ed-420b-b4f0-e61af1cf1164" x="85.2963" y="49.3888" width="14.2007" height="14.2034"/>
    </g>
    <g class="c14974c5-e2f4-41e4-ad17-b19432af2515">
      <rect class="2c02646e-15d6-4839-be59-598a171ef7f3" x="87.3965" y="22.0687" width="52.019" height="73.0483"/>
    </g>
    <g class="20758401-9a31-4ec6-9d33-18e2ca9b45a6">
      <rect class="033fd283-f0ed-420b-b4f0-e61af1cf1164" x="87.6925" y="59.8971" width="51.4278" height="32.6148"/>
    </g>
    <g class="796fbd2b-ea96-430b-a800-2c76f1e3cbc7">
      <rect class="250b83ad-b785-4462-b122-0542f9190d26" x="100.002" y="64.1004" width="26.8081" height="17.3556"/>
    </g>
    <g class="1a577b69-1b48-4dec-b7d6-db890afd63e0">
      <rect class="6ef7a6f3-6edb-4294-b0ec-1b00adededba" x="104.3353" y="70.4048" width="18.141" height="12.1024"/>
    </g>
    <g class="5fe78605-f953-471b-99dc-f20f0bfd68ff">
      <rect class="3afdb9e6-b93a-40ae-b4a5-52b75d0ff4aa" x="93.6992" y="47.2879" width="18.4041" height="18.4068"/>
    </g>
    <g class="7ab7f4e1-8078-44fe-b2c2-dcc6ff16012f">
      <rect class="3afdb9e6-b93a-40ae-b4a5-52b75d0ff4aa" x="102.1033" y="64.1007" width="22.6061" height="12.101"/>
    </g>
    <g class="24daecca-917e-497f-8267-ffe8c80ab02b">
      <rect class="250b83ad-b785-4462-b122-0542f9190d26" x="108.4058" y="59.8977" width="22.6061" height="16.3044"/>
    </g>
    <g class="dbf9de0c-7670-434c-bb42-f42d85c24531">
      <rect class="3afdb9e6-b93a-40ae-b4a5-52b75d0ff4aa" x="114.7091" y="47.2879" width="18.4041" height="18.4068"/>
    </g>
    <g class="de1934ae-2c27-4f10-9718-cbfdf48bfa22">
      <rect class="fc27e9c7-413b-4f98-a423-6008340a4951" x="95.8009" y="49.3888" width="14.2007" height="14.2034"/>
    </g>
    <g class="df488bc1-4faf-48d0-abb7-c7f51ebcc3e4">
      <rect class="fc27e9c7-413b-4f98-a423-6008340a4951" x="116.8108" y="49.3888" width="14.2007" height="14.2034"/>
    </g>
    <g class="4a56a2ff-6e03-44f0-955a-69c99f3b45ff">
      <rect class="3afdb9e6-b93a-40ae-b4a5-52b75d0ff4aa" x="94.7495" y="50.4398" width="12.1017" height="12.1011"/>
    </g>
    <g class="e45675b7-2435-41bd-8741-637e325b5f3f">
      <rect class="3afdb9e6-b93a-40ae-b4a5-52b75d0ff4aa" x="115.7594" y="50.4398" width="12.1003" height="12.1011"/>
    </g>
    <g class="11457c2f-a50d-4f7f-b697-e6b1bf4a5f36">
      <rect class="0a39fafb-dff8-42ec-ba2e-5674f14e4446" x="87.3965" y="30.4747" width="14.202" height="22.6116"/>
    </g>
    <g class="c323663b-7485-467b-ba3e-2e4457eb7149">
      <rect class="0a39fafb-dff8-42ec-ba2e-5674f14e4446" x="89.4971" y="19.9658" width="54.1234" height="22.6102"/>
    </g>
    <g class="b929d2ac-c9e5-4d52-8d0a-4d9fd817886b">
      <rect class="250b83ad-b785-4462-b122-0542f9190d26" x="89.4971" y="20.13" width="54.1207" height="22.4461"/>
    </g>
    <g class="71e80721-da64-4dfe-8e31-8b04aace27bf">
      <rect class="250b83ad-b785-4462-b122-0542f9190d26" x="125.2133" y="30.4747" width="14.202" height="22.6102"/>
    </g>
    <g class="4232c43a-356e-4a29-b4a2-0101f0029631">
      <rect class="0a39fafb-dff8-42ec-ba2e-5674f14e4446" x="95.7997" y="59.8977" width="22.6061" height="16.3044"/>
    </g>
    <g class="aeda65f7-14d6-41d6-a1b4-b9469a0a74b6">
      <rect class="5efc7cb0-27a3-42cc-9921-04c2e1cd5b9a" x="103.1533" y="50.4439" width="16.2983" height="20.5037"/>
    </g>
    <g class="47127ac8-eb14-4abf-9b6f-b1423f6c8d27">
      <rect class="250b83ad-b785-4462-b122-0542f9190d26" x="93.7071" y="45.1905" width="18.3959" height="12.0929"/>
    </g>
    <g class="afe9bbb9-d67d-47ba-b5c8-cdda20418a83">
      <rect class="250b83ad-b785-4462-b122-0542f9190d26" x="114.5251" y="45.1905" width="18.3959" height="12.0929"/>
    </g>
    <g class="bd2ded07-32d6-414f-a191-9a7badd316b1">
      <rect class="fe9b7569-a701-4ec1-a207-ce103f3ecc9b" x="70.5886" y="127.1493" width="22.6061" height="96.1675"/>
    </g>
    <g class="6afb2566-a4ed-4a1f-b3c8-505958ca7979">
      <rect class="d1af2069-912d-4130-a532-da8e39aefdcd" x="70.5891" y="85.1152" width="85.6353" height="110.8801"/>
    </g>
    <g class="1cd16d7d-85dd-4938-ab3f-948b7e1aedc0">
      <rect class="33bd71fd-2cf7-43cd-bdc5-ef536ca2c63f" x="99.4918" y="85.117" width="56.7322" height="65.6627"/>
    </g>
    <g class="f0736e67-4306-40a4-909a-0e403d1f68cd">
      <rect class="250b83ad-b785-4462-b122-0542f9190d26" x="106.3055" y="55.6943" width="37.3125" height="47.8305"/>
    </g>
    <g class="2e63cc74-da21-475f-9576-f1e373cff7a9">
      <rect class="0a39fafb-dff8-42ec-ba2e-5674f14e4446" x="83.1944" y="55.6943" width="35.2122" height="47.8305"/>
    </g>
    <g class="422a653a-12c1-43b9-b192-f9f59738bc4c">
      <rect class="3afdb9e6-b93a-40ae-b4a5-52b75d0ff4aa" x="62.1636" y="309.9908" width="47.817" height="14.2034"/>
    </g>
    <g class="c14a5ee2-6761-44a0-a22a-bc5caf931d6c">
      <rect class="ff7b90a2-30ca-4c09-8181-ef1acd8a1666" x="62.1635" y="295.2788" width="47.8102" height="24.7126"/>
    </g>
    <g class="5e358be6-f424-4389-84c0-7d751dc4e243">
      <rect class="f3a74534-e3b9-456d-bed3-553b66747478" x="116.7889" y="309.9908" width="47.8169" height="14.2034"/>
    </g>
    <g class="7ed7c534-6e1b-460e-86bc-1f46ead825f6">
      <rect class="d1af2069-912d-4130-a532-da8e39aefdcd" x="116.795" y="295.2788" width="47.8115" height="24.7126"/>
    </g>
    <g class="3b9909af-2720-4008-ba74-46906a076130">
      <rect class="e7ec8bfb-76d8-4033-baed-34f704b6acbb" x="83.1943" y="101.9289" width="60.423" height="77.253"/>
    </g>
    <g class="9f470c98-47e0-421c-b553-24f8026a71f0">
      <rect class="09d3a240-4f0c-474b-b642-9683208956ee" x="110.8679" y="101.9303" width="32.7485" height="35.8999"/>
    </g>
  </g>
</svg>
