<svg id="dc563c5e-9b68-4f25-8107-5a49a566c7dd" data-name="Layer 1" xmlns="http://www.w3.org/2000/svg" xmlns:xlink="http://www.w3.org/1999/xlink" viewBox="0 0 226.77 340.16">
  <defs>
    <style>
      .\34 9a62a6f-37a7-4fe0-b9ec-180d59639b4a {
        fill: none;
        clip-rule: evenodd;
      }

      .\36 a5a590f-6504-4333-8884-4a0214408ee9 {
        clip-path: url(#f41626e5-059e-4e14-8181-6214d7411ced);
      }

      .fbfd0d2a-f84c-4365-b3a7-4fe122b5c723 {
        fill: #222c30;
      }

      .d3b5d61b-575c-4271-a827-1f1849bd9670 {
        clip-path: url(#ed4166e3-b6f6-4c83-b7ea-d8f87076f6cb);
      }

      .c2ede54c-b494-4566-8a58-af488590b4c1 {
        fill: #424f55;
      }

      .\39 85ba2b3-597c-48ea-9c21-431d3e8976fc {
        clip-path: url(#64493d54-6f1e-4089-b36b-e7462c8c28ee);
      }

      .fb4f34d9-86c6-4dbc-82e5-1844031dc6bc {
        clip-path: url(#e1db7447-59b7-44db-aef9-ffd3bdbf6686);
      }

      .\33 082a6b1-6b26-4c48-b0a0-48606e34fabc {
        fill: #e27a49;
      }

      .\35 0bb50f4-92ef-4b17-b15b-1b5fbf5e2d78 {
        clip-path: url(#d232770d-4878-4ee5-9712-c275f8d6c9e9);
      }

      .\36 219a122-c637-46a1-b99e-2b3777b9bf39 {
        fill: #ba643c;
      }

      .\34 af281a6-a16c-4167-a262-c9380a36b477 {
        clip-path: url(#5a160235-0625-4e0d-b171-43ed0820b259);
      }

      .\30 c71a9c7-7ca2-4b6c-8afe-e62efff1e4de {
        fill: #fff;
      }

      .\32 9094029-9fdf-4627-8e7a-b3822233f523 {
        clip-path: url(#90449d00-9435-4bbf-8110-6f4cbd615db1);
      }

      .\33 bf328e2-974f-4365-a3fa-89c6a1b2ebdb {
        fill: #e5e5e4;
      }

      .b5ed22f1-dff2-4ef4-a717-0e6d928f59b2 {
        clip-path: url(#88703d51-e322-41e3-bd47-a2239f73b0ad);
      }

      .\39 d6a3aa6-f5f4-4d97-9025-3212445382ec {
        clip-path: url(#9178251d-be94-48b2-9aaa-2df87ad08811);
      }

      .deb5b812-3d7f-4288-a24c-0f356d970149 {
        fill: #985535;
      }

      .\36 c17b7ac-1987-4096-ab91-1722b45128a9 {
        clip-path: url(#b4e2c2a9-9457-499d-a82a-22501dbcf114);
      }

      .\39 e0b3604-f38b-4dcb-acc4-d9c2c713b6e6 {
        clip-path: url(#e6e6689e-9517-4afc-bcde-6531ae56cade);
      }

      .ebae3888-4b5d-4399-8e59-ba75f008ab6b {
        clip-path: url(#5ed20b94-5534-4800-999c-cbd5bcf69604);
      }

      .a3a6cb6a-a75e-43f4-a666-014b0276ccc2 {
        clip-path: url(#feac256f-5645-4fe1-aa0b-55793ec41b1f);
      }

      .\32 8af21c1-0c8b-43b2-b720-0798147fc2e9 {
        clip-path: url(#e0261343-b87a-4b4f-835a-e5470999bc8f);
      }

      .\30 6bdad1c-27c2-4b3e-bd64-f7385df626d7 {
        clip-path: url(#7ab60467-876c-41d5-9614-4aec695d7ab9);
      }

      .ade9f864-a916-4b4a-b668-49160cbdda4a {
        clip-path: url(#2b6fdf34-77ce-4bc1-8dd1-1f4953d7c062);
      }

      .f705be4c-d7c1-4e83-9a4e-e2aa4a9b889c {
        fill: #367878;
      }

      .f3990e97-b99e-4e57-a0f3-7d5f66f081e9 {
        clip-path: url(#37dee7b6-5782-4626-abb0-84b30c4d6f1f);
      }

      .\39 5e6aaa1-1339-43f4-90ec-0265198e4b41 {
        clip-path: url(#c0cba81b-3cf0-4005-b324-59c4dbb242ee);
      }

      .b8e07531-a7c5-47df-812b-876e43fc83f9 {
        clip-path: url(#ddc15237-0349-44bb-8ee2-0e198d01e351);
      }

      .a75a4a0b-549c-4563-8ede-aaaf4178d362 {
        clip-path: url(#4106c143-1ede-4095-8913-811247d03694);
      }

      .\34 25d29f1-f991-4410-9766-f047a0d0e178 {
        fill: #dd314e;
      }

      .\34 8f14620-163a-4cb8-a4c2-c35f5ccf87b0 {
        clip-path: url(#24629f7f-c951-42f6-96f8-391a5fe19308);
      }

      .\34 d0decbc-771a-4923-9909-2250bf1286ef {
        fill: #ffcc05;
      }

      .\36 ff013aa-7b9a-48ed-9e29-7a5b07d2909d {
        clip-path: url(#36a1b5da-212f-41e1-be4a-27d765304d73);
      }

      .e0376129-db22-4794-b8b4-5253d2624ac1 {
        fill: #b7942f;
      }

      .\39 7d255e9-ba13-4229-bbf6-a2c0f1598c56 {
        clip-path: url(#24498141-b5a1-4fc2-a496-7b300c0b94c0);
      }

      .e3ddc0d6-3630-4c02-9f74-38554ae64b6c {
        clip-path: url(#9899157b-123b-4a1f-ac96-e4a66b50ef90);
      }

      .\34 78d5b76-fac6-47cb-b6bd-70850ea5d2cb {
        clip-path: url(#8335e59e-7bc9-4d8f-bdf5-06cde0e651c2);
      }

      .\35 7d351e8-62c0-41d1-b8da-3bc7b0dc5ed0 {
        clip-path: url(#dc8de79a-f9dd-4cd5-ab3a-ae42ed82011b);
      }

      .db03c735-3cd3-4b2b-908b-29362cc2453c {
        clip-path: url(#df8b7175-b69c-4995-b3fb-2d334b97e4c5);
      }

      .\30 a1331df-77d5-4202-9e3d-1bac9dc73e0f {
        fill: #bc2c45;
      }

      .\35 c517a24-8f8d-4852-a3ee-4fcee14b62e4 {
        clip-path: url(#04d0027f-d1af-47de-b781-8bc0cd2d96e2);
      }

      .\34 b1fe896-3441-4004-be4d-a99385b80a6e {
        fill: #c93827;
      }

      .\32 369ad0f-88a9-4b5e-b7d8-08c2cbb97a4c {
        clip-path: url(#9ad83a70-5048-4756-9e79-b97c33f0d806);
      }

      .df37f5be-47fc-4591-ad1b-29d21ae3d5f0 {
        fill: #971b1e;
      }

      .dab7fc74-dd2e-4d77-aa73-4f94ecc4bd00 {
        clip-path: url(#a2d52eff-f8fe-4ef4-9a80-5e41c7b07125);
      }

      .\37 9098e4f-7e5f-4c33-855a-77e5570d3763 {
        clip-path: url(#ac82f26b-3535-4000-bf77-dc94aed691ba);
      }

      .d028014f-a30c-4bd1-83e5-72bc8b83415f {
        clip-path: url(#ffe0fe6a-f366-4d32-a6e7-02227cce079e);
      }

      .\36 24ca676-d39e-4512-899a-6f84e6f51c5d {
        clip-path: url(#1aa8f1b0-1bad-421c-9b51-1011b2750c27);
      }

      .\34 fa0959c-1d52-443f-9ffa-05772515c41f {
        clip-path: url(#6589ff2e-a6bf-4465-b289-547af274d962);
      }

      .bdfb5fd1-3b0c-44ed-a858-3916cfe1ef33 {
        clip-path: url(#52cfb0a7-bdb1-4d5d-96d3-4a36ec7d74e0);
      }

      .b791dae2-0f5b-4fc0-86e7-d758028d4570 {
        clip-path: url(#2cb38bda-34d5-4f9d-ba98-ecca5bdba95f);
      }

      .\32 3fb4a93-04ec-4bbf-a13a-510df5239d3f {
        clip-path: url(#ef116cbe-5fee-47c9-bf31-dbf721d651bb);
      }

      .\32 1873a58-fd1a-4ead-901a-b56a18e04974 {
        clip-path: url(#6c4634bd-65ff-4237-9b5b-f3509fc5f588);
      }

      .\30 13abade-7582-4b75-b801-9e08daa39552 {
        clip-path: url(#6f091a14-2ef3-4d54-a7fe-5684ba2394c5);
      }

      .\33 8ffa5e8-e099-4200-947d-6d6cdfb45524 {
        clip-path: url(#c7e22991-f32e-416b-afdd-992fba46e318);
      }
    </style>
    <clipPath id="f41626e5-059e-4e14-8181-6214d7411ced">
      <path class="49a62a6f-37a7-4fe0-b9ec-180d59639b4a" d="M113.3843,24.966a25.2172,25.2172,0,0,1,25.2122,25.219,25.1989,25.1989,0,0,0,11.1892,20.96A25.2231,25.2231,0,0,1,125.99,88.0142H113.3843V24.966Z"/>
    </clipPath>
    <clipPath id="ed4166e3-b6f6-4c83-b7ea-d8f87076f6cb">
      <path class="49a62a6f-37a7-4fe0-b9ec-180d59639b4a" d="M113.3843,88.0148H100.7782A25.2213,25.2213,0,0,1,76.9843,71.1457a25.1971,25.1971,0,0,0,11.1892-20.96,25.2143,25.2143,0,0,1,25.2108-25.219V88.0148Z"/>
    </clipPath>
    <clipPath id="64493d54-6f1e-4089-b36b-e7462c8c28ee">
      <path class="49a62a6f-37a7-4fe0-b9ec-180d59639b4a" d="M88.4735,46.2824a25.2208,25.2208,0,0,1,24.9112-21.3167v46.236Z"/>
    </clipPath>
    <clipPath id="e1db7447-59b7-44db-aef9-ffd3bdbf6686">
      <path class="49a62a6f-37a7-4fe0-b9ec-180d59639b4a" d="M147.0006,117.4364H79.768V106.9286c0-4.202,2.1329-5.27,4.2034-6.3044l18.9085-9.458V79.6072h21.01v11.559l18.9085,9.458c2.0692,1.0349,4.202,2.1024,4.202,6.3044v10.5078Z"/>
    </clipPath>
    <clipPath id="d232770d-4878-4ee5-9712-c275f8d6c9e9">
      <polygon class="49a62a6f-37a7-4fe0-b9ec-180d59639b4a" points="144.842 117.436 133.026 117.436 102.879 87.282 102.879 79.607 123.889 79.607 123.889 91.166 130.171 94.309 144.842 117.436"/>
    </clipPath>
    <clipPath id="5a160235-0625-4e0d-b171-43ed0820b259">
      <path class="49a62a6f-37a7-4fe0-b9ec-180d59639b4a" d="M137.4075,169.811c2.9641,5.1515,5.39,10.6543,5.39,16.98a29.6521,29.6521,0,0,1-.3,4.2034H84.2712a29.6521,29.6521,0,0,1-.3-4.2034c0-6.3221,2.4963-11.9524,5.3844-16.9736a56.1387,56.1387,0,0,0,7.22-27.1614,52.42,52.42,0,0,0-5.5349-23.99L94.476,95.3706v1.05c0,4.6239,3.4373,8.4068,7.6393,8.4068h22.5383c4.202,0,7.6393-3.7829,7.6393-8.4068l9.4373,12.6482a57.53,57.53,0,0,0-11.539,33.5878,50.6532,50.6532,0,0,0,7.2163,27.1546"/>
    </clipPath>
    <clipPath id="90449d00-9435-4bbf-8110-6f4cbd615db1">
      <path class="49a62a6f-37a7-4fe0-b9ec-180d59639b4a" d="M137.4075,169.811a51.3,51.3,0,0,1,3.2637,6.596L96.2238,131.9451l-0.0095-.08a10.5048,10.5048,0,0,0,14.1681-.769,4.1981,4.1981,0,0,1,6.0027,0,10.5036,10.5036,0,0,0,14.278.6768,3.3175,3.3175,0,0,1,.8651-0.5629,52.39,52.39,0,0,0-1.3369,11.4464,50.6532,50.6532,0,0,0,7.2163,27.1546"/>
    </clipPath>
    <clipPath id="88703d51-e322-41e3-bd47-a2239f73b0ad">
      <path class="49a62a6f-37a7-4fe0-b9ec-180d59639b4a" d="M134.3942,54.3885a4.2027,4.2027,0,1,0,4.202,4.2034,4.2028,4.2028,0,0,0-4.202-4.2034"/>
    </clipPath>
    <clipPath id="9178251d-be94-48b2-9aaa-2df87ad08811">
      <path class="49a62a6f-37a7-4fe0-b9ec-180d59639b4a" d="M134.3942,56.4892a2.1017,2.1017,0,1,0,2.1,2.1024,2.1019,2.1019,0,0,0-2.1-2.1024"/>
    </clipPath>
    <clipPath id="b4e2c2a9-9457-499d-a82a-22501dbcf114">
      <path class="49a62a6f-37a7-4fe0-b9ec-180d59639b4a" d="M92.3751,54.3885a4.2027,4.2027,0,1,0,4.202,4.2034,4.2019,4.2019,0,0,0-4.202-4.2034"/>
    </clipPath>
    <clipPath id="e6e6689e-9517-4afc-bcde-6531ae56cade">
      <path class="49a62a6f-37a7-4fe0-b9ec-180d59639b4a" d="M92.3751,56.4892a2.1017,2.1017,0,1,0,2.1,2.1024,2.101,2.101,0,0,0-2.1-2.1024"/>
    </clipPath>
    <clipPath id="5ed20b94-5534-4800-999c-cbd5bcf69604">
      <path class="49a62a6f-37a7-4fe0-b9ec-180d59639b4a" d="M134.3942,54.3885V69.1a21.0095,21.0095,0,1,1-42.019,0V54.3885A25.1853,25.1853,0,0,0,113.3841,43.11a25.1859,25.1859,0,0,0,21.01,11.2782"/>
    </clipPath>
    <clipPath id="feac256f-5645-4fe1-aa0b-55793ec41b1f">
      <path class="49a62a6f-37a7-4fe0-b9ec-180d59639b4a" d="M134.3942,54.3885V69.1a20.9879,20.9879,0,0,1-7.26,15.856L96.2762,54.0874A25.2129,25.2129,0,0,0,113.3841,43.11a25.1859,25.1859,0,0,0,21.01,11.2782"/>
    </clipPath>
    <clipPath id="e0261343-b87a-4b4f-835a-e5470999bc8f">
      <path class="49a62a6f-37a7-4fe0-b9ec-180d59639b4a" d="M102.88,54.3885a4.2027,4.2027,0,1,1-4.202,4.2034,4.2028,4.2028,0,0,1,4.202-4.2034"/>
    </clipPath>
    <clipPath id="7ab60467-876c-41d5-9614-4aec695d7ab9">
      <path class="49a62a6f-37a7-4fe0-b9ec-180d59639b4a" d="M123.89,54.3885a4.2034,4.2034,0,1,1-4.202,4.2034,4.2028,4.2028,0,0,1,4.202-4.2034"/>
    </clipPath>
    <clipPath id="2b6fdf34-77ce-4bc1-8dd1-1f4953d7c062">
      <path class="49a62a6f-37a7-4fe0-b9ec-180d59639b4a" d="M102.88,56.4892a2.1017,2.1017,0,1,1-2.1,2.1024,2.1019,2.1019,0,0,1,2.1-2.1024"/>
    </clipPath>
    <clipPath id="37dee7b6-5782-4626-abb0-84b30c4d6f1f">
      <path class="49a62a6f-37a7-4fe0-b9ec-180d59639b4a" d="M123.89,56.4892a2.1017,2.1017,0,1,1-2.1,2.1024,2.1019,2.1019,0,0,1,2.1-2.1024"/>
    </clipPath>
    <clipPath id="c0cba81b-3cf0-4005-b324-59c4dbb242ee">
      <path class="49a62a6f-37a7-4fe0-b9ec-180d59639b4a" d="M100.7789,57.54a1.0506,1.0506,0,1,1-1.0508,1.0512,1.0511,1.0511,0,0,1,1.0508-1.0512"/>
    </clipPath>
    <clipPath id="ddc15237-0349-44bb-8ee2-0e198d01e351">
      <path class="49a62a6f-37a7-4fe0-b9ec-180d59639b4a" d="M121.7888,57.54a1.0506,1.0506,0,1,1-1.0508,1.0512,1.0508,1.0508,0,0,1,1.0508-1.0512"/>
    </clipPath>
    <clipPath id="4106c143-1ede-4095-8913-811247d03694">
      <path class="49a62a6f-37a7-4fe0-b9ec-180d59639b4a" d="M121.0955,73.5445a1.0467,1.0467,0,0,1,1.3871,1.568,13.7345,13.7345,0,0,1-18.1952,0,1.0468,1.0468,0,0,1,1.3871-1.568,11.6677,11.6677,0,0,0,15.421,0"/>
    </clipPath>
    <clipPath id="24629f7f-c951-42f6-96f8-391a5fe19308">
      <path class="49a62a6f-37a7-4fe0-b9ec-180d59639b4a" d="M117.5462,101.9528A11.56,11.56,0,0,1,101.83,91.1669a1.05,1.05,0,1,1,2.1,0,9.4589,9.4589,0,0,0,11.9539,9.123l1.7763,0.3024Z"/>
    </clipPath>
    <clipPath id="36a1b5da-212f-41e1-be4a-27d765304d73">
      <path class="49a62a6f-37a7-4fe0-b9ec-180d59639b4a" d="M122.8388,91.1669a1.05,1.05,0,1,1,2.1,0,11.562,11.562,0,0,1-7.3926,10.7859l-1.6637-1.6629a9.461,9.461,0,0,0,6.9559-9.123"/>
    </clipPath>
    <clipPath id="24498141-b5a1-4fc2-a496-7b300c0b94c0">
      <path class="49a62a6f-37a7-4fe0-b9ec-180d59639b4a" d="M111.2841,62.7939a2.1017,2.1017,0,0,0,0,4.2034h6.3024l-4.202-4.2034h-2.1Z"/>
    </clipPath>
    <clipPath id="9899157b-123b-4a1f-ac96-e4a66b50ef90">
      <path class="49a62a6f-37a7-4fe0-b9ec-180d59639b4a" d="M100.7789,304.4824h10.5044v8.4068H100.7789v-2.1024l-2.1-2.101a2.1023,2.1023,0,0,0,2.1-2.0752v-2.1282Z"/>
    </clipPath>
    <clipPath id="8335e59e-7bc9-4d8f-bdf5-06cde0e651c2">
      <path class="49a62a6f-37a7-4fe0-b9ec-180d59639b4a" d="M112.338,58.5915a1.0461,1.0461,0,1,1,2.0922,0v4.202a1.049,1.049,0,0,1-1.0454,1.0512H111.283a1.0533,1.0533,0,0,0,0,2.1065h2.1017a1.0464,1.0464,0,0,1,0,2.0928l-2.1017.0041a3.1522,3.1522,0,0,1,0-6.3044h1.0549V58.5915Z"/>
    </clipPath>
    <clipPath id="dc8de79a-f9dd-4cd5-ab3a-ae42ed82011b">
      <path class="49a62a6f-37a7-4fe0-b9ec-180d59639b4a" d="M125.99,304.4824H115.4855v8.4068H125.99v-2.1024l2.1-2.101a2.1014,2.1014,0,0,1-2.1-2.0752v-2.1282Z"/>
    </clipPath>
    <clipPath id="df8b7175-b69c-4995-b3fb-2d334b97e4c5">
      <path class="49a62a6f-37a7-4fe0-b9ec-180d59639b4a" d="M119.368,77.1867L117.7816,75.6a11.6147,11.6147,0,0,0,3.3139-2.0549,1.0467,1.0467,0,0,1,1.3871,1.568,13.7746,13.7746,0,0,1-3.1146,2.0739"/>
    </clipPath>
    <clipPath id="04d0027f-d1af-47de-b781-8bc0cd2d96e2">
      <path class="49a62a6f-37a7-4fe0-b9ec-180d59639b4a" d="M142.5,190.9942l-4.8434,33.9147-16.918.1194-5.2529-21.4239a2.1017,2.1017,0,1,0-4.2034,0V306.5829H100.7792l-16.51-115.5887,3.9037-12.61h50.4231Z"/>
    </clipPath>
    <clipPath id="9ad83a70-5048-4756-9e79-b97c33f0d806">
      <path class="49a62a6f-37a7-4fe0-b9ec-180d59639b4a" d="M137.6561,224.9091L125.99,306.583H115.4852v-102.98a2.1173,2.1173,0,0,0-.6156-1.4866Z"/>
    </clipPath>
    <clipPath id="a2d52eff-f8fe-4ef4-9a80-5e41c7b07125">
      <path class="49a62a6f-37a7-4fe0-b9ec-180d59639b4a" d="M92.3751,207.8078a1.05,1.05,0,1,1-2.1,0v-4.2034a1.0508,1.0508,0,1,0-2.1017,0v6.3044a1.0509,1.0509,0,0,1-2.1017.0136V210.96a1.05,1.05,0,0,1-2.1,0v-1.0512a1.05,1.05,0,1,1-2.1,0v-3.1522a1.0508,1.0508,0,1,1-2.1017,0V127.9447H92.3751l-2.1017,60.9485,0.77,1.5395a12.0637,12.0637,0,0,1,1.3315,5.64v11.7353Z"/>
    </clipPath>
    <clipPath id="ac82f26b-3535-4000-bf77-dc94aed691ba">
      <path class="49a62a6f-37a7-4fe0-b9ec-180d59639b4a" d="M134.3935,207.8078a1.0508,1.0508,0,1,0,2.1017,0v-4.2034a1.05,1.05,0,1,1,2.1,0v6.3044a1.0509,1.0509,0,0,0,2.1017.0136V210.96a1.05,1.05,0,0,0,2.1,0v-1.0512a1.0508,1.0508,0,1,0,2.1017,0v-3.1522a1.0508,1.0508,0,1,0,2.1017,0V127.9447H134.3935l2.1017,60.9485-0.77,1.5395a12.0637,12.0637,0,0,0-1.3315,5.64v11.7353Z"/>
    </clipPath>
    <clipPath id="ffe0fe6a-f366-4d32-a6e7-02227cce079e">
      <polygon class="49a62a6f-37a7-4fe0-b9ec-180d59639b4a" points="147.001 201.502 147.001 179.887 136.443 187.429 136.495 188.892 135.794 190.293 147.001 201.502"/>
    </clipPath>
    <clipPath id="1aa8f1b0-1bad-421c-9b51-1011b2750c27">
      <polygon class="49a62a6f-37a7-4fe0-b9ec-180d59639b4a" points="130.192 98.524 130.192 155.266 134.394 155.266 138.596 113.233 130.192 98.524"/>
    </clipPath>
    <clipPath id="6589ff2e-a6bf-4465-b289-547af274d962">
      <path class="49a62a6f-37a7-4fe0-b9ec-180d59639b4a" d="M133.0258,117.4364L120.42,104.8276h4.2332c4.2034,0,7.6407-3.7829,7.6407-8.4068Z"/>
    </clipPath>
    <clipPath id="52cfb0a7-bdb1-4d5d-96d3-4a36ec7d74e0">
      <path class="49a62a6f-37a7-4fe0-b9ec-180d59639b4a" d="M146.9991,188.8927V106.9285c0-4.202-2.1329-5.27-4.2007-6.3044l-14.2847-7.1454a8.4173,8.4173,0,0,1,1.6786,5.0457v16.0785l4.2007,4.2033v70.0865h12.6061Z"/>
    </clipPath>
    <clipPath id="2cb38bda-34d5-4f9d-ba98-ecca5bdba95f">
      <path class="49a62a6f-37a7-4fe0-b9ec-180d59639b4a" d="M79.7687,188.8927V106.9285c0-4.202,2.1329-5.27,4.202-6.3044l14.2847-7.1454a8.4083,8.4083,0,0,0-1.6786,5.0457v56.7425h-4.202v33.6258H79.7687Z"/>
    </clipPath>
    <clipPath id="ef116cbe-5fee-47c9-bf31-dbf721d651bb">
      <path class="49a62a6f-37a7-4fe0-b9ec-180d59639b4a" d="M113.3843,314.99H81.87v2.1024a2.1073,2.1073,0,0,0,2.1017,2.1024h27.3112a2.1082,2.1082,0,0,0,2.1017-2.1024V314.99Z"/>
    </clipPath>
    <clipPath id="6c4634bd-65ff-4237-9b5b-f3509fc5f588">
      <path class="49a62a6f-37a7-4fe0-b9ec-180d59639b4a" d="M81.87,314.99a4.2042,4.2042,0,0,1,3.1064-4.0569l14.58-4.0121a7.3523,7.3523,0,0,0,11.5932,1.7918,0.8391,0.8391,0,0,1,1.3912.3676,21.0452,21.0452,0,0,1,.8434,5.91H81.87Z"/>
    </clipPath>
    <clipPath id="6f091a14-2ef3-4d54-a7fe-5684ba2394c5">
      <path class="49a62a6f-37a7-4fe0-b9ec-180d59639b4a" d="M113.3851,314.99h31.5132v2.1024a2.1071,2.1071,0,0,1-2.1,2.1024H115.4855a2.1071,2.1071,0,0,1-2.1-2.1024V314.99Z"/>
    </clipPath>
    <clipPath id="c7e22991-f32e-416b-afdd-992fba46e318">
      <path class="49a62a6f-37a7-4fe0-b9ec-180d59639b4a" d="M144.8989,314.99a4.2026,4.2026,0,0,0-3.1064-4.0569l-14.58-4.0121a7.351,7.351,0,0,1-11.5919,1.7918,0.84,0.84,0,0,0-1.3925.3676,21.0454,21.0454,0,0,0-.8434,5.91h31.5146Z"/>
    </clipPath>
  </defs>
  <title>people</title>
  <g>
    <g class="6a5a590f-6504-4333-8884-4a0214408ee9">
      <rect class="fbfd0d2a-f84c-4365-b3a7-4fe122b5c723" x="108.3843" y="19.966" width="46.4014" height="73.0482"/>
    </g>
    <g class="d3b5d61b-575c-4271-a827-1f1849bd9670">
      <rect class="c2ede54c-b494-4566-8a58-af488590b4c1" x="71.9843" y="19.9666" width="46.4" height="73.0482"/>
    </g>
    <g class="985ba2b3-597c-48ea-9c21-431d3e8976fc">
      <rect class="fbfd0d2a-f84c-4365-b3a7-4fe122b5c723" x="83.4735" y="19.9657" width="34.9112" height="56.236"/>
    </g>
    <g class="fb4f34d9-86c6-4dbc-82e5-1844031dc6bc">
      <rect class="3082a6b1-6b26-4c48-b0a0-48606e34fabc" x="74.768" y="74.6072" width="77.2325" height="47.8292"/>
    </g>
    <g class="50bb50f4-92ef-4b17-b15b-1b5fbf5e2d78">
      <rect class="6219a122-c637-46a1-b99e-2b3777b9bf39" x="97.8791" y="74.6072" width="51.9634" height="47.8292"/>
    </g>
    <g class="4af281a6-a16c-4167-a262-c9380a36b477">
      <rect class="0c71a9c7-7ca2-4b6c-8afe-e62efff1e4de" x="78.9716" y="90.3706" width="68.8258" height="105.6242"/>
    </g>
    <g class="29094029-9fdf-4627-8e7a-b3822233f523">
      <rect class="3bf328e2-974f-4365-a3fa-89c6a1b2ebdb" x="91.2143" y="124.8333" width="54.4569" height="56.5737"/>
    </g>
    <g class="b5ed22f1-dff2-4ef4-a717-0e6d928f59b2">
      <rect class="6219a122-c637-46a1-b99e-2b3777b9bf39" x="125.1922" y="49.3885" width="18.4041" height="18.4054"/>
    </g>
    <g class="9d6a3aa6-f5f4-4d97-9025-3212445382ec">
      <rect class="deb5b812-3d7f-4288-a24c-0f356d970149" x="127.2939" y="51.4892" width="14.2007" height="14.2034"/>
    </g>
    <g class="6c17b7ac-1987-4096-ab91-1722b45128a9">
      <rect class="3082a6b1-6b26-4c48-b0a0-48606e34fabc" x="83.1731" y="49.3885" width="18.4041" height="18.4054"/>
    </g>
    <g class="9e0b3604-f38b-4dcb-acc4-d9c2c713b6e6">
      <rect class="6219a122-c637-46a1-b99e-2b3777b9bf39" x="85.2748" y="51.4892" width="14.2007" height="14.2034"/>
    </g>
    <g class="ebae3888-4b5d-4399-8e59-ba75f008ab6b">
      <rect class="3082a6b1-6b26-4c48-b0a0-48606e34fabc" x="87.3752" y="38.1103" width="52.019" height="57.005"/>
    </g>
    <g class="a3a6cb6a-a75e-43f4-a666-014b0276ccc2">
      <rect class="6219a122-c637-46a1-b99e-2b3777b9bf39" x="91.2762" y="38.1103" width="48.118" height="51.8454"/>
    </g>
    <g class="28af21c1-0c8b-43b2-b720-0798147fc2e9">
      <rect class="0c71a9c7-7ca2-4b6c-8afe-e62efff1e4de" x="93.6777" y="49.3885" width="18.4041" height="18.4054"/>
    </g>
    <g class="06bdad1c-27c2-4b3e-bd64-f7385df626d7">
      <rect class="3bf328e2-974f-4365-a3fa-89c6a1b2ebdb" x="114.6876" y="49.3885" width="18.4041" height="18.4068"/>
    </g>
    <g class="ade9f864-a916-4b4a-b668-49160cbdda4a">
      <rect class="f705be4c-d7c1-4e83-9a4e-e2aa4a9b889c" x="95.7794" y="51.4892" width="14.2007" height="14.2034"/>
    </g>
    <g class="f3990e97-b99e-4e57-a0f3-7d5f66f081e9">
      <rect class="f705be4c-d7c1-4e83-9a4e-e2aa4a9b889c" x="116.7893" y="51.4892" width="14.2007" height="14.2034"/>
    </g>
    <g class="95e6aaa1-1339-43f4-90ec-0265198e4b41">
      <rect class="0c71a9c7-7ca2-4b6c-8afe-e62efff1e4de" x="94.728" y="52.5404" width="12.1017" height="12.1011"/>
    </g>
    <g class="b8e07531-a7c5-47df-812b-876e43fc83f9">
      <rect class="0c71a9c7-7ca2-4b6c-8afe-e62efff1e4de" x="115.7379" y="52.5404" width="12.1003" height="12.1011"/>
    </g>
    <g class="a75a4a0b-549c-4563-8ede-aaaf4178d362">
      <rect class="425d29f1-f991-4410-9766-f047a0d0e178" x="98.9344" y="68.2813" width="28.9005" height="15.2764"/>
    </g>
    <g class="48f14620-163a-4cb8-a4c2-c35f5ccf87b0">
      <rect class="4d0decbc-771a-4923-9909-2250bf1286ef" x="96.8296" y="85.1157" width="25.8305" height="22.6102"/>
    </g>
    <g class="6ff013aa-7b9a-48ed-9e29-7a5b07d2909d">
      <rect class="e0376129-db22-4794-b8b4-5253d2624ac1" x="110.8829" y="85.1157" width="19.0563" height="21.8371"/>
    </g>
    <g class="97d255e9-ba13-4229-bbf6-a2c0f1598c56">
      <rect class="3082a6b1-6b26-4c48-b0a0-48606e34fabc" x="104.1824" y="57.7939" width="18.4041" height="14.2034"/>
    </g>
    <g class="e3ddc0d6-3630-4c02-9f74-38554ae64b6c">
      <rect class="3082a6b1-6b26-4c48-b0a0-48606e34fabc" x="93.6786" y="299.4824" width="22.6047" height="18.4068"/>
    </g>
    <g class="478d5b76-fac6-47cb-b6bd-70850ea5d2cb">
      <rect class="deb5b812-3d7f-4288-a24c-0f356d970149" x="103.1318" y="52.5444" width="16.2983" height="20.5037"/>
    </g>
    <g class="57d351e8-62c0-41d1-b8da-3bc7b0dc5ed0">
      <rect class="6219a122-c637-46a1-b99e-2b3777b9bf39" x="110.4855" y="299.4824" width="22.6048" height="18.4068"/>
    </g>
    <g class="db03c735-3cd3-4b2b-908b-29362cc2453c">
      <rect class="0a1331df-77d5-4202-9e3d-1bac9dc73e0f" x="112.7816" y="68.2814" width="15.0533" height="13.9053"/>
    </g>
    <g class="5c517a24-8f8d-4852-a3ee-4fcee14b62e4">
      <rect class="4b1fe896-3441-4004-be4d-a99385b80a6e" x="79.2693" y="173.384" width="68.2305" height="138.1989"/>
    </g>
    <g class="2369ad0f-88a9-4b5e-b7d8-08c2cbb97a4c">
      <rect class="df37f5be-47fc-4591-ad1b-29d21ae3d5f0" x="109.8696" y="197.1166" width="32.7864" height="114.4664"/>
    </g>
    <g class="dab7fc74-dd2e-4d77-aa73-4f94ecc4bd00">
      <rect class="3082a6b1-6b26-4c48-b0a0-48606e34fabc" x="74.769" y="122.9447" width="22.6061" height="94.0652"/>
    </g>
    <g class="79098e4f-7e5f-4c33-855a-77e5570d3763">
      <rect class="3082a6b1-6b26-4c48-b0a0-48606e34fabc" x="129.3935" y="122.9447" width="22.6075" height="94.0652"/>
    </g>
    <g class="d028014f-a30c-4bd1-83e5-72bc8b83415f">
      <rect class="6219a122-c637-46a1-b99e-2b3777b9bf39" x="130.7938" y="174.887" width="21.2068" height="31.6152"/>
    </g>
    <g class="624ca676-d39e-4512-899a-6f84e6f51c5d">
      <rect class="c2ede54c-b494-4566-8a58-af488590b4c1" x="125.1918" y="93.5244" width="18.4041" height="66.7411"/>
    </g>
    <g class="4fa0959c-1d52-443f-9ffa-05772515c41f">
      <rect class="3bf328e2-974f-4365-a3fa-89c6a1b2ebdb" x="115.4197" y="91.4208" width="22.6061" height="31.0156"/>
    </g>
    <g class="bdfb5fd1-3b0c-44ed-a858-3916cfe1ef33">
      <rect class="fbfd0d2a-f84c-4365-b3a7-4fe122b5c723" x="123.5137" y="88.4787" width="28.4854" height="105.414"/>
    </g>
    <g class="b791dae2-0f5b-4fc0-86e7-d758028d4570">
      <rect class="c2ede54c-b494-4566-8a58-af488590b4c1" x="74.7687" y="88.4787" width="28.4868" height="105.414"/>
    </g>
    <g class="23fb4a93-04ec-4bbf-a13a-510df5239d3f">
      <rect class="0c71a9c7-7ca2-4b6c-8afe-e62efff1e4de" x="76.8697" y="309.9895" width="41.5146" height="14.2048"/>
    </g>
    <g class="21873a58-fd1a-4ead-901a-b56a18e04974">
      <rect class="c2ede54c-b494-4566-8a58-af488590b4c1" x="76.8696" y="301.9205" width="41.5146" height="18.0691"/>
    </g>
    <g class="013abade-7582-4b75-b801-9e08daa39552">
      <rect class="3bf328e2-974f-4365-a3fa-89c6a1b2ebdb" x="108.3851" y="309.9895" width="41.5132" height="14.2048"/>
    </g>
    <g class="38ffa5e8-e099-4200-947d-6d6cdfb45524">
      <rect class="fbfd0d2a-f84c-4365-b3a7-4fe122b5c723" x="108.3843" y="301.9205" width="41.5146" height="18.0691"/>
    </g>
  </g>
</svg>
