<svg id="6838c3e1-efa4-4623-9be6-c272a445ec4c" data-name="Layer 1" xmlns="http://www.w3.org/2000/svg" xmlns:xlink="http://www.w3.org/1999/xlink" viewBox="0 0 226.77 340.16">
  <defs>
    <style>
      .\34 0421dda-8ec8-4d07-964f-177eb472c4bf, .\38 07c33b4-f041-4554-b751-27d55a9aed08 {
        fill: none;
      }

      .\38 07c33b4-f041-4554-b751-27d55a9aed08 {
        clip-rule: evenodd;
      }

      .c9f1d0b1-3d78-4922-b180-3db1cf4c95c9 {
        clip-path: url(#0b27d848-522e-4620-85f8-ad10f827d0f1);
      }

      .\36 413f1ce-5c69-4b0e-8399-b7615430433a {
        fill: #a77841;
      }

      .\34 2c92184-8530-4509-99b5-24a5bcc04235 {
        clip-path: url(#4660927e-8945-489b-851f-8fa505f68575);
      }

      .df11fde4-3fc5-4281-a7f3-4912b15ce352 {
        fill: #a4c4e7;
      }

      .abde5e11-aac8-40fe-a852-29011f250372 {
        clip-path: url(#d5b8e7f3-0ae5-4180-8900-73dc426eb909);
      }

      .\33 47d959f-f8fb-4065-822e-f3628937e50a {
        fill: #789bc7;
      }

      .\33 9cf3e9c-e12c-4c9e-906a-0f37f485753b {
        clip-path: url(#88daae4c-d648-4b15-904d-1d085aeb9877);
      }

      .b7339a19-8c6d-41c9-8034-61e570ba699d {
        fill: #3f2410;
      }

      .\30 ac0b15d-9121-4f9e-86ac-6e1ce17b3767 {
        clip-path: url(#dd6e166b-9a90-400d-865c-89cb21761ae5);
      }

      .\31 edce349-e3a2-466c-a224-106a87e77ccd {
        fill: #9d5031;
      }

      .\32 a8fcc8d-2f5c-48ae-9c74-728ff45baa84 {
        clip-path: url(#11c07e34-7f7a-4060-960d-0e25b12ba32e);
      }

      .\38 16a0c0d-0b06-4c3c-83da-f1564cdd4b08 {
        clip-path: url(#fa28c41e-ac36-445d-aa41-7c2def2cde44);
      }

      .e192073e-9a96-4019-a6d2-292a9102a8e0 {
        fill: #804026;
      }

      .ecb7ed5d-fc5f-4116-b840-b31c39fbbd53 {
        clip-path: url(#8b98e114-7821-4427-9067-c0c2c3da94d1);
      }

      .c3bf2362-2762-4309-a129-3205d6be3702 {
        fill: #fff;
      }

      .\36 a1f2969-472d-4724-801e-4f7b550d1f00 {
        clip-path: url(#54d478de-f5b6-4f38-80cc-b2e4c89bc89d);
      }

      .ed19e252-4783-44a0-8ccc-de46acc51838 {
        fill: #ffcc05;
      }

      .\34 73e3486-cdec-407d-b900-ef97f152baef {
        clip-path: url(#8d8ca606-6473-428b-a660-539f062b08db);
      }

      .ed12ea41-b8d5-4165-8a34-0b23fa05cfe9 {
        fill: #b7942f;
      }

      .\33 fa21039-f05b-4889-b740-af1658870412 {
        clip-path: url(#1e3ba433-3599-49eb-a139-ace5680386d0);
      }

      .\32 844ae32-2e61-4e3d-a51d-02e963970cd7 {
        fill: #424f55;
      }

      .\33 a50a3fc-d4de-4de0-af85-7d1882e56d23 {
        clip-path: url(#be5ac4fc-71db-4594-ab87-ecfa30aa45b8);
      }

      .cff21f93-e12d-414f-9852-72cb4bc5ab11 {
        fill: #222c30;
      }

      .\38 d665ba5-ecd2-4744-8536-12e2d62b5050 {
        clip-path: url(#2f1e113d-56b4-420c-916a-3b3d5fe0fe94);
      }

      .b427b4a1-3cff-4871-a3d6-a7c2455b8abc {
        clip-path: url(#d56e97d3-aa76-4936-9026-cdd53cb2467b);
      }

      .bea9c53a-8472-43c5-83e4-c17df74a8e1f {
        clip-path: url(#130f665d-b3b8-4753-817f-4dbd4df7e337);
      }

      .\39 577c8c3-39af-42c1-a524-5a5c98b69389 {
        clip-path: url(#7f1f7bce-e4a4-4373-b3a9-54834edf6e25);
      }

      .\35 60414d4-6d41-46da-bf2b-5c4827484c9f {
        clip-path: url(#13938d6c-6384-48da-b0b5-7432d8f1fec4);
      }

      .\33 413d4e9-ef7e-40ba-a7c9-e034e8bec617 {
        clip-path: url(#bee283b8-a0ea-47df-83e0-745d81678b37);
      }

      .\38 d827a45-ba85-4cbd-810d-77761b0126e2 {
        clip-path: url(#7e1d762d-8b6c-4d6a-a635-4ed974bcda07);
      }

      .\37 4f59de0-4ac4-4350-98ac-8da0bfe0fb13 {
        fill: #41494d;
      }

      .\30 49cf978-2f6d-471c-a0b9-98a790047eeb {
        clip-path: url(#f5e5d55e-9f2e-4835-8107-596b785f9781);
      }

      .\32 d9e502e-b5fc-4067-85a0-ef91a4a58038 {
        clip-path: url(#6dd8c2b7-d3b5-4cd2-8035-6141098b1a70);
      }

      .\30 3d8828f-e054-4c84-ab9c-dbba0753d67c {
        clip-path: url(#09fb8fe2-7e9a-46c2-8e23-96b018257379);
      }

      .\34 6114a41-6758-4a56-923e-fc13806642fd {
        clip-path: url(#311f43fb-67fb-49ab-a630-f227311f66ab);
      }

      .\31 fcdfe8f-5ae5-443c-9f51-8b39702343d2 {
        clip-path: url(#4a05e007-839e-4654-90f4-1b2660730f80);
      }

      .c4b94b45-b4b9-4b6b-81f4-1c09a2aaf6f8 {
        clip-path: url(#4e5b891d-418d-42cd-bf89-142435243776);
      }

      .c04311ee-d7a7-46e0-a334-7c8d39126f85 {
        clip-path: url(#18901461-d7a6-4612-8c71-6270d2f08aef);
      }

      .\38 b1ce33b-bab1-4635-a25f-d529cc661073 {
        clip-path: url(#a8bb5650-c481-4397-ab59-4df04ea6a236);
      }

      .a17200af-90cc-4317-a472-d9f80bd907b2 {
        fill: #dd314e;
      }

      .\30 19fdb35-ee09-47f7-8f6d-c38f796cf389 {
        clip-path: url(#363c032c-5970-4c9e-afe8-7ace00cb720a);
      }

      .\30 a5ba540-ade4-48cf-a043-863b43bf5052 {
        clip-path: url(#a2e9a05e-2f48-402f-b95d-ffdca325ecd7);
      }

      .\31 06e0b28-8d4c-428c-bd75-ecc43272957d {
        clip-path: url(#c7e9a3ca-670a-4d5d-acfe-9dd39225ab5d);
      }

      .\34 7044423-e5a3-4d91-a421-983ce29f00eb {
        clip-path: url(#d96fe2f6-25d5-4e1f-aad9-3cd6f438f9eb);
      }

      .\37 84cd0ba-1510-49a7-a127-96aeb8f27245 {
        clip-path: url(#9c72ba29-4158-45e8-bc21-edd3c7337b48);
      }

      .\38 247cd04-95de-4d20-980c-6ab16eef5f17 {
        clip-path: url(#5fedcb88-d6d3-4207-a8e9-513517fde589);
      }

      .ea40c2c3-f261-408b-8284-cacf2aa2f78b {
        clip-path: url(#067e277d-6361-4983-8329-4c4fbb6c9de8);
      }

      .\32 bbce13f-ffc5-4a5a-b73a-7b6d4fad8705 {
        clip-path: url(#40f90684-1322-43d3-8ce8-b70b4e7faaac);
      }

      .dd3d08b4-cc01-4548-9dfe-fee973a382ba {
        clip-path: url(#cd098c1d-a26d-4689-81e2-f9bb09f91b92);
      }

      .\36 0ccf69c-768c-400f-b8ea-0b4ae8d1e111 {
        clip-path: url(#6631e9d3-e8ec-4d66-a4f9-fa3efd4e618c);
      }

      .\31 f717cdf-1fc1-42a8-815d-9fd66d85e06c {
        clip-path: url(#26d3bfb3-0e62-497e-b69e-0c2fdb53f20e);
      }

      .\31 3139e5f-daca-4993-88a6-1cb2d3bbdfd4 {
        clip-path: url(#7f38059a-8d18-4777-a01d-ec97d04237d8);
      }

      .\36 3cb9d73-8bad-46c3-9c13-d86ed2d3126d {
        clip-path: url(#e723bfb1-670c-4ccc-990e-1c42ba26a543);
      }

      .\33 341967c-456c-4921-8f87-672973821480 {
        clip-path: url(#2c9f48f3-5309-490a-8066-c056ec5079f9);
      }

      .\31 b2c07e6-9323-4889-b124-18e877e9cf7d {
        clip-path: url(#2a79c9f7-53fd-44b5-8f11-6bff1fee6f4e);
      }

      .\35 fe9f093-67d8-49c3-aee1-be7c0d0bb7a2 {
        clip-path: url(#997dc116-fb55-4760-b898-23b49db46bcb);
      }

      .\34 7feaefa-2507-4186-9950-62276320388a {
        clip-path: url(#7d4b442b-372b-4fd7-87d9-f64f1347dbfc);
      }

      .\31 49a9f1b-2bdd-422b-8f4e-0c6fb833e113 {
        clip-path: url(#719b029b-150d-47f1-8acd-566dd05ab665);
      }

      .\32 5ac0782-749b-46b6-8e39-d90898c9b012 {
        fill: #e5e5e4;
      }

      .\31 9386ec2-3c44-4854-a5d8-27465f9fb63f {
        clip-path: url(#3859f7d0-ff27-4100-9c20-acb30137be3e);
      }

      .db371f1a-99fa-45c7-86fc-e37855f30a7e {
        clip-path: url(#0f7e7f41-e2a4-4b04-888d-05918cf6e9b8);
      }

      .\33 bc8d73d-11ac-4801-9f8d-89e49d2e1fa9 {
        clip-path: url(#7e93160c-ef27-45e2-9a18-490b67e16222);
      }

      .ca16e78f-8a5c-4b2c-9005-0842e378a3ad {
        clip-path: url(#94aabb8f-7ddf-40be-a3cd-a8221baba4a8);
      }

      .\33 5bf68ed-9fa2-47e3-92d6-a4da0bb3c675 {
        clip-path: url(#e600bdf7-ed49-48d5-87b6-c705f391f57c);
      }

      .b7f17449-b855-47d9-8c06-d4d69718046b {
        fill: #77878e;
      }

      .\32 1af7b7d-acf1-4520-b3c3-bb722d55caa7 {
        clip-path: url(#3ab4aff7-2c12-41a3-9a4b-669bd96ca53e);
      }

      .cc07c2f5-b011-4653-b9e2-039cf4821a66 {
        clip-path: url(#73e29c7b-ee77-48a2-95ae-b296c2bf9c0f);
      }
    </style>
    <clipPath id="0b27d848-522e-4620-85f8-ad10f827d0f1">
      <rect class="40421dda-8ec8-4d07-964f-177eb472c4bf" x="100.7797" y="79.7102" width="25.2108" height="29.4238"/>
    </clipPath>
    <clipPath id="4660927e-8945-489b-851f-8fa505f68575">
      <path class="807c33b4-f041-4554-b751-27d55a9aed08" d="M88.1728,180.5881h50.4258v45.4113l-23.1132-22.2933a2.1,2.1,0,1,0-4.2007,0l-8.4027,98.7777H88.1728V180.5881Z"/>
    </clipPath>
    <clipPath id="d5b8e7f3-0ae5-4180-8900-73dc426eb909">
      <path class="807c33b4-f041-4554-b751-27d55a9aed08" d="M138.598,226v76.4844H123.8889l-8.4026-98.7778a2.437,2.437,0,0,0-.5764-1.4Z"/>
    </clipPath>
    <clipPath id="88daae4c-d648-4b15-904d-1d085aeb9877">
      <polygon class="807c33b4-f041-4554-b751-27d55a9aed08" points="125.991 180.588 138.598 180.588 138.598 193.198 125.991 180.588"/>
    </clipPath>
    <clipPath id="dd6e166b-9a90-400d-865c-89cb21761ae5">
      <path class="807c33b4-f041-4554-b751-27d55a9aed08" d="M88.1757,216.3162a1.0508,1.0508,0,0,1-2.1017,0v-4.2034a1.0508,1.0508,0,1,0-2.1017,0v6.3045a1.0509,1.0509,0,0,1-2.1017.0135v1.0376a1.0509,1.0509,0,1,1-2.1017,0v-1.0511a1.05,1.05,0,1,1-2.099,0V215.265a1.0508,1.0508,0,1,1-2.1017,0V134.3521H88.1757v81.9641Z"/>
    </clipPath>
    <clipPath id="11c07e34-7f7a-4060-960d-0e25b12ba32e">
      <path class="807c33b4-f041-4554-b751-27d55a9aed08" d="M138.598,216.3162a1.0495,1.0495,0,1,0,2.099,0v-4.2034a1.0509,1.0509,0,1,1,2.1017,0v6.3045a1.0509,1.0509,0,0,0,2.1017.0135v1.0376a1.0508,1.0508,0,1,0,2.1017,0v-1.0511a1.0508,1.0508,0,1,0,2.1017,0V215.265a1.05,1.05,0,1,0,2.099,0V134.3521H138.598v81.9641Z"/>
    </clipPath>
    <clipPath id="fa28c41e-ac36-445d-aa41-7c2def2cde44">
      <path class="807c33b4-f041-4554-b751-27d55a9aed08" d="M151.2021,197.4016V155.3677l-12.6047-12.6088v42.0325Zm0-63.0495v13.63l-12.6047-12.61v-1.02h12.6047Z"/>
    </clipPath>
    <clipPath id="8b98e114-7821-4427-9067-c0c2c3da94d1">
      <path class="807c33b4-f041-4554-b751-27d55a9aed08" d="M67.1649,315.0914h37.8156v3.1536a1.054,1.054,0,0,1-1.0481,1.0512H68.2158a1.0546,1.0546,0,0,1-1.0509-1.0512v-3.1536Z"/>
    </clipPath>
    <clipPath id="54d478de-f5b6-4f38-80cc-b2e4c89bc89d">
      <path class="807c33b4-f041-4554-b751-27d55a9aed08" d="M102.9026,301.4322a1.0545,1.0545,0,0,1,1.0508,1.0512v1.05a1.0623,1.0623,0,0,1-.4637.8708,51.57,51.57,0,0,1,1.4847,10.6868h-37.81a3.9706,3.9706,0,0,1,2.861-3.9823l12.45-2.767A7.53,7.53,0,0,0,87.3121,304.1a1.0471,1.0471,0,0,1-.1695-0.567v-1.05a1.0549,1.0549,0,0,1,1.0305-1.0512h14.7295Z"/>
    </clipPath>
    <clipPath id="8d8ca606-6473-428b-a660-539f062b08db">
      <path class="807c33b4-f041-4554-b751-27d55a9aed08" d="M74.5178,310.11l2.1017-.4679V310.89a1.0509,1.0509,0,1,1-2.1017,0v-0.78Zm4.2671-.9481,2.05-.4557,0.4936,1.8406a1.05,1.05,0,1,1-2.03.5412Zm4.221-.9657a6.2159,6.2159,0,0,0,1.8427-.9929l1.0807,1.8731a1.0466,1.0466,0,0,1-1.8156,1.0417Zm3.0441-2.15a9.7863,9.7863,0,0,0,1.1837-1.7891l1.6827,1.6846a1.0505,1.0505,0,0,1-1.4847,1.4866Z"/>
    </clipPath>
    <clipPath id="1e3ba433-3599-49eb-a139-ace5680386d0">
      <rect class="40421dda-8ec8-4d07-964f-177eb472c4bf" x="75.5687" y="191.0968" width="6.3024" height="4.2034"/>
    </clipPath>
    <clipPath id="be5ac4fc-71db-4594-ab87-ecfa30aa45b8">
      <rect class="40421dda-8ec8-4d07-964f-177eb472c4bf" x="81.8698" y="191.0968" width="6.3023" height="4.2034"/>
    </clipPath>
    <clipPath id="2f1e113d-56b4-420c-916a-3b3d5fe0fe94">
      <polygon class="807c33b4-f041-4554-b751-27d55a9aed08" points="100.78 79.71 125.991 79.71 125.991 109.133 121.489 109.133 100.78 88.415 100.78 79.71"/>
    </clipPath>
    <clipPath id="d56e97d3-aa76-4936-9026-cdd53cb2467b">
      <path class="807c33b4-f041-4554-b751-27d55a9aed08" d="M113.387,24.8639a29.4231,29.4231,0,0,1,0,58.8462l-2.1017-29.4224Z"/>
    </clipPath>
    <clipPath id="130f665d-b3b8-4753-817f-4dbd4df7e337">
      <path class="807c33b4-f041-4554-b751-27d55a9aed08" d="M75.5687,134.3521V109.133c0-4.2033,2.1316-5.2708,4.2007-6.3057l21.01-10.5078a12.6054,12.6054,0,1,0,25.2108,0l21.0116,10.5078c2.0678,1.0349,4.2006,2.1037,4.2006,6.3057v23.118l-12.6047,2.1011v58.8461H88.1735V134.3521H75.5687Z"/>
    </clipPath>
    <clipPath id="7f1f7bce-e4a4-4373-b3a9-54834edf6e25">
      <polygon class="807c33b4-f041-4554-b751-27d55a9aed08" points="138.598 142.758 138.598 184.791 100.78 146.962 125.991 130.148 138.598 142.758"/>
    </clipPath>
    <clipPath id="13938d6c-6384-48da-b0b5-7432d8f1fec4">
      <path class="807c33b4-f041-4554-b751-27d55a9aed08" d="M113.387,83.71a29.4231,29.4231,0,0,1,0-58.8462V83.71Z"/>
    </clipPath>
    <clipPath id="bee283b8-a0ea-47df-83e0-745d81678b37">
      <path class="807c33b4-f041-4554-b751-27d55a9aed08" d="M104.4714,101.2354a12.6043,12.6043,0,0,0,21.52-8.9167l21.01,10.5091c2.0691,1.0349,4.2006,2.1024,4.2006,6.3044v25.22H138.5975v1.02Z"/>
    </clipPath>
    <clipPath id="7e1d762d-8b6c-4d6a-a635-4ed974bcda07">
      <path class="807c33b4-f041-4554-b751-27d55a9aed08" d="M98.6783,93.3708L100.78,92.32v42.0326l-2.1017-4.2034V93.3708Zm27.3125,29.3912,2.1017,1.0241v6.3627l-2.1017,4.2034v-11.59Z"/>
    </clipPath>
    <clipPath id="f5e5d55e-9f2e-4835-8107-596b785f9781">
      <polygon class="807c33b4-f041-4554-b751-27d55a9aed08" points="125.991 92.353 125.991 92.319 128.093 93.37 128.093 124.864 125.991 122.762 125.991 92.353"/>
    </clipPath>
    <clipPath id="6dd8c2b7-d3b5-4cd2-8035-6141098b1a70">
      <path class="807c33b4-f041-4554-b751-27d55a9aed08" d="M134.3945,54.49a4.2034,4.2034,0,1,0,4.2034,4.2034,4.2025,4.2025,0,0,0-4.2034-4.2034"/>
    </clipPath>
    <clipPath id="09fb8fe2-7e9a-46c2-8e23-96b018257379">
      <path class="807c33b4-f041-4554-b751-27d55a9aed08" d="M134.3945,56.5918a2.1017,2.1017,0,1,0,2.1017,2.101,2.1,2.1,0,0,0-2.1017-2.101"/>
    </clipPath>
    <clipPath id="311f43fb-67fb-49ab-a630-f227311f66ab">
      <path class="807c33b4-f041-4554-b751-27d55a9aed08" d="M92.3762,54.49A4.2034,4.2034,0,1,0,96.58,58.6938,4.2008,4.2008,0,0,0,92.3762,54.49"/>
    </clipPath>
    <clipPath id="4a05e007-839e-4654-90f4-1b2660730f80">
      <path class="807c33b4-f041-4554-b751-27d55a9aed08" d="M92.3762,56.5918a2.1017,2.1017,0,1,0,2.1017,2.101,2.1027,2.1027,0,0,0-2.1017-2.101"/>
    </clipPath>
    <clipPath id="4e5b891d-418d-42cd-bf89-142435243776">
      <path class="807c33b4-f041-4554-b751-27d55a9aed08" d="M129.6254,36.9914a20.9041,20.9041,0,0,1,4.7688,13.2952v21.017a21.0088,21.0088,0,1,1-42.0176,0V50.2866a20.9041,20.9041,0,0,1,4.7688-13.2952,29.4131,29.4131,0,0,0,32.48,0"/>
    </clipPath>
    <clipPath id="18901461-d7a6-4612-8c71-6270d2f08aef">
      <path class="807c33b4-f041-4554-b751-27d55a9aed08" d="M113.387,79.71a8.4064,8.4064,0,0,0,8.4041-8.4068H104.98A8.407,8.407,0,0,0,113.387,79.71"/>
    </clipPath>
    <clipPath id="a8bb5650-c481-4397-ab59-4df04ea6a236">
      <path class="807c33b4-f041-4554-b751-27d55a9aed08" d="M113.387,79.71a8.3436,8.3436,0,0,0,4.0677-1.0512,8.4111,8.4111,0,0,0-8.1382,0,8.3463,8.3463,0,0,0,4.07,1.0512"/>
    </clipPath>
    <clipPath id="363c032c-5970-4c9e-afe8-7ace00cb720a">
      <path class="807c33b4-f041-4554-b751-27d55a9aed08" d="M102.8815,54.49a4.2034,4.2034,0,1,1-4.2034,4.2034,4.2025,4.2025,0,0,1,4.2034-4.2034"/>
    </clipPath>
    <clipPath id="a2e9a05e-2f48-402f-b95d-ffdca325ecd7">
      <path class="807c33b4-f041-4554-b751-27d55a9aed08" d="M119.689,71.3032a2.1106,2.1106,0,0,1-2.1017,2.101h-8.4041a2.11,2.11,0,0,1-2.1017-2.101H119.689Z"/>
    </clipPath>
    <clipPath id="c7e9a3ca-670a-4d5d-acfe-9dd39225ab5d">
      <path class="807c33b4-f041-4554-b751-27d55a9aed08" d="M123.8893,54.49a4.2034,4.2034,0,1,1-4.2007,4.2034,4.2031,4.2031,0,0,1,4.2007-4.2034"/>
    </clipPath>
    <clipPath id="d96fe2f6-25d5-4e1f-aad9-3cd6f438f9eb">
      <path class="807c33b4-f041-4554-b751-27d55a9aed08" d="M102.8815,56.5918a2.1017,2.1017,0,1,1-2.1017,2.101,2.1,2.1,0,0,1,2.1017-2.101"/>
    </clipPath>
    <clipPath id="9c72ba29-4158-45e8-bc21-edd3c7337b48">
      <path class="807c33b4-f041-4554-b751-27d55a9aed08" d="M123.8893,56.5918a2.1017,2.1017,0,1,1-2.099,2.1024,2.1013,2.1013,0,0,1,2.099-2.1024"/>
    </clipPath>
    <clipPath id="5fedcb88-d6d3-4207-a8e9-513517fde589">
      <path class="807c33b4-f041-4554-b751-27d55a9aed08" d="M100.78,57.6423a1.0506,1.0506,0,1,1-1.0508,1.0512,1.05,1.05,0,0,1,1.0508-1.0512"/>
    </clipPath>
    <clipPath id="067e277d-6361-4983-8329-4c4fbb6c9de8">
      <path class="807c33b4-f041-4554-b751-27d55a9aed08" d="M121.79,57.6432a1.0505,1.0505,0,1,1-1.0508,1.0511,1.0519,1.0519,0,0,1,1.0508-1.0511"/>
    </clipPath>
    <clipPath id="40f90684-1322-43d3-8ce8-b70b4e7faaac">
      <path class="807c33b4-f041-4554-b751-27d55a9aed08" d="M108.3584,52.7419a1.0464,1.0464,0,1,1-1.5593,1.3957,5.2625,5.2625,0,0,0-7.8346,0,1.0468,1.0468,0,0,1-1.5606-1.3957,7.3376,7.3376,0,0,1,10.9545,0"/>
    </clipPath>
    <clipPath id="cd098c1d-a26d-4689-81e2-f9bb09f91b92">
      <path class="807c33b4-f041-4554-b751-27d55a9aed08" d="M129.3662,51.6906a1.0453,1.0453,0,1,1-1.5566,1.3957,5.2655,5.2655,0,0,0-7.8373,0,1.0469,1.0469,0,0,1-1.5607-1.3957,7.3375,7.3375,0,0,1,10.9546,0"/>
    </clipPath>
    <clipPath id="6631e9d3-e8ec-4d66-a4f9-fa3efd4e618c">
      <path class="807c33b4-f041-4554-b751-27d55a9aed08" d="M133.3438,41.8808a1.0509,1.0509,0,1,1,2.1017,0V71.3032A22.1243,22.1243,0,0,1,113.3873,93.37l-2.1017-4.73,2.1017-4.7269a12.5589,12.5589,0,0,0,8.4026-3.2119V89.4a20.0348,20.0348,0,0,0,11.5539-18.0967V41.8808Z"/>
    </clipPath>
    <clipPath id="26d3bfb3-0e62-497e-b69e-0c2fdb53f20e">
      <path class="807c33b4-f041-4554-b751-27d55a9aed08" d="M113.387,93.37h0a22.1257,22.1257,0,0,1-22.061-22.0668V41.8812a1.0508,1.0508,0,1,1,2.1017,0V71.3036A20.0373,20.0373,0,0,0,104.98,89.4V80.7a12.5542,12.5542,0,0,0,8.4068,3.2119V93.37Z"/>
    </clipPath>
    <clipPath id="7f38059a-8d18-4777-a01d-ec97d04237d8">
      <path class="807c33b4-f041-4554-b751-27d55a9aed08" d="M130.1946,55.5409H119.689a1.05,1.05,0,0,0-1.0509,1.0512v2.1024a3.1645,3.1645,0,0,0,3.15,3.1522h5.2542a3.1651,3.1651,0,0,0,3.1525-3.1522V55.5409ZM113.3838,53.44a5.2278,5.2278,0,0,1,3.6434,1.4689A3.1615,3.1615,0,0,1,119.689,53.44h15.7559a1.05,1.05,0,1,1,0,2.101h-3.1525v3.1536a5.2643,5.2643,0,0,1-5.25,5.2532H121.788a5.2675,5.2675,0,0,1-5.2516-5.2546,3.152,3.152,0,0,0-3.1525-3.1522l-0.8407-1.05Z"/>
    </clipPath>
    <clipPath id="e723bfb1-670c-4ccc-990e-1c42ba26a543">
      <path class="807c33b4-f041-4554-b751-27d55a9aed08" d="M91.3259,55.5408a1.0505,1.0505,0,1,1,0-2.101h15.7559a3.1614,3.1614,0,0,1,2.6617,1.4689,5.2262,5.2262,0,0,1,3.6407-1.4689v2.101a3.15,3.15,0,0,0-3.15,3.1535,5.2678,5.2678,0,0,1-5.2543,5.2533H99.7286a5.2647,5.2647,0,0,1-5.2515-5.2533V55.5408H91.3259Zm15.7559,0H96.5761v3.1535a3.165,3.165,0,0,0,3.1525,3.1522H104.98a3.1653,3.1653,0,0,0,3.1526-3.1535V56.592A1.05,1.05,0,0,0,107.0818,55.5408Z"/>
    </clipPath>
    <clipPath id="2c9f48f3-5309-490a-8066-c056ec5079f9">
      <path class="807c33b4-f041-4554-b751-27d55a9aed08" d="M116.5243,58.6934a1.0461,1.0461,0,1,0-2.0922,0v4.2034a1.05,1.05,0,0,0,1.0467,1.05h2.099a1.0533,1.0533,0,0,1,0,2.1065h-8.3945a1.0533,1.0533,0,0,1,0-2.1065h2.1016a1.0488,1.0488,0,0,0,1.0455-1.05V58.6934a1.0468,1.0468,0,1,0-2.0936,0v3.1522h-1.0535a3.1529,3.1529,0,0,0,0,6.3058h8.3945a3.1529,3.1529,0,0,0,0-6.3058h-1.0535V58.6934Z"/>
    </clipPath>
    <clipPath id="2a79c9f7-53fd-44b5-8f11-6bff1fee6f4e">
      <path class="807c33b4-f041-4554-b751-27d55a9aed08" d="M79.769,188.9946h4.2034a2.1071,2.1071,0,0,1,2.1017,2.101V195.3a2.1071,2.1071,0,0,1-2.1017,2.1011H79.769A2.11,2.11,0,0,1,77.6673,195.3v-4.2047a2.11,2.11,0,0,1,2.1017-2.101"/>
    </clipPath>
    <clipPath id="997dc116-fb55-4760-b898-23b49db46bcb">
      <rect class="40421dda-8ec8-4d07-964f-177eb472c4bf" x="79.7695" y="191.0968" width="4.2034" height="4.2034"/>
    </clipPath>
    <clipPath id="7d4b442b-372b-4fd7-87d9-f64f1347dbfc">
      <path class="807c33b4-f041-4554-b751-27d55a9aed08" d="M100.78,197.401a13.6649,13.6649,0,0,1-12.6075,8.4067v-2.1023a11.5456,11.5456,0,0,0,10.2983-6.3044H100.78Zm25.2108,0a13.6649,13.6649,0,0,0,12.6075,8.4067v-2.1023a11.51,11.51,0,0,1-6.6671-2.1119A11.6257,11.6257,0,0,1,128.3,197.401h-2.3092Z"/>
    </clipPath>
    <clipPath id="719b029b-150d-47f1-8acd-566dd05ab665">
      <path class="807c33b4-f041-4554-b751-27d55a9aed08" d="M159.6056,315.0914H121.79v3.1536a1.0546,1.0546,0,0,0,1.0509,1.0512h35.7139a1.0545,1.0545,0,0,0,1.0508-1.0512v-3.1536Z"/>
    </clipPath>
    <clipPath id="3859f7d0-ff27-4100-9c20-acb30137be3e">
      <path class="807c33b4-f041-4554-b751-27d55a9aed08" d="M123.8682,301.4322a1.0545,1.0545,0,0,0-1.0508,1.0512v1.05a1.0624,1.0624,0,0,0,.4637.8708,51.5659,51.5659,0,0,0-1.4847,10.6868h37.8088a3.97,3.97,0,0,0-2.86-3.9823l-12.45-2.767a7.53,7.53,0,0,1-4.8367-4.2414,1.0466,1.0466,0,0,0,.1695-0.567v-1.05a1.0549,1.0549,0,0,0-1.03-1.0512H123.8682Z"/>
    </clipPath>
    <clipPath id="0f7e7f41-e2a4-4b04-888d-05918cf6e9b8">
      <path class="807c33b4-f041-4554-b751-27d55a9aed08" d="M152.2529,310.11l-2.1017-.4679V310.89a1.0509,1.0509,0,1,0,2.1017,0v-0.78Zm-4.2672-.9481-2.05-.4557-0.4935,1.8406a1.05,1.05,0,1,0,2.03.5412Zm-4.2209-.9657a6.2159,6.2159,0,0,1-1.8427-.9929l-1.0807,1.8731a1.0454,1.0454,0,0,0,1.8129,1.0417Zm-3.0441-2.15a9.7863,9.7863,0,0,1-1.1837-1.7891l-1.6827,1.6846a1.0505,1.0505,0,0,0,1.4847,1.4866Z"/>
    </clipPath>
    <clipPath id="7e93160c-ef27-45e2-9a18-490b67e16222">
      <rect class="40421dda-8ec8-4d07-964f-177eb472c4bf" x="100.7797" y="132.2506" width="25.2108" height="14.7126"/>
    </clipPath>
    <clipPath id="94aabb8f-7ddf-40be-a3cd-a8221baba4a8">
      <rect class="40421dda-8ec8-4d07-964f-177eb472c4bf" x="100.7797" y="130.1483" width="25.2108" height="4.2034"/>
    </clipPath>
    <clipPath id="e600bdf7-ed49-48d5-87b6-c705f391f57c">
      <path class="807c33b4-f041-4554-b751-27d55a9aed08" d="M113.3838,132.25a6.3051,6.3051,0,1,1-6.3024,6.3044,6.304,6.304,0,0,1,6.3024-6.3044"/>
    </clipPath>
    <clipPath id="3ab4aff7-2c12-41a3-9a4b-669bd96ca53e">
      <path class="807c33b4-f041-4554-b751-27d55a9aed08" d="M113.3838,134.8777a3.6778,3.6778,0,1,1-3.6759,3.6771,3.6787,3.6787,0,0,1,3.6759-3.6771"/>
    </clipPath>
    <clipPath id="73e29c7b-ee77-48a2-95ae-b296c2bf9c0f">
      <rect class="40421dda-8ec8-4d07-964f-177eb472c4bf" x="122.8379" y="131.1994" width="2.1017" height="2.1011"/>
    </clipPath>
  </defs>
  <title>people</title>
  <g>
    <g class="c9f1d0b1-3d78-4922-b180-3db1cf4c95c9">
      <rect class="6413f1ce-5c69-4b0e-8399-b7615430433a" x="95.7797" y="74.7102" width="35.2108" height="39.4238"/>
    </g>
    <g class="42c92184-8530-4509-99b5-24a5bcc04235">
      <rect class="df11fde4-3fc5-4281-a7f3-4912b15ce352" x="83.1728" y="175.5881" width="60.4258" height="131.8957"/>
    </g>
    <g class="abde5e11-aac8-40fe-a852-29011f250372">
      <rect class="347d959f-f8fb-4065-822e-f3628937e50a" x="109.9099" y="197.3065" width="33.6881" height="110.1776"/>
    </g>
    <g class="39cf3e9c-e12c-4c9e-906a-0f37f485753b">
      <rect class="b7339a19-8c6d-41c9-8034-61e570ba699d" x="120.9908" y="175.5881" width="22.6075" height="22.6101"/>
    </g>
    <g class="0ac0b15d-9121-4f9e-86ac-6e1ce17b3767">
      <rect class="1edce349-e3a2-466c-a224-106a87e77ccd" x="70.5682" y="129.3521" width="22.6075" height="96.1675"/>
    </g>
    <g class="2a8fcc8d-2f5c-48ae-9c74-728ff45baa84">
      <rect class="1edce349-e3a2-466c-a224-106a87e77ccd" x="133.598" y="129.3521" width="22.6048" height="96.1675"/>
    </g>
    <g class="816a0c0d-0b06-4c3c-83da-f1564cdd4b08">
      <rect class="e192073e-9a96-4019-a6d2-292a9102a8e0" x="133.5974" y="129.3521" width="22.6047" height="73.0495"/>
    </g>
    <g class="ecb7ed5d-fc5f-4116-b840-b31c39fbbd53">
      <rect class="c3bf2362-2762-4309-a129-3205d6be3702" x="62.1649" y="310.0914" width="47.8156" height="14.2048"/>
    </g>
    <g class="6a1f2969-472d-4724-801e-4f7b550d1f00">
      <rect class="ed19e252-4783-44a0-8ccc-de46acc51838" x="62.1644" y="296.4322" width="47.8101" height="23.6587"/>
    </g>
    <g class="473e3486-cdec-407d-b900-ef97f152baef">
      <rect class="ed12ea41-b8d5-4165-8a34-0b23fa05cfe9" x="69.5178" y="299.2575" width="24.7057" height="17.6838"/>
    </g>
    <g class="3fa21039-f05b-4889-b740-af1658870412">
      <rect class="2844ae32-2e61-4e3d-a51d-02e963970cd7" x="70.5687" y="186.0968" width="16.3024" height="14.2034"/>
    </g>
    <g class="3a50a3fc-d4de-4de0-af85-7d1882e56d23">
      <rect class="cff21f93-e12d-414f-9852-72cb4bc5ab11" x="76.8698" y="186.0968" width="16.3023" height="14.2034"/>
    </g>
    <g class="c9f1d0b1-3d78-4922-b180-3db1cf4c95c9">
      <rect class="1edce349-e3a2-466c-a224-106a87e77ccd" x="95.7797" y="74.7102" width="35.2108" height="39.4238"/>
    </g>
    <g class="8d665ba5-ecd2-4744-8536-12e2d62b5050">
      <rect class="e192073e-9a96-4019-a6d2-292a9102a8e0" x="95.7797" y="74.7097" width="35.2109" height="39.4238"/>
    </g>
    <g class="b427b4a1-3cff-4871-a3d6-a7c2455b8abc">
      <rect class="cff21f93-e12d-414f-9852-72cb4bc5ab11" x="106.2852" y="19.8639" width="41.5132" height="68.8462"/>
    </g>
    <g class="bea9c53a-8472-43c5-83e4-c17df74a8e1f">
      <rect class="ed19e252-4783-44a0-8ccc-de46acc51838" x="70.5687" y="87.3195" width="85.6339" height="110.8787"/>
    </g>
    <g class="9577c8c3-39af-42c1-a524-5a5c98b69389">
      <rect class="ed12ea41-b8d5-4165-8a34-0b23fa05cfe9" x="95.7797" y="125.1483" width="47.8183" height="64.6427"/>
    </g>
    <g class="560414d4-6d41-46da-bf2b-5c4827484c9f">
      <rect class="2844ae32-2e61-4e3d-a51d-02e963970cd7" x="78.9727" y="19.8642" width="39.4142" height="68.8462"/>
    </g>
    <g class="3413d4e9-ef7e-40ba-a7c9-e034e8bec617">
      <rect class="ed12ea41-b8d5-4165-8a34-0b23fa05cfe9" x="99.4714" y="87.3187" width="56.7308" height="53.0539"/>
    </g>
    <g class="8d827a45-ba85-4cbd-810d-77761b0126e2">
      <rect class="74f59de0-4ac4-4350-98ac-8da0bfe0fb13" x="93.6783" y="87.3196" width="39.4142" height="52.0326"/>
    </g>
    <g class="049cf978-2f6d-471c-a0b9-98a790047eeb">
      <rect class="cff21f93-e12d-414f-9852-72cb4bc5ab11" x="120.9908" y="87.3192" width="12.1017" height="42.5448"/>
    </g>
    <g class="2d9e502e-b5fc-4067-85a0-ef91a4a58038">
      <rect class="1edce349-e3a2-466c-a224-106a87e77ccd" x="125.1938" y="49.4904" width="18.4041" height="18.4068"/>
    </g>
    <g class="03d8828f-e054-4c84-ab9c-dbba0753d67c">
      <rect class="e192073e-9a96-4019-a6d2-292a9102a8e0" x="127.2955" y="51.5918" width="14.2007" height="14.2034"/>
    </g>
    <g class="46114a41-6758-4a56-923e-fc13806642fd">
      <rect class="1edce349-e3a2-466c-a224-106a87e77ccd" x="83.1755" y="49.4904" width="18.4041" height="18.4068"/>
    </g>
    <g class="1fcdfe8f-5ae5-443c-9f51-8b39702343d2">
      <rect class="e192073e-9a96-4019-a6d2-292a9102a8e0" x="85.2745" y="51.5918" width="14.2034" height="14.2034"/>
    </g>
    <g class="c4b94b45-b4b9-4b6b-81f4-1c09a2aaf6f8">
      <rect class="1edce349-e3a2-466c-a224-106a87e77ccd" x="87.3765" y="31.9914" width="52.0176" height="65.3278"/>
    </g>
    <g class="c04311ee-d7a7-46e0-a334-7c8d39126f85">
      <rect class="cff21f93-e12d-414f-9852-72cb4bc5ab11" x="99.9802" y="66.3029" width="26.8109" height="18.4068"/>
    </g>
    <g class="8b1ce33b-bab1-4635-a25f-d529cc661073">
      <rect class="a17200af-90cc-4317-a472-d9f80bd907b2" x="104.3165" y="72.6087" width="18.1382" height="12.101"/>
    </g>
    <g class="019fdb35-ee09-47f7-8f6d-c38f796cf389">
      <rect class="c3bf2362-2762-4309-a129-3205d6be3702" x="93.678" y="49.4904" width="18.4041" height="18.4068"/>
    </g>
    <g class="0a5ba540-ade4-48cf-a043-863b43bf5052">
      <rect class="c3bf2362-2762-4309-a129-3205d6be3702" x="102.0814" y="66.3032" width="22.6075" height="12.101"/>
    </g>
    <g class="106e0b28-8d4c-428c-bd75-ecc43272957d">
      <rect class="c3bf2362-2762-4309-a129-3205d6be3702" x="114.6886" y="49.4904" width="18.4041" height="18.4068"/>
    </g>
    <g class="47044423-e5a3-4d91-a421-983ce29f00eb">
      <rect class="cff21f93-e12d-414f-9852-72cb4bc5ab11" x="95.7797" y="51.5918" width="14.2007" height="14.2034"/>
    </g>
    <g class="784cd0ba-1510-49a7-a127-96aeb8f27245">
      <rect class="cff21f93-e12d-414f-9852-72cb4bc5ab11" x="116.7903" y="51.5918" width="14.2007" height="14.2034"/>
    </g>
    <g class="8247cd04-95de-4d20-980c-6ab16eef5f17">
      <rect class="c3bf2362-2762-4309-a129-3205d6be3702" x="94.7289" y="52.6423" width="12.1017" height="12.1011"/>
    </g>
    <g class="ea40c2c3-f261-408b-8284-cacf2aa2f78b">
      <rect class="c3bf2362-2762-4309-a129-3205d6be3702" x="115.7396" y="52.6432" width="12.1017" height="12.101"/>
    </g>
    <g class="2bbce13f-ffc5-4a5a-b73a-7b6d4fad8705">
      <rect class="cff21f93-e12d-414f-9852-72cb4bc5ab11" x="92.1373" y="45.2869" width="21.4881" height="14.1987"/>
    </g>
    <g class="dd3d08b4-cc01-4548-9dfe-fee973a382ba">
      <rect class="cff21f93-e12d-414f-9852-72cb4bc5ab11" x="113.1464" y="44.2355" width="21.4868" height="14.1995"/>
    </g>
    <g class="60ccf69c-768c-400f-b8ea-0b4ae8d1e111">
      <rect class="cff21f93-e12d-414f-9852-72cb4bc5ab11" x="106.2855" y="35.8296" width="34.16" height="62.5404"/>
    </g>
    <g class="1f717cdf-1fc1-42a8-815d-9fd66d85e06c">
      <rect class="2844ae32-2e61-4e3d-a51d-02e963970cd7" x="86.3259" y="35.83" width="32.061" height="62.5404"/>
    </g>
    <g class="13139e5f-daca-4993-88a6-1cb2d3bbdfd4">
      <rect class="347d959f-f8fb-4065-822e-f3628937e50a" x="107.5431" y="48.4399" width="33.9526" height="20.5078"/>
    </g>
    <g class="63cb9d73-8bad-46c3-9c13-d86ed2d3126d">
      <rect class="df11fde4-3fc5-4281-a7f3-4912b15ce352" x="85.275" y="48.4398" width="33.1092" height="20.5078"/>
    </g>
    <g class="3341967c-456c-4921-8f87-672973821480">
      <rect class="e192073e-9a96-4019-a6d2-292a9102a8e0" x="101.0308" y="52.6463" width="24.6997" height="20.5051"/>
    </g>
    <g class="1b2c07e6-9323-4889-b124-18e877e9cf7d">
      <rect class="2844ae32-2e61-4e3d-a51d-02e963970cd7" x="72.6673" y="183.9946" width="18.4068" height="18.4068"/>
    </g>
    <g class="5fe9f093-67d8-49c3-aee1-be7c0d0bb7a2">
      <rect class="c3bf2362-2762-4309-a129-3205d6be3702" x="74.7695" y="186.0968" width="14.2034" height="14.2034"/>
    </g>
    <g class="47feaefa-2507-4186-9950-62276320388a">
      <rect class="347d959f-f8fb-4065-822e-f3628937e50a" x="83.1725" y="192.401" width="60.4258" height="18.4067"/>
    </g>
    <g class="149a9f1b-2bdd-422b-8f4e-0c6fb833e113">
      <rect class="25ac0782-749b-46b6-8e39-d90898c9b012" x="116.79" y="310.0914" width="47.8156" height="14.2048"/>
    </g>
    <g class="19386ec2-3c44-4854-a5d8-27465f9fb63f">
      <rect class="ed12ea41-b8d5-4165-8a34-0b23fa05cfe9" x="116.7963" y="296.4322" width="47.8088" height="23.6587"/>
    </g>
    <g class="db371f1a-99fa-45c7-86fc-e37855f30a7e">
      <rect class="ed19e252-4783-44a0-8ccc-de46acc51838" x="132.547" y="299.2575" width="24.7058" height="17.6838"/>
    </g>
    <g class="3bc8d73d-11ac-4801-9f8d-89e49d2e1fa9">
      <rect class="74f59de0-4ac4-4350-98ac-8da0bfe0fb13" x="95.7797" y="127.2506" width="35.2108" height="24.7126"/>
    </g>
    <g class="ca16e78f-8a5c-4b2c-9005-0842e378a3ad">
      <rect class="c3bf2362-2762-4309-a129-3205d6be3702" x="95.7797" y="125.1483" width="35.2108" height="14.2034"/>
    </g>
    <g class="35bf68ed-9fa2-47e3-92d6-a4da0bb3c675">
      <rect class="b7f17449-b855-47d9-8c06-d4d69718046b" x="102.0814" y="127.2505" width="22.6075" height="22.6102"/>
    </g>
    <g class="21af7b7d-acf1-4520-b3c3-bb722d55caa7">
      <rect class="cff21f93-e12d-414f-9852-72cb4bc5ab11" x="104.7079" y="129.8777" width="17.3559" height="17.3556"/>
    </g>
    <g class="cc07c2f5-b011-4653-b9e2-039cf4821a66">
      <rect class="cff21f93-e12d-414f-9852-72cb4bc5ab11" x="117.8379" y="126.1994" width="12.1017" height="12.1011"/>
    </g>
  </g>
</svg>
