<svg id="e0d552ab-afa4-4ea9-845d-8ca35064de15" data-name="Layer 1" xmlns="http://www.w3.org/2000/svg" xmlns:xlink="http://www.w3.org/1999/xlink" viewBox="0 0 226.77 340.16">
  <defs>
    <style>
      .\35 42a18ae-8ba4-4c30-8084-b1fb688f5ef6, .\39 038d6ef-3ac7-4520-b94b-8e48b6ca269d {
        fill: none;
      }

      .\35 42a18ae-8ba4-4c30-8084-b1fb688f5ef6 {
        clip-rule: evenodd;
      }

      .afa1a341-6342-4e7d-a1ec-051ed5a9f353 {
        clip-path: url(#79bd84ab-36b7-407e-b60a-7e811a599b21);
      }

      .\38 7a8a6fa-726b-448e-876e-836d7ec6fdd7 {
        fill: #424f55;
      }

      .c2e53f86-f000-40ab-8be8-7f45de36b137 {
        clip-path: url(#838428fc-1446-465b-91a9-a78dc8e42e35);
      }

      .\35 e90eff4-a666-4c6e-bb0c-89ce6bc016ee {
        fill: #222c30;
      }

      .\32 2675fb6-3eae-4c7d-b653-acbdfb6f1718 {
        clip-path: url(#95883c6d-7406-4d0e-8c1e-ee789dde1710);
      }

      .\31 1e07a2e-91c1-47d7-9ba6-8e9e036a08ad {
        fill: #fff;
      }

      .ed89486c-e01e-4cc7-a0e3-40471cddcd15 {
        clip-path: url(#8dff502a-29d9-4c68-ba61-17ad1b63da18);
      }

      .f24e1278-1a94-4071-8532-f2b27b158e11 {
        fill: #a4c4e7;
      }

      .\33 1c6166b-90e3-4af3-adb3-c4b3a52db149 {
        clip-path: url(#360ee40d-7b02-45fb-a486-198172ee5656);
      }

      .\30 b0d3653-28d4-4b42-87f3-56f4a92e0c96 {
        fill: #e5e5e4;
      }

      .e5829d37-f199-4967-ac50-e15d1707fecf {
        clip-path: url(#60d57ec5-70f1-4825-ae69-7edeaf5d7c2d);
      }

      .\36 8c3815e-0f95-4af0-af2c-19d49e565368 {
        fill: #789bc7;
      }

      .\30 7e375bd-fa9c-48a6-9d22-8fbd6148076a {
        clip-path: url(#c6686cc2-52f4-4741-b571-1e377a2c639c);
      }

      .a8a9e442-67f4-426d-ad99-28a221f697ef {
        clip-path: url(#e11b7cc2-a080-426a-943d-0d308aed6f33);
      }

      .\34 0ee0f10-1de4-4ac9-8dbc-fc5f9c466afc {
        clip-path: url(#7ab36add-7a85-4497-87d1-c94ab9173f8f);
      }

      .d161026c-3526-4041-8855-3d9b016e99e4 {
        fill: #fadabd;
      }

      .\30 de117f2-7279-4523-be1f-52e878a5ab74 {
        clip-path: url(#22ca57fe-11a4-4796-a405-3878c45210a6);
      }

      .f0258a39-4a19-470f-bb4f-cb9205b145e7 {
        fill: #ebb988;
      }

      .\34 af5aa1f-9cd3-4a2d-b507-e4a377f978fe {
        clip-path: url(#bcb6e806-c203-4bbd-8952-17f7a309149e);
      }

      .\37 4b4ac36-344d-4fc9-a402-42c0a287f714 {
        clip-path: url(#b2eb6290-5f02-49af-9346-c9fb8ee1d3c2);
      }

      .\33 8a0757c-7e85-458e-a02c-67ee48c6bae3 {
        fill: #ac7b4c;
      }

      .\33 7751d29-b260-4d75-99a0-804eb3716bc1 {
        clip-path: url(#fbbb9a25-01e3-46f4-9f6b-a2d6ced2f378);
      }

      .\35 6398b1b-ea7e-4bbb-adbb-f21b23db5f8a {
        clip-path: url(#84aa5253-f292-497c-81f1-fac30077944b);
      }

      .a82c5d8f-5494-4668-9cb3-1d997e2d6e94 {
        clip-path: url(#dfd1a1e3-812c-4a4c-9978-199d3be28d9e);
      }

      .eaebfc8e-5111-48fc-b465-b2c30095ae73 {
        clip-path: url(#1b6ed0c6-708f-4175-9d60-b7e1ffd08a50);
      }

      .\34 8bbf12d-e61d-48e0-854f-570ba93f1d35 {
        clip-path: url(#b4385df4-6474-4bb6-97bd-662b9fd024da);
      }

      .\35 894c1b0-bd2c-4fa1-bc99-eb193fe7a818 {
        clip-path: url(#ff33c03c-4108-4bb6-a407-3622b24ee998);
      }

      .\36 d3a6ac5-7d9e-4d89-8a3a-6224a4ddab25 {
        fill: #dd314e;
      }

      .d799f3a6-0155-4efc-aa79-2e95170f8f4f {
        clip-path: url(#65488b0a-c0d5-4c4a-b9f0-c424049e06c3);
      }

      .\39 5d4e46b-fa06-4683-afba-f5ed203b09df {
        clip-path: url(#66ef97cb-867d-4a3e-baa3-a84486282d7a);
      }

      .\32 9b8c6a2-ed22-42bc-9ef7-18c5ab671896 {
        fill: #971b1e;
      }

      .c4ce9729-607a-4f55-b5c7-a15d07509f84 {
        clip-path: url(#c656e96f-7314-4e10-88db-c383b330ac16);
      }

      .\32 ca84ca3-e7fb-41a7-99d1-808b88ff5fab {
        clip-path: url(#8b8ae94d-d5c8-4872-9bf6-f3cb33066c52);
      }

      .\39 a0796e5-8df9-43fc-b0c5-c5414d15cca6 {
        clip-path: url(#6322a994-7ba4-438d-a4e5-81ab0a47fa89);
      }

      .c5382b80-0a0e-434d-84ea-d70cf3f8f9a8 {
        fill: #b82025;
      }

      .fe824674-7d07-409b-a985-aec89ff10c64 {
        clip-path: url(#4d7f30a5-f61c-4fcb-b053-6de8acc5570d);
      }

      .\30 4897a8f-e60c-4b9c-83cd-9fe70d25d3b7 {
        clip-path: url(#67e8df66-62d1-4954-91cd-058e1d1e53e1);
      }

      .\33 09451be-c292-4ed8-b1de-a072fcc5e927 {
        clip-path: url(#cec8bded-aeb4-4d6e-9215-5d1ad339ac2b);
      }

      .ab1142fe-de1b-4797-8572-ca8ae1db4185 {
        clip-path: url(#2d0e0e9a-38f9-40bb-976c-1f701b6d4816);
      }

      .c2adb902-bc8d-4b6f-a53f-efeb871a4ecb {
        clip-path: url(#31f736bd-4f4d-4a0a-aa8d-4572259d6d30);
      }

      .\36 f0016c8-13af-4854-85b7-1fbe9598ccf7 {
        clip-path: url(#5ca98673-c607-428b-82b1-550a10777278);
      }

      .f298fa59-f54f-4356-b1d9-7fd7973d8ad3 {
        clip-path: url(#6be88c31-5e8f-4f4c-b187-ee03b46784f1);
      }

      .\38 bfddfea-9b0f-499f-bc59-adf66fe7bc01 {
        clip-path: url(#6b77c45b-51fa-469d-b8d6-12acb8864495);
      }

      .\30 a182056-aeb0-4eb9-81c6-d6453cca399e {
        clip-path: url(#08a564d6-8d48-483f-ac6f-b6449f5e5f44);
      }

      .b241fed3-e4d5-441e-a45d-f6014b8b131d {
        clip-path: url(#222e0c36-8a1f-4509-85d4-fbbf3482d302);
      }

      .eb03db4e-d8b1-4e88-abf2-6152575042f4 {
        clip-path: url(#3bf0ac1c-3f11-4817-ac35-70c33c25bfe3);
      }

      .ff697e8a-c71b-4657-bf94-2b9719c24b24 {
        clip-path: url(#21851596-63bf-4f57-8046-cfa1a6a65e7d);
      }

      .b2b684e6-696e-43fa-b383-5c2622b4911c {
        clip-path: url(#1e703272-aaf1-4522-a523-bfaea121dba0);
      }
    </style>
    <clipPath id="79bd84ab-36b7-407e-b60a-7e811a599b21">
      <path class="542a18ae-8ba4-4c30-8084-b1fb688f5ef6" d="M135.5553,224.91l-16.918.1194-5.2542-21.4239a2.1,2.1,0,1,0-4.2007,0V312.89H98.678l-2.1017-4.2034a2.0109,2.0109,0,0,0,2.1017-2.1024L82.17,190.9885a29.7706,29.7706,0,0,1-.2983-4.198c0-5.4051,1.7722-10.2108,4.1383-14.71h50.5478c2.3661,4.499,4.14,9.3047,4.14,14.71a29.7391,29.7391,0,0,1-.3,4.198Z"/>
    </clipPath>
    <clipPath id="838428fc-1446-465b-91a9-a78dc8e42e35">
      <path class="542a18ae-8ba4-4c30-8084-b1fb688f5ef6" d="M135.5553,224.91l-11.6665,81.6753a2.0107,2.0107,0,0,0,2.1017,2.101l-2.1017,4.2034H113.3832V203.6054a2.1108,2.1108,0,0,0-.6143-1.4865Z"/>
    </clipPath>
    <clipPath id="95883c6d-7406-4d0e-8c1e-ee789dde1710">
      <path class="542a18ae-8ba4-4c30-8084-b1fb688f5ef6" d="M111.2837,314.9906H79.77v2.1024a2.1057,2.1057,0,0,0,2.099,2.101h27.3139a2.1068,2.1068,0,0,0,2.1-2.101v-2.1024Z"/>
    </clipPath>
    <clipPath id="8dff502a-29d9-4c68-ba61-17ad1b63da18">
      <path class="542a18ae-8ba4-4c30-8084-b1fb688f5ef6" d="M79.77,314.9906a4.2058,4.2058,0,0,1,3.105-4.0583l14.58-4.0121a7.3523,7.3523,0,0,0,11.5932,1.7918,0.8429,0.8429,0,0,1,1.3925.3676,21.047,21.047,0,0,1,.8421,5.9111H79.77Z"/>
    </clipPath>
    <clipPath id="360ee40d-7b02-45fb-a486-198172ee5656">
      <path class="542a18ae-8ba4-4c30-8084-b1fb688f5ef6" d="M111.2837,314.9906h31.5145v2.1024a2.107,2.107,0,0,1-2.1017,2.101H113.3854a2.1079,2.1079,0,0,1-2.1017-2.101v-2.1024Z"/>
    </clipPath>
    <clipPath id="60d57ec5-70f1-4825-ae69-7edeaf5d7c2d">
      <path class="542a18ae-8ba4-4c30-8084-b1fb688f5ef6" d="M142.7981,314.9906a4.2058,4.2058,0,0,0-3.105-4.0583L125.1115,306.92a7.351,7.351,0,0,1-11.5919,1.7918,0.8429,0.8429,0,0,0-1.3925.3676,21.0475,21.0475,0,0,0-.8434,5.9111h31.5145Z"/>
    </clipPath>
    <clipPath id="c6686cc2-52f4-4741-b571-1e377a2c639c">
      <path class="542a18ae-8ba4-4c30-8084-b1fb688f5ef6" d="M86.0727,102.1178V50.185a25.2115,25.2115,0,1,1,50.423,0v51.9328H86.0727Z"/>
    </clipPath>
    <clipPath id="e11b7cc2-a080-426a-943d-0d308aed6f33">
      <path class="542a18ae-8ba4-4c30-8084-b1fb688f5ef6" d="M111.2837,24.9662h0a25.2164,25.2164,0,0,1,25.2122,25.219v51.9327H111.2837V24.9662Z"/>
    </clipPath>
    <clipPath id="7ab36add-7a85-4497-87d1-c94ab9173f8f">
      <path class="542a18ae-8ba4-4c30-8084-b1fb688f5ef6" d="M100.7791,79.6094h21.01V96.4216l10.5044,2.3343,3.1471,0.7a25.2248,25.2248,0,0,1-24.1491,17.9814h-0.015A25.2248,25.2248,0,0,1,87.1276,99.4558l4.1166-.9142,9.5349-2.12V79.6094Z"/>
    </clipPath>
    <clipPath id="22ca57fe-11a4-4796-a405-3878c45210a6">
      <path class="542a18ae-8ba4-4c30-8084-b1fb688f5ef6" d="M121.7891,83.9617v12.461l13.6515,3.0328a25.2671,25.2671,0,0,1-9.9376,13.5895L100.779,88.3143V83.9617h21.01Z"/>
    </clipPath>
    <clipPath id="bcb6e806-c203-4bbd-8952-17f7a309149e">
      <path class="542a18ae-8ba4-4c30-8084-b1fb688f5ef6" d="M132.2936,54.3886a4.2034,4.2034,0,1,0,4.202,4.2034,4.2036,4.2036,0,0,0-4.202-4.2034"/>
    </clipPath>
    <clipPath id="b2eb6290-5f02-49af-9346-c9fb8ee1d3c2">
      <path class="542a18ae-8ba4-4c30-8084-b1fb688f5ef6" d="M132.2936,56.49a2.1024,2.1024,0,1,0,2.1,2.1023,2.1026,2.1026,0,0,0-2.1-2.1023"/>
    </clipPath>
    <clipPath id="fbbb9a25-01e3-46f4-9f6b-a2d6ced2f378">
      <path class="542a18ae-8ba4-4c30-8084-b1fb688f5ef6" d="M90.2744,54.3886a4.2034,4.2034,0,1,0,4.2021,4.2034,4.2028,4.2028,0,0,0-4.2021-4.2034"/>
    </clipPath>
    <clipPath id="84aa5253-f292-497c-81f1-fac30077944b">
      <path class="542a18ae-8ba4-4c30-8084-b1fb688f5ef6" d="M90.2744,56.49a2.1024,2.1024,0,1,0,2.1,2.1023,2.1026,2.1026,0,0,0-2.1-2.1023"/>
    </clipPath>
    <clipPath id="dfd1a1e3-812c-4a4c-9978-199d3be28d9e">
      <path class="542a18ae-8ba4-4c30-8084-b1fb688f5ef6" d="M132.2936,50.1853V69.1a21.0095,21.0095,0,1,1-42.019,0V50.1853h42.019Z"/>
    </clipPath>
    <clipPath id="1b6ed0c6-708f-4175-9d60-b7e1ffd08a50">
      <path class="542a18ae-8ba4-4c30-8084-b1fb688f5ef6" d="M132.2936,50.1853V69.1a20.9879,20.9879,0,0,1-7.26,15.856L90.2746,50.1853h42.019Z"/>
    </clipPath>
    <clipPath id="b4385df4-6474-4bb6-97bd-662b9fd024da">
      <path class="542a18ae-8ba4-4c30-8084-b1fb688f5ef6" d="M115.3547,78.5582a8.4051,8.4051,0,0,0,4.3336-7.357H102.88a8.405,8.405,0,0,0,4.3336,7.357h8.141Z"/>
    </clipPath>
    <clipPath id="ff33c03c-4108-4bb6-a407-3622b24ee998">
      <path class="542a18ae-8ba4-4c30-8084-b1fb688f5ef6" d="M111.2837,79.6094a8.3685,8.3685,0,0,0,4.07-1.0512,8.4066,8.4066,0,0,0-8.141,0,8.372,8.372,0,0,0,4.07,1.0512"/>
    </clipPath>
    <clipPath id="65488b0a-c0d5-4c4a-b9f0-c424049e06c3">
      <path class="542a18ae-8ba4-4c30-8084-b1fb688f5ef6" d="M117.5873,71.2013a2.11,2.11,0,0,1-2.1017,2.1024h-8.4041a2.1087,2.1087,0,0,1-2.1-2.1024h12.6061Z"/>
    </clipPath>
    <clipPath id="66ef97cb-867d-4a3e-baa3-a84486282d7a">
      <path class="542a18ae-8ba4-4c30-8084-b1fb688f5ef6" d="M119.6877,55.44a3.1631,3.1631,0,0,0-3.1512,3.1522,5.7776,5.7776,0,1,0,11.5553,0V55.44h-8.4041Zm-8.404,0-1.0495-1.0512,1.0495-1.0511a5.24,5.24,0,0,1,4.2047,2.1064,5.2446,5.2446,0,0,1,4.1993-2.1024h13.6556a1.0472,1.0472,0,1,1,0,2.0943h-3.15v3.1562a7.8787,7.8787,0,1,1-15.7573,0A3.152,3.152,0,0,0,111.2837,55.44Z"/>
    </clipPath>
    <clipPath id="c656e96f-7314-4e10-88db-c383b330ac16">
      <path class="542a18ae-8ba4-4c30-8084-b1fb688f5ef6" d="M96.7293,59.9683A1.0482,1.0482,0,0,1,95.5727,58.22a7.3382,7.3382,0,0,1,8.1261,0,1.0485,1.0485,0,1,1-1.1579,1.7484,5.27,5.27,0,0,0-5.8115,0"/>
    </clipPath>
    <clipPath id="8b8ae94d-d5c8-4872-9bf6-f3cb33066c52">
      <path class="542a18ae-8ba4-4c30-8084-b1fb688f5ef6" d="M120.0277,59.9683A1.0486,1.0486,0,1,1,118.87,58.22a7.3382,7.3382,0,0,1,8.1261,0,1.0482,1.0482,0,0,1-1.1566,1.7484,5.27,5.27,0,0,0-5.8115,0"/>
    </clipPath>
    <clipPath id="6322a994-7ba4-438d-a4e5-81ab0a47fa89">
      <path class="542a18ae-8ba4-4c30-8084-b1fb688f5ef6" d="M133.3837,98.9988l7.3139,1.625c2.259,0.5032,4.2021,2.1037,4.2021,6.3057v23.118H132.2936v-8.027a56.61,56.61,0,0,0-4.2021,20.6372,50.6381,50.6381,0,0,0,7.2149,27.1546c3.0373,5.279,5.39,10.7424,5.39,16.9777a29.568,29.568,0,0,1-.3,4.1993l-0.9,6.31H83.07l-0.9-6.31a29.5826,29.5826,0,0,1-.3-4.1993c0-6.219,2.3675-11.7218,5.3912-16.9777a50.65,50.65,0,0,0,7.2149-27.1546,56.6121,56.6121,0,0,0-4.202-20.6372v8.027H77.6685V106.93c0-4.2034,1.9444-5.8025,4.202-6.3057l7.3139-1.625a23.1158,23.1158,0,0,0,44.1993,0"/>
    </clipPath>
    <clipPath id="4d7f30a5-f61c-4fcb-b053-6de8acc5570d">
      <path class="542a18ae-8ba4-4c30-8084-b1fb688f5ef6" d="M135.3068,169.812a51.2,51.2,0,0,1,3.2638,6.596L94.1231,131.9448l-0.01-.08a10.5028,10.5028,0,0,0,14.17-.7691,4.2,4.2,0,0,1,6.0014,0,10.5018,10.5018,0,0,0,14.2779.6782,3.2869,3.2869,0,0,1,.8651-0.5629,52.38,52.38,0,0,0-1.3369,11.4464,50.6382,50.6382,0,0,0,7.2162,27.1546"/>
    </clipPath>
    <clipPath id="67e8df66-62d1-4954-91cd-058e1d1e53e1">
      <rect class="9038d6ef-3ac7-4520-b94b-8e48b6ca269d" x="123.8895" y="167.877" width="25.2122" height="50.4394"/>
    </clipPath>
    <clipPath id="cec8bded-aeb4-4d6e-9215-5d1ad339ac2b">
      <polygon class="542a18ae-8ba4-4c30-8084-b1fb688f5ef6" points="142.362 218.317 132.601 208.552 136.25 180.241 128.091 172.079 132.293 167.877 149.101 167.877 149.101 218.317 142.362 218.317"/>
    </clipPath>
    <clipPath id="2d0e0e9a-38f9-40bb-976c-1f701b6d4816">
      <path class="542a18ae-8ba4-4c30-8084-b1fb688f5ef6" d="M133.3837,98.9988l7.3139,1.625c2.259,0.5032,4.2021,2.1037,4.2021,6.3057v23.118h-2.4l-10.2061-10.2107-8.3038-8.3051a23.1775,23.1775,0,0,0,9.3939-12.5329"/>
    </clipPath>
    <clipPath id="31f736bd-4f4d-4a0a-aa8d-4572259d6d30">
      <path class="542a18ae-8ba4-4c30-8084-b1fb688f5ef6" d="M111.2842,55.44a3.1509,3.1509,0,0,0-3.1512,3.1522,7.8787,7.8787,0,1,1-15.7573,0V55.4356H89.2232a1.0472,1.0472,0,0,1,0-2.0943H102.88a5.2456,5.2456,0,0,1,4.1994,2.101,5.2421,5.2421,0,0,1,4.2047-2.105V55.44Zm-8.4041,0H94.476v3.1522a5.7776,5.7776,0,1,0,11.5552,0A3.1631,3.1631,0,0,0,102.88,55.44Z"/>
    </clipPath>
    <clipPath id="5ca98673-c607-428b-82b1-550a10777278">
      <path class="542a18ae-8ba4-4c30-8084-b1fb688f5ef6" d="M110.2374,58.5918a1.0461,1.0461,0,1,1,2.0922,0v4.2034a1.0508,1.0508,0,0,1-1.0454,1.0512h-2.1017a1.0526,1.0526,0,0,0,0,2.1051h2.1017a1.0471,1.0471,0,0,1,0,2.0942l-2.1017.0041a3.1529,3.1529,0,0,1,0-6.3058h1.0549V58.5918Z"/>
    </clipPath>
    <clipPath id="6be88c31-5e8f-4f4c-b187-ee03b46784f1">
      <path class="542a18ae-8ba4-4c30-8084-b1fb688f5ef6" d="M132.2936,207.808a1.05,1.05,0,1,0,2.1,0v-4.2034a1.0508,1.0508,0,1,1,2.1017,0V209.91a1.05,1.05,0,0,0,2.1.0122V210.96a1.0509,1.0509,0,1,0,2.1017,0v-1.05a1.05,1.05,0,0,0,2.1,0v-3.1536a1.0508,1.0508,0,1,0,2.1017,0v-76.71H132.9974l1.3966,16.8135v42.0313l-0.7688,1.5408a12.0636,12.0636,0,0,0-1.3315,5.64V207.808Z"/>
    </clipPath>
    <clipPath id="6b77c45b-51fa-469d-b8d6-12acb8864495">
      <path class="542a18ae-8ba4-4c30-8084-b1fb688f5ef6" d="M90.2744,207.808a1.05,1.05,0,1,1-2.1,0v-4.2034a1.0508,1.0508,0,1,0-2.1017,0V209.91a1.0509,1.0509,0,0,1-2.1017.0122V210.96a1.05,1.05,0,1,1-2.1,0v-1.05a1.05,1.05,0,0,1-2.1,0v-3.1536a1.0508,1.0508,0,1,1-2.1017,0v-76.71H89.5707l-1.398,16.8135v42.0313l0.77,1.5408a12.0636,12.0636,0,0,1,1.3315,5.64V207.808Z"/>
    </clipPath>
    <clipPath id="08a564d6-8d48-483f-ac6f-b6449f5e5f44">
      <rect class="9038d6ef-3ac7-4520-b94b-8e48b6ca269d" x="77.6686" y="184.6892" width="6.3024" height="4.2034"/>
    </clipPath>
    <clipPath id="222e0c36-8a1f-4509-85d4-fbbf3482d302">
      <rect class="9038d6ef-3ac7-4520-b94b-8e48b6ca269d" x="83.971" y="184.6892" width="4.202" height="4.2034"/>
    </clipPath>
    <clipPath id="3bf0ac1c-3f11-4817-ac35-70c33c25bfe3">
      <path class="542a18ae-8ba4-4c30-8084-b1fb688f5ef6" d="M82.9209,182.5886a4.2034,4.2034,0,1,1-4.202,4.202,4.2025,4.2025,0,0,1,4.202-4.202"/>
    </clipPath>
    <clipPath id="21851596-63bf-4f57-8046-cfa1a6a65e7d">
      <path class="542a18ae-8ba4-4c30-8084-b1fb688f5ef6" d="M82.9209,184.69a2.1017,2.1017,0,1,1-2.1,2.101,2.1007,2.1007,0,0,1,2.1-2.101"/>
    </clipPath>
    <clipPath id="1e703272-aaf1-4522-a523-bfaea121dba0">
      <polygon class="542a18ae-8ba4-4c30-8084-b1fb688f5ef6" points="128.091 97.823 132.293 98.756 132.293 172.08 128.091 172.08 128.091 97.823"/>
    </clipPath>
  </defs>
  <title>people</title>
  <g>
    <g class="afa1a341-6342-4e7d-a1ec-051ed5a9f353">
      <rect class="87a8a6fa-726b-448e-876e-836d7ec6fdd7" x="76.8713" y="167.0807" width="68.8258" height="150.809"/>
    </g>
    <g class="c2e53f86-f000-40ab-8be8-7f45de36b137">
      <rect class="5e90eff4-a666-4c6e-bb0c-89ce6bc016ee" x="107.7689" y="197.1189" width="32.7865" height="120.7708"/>
    </g>
    <g class="22675fb6-3eae-4c7d-b653-acbdfb6f1718">
      <rect class="11e07a2e-91c1-47d7-9ba6-8e9e036a08ad" x="74.7704" y="309.9906" width="41.5133" height="14.2034"/>
    </g>
    <g class="ed89486c-e01e-4cc7-a0e3-40471cddcd15">
      <rect class="f24e1278-1a94-4071-8532-f2b27b158e11" x="74.7698" y="301.9202" width="41.5132" height="18.0704"/>
    </g>
    <g class="31c6166b-90e3-4af3-adb3-c4b3a52db149">
      <rect class="0b0d3653-28d4-4b42-87f3-56f4a92e0c96" x="106.2837" y="309.9906" width="41.5145" height="14.2034"/>
    </g>
    <g class="e5829d37-f199-4967-ac50-e15d1707fecf">
      <rect class="68c3815e-0f95-4af0-af2c-19d49e565368" x="106.2837" y="301.9202" width="41.5145" height="18.0704"/>
    </g>
    <g class="07e375bd-fa9c-48a6-9d22-8fbd6148076a">
      <rect class="87a8a6fa-726b-448e-876e-836d7ec6fdd7" x="81.0727" y="19.966" width="60.423" height="87.1518"/>
    </g>
    <g class="a8a9e442-67f4-426d-ad99-28a221f697ef">
      <rect class="5e90eff4-a666-4c6e-bb0c-89ce6bc016ee" x="106.2837" y="19.9662" width="35.2122" height="87.1517"/>
    </g>
    <g class="40ee0f10-1de4-4ac9-8dbc-fc5f9c466afc">
      <rect class="d161026c-3526-4041-8855-3d9b016e99e4" x="82.1276" y="74.6094" width="58.3132" height="47.8278"/>
    </g>
    <g class="0de117f2-7279-4523-be1f-52e878a5ab74">
      <rect class="f0258a39-4a19-470f-bb4f-cb9205b145e7" x="95.779" y="78.9617" width="44.6617" height="39.0833"/>
    </g>
    <g class="4af5aa1f-9cd3-4a2d-b507-e4a377f978fe">
      <rect class="f0258a39-4a19-470f-bb4f-cb9205b145e7" x="123.0916" y="49.3886" width="18.404" height="18.4068"/>
    </g>
    <g class="74b4ac36-344d-4fc9-a402-42c0a287f714">
      <rect class="38a0757c-7e85-458e-a02c-67ee48c6bae3" x="125.1933" y="51.4895" width="14.2006" height="14.2047"/>
    </g>
    <g class="37751d29-b260-4d75-99a0-804eb3716bc1">
      <rect class="d161026c-3526-4041-8855-3d9b016e99e4" x="81.0724" y="49.3886" width="18.4041" height="18.4068"/>
    </g>
    <g class="56398b1b-ea7e-4bbb-adbb-f21b23db5f8a">
      <rect class="38a0757c-7e85-458e-a02c-67ee48c6bae3" x="83.1741" y="51.4895" width="14.2007" height="14.2047"/>
    </g>
    <g class="a82c5d8f-5494-4668-9cb3-1d997e2d6e94">
      <rect class="d161026c-3526-4041-8855-3d9b016e99e4" x="85.2746" y="45.1853" width="52.019" height="49.9316"/>
    </g>
    <g class="eaebfc8e-5111-48fc-b465-b2c30095ae73">
      <rect class="f0258a39-4a19-470f-bb4f-cb9205b145e7" x="85.2746" y="45.1853" width="52.019" height="44.7706"/>
    </g>
    <g class="48bbf12d-e61d-48e0-854f-570ba93f1d35">
      <rect class="5e90eff4-a666-4c6e-bb0c-89ce6bc016ee" x="97.8801" y="66.2012" width="26.8082" height="17.357"/>
    </g>
    <g class="5894c1b0-bd2c-4fa1-bc99-eb193fe7a818">
      <rect class="6d3a6ac5-7d9e-4d89-8a3a-6224a4ddab25" x="102.2132" y="72.507" width="18.141" height="12.1024"/>
    </g>
    <g class="d799f3a6-0155-4efc-aa79-2e95170f8f4f">
      <rect class="11e07a2e-91c1-47d7-9ba6-8e9e036a08ad" x="99.9811" y="66.2013" width="22.6061" height="12.1024"/>
    </g>
    <g class="95d4e46b-fa06-4683-afba-f5ed203b09df">
      <rect class="29b8c6a2-ed22-42bc-9ef7-18c5ab671896" x="105.2342" y="48.3373" width="34.1573" height="23.1364"/>
    </g>
    <g class="c4ce9729-607a-4f55-b5c7-a15d07509f84">
      <rect class="5e90eff4-a666-4c6e-bb0c-89ce6bc016ee" x="90.1027" y="51.9925" width="19.0652" height="13.1498"/>
    </g>
    <g class="2ca84ca3-e7fb-41a7-99d1-808b88ff5fab">
      <rect class="5e90eff4-a666-4c6e-bb0c-89ce6bc016ee" x="113.4003" y="51.9925" width="19.0655" height="13.1498"/>
    </g>
    <g class="9a0796e5-8df9-43fc-b0c5-c5414d15cca6">
      <rect class="c5382b80-0a0e-434d-84ea-d70cf3f8f9a8" x="72.6685" y="93.9988" width="77.2312" height="108.3003"/>
    </g>
    <g class="fe824674-7d07-409b-a985-aec89ff10c64">
      <rect class="29b8c6a2-ed22-42bc-9ef7-18c5ab671896" x="89.1135" y="124.8343" width="54.457" height="56.5737"/>
    </g>
    <g class="04897a8f-e60c-4b9c-83cd-9fe70d25d3b7">
      <rect class="f24e1278-1a94-4071-8532-f2b27b158e11" x="118.8895" y="162.877" width="35.2122" height="60.4394"/>
    </g>
    <g class="309451be-c292-4ed8-b1de-a072fcc5e927">
      <rect class="68c3815e-0f95-4af0-af2c-19d49e565368" x="123.0913" y="162.8773" width="31.0101" height="60.4393"/>
    </g>
    <g class="ab1142fe-de1b-4797-8572-ca8ae1db4185">
      <rect class="29b8c6a2-ed22-42bc-9ef7-18c5ab671896" x="118.9898" y="93.9988" width="30.9099" height="41.0487"/>
    </g>
    <g class="c2adb902-bc8d-4b6f-a53f-efeb871a4ecb">
      <rect class="c5382b80-0a0e-434d-84ea-d70cf3f8f9a8" x="83.1778" y="48.3373" width="33.1064" height="23.1364"/>
    </g>
    <g class="6f0016c8-13af-4854-85b7-1fbe9598ccf7">
      <rect class="38a0757c-7e85-458e-a02c-67ee48c6bae3" x="101.0313" y="52.5447" width="16.2983" height="20.5051"/>
    </g>
    <g class="f298fa59-f54f-4356-b1d9-7fd7973d8ad3">
      <rect class="d161026c-3526-4041-8855-3d9b016e99e4" x="127.2936" y="125.0473" width="22.6061" height="91.9641"/>
    </g>
    <g class="8bfddfea-9b0f-499f-bc59-adf66fe7bc01">
      <rect class="d161026c-3526-4041-8855-3d9b016e99e4" x="72.6682" y="125.0473" width="22.6061" height="91.9641"/>
    </g>
    <g class="0a182056-aeb0-4eb9-81c6-d6453cca399e">
      <rect class="87a8a6fa-726b-448e-876e-836d7ec6fdd7" x="72.6686" y="179.6892" width="16.3024" height="14.2034"/>
    </g>
    <g class="b241fed3-e4d5-441e-a45d-f6014b8b131d">
      <rect class="5e90eff4-a666-4c6e-bb0c-89ce6bc016ee" x="78.971" y="179.6892" width="14.202" height="14.2034"/>
    </g>
    <g class="eb03db4e-d8b1-4e88-abf2-6152575042f4">
      <rect class="87a8a6fa-726b-448e-876e-836d7ec6fdd7" x="73.7189" y="177.5886" width="18.4041" height="18.4068"/>
    </g>
    <g class="ff697e8a-c71b-4657-bf94-2b9719c24b24">
      <rect class="11e07a2e-91c1-47d7-9ba6-8e9e036a08ad" x="75.8206" y="179.6895" width="14.2007" height="14.2034"/>
    </g>
    <g class="b2b684e6-696e-43fa-b383-5c2622b4911c">
      <rect class="68c3815e-0f95-4af0-af2c-19d49e565368" x="123.0911" y="92.8227" width="14.2021" height="84.2573"/>
    </g>
  </g>
</svg>
