<svg id="2d1b35de-d47e-49d9-be6f-e5049d50b047" data-name="6838c3e1-efa4-4623-9be6-c272a445ec4c" xmlns="http://www.w3.org/2000/svg" viewBox="0 0 90 340.16">
    <defs>
        <style>
            .\31 0bfdcd1-68f8-430c-b564-78f1084cb0e0,.\32 0c69083-2f53-4c3c-9643-b19aa201f1b0{fill:none}.\32 0c69083-2f53-4c3c-9643-b19aa201f1b0{clip-rule:evenodd}.\32 2760bab-df32-42ef-ad17-a17e4541ce17{clip-path:url(#e5a1cdd3-a27d-4bd2-a433-7fd20411cb82)}.\36 147e540-818f-4849-8718-ac6590c4ec96{fill:#653614}.\34 4de1e8e-41bc-4caf-8f0b-54ea44832361{clip-path:url(#00279d91-1ac2-4e5d-b789-8a179c1cdcac)}.eed722a7-ac8d-4c6e-af19-60e1def8e32c{fill:#3f2410}.\39 b810126-821f-48be-a5e1-da34369d4a89{clip-path:url(#916a4915-fd8b-46d4-bcac-fead6881c43d)}.be467397-1bdb-44a7-96b6-fe8d23bd393e{clip-path:url(#df1e518a-9ea5-4fdd-9f0d-a8690221f685)}.f342acba-a937-45df-9e91-4b45d0414b76{fill:#e27a49}.c8aa1b7a-a43d-43ec-ac19-bb2c8973be88{clip-path:url(#6b36bd2b-17ef-422e-a2fa-a2fa552725d7)}.cde4962c-1b40-490a-bdf6-541587819dea{fill:#ba643c}.\30 a225deb-91e2-4b4a-8551-9f66edd19670{clip-path:url(#5fd85aeb-5395-4791-933e-d81ac762e3d4)}.fe43c65e-e616-4ed1-8fa4-93ed3454d93f{fill:#985535}.\38 ad36a16-3c2a-40c3-a322-27499b2daaaf{clip-path:url(#02b54c6d-2e65-44a2-b79b-3a328c3738e1)}.\30 f582f62-9659-45a6-a184-dfcd3f0cfc88{clip-path:url(#40ec39e8-bf43-4964-8bf7-e845aec76ad2)}.fa94222d-b751-4f43-b9d1-48a44995c940{clip-path:url(#55654a42-d26b-492f-bf04-15707be73767)}.\37 3605569-1bf4-460b-9de5-57fd8b9f88e9{clip-path:url(#3a408bb8-389f-4eb0-bd17-d9d11919a691)}.\31 f101644-b526-4219-b6f9-38b2af1d9f94{clip-path:url(#b7efd784-8960-4fa3-b3cb-89fca050843e)}.\37 287d8a0-ea2d-4743-a256-71c4f4b7c509{clip-path:url(#c24622a2-3f30-4da9-9494-a5e5a8c5ff39)}.\32 30d57d1-52df-4816-8c88-d30a17c5a01e{clip-path:url(#86a38067-82e2-4aa9-a4c1-f27bfc37418b)}.\30 094b525-b9fe-483a-8814-a72d32fd761e{fill:#fff}.\34 7a43736-6f39-416c-88f7-739ab7d1b3da{clip-path:url(#2017501d-db21-436b-996e-89d829bf8cb4)}.\33 a610d91-02f8-4f97-adcb-9c2728a23d8b{fill:#e5e5e4}.\36 b449bd9-812a-41bd-8a58-b7b875fb315d{clip-path:url(#d62e5702-39a0-4594-842f-09033764c4dd)}.ae86adca-ef60-4637-85f0-fc3a479b2341{fill:#222c30}.c14a1f52-ccb5-4569-924b-9358379e08a6{clip-path:url(#f7afd8d8-335f-4dd6-90e9-074f544f1100)}.eeaed36f-1d7c-4d6f-a78f-3d067fd6a895{clip-path:url(#2d5deb76-4f2c-497d-88da-7358d9d6e9bc)}.\33 fbbf0f3-f327-4541-87db-fc4ddaf259ac{clip-path:url(#423b3245-2d5e-4627-b06f-4a4d62d8fdc7)}.ea5ca446-c86c-49f8-bad0-ab19f9b8587e{clip-path:url(#79754040-b082-4d62-b3e3-08e84fcceda7)}.c4ea5b9f-b76d-44a8-ae53-59b86da38c0f{clip-path:url(#afbc65bc-83c9-44b5-ac27-69bee26f5cc9)}.\32 f7fdeb8-fbfc-4d30-85a3-518312842ce0{clip-path:url(#5d690b11-6272-45e7-9b94-395c5930c032)}.c5bf92d9-07f4-4405-91ca-66644e2316fa{clip-path:url(#a60584bc-e5ff-4d51-b17d-3af911beb575)}.\38 4463e0b-bcb3-41ce-bc5f-69df2af867d7{clip-path:url(#e9d3640e-86f6-4dc8-a43e-4658024498fa)}.\30 99e8829-d751-4c00-be3b-e60a68569d69{clip-path:url(#a62a7286-872c-498d-b793-c8cb420373b9)}.\34 4c86229-8fc6-4682-9610-3963befe07eb{fill:#5ba2a2}.d33786af-919d-47e4-8686-0ec1f8f2a540{clip-path:url(#18838023-e325-4dfa-a81a-6bdca57eb957)}.\38 c7225c2-70ef-4936-8082-4e8e461d810b{fill:#367878}.a9817bfc-0548-4d28-a3d1-3bec6f73e429{clip-path:url(#79b4bfc3-4d25-4e74-bf18-8183639f1d28)}.\38 c45a6c5-ac80-48f4-9137-8a3e6f49a551{clip-path:url(#6efec789-d696-463e-988a-f0cae9224cfc)}.\33 b0ab76e-41b8-4625-9a4c-ac46a57f9dc1{clip-path:url(#42bcdc8a-570f-4c78-bab7-309788ff6da3)}.c47f913b-abb9-48d4-b7d4-4193bffee79a{clip-path:url(#a57b10f2-5254-4600-ada5-791da4f6433f)}.\39 44bc063-237e-4e16-a43f-a72713f36bd7{clip-path:url(#2d216cc3-591f-4dd8-a0ed-41c9507262f2)}.d9028d4d-10a2-4754-ab77-178ca2caf8a9{clip-path:url(#a6f28a54-6edc-4198-befc-6a4eb8499590)}.b155bc7f-45b7-46db-b55e-0688b857dd9f{clip-path:url(#bcecc479-5775-410c-a680-6de15eb60d9a)}.baddead7-19a9-4308-87d0-1638a04aed95{fill:#669998}.\37 a2c73fb-7bb0-4aa8-b549-9643f274db1b{clip-path:url(#7fd300aa-aa73-4db1-834b-0dfcd69c5c2e)}.\35 8ee82e9-65d9-4ed0-8456-2ba1fff156ba{clip-path:url(#d73d49a8-1546-42b6-b460-1b21f45b33e6)}.\36 37c3ce4-2945-4ae0-97b8-39f193489a1c{clip-path:url(#720078ec-85c9-4e72-890d-acb04238b9d1)}.a288bf36-a53f-4a47-a97d-09b58b6610ee{clip-path:url(#de1823a6-db3b-42f6-8c88-f241867afae2)}.\34 503c7ac-a4a1-4ff6-bb7c-aaf03693dc55{fill:#a4c4e7}.ab19dd06-e7a6-47bc-ab76-5b67b63d0c28{clip-path:url(#b52df416-f566-4ab5-9911-c2b039468d98)}.fbc58fb0-6dfc-498a-a92e-54794a6abe45{clip-path:url(#a08c8a00-8edb-41c2-ba7e-b9f27ac09dae)}.ac9bb3e9-c887-450f-912d-56ebfdcb87bb{clip-path:url(#451b1c21-45b9-4571-8916-d8b112efa3a3)}.d235bd39-e96a-4b38-9d6c-e8ba02154e25{clip-path:url(#c0e86f0c-1503-492e-9d47-eee42af088f3)}.b6c02711-dc74-4453-baf1-70a33509d943{fill:#789bc7}.cd3df42b-1263-4492-99d5-e56cb0aefdc5{clip-path:url(#0add97c4-9ff6-426b-a22a-f347fcae11bd)}.d91b6aa0-294d-4ee1-9dde-99757c14d74a{clip-path:url(#46be10a5-96b3-483d-8bda-d2a7d32ca641)}.ae97a713-e883-434a-a5dc-2e6b7746894b{clip-path:url(#9fee52da-c40b-48f6-a90c-f6605f1e1484)}.\31 a06123b-6feb-4827-bd15-f3f8b3204140{clip-path:url(#7e0ef476-7da9-4166-9706-be4425ea279e)}.\34 635e1bb-9035-4f13-849c-a0bb039636cb{clip-path:url(#3ebdc348-4919-4588-aeae-234aae176ce7)}.cabf8835-a1d5-41f1-9348-4ae13d81d768{fill:#971b1e}.\30 fbe7968-b690-4b67-b7c9-c6570d6409d0{clip-path:url(#700b1fe7-747c-4867-bd61-f1d845a28f8e)}.c68f0c27-f6de-44f4-a401-0db37ce63d1a{clip-path:url(#ed3bbb7b-d721-4e7c-846b-93bfa3f0b532)}.a3de63a5-0c39-4637-9029-1f6500d7d87c{clip-path:url(#3deebc1b-4225-4c5d-9bab-326d1263f482)}.a9b1f014-89d8-416b-a94b-7786c3ca23c2{clip-path:url(#cc75cf32-618c-4257-a01a-04cc87f6af6c)}.f03d4550-6c8f-4c2a-b51a-6c76f5669cb8{fill:#c93827}.\31 32a8c7a-36fa-48df-8483-f4838bd02b11{clip-path:url(#c15d4d6e-de6c-48b4-bfc7-82392473d466)}.\37 0b904ee-2101-4b13-a80c-e5676627eabe{clip-path:url(#f97a4895-3ca5-4b6c-93b6-6f9225c3aa21)}.\31 57e2bbf-be59-40e9-8bd5-90e77ea66d92{clip-path:url(#13e9c8d2-6cf3-4ec8-aa68-68db223c6146)}
        </style>
        <clipPath id="e5a1cdd3-a27d-4bd2-a433-7fd20411cb82">
            <path class="20c69083-2f53-4c3c-9643-b19aa201f1b0" d="M21.737 179.837h46.528v41.9L46.938 201.17a1.938 1.938 0 1 0-3.876 0l-7.754 91.149H21.737V179.837z"/>
        </clipPath>
        <clipPath id="00279d91-1ac2-4e5d-b789-8a179c1cdcac">
            <path class="20c69083-2f53-4c3c-9643-b19aa201f1b0" d="M33.368 189.534a12.615 12.615 0 0 1-11.631 7.758v-1.94a10.66 10.66 0 0 0 9.5-5.818h2.131zm23.264 0a12.615 12.615 0 0 0 11.634 7.758v-1.94a10.673 10.673 0 0 1-9.5-5.818h-2.134z"/>
        </clipPath>
        <clipPath id="916a4915-fd8b-46d4-bcac-fead6881c43d">
            <path class="20c69083-2f53-4c3c-9643-b19aa201f1b0" d="M68.266 221.742v70.577H54.695l-7.757-91.149a2.248 2.248 0 0 0-.532-1.292z"/>
        </clipPath>
        <clipPath id="df1e518a-9ea5-4fdd-9f0d-a8690221f685">
            <path class="20c69083-2f53-4c3c-9643-b19aa201f1b0" d="M21.737 212.806a.97.97 0 1 1-1.939 0v-3.879a.97.97 0 1 0-1.939 0v5.819a.97.97 0 0 1-1.939.012v.958a.968.968 0 1 1-1.937 0v-.97a.97.97 0 1 1-1.939 0v-2.91a.97.97 0 1 1-1.939 0v-74.665h11.632v75.635z"/>
        </clipPath>
        <clipPath id="6b36bd2b-17ef-422e-a2fa-a2fa552725d7">
            <path class="10bfdcd1-68f8-430c-b564-78f1084cb0e0" d="M33.368 86.75h23.264v27.149H33.368z"/>
        </clipPath>
        <clipPath id="5fd85aeb-5395-4791-933e-d81ac762e3d4">
            <path class="20c69083-2f53-4c3c-9643-b19aa201f1b0" d="M33.368 86.75h23.264v26.847h-4.154l-19.11-19.118V86.75z"/>
        </clipPath>
        <clipPath id="02b54c6d-2e65-44a2-b79b-3a328c3738e1">
            <path class="20c69083-2f53-4c3c-9643-b19aa201f1b0" d="M64.387 63.477a3.879 3.879 0 1 0 3.879 3.879 3.878 3.878 0 0 0-3.879-3.879"/>
        </clipPath>
        <clipPath id="40ec39e8-bf43-4964-8bf7-e845aec76ad2">
            <path class="20c69083-2f53-4c3c-9643-b19aa201f1b0" d="M64.387 65.415a1.94 1.94 0 1 0 1.939 1.94 1.939 1.939 0 0 0-1.939-1.94"/>
        </clipPath>
        <clipPath id="55654a42-d26b-492f-bf04-15707be73767">
            <path class="20c69083-2f53-4c3c-9643-b19aa201f1b0" d="M25.613 63.477a3.879 3.879 0 1 0 3.879 3.879 3.876 3.876 0 0 0-3.879-3.879"/>
        </clipPath>
        <clipPath id="3a408bb8-389f-4eb0-bd17-d9d11919a691">
            <path class="20c69083-2f53-4c3c-9643-b19aa201f1b0" d="M25.613 65.415a1.94 1.94 0 1 0 1.939 1.94 1.941 1.941 0 0 0-1.939-1.94"/>
        </clipPath>
        <clipPath id="b7efd784-8960-4fa3-b3cb-89fca050843e">
            <path class="20c69083-2f53-4c3c-9643-b19aa201f1b0" d="M45 40.2a19.445 19.445 0 0 1 19.386 19.4v19.392a19.386 19.386 0 1 1-38.773 0V59.6A19.446 19.446 0 0 1 45 40.2"/>
        </clipPath>
        <clipPath id="c24622a2-3f30-4da9-9494-a5e5a8c5ff39">
            <path class="20c69083-2f53-4c3c-9643-b19aa201f1b0" d="M64.387 59.6v19.391a19.337 19.337 0 0 1-5.693 13.7L25.612 59.6h38.775z"/>
        </clipPath>
        <clipPath id="86a38067-82e2-4aa9-a4c1-f27bfc37418b">
            <path class="20c69083-2f53-4c3c-9643-b19aa201f1b0" d="M35.307 63.477a3.881 3.881 0 0 1 3.754 4.849h-7.51a3.988 3.988 0 0 1-.123-.97 3.879 3.879 0 0 1 3.879-3.879"/>
        </clipPath>
        <clipPath id="2017501d-db21-436b-996e-89d829bf8cb4">
            <path class="20c69083-2f53-4c3c-9643-b19aa201f1b0" d="M54.7 63.477a3.881 3.881 0 0 1 3.754 4.849h-7.51a3.811 3.811 0 0 1-.123-.97 3.878 3.878 0 0 1 3.879-3.879"/>
        </clipPath>
        <clipPath id="d62e5702-39a0-4594-842f-09033764c4dd">
            <path class="20c69083-2f53-4c3c-9643-b19aa201f1b0" d="M35.307 65.415a1.941 1.941 0 0 1 1.939 1.94 1.911 1.911 0 0 1-.262.97h-3.355a1.911 1.911 0 0 1-.262-.97 1.941 1.941 0 0 1 1.939-1.94"/>
        </clipPath>
        <clipPath id="f7afd8d8-335f-4dd6-90e9-074f544f1100">
            <path class="20c69083-2f53-4c3c-9643-b19aa201f1b0" d="M54.7 65.415a1.941 1.941 0 0 1 1.678 2.91h-3.363a1.941 1.941 0 0 1 1.68-2.91"/>
        </clipPath>
        <clipPath id="2d5deb76-4f2c-497d-88da-7358d9d6e9bc">
            <path class="20c69083-2f53-4c3c-9643-b19aa201f1b0" d="M44.034 94.507a.966.966 0 1 1 1.932 0v3.878a.966.966 0 1 1-1.932 0v-3.878zm16.476-14.55a.966.966 0 1 1 0-1.931h3.876a.966.966 0 1 1 0 1.931H60.51zm-.777 3.983a.965.965 0 1 1 .5-1.865l3.745 1a.965.965 0 1 1-.5 1.865zm-1.784 3.647a.967.967 0 0 1 .967-1.675l3.356 1.94a.965.965 0 0 1-.963 1.672zm-2.665 3.058a.966.966 0 1 1 1.368-1.366l2.74 2.744a.965.965 0 1 1-1.365 1.364zm-3.365 2.265a.966.966 0 1 1 1.673-.965l1.937 3.355a.966.966 0 0 1-1.673.966zm-3.836 1.318a.965.965 0 1 1 1.864-.5l1 3.746a.965.965 0 1 1-1.864.5zm-18.591-16.2a.966.966 0 0 1 0 1.931h-3.88a.966.966 0 0 1 0-1.931h3.88zm.278 4.049a.965.965 0 0 1 .5 1.865l-3.745 1a.965.965 0 1 1-.5-1.865zm1.316 3.839a.966.966 0 1 1 .965 1.673l-3.357 1.936a.965.965 0 1 1-.967-1.671zm2.265 3.366a.965.965 0 1 1 1.364 1.366l-2.739 2.742a.966.966 0 1 1-1.368-1.364zm3.059 2.666a.966.966 0 0 1 1.673.965l-1.939 3.357a.966.966 0 0 1-1.673-.966zm3.642 1.782a.966.966 0 0 1 1.867.5l-1.006 3.746a.965.965 0 0 1-1.864-.5z"/>
        </clipPath>
        <clipPath id="423b3245-2d5e-4627-b06f-4a4d62d8fdc7">
            <path class="20c69083-2f53-4c3c-9643-b19aa201f1b0" d="M43.062 71.234a1.939 1.939 0 0 0 0 3.879h5.816L45 71.234h-1.938z"/>
        </clipPath>
        <clipPath id="79754040-b082-4d62-b3e3-08e84fcceda7">
            <path class="20c69083-2f53-4c3c-9643-b19aa201f1b0" d="M44.035 67.355a.965.965 0 1 1 1.931 0v3.879A.969.969 0 0 1 45 72.2h-1.938a.971.971 0 0 0 0 1.943H45a.966.966 0 0 1 0 1.932h-1.939a2.909 2.909 0 0 1 0-5.819h.972v-2.901z"/>
        </clipPath>
        <clipPath id="afbc65bc-83c9-44b5-ac27-69bee26f5cc9">
            <path class="20c69083-2f53-4c3c-9643-b19aa201f1b0" d="M40.361 62.833a.965.965 0 1 1-1.439 1.287 4.856 4.856 0 0 0-7.23 0 .965.965 0 1 1-1.439-1.287 6.77 6.77 0 0 1 10.107 0"/>
        </clipPath>
        <clipPath id="5d690b11-6272-45e7-9b94-395c5930c032">
            <path class="20c69083-2f53-4c3c-9643-b19aa201f1b0" d="M59.749 62.833a.965.965 0 0 1-1.439 1.287 4.86 4.86 0 0 0-7.233 0 .964.964 0 1 1-1.435-1.287 6.77 6.77 0 0 1 10.107 0"/>
        </clipPath>
        <clipPath id="a60584bc-e5ff-4d51-b17d-3af911beb575">
            <path class="20c69083-2f53-4c3c-9643-b19aa201f1b0" d="M24.649 59.6a.965.965 0 1 1 1.931 0v3.879a.965.965 0 1 1-1.931 0z"/>
        </clipPath>
        <clipPath id="e9d3640e-86f6-4dc8-a43e-4658024498fa">
            <path class="20c69083-2f53-4c3c-9643-b19aa201f1b0" d="M63.423 59.6a.965.965 0 1 1 1.931 0v3.879a.965.965 0 1 1-1.931 0V59.6z"/>
        </clipPath>
        <clipPath id="a62a7286-872c-498d-b793-c8cb420373b9">
            <path class="20c69083-2f53-4c3c-9643-b19aa201f1b0" d="M34.337 36.326h20.358c4.265 0 7.052 3.55 7.755 7.758l1.937 11.635L45 59.6l-20.357-3.881 1.939-11.635c.7-4.208 3.49-7.758 7.755-7.758"/>
        </clipPath>
        <clipPath id="18838023-e325-4dfa-a81a-6bdca57eb957">
            <path class="20c69083-2f53-4c3c-9643-b19aa201f1b0" d="M45 36.326h10.663c4.264 0 7.054 3.55 7.754 7.758l1.939 11.635L45 59.6V36.326z"/>
        </clipPath>
        <clipPath id="79b4bfc3-4d25-4e74-bf18-8183639f1d28">
            <path class="20c69083-2f53-4c3c-9643-b19aa201f1b0" d="M19.8 59.6h50.4a1.939 1.939 0 0 0 0-3.879H19.8a1.939 1.939 0 1 0 0 3.879"/>
        </clipPath>
        <clipPath id="6efec789-d696-463e-988a-f0cae9224cfc">
            <path class="20c69083-2f53-4c3c-9643-b19aa201f1b0" d="M24.643 55.719h39.744l-.645-3.878H25.29l-.647 3.878z"/>
        </clipPath>
        <clipPath id="42bcdc8a-570f-4c78-bab7-309788ff6da3">
            <path class="20c69083-2f53-4c3c-9643-b19aa201f1b0" d="M45.001 55.719h20.355l-.644-3.878H45.001v3.878z"/>
        </clipPath>
        <clipPath id="a57b10f2-5254-4600-ada5-791da4f6433f">
            <path class="20c69083-2f53-4c3c-9643-b19aa201f1b0" d="M33.368 66.385a.97.97 0 1 1-.97.97.97.97 0 0 1 .97-.97"/>
        </clipPath>
        <clipPath id="2d216cc3-591f-4dd8-a0ed-41c9507262f2">
            <path class="20c69083-2f53-4c3c-9643-b19aa201f1b0" d="M52.756 66.385a.97.97 0 1 1-.97.97.972.972 0 0 1 .97-.97"/>
        </clipPath>
        <clipPath id="a6f28a54-6edc-4198-befc-6a4eb8499590">
            <path class="20c69083-2f53-4c3c-9643-b19aa201f1b0" d="M52.117 81.154a.965.965 0 0 1 1.278 1.446 12.674 12.674 0 0 1-16.79 0 .966.966 0 0 1 1.281-1.447 10.769 10.769 0 0 0 14.231 0"/>
        </clipPath>
        <clipPath id="bcecc479-5775-410c-a680-6de15eb60d9a">
            <path class="20c69083-2f53-4c3c-9643-b19aa201f1b0" d="M10.1 137.171V113.9c0-3.878 1.967-4.863 3.879-5.818l19.385-9.7a11.632 11.632 0 1 0 23.264 0l19.389 9.7c1.908.955 3.879 1.941 3.879 5.818v21.333l-11.63 1.939v42.667H21.737v-42.668H10.1z"/>
        </clipPath>
        <clipPath id="7fd300aa-aa73-4db1-834b-0dfcd69c5c2e">
            <path class="20c69083-2f53-4c3c-9643-b19aa201f1b0" d="M68.266 144.458v27.343l-18.869-18.877 13.665-13.67 5.204 5.204z"/>
        </clipPath>
        <clipPath id="d73d49a8-1546-42b6-b460-1b21f45b33e6">
            <path class="20c69083-2f53-4c3c-9643-b19aa201f1b0" d="M36.774 106.613a11.631 11.631 0 0 0 19.858-8.228l19.388 9.7c1.909.954 3.879 1.94 3.879 5.816v23.269H68.266v.942z"/>
        </clipPath>
        <clipPath id="720078ec-85c9-4e72-890d-acb04238b9d1">
            <path class="20c69083-2f53-4c3c-9643-b19aa201f1b0" d="M2.349 303.955h34.9v2.91a.973.973 0 0 1-.97.969H3.318a.973.973 0 0 1-.97-.969v-2.91z"/>
        </clipPath>
        <clipPath id="de1823a6-db3b-42f6-8c88-f241867afae2">
            <path class="20c69083-2f53-4c3c-9643-b19aa201f1b0" d="M35.307 296.97a13.039 13.039 0 0 1 1.931 6.984H2.349a3.66 3.66 0 0 1 2.64-3.675l11.961-2.638c2.451-.538 4.177-2.8 4.787-5.322h13.57v4.651z"/>
        </clipPath>
        <clipPath id="b52df416-f566-4ab5-9911-c2b039468d98">
            <path class="20c69083-2f53-4c3c-9643-b19aa201f1b0" d="M35.307 296.97c.084.138.161.274.239.413a6.789 6.789 0 0 0-5.087 6.571h-1.937a8.727 8.727 0 0 1 6.785-8.51v1.526z"/>
        </clipPath>
        <clipPath id="a08c8a00-8edb-41c2-ba7e-b9f27ac09dae">
            <path class="20c69083-2f53-4c3c-9643-b19aa201f1b0" d="M6.225 300.005l10.726-2.364c2.45-.538 4.175-2.8 4.787-5.322h1.937c-.5 3.633-2.49 6.375-6.308 7.217l-7.263 1.6c-1.878.414-3.137-.021-3.879-1.131"/>
        </clipPath>
        <clipPath id="451b1c21-45b9-4571-8916-d8b112efa3a3">
            <path class="20c69083-2f53-4c3c-9643-b19aa201f1b0" d="M87.651 303.955h-34.9v2.91a.973.973 0 0 0 .97.969h32.963a.972.972 0 0 0 .967-.969v-2.91z"/>
        </clipPath>
        <clipPath id="c0e86f0c-1503-492e-9d47-eee42af088f3">
            <path class="20c69083-2f53-4c3c-9643-b19aa201f1b0" d="M54.7 296.97a13.022 13.022 0 0 0-1.934 6.984h34.89a3.662 3.662 0 0 0-2.638-3.675l-11.968-2.638c-2.447-.538-4.175-2.8-4.783-5.322H54.7v4.651z"/>
        </clipPath>
        <clipPath id="0add97c4-9ff6-426b-a22a-f347fcae11bd">
            <path class="20c69083-2f53-4c3c-9643-b19aa201f1b0" d="M54.7 296.97c-.084.138-.164.274-.241.413a6.786 6.786 0 0 1 5.087 6.571h1.939a8.731 8.731 0 0 0-6.785-8.51v1.526z"/>
        </clipPath>
        <clipPath id="46be10a5-96b3-483d-8bda-d2a7d32ca641">
            <path class="20c69083-2f53-4c3c-9643-b19aa201f1b0" d="M83.775 300.005l-10.725-2.364c-2.447-.538-4.175-2.8-4.783-5.322h-1.94c.494 3.633 2.489 6.375 6.306 7.217l7.263 1.6c1.878.414 3.137-.021 3.879-1.131"/>
        </clipPath>
        <clipPath id="9fee52da-c40b-48f6-a90c-f6605f1e1484">
            <path class="20c69083-2f53-4c3c-9643-b19aa201f1b0" d="M68.266 212.806a.97.97 0 1 0 1.939 0v-3.879a.968.968 0 1 1 1.937 0v5.819a.97.97 0 0 0 1.939.012v.958a.97.97 0 1 0 1.939 0v-.97a.97.97 0 1 0 1.939 0v-2.91a.968.968 0 1 0 1.936 0v-74.665H68.266v75.635z"/>
        </clipPath>
        <clipPath id="7e0ef476-7da9-4166-9706-be4425ea279e">
            <path class="20c69083-2f53-4c3c-9643-b19aa201f1b0" d="M79.9 183.437v-27.342l-11.63-11.636V171.8zm0-33.686V137.17H68.266v.942z"/>
        </clipPath>
        <clipPath id="3ebdc348-4919-4588-aeae-234aae176ce7">
            <path class="20c69083-2f53-4c3c-9643-b19aa201f1b0" d="M68.266 179.837H48.877l-1.939 1.94 1.939 1.939h19.389v-3.879z"/>
        </clipPath>
        <clipPath id="700b1fe7-747c-4867-bd61-f1d845a28f8e">
            <path class="20c69083-2f53-4c3c-9643-b19aa201f1b0" d="M37.872 114.055l30.393 30.4v9.779l-2.978-1.786-9.639 1.929a7.552 7.552 0 0 1-7-2.123l-10.58-10.584a7.553 7.553 0 0 1-2.12-7.007l1.928-9.641-4.115-6.858-13.319-13.315 5.485-2.742z"/>
        </clipPath>
        <clipPath id="ed3bbb7b-d721-4e7c-846b-93bfa3f0b532">
            <path class="20c69083-2f53-4c3c-9643-b19aa201f1b0" d="M68.266 152.685v1.552l-2.979-1.787-9.638 1.929a8.115 8.115 0 0 1-1.99.154l-3.451-3.455a1.943 1.943 0 0 0 2.741 0l5.483-5.483a1.943 1.943 0 0 0 0-2.744zM45.41 133.938l10.966 10.971-1.369 1.372L44.04 135.31zm-1.37-9.6l21.933 21.942-1.373 1.371-21.933-21.941z"/>
        </clipPath>
        <clipPath id="3deebc1b-4225-4c5d-9bab-326d1263f482">
            <path class="20c69083-2f53-4c3c-9643-b19aa201f1b0" d="M55.026 144.93a.973.973 0 0 1 .97.969v2.91h-1.939V145.9a.972.972 0 0 1 .97-.969m9.36 1.135a.973.973 0 0 1 .97.97v2.909h-1.94v-2.909a.973.973 0 0 1 .97-.97"/>
        </clipPath>
        <clipPath id="cc75cf32-618c-4257-a01a-04cc87f6af6c">
            <path class="20c69083-2f53-4c3c-9643-b19aa201f1b0" d="M21.737 179.837h19.385l3.879 1.94-3.879 1.939H21.737v-3.879z"/>
        </clipPath>
        <clipPath id="c15d4d6e-de6c-48b4-bfc7-82392473d466">
            <path class="20c69083-2f53-4c3c-9643-b19aa201f1b0" d="M25.612 179.837h3.879v5.818h-3.879v-5.818zm34.9 0h3.876v5.818H60.51v-5.818z"/>
        </clipPath>
        <clipPath id="f97a4895-3ca5-4b6c-93b6-6f9225c3aa21">
            <path class="10bfdcd1-68f8-430c-b564-78f1084cb0e0" d="M41.123 179.837h7.755v3.879h-7.755z"/>
        </clipPath>
        <clipPath id="13e9c8d2-6cf3-4ec8-aa68-68db223c6146">
            <path class="10bfdcd1-68f8-430c-b564-78f1084cb0e0" d="M45 179.837h3.876v3.879H45z"/>
        </clipPath>
    </defs>
    <title>
        people-originals
    </title>
    <path class="22760bab-df32-42ef-ad17-a17e4541ce17 6147e540-818f-4849-8718-ac6590c4ec96" d="M17.123 175.223h55.756v121.709H17.123z"/>
    <path class="44de1e8e-41bc-4caf-8f0b-54ea44832361 eed722a7-ac8d-4c6e-af19-60e1def8e32c" d="M17.123 184.921H72.88v16.985H17.123z"/>
    <path class="9b810126-821f-48be-a5e1-da34369d4a89 eed722a7-ac8d-4c6e-af19-60e1def8e32c" d="M41.793 195.265H72.88v101.668H41.793z"/>
    <path class="be467397-1bdb-44a7-96b6-fe8d23bd393e f342acba-a937-45df-9e91-4b45d0414b76" d="M5.489 132.557h20.862V221.3H5.489z"/>
    <path class="c8aa1b7a-a43d-43ec-ac19-bb2c8973be88 cde4962c-1b40-490a-bdf6-541587819dea" d="M28.754 82.136h32.492v36.377H28.754z"/>
    <path class="0a225deb-91e2-4b4a-8551-9f66edd19670 fe43c65e-e616-4ed1-8fa4-93ed3454d93f" d="M28.754 82.136h32.492v36.075H28.754z"/>
    <path class="8ad36a16-3c2a-40c3-a322-27499b2daaaf cde4962c-1b40-490a-bdf6-541587819dea" d="M55.897 58.863H72.88v16.985H55.897z"/>
    <path class="0f582f62-9659-45a6-a184-dfcd3f0cfc88 fe43c65e-e616-4ed1-8fa4-93ed3454d93f" d="M57.836 60.801H70.94v13.108H57.836z"/>
    <path class="fa94222d-b751-4f43-b9d1-48a44995c940 f342acba-a937-45df-9e91-4b45d0414b76" d="M17.123 58.863h16.983v16.985H17.123z"/>
    <path class="73605569-1bf4-460b-9de5-57fd8b9f88e9 cde4962c-1b40-490a-bdf6-541587819dea" d="M19.06 60.801h13.107v13.108H19.06z"/>
    <path class="1f101644-b526-4219-b6f9-38b2af1d9f94 f342acba-a937-45df-9e91-4b45d0414b76" d="M21 35.591h48.001v67.407H21z"/>
    <path class="7287d8a0-ea2d-4743-a256-71c4f4b7c509 cde4962c-1b40-490a-bdf6-541587819dea" d="M20.999 54.984h48.002v42.317H20.999z"/>
    <path class="230d57d1-52df-4816-8c88-d30a17c5a01e 0094b525-b9fe-483a-8814-a72d32fd761e" d="M26.814 58.863h16.983V72.94H26.814z"/>
    <path class="47a43736-6f39-416c-88f7-739ab7d1b3da 3a610d91-02f8-4f97-adcb-9c2728a23d8b" d="M46.203 58.863h16.983V72.94H46.203z"/>
    <path class="6b449bd9-812a-41bd-8a58-b7b875fb315d ae86adca-ef60-4637-85f0-fc3a479b2341" d="M28.754 60.801h13.107v12.138H28.754z"/>
    <path class="c14a1f52-ccb5-4569-924b-9358379e08a6 ae86adca-ef60-4637-85f0-fc3a479b2341" d="M48.142 60.801h13.104v12.138H48.142z"/>
    <path class="eeaed36f-1d7c-4d6f-a78f-3d067fd6a895 6147e540-818f-4849-8718-ac6590c4ec96" d="M20.035 73.412h49.933v30.553H20.035z"/>
    <path class="3fbbf0f3-f327-4541-87db-fc4ddaf259ac f342acba-a937-45df-9e91-4b45d0414b76" d="M36.509 66.62h16.983v13.107H36.509z"/>
    <path class="ea5ca446-c86c-49f8-bad0-ab19f9b8587e fe43c65e-e616-4ed1-8fa4-93ed3454d93f" d="M35.539 61.775h15.04v18.922h-15.04z"/>
    <path class="c4ea5b9f-b76d-44a8-ae53-59b86da38c0f 6147e540-818f-4849-8718-ac6590c4ec96" d="M25.393 55.954h19.829v13.102H25.393z"/>
    <path class="2f7fdeb8-fbfc-4d30-85a3-518312842ce0 6147e540-818f-4849-8718-ac6590c4ec96" d="M44.781 55.954h19.826v13.102H44.781z"/>
    <path class="c5bf92d9-07f4-4405-91ca-66644e2316fa 6147e540-818f-4849-8718-ac6590c4ec96" d="M20.032 54.018h11.161v15.039H20.032z"/>
    <path class="84463e0b-bcb3-41ce-bc5f-69df2af867d7 6147e540-818f-4849-8718-ac6590c4ec96" d="M58.809 54.018h11.158v15.039H58.809z"/>
    <path class="099e8829-d751-4c00-be3b-e60a68569d69 44c86229-8fc6-4682-9610-3963befe07eb" d="M20.029 31.712h48.972v32.499H20.029z"/>
    <path class="d33786af-919d-47e4-8686-0ec1f8f2a540 8c7225c2-70ef-4936-8082-4e8e461d810b" d="M40.387 31.712H69.97v32.499H40.387z"/>
    <path class="a9817bfc-0548-4d28-a3d1-3bec6f73e429 8c7225c2-70ef-4936-8082-4e8e461d810b" d="M13.244 51.105h63.511v13.107H13.244z"/>
    <path class="8c45a6c5-ac80-48f4-9137-8a3e6f49a551 0094b525-b9fe-483a-8814-a72d32fd761e" d="M20.029 47.227h48.972v13.107H20.029z"/>
    <path class="3b0ab76e-41b8-4625-9a4c-ac46a57f9dc1 3a610d91-02f8-4f97-adcb-9c2728a23d8b" d="M40.387 47.227H69.97v13.107H40.387z"/>
    <path class="c47f913b-abb9-48d4-b7d4-4193bffee79a 0094b525-b9fe-483a-8814-a72d32fd761e" d="M27.784 61.771h11.167v11.168H27.784z"/>
    <path class="944bc063-237e-4e16-a43f-a72713f36bd7 0094b525-b9fe-483a-8814-a72d32fd761e" d="M47.172 61.771h11.167v11.168H47.172z"/>
    <path class="d9028d4d-10a2-4754-ab77-178ca2caf8a9 fe43c65e-e616-4ed1-8fa4-93ed3454d93f" d="M31.666 76.298h26.668v14.096H31.666z"/>
    <path class="b155bc7f-45b7-46db-b55e-0688b857dd9f baddead7-19a9-4308-87d0-1638a04aed95" d="M5.49 93.77h79.024v90.681H5.49z"/>
    <path class="7a2c73fb-7bb0-4aa8-b549-9643f274db1b 8c7225c2-70ef-4936-8082-4e8e461d810b" d="M44.783 134.64h28.096v41.775H44.783z"/>
    <path class="58ee82e9-65d9-4ed0-8456-2ba1fff156ba 8c7225c2-70ef-4936-8082-4e8e461d810b" d="M32.16 93.771h52.353v48.956H32.16z"/>
    <path class="637c3ce4-2945-4ae0-97b8-39f193489a1c 0094b525-b9fe-483a-8814-a72d32fd761e" d="M-2.265 299.341h44.126v13.107H-2.265z"/>
    <path class="a288bf36-a53f-4a47-a97d-09b58b6610ee 4503c7ac-a4a1-4ff6-bb7c-aaf03693dc55" d="M-2.265 287.705h44.117v20.863H-2.265z"/>
    <path class="ab19dd06-e7a6-47bc-ab76-5b67b63d0c28 baddead7-19a9-4308-87d0-1638a04aed95" d="M23.908 290.831H40.16v17.738H23.908z"/>
    <path class="fbc58fb0-6dfc-498a-a92e-54794a6abe45 baddead7-19a9-4308-87d0-1638a04aed95" d="M1.611 287.705h26.677v18.2H1.611z"/>
    <path class="ac9bb3e9-c887-450f-912d-56ebfdcb87bb 0094b525-b9fe-483a-8814-a72d32fd761e" d="M48.142 299.341h44.123v13.107H48.142z"/>
    <path class="d235bd39-e96a-4b38-9d6c-e8ba02154e25 b6c02711-dc74-4453-baf1-70a33509d943" d="M48.147 287.705h44.118v20.863H48.147z"/>
    <path class="cd3df42b-1263-4492-99d5-e56cb0aefdc5 8c7225c2-70ef-4936-8082-4e8e461d810b" d="M49.84 290.831h16.255v17.738H49.84z"/>
    <path class="d91b6aa0-294d-4ee1-9dde-99757c14d74a 8c7225c2-70ef-4936-8082-4e8e461d810b" d="M61.713 287.705h26.676v18.2H61.713z"/>
    <path class="ae97a713-e883-434a-a5dc-2e6b7746894b f342acba-a937-45df-9e91-4b45d0414b76" d="M63.652 132.557H84.51V221.3H63.652z"/>
    <path class="1a06123b-6feb-4827-bd15-f3f8b3204140 cde4962c-1b40-490a-bdf6-541587819dea" d="M63.652 132.556H84.51v55.494H63.652z"/>
    <path class="4635e1bb-9035-4f13-849c-a0bb039636cb cabf8835-a1d5-41f1-9348-4ae13d81d768" d="M42.324 175.223h30.555v13.107H42.324z"/>
    <path class="0fbe7968-b690-4b67-b7c9-c6570d6409d0 6147e540-818f-4849-8718-ac6590c4ec96" d="M15.828 97.493h57.051v61.663H15.828z"/>
    <path class="c68f0c27-f6de-44f4-a401-0db37ce63d1a eed722a7-ac8d-4c6e-af19-60e1def8e32c" d="M38.054 119.725h34.827v39.431H38.054z"/>
    <path class="a3de63a5-0c39-4637-9029-1f6500d7d87c 3a610d91-02f8-4f97-adcb-9c2728a23d8b" d="M49.443 140.316h20.528v14.242H49.443z"/>
    <path class="a9b1f014-89d8-416b-a94b-7786c3ca23c2 f03d4550-6c8f-4c2a-b51a-6c76f5669cb8" d="M17.123 175.223h32.492v13.107H17.123z"/>
    <path class="132a8c7a-36fa-48df-8483-f4838bd02b11 6147e540-818f-4849-8718-ac6590c4ec96" d="M20.999 175.223h48.002v15.045H20.999z"/>
    <path class="70b904ee-2101-4b13-a80c-e5676627eabe 0094b525-b9fe-483a-8814-a72d32fd761e" d="M36.509 175.223h16.983v13.107H36.509z"/>
    <path class="157e2bbf-be59-40e9-8bd5-90e77ea66d92 3a610d91-02f8-4f97-adcb-9c2728a23d8b" d="M40.386 175.223H53.49v13.107H40.386z"/>
</svg>
