<svg id="2488cf45-3cac-4eaf-b0eb-90aa6a117ddf" data-name="Layer 1" xmlns="http://www.w3.org/2000/svg" xmlns:xlink="http://www.w3.org/1999/xlink" viewBox="0 0 226.77 340.16">
  <defs>
    <style>
      .\33 06f8bfe-7495-4101-aec3-27adfad94e73, .\33 b25637c-76aa-41d0-a040-d52366617f0f {
        fill: none;
      }

      .\33 b25637c-76aa-41d0-a040-d52366617f0f {
        clip-rule: evenodd;
      }

      .\38 92b700b-abab-4605-895e-ac10360456cb {
        clip-path: url(#1dda1f5c-c665-498b-989b-fd0c9016c162);
      }

      .fbce098e-fdd8-4422-9665-0512db5313d7 {
        fill: #653614;
      }

      .\33 8a6b13f-ef88-4806-9819-66e6c006d6bd {
        clip-path: url(#a7648af1-ce03-4169-877f-19f292fbe00b);
      }

      .\36 f9270e0-2dee-400b-ab2e-be67db04807c {
        fill: #3f2410;
      }

      .a599b30a-6294-4228-8f5d-b7e5b446e48d {
        clip-path: url(#d2f74da7-50ed-4314-b24c-c2a7d67c0da4);
      }

      .\36 752be80-ccfe-4774-a0fc-7fd8235e3ae0 {
        clip-path: url(#2f265446-09b4-4901-9d55-f57fd33ccf9d);
      }

      .\35 f72c15d-efe7-4be1-95cf-0e2c056e3b80 {
        fill: #367878;
      }

      .\36 e39b731-0d58-46f3-8d89-b295248b4603 {
        clip-path: url(#5174523e-8cf9-4e0f-a353-326ddaaf45c0);
      }

      .\32 6256b42-dda0-4377-b818-806cb34687a8 {
        fill: #5ba2a2;
      }

      .a34d38c9-9107-4434-9530-dfbcec8475b0 {
        clip-path: url(#8496b48d-187d-49b0-a1ee-ded687675b75);
      }

      .ba5f209b-9396-4ee5-a665-bdb971065fc7 {
        fill: #fbd4cb;
      }

      .\38 8f2f248-57b8-4fa0-8288-86ba6e457cdb {
        clip-path: url(#54c836d9-4c1f-4158-a1b6-e9f4ac4dca20);
      }

      .\35 8f93126-8aee-486c-829d-307e2baa45a0 {
        fill: #f5bfb1;
      }

      .\30 4f4b3da-3e22-4bb1-9372-a2ba977b8a1d {
        clip-path: url(#05e1540d-f731-46bf-a1df-3d515e6f67bd);
      }

      .ae96599b-5b29-4b55-84ae-9a7763182a03 {
        fill: #a4c4e7;
      }

      .\38 0d9dd8c-7f4c-4a5b-b02f-f5890310892d {
        clip-path: url(#5337ffe8-97b8-4460-bb6d-20416375eb6a);
      }

      .c61a2a2a-b439-4056-836d-008b7d7e39a2 {
        fill: #789bc7;
      }

      .\31 3b7ce7e-75cd-445c-ad7b-204ab4c9988f {
        clip-path: url(#1c0ebdcc-cbc0-4414-9edf-617f3486d285);
      }

      .c1681584-9865-4f57-bf8d-223bae20b38c {
        clip-path: url(#d9db1deb-f82b-43a4-81f8-6e0abb0b34ef);
      }

      .\32 d372322-5327-4fa3-ba1b-dc5f725899c8 {
        fill: #fff;
      }

      .\32 c4288c9-0b05-4c29-9779-c622a8a14a11 {
        clip-path: url(#7928cdc9-312d-4782-8e5e-e7e86cf84e41);
      }

      .\39 004c647-3b95-4c7a-a6c9-af1a4210656e {
        clip-path: url(#2f00aca6-1f03-4f88-b008-9a0a74ac30c8);
      }

      .\31 b805824-8e3b-4d40-8905-d2b4132642e8 {
        clip-path: url(#b817d046-d996-484b-8422-db13f7c3fb1c);
      }

      .\38 9dec899-eca4-4cd5-8ace-013b746eb6a2 {
        fill: #af8b81;
      }

      .\36 85ca39c-4c04-43a4-bfaf-e8dbe78e1bf5 {
        clip-path: url(#07695d3e-e2ec-4d96-91ca-ae6f502b8046);
      }

      .\36 4f317e4-c423-4f2a-aecb-f18fd751216c {
        clip-path: url(#60784ddb-f124-4b4c-80a1-7e0c80b44727);
      }

      .dc023bd7-b00e-4270-9314-7c4b27a61c26 {
        fill: #971b1e;
      }

      .\38 b13e403-2fff-4e4b-b52b-5e0a0013c274 {
        clip-path: url(#3de43837-f7a8-453a-84c6-ddee862324a4);
      }

      .\37 f445e7b-182f-4320-a403-2f621e9edf99 {
        clip-path: url(#c4441720-08f6-46d3-8798-de98ca27ab30);
      }

      .\35 58d8abb-38d0-4fa6-8dcf-a02f7994ad8f {
        clip-path: url(#042f1994-793f-46ab-a5d8-4e39bb3240e6);
      }

      .\36 697c666-9433-49f1-9a01-0cba582bda91 {
        fill: #e5e5e4;
      }

      .\35 ffb59a4-d662-4f62-89d4-92b203983492 {
        clip-path: url(#d2bb9bb8-0dc1-4d33-96a1-931dcaa36f66);
      }

      .\37 12ff26a-35d5-417d-b7b1-0fa81122f565 {
        fill: #424f55;
      }

      .\32 3ef4a26-367e-45a7-b66d-865759eb95cd {
        clip-path: url(#80336b25-dca2-4865-a2f9-f4323f904ac2);
      }

      .cd1e0244-196e-4401-b1fe-e52aad4161d7 {
        clip-path: url(#5f649423-20f9-46f7-ba45-b75c04075035);
      }

      .b5d6c880-7e96-468c-97ef-214c43c39c81 {
        clip-path: url(#2a6683f1-2b1c-48bc-95cc-b469c9e52ef2);
      }

      .\34 60c0042-a4dd-45b8-9588-9533d19cfd36 {
        clip-path: url(#a63d6b5a-947a-4b8d-afb6-e45984f5f7b0);
      }

      .\32 b8ab588-b036-4de1-b19f-9340eeca1583 {
        clip-path: url(#d298d469-5f7b-4aa6-a149-3708fb62bcba);
      }

      .\34 635749c-88df-4217-abbb-ea60239494a4 {
        clip-path: url(#78990f16-63bb-4e6d-afa9-ea2c4575f387);
      }

      .\32 089bcde-4f6a-4166-aa7d-7bda467a6e0a {
        fill: #985535;
      }

      .\35 2022d8e-d69a-4e57-a9e4-aca499873590 {
        clip-path: url(#1147cc93-cc65-4fcf-8065-1096892f24f1);
      }

      .f4133623-3b3c-418a-a80d-7f5034d55b3f {
        fill: #ba643c;
      }

      .\30 bf09d3b-535b-41df-979c-a7b1524cc3c6 {
        clip-path: url(#5e4a67ff-3a9d-4bc3-840f-1863517bc2bf);
      }

      .a5de4ed9-9e1f-4616-9df8-0541079eba3c {
        clip-path: url(#e2bd0e35-3486-40aa-87d0-c6596327c008);
      }

      .\33 55ed748-fcaf-4bfc-8eeb-771070539f6d {
        clip-path: url(#08cf374d-1d45-4785-b684-2d498dad02f7);
      }

      .\36 4cefa58-96e2-4562-b3af-4ab6d95b928a {
        clip-path: url(#b2274e30-bddc-467b-8718-25e63eda7a4e);
      }

      .\34 80670b3-ef63-4c4c-8f2c-9d367fadf456 {
        clip-path: url(#75973d7b-27c4-4c5c-94b5-c1165fa5c4fc);
      }

      .d58697a5-10bc-4009-846b-2d194cb7b1e9 {
        clip-path: url(#c560a05b-f851-42c4-976e-9819af8278ac);
      }

      .\33 3dd5348-d8e8-4fe8-9ad1-84546b6759a8 {
        clip-path: url(#8b422649-33da-4731-995c-36643e408e1f);
      }

      .a0e28bde-4d28-4b13-aefc-c1e3decbefec {
        clip-path: url(#f66bca32-66ff-40b6-9b62-2c2999252a22);
      }

      .da9ad857-25ea-4626-9403-d2bbabfb0737 {
        clip-path: url(#d40eccbb-8b2f-4a61-b089-2d65b28540bb);
      }

      .e3e9d8d7-098b-47c2-b99b-231973aee55b {
        clip-path: url(#1cfe4bc5-ea5a-4df9-80f6-060f0205363c);
      }

      .eae30a92-4b99-48f2-a293-6c5fca357d3d {
        clip-path: url(#cec18e70-09f4-4e74-a5c4-df7416b43c29);
      }

      .\37 83b2b96-02dd-470b-848e-c3491e868033 {
        clip-path: url(#76118c03-8c16-4802-9204-f4998caa5123);
      }

      .b5b6e7fb-7266-4482-85c2-084bed562bdb {
        clip-path: url(#3fbfd2d8-f9b6-4c75-8705-770f7ec160d8);
      }

      .cc4cbcea-475b-436c-b161-13619f2ecb34 {
        fill: #c93827;
      }

      .e6cba1ec-d31c-43ed-8176-5521db7673be {
        clip-path: url(#03a95a3d-1b1f-4772-8516-42a93b6ee7ff);
      }

      .db550acc-caae-425a-adbf-2b22a9cff358 {
        clip-path: url(#ee4cb526-19f3-43ae-83f6-41fd51c9badb);
      }

      .d6e91fca-c3e0-448a-a93a-b36f6fd63561 {
        clip-path: url(#fb34e955-c70c-4fa3-adad-2d5ba4a9683f);
      }

      .\35 010d05b-f31b-4a8f-a262-ab8357867cdb {
        clip-path: url(#1f0c2ca8-2420-4672-999c-aff915c6609f);
      }

      .\39 79b7d01-d86f-4e18-99b3-b8f15e327352 {
        clip-path: url(#f60a4a11-e0c1-4ed6-a7ac-75505e0eaad5);
      }
    </style>
    <clipPath id="1dda1f5c-c665-498b-989b-fd0c9016c162">
      <path class="3b25637c-76aa-41d0-a040-d52366617f0f" d="M111.2832,209.4381v102.98H100.78l-2.1016-4.2034a2.0116,2.0116,0,0,0,2.1016-2.1024l-13.8074-96.674h24.3105Z"/>
    </clipPath>
    <clipPath id="a7648af1-ce03-4169-877f-19f292fbe00b">
      <polygon class="3b25637c-76aa-41d0-a040-d52366617f0f" points="111.283 209.438 111.283 245.579 88.941 223.23 86.973 209.438 111.283 209.438"/>
    </clipPath>
    <clipPath id="d2f74da7-50ed-4314-b24c-c2a7d67c0da4">
      <path class="3b25637c-76aa-41d0-a040-d52366617f0f" d="M139.8,209.4381l-13.8089,96.674a2.0081,2.0081,0,0,0,2.099,2.1024l-2.099,4.2034H115.4871V208.11Z"/>
    </clipPath>
    <clipPath id="2f265446-09b4-4901-9d55-f57fd33ccf9d">
      <rect class="306f8bfe-7495-4101-aec3-27adfad94e73" x="92.8137" y="48.3867" width="41.5823" height="63.0496"/>
    </clipPath>
    <clipPath id="5174523e-8cf9-4e0f-a353-326ddaaf45c0">
      <path class="3b25637c-76aa-41d0-a040-d52366617f0f" d="M113.3848,18.9639A29.4224,29.4224,0,1,1,83.9733,48.3863a29.419,29.419,0,0,1,29.4115-29.4224"/>
    </clipPath>
    <clipPath id="8496b48d-187d-49b0-a1ee-ded687675b75">
      <path class="3b25637c-76aa-41d0-a040-d52366617f0f" d="M147,114.3351c-0.7078.4476-1.4305,0.883-2.1587,1.3035H81.9257q-1.0881-.6308-2.156-1.3035v-9.2043c0-4.2034,2.1316-5.2709,4.2007-6.3058l18.9085-9.4566V77.8094H123.89v11.559l18.9085,9.4566C144.8681,99.86,147,100.9274,147,105.1308v9.2043Z"/>
    </clipPath>
    <clipPath id="54c836d9-4c1f-4158-a1b6-e9f4ac4dca20">
      <path class="3b25637c-76aa-41d0-a040-d52366617f0f" d="M147,114.3351q-1.0617.6714-2.156,1.3035H133.0254L102.879,85.4824v-7.673H123.89v11.559l18.9085,9.4566C144.8681,99.86,147,100.9274,147,105.1308v9.2043Z"/>
    </clipPath>
    <clipPath id="05e1540d-f731-46bf-a1df-3d515e6f67bd">
      <path class="3b25637c-76aa-41d0-a040-d52366617f0f" d="M146.9994,208.11H79.77V105.13c0-4.2034,2.1329-5.2709,4.2007-6.3044l18.9085-9.4566a10.5057,10.5057,0,1,0,21.0115,0l18.9085,9.4566c2.0691,1.0335,4.2006,2.101,4.2006,6.3044V208.11ZM134.396,119.8416a54.8226,54.8226,0,0,0-4.2033,21.017,53.7662,53.7662,0,0,0,4.2033,21.2435v-42.26ZM92.3772,161.824a54.49,54.49,0,0,0,4.2006-20.9654,53.7889,53.7889,0,0,0-4.2006-21.017V161.824Z"/>
    </clipPath>
    <clipPath id="5337ffe8-97b8-4460-bb6d-20416375eb6a">
      <path class="3b25637c-76aa-41d0-a040-d52366617f0f" d="M132.0321,93.44l10.7674,5.3861C144.8672,99.8606,147,100.9267,147,105.13v32.6167l-12.6047-12.61v-5.2953q-0.7811,1.9349-1.421,3.8752L117.3689,108.106Z"/>
    </clipPath>
    <clipPath id="1c0ebdcc-cbc0-4414-9edf-617f3486d285">
      <path class="3b25637c-76aa-41d0-a040-d52366617f0f" d="M134.3956,168.3293L96.2248,130.1461l-0.0082-.08a10.4993,10.4993,0,0,0,14.1668-.7691,4.2014,4.2014,0,0,1,6.0027,0,10.5035,10.5035,0,0,0,14.2793.6782,2.95,2.95,0,0,1,.7309-0.4978,55.2979,55.2979,0,0,0,2.9993,32.6248v6.2271Z"/>
    </clipPath>
    <clipPath id="d9db1deb-f82b-43a4-81f8-6e0abb0b34ef">
      <path class="3b25637c-76aa-41d0-a040-d52366617f0f" d="M88.3666,96.6277l14.5125-7.2593a10.5081,10.5081,0,0,0,10.4638,10.5078,12.6065,12.6065,0,1,1-24.9763-3.2485"/>
    </clipPath>
    <clipPath id="7928cdc9-312d-4782-8e5e-e7e86cf84e41">
      <path class="3b25637c-76aa-41d0-a040-d52366617f0f" d="M134.3956,67.3009a21.0108,21.0108,0,1,1-42.0217,0V48.3863c0-.3608.0122-0.7216,0.03-1.0783a18.9435,18.9435,0,0,0,10.4312-9.0538,41.8374,41.8374,0,0,0,27.3573,10.1321q2.1275,0,4.2007-.2075V48.1774c0,0.0692.0027,0.14,0.0027,0.2089V67.3009Z"/>
    </clipPath>
    <clipPath id="2f00aca6-1f03-4f88-b008-9a0a74ac30c8">
      <path class="3b25637c-76aa-41d0-a040-d52366617f0f" d="M134.3956,67.3009a21.0273,21.0273,0,0,1-.1383,2.3859L102.8349,38.2542a41.8374,41.8374,0,0,0,27.3573,10.1321q2.1275,0,4.2007-.2075V48.1774c0,0.0692.0027,0.14,0.0027,0.2089V67.3009Z"/>
    </clipPath>
    <clipPath id="b817d046-d996-484b-8422-db13f7c3fb1c">
      <path class="3b25637c-76aa-41d0-a040-d52366617f0f" d="M96.6287,49.704a9.4372,9.4372,0,0,1,12.5044,0l-1.3871,1.568a7.3687,7.3687,0,0,0-9.7288,0Z"/>
    </clipPath>
    <clipPath id="07695d3e-e2ec-4d96-91ca-ae6f502b8046">
      <path class="3b25637c-76aa-41d0-a040-d52366617f0f" d="M117.6394,49.704a9.4192,9.4192,0,0,1,4.2156-2.1457,42.046,42.046,0,0,0,6.263.7772,9.3983,9.3983,0,0,1,2.0231,1.3685l-1.3844,1.568a7.3722,7.3722,0,0,0-9.7315,0Z"/>
    </clipPath>
    <clipPath id="60784ddb-f124-4b4c-80a1-7e0c80b44727">
      <path class="3b25637c-76aa-41d0-a040-d52366617f0f" d="M121.0958,71.2314a1.0463,1.0463,0,1,1,1.3858,1.568,13.7309,13.7309,0,0,1-18.1925,0,1.0459,1.0459,0,1,1,1.3844-1.568,11.6694,11.6694,0,0,0,15.4223,0"/>
    </clipPath>
    <clipPath id="3de43837-f7a8-453a-84c6-ddee862324a4">
      <path class="3b25637c-76aa-41d0-a040-d52366617f0f" d="M102.9126,52.59a4.2034,4.2034,0,1,1-4.2034,4.2034,4.2025,4.2025,0,0,1,4.2034-4.2034"/>
    </clipPath>
    <clipPath id="c4441720-08f6-46d3-8798-de98ca27ab30">
      <path class="3b25637c-76aa-41d0-a040-d52366617f0f" d="M123.92,52.59A4.2034,4.2034,0,1,1,119.72,56.793,4.203,4.203,0,0,1,123.92,52.59"/>
    </clipPath>
    <clipPath id="042f1994-793f-46ab-a5d8-4e39bb3240e6">
      <path class="3b25637c-76aa-41d0-a040-d52366617f0f" d="M123.92,52.59a4.2038,4.2038,0,0,1,1.4061,8.1653l-5.3655-5.3685A4.2018,4.2018,0,0,1,123.92,52.59"/>
    </clipPath>
    <clipPath id="d2bb9bb8-0dc1-4d33-96a1-931dcaa36f66">
      <path class="3b25637c-76aa-41d0-a040-d52366617f0f" d="M102.9126,54.6911a2.1017,2.1017,0,1,1-2.1017,2.1011,2.1,2.1,0,0,1,2.1017-2.1011"/>
    </clipPath>
    <clipPath id="80336b25-dca2-4865-a2f9-f4323f904ac2">
      <path class="3b25637c-76aa-41d0-a040-d52366617f0f" d="M123.92,54.6911a2.1017,2.1017,0,1,1-2.1017,2.1011,2.101,2.101,0,0,1,2.1017-2.1011"/>
    </clipPath>
    <clipPath id="5f649423-20f9-46f7-ba45-b75c04075035">
      <path class="3b25637c-76aa-41d0-a040-d52366617f0f" d="M100.8108,55.7417A1.05,1.05,0,1,1,99.76,56.7928a1.0527,1.0527,0,0,1,1.0508-1.0511"/>
    </clipPath>
    <clipPath id="2a6683f1-2b1c-48bc-95cc-b469c9e52ef2">
      <path class="3b25637c-76aa-41d0-a040-d52366617f0f" d="M121.8187,55.7417a1.05,1.05,0,1,1-1.0481,1.0511,1.051,1.051,0,0,1,1.0481-1.0511"/>
    </clipPath>
    <clipPath id="a63d6b5a-947a-4b8d-afb6-e45984f5f7b0">
      <path class="3b25637c-76aa-41d0-a040-d52366617f0f" d="M138.319,96.6277L123.89,89.3684a10.582,10.582,0,0,1-10.5478,10.5078,12.6048,12.6048,0,0,0,25.1661-1.0512,12.8955,12.8955,0,0,0-.19-2.1973"/>
    </clipPath>
    <clipPath id="d298d469-5f7b-4aa6-a149-3708fb62bcba">
      <path class="3b25637c-76aa-41d0-a040-d52366617f0f" d="M96.5773,31.5734L83.9739,48.387,83.97,111.4352a12.6068,12.6068,0,0,0,12.6075-12.61V31.5734Zm33.6149,4.2034L142.8,48.387v63.0482a12.6094,12.6094,0,0,1-12.6075-12.61V35.7768Z"/>
    </clipPath>
    <clipPath id="78990f16-63bb-4e6d-afa9-ea2c4575f387">
      <path class="3b25637c-76aa-41d0-a040-d52366617f0f" d="M121.789,53.6409a3.1619,3.1619,0,0,0-3.15,3.1522,5.7763,5.7763,0,1,0,11.5526,0V53.6409H121.789Zm-8.4041,0L112.3339,52.59l1.0509-1.05a5.2427,5.2427,0,0,1,4.2061,2.1051,5.2441,5.2441,0,0,1,4.198-2.1024h9.4535a1.05,1.05,0,0,1,1.0509,1.0471v4.2034a7.878,7.878,0,1,1-15.756,0A3.1519,3.1519,0,0,0,113.3848,53.6409Z"/>
    </clipPath>
    <clipPath id="1147cc93-cc65-4fcf-8065-1096892f24f1">
      <path class="3b25637c-76aa-41d0-a040-d52366617f0f" d="M113.3852,53.6409a3.15,3.15,0,0,0-3.15,3.1522,7.88,7.88,0,1,1-15.76,0V52.59a1.0487,1.0487,0,0,1,1.0481-1.0471h9.4576a5.2492,5.2492,0,0,1,4.2007,2.1024,5.2376,5.2376,0,0,1,4.2034-2.1051v2.101Zm-8.4041,0h-8.404v3.1522a5.7783,5.7783,0,1,0,11.5566,0A3.1642,3.1642,0,0,0,104.9812,53.6409Z"/>
    </clipPath>
    <clipPath id="5e4a67ff-3a9d-4bc3-840f-1863517bc2bf">
      <path class="3b25637c-76aa-41d0-a040-d52366617f0f" d="M113.3848,107.232a2.1017,2.1017,0,1,1-2.1017,2.101,2.1,2.1,0,0,1,2.1017-2.101"/>
    </clipPath>
    <clipPath id="e2bd0e35-3486-40aa-87d0-c6596327c008">
      <path class="3b25637c-76aa-41d0-a040-d52366617f0f" d="M114.8724,107.8472A2.1021,2.1021,0,0,1,111.9,110.82Z"/>
    </clipPath>
    <clipPath id="08cf374d-1d45-4785-b684-2d498dad02f7">
      <path class="3b25637c-76aa-41d0-a040-d52366617f0f" d="M112.34,56.7928a1.0461,1.0461,0,1,1,2.0922,0v4.2034a1.051,1.051,0,0,1-1.0468,1.0512h-2.1017a1.0525,1.0525,0,0,0,0,2.1051h2.1017a1.0465,1.0465,0,1,1,0,2.0929l-2.1017.0054a3.1528,3.1528,0,0,1,0-6.3057H112.34V56.7928Z"/>
    </clipPath>
    <clipPath id="b2274e30-bddc-467b-8718-25e63eda7a4e">
      <path class="3b25637c-76aa-41d0-a040-d52366617f0f" d="M113.3848,115.6385a2.1017,2.1017,0,1,1-2.1017,2.101,2.101,2.101,0,0,1,2.1017-2.101"/>
    </clipPath>
    <clipPath id="75973d7b-27c4-4c5c-94b5-c1165fa5c4fc">
      <path class="3b25637c-76aa-41d0-a040-d52366617f0f" d="M114.8724,116.2544a2.1016,2.1016,0,1,1-2.9723,2.9718Z"/>
    </clipPath>
    <clipPath id="c560a05b-f851-42c4-976e-9819af8278ac">
      <rect class="306f8bfe-7495-4101-aec3-27adfad94e73" x="79.7696" y="178.6866" width="10.5058" height="8.4068"/>
    </clipPath>
    <clipPath id="8b422649-33da-4731-995c-36643e408e1f">
      <rect class="306f8bfe-7495-4101-aec3-27adfad94e73" x="136.4978" y="178.6866" width="10.5017" height="8.4068"/>
    </clipPath>
    <clipPath id="f66bca32-66ff-40b6-9b62-2c2999252a22">
      <path class="3b25637c-76aa-41d0-a040-d52366617f0f" d="M113.3848,124.0449a2.101,2.101,0,1,1-2.1017,2.101,2.1,2.1,0,0,1,2.1017-2.101"/>
    </clipPath>
    <clipPath id="d40eccbb-8b2f-4a61-b089-2d65b28540bb">
      <path class="3b25637c-76aa-41d0-a040-d52366617f0f" d="M114.8724,124.66a2.1021,2.1021,0,0,1-2.9723,2.9732Z"/>
    </clipPath>
    <clipPath id="1cfe4bc5-ea5a-4df9-80f6-060f0205363c">
      <path class="3b25637c-76aa-41d0-a040-d52366617f0f" d="M113.3848,132.45a2.1017,2.1017,0,1,1-2.1017,2.1024,2.1013,2.1013,0,0,1,2.1017-2.1024"/>
    </clipPath>
    <clipPath id="cec18e70-09f4-4e74-a5c4-df7416b43c29">
      <path class="3b25637c-76aa-41d0-a040-d52366617f0f" d="M114.8724,133.0665a2.1016,2.1016,0,1,1-2.9723,2.9718Z"/>
    </clipPath>
    <clipPath id="76118c03-8c16-4802-9204-f4998caa5123">
      <path class="3b25637c-76aa-41d0-a040-d52366617f0f" d="M113.3848,314.5182H81.8717v2.1024a2.1073,2.1073,0,0,0,2.1017,2.1024h27.31a2.1073,2.1073,0,0,0,2.1017-2.1024v-2.1024Z"/>
    </clipPath>
    <clipPath id="3fbfd2d8-f9b6-4c75-8705-770f7ec160d8">
      <path class="3b25637c-76aa-41d0-a040-d52366617f0f" d="M81.8718,314.5182a4.2019,4.2019,0,0,1,3.1037-4.0569l14.5831-4.0121a7.351,7.351,0,0,0,11.5919,1.7918,0.84,0.84,0,0,1,1.3911.3676,21.0456,21.0456,0,0,1,.8434,5.91H81.8718Z"/>
    </clipPath>
    <clipPath id="03a95a3d-1b1f-4772-8516-42a93b6ee7ff">
      <path class="3b25637c-76aa-41d0-a040-d52366617f0f" d="M113.3848,314.5182h31.5159v2.1024a2.1073,2.1073,0,0,1-2.1017,2.1024H115.4866a2.1074,2.1074,0,0,1-2.1017-2.1024v-2.1024Z"/>
    </clipPath>
    <clipPath id="ee4cb526-19f3-43ae-83f6-41fd51c9badb">
      <path class="3b25637c-76aa-41d0-a040-d52366617f0f" d="M144.901,314.5182a4.2055,4.2055,0,0,0-3.1078-4.0569l-14.579-4.0121a7.351,7.351,0,0,1-11.5919,1.7918,0.8425,0.8425,0,0,0-1.3939.3676,21.0456,21.0456,0,0,0-.8434,5.91h31.516Z"/>
    </clipPath>
    <clipPath id="fb34e955-c70c-4fa3-adad-2d5ba4a9683f">
      <path class="3b25637c-76aa-41d0-a040-d52366617f0f" d="M83.97,216.517a4.204,4.204,0,0,0,4.2034-4.2034,4.202,4.202,0,1,0,8.404,0,4.2014,4.2014,0,1,0,8.4028,0,4.202,4.202,0,1,0,8.404,0,4.2021,4.2021,0,1,0,8.4041,0,4.2011,4.2011,0,0,0,8.358.61,4.2033,4.2033,0,0,0,8.362-.61h0.0868a4.202,4.202,0,1,0,8.404,0V208.11H79.77v4.2034A4.2034,4.2034,0,0,0,83.97,216.517"/>
    </clipPath>
    <clipPath id="1f0c2ca8-2420-4672-999c-aff915c6609f">
      <path class="3b25637c-76aa-41d0-a040-d52366617f0f" d="M134.3956,206.009a1.0508,1.0508,0,1,0,2.1017,0v-4.2034a1.05,1.05,0,1,1,2.099,0V208.11a1.0509,1.0509,0,0,0,2.1017.0135v1.0376a1.0508,1.0508,0,1,0,2.1017,0V208.11a1.0509,1.0509,0,1,0,2.1017,0v-3.1523a1.05,1.05,0,1,0,2.099,0V187.0931H136.4972l-0.77,1.5408a12.0314,12.0314,0,0,0-1.3315,5.64V206.009Z"/>
    </clipPath>
    <clipPath id="f60a4a11-e0c1-4ed6-a7ac-75505e0eaad5">
      <path class="3b25637c-76aa-41d0-a040-d52366617f0f" d="M92.3772,206.009a1.0509,1.0509,0,1,1-2.1017,0v-4.2034a1.0508,1.0508,0,1,0-2.1017,0V208.11a1.0509,1.0509,0,0,1-2.1017.0135v1.0376a1.05,1.05,0,1,1-2.099,0V208.11a1.0508,1.0508,0,1,1-2.1017,0v-3.1523a1.0509,1.0509,0,1,1-2.1017,0V187.0931H90.2754l0.77,1.5408a12.0639,12.0639,0,0,1,1.3316,5.64V206.009Z"/>
    </clipPath>
  </defs>
  <title>people</title>
  <g>
    <g class="892b700b-abab-4605-895e-ac10360456cb">
      <rect class="fbce098e-fdd8-4422-9665-0512db5313d7" x="81.9726" y="204.4381" width="34.3105" height="112.9798"/>
    </g>
    <g class="38a6b13f-ef88-4806-9819-66e6c006d6bd">
      <rect class="6f9270e0-2dee-400b-ab2e-be67db04807c" x="81.9726" y="204.4381" width="34.3105" height="46.1405"/>
    </g>
    <g class="a599b30a-6294-4228-8f5d-b7e5b446e48d">
      <rect class="6f9270e0-2dee-400b-ab2e-be67db04807c" x="110.4871" y="203.1102" width="34.3133" height="114.3077"/>
    </g>
    <g class="6752be80-ccfe-4774-a0fc-7fd8235e3ae0">
      <rect class="5f72c15d-efe7-4be1-95cf-0e2c056e3b80" x="87.8137" y="43.3867" width="51.5823" height="73.0496"/>
    </g>
    <g class="6e39b731-0d58-46f3-8d89-b295248b4603">
      <rect class="26256b42-dda0-4377-b818-806cb34687a8" x="78.9733" y="13.9639" width="68.8257" height="68.8448"/>
    </g>
    <g class="a34d38c9-9107-4434-9530-dfbcec8475b0">
      <rect class="ba5f209b-9396-4ee5-a665-bdb971065fc7" x="74.7698" y="72.8094" width="77.2299" height="47.8292"/>
    </g>
    <g class="88f2f248-57b8-4fa0-8288-86ba6e457cdb">
      <rect class="58f93126-8aee-486c-829d-307e2baa45a0" x="97.879" y="72.8094" width="54.1207" height="47.8292"/>
    </g>
    <g class="04f4b3da-3e22-4bb1-9372-a2ba977b8a1d">
      <rect class="ae96599b-5b29-4b55-84ae-9a7763182a03" x="74.7696" y="84.3694" width="77.2298" height="128.7408"/>
    </g>
    <g class="80d9dd8c-7f4c-4a5b-b02f-f5890310892d">
      <rect class="c61a2a2a-b439-4056-836d-008b7d7e39a2" x="112.3689" y="88.4396" width="39.6312" height="54.3072"/>
    </g>
    <g class="13b7ce7e-75cd-445c-ad7b-204ab4c9988f">
      <rect class="c61a2a2a-b439-4056-836d-008b7d7e39a2" x="91.2165" y="123.0356" width="48.179" height="50.2937"/>
    </g>
    <g class="c1681584-9865-4f57-bf8d-223bae20b38c">
      <rect class="2d372322-5327-4fa3-ba1b-dc5f725899c8" x="83.1739" y="84.3684" width="35.1689" height="32.0668"/>
    </g>
    <g class="2c4288c9-0b05-4c29-9779-c622a8a14a11">
      <rect class="ba5f209b-9396-4ee5-a665-bdb971065fc7" x="87.3739" y="33.2542" width="52.0217" height="60.0637"/>
    </g>
    <g class="9004c647-3b95-4c7a-a6c9-af1a4210656e">
      <rect class="58f93126-8aee-486c-829d-307e2baa45a0" x="97.8349" y="33.2542" width="41.5607" height="41.4326"/>
    </g>
    <g class="1b805824-8e3b-4d40-8905-d2b4132642e8">
      <rect class="89dec899-eca4-4cd5-8ace-013b746eb6a2" x="91.6287" y="42.3358" width="22.5044" height="13.9362"/>
    </g>
    <g class="685ca39c-4c04-43a4-bfaf-e8dbe78e1bf5">
      <rect class="89dec899-eca4-4cd5-8ace-013b746eb6a2" x="112.6394" y="42.5583" width="22.5017" height="13.7137"/>
    </g>
    <g class="64f317e4-c423-4f2a-aecb-f18fd751216c">
      <rect class="dc023bd7-b00e-4270-9314-7c4b27a61c26" x="98.9357" y="65.968" width="28.8998" height="15.2766"/>
    </g>
    <g class="8b13e403-2fff-4e4b-b52b-5e0a0013c274">
      <rect class="2d372322-5327-4fa3-ba1b-dc5f725899c8" x="93.7092" y="47.5896" width="18.4041" height="18.4068"/>
    </g>
    <g class="7f445e7b-182f-4320-a403-2f621e9edf99">
      <rect class="2d372322-5327-4fa3-ba1b-dc5f725899c8" x="114.7197" y="47.5896" width="18.404" height="18.4068"/>
    </g>
    <g class="558d8abb-38d0-4fa6-8dcf-a02f7994ad8f">
      <rect class="6697c666-9433-49f1-9a01-0cba582bda91" x="114.961" y="47.5896" width="18.1627" height="18.1653"/>
    </g>
    <g class="5ffb59a4-d662-4f62-89d4-92b203983492">
      <rect class="712ff26a-35d5-417d-b7b1-0fa81122f565" x="95.8108" y="49.6911" width="14.2007" height="14.2034"/>
    </g>
    <g class="23ef4a26-367e-45a7-b66d-865759eb95cd">
      <rect class="712ff26a-35d5-417d-b7b1-0fa81122f565" x="116.8187" y="49.6911" width="14.2033" height="14.2034"/>
    </g>
    <g class="cd1e0244-196e-4401-b1fe-e52aad4161d7">
      <rect class="2d372322-5327-4fa3-ba1b-dc5f725899c8" x="94.7601" y="50.7417" width="12.1017" height="12.101"/>
    </g>
    <g class="b5d6c880-7e96-468c-97ef-214c43c39c81">
      <rect class="2d372322-5327-4fa3-ba1b-dc5f725899c8" x="115.7707" y="50.7417" width="12.0989" height="12.101"/>
    </g>
    <g class="460c0042-a4dd-45b8-9588-9533d19cfd36">
      <rect class="6697c666-9433-49f1-9a01-0cba582bda91" x="108.3426" y="84.3684" width="35.1661" height="32.0668"/>
    </g>
    <g class="2b8ab588-b036-4de1-b19f-9340eeca1583">
      <rect class="26256b42-dda0-4377-b818-806cb34687a8" x="78.9697" y="26.5734" width="68.8299" height="89.8618"/>
    </g>
    <g class="4635749c-88df-4217-abbb-ea60239494a4">
      <rect class="2089bcde-4f6a-4166-aa7d-7bda467a6e0a" x="107.3339" y="46.5399" width="29.9594" height="23.1351"/>
    </g>
    <g class="52022d8e-d69a-4e57-a9e4-aca499873590">
      <rect class="f4133623-3b3c-418a-a80d-7f5034d55b3f" x="89.4755" y="46.5399" width="28.9098" height="23.1351"/>
    </g>
    <g class="0bf09d3b-535b-41df-979c-a7b1524cc3c6">
      <rect class="2d372322-5327-4fa3-ba1b-dc5f725899c8" x="106.2832" y="102.232" width="14.2034" height="14.2034"/>
    </g>
    <g class="a5de4ed9-9e1f-4616-9df8-0541079eba3c">
      <rect class="6697c666-9433-49f1-9a01-0cba582bda91" x="106.9" y="102.8472" width="13.5865" height="13.5876"/>
    </g>
    <g class="355ed748-fcaf-4bfc-8eeb-771070539f6d">
      <rect class="89dec899-eca4-4cd5-8ace-013b746eb6a2" x="103.1338" y="50.7457" width="16.2983" height="20.5051"/>
    </g>
    <g class="64cefa58-96e2-4562-b3af-4ab6d95b928a">
      <rect class="2d372322-5327-4fa3-ba1b-dc5f725899c8" x="106.2832" y="110.6385" width="14.2034" height="14.2034"/>
    </g>
    <g class="480670b3-ef63-4c4c-8f2c-9d367fadf456">
      <rect class="6697c666-9433-49f1-9a01-0cba582bda91" x="106.9" y="111.2544" width="13.5865" height="13.5876"/>
    </g>
    <g class="d58697a5-10bc-4009-846b-2d194cb7b1e9">
      <rect class="2d372322-5327-4fa3-ba1b-dc5f725899c8" x="74.7696" y="173.6866" width="20.5058" height="18.4068"/>
    </g>
    <g class="33dd5348-d8e8-4fe8-9ad1-84546b6759a8">
      <rect class="2d372322-5327-4fa3-ba1b-dc5f725899c8" x="131.4978" y="173.6866" width="20.5017" height="18.4068"/>
    </g>
    <g class="a0e28bde-4d28-4b13-aefc-c1e3decbefec">
      <rect class="2d372322-5327-4fa3-ba1b-dc5f725899c8" x="106.2832" y="119.0449" width="14.2034" height="14.202"/>
    </g>
    <g class="da9ad857-25ea-4626-9403-d2bbabfb0737">
      <rect class="6697c666-9433-49f1-9a01-0cba582bda91" x="106.9" y="119.6601" width="13.5865" height="13.5876"/>
    </g>
    <g class="e3e9d8d7-098b-47c2-b99b-231973aee55b">
      <rect class="2d372322-5327-4fa3-ba1b-dc5f725899c8" x="106.2832" y="127.4504" width="14.2034" height="14.2034"/>
    </g>
    <g class="eae30a92-4b99-48f2-a293-6c5fca357d3d">
      <rect class="6697c666-9433-49f1-9a01-0cba582bda91" x="106.9" y="128.0665" width="13.5865" height="13.5876"/>
    </g>
    <g class="783b2b96-02dd-470b-848e-c3491e868033">
      <rect class="2d372322-5327-4fa3-ba1b-dc5f725899c8" x="76.8717" y="309.5182" width="41.5132" height="14.2048"/>
    </g>
    <g class="b5b6e7fb-7266-4482-85c2-084bed562bdb">
      <rect class="cc4cbcea-475b-436c-b161-13619f2ecb34" x="76.8718" y="301.4492" width="41.5132" height="18.0691"/>
    </g>
    <g class="e6cba1ec-d31c-43ed-8176-5521db7673be">
      <rect class="6697c666-9433-49f1-9a01-0cba582bda91" x="108.3848" y="309.5182" width="41.5159" height="14.2048"/>
    </g>
    <g class="db550acc-caae-425a-adbf-2b22a9cff358">
      <rect class="dc023bd7-b00e-4270-9314-7c4b27a61c26" x="108.3849" y="301.4492" width="41.516" height="18.0691"/>
    </g>
    <g class="d6e91fca-c3e0-448a-a93a-b36f6fd63561">
      <rect class="2d372322-5327-4fa3-ba1b-dc5f725899c8" x="74.7696" y="203.1102" width="77.2298" height="18.4068"/>
    </g>
    <g class="5010d05b-f31b-4a8f-a262-ab8357867cdb">
      <rect class="ba5f209b-9396-4ee5-a665-bdb971065fc7" x="129.3956" y="182.0931" width="22.6048" height="33.1193"/>
    </g>
    <g class="979b7d01-d86f-4e18-99b3-b8f15e327352">
      <rect class="ba5f209b-9396-4ee5-a665-bdb971065fc7" x="74.7696" y="182.0931" width="22.6075" height="33.1193"/>
    </g>
  </g>
</svg>
