<svg id="75e0235d-c540-48a5-8359-7aad9b168b96" data-name="Layer 1" xmlns="http://www.w3.org/2000/svg" xmlns:xlink="http://www.w3.org/1999/xlink" viewBox="0 0 226.77 340.16">
  <defs>
    <style>
      .\31 0db9fb3-3d4d-4232-b664-1467863cb29d, .\37 581aac6-02c0-47c7-b0d9-fdb3f6943aec {
        fill: none;
      }

      .\31 0db9fb3-3d4d-4232-b664-1467863cb29d {
        clip-rule: evenodd;
      }

      .b518d3c1-9c12-4c85-b28d-40bb9d58a10b {
        clip-path: url(#512f7fb9-0ba0-4e12-9e5b-8d0f9935a673);
      }

      .d515ad64-685d-4a67-994b-239c243d281d {
        fill: #a77841;
      }

      .\38 7566af7-4aa8-4584-8b56-636066b595ec {
        clip-path: url(#e2fdd253-baae-4bd2-bda3-3e2066018815);
      }

      .\31 586584f-29ce-44f5-a083-80f1bb4cc8bc {
        fill: #653614;
      }

      .e226ab1c-bdae-4270-8392-b8cc57fd1b50 {
        clip-path: url(#f330b5fb-d49c-46f8-b4b3-8544135dbb2b);
      }

      .\31 694a151-94aa-4bae-ba6d-490741d76353 {
        fill: #3f2410;
      }

      .d726d7f4-8387-49be-8446-6cb1e892bcb8 {
        clip-path: url(#6501a2bc-e536-4ba5-ac15-14d55e14b8c7);
      }

      .\39 8b06ca9-6917-4f07-863d-d325310806c0 {
        fill: #424f55;
      }

      .\34 359c20c-7973-4f65-a8cd-a9099a3eb4c5 {
        clip-path: url(#47eedc05-ee52-44ee-86d2-09528e8fbd88);
      }

      .\38 1811413-6536-4c74-8839-33346e2a41dd {
        fill: #222c30;
      }

      .a458f2b5-105c-4188-b0de-1e79c4bdfc93 {
        clip-path: url(#9161de96-ba5c-486b-8178-abee30dc6355);
      }

      .\31 55bf603-03df-4a14-bfb9-d3ab89eda905 {
        fill: #a4c4e7;
      }

      .\33 b4562e4-b3b5-4a63-b44e-1fcafa8e5554 {
        clip-path: url(#b37f0691-03eb-4a44-9130-6177aa46e9d2);
      }

      .\35 bf2481c-60ec-4c26-973e-6e67247eb236 {
        fill: #c69155;
      }

      .cbd9ce06-f9da-4587-8854-e660fa91e05c {
        clip-path: url(#7067cbbb-141b-44fe-8845-6ea5c900efda);
      }

      .\39 9cc4493-b73b-465f-9af5-2fdce63531ed {
        clip-path: url(#0c495a85-af0d-4610-bda3-9c970d28d405);
      }

      .\37 c3d7b88-d247-4367-bc5d-36b82fa72a7e {
        fill: #e7b174;
      }

      .b51ff16c-f10c-483c-81f6-39c97661895e {
        clip-path: url(#1d8c63c1-d28e-4bd0-ac59-cb548ab9d08b);
      }

      .\35 95fecce-e045-4cb9-bc46-165a8536e9fa {
        clip-path: url(#9edcd2ed-9433-4094-8d55-ef35cb7407ce);
      }

      .\32 d51913c-c105-480c-8389-e94588cede9d {
        clip-path: url(#d8055eea-bece-4aa7-bdd4-c5c5a613e4c6);
      }

      .a5e2e266-00e8-4675-aca4-668965d8ca7c {
        clip-path: url(#74f1e8db-9871-4c8e-9250-e9cfb1863b5a);
      }

      .\39 d243d04-0e1e-40ec-9aee-66c64fd6d88f {
        fill: #fff;
      }

      .dcbd687b-9117-4b2f-bfd6-9cb1e9287123 {
        clip-path: url(#ad4d1464-533b-4f6b-9016-ca496ef67938);
      }

      .e27a2fe0-4238-4ae9-b45c-6517984b6f0f {
        fill: #e5e5e4;
      }

      .f134f6fb-d8ef-4426-8175-53384ca95461 {
        clip-path: url(#21059394-13bb-4b70-9776-5eb16365f0bc);
      }

      .\32 3332ac3-745c-4e6c-a7ef-708b295c2dce {
        fill: #41494d;
      }

      .\38 cc929b2-d0b8-4547-868a-e38fdc276788 {
        clip-path: url(#2f046919-326d-4a50-94a1-592cdbd25f1c);
      }

      .d9ee4a36-a833-4d5b-b35f-fa419da2349c {
        clip-path: url(#279d04b6-bc2e-4aff-b5ab-a7e9e853cfa2);
      }

      .\30 da0b2fb-6a98-432f-8466-905de1dfd491 {
        clip-path: url(#176e61b7-8dda-4f04-909a-7508f032cce6);
      }

      .\33 22391e4-58e9-4fe2-aed4-cb807b8aadb7 {
        clip-path: url(#c1c52f0e-1a94-47f6-8f10-14d0e447e841);
      }

      .\36 73428d2-968e-4146-bd55-75fca626b99c {
        clip-path: url(#95f90b34-1267-4ff6-8da2-d5862f448b0f);
      }

      .a1b39c10-23bc-4e61-bc05-b55a76473972 {
        clip-path: url(#f479554f-a8f0-43e7-99a1-f5415b43b6ee);
      }

      .\35 ea0790c-def5-43af-b3b7-613b33913814 {
        clip-path: url(#17db92b0-8902-4474-957a-c46dc39453a4);
      }

      .\32 d8fc1e6-e1f0-4f0d-b52e-7fea73c85d50 {
        clip-path: url(#a9b91121-27ae-456b-9e02-340291897b45);
      }

      .a0cea827-c170-4698-8405-91717c284f60 {
        clip-path: url(#d806fa92-d08e-4408-a30b-f8a61b158365);
      }

      .b5bb5900-630e-4b57-b1ef-2742f565e2a6 {
        clip-path: url(#00c8cda2-14c6-4ab8-8831-af6e32107598);
      }

      .\34 d73ea58-79b8-4393-9b3f-654eb44ca057 {
        clip-path: url(#98619b45-1932-4a7d-9b6c-44683c7b6605);
      }

      .\39 d549c3e-afe4-4266-9b95-6d2b5c42ac4a {
        clip-path: url(#ec5e8ec2-6488-46f9-8893-ea6e67f6ac67);
      }

      .\37 732c145-656c-4852-aec2-d4c41445bed6 {
        clip-path: url(#9c988598-89ee-48c8-bf2c-8f197ecb4055);
      }

      .b58074f1-c443-40d8-9fc9-b7adefbb3a25 {
        clip-path: url(#04400b27-e96a-4c8b-9bae-3248eba394c8);
      }

      .d4322f0f-de66-45da-bad1-082782fec924 {
        fill: #c93827;
      }

      .\32 fa55602-cdd7-4c5c-9c69-cb865b7cd610 {
        clip-path: url(#9cea308c-bd16-412e-9710-7972ba034bbd);
      }

      .\33 6ad0694-026b-428c-a504-911b6d26eb3c {
        fill: #971b1e;
      }

      .\30 5cab103-1e42-4ffe-902b-2d2008448d7a {
        clip-path: url(#eb79f33f-93da-4c6e-9c50-e8411c40f844);
      }

      .\36 9b49599-7688-49af-ad25-fd7152b9d38f {
        fill: #77878e;
      }

      .\35 8ba3574-2f6d-4a33-94b3-9d38ab1a79d2 {
        clip-path: url(#793f91bf-3094-42ac-9838-ebb3795dd276);
      }

      .\34 81a73b9-e7e0-428d-835c-e57d818e792b {
        fill: #9fb2b9;
      }

      .\31 e9be225-14e8-49eb-9d4b-1831b673bc93 {
        clip-path: url(#1c2b8cbe-d761-442f-a4a8-1029b0aa0629);
      }

      .\37 396afda-4c05-4fcb-9d96-83491622b490 {
        clip-path: url(#c580b4f8-7565-413c-b78d-c3dded142ae7);
      }

      .ce40a965-a0d1-404b-8d45-ecff0b59ce4c {
        clip-path: url(#3412a430-69fe-4609-97f3-347b99315998);
      }

      .\37 5421ff1-ee6e-4f81-a1b1-c06ff8ac707c {
        clip-path: url(#d7b28398-ff5b-4680-85e8-fd83beaf0de4);
      }

      .\32 a1af032-a560-413c-aa99-5887bb1676bc {
        clip-path: url(#4b5afb74-d92f-4133-913b-53e215dad7be);
      }

      .\32 b09a671-87ae-4fd9-8a67-06e23fc4f6ea {
        clip-path: url(#3fd04379-519b-47d1-921a-1920a9539090);
      }

      .cc6515ec-6252-4545-af70-a20aebaf8d5f {
        fill: #789bc7;
      }

      .\38 08e02cb-f01c-45d4-9e47-0b60d574745c {
        clip-path: url(#0add3dba-4450-4ece-a779-a1235e181342);
      }

      .b7d678d5-1941-4674-890a-8da165bde712 {
        clip-path: url(#813e1c03-e9ea-487b-bd43-05cbf9fa4f4d);
      }

      .a10bbbf4-00d5-4d79-a384-a587995467a2 {
        clip-path: url(#2f30f66b-a943-4767-bc3e-764b31f5a7ab);
      }

      .\36 7c9c5fe-aa5c-446c-8bad-cb63bcbb190e {
        clip-path: url(#73d46b4e-9a57-40df-872f-d18f54e38b41);
      }

      .ab327478-c20b-4eda-a5fe-5ab97bfd4b84 {
        clip-path: url(#99994398-4630-4499-8497-0592a30bc142);
      }

      .a7e7c4fa-e584-43d7-bf57-725e5798e118 {
        clip-path: url(#7395ff79-7e8a-415b-9766-f2b2fa5c8f44);
      }

      .dfd92afe-5f69-4d55-b10f-f4673b1fb5ea {
        clip-path: url(#74751eb3-7a4f-4905-823b-b116eb5a4345);
      }

      .\34 dbd5a41-6639-46a8-ab13-9bd48f3d739f {
        clip-path: url(#8dc53752-f211-4e2d-9c77-1fd77ad3fbbc);
      }

      .ee1e64e5-490c-457a-9277-e25e75211931 {
        clip-path: url(#e50abd79-2349-41ca-afea-93927543d9e6);
      }

      .\35 4c5a490-f951-4262-adc1-61d78d6755c4 {
        clip-path: url(#c436e6e8-3c00-4bdf-9ec0-2532cf33905c);
      }

      .\39 76f30c9-b7ae-42be-bab1-7b2e24c57e61 {
        clip-path: url(#a5d92842-3fef-4b79-911f-d5e56f41ff3b);
      }

      .\36 e2e36cf-3f17-4ae2-a6de-132f5b3f598c {
        clip-path: url(#aeec2e62-8455-4e98-8e21-8b21cb82287f);
      }

      .\33 e0a463a-4869-4544-aedf-1a07ce4a158a {
        clip-path: url(#aa1a0537-4471-40a1-8d65-0fb40d842b2e);
      }
    </style>
    <clipPath id="512f7fb9-0ba0-4e12-9e5b-8d0f9935a673">
      <rect class="7581aac6-02c0-47c7-b0d9-fdb3f6943aec" x="100.7793" y="79.6085" width="25.2109" height="29.4238"/>
    </clipPath>
    <clipPath id="e2fdd253-baae-4bd2-bda3-3e2066018815">
      <path class="10db9fb3-3d4d-4232-b664-1467863cb29d" d="M92.3756,58.5917a4.2007,4.2007,0,0,1-4.2006-4.2034,4.2033,4.2033,0,0,0,4.2006-4.2034H96.579V62.7937a4.202,4.202,0,1,1-8.404,0,4.2013,4.2013,0,0,0,4.2006-4.202"/>
    </clipPath>
    <clipPath id="f330b5fb-d49c-46f8-b4b3-8544135dbb2b">
      <path class="10db9fb3-3d4d-4232-b664-1467863cb29d" d="M134.3942,58.5917a4.203,4.203,0,0,0,4.2034-4.2034,4.2039,4.2039,0,0,1-4.2034-4.2034h-4.2007V62.7937a4.202,4.202,0,1,0,8.4041,0,4.2019,4.2019,0,0,1-4.2034-4.202"/>
    </clipPath>
    <clipPath id="6501a2bc-e536-4ba5-ac15-14d55e14b8c7">
      <path class="10db9fb3-3d4d-4232-b664-1467863cb29d" d="M75.5683,136.3519V109.0305c0-4.202,2.1315-5.2708,4.2034-6.3044L100.7792,92.217a12.6054,12.6054,0,1,0,25.2108,0l21.0115,10.5091c2.0678,1.0336,4.2034,2.1038,4.2034,6.3044v27.3214H138.5975v56.7438H88.1758V136.3519H75.5683Z"/>
    </clipPath>
    <clipPath id="47eedc05-ee52-44ee-86d2-09528e8fbd88">
      <path class="10db9fb3-3d4d-4232-b664-1467863cb29d" d="M104.6094,101.2694a12.6039,12.6039,0,0,0,21.3817-9.0524l21.01,10.5091c2.0678,1.0336,4.2034,2.1038,4.2034,6.3058v27.32H138.5972v44.135l-12.6061-.0014L117.587,172.08l8.4041-49.4221Z"/>
    </clipPath>
    <clipPath id="9161de96-ba5c-486b-8178-abee30dc6355">
      <path class="10db9fb3-3d4d-4232-b664-1467863cb29d" d="M100.7794,92.2175a12.6228,12.6228,0,0,0,8.4041,11.8927v67.9691H88.1747V136.2046a26.9853,26.9853,0,0,0,4.2007-14.5633V109.0487a8.3961,8.3961,0,0,0-8.4027-8.4244Z"/>
    </clipPath>
    <clipPath id="b37f0691-03eb-4a44-9130-6177aa46e9d2">
      <path class="10db9fb3-3d4d-4232-b664-1467863cb29d" d="M134.3942,54.3879a4.2034,4.2034,0,1,0,4.2034,4.2034,4.2034,4.2034,0,0,0-4.2034-4.2034"/>
    </clipPath>
    <clipPath id="7067cbbb-141b-44fe-8845-6ea5c900efda">
      <path class="10db9fb3-3d4d-4232-b664-1467863cb29d" d="M134.3942,56.4894a2.1017,2.1017,0,1,0,2.1017,2.1024,2.1008,2.1008,0,0,0-2.1017-2.1024"/>
    </clipPath>
    <clipPath id="0c495a85-af0d-4610-bda3-9c970d28d405">
      <path class="10db9fb3-3d4d-4232-b664-1467863cb29d" d="M92.3756,54.3879a4.2034,4.2034,0,1,0,4.2034,4.2034,4.2016,4.2016,0,0,0-4.2034-4.2034"/>
    </clipPath>
    <clipPath id="1d8c63c1-d28e-4bd0-ac59-cb548ab9d08b">
      <path class="10db9fb3-3d4d-4232-b664-1467863cb29d" d="M92.3756,56.4894a2.1017,2.1017,0,1,0,2.1017,2.1024,2.103,2.103,0,0,0-2.1017-2.1024"/>
    </clipPath>
    <clipPath id="9edcd2ed-9433-4094-8d55-ef35cb7407ce">
      <path class="10db9fb3-3d4d-4232-b664-1467863cb29d" d="M113.3864,29.1687c11.5566,0,19.9566,9.458,19.9566,21.017V71.2013c0,11.559-8.4027,21.0157-19.9566,21.0157C101.83,92.217,93.427,82.76,93.427,71.2013V50.1857c0-11.56,8.4027-21.017,19.9594-21.017"/>
    </clipPath>
    <clipPath id="d8055eea-bece-4aa7-bdd4-c5c5a613e4c6">
      <path class="10db9fb3-3d4d-4232-b664-1467863cb29d" d="M113.3864,29.1687c11.5566,0,19.9566,9.458,19.9566,21.017V71.2013A21.7254,21.7254,0,0,1,127.9477,85.77L93.427,51.2355v-1.05c0-11.56,8.4027-21.017,19.9594-21.017"/>
    </clipPath>
    <clipPath id="74f1e8db-9871-4c8e-9250-e9cfb1863b5a">
      <path class="10db9fb3-3d4d-4232-b664-1467863cb29d" d="M102.8811,54.3879a4.2034,4.2034,0,1,1-4.2034,4.2034,4.2016,4.2016,0,0,1,4.2034-4.2034"/>
    </clipPath>
    <clipPath id="ad4d1464-533b-4f6b-9016-ca496ef67938">
      <path class="10db9fb3-3d4d-4232-b664-1467863cb29d" d="M123.8918,54.3879a4.2041,4.2041,0,1,1-4.2033,4.2034,4.2033,4.2033,0,0,1,4.2033-4.2034"/>
    </clipPath>
    <clipPath id="21059394-13bb-4b70-9776-5eb16365f0bc">
      <path class="10db9fb3-3d4d-4232-b664-1467863cb29d" d="M102.8811,56.4894a2.1017,2.1017,0,1,1-2.1017,2.1024,2.103,2.103,0,0,1,2.1017-2.1024"/>
    </clipPath>
    <clipPath id="2f046919-326d-4a50-94a1-592cdbd25f1c">
      <path class="10db9fb3-3d4d-4232-b664-1467863cb29d" d="M92.3756,48.0837h2.1017V66.9983a4.2034,4.2034,0,0,0,4.2007,4.2034,14.7058,14.7058,0,0,0,25.9973,9.4268l9.9214,9.9219a4.1864,4.1864,0,0,1-2.8461,1.6358,4.21,4.21,0,0,1-5.1485,1.8609,4.2023,4.2023,0,0,1-5.76,1.88,3.5359,3.5359,0,0,1-3.2556,1.5449h-8.4027a4.1926,4.1926,0,0,1-3.2556-1.5449,4.2023,4.2023,0,0,1-5.76-1.88,4.2066,4.2066,0,0,1-5.1458-1.8609,4.2,4.2,0,0,1-3.6976-4.1709,4.2045,4.2045,0,0,0,3.8305-2.474A4.2041,4.2041,0,0,1,89.2231,81.71a4.2036,4.2036,0,0,0,3.6583-2.1323,4.1232,4.1232,0,0,1-.5058.0312,4.2016,4.2016,0,0,1-4.2006-4.2034,4.1688,4.1688,0,0,0,2.099-.5629,4.2,4.2,0,0,1-2.099-3.6405,4.1688,4.1688,0,0,0,2.099-.5629,4.2,4.2,0,0,1-2.099-3.6405,4.2,4.2,0,0,0,4.2006-4.19V48.0837Z"/>
    </clipPath>
    <clipPath id="279d04b6-bc2e-4aff-b5ab-a7e9e853cfa2">
      <path class="10db9fb3-3d4d-4232-b664-1467863cb29d" d="M123.7864,81.604a14.6766,14.6766,0,0,0,4.3064-10.402,4.2039,4.2039,0,0,0,4.2034-4.2034V48.084h2.0976V62.8088a4.2071,4.2071,0,0,0,4.2034,4.19,4.2028,4.2028,0,0,1-2.1017,3.6405,4.1827,4.1827,0,0,0,2.1017.5629,4.2028,4.2028,0,0,1-2.1017,3.6405,4.1958,4.1958,0,0,0,2.1017.5616,4.2029,4.2029,0,0,1-4.2034,4.2033,4.14,4.14,0,0,1-.5057-0.03,4.2033,4.2033,0,0,0,3.6583,2.1322,4.203,4.203,0,0,1-5.9309,3.8318,4.2012,4.2012,0,0,0,3.8292,2.474,4.2134,4.2134,0,0,1-1.8007,3.4506Z"/>
    </clipPath>
    <clipPath id="176e61b7-8dda-4f04-909a-7508f032cce6">
      <path class="10db9fb3-3d4d-4232-b664-1467863cb29d" d="M123.8918,56.4894a2.1017,2.1017,0,1,1-2.1016,2.1024,2.1007,2.1007,0,0,1,2.1016-2.1024"/>
    </clipPath>
    <clipPath id="c1c52f0e-1a94-47f6-8f10-14d0e447e841">
      <path class="10db9fb3-3d4d-4232-b664-1467863cb29d" d="M100.7794,57.5406a1.0506,1.0506,0,1,1-1.0508,1.0512,1.05,1.05,0,0,1,1.0508-1.0512"/>
    </clipPath>
    <clipPath id="95f90b34-1267-4ff6-8da2-d5862f448b0f">
      <path class="10db9fb3-3d4d-4232-b664-1467863cb29d" d="M134.3942,49.5748V41.7784a16.86,16.86,0,0,0-16.8081-16.8122h-8.4027A16.8606,16.8606,0,0,0,92.3752,41.7784v7.7964a63.2216,63.2216,0,0,1,42.019,0"/>
    </clipPath>
    <clipPath id="f479554f-a8f0-43e7-99a1-f5415b43b6ee">
      <path class="10db9fb3-3d4d-4232-b664-1467863cb29d" d="M134.3942,49.5748V41.7784a16.86,16.86,0,0,0-16.8081-16.8122h-4.1993V45.9818a62.882,62.882,0,0,1,21.0074,3.593"/>
    </clipPath>
    <clipPath id="17db92b0-8902-4474-957a-c46dc39453a4">
      <path class="10db9fb3-3d4d-4232-b664-1467863cb29d" d="M121.79,57.5406a1.0506,1.0506,0,1,1-1.0509,1.0512,1.0528,1.0528,0,0,1,1.0509-1.0512"/>
    </clipPath>
    <clipPath id="a9b91121-27ae-456b-9e02-340291897b45">
      <path class="10db9fb3-3d4d-4232-b664-1467863cb29d" d="M102.8721,71.1886l2.1111-.0014a2.11,2.11,0,0,0,2.1017-2.0942,2.2444,2.2444,0,0,1,2.0922-2.0942l6.3051,2.09,0.0054,4.1926a3.1546,3.1546,0,0,1-2.1016-.7949,3.1575,3.1575,0,0,1-2.1017.7949l-8.4122.004A3.137,3.137,0,0,1,99.729,70.151a1.0508,1.0508,0,1,1,2.1017,0,1.029,1.029,0,0,0,1.0414,1.0376"/>
    </clipPath>
    <clipPath id="d806fa92-d08e-4408-a30b-f8a61b158365">
      <path class="10db9fb3-3d4d-4232-b664-1467863cb29d" d="M109.1831,66.9982h8.4095a2.25,2.25,0,0,1,2.0963,2.0942,2.1047,2.1047,0,0,0,2.1017,2.0943l2.11,0.0013A1.0266,1.0266,0,0,0,124.939,70.15a1.0509,1.0509,0,1,1,2.1017,0,3.1277,3.1277,0,0,1-3.14,3.1359l-8.4122-.004-0.0244-.0014Z"/>
    </clipPath>
    <clipPath id="00c8cda2-14c6-4ab8-8831-af6e32107598">
      <path class="10db9fb3-3d4d-4232-b664-1467863cb29d" d="M108.358,53.6906a1.0463,1.0463,0,1,1-1.5593,1.3957,5.2626,5.2626,0,0,0-7.8346,0,1.0464,1.0464,0,1,1-1.5593-1.3957,7.3359,7.3359,0,0,1,10.9532,0"/>
    </clipPath>
    <clipPath id="98619b45-1932-4a7d-9b6c-44683c7b6605">
      <path class="10db9fb3-3d4d-4232-b664-1467863cb29d" d="M129.3687,53.6906a1.0463,1.0463,0,0,1-1.5593,1.3957,5.2671,5.2671,0,0,0-7.8386,0,1.0449,1.0449,0,1,1-1.5553-1.3957,7.3359,7.3359,0,0,1,10.9532,0"/>
    </clipPath>
    <clipPath id="ec5e8ec2-6488-46f9-8893-ea6e67f6ac67">
      <path class="10db9fb3-3d4d-4232-b664-1467863cb29d" d="M111.2848,62.7941a2.1017,2.1017,0,0,0,0,4.2034h6.3024l-4.2007-4.2034h-2.1017Z"/>
    </clipPath>
    <clipPath id="9c988598-89ee-48c8-bf2c-8f197ecb4055">
      <path class="10db9fb3-3d4d-4232-b664-1467863cb29d" d="M112.3388,58.5917a1.0461,1.0461,0,1,1,2.0922,0v4.202a1.0479,1.0479,0,0,1-1.0441,1.0512h-2.1017a1.0533,1.0533,0,0,0,0,2.1065h2.1017a1.0464,1.0464,0,0,1,0,2.0928l-2.1017.0041a3.1522,3.1522,0,1,1,0-6.3044h1.0536V58.5917Z"/>
    </clipPath>
    <clipPath id="04400b27-e96a-4c8b-9bae-3248eba394c8">
      <path class="10db9fb3-3d4d-4232-b664-1467863cb29d" d="M113.3864,24.9655A16.8593,16.8593,0,0,0,96.58,41.7777V48.253a63.0048,63.0048,0,0,1,16.8068-2.2719l4.2006-8.4054Z"/>
    </clipPath>
    <clipPath id="9cea308c-bd16-412e-9710-7972ba034bbd">
      <path class="10db9fb3-3d4d-4232-b664-1467863cb29d" d="M113.3864,24.9655h0V45.9811a63.0455,63.0455,0,0,1,16.8081,2.2719V41.7777a16.8605,16.8605,0,0,0-16.8081-16.8122"/>
    </clipPath>
    <clipPath id="eb79f33f-93da-4c6e-9c50-e8411c40f844">
      <path class="10db9fb3-3d4d-4232-b664-1467863cb29d" d="M113.3864,44.931a64.4218,64.4218,0,0,1,10.8515.92,63.5905,63.5905,0,0,1,10.5057,2.7358,1.0482,1.0482,0,1,1-.6955,1.9776,61.8668,61.8668,0,0,0-20.6617-3.532l-1.0509-1.0512Z"/>
    </clipPath>
    <clipPath id="793f91bf-3094-42ac-9838-ebb3795dd276">
      <path class="10db9fb3-3d4d-4232-b664-1467863cb29d" d="M92.7249,50.5641a1.0492,1.0492,0,0,1-.6983-1.9789,64.0386,64.0386,0,0,1,21.36-3.6541v2.101a62.2859,62.2859,0,0,0-10.499.8871,61.5985,61.5985,0,0,0-10.1627,2.6449"/>
    </clipPath>
    <clipPath id="1c2b8cbe-d761-442f-a4a8-1029b0aa0629">
      <path class="10db9fb3-3d4d-4232-b664-1467863cb29d" d="M88.1754,180.4864h50.4217v45.4113l-23.1119-22.2933a2.1,2.1,0,1,0-4.2007,0l-8.4027,98.7777H88.1754V180.4864Z"/>
    </clipPath>
    <clipPath id="c580b4f8-7565-413c-b78d-c3dded142ae7">
      <path class="10db9fb3-3d4d-4232-b664-1467863cb29d" d="M138.5976,225.898v76.4844H123.8912l-8.4055-98.7778a2.4441,2.4441,0,0,0-.5762-1.4011Z"/>
    </clipPath>
    <clipPath id="3412a430-69fe-4609-97f3-347b99315998">
      <polygon class="10db9fb3-3d4d-4232-b664-1467863cb29d" points="125.99 180.486 138.598 180.486 138.598 193.097 125.99 180.486"/>
    </clipPath>
    <clipPath id="d7b28398-ff5b-4680-85e8-fd83beaf0de4">
      <path class="10db9fb3-3d4d-4232-b664-1467863cb29d" d="M88.1754,216.2137a1.0508,1.0508,0,1,1-2.1017,0V212.01a1.0509,1.0509,0,1,0-2.1017,0v6.3058a1.0509,1.0509,0,0,1-2.1017.0136v1.0376a1.0495,1.0495,0,1,1-2.099,0v-1.0512a1.0509,1.0509,0,1,1-2.1017,0v-3.1522a1.0508,1.0508,0,0,1-2.1017,0v-78.812H88.1754v79.8618Z"/>
    </clipPath>
    <clipPath id="4b5afb74-d92f-4133-913b-53e215dad7be">
      <path class="10db9fb3-3d4d-4232-b664-1467863cb29d" d="M125.99,92.2175a12.6227,12.6227,0,0,1-8.404,11.8927v67.9691h21.0115V136.2046a27.1888,27.1888,0,0,1-4.2034-14.5633V109.0487a8.4006,8.4006,0,0,1,8.4041-8.4244Z"/>
    </clipPath>
    <clipPath id="3fd04379-519b-47d1-921a-1920a9539090">
      <path class="10db9fb3-3d4d-4232-b664-1467863cb29d" d="M125.99,92.2175a12.6227,12.6227,0,0,1-8.404,11.8927v10.14L137.36,134.03a27.2187,27.2187,0,0,1-2.9654-12.3891V109.0487a8.4006,8.4006,0,0,1,8.4041-8.4244Z"/>
    </clipPath>
    <clipPath id="0add3dba-4450-4ece-a779-a1235e181342">
      <path class="10db9fb3-3d4d-4232-b664-1467863cb29d" d="M138.5976,216.2137a1.0509,1.0509,0,1,0,2.1017,0V212.01a1.05,1.05,0,1,1,2.099,0v6.3058a1.0509,1.0509,0,0,0,2.1017.0136v1.0376a1.0509,1.0509,0,0,0,2.1017,0v-1.0512a1.0508,1.0508,0,1,0,2.1017,0v-3.1522a1.0488,1.0488,0,1,0,2.0976,0l0.0041-78.812H138.5976v79.8618Z"/>
    </clipPath>
    <clipPath id="813e1c03-e9ea-487b-bd43-05cbf9fa4f4d">
      <path class="10db9fb3-3d4d-4232-b664-1467863cb29d" d="M138.5976,216.2137a1.0509,1.0509,0,1,0,2.1017,0V212.01a1.05,1.05,0,1,1,2.099,0v6.3058a1.0509,1.0509,0,0,0,2.1017.0136v1.0376a1.0509,1.0509,0,0,0,2.1017,0v-1.0512a1.0508,1.0508,0,1,0,2.1017,0v-3.1522a1.0488,1.0488,0,1,0,2.0976,0v-9.458l-12.6034-12.6088v23.1166Z"/>
    </clipPath>
    <clipPath id="2f30f66b-a943-4767-bc3e-764b31f5a7ab">
      <path class="10db9fb3-3d4d-4232-b664-1467863cb29d" d="M67.1647,314.99H104.983v3.1536a1.0555,1.0555,0,0,1-1.0509,1.0512H68.2155a1.0545,1.0545,0,0,1-1.0508-1.0512V314.99Z"/>
    </clipPath>
    <clipPath id="73d46b4e-9a57-40df-872f-d18f54e38b41">
      <path class="10db9fb3-3d4d-4232-b664-1467863cb29d" d="M102.9022,300.2793a1.0545,1.0545,0,0,1,1.0508,1.0512v2.101a1.052,1.052,0,0,1-.4637.8708,51.5678,51.5678,0,0,1,1.4847,10.6868H67.1652a3.9726,3.9726,0,0,1,2.86-3.9823l12.45-2.767a7.5335,7.5335,0,0,0,4.8366-4.2414,1.0479,1.0479,0,0,1-.1654-0.567v-2.101a1.0529,1.0529,0,0,1,1.0292-1.0512h14.7268Z"/>
    </clipPath>
    <clipPath id="99994398-4630-4499-8497-0592a30bc142">
      <path class="10db9fb3-3d4d-4232-b664-1467863cb29d" d="M103.7876,305.6077c0.1505,0.6836.2861,1.3754,0.4122,2.0685A7.3523,7.3523,0,0,0,97.63,314.99H95.5286a9.4519,9.4519,0,0,1,8.259-9.382M85.0228,314.99H82.9211a3.1484,3.1484,0,0,0-3.15-3.1522h-11.3a3.3193,3.3193,0,0,1,1.5539-.8315l5.7152-1.27h4.0312a5.2553,5.2553,0,0,1,5.2515,5.2532"/>
    </clipPath>
    <clipPath id="7395ff79-7e8a-415b-9766-f2b2fa5c8f44">
      <rect class="7581aac6-02c0-47c7-b0d9-fdb3f6943aec" x="75.5685" y="190.9951" width="6.3023" height="4.2034"/>
    </clipPath>
    <clipPath id="74751eb3-7a4f-4905-823b-b116eb5a4345">
      <rect class="7581aac6-02c0-47c7-b0d9-fdb3f6943aec" x="81.8708" y="190.9951" width="6.3051" height="4.2034"/>
    </clipPath>
    <clipPath id="8dc53752-f211-4e2d-9c77-1fd77ad3fbbc">
      <path class="10db9fb3-3d4d-4232-b664-1467863cb29d" d="M81.87,188.8921a4.2034,4.2034,0,1,1-4.2007,4.2034,4.2039,4.2039,0,0,1,4.2007-4.2034"/>
    </clipPath>
    <clipPath id="e50abd79-2349-41ca-afea-93927543d9e6">
      <path class="10db9fb3-3d4d-4232-b664-1467863cb29d" d="M81.87,190.9944a2.1017,2.1017,0,1,1-2.099,2.1011,2.1,2.1,0,0,1,2.099-2.1011"/>
    </clipPath>
    <clipPath id="c436e6e8-3c00-4bdf-9ec0-2532cf33905c">
      <path class="10db9fb3-3d4d-4232-b664-1467863cb29d" d="M101.8306,148.9616a13.6546,13.6546,0,0,1-13.6556,13.66v-2.101a11.557,11.557,0,0,0,11.5539-11.559h2.1017Zm23.1091,0a13.6593,13.6593,0,0,0,13.6583,13.66v-2.101a11.5569,11.5569,0,0,1-11.5566-11.559H124.94Z"/>
    </clipPath>
    <clipPath id="a5d92842-3fef-4b79-911f-d5e56f41ff3b">
      <path class="10db9fb3-3d4d-4232-b664-1467863cb29d" d="M159.6053,314.99H121.79v3.1536a1.0555,1.0555,0,0,0,1.0509,1.0512h35.7166a1.0539,1.0539,0,0,0,1.0481-1.0512V314.99Z"/>
    </clipPath>
    <clipPath id="aeec2e62-8455-4e98-8e21-8b21cb82287f">
      <path class="10db9fb3-3d4d-4232-b664-1467863cb29d" d="M123.8707,300.2793a1.0546,1.0546,0,0,0-1.0509,1.0512v2.101a1.0565,1.0565,0,0,0,.4611.8708,51.5742,51.5742,0,0,0-1.4848,10.6868h37.8088a3.97,3.97,0,0,0-2.8569-3.9823l-12.4543-2.767a7.535,7.535,0,0,1-4.8352-4.2414,1.0491,1.0491,0,0,0,.1681-0.567v-2.101a1.0528,1.0528,0,0,0-1.0291-1.0512H123.8707Z"/>
    </clipPath>
    <clipPath id="aa1a0537-4471-40a1-8d65-0fb40d842b2e">
      <path class="10db9fb3-3d4d-4232-b664-1467863cb29d" d="M122.9823,305.6077c-0.1478.6836-.2861,1.3754-0.41,2.0685a7.3524,7.3524,0,0,1,6.57,7.3136h2.103a9.4594,9.4594,0,0,0-8.263-9.382m18.7647,9.382h2.1017a3.1556,3.1556,0,0,1,3.1526-3.1522h11.2976a3.3244,3.3244,0,0,0-1.5512-.8315l-5.718-1.27h-4.0284a5.2553,5.2553,0,0,0-5.2543,5.2532"/>
    </clipPath>
  </defs>
  <title>people</title>
  <g>
    <g class="b518d3c1-9c12-4c85-b28d-40bb9d58a10b">
      <rect class="d515ad64-685d-4a67-994b-239c243d281d" x="95.7793" y="74.6085" width="35.2109" height="39.4238"/>
    </g>
    <g class="87566af7-4aa8-4584-8b56-636066b595ec">
      <rect class="1586584f-29ce-44f5-a083-80f1bb4cc8bc" x="83.175" y="45.1849" width="18.404" height="26.8136"/>
    </g>
    <g class="e226ab1c-bdae-4270-8392-b8cc57fd1b50">
      <rect class="1694a151-94aa-4bae-ba6d-490741d76353" x="125.1935" y="45.1849" width="18.4041" height="26.8136"/>
    </g>
    <g class="d726d7f4-8387-49be-8446-6cb1e892bcb8">
      <rect class="98b06ca9-6917-4f07-863d-d325310806c0" x="70.5683" y="87.217" width="85.6366" height="110.8787"/>
    </g>
    <g class="4359c20c-7973-4f65-a8cd-a9099a3eb4c5">
      <rect class="81811413-6536-4c74-8839-33346e2a41dd" x="99.6094" y="87.217" width="56.5953" height="98.2699"/>
    </g>
    <g class="a458f2b5-105c-4188-b0de-1e79c4bdfc93">
      <rect class="155bf603-03df-4a14-bfb9-d3ab89eda905" x="78.9727" y="87.2175" width="35.2108" height="89.8618"/>
    </g>
    <g class="3b4562e4-b3b5-4a63-b44e-1fcafa8e5554">
      <rect class="5bf2481c-60ec-4c26-973e-6e67247eb236" x="125.1935" y="49.3879" width="18.4041" height="18.4068"/>
    </g>
    <g class="cbd9ce06-f9da-4587-8854-e660fa91e05c">
      <rect class="d515ad64-685d-4a67-994b-239c243d281d" x="127.2952" y="51.4894" width="14.2007" height="14.2034"/>
    </g>
    <g class="99cc4493-b73b-465f-9af5-2fdce63531ed">
      <rect class="7c3d7b88-d247-4367-bc5d-36b82fa72a7e" x="83.175" y="49.3879" width="18.404" height="18.4068"/>
    </g>
    <g class="b51ff16c-f10c-483c-81f6-39c97661895e">
      <rect class="5bf2481c-60ec-4c26-973e-6e67247eb236" x="85.274" y="51.4894" width="14.2033" height="14.2034"/>
    </g>
    <g class="595fecce-e045-4cb9-bc46-165a8536e9fa">
      <rect class="7c3d7b88-d247-4367-bc5d-36b82fa72a7e" x="88.427" y="24.1687" width="49.916" height="73.0483"/>
    </g>
    <g class="2d51913c-c105-480c-8389-e94588cede9d">
      <rect class="5bf2481c-60ec-4c26-973e-6e67247eb236" x="88.427" y="24.1687" width="49.916" height="66.6014"/>
    </g>
    <g class="a5e2e266-00e8-4675-aca4-668965d8ca7c">
      <rect class="9d243d04-0e1e-40ec-9aee-66c64fd6d88f" x="93.6777" y="49.3879" width="18.4041" height="18.4068"/>
    </g>
    <g class="dcbd687b-9117-4b2f-bfd6-9cb1e9287123">
      <rect class="e27a2fe0-4238-4ae9-b45c-6517984b6f0f" x="114.6885" y="49.3879" width="18.404" height="18.4081"/>
    </g>
    <g class="f134f6fb-d8ef-4426-8175-53384ca95461">
      <rect class="23332ac3-745c-4e6c-a7ef-708b295c2dce" x="95.7794" y="51.4894" width="14.2034" height="14.2034"/>
    </g>
    <g class="8cc929b2-d0b8-4547-868a-e38fdc276788">
      <rect class="1586584f-29ce-44f5-a083-80f1bb4cc8bc" x="83.175" y="43.0837" width="56.4217" height="59.3882"/>
    </g>
    <g class="d9ee4a36-a833-4d5b-b35f-fa419da2349c">
      <rect class="1694a151-94aa-4bae-ba6d-490741d76353" x="118.7864" y="43.084" width="24.8108" height="53.3822"/>
    </g>
    <g class="0da0b2fb-6a98-432f-8466-905de1dfd491">
      <rect class="23332ac3-745c-4e6c-a7ef-708b295c2dce" x="116.7902" y="51.4894" width="14.2006" height="14.2034"/>
    </g>
    <g class="322391e4-58e9-4fe2-aed4-cb807b8aadb7">
      <rect class="9d243d04-0e1e-40ec-9aee-66c64fd6d88f" x="94.7286" y="52.5406" width="12.1017" height="12.1011"/>
    </g>
    <g class="673428d2-968e-4146-bd55-75fca626b99c">
      <rect class="9d243d04-0e1e-40ec-9aee-66c64fd6d88f" x="87.3752" y="19.9662" width="52.019" height="34.6086"/>
    </g>
    <g class="a1b39c10-23bc-4e61-bc05-b55a76473972">
      <rect class="e27a2fe0-4238-4ae9-b45c-6517984b6f0f" x="108.3868" y="19.9662" width="31.0074" height="34.6086"/>
    </g>
    <g class="5ea0790c-def5-43af-b3b7-613b33913814">
      <rect class="9d243d04-0e1e-40ec-9aee-66c64fd6d88f" x="115.7393" y="52.5406" width="12.1017" height="12.1011"/>
    </g>
    <g class="2d8fc1e6-e1f0-4f0d-b52e-7fea73c85d50">
      <rect class="1586584f-29ce-44f5-a083-80f1bb4cc8bc" x="94.729" y="61.9988" width="25.7586" height="16.2867"/>
    </g>
    <g class="a0cea827-c170-4698-8405-91717c284f60">
      <rect class="1694a151-94aa-4bae-ba6d-490741d76353" x="104.1831" y="61.9982" width="27.8577" height="16.2881"/>
    </g>
    <g class="b5bb5900-630e-4b57-b1ef-2742f565e2a6">
      <rect class="1694a151-94aa-4bae-ba6d-490741d76353" x="92.1371" y="46.2355" width="21.4879" height="14.1992"/>
    </g>
    <g class="4d73ea58-79b8-4393-9b3f-654eb44ca057">
      <rect class="1694a151-94aa-4bae-ba6d-490741d76353" x="113.1478" y="46.2355" width="21.4852" height="14.1992"/>
    </g>
    <g class="9d549c3e-afe4-4266-9b95-6d2b5c42ac4a">
      <rect class="7c3d7b88-d247-4367-bc5d-36b82fa72a7e" x="104.1831" y="57.7941" width="18.4041" height="14.2034"/>
    </g>
    <g class="7732c145-656c-4852-aec2-d4c41445bed6">
      <rect class="d515ad64-685d-4a67-994b-239c243d281d" x="103.1327" y="52.5446" width="16.2983" height="20.5037"/>
    </g>
    <g class="b58074f1-c443-40d8-9fc9-b7adefbb3a25">
      <rect class="d4322f0f-de66-45da-bad1-082782fec924" x="91.5796" y="19.9655" width="31.0074" height="33.2875"/>
    </g>
    <g class="2fa55602-cdd7-4c5c-9c69-cb865b7cd610">
      <rect class="36ad0694-026b-428c-a504-911b6d26eb3c" x="108.3864" y="19.9655" width="26.8081" height="33.2875"/>
    </g>
    <g class="05cab103-1e42-4ffe-902b-2d2008448d7a">
      <rect class="69b49599-7688-49af-ad25-fd7152b9d38f" x="107.3355" y="39.931" width="33.1095" height="15.693"/>
    </g>
    <g class="58ba3574-2f6d-4a33-94b3-9d38ab1a79d2">
      <rect class="481a73b9-e7e0-428d-835c-e57d818e792b" x="86.328" y="39.9311" width="32.0586" height="15.6929"/>
    </g>
    <g class="1e9be225-14e8-49eb-9d4b-1831b673bc93">
      <rect class="1586584f-29ce-44f5-a083-80f1bb4cc8bc" x="83.1754" y="175.4864" width="60.4217" height="131.8957"/>
    </g>
    <g class="7396afda-4c05-4fcb-9d96-83491622b490">
      <rect class="1694a151-94aa-4bae-ba6d-490741d76353" x="109.9095" y="197.2035" width="33.6881" height="110.1789"/>
    </g>
    <g class="ce40a965-a0d1-404b-8d45-ecff0b59ce4c">
      <rect class="1694a151-94aa-4bae-ba6d-490741d76353" x="120.9904" y="175.4864" width="22.6075" height="22.6101"/>
    </g>
    <g class="75421ff1-ee6e-4f81-a1b1-c06ff8ac707c">
      <rect class="7c3d7b88-d247-4367-bc5d-36b82fa72a7e" x="70.5679" y="131.3519" width="22.6075" height="94.0652"/>
    </g>
    <g class="2a1af032-a560-413c-aa99-5887bb1676bc">
      <rect class="155bf603-03df-4a14-bfb9-d3ab89eda905" x="112.5864" y="87.2175" width="35.2122" height="89.8618"/>
    </g>
    <g class="2b09a671-87ae-4fd9-8a67-06e23fc4f6ea">
      <rect class="cc6515ec-6252-4545-af70-a20aebaf8d5f" x="112.5864" y="87.2175" width="35.2122" height="51.8129"/>
    </g>
    <g class="808e02cb-f01c-45d4-9e47-0b60d574745c">
      <rect class="5bf2481c-60ec-4c26-973e-6e67247eb236" x="133.5976" y="131.3519" width="22.6075" height="94.0652"/>
    </g>
    <g class="b7d678d5-1941-4674-890a-8da165bde712">
      <rect class="7c3d7b88-d247-4367-bc5d-36b82fa72a7e" x="133.5976" y="188.0971" width="22.6034" height="37.32"/>
    </g>
    <g class="a10bbbf4-00d5-4d79-a384-a587995467a2">
      <rect class="9d243d04-0e1e-40ec-9aee-66c64fd6d88f" x="62.1647" y="309.9897" width="47.8183" height="14.2048"/>
    </g>
    <g class="67c9c5fe-aa5c-446c-8bad-cb63bcbb190e">
      <rect class="d4322f0f-de66-45da-bad1-082782fec924" x="62.1652" y="295.2793" width="47.8088" height="24.7098"/>
    </g>
    <g class="ab327478-c20b-4eda-a5fe-5ab97bfd4b84">
      <rect class="36ad0694-026b-428c-a504-911b6d26eb3c" x="63.471" y="300.6077" width="45.7288" height="19.382"/>
    </g>
    <g class="a7e7c4fa-e584-43d7-bf57-725e5798e118">
      <rect class="1586584f-29ce-44f5-a083-80f1bb4cc8bc" x="70.5685" y="185.9951" width="16.3023" height="14.2034"/>
    </g>
    <g class="dfd92afe-5f69-4d55-b10f-f4673b1fb5ea">
      <rect class="1694a151-94aa-4bae-ba6d-490741d76353" x="76.8708" y="185.9951" width="16.3051" height="14.2034"/>
    </g>
    <g class="4dbd5a41-6639-46a8-ab13-9bd48f3d739f">
      <rect class="98b06ca9-6917-4f07-863d-d325310806c0" x="72.6697" y="183.8921" width="18.4041" height="18.4068"/>
    </g>
    <g class="ee1e64e5-490c-457a-9277-e25e75211931">
      <rect class="9d243d04-0e1e-40ec-9aee-66c64fd6d88f" x="74.7714" y="185.9944" width="14.2007" height="14.2034"/>
    </g>
    <g class="54c5a490-f951-4262-adc1-61d78d6755c4">
      <rect class="cc6515ec-6252-4545-af70-a20aebaf8d5f" x="83.175" y="143.9616" width="60.423" height="23.66"/>
    </g>
    <g class="976f30c9-b7ae-42be-bab1-7b2e24c57e61">
      <rect class="e27a2fe0-4238-4ae9-b45c-6517984b6f0f" x="116.7897" y="309.9897" width="47.8156" height="14.2048"/>
    </g>
    <g class="6e2e36cf-3f17-4ae2-a6de-132f5b3f598c">
      <rect class="36ad0694-026b-428c-a504-911b6d26eb3c" x="116.7961" y="295.2793" width="47.8088" height="24.7098"/>
    </g>
    <g class="3e0a463a-4869-4544-aedf-1a07ce4a158a">
      <rect class="1586584f-29ce-44f5-a083-80f1bb4cc8bc" x="117.5728" y="300.6077" width="45.7261" height="19.382"/>
    </g>
  </g>
</svg>
