<svg id="a914a879-6571-455e-a85e-9054b71c554e" data-name="Layer 1" xmlns="http://www.w3.org/2000/svg" xmlns:xlink="http://www.w3.org/1999/xlink" viewBox="0 0 226.77 340.16">
  <defs>
    <style>
      .\34 e47553a-dd86-4064-809d-fe7ee44f500d, .ac80dd4e-1dd9-415a-944c-c5820bb1829d {
        fill: none;
      }

      .ac80dd4e-1dd9-415a-944c-c5820bb1829d {
        clip-rule: evenodd;
      }

      .\39 41d8284-735e-46a9-a107-76b7f1f7dfaa {
        clip-path: url(#5db18218-955a-4d6c-85ea-27c5f471f164);
      }

      .ab7fa756-e445-47aa-b7da-e1c7294c7586 {
        fill: #653614;
      }

      .\33 0c1eb8e-a7b7-4c3a-9289-3ed2b17d0289 {
        clip-path: url(#a5a1be73-2d4c-4a2e-a9c0-3f936d6546a1);
      }

      .\33 a7927b8-b4ef-4c8c-b49d-600b9dae96f0 {
        fill: #3f2410;
      }

      .\31 1fd24c8-85cf-4397-b7f5-fd4e01d1d5fb {
        clip-path: url(#801c210a-6e79-4d42-a843-1e36dacd7854);
      }

      .\35 13fe53e-864c-476e-9856-30fe0281a19a {
        clip-path: url(#aef6041b-364c-4d5e-961c-494180561d59);
      }

      .\33 c2a9995-9968-41e7-8b72-32016d97ec8d {
        fill: #e27a49;
      }

      .d5190ed8-de23-4798-a237-9b6c9f57593b {
        clip-path: url(#b786f7da-2570-46df-aad7-2dde4ed21ccf);
      }

      .\38 867b45f-22fe-49bf-97e2-96a2230369da {
        fill: #ba643c;
      }

      .\37 666082a-fc30-4af3-b3a2-30733ec728ed {
        clip-path: url(#c4fed460-f351-4453-9764-f02352924c41);
      }

      .\36 63586e9-8d63-47c0-9dd1-41c584b435a2 {
        fill: #985535;
      }

      .\30 ec780b5-3bf5-4024-af74-0dfb376833ea {
        clip-path: url(#cf645877-dada-460e-a64d-542dd0f35a40);
      }

      .c603b032-86b4-47f5-aedf-a81dc3951993 {
        clip-path: url(#b1a6599a-b589-4441-baac-3eb911b80bca);
      }

      .\31 c10d8a4-d2d5-4a88-9f2d-c84a86add09f {
        clip-path: url(#6bc43e74-e98b-43e9-a86f-fe8c035cfdfd);
      }

      .\36 da299f5-cdd4-4bc9-8b0b-fcd420d9f068 {
        clip-path: url(#6406d82b-b521-4a14-9d19-2ff1f43dc632);
      }

      .\36 58a90f5-f7bb-41b7-ac6a-c90a478a64bf {
        clip-path: url(#77f99e68-74f8-478b-8d6a-8c6a002a9dfb);
      }

      .\39 286107f-bb33-4def-8300-c7d65e5cc53e {
        clip-path: url(#24823198-de59-4cd7-ad53-5b21987b63cf);
      }

      .a84bfe42-ce4c-43dc-8cd9-bb87e15f7133 {
        clip-path: url(#146f4f8c-6281-4b9a-8f1b-8bcc8be6bcb6);
      }

      .a78f0ba1-dd12-4c95-a4ad-c323825d1d7c {
        fill: #fff;
      }

      .\38 8a69afb-85ee-48d0-ad87-dfa4c53352b0 {
        clip-path: url(#d160dc3a-1ac8-474f-aac3-c0a2b561d0a8);
      }

      .\36 035a9f6-5f54-424f-8187-59615dd186e1 {
        fill: #e5e5e4;
      }

      .\30 bc18c08-6f22-4163-9743-58eeff2d6a9b {
        clip-path: url(#b358a312-01b0-4378-b0cb-cc2d9ed2a0a8);
      }

      .\32 13da814-c92f-4360-9165-7d1b3db6bf43 {
        fill: #222c30;
      }

      .e64d762b-a510-4d58-8a6f-d7648614982d {
        clip-path: url(#e300c6ab-214f-463e-b06b-c3862856b006);
      }

      .\31 67f59a8-e665-459b-ab14-e1f456943b17 {
        clip-path: url(#0017315b-31d2-462c-ac4e-f05a0c460f54);
      }

      .e5e0f5ca-eec1-4b81-910f-7304a66a8883 {
        clip-path: url(#fca8f19a-fbf8-456a-87e0-d0e15cc5a019);
      }

      .\38 57b5d09-b634-4c46-99e1-a2511cd633ca {
        clip-path: url(#133972d5-6ec8-4202-9dbf-741f96d1cedc);
      }

      .\34 7c3fb08-87d6-42ec-974b-be5337224dcd {
        clip-path: url(#8ad11290-f554-4eb7-a537-a8e73545ee29);
      }

      .a9ff8179-4792-44e0-b691-822253f8708e {
        clip-path: url(#61818203-d8ce-4656-ab19-893357d8a26b);
      }

      .\30 4046ae7-5aa4-4597-9f42-b43227cc0ed2 {
        clip-path: url(#fa47afd4-c95d-4752-abbe-85cc2265421f);
      }

      .c0d99dd4-5d6a-40a0-91b7-35fc0531069b {
        clip-path: url(#0cc4f5b0-ff72-4c6a-bb76-466bbf7ccb2d);
      }

      .\34 23581a4-f3f6-4ee3-abde-28f932f3bdc2 {
        clip-path: url(#4c058ebf-840b-4358-8084-17ca681fe540);
      }

      .f403bf48-61c5-4b4e-a172-34a089d60fcf {
        fill: #5ba2a2;
      }

      .\39 0a0cfb2-62ec-4c85-8f21-756b7edd5464 {
        clip-path: url(#9ef58195-210b-4456-8b78-1294bfc4f922);
      }

      .\36 6b3138d-389a-434e-83c8-ab1196846c01 {
        fill: #367878;
      }

      .\31 efa5c08-4ffb-4511-9950-b45e5ca81e83 {
        clip-path: url(#474107f2-30ea-4498-ae3a-7a15be282228);
      }

      .d3d8f095-c0a2-4e20-b6de-671af8b02493 {
        clip-path: url(#068ef003-fd5e-4f14-b797-d9f8a5bce779);
      }

      .\39 b9edf79-e5c5-4fdc-8979-af77b9cf2bce {
        clip-path: url(#169d323c-1449-471c-beff-78731699ad9d);
      }

      .\32 929eae5-ca60-4d53-a18c-31ff3eec5237 {
        clip-path: url(#6490170f-bbc5-4fd1-a740-6225ad45376d);
      }

      .\39 cd5e29f-3ac3-41e7-bd26-034ac21a543e {
        clip-path: url(#648e1d9c-2817-4b72-a81c-301fb59e2074);
      }

      .ff09a68d-519a-457d-b220-e56cb5c876d2 {
        clip-path: url(#73590ad2-3b37-480d-b434-d20c9e5bc3c5);
      }

      .baede3b6-0899-4433-af10-c57fa227bc00 {
        clip-path: url(#c75b85b1-8824-4e26-86a6-f4771a0565bd);
      }

      .\35 801594e-2bbd-4f1a-a216-4c3c14ffb6af {
        fill: #669998;
      }

      .\30 f843a0c-c152-47a5-a931-cb703267de41 {
        clip-path: url(#e2569622-10f6-4779-bb9d-a45bf261f06c);
      }

      .b5842333-5fe0-4b12-b6a5-fafb9efad89a {
        clip-path: url(#46c10936-5f99-4093-9540-0aa6f6e79e6c);
      }

      .\38 53f9739-af79-42d7-8e23-a6e110cbfb31 {
        clip-path: url(#e026c038-76b2-4562-a395-90b7c29743d3);
      }

      .cd4118bd-7862-4033-bab7-1e15d777080c {
        clip-path: url(#c1468ca1-239e-4513-8e74-be6784df2c1c);
      }

      .e0861f40-7e2e-4f28-9ede-fcd97984a7a4 {
        fill: #a4c4e7;
      }

      .df3c866b-9bd4-4460-982a-a0e53e138601 {
        clip-path: url(#50888ae8-3795-4a8e-84c7-7a97b250cd49);
      }

      .a294b1c6-c864-4ae2-b3a2-174ea32a4a0b {
        clip-path: url(#920b54e5-cfac-4bc5-bbcf-8f81b3d0b676);
      }

      .\39 cecdc0c-4782-4c71-bcd8-162b6d3a2c49 {
        clip-path: url(#7db68831-e685-4e62-a3c5-97ed22075b23);
      }

      .\34 82f215c-f5a0-413c-88b2-96577ae1ff34 {
        clip-path: url(#f08f25d3-083b-4b82-8188-c05c6a5cff01);
      }

      .e60e5d98-0cda-4162-bbab-8501c10e46a2 {
        fill: #789bc7;
      }

      .e34a1ec4-8e59-49b5-957f-7ca4ec66cef1 {
        clip-path: url(#1094d6aa-1d6e-4b10-8b7a-dfb68e9a554d);
      }

      .c1807361-949d-4588-9640-48da735c17c3 {
        clip-path: url(#479a5954-80e1-4c41-abc8-719c5759b276);
      }

      .efea4446-e44f-42c3-8fff-59094c581377 {
        clip-path: url(#c525c637-d614-4982-9770-fb20a4a1f856);
      }

      .\34 180c59b-43ef-428a-b5bb-487ad023d21c {
        clip-path: url(#2ad0ee60-338b-4a4b-8336-0fa000f34378);
      }

      .a192e743-3e99-4140-96a5-a7e04f236e92 {
        clip-path: url(#f2a7862d-b0d0-43b3-81ab-2ddad32dd164);
      }

      .c8e33875-a79e-4adc-91f4-d313537bad55 {
        fill: #971b1e;
      }

      .\37 6e62a4c-61d0-445a-a33c-ddc56339bf0c {
        clip-path: url(#470e66f9-c52f-43e6-8ef8-351b4eb95b87);
      }

      .\38 5c11d35-9296-4cd3-99e2-7cb8579f488d {
        clip-path: url(#f76e06cd-7b50-49f9-af20-c80b91037a9e);
      }

      .\34 9a59cd0-2b22-49ba-b0af-c2dd1f006f15 {
        clip-path: url(#b0c221fd-e2a6-41b3-bf15-09f08ba1a155);
      }

      .be21b4ff-e156-43d0-aad1-41bf0c864a05 {
        clip-path: url(#b178ddd6-7e50-4a67-b746-3c4f922fac4b);
      }

      .\35 ad89fed-3da8-4f41-8988-6928845852fe {
        fill: #c93827;
      }

      .\36 3b84403-18dd-445a-855a-5b11c705d12e {
        clip-path: url(#28b9d22e-1acc-4f4a-8024-4dfab0cf5321);
      }

      .\30 9dd15f1-9ef7-4b0f-8f0e-c1d548476aef {
        clip-path: url(#da02d677-5867-4eb1-808e-7f0314ae81d7);
      }

      .\36 7567037-5080-441c-b838-f8c6dadb64d1 {
        clip-path: url(#59cf42dc-fcd9-4072-9d3a-5a8de4fddee4);
      }
    </style>
    <clipPath id="5db18218-955a-4d6c-85ea-27c5f471f164">
      <path class="ac80dd4e-1dd9-415a-944c-c5820bb1829d" d="M88.1753,180.4863H138.597v45.4113l-23.1119-22.2933a2.1,2.1,0,1,0-4.2007,0l-8.4027,98.7764H88.1753V180.4863Z"/>
    </clipPath>
    <clipPath id="a5a1be73-2d4c-4a2e-a9c0-3f936d6546a1">
      <path class="ac80dd4e-1dd9-415a-944c-c5820bb1829d" d="M100.78,190.995a13.6706,13.6706,0,0,1-12.6048,8.4068v-2.1024A11.5521,11.5521,0,0,0,98.47,190.995H100.78Zm25.2108,0a13.6706,13.6706,0,0,0,12.6075,8.4068v-2.1024A11.5656,11.5656,0,0,1,128.3,190.995H125.99Z"/>
    </clipPath>
    <clipPath id="801c210a-6e79-4d42-a843-1e36dacd7854">
      <path class="ac80dd4e-1dd9-415a-944c-c5820bb1829d" d="M138.5975,225.8977v76.4831H123.8911l-8.4055-98.7764a2.4366,2.4366,0,0,0-.5762-1.4Z"/>
    </clipPath>
    <clipPath id="aef6041b-364c-4d5e-961c-494180561d59">
      <path class="ac80dd4e-1dd9-415a-944c-c5820bb1829d" d="M88.1753,216.2142a1.0508,1.0508,0,1,1-2.1017,0v-4.2034a1.0509,1.0509,0,1,0-2.1017,0v6.3058a1.0509,1.0509,0,0,1-2.1017.0135v1.0376a1.05,1.05,0,1,1-2.099,0v-1.0511a1.0509,1.0509,0,1,1-2.1017,0V215.163a1.0508,1.0508,0,1,1-2.1017,0V134.25H88.1753v81.9642Z"/>
    </clipPath>
    <clipPath id="b786f7da-2570-46df-aad7-2dde4ed21ccf">
      <rect class="4e47553a-dd86-4064-809d-fe7ee44f500d" x="100.7792" y="79.6097" width="25.2109" height="29.421"/>
    </clipPath>
    <clipPath id="c4fed460-f351-4453-9764-f02352924c41">
      <polygon class="ac80dd4e-1dd9-415a-944c-c5820bb1829d" points="100.779 79.609 125.99 79.609 125.99 108.703 121.489 108.703 100.779 87.985 100.779 79.609"/>
    </clipPath>
    <clipPath id="cf645877-dada-460e-a64d-542dd0f35a40">
      <path class="ac80dd4e-1dd9-415a-944c-c5820bb1829d" d="M134.3941,54.3885a4.2034,4.2034,0,1,0,4.2034,4.2034,4.2025,4.2025,0,0,0-4.2034-4.2034"/>
    </clipPath>
    <clipPath id="b1a6599a-b589-4441-baac-3eb911b80bca">
      <path class="ac80dd4e-1dd9-415a-944c-c5820bb1829d" d="M134.3941,56.4894a2.1024,2.1024,0,1,0,2.1017,2.1023,2.1015,2.1015,0,0,0-2.1017-2.1023"/>
    </clipPath>
    <clipPath id="6bc43e74-e98b-43e9-a86f-fe8c035cfdfd">
      <path class="ac80dd4e-1dd9-415a-944c-c5820bb1829d" d="M92.3755,54.3885a4.2034,4.2034,0,1,0,4.2034,4.2034,4.2007,4.2007,0,0,0-4.2034-4.2034"/>
    </clipPath>
    <clipPath id="6406d82b-b521-4a14-9d19-2ff1f43dc632">
      <path class="ac80dd4e-1dd9-415a-944c-c5820bb1829d" d="M92.3755,56.4894a2.1024,2.1024,0,1,0,2.1017,2.1023,2.1038,2.1038,0,0,0-2.1017-2.1023"/>
    </clipPath>
    <clipPath id="77f99e68-74f8-478b-8d6a-8c6a002a9dfb">
      <path class="ac80dd4e-1dd9-415a-944c-c5820bb1829d" d="M113.3863,29.1692a21.0723,21.0723,0,0,1,21.0074,21.0156v21.017a21.0088,21.0088,0,1,1-42.0176,0V50.1848a21.0737,21.0737,0,0,1,21.01-21.0156"/>
    </clipPath>
    <clipPath id="24823198-de59-4cd7-ad53-5b21987b63cf">
      <path class="ac80dd4e-1dd9-415a-944c-c5820bb1829d" d="M134.3941,50.1852V71.2008a20.9554,20.9554,0,0,1-6.1695,14.8428l-35.85-35.8584h42.019Z"/>
    </clipPath>
    <clipPath id="146f4f8c-6281-4b9a-8f1b-8bcc8be6bcb6">
      <path class="ac80dd4e-1dd9-415a-944c-c5820bb1829d" d="M102.881,54.3885a4.2057,4.2057,0,0,1,4.0678,5.2546H98.8105a4.3214,4.3214,0,0,1-.1329-1.0512,4.2031,4.2031,0,0,1,4.2034-4.2034"/>
    </clipPath>
    <clipPath id="d160dc3a-1ac8-474f-aac3-c0a2b561d0a8">
      <path class="ac80dd4e-1dd9-415a-944c-c5820bb1829d" d="M123.8917,54.3885a4.2057,4.2057,0,0,1,4.0678,5.2546h-8.1383a4.13,4.13,0,0,1-.1328-1.0512,4.203,4.203,0,0,1,4.2033-4.2034"/>
    </clipPath>
    <clipPath id="b358a312-01b0-4378-b0cb-cc2d9ed2a0a8">
      <path class="ac80dd4e-1dd9-415a-944c-c5820bb1829d" d="M102.881,56.4894a2.1037,2.1037,0,0,1,2.1017,2.1023,2.0709,2.0709,0,0,1-.2834,1.0512h-3.6366a2.0709,2.0709,0,0,1-.2834-1.0512,2.1038,2.1038,0,0,1,2.1017-2.1023"/>
    </clipPath>
    <clipPath id="e300c6ab-214f-463e-b06b-c3862856b006">
      <path class="ac80dd4e-1dd9-415a-944c-c5820bb1829d" d="M123.8917,56.4894a2.1038,2.1038,0,0,1,1.8184,3.1535h-3.6394a2.1038,2.1038,0,0,1,1.821-3.1535"/>
    </clipPath>
    <clipPath id="0017315b-31d2-462c-ac4e-f05a0c460f54">
      <path class="ac80dd4e-1dd9-415a-944c-c5820bb1829d" d="M112.3383,88.0158a1.0467,1.0467,0,1,1,2.0935,0v4.202a1.0467,1.0467,0,1,1-2.0935,0v-4.202ZM130.1932,72.248a1.0465,1.0465,0,1,1,0-2.0929h4.2007a1.0465,1.0465,0,1,1,0,2.0929h-4.2007Zm-0.8421,4.3159a1.0457,1.0457,0,1,1,.5383-2.021l4.0583,1.0878a1.0457,1.0457,0,1,1-.5383,2.021Zm-1.9335,3.9525a1.0479,1.0479,0,0,1,1.0481-1.8148l3.6366,2.1024a1.0457,1.0457,0,0,1-1.044,1.8121ZM124.5294,83.83a1.0472,1.0472,0,0,1,1.4821-1.48l2.97,2.9732a1.0457,1.0457,0,1,1-1.4794,1.4784Zm-3.6461,2.455a1.0464,1.0464,0,1,1,1.8129-1.0457l2.099,3.6391a1.0468,1.0468,0,0,1-1.8129,1.0471Zm-4.1572,1.4283a1.0459,1.0459,0,1,1,2.02-.5425l1.0861,4.06a1.0459,1.0459,0,1,1-2.02.5425ZM96.58,70.1551a1.0465,1.0465,0,0,1,0,2.0929H92.3749a1.0465,1.0465,0,0,1,0-2.0929H96.58Zm0.301,4.3878a1.0461,1.0461,0,0,1,.541,2.021l-4.0583,1.0878a1.0462,1.0462,0,1,1-.5423-2.021Zm1.4265,4.16a1.0466,1.0466,0,1,1,1.0454,1.8135l-3.638,2.0983a1.0461,1.0461,0,1,1-1.0481-1.8107Zm2.4542,3.6473a1.0458,1.0458,0,0,1,1.478,1.48l-2.9682,2.9718a1.0467,1.0467,0,0,1-1.482-1.4784Zm3.3153,2.8891a1.0464,1.0464,0,0,1,1.8128,1.0457l-2.1017,3.6405a1.0467,1.0467,0,0,1-1.8128-1.0471Zm3.9471,1.9315a1.0472,1.0472,0,0,1,2.023.5425l-1.09,4.06a1.046,1.046,0,0,1-2.02-.5425Z"/>
    </clipPath>
    <clipPath id="fca8f19a-fbf8-456a-87e0-d0e15cc5a019">
      <path class="ac80dd4e-1dd9-415a-944c-c5820bb1829d" d="M111.2847,62.7949a2.1017,2.1017,0,0,0,0,4.2034h6.3024l-4.2007-4.2034h-2.1017Z"/>
    </clipPath>
    <clipPath id="133972d5-6ec8-4202-9dbf-741f96d1cedc">
      <path class="ac80dd4e-1dd9-415a-944c-c5820bb1829d" d="M112.3387,58.5917a1.0461,1.0461,0,1,1,2.0922,0v4.2034a1.05,1.05,0,0,1-1.0441,1.0512h-2.1017a1.0526,1.0526,0,0,0,0,2.1051h2.1017a1.0471,1.0471,0,0,1,0,2.0942l-2.1017.0041a3.1529,3.1529,0,0,1,0-6.3058h1.0536V58.5917Z"/>
    </clipPath>
    <clipPath id="8ad11290-f554-4eb7-a537-a8e73545ee29">
      <path class="ac80dd4e-1dd9-415a-944c-c5820bb1829d" d="M108.3579,53.6913a1.0459,1.0459,0,1,1-1.5593,1.3944,5.2625,5.2625,0,0,0-7.8346,0,1.0459,1.0459,0,1,1-1.5593-1.3944,7.3361,7.3361,0,0,1,10.9532,0"/>
    </clipPath>
    <clipPath id="61818203-d8ce-4656-ab19-893357d8a26b">
      <path class="ac80dd4e-1dd9-415a-944c-c5820bb1829d" d="M129.3686,53.6913a1.0459,1.0459,0,0,1-1.5593,1.3944,5.267,5.267,0,0,0-7.8386,0,1.0444,1.0444,0,1,1-1.5553-1.3944,7.3361,7.3361,0,0,1,10.9532,0"/>
    </clipPath>
    <clipPath id="fa47afd4-c95d-4752-abbe-85cc2265421f">
      <path class="ac80dd4e-1dd9-415a-944c-c5820bb1829d" d="M91.3308,50.1852a1.0461,1.0461,0,1,1,2.0922,0L93.42,54.3886a1.0461,1.0461,0,1,1-2.0922,0Z"/>
    </clipPath>
    <clipPath id="0cc4f5b0-ff72-4c6a-bb76-466bbf7ccb2d">
      <path class="ac80dd4e-1dd9-415a-944c-c5820bb1829d" d="M133.3494,50.1852a1.0461,1.0461,0,1,1,2.0922,0v4.2034a1.0461,1.0461,0,1,1-2.0922,0V50.1852Z"/>
    </clipPath>
    <clipPath id="4c058ebf-840b-4358-8084-17ca681fe540">
      <path class="ac80dd4e-1dd9-415a-944c-c5820bb1829d" d="M101.83,24.9661h22.061c4.6223,0,7.642,3.8466,8.404,8.4068l2.099,12.6088-21.0074,4.2034L91.3243,45.9817,93.426,33.3729c0.7593-4.56,3.7817-8.4068,8.4041-8.4068"/>
    </clipPath>
    <clipPath id="9ef58195-210b-4456-8b78-1294bfc4f922">
      <path class="ac80dd4e-1dd9-415a-944c-c5820bb1829d" d="M113.3863,24.9661H124.94c4.621,0,7.6447,3.8466,8.4027,8.4068l2.1017,12.6088-22.0583,4.2034V24.9661Z"/>
    </clipPath>
    <clipPath id="474107f2-30ea-4498-ae3a-7a15be282228">
      <path class="ac80dd4e-1dd9-415a-944c-c5820bb1829d" d="M86.0736,50.1852h54.6251a2.1017,2.1017,0,0,0,0-4.2034H86.0736a2.1017,2.1017,0,1,0,0,4.2034"/>
    </clipPath>
    <clipPath id="068ef003-fd5e-4f14-b797-d9f8a5bce779">
      <polygon class="ac80dd4e-1dd9-415a-944c-c5820bb1829d" points="91.325 45.982 134.395 45.982 133.695 41.779 92.026 41.779 91.325 45.982"/>
    </clipPath>
    <clipPath id="169d323c-1449-471c-beff-78731699ad9d">
      <polygon class="ac80dd4e-1dd9-415a-944c-c5820bb1829d" points="113.386 45.982 135.445 45.982 134.746 41.779 113.386 41.779 113.386 45.982"/>
    </clipPath>
    <clipPath id="6490170f-bbc5-4fd1-a740-6225ad45376d">
      <path class="ac80dd4e-1dd9-415a-944c-c5820bb1829d" d="M100.7793,57.54a1.0512,1.0512,0,1,1-1.0508,1.0512,1.0511,1.0511,0,0,1,1.0508-1.0512"/>
    </clipPath>
    <clipPath id="648e1d9c-2817-4b72-a81c-301fb59e2074">
      <path class="ac80dd4e-1dd9-415a-944c-c5820bb1829d" d="M121.79,57.54a1.0512,1.0512,0,1,1-1.0509,1.0512A1.0536,1.0536,0,0,1,121.79,57.54"/>
    </clipPath>
    <clipPath id="73590ad2-3b37-480d-b434-d20c9e5bc3c5">
      <path class="ac80dd4e-1dd9-415a-944c-c5820bb1829d" d="M121.0976,73.5447a1.0458,1.0458,0,0,1,1.3844,1.5679,13.7345,13.7345,0,0,1-18.1953,0,1.0472,1.0472,0,0,1,1.3885-1.5679,11.67,11.67,0,0,0,15.4224,0"/>
    </clipPath>
    <clipPath id="c75b85b1-8824-4e26-86a6-f4771a0565bd">
      <path class="ac80dd4e-1dd9-415a-944c-c5820bb1829d" d="M75.5682,134.25V109.03c0-4.202,2.1315-5.27,4.2034-6.3044l21.0075-10.5091a12.6054,12.6054,0,1,0,25.2108,0l21.0115,10.5091c2.0678,1.0349,4.2034,2.1038,4.2034,6.3044l-0.004,23.118L138.5974,134.25v46.2373H88.1757V134.25H75.5682Z"/>
    </clipPath>
    <clipPath id="e2569622-10f6-4779-bb9d-a45bf261f06c">
      <polygon class="ac80dd4e-1dd9-415a-944c-c5820bb1829d" points="138.598 142.147 138.598 171.778 118.15 151.321 132.958 136.507 138.598 142.147"/>
    </clipPath>
    <clipPath id="46c10936-5f99-4093-9540-0aa6f6e79e6c">
      <path class="ac80dd4e-1dd9-415a-944c-c5820bb1829d" d="M104.4707,101.1343a12.6043,12.6043,0,0,0,21.52-8.9168l21.01,10.5092c2.0692,1.0336,4.2034,2.1024,4.2034,6.3031v25.219H138.5982V135.27Z"/>
    </clipPath>
    <clipPath id="e026c038-76b2-4562-a395-90b7c29743d3">
      <path class="ac80dd4e-1dd9-415a-944c-c5820bb1829d" d="M67.1646,314.99h37.8183v3.1536a1.0543,1.0543,0,0,1-1.0509,1.05H68.2154a1.0542,1.0542,0,0,1-1.0508-1.05V314.99Z"/>
    </clipPath>
    <clipPath id="c1468ca1-239e-4513-8e74-be6784df2c1c">
      <path class="ac80dd4e-1dd9-415a-944c-c5820bb1829d" d="M102.881,307.4214a14.1306,14.1306,0,0,1,2.0922,7.5686H67.1644a3.9659,3.9659,0,0,1,2.861-3.9823l12.9614-2.8592c2.6563-.5832,4.5261-3.0329,5.1878-5.7673H102.881v5.04Z"/>
    </clipPath>
    <clipPath id="50888ae8-3795-4a8e-84c7-7a97b250cd49">
      <path class="ac80dd4e-1dd9-415a-944c-c5820bb1829d" d="M102.881,307.4214c0.0909,0.1492.175,0.297,0.259,0.4476a7.3573,7.3573,0,0,0-5.5132,7.1209h-2.099a9.4574,9.4574,0,0,1,7.3532-9.222v1.6534Z"/>
    </clipPath>
    <clipPath id="920b54e5-cfac-4bc5-bbcf-8f81b3d0b676">
      <path class="ac80dd4e-1dd9-415a-944c-c5820bb1829d" d="M71.3648,310.71l11.6231-2.5622c2.6549-.5832,4.5247-3.0328,5.1878-5.7673h2.099c-0.537,3.9376-2.6983,6.908-6.8353,7.8208l-7.8712,1.7348c-2.0352.449-3.3993-.0231-4.2034-1.2262"/>
    </clipPath>
    <clipPath id="7db68831-e685-4e62-a3c5-97ed22075b23">
      <path class="ac80dd4e-1dd9-415a-944c-c5820bb1829d" d="M159.6052,314.99H121.79v3.1536a1.0543,1.0543,0,0,0,1.0509,1.05h35.7166a1.0537,1.0537,0,0,0,1.0481-1.05V314.99Z"/>
    </clipPath>
    <clipPath id="f08f25d3-083b-4b82-8188-c05c6a5cff01">
      <path class="ac80dd4e-1dd9-415a-944c-c5820bb1829d" d="M123.8917,307.4214a14.1115,14.1115,0,0,0-2.0962,7.5686h37.81a3.9681,3.9681,0,0,0-2.8583-3.9823l-12.9654-2.8592c-2.6522-.5832-4.5247-3.0329-5.1837-5.7673H123.8917v5.04Z"/>
    </clipPath>
    <clipPath id="1094d6aa-1d6e-4b10-8b7a-dfb68e9a554d">
      <path class="ac80dd4e-1dd9-415a-944c-c5820bb1829d" d="M123.8917,307.4214c-0.0908.1492-.1776,0.297-0.2616,0.4476a7.3543,7.3543,0,0,1,5.5132,7.1209h2.1017a9.4617,9.4617,0,0,0-7.3533-9.222v1.6534Z"/>
    </clipPath>
    <clipPath id="479a5954-80e1-4c41-abc8-719c5759b276">
      <path class="ac80dd4e-1dd9-415a-944c-c5820bb1829d" d="M155.4048,310.71l-11.623-2.5622c-2.6522-.5832-4.5248-3.0328-5.1837-5.7673h-2.1017c0.5356,3.9376,2.6969,6.908,6.8339,7.8208l7.8711,1.7348c2.0353,0.449,3.3994-.0231,4.2034-1.2262"/>
    </clipPath>
    <clipPath id="c525c637-d614-4982-9770-fb20a4a1f856">
      <path class="ac80dd4e-1dd9-415a-944c-c5820bb1829d" d="M138.5975,216.2142a1.0509,1.0509,0,1,0,2.1017,0v-4.2034a1.05,1.05,0,1,1,2.099,0v6.3058a1.0509,1.0509,0,0,0,2.1017.0135v1.0376a1.0509,1.0509,0,1,0,2.1017,0v-1.0511a1.0508,1.0508,0,1,0,2.1017,0V215.163a1.0488,1.0488,0,1,0,2.0976,0V134.25H138.5975v81.9642Z"/>
    </clipPath>
    <clipPath id="2ad0ee60-338b-4a4b-8336-0fa000f34378">
      <path class="ac80dd4e-1dd9-415a-944c-c5820bb1829d" d="M151.2014,184.3871v-29.63l-12.6033-12.61v29.63Zm0-36.5054V134.2488H138.5981V135.27Z"/>
    </clipPath>
    <clipPath id="f2a7862d-b0d0-43b3-81ab-2ddad32dd164">
      <polygon class="ac80dd4e-1dd9-415a-944c-c5820bb1829d" points="138.598 180.486 117.586 180.486 115.486 182.589 117.586 184.69 138.598 184.69 138.598 180.486"/>
    </clipPath>
    <clipPath id="470e66f9-c52f-43e6-8ef8-351b4eb95b87">
      <path class="ac80dd4e-1dd9-415a-944c-c5820bb1829d" d="M105.66,109.1989l32.9369,32.9476v10.5974l-3.2271-1.9356-10.4461,2.09a8.1834,8.1834,0,0,1-7.5905-2.3l-11.4658-11.4695a8.1847,8.1847,0,0,1-2.2969-7.593l2.09-10.4481-4.46-7.4316L86.772,99.2228l5.9444-2.9718Z"/>
    </clipPath>
    <clipPath id="f76e06cd-7b50-49f9-af20-c80b91037a9e">
      <path class="ac80dd4e-1dd9-415a-944c-c5820bb1829d" d="M138.5982,151.0624v1.6819l-3.2285-1.9369-10.4447,2.09a8.7945,8.7945,0,0,1-2.156.1669l-3.74-3.7436a2.1051,2.1051,0,0,0,2.9708,0l5.9417-5.9423a2.1059,2.1059,0,0,0,0-2.9731Zm-24.7688-20.3158,11.8834,11.8886-1.4834,1.4866-11.8848-11.8886Zm-1.4848-10.4033,23.7682,23.7785-1.4834,1.4852L110.8572,121.83Z"/>
    </clipPath>
    <clipPath id="b0c221fd-e2a6-41b3-bf15-09f08ba1a155">
      <path class="ac80dd4e-1dd9-415a-944c-c5820bb1829d" d="M124.25,142.6575a1.0542,1.0542,0,0,1,1.0508,1.05v3.1536h-2.1017v-3.1536a1.0534,1.0534,0,0,1,1.0509-1.05m10.1437,1.23a1.0546,1.0546,0,0,1,1.0509,1.0512v3.1522h-2.1017v-3.1522a1.0546,1.0546,0,0,1,1.0508-1.0512"/>
    </clipPath>
    <clipPath id="b178ddd6-7e50-4a67-b746-3c4f922fac4b">
      <polygon class="ac80dd4e-1dd9-415a-944c-c5820bb1829d" points="88.175 180.486 109.183 180.486 113.386 182.589 109.183 184.69 88.175 184.69 88.175 180.486"/>
    </clipPath>
    <clipPath id="28b9d22e-1acc-4f4a-8024-4dfab0cf5321">
      <path class="ac80dd4e-1dd9-415a-944c-c5820bb1829d" d="M92.3751,180.4857h4.2034V186.79H92.3751v-6.3044Zm37.8183,0h4.2007V186.79h-4.2007v-6.3044Z"/>
    </clipPath>
    <clipPath id="da02d677-5867-4eb1-808e-7f0314ae81d7">
      <rect class="4e47553a-dd86-4064-809d-fe7ee44f500d" x="109.1833" y="180.4857" width="8.404" height="4.2034"/>
    </clipPath>
    <clipPath id="59cf42dc-fcd9-4072-9d3a-5a8de4fddee4">
      <rect class="4e47553a-dd86-4064-809d-fe7ee44f500d" x="113.3853" y="180.4857" width="4.2007" height="4.2034"/>
    </clipPath>
  </defs>
  <title>people</title>
  <g>
    <g class="941d8284-735e-46a9-a107-76b7f1f7dfaa">
      <rect class="ab7fa756-e445-47aa-b7da-e1c7294c7586" x="83.1753" y="175.4863" width="60.4217" height="131.8944"/>
    </g>
    <g class="30c1eb8e-a7b7-4c3a-9289-3ed2b17d0289">
      <rect class="3a7927b8-b4ef-4c8c-b49d-600b9dae96f0" x="83.1747" y="185.995" width="60.4231" height="18.4068"/>
    </g>
    <g class="11fd24c8-85cf-4397-b7f5-fd4e01d1d5fb">
      <rect class="3a7927b8-b4ef-4c8c-b49d-600b9dae96f0" x="109.9094" y="197.2046" width="33.6881" height="110.1762"/>
    </g>
    <g class="513fe53e-864c-476e-9856-30fe0281a19a">
      <rect class="3c2a9995-9968-41e7-8b72-32016d97ec8d" x="70.5678" y="129.25" width="22.6075" height="96.1689"/>
    </g>
    <g class="d5190ed8-de23-4798-a237-9b6c9f57593b">
      <rect class="8867b45f-22fe-49bf-97e2-96a2230369da" x="95.7792" y="74.6097" width="35.2109" height="39.421"/>
    </g>
    <g class="7666082a-fc30-4af3-b3a2-30733ec728ed">
      <rect class="663586e9-8d63-47c0-9dd1-41c584b435a2" x="95.7793" y="74.6093" width="35.2109" height="39.0941"/>
    </g>
    <g class="0ec780b5-3bf5-4024-af74-0dfb376833ea">
      <rect class="8867b45f-22fe-49bf-97e2-96a2230369da" x="125.1934" y="49.3885" width="18.4041" height="18.4068"/>
    </g>
    <g class="c603b032-86b4-47f5-aedf-a81dc3951993">
      <rect class="663586e9-8d63-47c0-9dd1-41c584b435a2" x="127.2951" y="51.4894" width="14.2007" height="14.2047"/>
    </g>
    <g class="1c10d8a4-d2d5-4a88-9f2d-c84a86add09f">
      <rect class="3c2a9995-9968-41e7-8b72-32016d97ec8d" x="83.1749" y="49.3885" width="18.404" height="18.4068"/>
    </g>
    <g class="6da299f5-cdd4-4bc9-8b0b-fcd420d9f068">
      <rect class="8867b45f-22fe-49bf-97e2-96a2230369da" x="85.2739" y="51.4894" width="14.2033" height="14.2047"/>
    </g>
    <g class="658a90f5-f7bb-41b7-ac6a-c90a478a64bf">
      <rect class="3c2a9995-9968-41e7-8b72-32016d97ec8d" x="87.3761" y="24.1692" width="52.0176" height="73.0482"/>
    </g>
    <g class="9286107f-bb33-4def-8300-c7d65e5cc53e">
      <rect class="8867b45f-22fe-49bf-97e2-96a2230369da" x="87.3751" y="45.1852" width="52.019" height="45.8584"/>
    </g>
    <g class="a84bfe42-ce4c-43dc-8cd9-bb87e15f7133">
      <rect class="a78f0ba1-dd12-4c95-a4ad-c323825d1d7c" x="93.6776" y="49.3885" width="18.4041" height="15.2546"/>
    </g>
    <g class="88a69afb-85ee-48d0-ad87-dfa4c53352b0">
      <rect class="6035a9f6-5f54-424f-8187-59615dd186e1" x="114.6884" y="49.3885" width="18.404" height="15.2546"/>
    </g>
    <g class="0bc18c08-6f22-4163-9743-58eeff2d6a9b">
      <rect class="213da814-c92f-4360-9165-7d1b3db6bf43" x="95.7793" y="51.4894" width="14.2034" height="13.1535"/>
    </g>
    <g class="e64d762b-a510-4d58-8a6f-d7648614982d">
      <rect class="213da814-c92f-4360-9165-7d1b3db6bf43" x="116.7901" y="51.4894" width="14.2006" height="13.1535"/>
    </g>
    <g class="167f59a8-e665-459b-ab14-e1f456943b17">
      <rect class="ab7fa756-e445-47aa-b7da-e1c7294c7586" x="86.3308" y="65.1551" width="54.1112" height="33.1098"/>
    </g>
    <g class="e5e0f5ca-eec1-4b81-910f-7304a66a8883">
      <rect class="3c2a9995-9968-41e7-8b72-32016d97ec8d" x="104.183" y="57.7949" width="18.4041" height="14.2034"/>
    </g>
    <g class="857b5d09-b634-4c46-99e1-a2511cd633ca">
      <rect class="663586e9-8d63-47c0-9dd1-41c584b435a2" x="103.1326" y="52.5446" width="16.2983" height="20.5051"/>
    </g>
    <g class="47c3fb08-87d6-42ec-974b-be5337224dcd">
      <rect class="ab7fa756-e445-47aa-b7da-e1c7294c7586" x="92.137" y="46.2363" width="21.4879" height="14.1986"/>
    </g>
    <g class="a9ff8179-4792-44e0-b691-822253f8708e">
      <rect class="ab7fa756-e445-47aa-b7da-e1c7294c7586" x="113.1477" y="46.2363" width="21.4852" height="14.1986"/>
    </g>
    <g class="04046ae7-5aa4-4597-9f42-b43227cc0ed2">
      <rect class="ab7fa756-e445-47aa-b7da-e1c7294c7586" x="86.3281" y="44.1381" width="12.0949" height="16.2976"/>
    </g>
    <g class="c0d99dd4-5d6a-40a0-91b7-35fc0531069b">
      <rect class="ab7fa756-e445-47aa-b7da-e1c7294c7586" x="128.3494" y="44.1381" width="12.0922" height="16.2976"/>
    </g>
    <g class="423581a4-f3f6-4ee3-abde-28f932f3bdc2">
      <rect class="f403bf48-61c5-4b4e-a172-34a089d60fcf" x="86.3243" y="19.9661" width="53.0698" height="35.219"/>
    </g>
    <g class="90a0cfb2-62ec-4c85-8f21-756b7edd5464">
      <rect class="66b3138d-389a-434e-83c8-ab1196846c01" x="108.3863" y="19.9661" width="32.0583" height="35.219"/>
    </g>
    <g class="1efa5c08-4ffb-4511-9950-b45e5ca81e83">
      <rect class="66b3138d-389a-434e-83c8-ab1196846c01" x="78.9719" y="40.9818" width="68.8257" height="14.2034"/>
    </g>
    <g class="d3d8f095-c0a2-4e20-b6de-671af8b02493">
      <rect class="a78f0ba1-dd12-4c95-a4ad-c323825d1d7c" x="86.3248" y="36.7786" width="53.0699" height="14.2034"/>
    </g>
    <g class="9b9edf79-e5c5-4fdc-8979-af77b9cf2bce">
      <rect class="6035a9f6-5f54-424f-8187-59615dd186e1" x="108.3863" y="36.7786" width="32.0583" height="14.2034"/>
    </g>
    <g class="2929eae5-ca60-4d53-a18c-31ff3eec5237">
      <rect class="a78f0ba1-dd12-4c95-a4ad-c323825d1d7c" x="94.7285" y="52.5404" width="12.1017" height="12.1024"/>
    </g>
    <g class="9cd5e29f-3ac3-41e7-bd26-034ac21a543e">
      <rect class="a78f0ba1-dd12-4c95-a4ad-c323825d1d7c" x="115.7392" y="52.5404" width="12.1017" height="12.1024"/>
    </g>
    <g class="ff09a68d-519a-457d-b220-e56cb5c876d2">
      <rect class="663586e9-8d63-47c0-9dd1-41c584b435a2" x="98.9354" y="68.2824" width="28.9001" height="15.2754"/>
    </g>
    <g class="baede3b6-0899-4433-af10-c57fa227bc00">
      <rect class="5801594e-2bbd-4f1a-a216-4c3c14ffb6af" x="70.5682" y="87.2169" width="85.6366" height="98.2699"/>
    </g>
    <g class="0f843a0c-c152-47a5-a931-cb703267de41">
      <rect class="66b3138d-389a-434e-83c8-ab1196846c01" x="113.1501" y="131.507" width="30.4474" height="45.2711"/>
    </g>
    <g class="b5842333-5fe0-4b12-b6a5-fafb9efad89a">
      <rect class="66b3138d-389a-434e-83c8-ab1196846c01" x="99.4707" y="87.2175" width="56.7336" height="53.0526"/>
    </g>
    <g class="853f9739-af79-42d7-8e23-a6e110cbfb31">
      <rect class="a78f0ba1-dd12-4c95-a4ad-c323825d1d7c" x="62.1646" y="309.9905" width="47.8183" height="14.2034"/>
    </g>
    <g class="cd4118bd-7862-4033-bab7-1e15d777080c">
      <rect class="e0861f40-7e2e-4f28-9ede-fcd97984a7a4" x="62.1644" y="297.3811" width="47.8088" height="22.6088"/>
    </g>
    <g class="df3c866b-9bd4-4460-982a-a0e53e138601">
      <rect class="5801594e-2bbd-4f1a-a216-4c3c14ffb6af" x="90.5278" y="300.768" width="17.6122" height="19.222"/>
    </g>
    <g class="a294b1c6-c864-4ae2-b3a2-174ea32a4a0b">
      <rect class="5801594e-2bbd-4f1a-a216-4c3c14ffb6af" x="66.3648" y="297.381" width="28.9099" height="19.7226"/>
    </g>
    <g class="9cecdc0c-4782-4c71-bcd8-162b6d3a2c49">
      <rect class="a78f0ba1-dd12-4c95-a4ad-c323825d1d7c" x="116.7896" y="309.9905" width="47.8156" height="14.2034"/>
    </g>
    <g class="482f215c-f5a0-413c-88b2-96577ae1ff34">
      <rect class="e60e5d98-0cda-4162-bbab-8501c10e46a2" x="116.7955" y="297.3811" width="47.8101" height="22.6088"/>
    </g>
    <g class="e34a1ec4-8e59-49b5-957f-7ca4ec66cef1">
      <rect class="66b3138d-389a-434e-83c8-ab1196846c01" x="118.6301" y="300.768" width="17.6149" height="19.222"/>
    </g>
    <g class="c1807361-949d-4588-9640-48da735c17c3">
      <rect class="66b3138d-389a-434e-83c8-ab1196846c01" x="131.4964" y="297.381" width="28.9084" height="19.7226"/>
    </g>
    <g class="efea4446-e44f-42c3-8fff-59094c581377">
      <rect class="3c2a9995-9968-41e7-8b72-32016d97ec8d" x="133.5975" y="129.25" width="22.6034" height="96.1689"/>
    </g>
    <g class="4180c59b-43ef-428a-b5bb-487ad023d21c">
      <rect class="8867b45f-22fe-49bf-97e2-96a2230369da" x="133.5981" y="129.2488" width="22.6033" height="60.1383"/>
    </g>
    <g class="a192e743-3e99-4140-96a5-a7e04f236e92">
      <rect class="c8e33875-a79e-4adc-91f4-d313537bad55" x="110.4856" y="175.4863" width="33.1119" height="14.2034"/>
    </g>
    <g class="76e62a4c-61d0-445a-a33c-ddc56339bf0c">
      <rect class="ab7fa756-e445-47aa-b7da-e1c7294c7586" x="81.772" y="91.251" width="61.8251" height="66.8229"/>
    </g>
    <g class="85c11d35-9296-4cd3-99e2-7cb8579f488d">
      <rect class="3a7927b8-b4ef-4c8c-b49d-600b9dae96f0" x="105.8572" y="115.3433" width="37.741" height="42.7308"/>
    </g>
    <g class="49a59cd0-2b22-49ba-b0af-c2dd1f006f15">
      <rect class="6035a9f6-5f54-424f-8187-59615dd186e1" x="118.1995" y="137.6575" width="22.2455" height="15.4336"/>
    </g>
    <g class="be21b4ff-e156-43d0-aad1-41bf0c864a05">
      <rect class="5ad89fed-3da8-4f41-8988-6928845852fe" x="83.1753" y="175.4863" width="35.2108" height="14.2034"/>
    </g>
    <g class="63b84403-18dd-445a-855a-5b11c705d12e">
      <rect class="ab7fa756-e445-47aa-b7da-e1c7294c7586" x="87.3751" y="175.4857" width="52.019" height="16.3044"/>
    </g>
    <g class="09dd15f1-9ef7-4b0f-8f0e-c1d548476aef">
      <rect class="a78f0ba1-dd12-4c95-a4ad-c323825d1d7c" x="104.1833" y="175.4857" width="18.404" height="14.2034"/>
    </g>
    <g class="67567037-5080-441c-b838-f8c6dadb64d1">
      <rect class="6035a9f6-5f54-424f-8187-59615dd186e1" x="108.3853" y="175.4857" width="14.2007" height="14.2034"/>
    </g>
  </g>
</svg>
