<svg id="954cf701-0739-4d66-be08-c5dd0a08dd83" data-name="Layer 1" xmlns="http://www.w3.org/2000/svg" xmlns:xlink="http://www.w3.org/1999/xlink" viewBox="0 0 226.77 340.16">
  <defs>
    <style>
      .\38 90a67ac-6aa7-499b-81f6-7d38ef1f8087, .d7686e4a-836f-49ce-ad24-166fc6992763 {
        fill: none;
      }

      .\38 90a67ac-6aa7-499b-81f6-7d38ef1f8087 {
        clip-rule: evenodd;
      }

      .\38 ef63d57-314e-4d05-ac28-e22d32ad3ab8 {
        clip-path: url(#080369da-f0f5-4fb9-9adf-4f038ded8df8);
      }

      .\32 49dcc85-accc-4f76-ac5c-17b7e202970e {
        fill: #5ba2a2;
      }

      .\36 0a1a9d1-760b-4976-bbec-0adcb57ab690 {
        clip-path: url(#461c3ebf-3a7d-45c0-9e19-3a6188bd9ae9);
      }

      .\34 8666f4b-c5b0-4dad-9624-c7bffdd5d33e {
        fill: #367878;
      }

      .\35 ee9be1e-2d53-4dcb-89f1-bc5cf4c79396 {
        clip-path: url(#48a36426-ea5f-4504-ac14-f4d1f674a903);
      }

      .\31 d3f91f9-89e3-4d79-bd54-e9ca2621bd8b {
        fill: #fbd4cb;
      }

      .\35 4941a7d-8531-4704-acd1-27656b970474 {
        clip-path: url(#ad0c59f8-7c32-4d8c-8c7d-0424ef6aa942);
      }

      .\30 6878f67-fd10-44d8-9e38-b1522c772bfa {
        clip-path: url(#7db8b1fb-2716-4093-b1ee-4e1ff9f9b04d);
      }

      .\32 f99ba70-33e2-493c-bf8e-de9fb058e6ef {
        fill: #d0aea4;
      }

      .\38 5c5e5d4-ec05-4a4b-af15-4c2534f77c3d {
        clip-path: url(#c568b454-d985-43b8-96e0-e87a47001575);
      }

      .\35 7a74c77-38d5-4f84-bfe0-69bcd8f934a5 {
        fill: #af8b81;
      }

      .\35 5163cf2-c2c4-4bd4-8431-f71a9c7b44f4 {
        clip-path: url(#05a7ddfd-9f08-4442-9e89-6f6e1b12144c);
      }

      .ca35ba36-4728-4070-8b70-26c68d8c66fd {
        clip-path: url(#bf554538-511b-4669-9182-21cfc66bdc4b);
      }

      .\31 c4451c3-63c3-44fe-89f4-bd938a9d933e {
        clip-path: url(#fd37b539-9a43-4209-8b1d-54c77cd7001f);
      }

      .d364a246-18db-4697-966d-3fc6837980db {
        clip-path: url(#20690c1a-b81c-4b83-a6e3-4f319d0cfca2);
      }

      .\37 89f9ff5-9b40-42d8-9fa1-e4c89be1dc1e {
        fill: #ddb3a8;
      }

      .b17df3a3-2ef1-4a56-b916-ff9a3176f2a5 {
        clip-path: url(#97dd8261-4464-4c83-a67d-f753edc11fc1);
      }

      .\33 79bf5ba-5b5b-44d3-999d-806bbffc5a74 {
        clip-path: url(#537bc835-03dd-434e-a3f1-20a6c67f326f);
      }

      .\35 b3fa14a-d098-49ec-a99d-627aeba2d6bb {
        clip-path: url(#cd57853d-c3b9-4b28-89fa-bbdce97a154b);
      }

      .\34 ced369a-304b-4162-88e6-c2f7ecd80d04 {
        fill: #653614;
      }

      .\31 0f0da88-721f-49e5-bf41-26832588f880 {
        clip-path: url(#28a7c610-bf72-40cc-8ae3-eaf1a31aca46);
      }

      .de02f0a4-6a7f-4e50-83e0-fc8105c1054f {
        fill: #3f2410;
      }

      .c95e1808-c964-4be1-8710-c0ba2ab237cf {
        clip-path: url(#1d94804b-4468-4ed5-9e89-2d316a46d332);
      }

      .f0c40f7b-b7f5-4697-8ded-ec6ac2549a54 {
        fill: #a4c4e7;
      }

      .\35 ac2e916-6b74-4673-8f2e-c5aeeaecdbca {
        clip-path: url(#04bd19ab-eedf-4edb-9af4-b92999d1ca23);
      }

      .ff4adf66-13b8-4a4a-96c4-07c213de0b17 {
        fill: #789bc7;
      }

      .ee55c423-fa30-493a-a6a5-c5744fd2c1f1 {
        clip-path: url(#fa5904c4-a763-49ea-9dd4-7e4fc6db904c);
      }

      .b47fe1bf-bc49-4eb8-9559-b5d60d3eed77 {
        fill: #fff;
      }

      .dd2c551b-cb47-4d5d-bde0-742c601a6a5f {
        clip-path: url(#a58a33f5-14a1-41be-a156-90f9b6d552a8);
      }

      .e20d577f-c28c-4255-a583-0941193e67f6 {
        clip-path: url(#c05a3826-7bfe-46a7-9422-6b789dc4bcf9);
      }

      .\32 fe89159-e764-47d7-a717-fdcb2fa08103 {
        clip-path: url(#a16094a0-2b0c-4d1a-bcee-5a4132520af6);
      }

      .\33 d55dd5f-b735-41e0-a736-4216742954a9 {
        clip-path: url(#1d10e3ee-a4c7-4dde-a866-52c012f7b415);
      }

      .\36 ee87127-1160-4c0f-b0f0-760625aaeee3 {
        clip-path: url(#ba2bddb4-56d0-4256-b29e-90879428cc30);
      }

      .\39 6da2a9d-8bfe-4eed-8580-b218d1ee8516 {
        clip-path: url(#fa8ce9bd-903b-493f-bf14-4198fd9a7586);
      }

      .\37 425eec1-3d86-4c74-8e4a-cf67607a9d41 {
        clip-path: url(#8a2e35c7-4152-4c92-ac13-b6acc128fd1a);
      }

      .\36 0af6eeb-77e5-4605-833e-911613d0d8ef {
        clip-path: url(#a782646a-0433-4170-8250-4a40fe3dfd73);
      }

      .\37 16e4699-170d-4514-8bc9-9b9b65709dd2 {
        clip-path: url(#9e70a8cc-2923-4965-ad66-8b34d909f135);
      }

      .ec29385e-1637-4f8f-b9a9-076ff6187350 {
        clip-path: url(#696edbfe-b72d-43e8-b84f-5f51ee3e22b2);
      }

      .ab9ffef0-4cc4-43fd-8f5b-73ea1384bf57 {
        fill: #222c30;
      }

      .\38 824a7ee-64ad-4e1b-ba2c-c813383baf37 {
        clip-path: url(#528afe5b-595e-4f8c-9290-f9112f75bb00);
      }

      .f8a1865d-5bb6-417f-819b-c36c735a5489 {
        fill: #41494d;
      }

      .ad865179-ea5c-49f2-a7df-2cb076c49ea4 {
        clip-path: url(#e7fc95b3-5c63-4e7f-bd79-d8290a631204);
      }

      .bcebe3a5-ef2b-4d4d-9e25-16ba2468cc0a {
        fill: #b82025;
      }

      .\39 bcf1af7-bf28-48db-9150-8c4054e2ab1a {
        clip-path: url(#dd2029a2-b5b2-4b9e-8228-11fa18fce94e);
      }

      .\30 68d78c8-5d01-42ca-b0dd-f087e21b3441 {
        fill: #971b1e;
      }

      .\35 9969ce0-8673-49c2-b1f2-978f9950b869 {
        clip-path: url(#fe7db0d5-d2af-4ac2-b224-9b63748a2907);
      }

      .\39 53863e9-8055-44a3-95ec-a7ff113279f5 {
        clip-path: url(#45a96785-fd27-4af4-bea4-06d3cab52d54);
      }

      .\32 b904b4b-b852-4b9e-a4ca-231a08b95cb2 {
        clip-path: url(#3d02a5d4-d924-4934-8540-e8d06f61eaaf);
      }

      .c313fbb3-1ee6-4863-b6b2-bd156abf8608 {
        clip-path: url(#f4fa5aed-a8e9-4876-9de7-62b7489070dd);
      }

      .\37 9811c4e-eb8b-4c38-a34e-2b5d030c7871 {
        clip-path: url(#334b9746-49b5-40de-9d6e-9e088fdda2df);
      }

      .\38 23f6dc0-ffe9-4749-a65c-1ad4d099d599 {
        clip-path: url(#0b5e3658-8631-4803-8e22-b143e7dcae1f);
      }

      .\33 51f1fdf-67c1-4c80-8bc3-2ac6e972fab2 {
        fill: #f06162;
      }

      .f3856fd0-f1dc-4c78-8d10-2640a908f876 {
        clip-path: url(#e6f5e1f8-6bfb-486a-9b12-7619ae36a0f2);
      }

      .f1338ff3-53ba-4865-bce9-a96cfaa18b3b {
        fill: #de3331;
      }

      .fbc9f659-32ef-46d3-a90d-c92253a5aacf {
        clip-path: url(#d21be9d7-2aa0-449e-8b0a-ce96c7507f52);
      }

      .\36 8523908-b070-4af5-969e-234d7020896e {
        clip-path: url(#42e96cac-ccc0-4a89-95ed-c73c9030bca0);
      }

      .\38 0068c2d-e2b3-45b0-bf38-54fb1a3d1abe {
        fill: #ba643c;
      }

      .a2a0e1f4-f2cf-4f34-b4f4-026c39a3e014 {
        clip-path: url(#a4f02eb1-c174-4128-8e24-4616aa6c80bb);
      }

      .\38 b3814bb-04a8-4be2-af8a-8be668e498e4 {
        fill: #e5e5e4;
      }

      .\32 be31bfe-f707-49d1-aa52-84b6399864a8 {
        clip-path: url(#fcfcdaa2-836b-41fe-b58f-7bdefa151741);
      }

      .\37 5f4f30a-1f01-426b-babf-dcb8cbddefb0 {
        fill: #9d5031;
      }

      .\32 c2359be-a275-4c6b-ab1e-b17979a0830e {
        clip-path: url(#9d90d76e-f6f1-4609-9328-0a876104e613);
      }
    </style>
    <clipPath id="080369da-f0f5-4fb9-9adf-4f038ded8df8">
      <path class="890a67ac-6aa7-499b-81f6-7d38ef1f8087" d="M88.1525,171.5042h50.423v53.8181l-23.11-22.2933a2.101,2.101,0,1,0-4.202,0l-8.4041,98.7764H88.1525V171.5042Z"/>
    </clipPath>
    <clipPath id="461c3ebf-3a7d-45c0-9e19-3a6188bd9ae9">
      <path class="890a67ac-6aa7-499b-81f6-7d38ef1f8087" d="M138.5754,225.322v76.4831H123.8689l-8.404-98.7764a2.4535,2.4535,0,0,0-.5749-1.4Z"/>
    </clipPath>
    <clipPath id="48a36426-ea5f-4504-ac14-f4d1f674a903">
      <path class="890a67ac-6aa7-499b-81f6-7d38ef1f8087" d="M88.1525,215.6385a1.05,1.05,0,1,1-2.1,0v-4.2034a1.0508,1.0508,0,1,0-2.1017,0v6.3058a1.0509,1.0509,0,0,1-2.1017.0135v1.0376a1.05,1.05,0,1,1-2.1,0v-1.0511a1.05,1.05,0,1,1-2.1,0l-0.0014-3.1536a1.05,1.05,0,1,1-2.1,0v-83.014H88.1525v84.0652Z"/>
    </clipPath>
    <clipPath id="ad0c59f8-7c32-4d8c-8c7d-0424ef6aa942">
      <path class="890a67ac-6aa7-499b-81f6-7d38ef1f8087" d="M138.5754,215.6385a1.05,1.05,0,1,0,2.1,0v-4.2034a1.0508,1.0508,0,1,1,2.1017,0v6.3058a1.05,1.05,0,0,0,2.1.0135v1.0376a1.0509,1.0509,0,1,0,2.1017,0v-1.0511a1.05,1.05,0,1,0,2.1,0v-3.1536a1.0509,1.0509,0,1,0,2.1017,0v-83.014H138.5754v84.0652Z"/>
    </clipPath>
    <clipPath id="7db8b1fb-2716-4093-b1ee-4e1ff9f9b04d">
      <rect class="d7686e4a-836f-49ce-ad24-166fc6992763" x="100.7579" y="79.034" width="25.2108" height="29.421"/>
    </clipPath>
    <clipPath id="c568b454-d985-43b8-96e0-e87a47001575">
      <polygon class="890a67ac-6aa7-499b-81f6-7d38ef1f8087" points="100.758 79.034 125.969 79.034 125.969 108.455 121.468 108.455 100.758 87.739 100.758 79.034"/>
    </clipPath>
    <clipPath id="05a7ddfd-9f08-4442-9e89-6f6e1b12144c">
      <path class="890a67ac-6aa7-499b-81f6-7d38ef1f8087" d="M134.3736,53.8128a4.2034,4.2034,0,1,0,4.2021,4.2034,4.2019,4.2019,0,0,0-4.2021-4.2034"/>
    </clipPath>
    <clipPath id="bf554538-511b-4669-9182-21cfc66bdc4b">
      <path class="890a67ac-6aa7-499b-81f6-7d38ef1f8087" d="M134.3736,55.9137a2.1024,2.1024,0,1,0,2.1,2.1023,2.1017,2.1017,0,0,0-2.1-2.1023"/>
    </clipPath>
    <clipPath id="fd37b539-9a43-4209-8b1d-54c77cd7001f">
      <path class="890a67ac-6aa7-499b-81f6-7d38ef1f8087" d="M92.3542,53.8128a4.2034,4.2034,0,1,0,4.2021,4.2034,4.2019,4.2019,0,0,0-4.2021-4.2034"/>
    </clipPath>
    <clipPath id="20690c1a-b81c-4b83-a6e3-4f319d0cfca2">
      <path class="890a67ac-6aa7-499b-81f6-7d38ef1f8087" d="M92.3542,55.9137a2.1024,2.1024,0,1,0,2.1,2.1023,2.1026,2.1026,0,0,0-2.1-2.1023"/>
    </clipPath>
    <clipPath id="97dd8261-4464-4c83-a67d-f753edc11fc1">
      <path class="890a67ac-6aa7-499b-81f6-7d38ef1f8087" d="M113.3635,28.5935a21.0746,21.0746,0,0,1,21.01,21.0156v21.017a21.01,21.01,0,1,1-42.019,0V49.6091a21.0735,21.0735,0,0,1,21.0089-21.0156"/>
    </clipPath>
    <clipPath id="537bc835-03dd-434e-a3f1-20a6c67f326f">
      <path class="890a67ac-6aa7-499b-81f6-7d38ef1f8087" d="M133.882,75.136a21.167,21.167,0,0,1-14.3431,15.5752l6.5559-23.3635Z"/>
    </clipPath>
    <clipPath id="cd57853d-c3b9-4b28-89fa-bbdce97a154b">
      <path class="890a67ac-6aa7-499b-81f6-7d38ef1f8087" d="M113.3637,27.5419a22.1258,22.1258,0,0,1,22.06,22.0682V70.6257a22.06,22.06,0,0,1-44.1193,0V49.61a22.1274,22.1274,0,0,1,22.06-22.0682m-8.419,7.3407c-8.2359,0-11.54,7.3881-11.54,14.7275V63.27a7.3545,7.3545,0,0,0,7.3532,7.3556h25.2109a7.3547,7.3547,0,0,0,7.3545-7.3475V49.61c0-7.3475-3.3111-14.7275-11.5552-14.7275a12.5748,12.5748,0,0,0-8.4122,3.2132,12.569,12.569,0,0,0-8.4109-3.2132"/>
    </clipPath>
    <clipPath id="28a7c610-bf72-40cc-8ae3-eaf1a31aca46">
      <path class="890a67ac-6aa7-499b-81f6-7d38ef1f8087" d="M134.7552,76.0095a22.2264,22.2264,0,0,1-14.3824,15.5359L100.6291,71.7939V70.6247c0.0434,0.0014.0854,0.0014,0.1288,0.0014h25.2108a7.32,7.32,0,0,0,2.838-.5683Z"/>
    </clipPath>
    <clipPath id="1d94804b-4468-4ed5-9e89-2d316a46d332">
      <path class="890a67ac-6aa7-499b-81f6-7d38ef1f8087" d="M100.758,91.6417a12.6054,12.6054,0,1,0,25.2109,0v92.472H100.758V91.6417Z"/>
    </clipPath>
    <clipPath id="04bd19ab-eedf-4edb-9af4-b92999d1ca23">
      <path class="890a67ac-6aa7-499b-81f6-7d38ef1f8087" d="M104.4494,100.5586a12.6043,12.6043,0,0,0,21.52-8.9168v30.4438Z"/>
    </clipPath>
    <clipPath id="fa5904c4-a763-49ea-9dd4-7e4fc6db904c">
      <path class="890a67ac-6aa7-499b-81f6-7d38ef1f8087" d="M102.8589,53.8128a4.2034,4.2034,0,1,1-4.202,4.2034,4.2028,4.2028,0,0,1,4.202-4.2034"/>
    </clipPath>
    <clipPath id="a58a33f5-14a1-41be-a156-90f9b6d552a8">
      <path class="890a67ac-6aa7-499b-81f6-7d38ef1f8087" d="M123.8689,53.8128a4.2041,4.2041,0,1,1-4.202,4.2034,4.2028,4.2028,0,0,1,4.202-4.2034"/>
    </clipPath>
    <clipPath id="c05a3826-7bfe-46a7-9422-6b789dc4bcf9">
      <path class="890a67ac-6aa7-499b-81f6-7d38ef1f8087" d="M102.8589,55.9137a2.1024,2.1024,0,1,1-2.1,2.1023,2.1026,2.1026,0,0,1,2.1-2.1023"/>
    </clipPath>
    <clipPath id="a16094a0-2b0c-4d1a-bcee-5a4132520af6">
      <path class="890a67ac-6aa7-499b-81f6-7d38ef1f8087" d="M123.8689,55.9137a2.1024,2.1024,0,1,1-2.1,2.1023,2.1018,2.1018,0,0,1,2.1-2.1023"/>
    </clipPath>
    <clipPath id="1d10e3ee-a4c7-4dde-a866-52c012f7b415">
      <path class="890a67ac-6aa7-499b-81f6-7d38ef1f8087" d="M100.758,56.9647a1.0512,1.0512,0,1,1-1.0508,1.0512,1.0507,1.0507,0,0,1,1.0508-1.0512"/>
    </clipPath>
    <clipPath id="ba2bddb4-56d0-4256-b29e-90879428cc30">
      <path class="890a67ac-6aa7-499b-81f6-7d38ef1f8087" d="M121.7681,56.9647a1.0512,1.0512,0,1,1-1.0509,1.0512,1.0508,1.0508,0,0,1,1.0509-1.0512"/>
    </clipPath>
    <clipPath id="fa8ce9bd-903b-493f-bf14-4198fd9a7586">
      <path class="890a67ac-6aa7-499b-81f6-7d38ef1f8087" d="M102.8589,66.4224a1.0512,1.0512,0,0,1,0,2.1024,1.0465,1.0465,0,0,0-1.0495,1.0512,1.0267,1.0267,0,0,0,1.04,1.0363h2.11a2.1074,2.1074,0,0,0,2.1017-2.0943,2.2492,2.2492,0,0,1,2.0936-2.0956h8.4176a2.2488,2.2488,0,0,1,2.0949,2.0956,2.1072,2.1072,0,0,0,2.1,2.0943h2.1112a1.0267,1.0267,0,0,0,1.04-1.0363,1.0465,1.0465,0,0,0-1.0495-1.0512,1.0512,1.0512,0,0,1,0-2.1024,3.1448,3.1448,0,1,1,.0095,6.29l-8.4136-.0054a3.1549,3.1549,0,0,1-2.1017-.7962,3.151,3.151,0,0,1-2.1.7962l-8.4136.0054a3.1448,3.1448,0,1,1,.01-6.29"/>
    </clipPath>
    <clipPath id="8a2e35c7-4152-4c92-ac13-b6acc128fd1a">
      <path class="890a67ac-6aa7-499b-81f6-7d38ef1f8087" d="M112.3172,58.016a1.0461,1.0461,0,1,1,2.0922,0v4.2034a1.0508,1.0508,0,0,1-1.0454,1.0512h-2.1017a1.0526,1.0526,0,0,0,0,2.1051h2.1017a1.0471,1.0471,0,0,1,0,2.0942l-2.1017.0041a3.1529,3.1529,0,0,1,0-6.3058h1.0549V58.016Z"/>
    </clipPath>
    <clipPath id="a782646a-0433-4170-8250-4a40fe3dfd73">
      <path class="890a67ac-6aa7-499b-81f6-7d38ef1f8087" d="M99.7079,52.757a1.0464,1.0464,0,1,1,0-2.0929l6.3023,0.0014a1.0458,1.0458,0,1,1,0,2.0915H99.7079Z"/>
    </clipPath>
    <clipPath id="9e70a8cc-2923-4965-ad66-8b34d909f135">
      <path class="890a67ac-6aa7-499b-81f6-7d38ef1f8087" d="M120.7172,52.757a1.0464,1.0464,0,1,1,0-2.0929l6.3024,0.0014a1.0458,1.0458,0,1,1,0,2.0915h-6.3024Z"/>
    </clipPath>
    <clipPath id="696edbfe-b72d-43e8-b84f-5f51ee3e22b2">
      <path class="890a67ac-6aa7-499b-81f6-7d38ef1f8087" d="M130.1716,54.864H119.6672a1.0507,1.0507,0,0,0-1.0509,1.05v2.1024a3.164,3.164,0,0,0,3.1512,3.1522H127.02a3.1639,3.1639,0,0,0,3.1512-3.1522V54.864Zm-16.8081-2.1024a5.2337,5.2337,0,0,1,3.6433,1.47,3.1606,3.1606,0,0,1,2.66-1.47h15.7559a1.0512,1.0512,0,0,1,0,2.1024h-3.15v3.1522a5.2669,5.2669,0,0,1-5.2529,5.2546h-5.2529a5.2666,5.2666,0,0,1-5.2515-5.2546,3.1519,3.1519,0,0,0-3.1525-3.1522l-0.8407-1.0512Z"/>
    </clipPath>
    <clipPath id="528afe5b-595e-4f8c-9290-f9112f75bb00">
      <path class="890a67ac-6aa7-499b-81f6-7d38ef1f8087" d="M91.3035,54.8638a1.0511,1.0511,0,0,1,0-2.1023h15.7573a3.16,3.16,0,0,1,2.66,1.47,5.2354,5.2354,0,0,1,3.6421-1.47v2.1023a3.1518,3.1518,0,0,0-3.1512,3.1522,5.2666,5.2666,0,0,1-5.2515,5.2546H99.7076a5.2669,5.2669,0,0,1-5.2529-5.2546V54.8638H91.3035Zm15.7573,0H96.5564V58.016a3.1631,3.1631,0,0,0,3.1512,3.1522H104.96a3.164,3.164,0,0,0,3.1512-3.1522V55.9137A1.0517,1.0517,0,0,0,107.0608,54.8638Z"/>
    </clipPath>
    <clipPath id="e7fc95b3-5c63-4e7f-bd79-d8290a631204">
      <path class="890a67ac-6aa7-499b-81f6-7d38ef1f8087" d="M151.1811,116.8607v-8.4068c0-4.2006-2.1329-5.27-4.2007-6.303L125.9689,91.6417V200.9286H138.575V158.8947h12.6061l-0.0014-42.034h0.0014ZM100.758,91.6417l-21.01,10.5092-0.0963.0474-0.0976.0489-0.0963.0488-0.0976.05-0.0963.0488-0.0976.05-0.0963.05-0.0963.05-0.0962.0515-0.095.0529-0.0962.0516-0.0936.0542H78.5912l-0.0935.0543-0.0936.0569c-0.0312.019-.0623,0.0367-0.0935,0.0557s-0.061.0393-.0909,0.06l-0.0922.057-0.0908.061c-0.03.02-.06,0.0407-0.0909,0.0624-0.03.019-.06,0.0407-0.0881,0.0611s-0.06.0434-.0881,0.0651c-0.0312.0217-.06,0.0434-0.0882,0.0664s-0.0583.0448-.0868,0.0665c-0.0284.0244-.0569,0.0461-0.0854,0.07s-0.0569.0461-.0841,0.0706-0.0555.0488-.0827,0.0718c-0.0284.0245-.0556,0.05-0.0827,0.076s-0.0529.0515-.08,0.0773-0.0515.0516-.0786,0.0773c-0.0258.0272-.0529,0.0529-0.0787,0.0814s-0.0515.0556-.0759,0.0828-0.05.0556-.0746,0.0854-0.05.0583-.0745,0.0868-0.0475.06-.0719,0.0909-0.0461.061-.0692,0.0922-0.0461.0624-.0691,0.0936c-0.0231.0339-.0448,0.0665-0.0665,0.099s-0.0447.0665-.0664,0.1-0.042.0678-.0624,0.1017c-0.0217.0366-.0407,0.0706-0.061,0.1058H76.33c-0.019.0366-.0394,0.0719-0.06,0.11s-0.038.0732-.057,0.1112-0.0366.076-.0555,0.1153c-0.0177.0366-.0353,0.0773-0.0529,0.118s-0.0353.0787-.0516,0.1207c-0.0162.0394-.0339,0.0814-0.0488,0.1235s-0.0325.084-.0474,0.1288-0.03.0855-.0448,0.13-0.03.09-.0434,0.1343-0.0271.0909-.0379,0.137H75.8292c-0.0122.0488-.0244,0.0936-0.0366,0.1411H75.7912c-0.0108.0488-.023,0.0963-0.0338,0.1464s-0.0231.0977-.0326,0.1492H75.7235c-0.0095.05-.02,0.1-0.0285,0.152-0.0109.0515-.019,0.1044-0.0285,0.1573s-0.0176.1058-.0244,0.16-0.0149.1086-.0217,0.1642-0.0136.1125-.019,0.1695-0.0122.114-.0176,0.1736c-0.0041.057-.01,0.1167-0.0136,0.175-0.004.061-.0067,0.1207-0.01,0.1831-0.004.06-.0067,0.1221-0.0081,0.1845s-0.0041.1248-.0054,0.19v0.1939H75.5458l0.0014,50.4421H88.1519v42.0326H100.758V91.6417Z"/>
    </clipPath>
    <clipPath id="dd2029a2-b5b2-4b9e-8228-11fa18fce94e">
      <path class="890a67ac-6aa7-499b-81f6-7d38ef1f8087" d="M151.1809,116.8609v-8.4068c0-4.2021-2.1328-5.27-4.2006-6.3044L125.9687,91.6418v30.4438l25.2122,25.219L151.18,116.8609h0.0013Z"/>
    </clipPath>
    <clipPath id="fe7db0d5-d2af-4ac2-b224-9b63748a2907">
      <path class="890a67ac-6aa7-499b-81f6-7d38ef1f8087" d="M75.547,137.8788h4.2007V133.674H75.547v-4.202h4.2007v-4.2034H75.547v-4.2034h4.2007V116.86H75.547V112.66h4.2007V108.455H75.547a6.5832,6.5832,0,0,1,1.2109-4.202h2.99v-2.1024l4.2021-2.1024,8.404-4.202h4.2021V93.7438l4.202-2.1024v109.287H88.1518V158.8958H75.547V154.691h4.2007v-4.202l-4.2007-.0014v-4.202h4.2007v-4.2034H75.547v-4.2034ZM83.95,112.66h4.202V108.455H83.95V112.66Zm8.404,0h4.2021V108.455H92.3538V112.66ZM83.95,100.0482v4.2048h4.202v-4.2048H83.95Zm8.404,4.2048h4.2021v-4.2048H92.3538v4.2048Zm0,75.6584,4.2021-.0014v-4.2007H92.3538v4.2021Zm0,8.4068h4.2021v-4.2034H92.3538v4.2034Zm0,8.4068h4.2021v-4.2034H92.3538v4.2034Zm4.2021-37.8292H92.3538v4.202h4.2021v-4.202Zm-4.2021,12.6088h4.2021v-4.202H92.3538v4.202Zm0-33.6258h4.2021V133.674H92.3538v4.2048Zm0,8.4068h4.2021v-4.2034H92.3538v4.2034Zm-8.404,0h4.202v-4.2034H83.95v4.2034Zm0,4.202v4.2034h4.202v-4.2034H83.95Zm8.404,4.2034h4.2021v-4.2034H92.3538v4.2034Zm0-33.6258h4.2021V116.86H92.3538v4.2047Zm-8.404,0h4.202V116.86H83.95v4.2047Zm0,16.8136h4.202V133.674H83.95v4.2048Zm0-12.61v4.2034h4.202v-4.2034H83.95Zm8.404,4.2034h4.2021v-4.2034H92.3538v4.2034Z"/>
    </clipPath>
    <clipPath id="45a96785-fd27-4af4-bea4-06d3cab52d54">
      <path class="890a67ac-6aa7-499b-81f6-7d38ef1f8087" d="M88.1518,97.9472l4.202-2.101v4.202h-4.202v-2.101Zm12.6061,94.573h-4.202v-4.2034h4.202V192.52Zm0,8.4082h-4.202v-4.2048h4.202v4.2048Zm-8.4041-12.6116h-4.202V192.52h4.202v-4.2034Zm0,8.4068h-4.202v4.2048h4.202v-4.2048Zm8.4041-21.0143h-4.202v-4.2034h4.202v4.2034Zm0,8.4055h-4.202v-4.2034h4.202v4.2034Zm-8.4041-12.6089h-4.202v4.2034h4.202v-4.2034Zm0,8.4055h-4.202v4.2034h4.202v-4.2034Zm8.4041-21.0156h-4.202V154.691h4.202v4.2048Zm0,8.4068h-4.202v-4.2048h4.202v4.2048ZM92.3538,154.691h-4.202v4.2048h4.202V154.691Zm-8.404,0H79.7477v4.2048H83.95V154.691Zm8.404,8.4068h-4.202v4.2048h4.202v-4.2048Zm8.4041-21.0156h-4.202v-4.2034h4.202v4.2034Zm0,8.4054h-4.202v-4.2034h4.202v4.2034Zm-21.01-4.202H83.95v4.2034H79.7477v-4.2034Zm12.6061-8.4068h-4.202v4.2034h4.202v-4.2034Zm-8.404,0H79.7477v4.2034H83.95v-4.2034Zm8.404,8.4068h-4.202v4.2034h4.202v-4.2034Zm8.4041-21.017h-4.202v-4.2034h4.202v4.2034Zm0,8.4054h-4.202v-4.202h4.202v4.202Zm-21.01-4.202H83.95v4.202H79.7477v-4.202Zm12.6061-8.4068h-4.202v4.2034h4.202v-4.2034Zm-8.404,0H79.7477v4.2034H83.95v-4.2034Zm8.404,8.4068h-4.202v4.202h4.202v-4.202Zm8.4041-29.4238h-4.202v-4.202h4.202v4.202Zm0,8.4068h-4.202v-4.202h4.202v4.202Zm0,8.4055h-4.202v-4.2021h4.202V116.86Zm-21.01-4.2007H83.95v4.202H79.7477V112.66Zm12.6061-8.4068h-4.202v4.202h4.202v-4.202Zm-8.404,0H79.7477v4.202H83.95v-4.202Zm8.404,8.4068h-4.202v4.202h4.202V112.66Z"/>
    </clipPath>
    <clipPath id="3d02a5d4-d924-4934-8540-e8d06f61eaaf">
      <path class="890a67ac-6aa7-499b-81f6-7d38ef1f8087" d="M151.1809,137.8788H146.98V133.674h4.2006v-4.202H146.98v-4.2034h4.2006v-4.2034H146.98V116.86h4.2006V112.66H146.98V108.455h4.2006a6.5915,6.5915,0,0,0-1.2108-4.202h-2.99v-2.1024l-4.2034-2.1024-8.4027-4.202h-4.2021V93.7438l-4.2034-2.1024v109.287h12.6061V158.8958h12.6061V154.691H146.98v-4.202l4.2006-.0014v-4.202H146.98v-4.2034h4.2006v-4.2034Zm-8.404-25.219h-4.2021V108.455h4.2021V112.66Zm-8.4027,0h-4.2021V108.455h4.2021V112.66Zm8.404-12.6116-0.0013,4.2048h-4.2021v-4.2048h4.2034Zm-8.404,4.2048h-4.2021v-4.2048h4.2021v4.2048Zm0,75.6584-4.2021-.0014v-4.2007h4.2021v4.2021Zm0,8.4068h-4.2021v-4.2034h4.2021v4.2034Zm0,8.4068h-4.2021v-4.2034h4.2021v4.2034Zm-4.2021-37.8292h4.2021v4.202h-4.2021v-4.202Zm4.2021,12.6088h-4.2021v-4.202h4.2021v4.202Zm0-33.6258h-4.2021V133.674h4.2021v4.2048Zm0,8.4068h-4.2021v-4.2034h4.2021v4.2034Zm8.4027,0h-4.2021v-4.2034h4.2021v4.2034Zm0.0013,4.202-0.0013,4.2034h-4.2021v-4.2034h4.2034Zm-8.404,4.2034h-4.2021v-4.2034h4.2021v4.2034Zm0-33.6258h-4.2021V116.86h4.2021v4.2047Zm8.4027,0h-4.2021V116.86h4.2021v4.2047Zm0,16.8136h-4.2021V133.674h4.2021v4.2048Zm0.0013-12.61-0.0013,4.2034h-4.2021v-4.2034h4.2034Zm-8.404,4.2034h-4.2021v-4.2034h4.2021v4.2034Z"/>
    </clipPath>
    <clipPath id="f4fa5aed-a8e9-4876-9de7-62b7489070dd">
      <path class="890a67ac-6aa7-499b-81f6-7d38ef1f8087" d="M151.1807,137.8789H146.98v-4.2047h4.2007v-4.2021H146.98v-4.2034h4.2007v-4.2034H146.98v-4.2047h4.2007v-4.202H146.98v-4.2048h4.2007a6.5819,6.5819,0,0,0-1.2109-4.2007h-2.99v-2.1024l-4.2034-2.1023-8.4027-4.2021h-4.202V93.7439l-4.2034-2.1023v30.4437l4.2034,4.2034v-1.02h4.202v4.2034h-1.021l5.223,5.2221v-1.02h4.2007v4.2047h-1.02l5.2231,5.2221v-1.0187h4.2007v-4.2034Zm0,9.4268v-1.0213h-1.0183Zm-8.4041-34.6471h-4.202v-4.2048h4.202v4.2048Zm-8.4027,0h-4.202v-4.2048h4.202v4.2048Zm8.4041-12.61-0.0014,4.2047h-4.2007v-4.2047h4.2021Zm-8.4041,4.2047h-4.202v-4.2047h4.202v4.2047Zm0,16.8122h-4.202v-4.2047h4.202v4.2047Zm8.4027,0h-4.202v-4.2047h4.202v4.2047Zm0.0014,4.2034-0.0014,4.2034h-4.2007v-4.2034h4.2021Z"/>
    </clipPath>
    <clipPath id="334b9746-49b5-40de-9d6e-9e088fdda2df">
      <path class="890a67ac-6aa7-499b-81f6-7d38ef1f8087" d="M138.5748,97.9472l-4.2006-2.101v4.202h4.2006v-2.101ZM125.9687,192.52h4.2021v-4.2034h-4.2021V192.52Zm0,8.4082h4.2021v-4.2048h-4.2021v4.2048Zm8.4055-12.6116h4.202V192.52h-4.202v-4.2034Zm0,8.4068h4.202v4.2048h-4.202v-4.2048Zm-8.4055-21.0143h4.2021v-4.2034h-4.2021v4.2034Zm0,8.4055h4.2021v-4.2034h-4.2021v4.2034Zm8.4055-12.6089h4.202v4.2034h-4.202v-4.2034Zm0,8.4055h4.202v4.2034h-4.202v-4.2034Zm-8.4055-21.0156h4.2021V154.691h-4.2021v4.2048Zm0,8.4068h4.2021v-4.2048h-4.2021v4.2048Zm8.4055-12.6116h4.202v4.2048h-4.202V154.691Zm8.4027,0h4.202v4.2048h-4.202V154.691Zm-8.4027,8.4068h4.202v4.2048h-4.202v-4.2048Zm-8.4055-21.0156h4.2021v-4.2034h-4.2021v4.2034Zm0,8.4054h4.2021v-4.2034h-4.2021v4.2034Zm21.0116-4.202h-4.2021v4.2034H146.98v-4.2034Zm-12.6061-8.4068h4.202v4.2034h-4.202v-4.2034Zm8.4027,0h4.202v4.2034h-4.202v-4.2034Zm-8.4027,8.4068h4.202v4.2034h-4.202v-4.2034Zm-8.4055-21.017h4.2021v-4.2034h-4.2021v4.2034Zm0,8.4054h4.2021v-4.202h-4.2021v4.202Zm21.0116-4.202h-4.2021v4.202H146.98v-4.202Zm-12.6061-8.4068h4.202v4.2034h-4.202v-4.2034Zm8.4027,0h4.202v4.2034h-4.202v-4.2034Zm-8.4027,8.4068h4.202v4.202h-4.202v-4.202Zm-8.4055-29.4238h4.2021v-4.202h-4.2021v4.202Zm0,8.4068h4.2021v-4.202h-4.2021v4.202Zm0,8.4055h4.2021v-4.2021h-4.2021V116.86ZM146.98,112.66h-4.2021v4.202H146.98V112.66Zm-12.6061-8.4068h4.202v4.202h-4.202v-4.202Zm8.4027,0h4.202v4.202h-4.202v-4.202Zm-8.4027,8.4068h4.202v4.202h-4.202V112.66Z"/>
    </clipPath>
    <clipPath id="0b5e3658-8631-4803-8e22-b143e7dcae1f">
      <rect class="d7686e4a-836f-49ce-ad24-166fc6992763" x="75.547" y="158.8958" width="12.6061" height="8.4068"/>
    </clipPath>
    <clipPath id="e6f5e1f8-6bfb-486a-9b12-7619ae36a0f2">
      <rect class="d7686e4a-836f-49ce-ad24-166fc6992763" x="138.5748" y="158.8958" width="12.6061" height="8.4068"/>
    </clipPath>
    <clipPath id="d21be9d7-2aa0-449e-8b0a-ce96c7507f52">
      <path class="890a67ac-6aa7-499b-81f6-7d38ef1f8087" d="M67.1636,314.4147H104.98v3.1536a1.0533,1.0533,0,0,1-1.0508,1.05H68.2131a1.054,1.054,0,0,1-1.0495-1.05v-3.1536Z"/>
    </clipPath>
    <clipPath id="42e96cac-ccc0-4a89-95ed-c73c9030bca0">
      <path class="890a67ac-6aa7-499b-81f6-7d38ef1f8087" d="M102.9011,299.7027a1.0554,1.0554,0,0,1,1.0508,1.0512v2.1024a1.0516,1.0516,0,0,1-.4623.8694,51.5783,51.5783,0,0,1,1.4847,10.69h-37.81a3.9731,3.9731,0,0,1,2.86-3.9837l12.4515-2.767a7.5249,7.5249,0,0,0,4.8353-4.2414,1.06,1.06,0,0,1-.1668-0.567v-2.1024a1.0546,1.0546,0,0,1,1.0291-1.0512h14.7282Z"/>
    </clipPath>
    <clipPath id="a4f02eb1-c174-4128-8e24-4616aa6c80bb">
      <path class="890a67ac-6aa7-499b-81f6-7d38ef1f8087" d="M159.6064,314.4147H121.7881v3.1536a1.0543,1.0543,0,0,0,1.0509,1.05h35.7166a1.0542,1.0542,0,0,0,1.0508-1.05v-3.1536Z"/>
    </clipPath>
    <clipPath id="fcfcdaa2-836b-41fe-b58f-7bdefa151741">
      <path class="890a67ac-6aa7-499b-81f6-7d38ef1f8087" d="M123.8689,299.7027a1.0554,1.0554,0,0,0-1.0508,1.0512v2.1024a1.0515,1.0515,0,0,0,.4624.8694,51.5868,51.5868,0,0,0-1.4848,10.69h37.81a3.9731,3.9731,0,0,0-2.86-3.9837l-12.4515-2.767a7.53,7.53,0,0,1-4.8366-4.2414,1.048,1.048,0,0,0,.1668-0.567v-2.1024a1.0538,1.0538,0,0,0-1.0292-1.0512H123.8689Z"/>
    </clipPath>
    <clipPath id="9d90d76e-f6f1-4609-9328-0a876104e613">
      <path class="890a67ac-6aa7-499b-81f6-7d38ef1f8087" d="M144.8782,170.4529a3.1537,3.1537,0,0,1,1.0495,6.1267v0.179h1.0508V178.86h-1.0508v4.0243a3.1549,3.1549,0,0,0,2.1-2.9732H150.13a5.2522,5.2522,0,1,1-10.5044,0h2.1017a3.1522,3.1522,0,0,0,2.1,2.9732V178.86h-1.0508v-2.1011h1.0508v-0.18a3.1531,3.1531,0,0,1,1.0509-6.1253m0,2.1023a1.0506,1.0506,0,1,0,1.0495,1.0512,1.0443,1.0443,0,0,0-1.0495-1.0512"/>
    </clipPath>
  </defs>
  <title>people</title>
  <g>
    <g class="8ef63d57-314e-4d05-ac28-e22d32ad3ab8">
      <rect class="249dcc85-accc-4f76-ac5c-17b7e202970e" x="83.1525" y="166.5042" width="60.423" height="140.3012"/>
    </g>
    <g class="60a1a9d1-760b-4976-bbec-0adcb57ab690">
      <rect class="48666f4b-c5b0-4dad-9624-c7bffdd5d33e" x="109.89" y="196.6289" width="33.6854" height="110.1762"/>
    </g>
    <g class="5ee9be1e-2d53-4dcb-89f1-bc5cf4c79396">
      <rect class="1d3f91f9-89e3-4d79-bd54-e9ca2621bd8b" x="70.5464" y="126.5733" width="22.6061" height="98.2699"/>
    </g>
    <g class="54941a7d-8531-4704-acd1-27656b970474">
      <rect class="1d3f91f9-89e3-4d79-bd54-e9ca2621bd8b" x="133.5754" y="126.5733" width="22.6061" height="98.2699"/>
    </g>
    <g class="06878f67-fd10-44d8-9e38-b1522c772bfa">
      <rect class="2f99ba70-33e2-493c-bf8e-de9fb058e6ef" x="95.7579" y="74.034" width="35.2108" height="39.421"/>
    </g>
    <g class="85c5e5d4-ec05-4a4b-af15-4c2534f77c3d">
      <rect class="57a74c77-38d5-4f84-bfe0-69bcd8f934a5" x="95.758" y="74.0336" width="35.2109" height="39.421"/>
    </g>
    <g class="55163cf2-c2c4-4bd4-8431-f71a9c7b44f4">
      <rect class="2f99ba70-33e2-493c-bf8e-de9fb058e6ef" x="125.1716" y="48.8128" width="18.4041" height="18.4068"/>
    </g>
    <g class="ca35ba36-4728-4070-8b70-26c68d8c66fd">
      <rect class="57a74c77-38d5-4f84-bfe0-69bcd8f934a5" x="127.2733" y="50.9137" width="14.2007" height="14.2047"/>
    </g>
    <g class="1c4451c3-63c3-44fe-89f4-bd938a9d933e">
      <rect class="1d3f91f9-89e3-4d79-bd54-e9ca2621bd8b" x="83.1522" y="48.8128" width="18.4041" height="18.4068"/>
    </g>
    <g class="d364a246-18db-4697-966d-3fc6837980db">
      <rect class="789f9ff5-9b40-42d8-9fa1-e4c89be1dc1e" x="85.2539" y="50.9137" width="14.2007" height="14.2047"/>
    </g>
    <g class="b17df3a3-2ef1-4a56-b916-ff9a3176f2a5">
      <rect class="1d3f91f9-89e3-4d79-bd54-e9ca2621bd8b" x="87.3546" y="23.5935" width="52.019" height="73.0482"/>
    </g>
    <g class="379bf5ba-5b5b-44d3-999d-806bbffc5a74">
      <rect class="789f9ff5-9b40-42d8-9fa1-e4c89be1dc1e" x="114.5389" y="62.3477" width="24.3431" height="33.3635"/>
    </g>
    <g class="5b3fa14a-d098-49ec-a99d-627aeba2d6bb">
      <rect class="4ced369a-304b-4162-88e6-c2f7ecd80d04" x="86.3041" y="22.5419" width="54.1193" height="75.1506"/>
    </g>
    <g class="10f0da88-721f-49e5-bf41-26832588f880">
      <rect class="de02f0a4-6a7f-4e50-83e0-fc8105c1054f" x="95.6291" y="65.0578" width="44.1261" height="31.4876"/>
    </g>
    <g class="c95e1808-c964-4be1-8710-c0ba2ab237cf">
      <rect class="f0c40f7b-b7f5-4697-8ded-ec6ac2549a54" x="95.758" y="86.6417" width="35.2109" height="102.472"/>
    </g>
    <g class="5ac2e916-6b74-4673-8f2e-c5aeeaecdbca">
      <rect class="ff4adf66-13b8-4a4a-96c4-07c213de0b17" x="99.4494" y="86.6418" width="31.52" height="40.4438"/>
    </g>
    <g class="ee55c423-fa30-493a-a6a5-c5744fd2c1f1">
      <rect class="b47fe1bf-bc49-4eb8-9559-b5d60d3eed77" x="93.6569" y="48.8128" width="18.404" height="18.4068"/>
    </g>
    <g class="dd2c551b-cb47-4d5d-bde0-742c601a6a5f">
      <rect class="b47fe1bf-bc49-4eb8-9559-b5d60d3eed77" x="114.6669" y="48.8128" width="18.4041" height="18.4081"/>
    </g>
    <g class="e20d577f-c28c-4255-a583-0941193e67f6">
      <rect class="4ced369a-304b-4162-88e6-c2f7ecd80d04" x="95.7586" y="50.9137" width="14.2006" height="14.2047"/>
    </g>
    <g class="2fe89159-e764-47d7-a717-fdcb2fa08103">
      <rect class="4ced369a-304b-4162-88e6-c2f7ecd80d04" x="116.7686" y="50.9137" width="14.2007" height="14.2047"/>
    </g>
    <g class="3d55dd5f-b735-41e0-a736-4216742954a9">
      <rect class="b47fe1bf-bc49-4eb8-9559-b5d60d3eed77" x="94.7072" y="51.9647" width="12.1003" height="12.1024"/>
    </g>
    <g class="6ee87127-1160-4c0f-b0f0-760625aaeee3">
      <rect class="b47fe1bf-bc49-4eb8-9559-b5d60d3eed77" x="115.7172" y="51.9647" width="12.1004" height="12.1024"/>
    </g>
    <g class="96da2a9d-8bfe-4eed-8580-b218d1ee8516">
      <rect class="4ced369a-304b-4162-88e6-c2f7ecd80d04" x="94.7077" y="61.4224" width="37.3126" height="16.2895"/>
    </g>
    <g class="7425eec1-3d86-4c74-8e4a-cf67607a9d41">
      <rect class="57a74c77-38d5-4f84-bfe0-69bcd8f934a5" x="103.1111" y="51.9689" width="16.2983" height="20.5051"/>
    </g>
    <g class="60af6eeb-77e5-4605-833e-911613d0d8ef">
      <rect class="4ced369a-304b-4162-88e6-c2f7ecd80d04" x="93.6611" y="45.6641" width="18.3959" height="12.0929"/>
    </g>
    <g class="716e4699-170d-4514-8bc9-9b9b65709dd2">
      <rect class="4ced369a-304b-4162-88e6-c2f7ecd80d04" x="114.6704" y="45.6641" width="18.396" height="12.0929"/>
    </g>
    <g class="ec29385e-1637-4f8f-b9a9-076ff6187350">
      <rect class="ab9ffef0-4cc4-43fd-8f5b-73ea1384bf57" x="107.5228" y="47.7616" width="33.9512" height="20.5092"/>
    </g>
    <g class="8824a7ee-64ad-4e1b-ba2c-c813383baf37">
      <rect class="f8a1865d-5bb6-417f-819b-c36c735a5489" x="85.2527" y="47.7615" width="33.1105" height="20.5091"/>
    </g>
    <g class="ad865179-ea5c-49f2-a7df-2cb076c49ea4">
      <rect class="bcebe3a5-ef2b-4d4d-9e25-16ba2468cc0a" x="70.5458" y="86.6417" width="85.6353" height="119.2869"/>
    </g>
    <g class="9bcf1af7-bf28-48db-9150-8c4054e2ab1a">
      <rect class="068d78c8-5d01-42ca-b0dd-f087e21b3441" x="120.9687" y="86.6418" width="35.2122" height="65.6628"/>
    </g>
    <g class="59969ce0-8673-49c2-b1f2-978f9950b869">
      <rect class="f8a1865d-5bb6-417f-819b-c36c735a5489" x="70.547" y="86.6414" width="35.2109" height="119.287"/>
    </g>
    <g class="953863e9-8055-44a3-95ec-a7ff113279f5">
      <rect class="ab9ffef0-4cc4-43fd-8f5b-73ea1384bf57" x="74.7477" y="90.8462" width="31.0102" height="115.0822"/>
    </g>
    <g class="2b904b4b-b852-4b9e-a4ca-231a08b95cb2">
      <rect class="f8a1865d-5bb6-417f-819b-c36c735a5489" x="120.9687" y="86.6414" width="35.2122" height="119.287"/>
    </g>
    <g class="c313fbb3-1ee6-4863-b6b2-bd156abf8608">
      <rect class="ab9ffef0-4cc4-43fd-8f5b-73ea1384bf57" x="120.9685" y="86.6416" width="35.2122" height="65.6641"/>
    </g>
    <g class="79811c4e-eb8b-4c38-a34e-2b5d030c7871">
      <rect class="ab9ffef0-4cc4-43fd-8f5b-73ea1384bf57" x="120.9687" y="90.8462" width="31.0116" height="115.0822"/>
    </g>
    <g class="823f6dc0-ffe9-4749-a65c-1ad4d099d599">
      <rect class="351f1fdf-67c1-4c80-8bc3-2ac6e972fab2" x="70.547" y="153.8958" width="22.6061" height="18.4068"/>
    </g>
    <g class="f3856fd0-f1dc-4c78-8d10-2640a908f876">
      <rect class="f1338ff3-53ba-4865-bce9-a96cfaa18b3b" x="133.5748" y="153.8958" width="22.6061" height="18.4068"/>
    </g>
    <g class="fbc9f659-32ef-46d3-a90d-c92253a5aacf">
      <rect class="b47fe1bf-bc49-4eb8-9559-b5d60d3eed77" x="62.1636" y="309.4147" width="47.8169" height="14.2034"/>
    </g>
    <g class="68523908-b070-4af5-969e-234d7020896e">
      <rect class="80068c2d-e2b3-45b0-bf38-54fb1a3d1abe" x="62.1641" y="294.7027" width="47.8102" height="24.7126"/>
    </g>
    <g class="a2a0e1f4-f2cf-4f34-b4f4-026c39a3e014">
      <rect class="8b3814bb-04a8-4be2-af8a-8be668e498e4" x="116.7881" y="309.4147" width="47.8183" height="14.2034"/>
    </g>
    <g class="2be31bfe-f707-49d1-aa52-84b6399864a8">
      <rect class="75f4f30a-1f01-426b-babf-dcb8cbddefb0" x="116.7957" y="294.7027" width="47.8102" height="24.7126"/>
    </g>
    <g class="2c2359be-a275-4c6b-ab1e-b17979a0830e">
      <rect class="57a74c77-38d5-4f84-bfe0-69bcd8f934a5" x="134.6253" y="165.4529" width="20.5044" height="24.7125"/>
    </g>
  </g>
</svg>
