<svg id="8d621c2a-a86d-4718-9d9e-f3d93f5e878d" data-name="Layer 1" xmlns="http://www.w3.org/2000/svg" xmlns:xlink="http://www.w3.org/1999/xlink" viewBox="0 0 226.77 340.16">
  <defs>
    <style>
      .a1101881-f052-415b-89b7-15d527fefa8c, .a38569e5-bc18-40a0-8b34-871edf57edec {
        fill: none;
      }

      .a38569e5-bc18-40a0-8b34-871edf57edec {
        clip-rule: evenodd;
      }

      .dc0d4220-76be-42c5-a1c2-cf24f437d755 {
        clip-path: url(#5cc83424-1764-4b1e-b900-c923ab96c7b9);
      }

      .\36 5e11006-28d5-43cb-8f9e-1078cd89e1f7 {
        fill: #5ba2a2;
      }

      .b7929520-52b5-48be-b2f5-90bf79b45261 {
        clip-path: url(#20c39a66-35e1-45ef-96b1-168542476ba7);
      }

      .\33 60bb6bb-1804-43c2-a948-7bb09ea881bc {
        fill: #9fb2b9;
      }

      .e5411713-9529-4fdc-b109-d9f4be2b6fac {
        clip-path: url(#b5d88b58-9335-4731-ae97-b182a715934e);
      }

      .\32 fcc6b15-4d3a-4089-9435-3d23a20fcaf5 {
        fill: #367878;
      }

      .\37 45411fe-61eb-4886-ad89-2204aa4ee0a9 {
        clip-path: url(#b98d2cb8-fc57-487b-8097-67f3061b4f02);
      }

      .\34 e64e719-4b3f-4f9f-a5d3-3512d0f1f5a4 {
        fill: #77878e;
      }

      .f21b56b4-0be3-4ced-8cb6-c23991fcbe60 {
        clip-path: url(#783b7fc1-7f8c-4e38-b401-3db5fba2c2ba);
      }

      .ef24c1a5-f92a-4fee-95e1-7c52f11d7b4a {
        fill: #e7b174;
      }

      .\39 1c3a2e4-2cd3-4733-90a6-86aa85dbf9c2 {
        clip-path: url(#ad0e6769-fed7-476b-a33c-0f6cc1153269);
      }

      .\32 140d71a-a8a8-4467-9a65-ddf5478d1c0d {
        clip-path: url(#c86af14c-9936-4393-a36b-55bc484e97ae);
      }

      .\36 569194e-98cf-4f2d-9ab4-2928db7acefb {
        fill: #9d5031;
      }

      .f2907ee9-e1b3-46d3-9a2b-7ca8d70b9873 {
        clip-path: url(#bc143fbe-13f2-4cfc-a11a-f521ea2202d9);
      }

      .\39 5a92348-31e0-40b1-80a5-9d97d1f7bb9f {
        fill: #c69155;
      }

      .cdc37994-f34c-4de1-98de-f2ae022a8a96 {
        clip-path: url(#3b029919-872c-4f50-905b-586f885c2195);
      }

      .ef7b168a-c31a-4714-843b-f44669c38b3c {
        fill: #a77841;
      }

      .\34 147dc22-810e-483e-afb1-a1f91ff9119b {
        clip-path: url(#cb192b62-ebab-4f98-96cb-44d954a4ff23);
      }

      .\31 011abcd-584f-445d-bfdf-f1ae0e8559ff {
        fill: #b82025;
      }

      .f19eb95e-01d9-439a-a42d-c82f6c289c10 {
        clip-path: url(#abbfc45c-21e2-4360-8f98-0ad5d1cdc68a);
      }

      .\37 d7ad43d-a4e1-466e-b48d-413344239fd0 {
        fill: #971b1e;
      }

      .\31 d133693-77c0-464d-9be8-ba884afb760e {
        clip-path: url(#7829b721-9d47-4fd8-bef4-d76ce8e5a0c6);
      }

      .ad93be0a-569c-4a42-9618-060bb7f69cea {
        fill: #fff;
      }

      .eb8eccaa-bdf0-4265-afd7-f744bbbeb581 {
        clip-path: url(#27557409-bcd8-4455-bb5f-1ecb9229092d);
      }

      .ddd465d3-5c90-4db7-8060-46fca980780b {
        clip-path: url(#e0d97fa0-07c9-49ee-b242-d55ed6a08f89);
      }

      .\33 4ae1e01-aba3-4d8e-9457-eb16547675f7 {
        clip-path: url(#09dc4552-18f0-4994-bfe8-af29cf565fc7);
      }

      .\35 92e40c9-430a-4751-98a7-97a8de50158a {
        clip-path: url(#9bee7b9c-67d7-4bda-9e17-d31e1599db5c);
      }

      .bbe1f6c8-887c-4e1f-99bd-d7a5e0927622 {
        clip-path: url(#5aea3cc2-9b37-44af-bfc9-22c84f5852b6);
      }

      .\31 891dbcb-b6a6-4e63-a2fd-a8966423de59 {
        clip-path: url(#4e669f45-680b-481b-aa10-0c906792c19e);
      }

      .\32 d57edcf-0902-4ae1-836e-410ef5f47ea3 {
        clip-path: url(#dabc8503-de1f-48b8-913c-7872875bebe3);
      }

      .e55c4d03-21ae-40f4-b08c-92ef5579599f {
        clip-path: url(#2812ff61-5a11-4f8b-b295-a2a5095e3fc2);
      }

      .acfb76fd-0d56-4119-9b1b-54be253153e3 {
        clip-path: url(#a60d4690-95de-4546-a09e-e855676cc979);
      }

      .\31 c2e3d6f-3468-4dd9-8b6b-229b83c3ac8b {
        clip-path: url(#f5569b2a-8ac7-4c13-a742-c2ef49b8b049);
      }

      .ca8f5f8c-698f-4a74-a30b-f2a347e2cbac {
        fill: #222c30;
      }

      .\35 94fdfc4-0001-4820-8645-f0e96593e344 {
        clip-path: url(#a2f0a220-501d-4d60-9347-cc1a7240eadd);
      }

      .\33 565689f-1327-423d-ba12-2fab46ff5dcb {
        clip-path: url(#4e4e92a6-a165-41d7-90e7-eefc516cfa1d);
      }

      .ad7cb8d9-8d61-46d5-8be1-aa06c0ce5b63 {
        clip-path: url(#653edb47-2390-476d-bd7f-91d085b701a1);
      }

      .c19d60ec-c0f7-42dc-8541-6b86e9738128 {
        clip-path: url(#4304eaf1-d5ae-4e77-8722-aeaf1db76610);
      }

      .c5aba16b-d8b3-4a67-8140-0403d9bc1a3c {
        clip-path: url(#53009e5e-79c2-4e2e-b0f5-db60ff6fb356);
      }

      .f54f3735-1d01-4544-b69d-e4f85afb45ff {
        clip-path: url(#afaddb13-f4af-4b2e-9f91-ef8b3b63d760);
      }

      .\36 019426a-f2b6-42d6-84d6-22d6e5100323 {
        clip-path: url(#dd557a3b-badf-429f-99c1-cb42de0f851f);
      }

      .\34 ec098ee-78b0-4708-adc0-55367e1a89f1 {
        clip-path: url(#9a2b1bb9-078c-47b3-aec3-2ab9e274e36b);
      }

      .\31 24f3af2-50aa-4d62-bd3d-27fe53da04a6 {
        fill: #424f55;
      }

      .\33 c0bd049-9a4d-4ae5-b801-9a6814fca9f8 {
        clip-path: url(#790c7f02-223b-4c1e-809c-c9cf40d525e1);
      }

      .\37 f04480e-29bd-489d-84c6-d17274f739e8 {
        clip-path: url(#62f8ab55-362e-488f-af33-da9511f9d4e5);
      }

      .\33 ad94065-4f49-4198-904e-1e5fda41ed27 {
        fill: #647278;
      }

      .\34 02d8078-72cd-4a16-80ff-935e75e5ee51 {
        clip-path: url(#59a630b9-29a6-4028-9cac-cf3b8b063c89);
      }

      .\31 8c566e7-0e98-4637-9bb3-d0bcc6953bef {
        clip-path: url(#9600f0ea-2ada-4d31-9a23-0f83a549911d);
      }

      .\38 29bd36c-0e54-4f27-965f-18b298fd72d4 {
        clip-path: url(#4c26c3dc-fbf7-4f9f-8c3e-9fc5055bd75c);
      }

      .\37 396db4f-a962-4a6a-9e39-0728ae80c41c {
        fill: #e5e5e4;
      }

      .\33 22d5866-1ae2-4be3-9365-91d8a8dd7ffd {
        clip-path: url(#9fec5008-c348-4f62-8c9b-76141c29d1ce);
      }

      .c04aaec6-ef95-4814-927f-92660c3fe0cd {
        clip-path: url(#fdcd80b5-e34c-4481-8199-54b576217913);
      }

      .e7a0c06e-8c6c-40c4-aa2a-00c48432112e {
        clip-path: url(#fd0d3e9e-03d9-43dd-8e69-b5f679bd67c9);
      }

      .\33 b051665-f860-4410-bcc9-9d1ae9a9344b {
        clip-path: url(#6fa25c36-c7b5-4c49-8ad8-5da368232b23);
      }

      .\33 ed8c2a2-3fee-427b-ae01-f10b5a0e1cf9 {
        clip-path: url(#e650443a-0971-42df-8357-5e6597427ff0);
      }

      .c2f408e9-c16e-4a78-a633-df2865dbb841 {
        clip-path: url(#f517b43e-45e4-4d4e-8b04-38ca34561ea4);
      }

      .fb9ad7c2-a729-4962-afa2-d5a8064d5a9e {
        clip-path: url(#41c6fb1e-2ce5-471d-979b-daf90ed96154);
      }

      .\37 23750cc-cb8c-47eb-af01-cdd28f05c088 {
        clip-path: url(#caef6b9a-93f5-4930-9347-2fcaf6d357a1);
      }

      .d9968993-9540-47ba-8531-ccae0a5b9927 {
        clip-path: url(#a5a9bd20-d0b9-452b-8441-796ea4c9c171);
      }

      .cd135454-389f-46c5-a1e6-2e415aefdaf0 {
        clip-path: url(#23c53c56-5c26-4fb6-8692-fa37145ce3c3);
      }

      .f0ab7119-9dbf-4838-852e-b5db8c858329 {
        fill: #f06162;
      }

      .\31 6e7f4fe-e5f6-48ae-8423-14a6fa62573f {
        clip-path: url(#ee7a727c-b85b-46c8-8f73-3dd0697a9d12);
      }

      .\32 6b2e281-09b4-40f7-9968-90fde8fc1165 {
        clip-path: url(#f411a330-060f-463e-bbf7-308a27e665ef);
      }

      .bf7e36e2-2cd6-4843-9a8d-35dd243bd2ed {
        clip-path: url(#982d84fe-db6a-49e8-99e0-0db3eed3c01b);
      }

      .\36 273cd43-ed42-425e-ac5a-de75aff9dd7a {
        clip-path: url(#76404e33-524e-453c-af0d-73ea0a619a41);
      }

      .ba0d792d-debc-4d2f-a501-3237967143f5 {
        fill: #804026;
      }

      .\34 1d3724b-d1e5-4c9c-bbb4-df781771fa8c {
        clip-path: url(#34b2991b-bac4-4d7a-8fb6-94fb04e07e9d);
      }

      .e160ef0b-9f53-4bd8-8126-f3fbf46a4473 {
        clip-path: url(#85b11fe4-e9ae-47d7-a16b-49a296065c5f);
      }

      .\37 652bd67-9a0e-4674-b4df-3cb7cee718d7 {
        fill: #653614;
      }
    </style>
    <clipPath id="5cc83424-1764-4b1e-b900-c923ab96c7b9">
      <path class="a38569e5-bc18-40a0-8b34-871edf57edec" d="M88.1735,172.1306h50.423v53.8181L115.486,203.654a2.101,2.101,0,1,0-4.202,0L102.88,302.4318H88.1735V172.1306Z"/>
    </clipPath>
    <clipPath id="20c39a66-35e1-45ef-96b1-168542476ba7">
      <polygon class="a38569e5-bc18-40a0-8b34-871edf57edec" points="103.595 294.026 102.879 302.433 88.174 302.433 88.174 294.026 103.595 294.026"/>
    </clipPath>
    <clipPath id="b5d88b58-9335-4731-ae97-b182a715934e">
      <path class="a38569e5-bc18-40a0-8b34-871edf57edec" d="M138.5963,225.9486V302.433H123.89l-8.4041-98.7778a2.4612,2.4612,0,0,0-.5749-1.4011Z"/>
    </clipPath>
    <clipPath id="b98d2cb8-fc57-487b-8097-67f3061b4f02">
      <polygon class="a38569e5-bc18-40a0-8b34-871edf57edec" points="138.596 294.026 138.596 302.433 123.89 302.433 123.174 294.026 138.596 294.026"/>
    </clipPath>
    <clipPath id="783b7fc1-7f8c-4e38-b401-3db5fba2c2ba">
      <path class="a38569e5-bc18-40a0-8b34-871edf57edec" d="M88.1735,216.2643a1.0508,1.0508,0,1,1-2.1017,0v-4.2034a1.05,1.05,0,1,0-2.1,0v6.3058a1.05,1.05,0,0,1-2.1.0136v1.0376a1.0509,1.0509,0,0,1-2.1017,0v-1.0512a1.0508,1.0508,0,1,1-2.1017,0v-3.1522a1.05,1.05,0,0,1-2.1,0V132.1991H88.1735v84.0652Z"/>
    </clipPath>
    <clipPath id="ad0e6769-fed7-476b-a33c-0f6cc1153269">
      <path class="a38569e5-bc18-40a0-8b34-871edf57edec" d="M138.5956,216.2643a1.0508,1.0508,0,1,0,2.1017,0v-4.2034a1.05,1.05,0,1,1,2.1,0v6.3058a1.0509,1.0509,0,0,0,2.1017.0136v1.0376a1.05,1.05,0,0,0,2.1,0v-1.0512a1.0508,1.0508,0,1,0,2.1017,0v-3.1522a1.05,1.05,0,0,0,2.1,0V132.1991H138.5956v84.0652Z"/>
    </clipPath>
    <clipPath id="c86af14c-9936-4393-a36b-55bc484e97ae">
      <path class="a38569e5-bc18-40a0-8b34-871edf57edec" d="M67.1634,315.04l21.01-4.202L104.98,315.04v3.1536a1.0546,1.0546,0,0,1-1.0509,1.0512H68.2129a1.0543,1.0543,0,0,1-1.0495-1.0512V315.04Z"/>
    </clipPath>
    <clipPath id="bc143fbe-13f2-4cfc-a11a-f521ea2202d9">
      <rect class="a1101881-f052-415b-89b7-15d527fefa8c" x="100.7796" y="79.6591" width="25.2122" height="29.4238"/>
    </clipPath>
    <clipPath id="3b029919-872c-4f50-905b-586f885c2195">
      <polygon class="a38569e5-bc18-40a0-8b34-871edf57edec" points="100.779 79.659 125.991 79.659 125.991 109.082 121.489 109.082 100.779 88.364 100.779 79.659"/>
    </clipPath>
    <clipPath id="cb192b62-ebab-4f98-96cb-44d954a4ff23">
      <path class="a38569e5-bc18-40a0-8b34-871edf57edec" d="M75.5672,109.0818c0-.0664.0014-0.13,0.0014-0.1953l0.0041-.19,0.0081-.1858c0.0041-.0611.0068-0.1221,0.0108-0.1818s0.0082-.118.0136-0.1763l0.0163-.1736c0.0054-.057.0122-0.1126,0.019-0.17,0.0067-.0542.0149-0.1085,0.0217-0.1627s0.0176-.1085.0257-0.1614,0.0176-.1045.0271-0.156,0.02-.1031.03-0.1533,0.0217-.099.0325-0.1492,0.0231-.0976.0353-0.1451,0.0244-.095.0379-0.1411,0.0258-.0922.0394-0.1383,0.0284-.09.0433-0.133,0.0285-.0881.0448-0.1315,0.03-.0855.0461-0.1275,0.0325-.0841.05-0.1235c0.0162-.042.0339-0.0813,0.05-0.122,0.019-.0394.0353-0.08,0.0543-0.118s0.0366-.076.0556-0.114,0.0379-.0759.0583-0.1125c0.0189-.0367.0379-0.0719,0.0583-0.1086l0.061-.1058c0.0217-.0339.042-0.0691,0.0637-0.103s0.0434-.0665.0651-0.0991,0.0447-.0651.0678-0.0976,0.0447-.0638.0678-0.095,0.0461-.0624.0705-0.0922,0.0475-.061.0719-0.0909,0.0488-.0583.0732-0.0881,0.05-.057.0759-0.0841,0.05-.0556.076-0.0828,0.0515-.0542.0772-0.0813,0.0529-.0529.08-0.0787,0.0529-.0516.08-0.0773,0.0543-.05.0828-0.0746,0.0542-.0489.0827-0.0719,0.0556-.0488.084-0.0719,0.0556-.0461.0855-0.0692,0.0569-.0447.0854-0.0678h0.0013c0.0285-.0217.057-0.0434,0.0868-0.0651s0.06-.0434.0881-0.0651,0.06-.0421.09-0.0624l0.09-.061,0.0922-.0611,0.0909-.0583c0.0312-.019.0624-0.0393,0.0922-0.0583l0.0935-.057,0.0936-.0556,0.0936-.0543,0.0949-.0542,0.0963-.0529,0.0935-.0516h0.0014l0.0962-.0515,0.0963-.0515,0.0963-.0489,0.0963-.05,0.0962-.05,0.0976-.0489,0.0977-.0488,0.0962-.0488,0.0977-.0489,21.01-10.5078a12.6055,12.6055,0,1,0,25.2109,0L147,102.776l0.0962,0.0489,0.0977,0.0488,0.0976,0.0488c0.0637,0.0326.1288,0.0651,0.1939,0.099,1.8712,0.959,3.6556,2.1445,3.7152,5.865l0.0014,82.1581H138.5964V172.13H88.1733v18.9146H75.5672V109.0818Z"/>
    </clipPath>
    <clipPath id="abbfc45c-21e2-4360-8f98-0ad5d1cdc68a">
      <path class="a38569e5-bc18-40a0-8b34-871edf57edec" d="M113.3845,104.8786a12.6083,12.6083,0,0,0,12.6061-12.61l21.0088,10.5078c2.07,1.0349,4.2034,2.1024,4.2034,6.3057l-0.0014,38.8492-46.7308-46.7473a12.5622,12.5622,0,0,0,8.9139,3.6948"/>
    </clipPath>
    <clipPath id="7829b721-9d47-4fd8-bef4-d76ce8e5a0c6">
      <polygon class="a38569e5-bc18-40a0-8b34-871edf57edec" points="88.173 98.573 92.375 96.472 92.375 172.13 88.173 172.13 88.173 98.573"/>
    </clipPath>
    <clipPath id="27557409-bcd8-4455-bb5f-1ecb9229092d">
      <polygon class="a38569e5-bc18-40a0-8b34-871edf57edec" points="134.394 96.471 138.597 98.572 138.597 172.131 134.394 172.131 134.394 96.471"/>
    </clipPath>
    <clipPath id="e0d97fa0-07c9-49ee-b242-d55ed6a08f89">
      <path class="a38569e5-bc18-40a0-8b34-871edf57edec" d="M134.3945,54.4385a4.2034,4.2034,0,1,0,4.202,4.2034,4.2036,4.2036,0,0,0-4.202-4.2034"/>
    </clipPath>
    <clipPath id="09dc4552-18f0-4994-bfe8-af29cf565fc7">
      <path class="a38569e5-bc18-40a0-8b34-871edf57edec" d="M134.3945,56.54a2.1017,2.1017,0,1,0,2.1,2.1024,2.1019,2.1019,0,0,0-2.1-2.1024"/>
    </clipPath>
    <clipPath id="9bee7b9c-67d7-4bda-9e17-d31e1599db5c">
      <path class="a38569e5-bc18-40a0-8b34-871edf57edec" d="M92.3752,54.4385a4.2034,4.2034,0,1,0,4.2021,4.2034,4.2027,4.2027,0,0,0-4.2021-4.2034"/>
    </clipPath>
    <clipPath id="5aea3cc2-9b37-44af-bfc9-22c84f5852b6">
      <path class="a38569e5-bc18-40a0-8b34-871edf57edec" d="M92.3752,56.54a2.1017,2.1017,0,1,0,2.1,2.1024,2.101,2.101,0,0,0-2.1-2.1024"/>
    </clipPath>
    <clipPath id="4e669f45-680b-481b-aa10-0c906792c19e">
      <path class="a38569e5-bc18-40a0-8b34-871edf57edec" d="M113.3845,29.2193a21.0758,21.0758,0,0,1,21.01,21.017V71.2519a21.0095,21.0095,0,1,1-42.019,0V50.2363a21.0739,21.0739,0,0,1,21.0089-21.017"/>
    </clipPath>
    <clipPath id="dabc8503-de1f-48b8-913c-7872875bebe3">
      <path class="a38569e5-bc18-40a0-8b34-871edf57edec" d="M133.903,75.7609A21.158,21.158,0,0,1,119.56,91.3361L100.65,72.42l4.3308-.5521L125.15,71.8817l0.9655-3.9077Z"/>
    </clipPath>
    <clipPath id="2812ff61-5a11-4f8b-b295-a2a5095e3fc2">
      <path class="a38569e5-bc18-40a0-8b34-871edf57edec" d="M134.3945,71.2521a21.0095,21.0095,0,1,1-42.019,0h42.019Z"/>
    </clipPath>
    <clipPath id="a60d4690-95de-4546-a09e-e855676cc979">
      <path class="a38569e5-bc18-40a0-8b34-871edf57edec" d="M133.903,75.7609A21.158,21.158,0,0,1,119.56,91.3361L100.65,72.42l4.3308-.5521L125.15,71.8817l0.156-.6294h4.0881Z"/>
    </clipPath>
    <clipPath id="f5569b2a-8ac7-4c13-a742-c2ef49b8b049">
      <path class="a38569e5-bc18-40a0-8b34-871edf57edec" d="M102.88,67.0488a1.05,1.05,0,1,1,0,2.101A1.0473,1.0473,0,0,0,101.83,70.201a1.0278,1.0278,0,0,0,1.04,1.0376l2.11-.0013a2.1065,2.1065,0,0,0,2.1017-2.0943,2.2479,2.2479,0,0,1,2.0949-2.0942h8.4162a2.2487,2.2487,0,0,1,2.095,2.0942,2.1061,2.1061,0,0,0,2.1,2.0943l2.11,0.0013A1.0281,1.0281,0,0,0,124.94,70.201,1.0482,1.0482,0,0,0,123.89,69.15a1.05,1.05,0,1,1,0-2.101,3.1441,3.1441,0,1,1,.0081,6.2881l-8.4122-.004a3.1548,3.1548,0,0,1-2.1017-.7962,3.151,3.151,0,0,1-2.1.7962l-8.4136.004a3.1441,3.1441,0,1,1,.01-6.2881"/>
    </clipPath>
    <clipPath id="a2f0a220-501d-4d60-9347-cc1a7240eadd">
      <path class="a38569e5-bc18-40a0-8b34-871edf57edec" d="M102.88,54.4385a4.2034,4.2034,0,1,1-4.202,4.2034,4.2037,4.2037,0,0,1,4.202-4.2034"/>
    </clipPath>
    <clipPath id="4e4e92a6-a165-41d7-90e7-eefc516cfa1d">
      <path class="a38569e5-bc18-40a0-8b34-871edf57edec" d="M123.89,54.4385a4.2041,4.2041,0,1,1-4.2021,4.2034,4.2028,4.2028,0,0,1,4.2021-4.2034"/>
    </clipPath>
    <clipPath id="653edb47-2390-476d-bd7f-91d085b701a1">
      <path class="a38569e5-bc18-40a0-8b34-871edf57edec" d="M102.88,56.54a2.1017,2.1017,0,1,1-2.1,2.1024,2.1019,2.1019,0,0,1,2.1-2.1024"/>
    </clipPath>
    <clipPath id="4304eaf1-d5ae-4e77-8722-aeaf1db76610">
      <path class="a38569e5-bc18-40a0-8b34-871edf57edec" d="M123.89,56.54a2.1017,2.1017,0,1,1-2.1,2.1024,2.101,2.101,0,0,1,2.1-2.1024"/>
    </clipPath>
    <clipPath id="53009e5e-79c2-4e2e-b0f5-db60ff6fb356">
      <path class="a38569e5-bc18-40a0-8b34-871edf57edec" d="M100.779,57.5912a1.0506,1.0506,0,1,1-1.0508,1.0512,1.0511,1.0511,0,0,1,1.0508-1.0512"/>
    </clipPath>
    <clipPath id="afaddb13-f4af-4b2e-9f91-ef8b3b63d760">
      <path class="a38569e5-bc18-40a0-8b34-871edf57edec" d="M121.7889,57.5912a1.0506,1.0506,0,1,1-1.0508,1.0512,1.05,1.05,0,0,1,1.0508-1.0512"/>
    </clipPath>
    <clipPath id="dd557a3b-badf-429f-99c1-cb42de0f851f">
      <path class="a38569e5-bc18-40a0-8b34-871edf57edec" d="M93.4261,71.2513a1.0508,1.0508,0,1,1-2.1017,0V50.2356a22.06,22.06,0,0,1,44.1207,0V71.2513a1.0508,1.0508,0,1,1-2.1017,0V50.2356a19.9587,19.9587,0,0,0-39.9173,0V71.2513Z"/>
    </clipPath>
    <clipPath id="9a2b1bb9-078c-47b3-aec3-2ab9e274e36b">
      <path class="a38569e5-bc18-40a0-8b34-871edf57edec" d="M93.4261,71.2513a1.0508,1.0508,0,1,1-2.1017,0V50.2356a22.128,22.128,0,0,1,22.06-22.0681V30.27a20.0237,20.0237,0,0,0-19.958,19.9658V71.2513Z"/>
    </clipPath>
    <clipPath id="790c7f02-223b-4c1e-809c-c9cf40d525e1">
      <path class="a38569e5-bc18-40a0-8b34-871edf57edec" d="M104.9815,54.4385a4.2139,4.2139,0,0,1,4.2007,4.2034,6.8278,6.8278,0,1,1-13.6556,0V54.4385h9.4549Zm16.8068,0h9.4549v4.2034a6.8285,6.8285,0,1,1-13.657,0A4.215,4.215,0,0,1,121.7883,54.4385Z"/>
    </clipPath>
    <clipPath id="62f8ab55-362e-488f-af33-da9511f9d4e5">
      <path class="a38569e5-bc18-40a0-8b34-871edf57edec" d="M108.7813,60.9569a6.8763,6.8763,0,0,1-1.0617,1.9112l-8.4271-8.43h2.9722Zm-1.6447,2.56a6.8447,6.8447,0,0,1-1.7329,1.2384l-9.878-9.8812V54.4382h2.537Zm16.1383-9.0782,7.25,7.2525a6.8846,6.8846,0,0,1-1.238,1.7348L120.5047,54.64a4.1919,4.1919,0,0,1,1.2841-.2021h1.4861Zm-3.6176.586,8.9817,8.9832a6.86,6.86,0,0,1-1.9105,1.0621l-8.556-8.56A4.2429,4.2429,0,0,1,119.6573,55.0242Z"/>
    </clipPath>
    <clipPath id="59a630b9-29a6-4028-9cac-cf3b8b063c89">
      <path class="a38569e5-bc18-40a0-8b34-871edf57edec" d="M108.3569,53.7412a1.0463,1.0463,0,1,1-1.5593,1.3957,5.2641,5.2641,0,0,0-7.8359,0,1.0463,1.0463,0,0,1-1.5593-1.3957,7.3373,7.3373,0,0,1,10.9545,0"/>
    </clipPath>
    <clipPath id="9600f0ea-2ada-4d31-9a23-0f83a549911d">
      <path class="a38569e5-bc18-40a0-8b34-871edf57edec" d="M129.3668,51.6388a1.0463,1.0463,0,1,1-1.5593,1.3957,5.264,5.264,0,0,0-7.8359,0,1.0463,1.0463,0,1,1-1.5593-1.3957,7.34,7.34,0,0,1,10.9545,0"/>
    </clipPath>
    <clipPath id="4c26c3dc-fbf7-4f9f-8c3e-9fc5055bd75c">
      <path class="a38569e5-bc18-40a0-8b34-871edf57edec" d="M121.7885,55.49a3.1631,3.1631,0,0,0-3.1512,3.1522,5.7776,5.7776,0,1,0,11.5553,0V55.49h-8.4041Zm-8.404,0-1.0495-1.0512,1.0495-1.05a5.2408,5.2408,0,0,1,4.2047,2.1037,5.2491,5.2491,0,0,1,4.1993-2.101h13.6556a1.0471,1.0471,0,0,1,0,2.0942h-3.15v3.1563a7.8787,7.8787,0,1,1-15.7573,0A3.1519,3.1519,0,0,0,113.3845,55.49Z"/>
    </clipPath>
    <clipPath id="9fec5008-c348-4f62-8c9b-76141c29d1ce">
      <path class="a38569e5-bc18-40a0-8b34-871edf57edec" d="M113.385,55.49a3.1508,3.1508,0,0,0-3.1512,3.1522,7.8787,7.8787,0,1,1-15.7573,0V55.4856H91.324a1.0471,1.0471,0,0,1,0-2.0942h13.6569a5.2493,5.2493,0,0,1,4.1994,2.101,5.2406,5.2406,0,0,1,4.2047-2.1037V55.49Zm-8.4041,0h-8.404v3.1522a5.7776,5.7776,0,1,0,11.5552,0A3.163,3.163,0,0,0,104.9809,55.49Z"/>
    </clipPath>
    <clipPath id="fdcd80b5-e34c-4481-8199-54b576217913">
      <path class="a38569e5-bc18-40a0-8b34-871edf57edec" d="M112.3382,58.6423a1.0461,1.0461,0,1,1,2.0922,0v4.202a1.049,1.049,0,0,1-1.0454,1.0512h-2.1017a1.0533,1.0533,0,0,0,0,2.1065h2.1017a1.0464,1.0464,0,0,1,0,2.0928l-2.1017.0041a3.1522,3.1522,0,0,1,0-6.3044h1.0549V58.6423Z"/>
    </clipPath>
    <clipPath id="fd0d3e9e-03d9-43dd-8e69-b5f679bd67c9">
      <path class="a38569e5-bc18-40a0-8b34-871edf57edec" d="M123.89,39.728a8.4062,8.4062,0,0,0,.0542-16.8123,2.1014,2.1014,0,0,1-.0542,4.2021H102.88a6.3044,6.3044,0,0,0,0,12.6088Z"/>
    </clipPath>
    <clipPath id="6fa25c36-c7b5-4c49-8ad8-5da368232b23">
      <path class="a38569e5-bc18-40a0-8b34-871edf57edec" d="M124.127,22.919c-0.061-.0027-0.1221-0.0027-0.1831-0.0041a2.1021,2.1021,0,0,1-.0542,4.2034h-21.01a6.3034,6.3034,0,0,0-6.3024,6.3044h27.3668a5.2535,5.2535,0,0,0,.1831-10.5037"/>
    </clipPath>
    <clipPath id="e650443a-0971-42df-8357-5e6597427ff0">
      <polygon class="a38569e5-bc18-40a0-8b34-871edf57edec" points="100.779 114.336 113.385 109.082 100.779 103.827 100.779 114.336"/>
    </clipPath>
    <clipPath id="f517b43e-45e4-4d4e-8b04-38ca34561ea4">
      <polygon class="a38569e5-bc18-40a0-8b34-871edf57edec" points="125.991 114.336 113.385 109.082 125.991 103.827 125.991 114.336"/>
    </clipPath>
    <clipPath id="41c6fb1e-2ce5-471d-979b-daf90ed96154">
      <path class="a38569e5-bc18-40a0-8b34-871edf57edec" d="M113.3845,105.9288a3.1522,3.1522,0,1,0,3.1525,3.1536,3.1511,3.1511,0,0,0-3.1525-3.1536"/>
    </clipPath>
    <clipPath id="caef6b9a-93f5-4930-9347-2fcaf6d357a1">
      <polygon class="a38569e5-bc18-40a0-8b34-871edf57edec" points="134.394 96.471 138.597 98.572 138.595 135.32 134.394 131.117 134.394 96.471"/>
    </clipPath>
    <clipPath id="a5a9bd20-d0b9-452b-8441-796ea4c9c171">
      <path class="a38569e5-bc18-40a0-8b34-871edf57edec" d="M101.2929,178.4346a16.7763,16.7763,0,0,1-13.12,6.3044v-6.3044h13.12Zm24.1831,0a16.7766,16.7766,0,0,0,13.12,6.3044v-6.3044h-13.12Z"/>
    </clipPath>
    <clipPath id="23c53c56-5c26-4fb6-8692-fa37145ce3c3">
      <rect class="a1101881-f052-415b-89b7-15d527fefa8c" x="75.5674" y="186.841" width="12.6061" height="8.4068"/>
    </clipPath>
    <clipPath id="ee7a727c-b85b-46c8-8f73-3dd0697a9d12">
      <rect class="a1101881-f052-415b-89b7-15d527fefa8c" x="138.5965" y="186.841" width="12.6061" height="8.4068"/>
    </clipPath>
    <clipPath id="f411a330-060f-463e-bbf7-308a27e665ef">
      <rect class="a1101881-f052-415b-89b7-15d527fefa8c" x="88.1735" y="170.0287" width="4.202" height="4.2034"/>
    </clipPath>
    <clipPath id="982d84fe-db6a-49e8-99e0-0db3eed3c01b">
      <rect class="a1101881-f052-415b-89b7-15d527fefa8c" x="134.3945" y="170.0287" width="4.202" height="4.2034"/>
    </clipPath>
    <clipPath id="76404e33-524e-453c-af0d-73ea0a619a41">
      <path class="a38569e5-bc18-40a0-8b34-871edf57edec" d="M102.8792,305.3991a23.0267,23.0267,0,0,1,2.1017,9.6411H67.164a3.9776,3.9776,0,0,1,2.5871-3.8806L85.59,306.3119a3.9772,3.9772,0,0,0,2.5831-3.8792h14.7064v2.9664Z"/>
    </clipPath>
    <clipPath id="34b2991b-bac4-4d7a-8fb6-94fb04e07e9d">
      <path class="a38569e5-bc18-40a0-8b34-871edf57edec" d="M159.6063,315.04l-21.01-4.202L121.788,315.04v3.1536a1.0554,1.0554,0,0,0,1.0508,1.0512h35.7166a1.0545,1.0545,0,0,0,1.0509-1.0512V315.04Z"/>
    </clipPath>
    <clipPath id="85b11fe4-e9ae-47d7-a16b-49a296065c5f">
      <path class="a38569e5-bc18-40a0-8b34-871edf57edec" d="M123.89,305.3991a23.0267,23.0267,0,0,0-2.1017,9.6411h37.8183a3.98,3.98,0,0,0-2.5885-3.8806l-15.8387-4.8477a3.9773,3.9773,0,0,1-2.583-3.8792H123.89v2.9664Z"/>
    </clipPath>
  </defs>
  <title>people</title>
  <g>
    <g class="dc0d4220-76be-42c5-a1c2-cf24f437d755">
      <rect class="65e11006-28d5-43cb-8f9e-1078cd89e1f7" x="83.1735" y="167.1306" width="60.423" height="140.3011"/>
    </g>
    <g class="b7929520-52b5-48be-b2f5-90bf79b45261">
      <rect class="360bb6bb-1804-43c2-a948-7bb09ea881bc" x="83.1739" y="289.0259" width="25.421" height="18.4068"/>
    </g>
    <g class="e5411713-9529-4fdc-b109-d9f4be2b6fac">
      <rect class="2fcc6b15-4d3a-4089-9435-3d23a20fcaf5" x="109.9108" y="197.2541" width="33.6855" height="110.1789"/>
    </g>
    <g class="745411fe-61eb-4886-ad89-2204aa4ee0a9">
      <rect class="4e64e719-4b3f-4f9f-a5d3-3512d0f1f5a4" x="118.1739" y="289.0259" width="25.4224" height="18.4068"/>
    </g>
    <g class="f21b56b4-0be3-4ced-8cb6-c23991fcbe60">
      <rect class="ef24c1a5-f92a-4fee-95e1-7c52f11d7b4a" x="70.5674" y="127.1991" width="22.6061" height="98.2686"/>
    </g>
    <g class="91c3a2e4-2cd3-4733-90a6-86aa85dbf9c2">
      <rect class="ef24c1a5-f92a-4fee-95e1-7c52f11d7b4a" x="133.5956" y="127.1991" width="22.6061" height="98.2686"/>
    </g>
    <g class="2140d71a-a8a8-4467-9a65-ddf5478d1c0d">
      <rect class="6569194e-98cf-4f2d-9ab4-2928db7acefb" x="62.1634" y="305.8383" width="47.817" height="18.4068"/>
    </g>
    <g class="f2907ee9-e1b3-46d3-9a2b-7ca8d70b9873">
      <rect class="95a92348-31e0-40b1-80a5-9d97d1f7bb9f" x="95.7796" y="74.6591" width="35.2122" height="39.4238"/>
    </g>
    <g class="cdc37994-f34c-4de1-98de-f2ae022a8a96">
      <rect class="ef7b168a-c31a-4714-843b-f44669c38b3c" x="95.779" y="74.6586" width="35.2122" height="39.4238"/>
    </g>
    <g class="4147dc22-810e-483e-afb1-a1f91ff9119b">
      <rect class="1011abcd-584f-445d-bfdf-f1ae0e8559ff" x="70.5672" y="87.2682" width="85.6353" height="108.7764"/>
    </g>
    <g class="f19eb95e-01d9-439a-a42d-c82f6c289c10">
      <rect class="7d7ad43d-a4e1-466e-b48d-413344239fd0" x="99.4706" y="87.2684" width="56.7322" height="65.6627"/>
    </g>
    <g class="1d133693-77c0-464d-9be8-ba884afb760e">
      <rect class="ad93be0a-569c-4a42-9618-060bb7f69cea" x="83.1735" y="91.4719" width="14.202" height="85.6584"/>
    </g>
    <g class="eb8eccaa-bdf0-4265-afd7-f744bbbeb581">
      <rect class="ad93be0a-569c-4a42-9618-060bb7f69cea" x="129.3945" y="91.4712" width="14.202" height="85.6598"/>
    </g>
    <g class="ddd465d3-5c90-4db7-8060-46fca980780b">
      <rect class="95a92348-31e0-40b1-80a5-9d97d1f7bb9f" x="125.1925" y="49.4385" width="18.404" height="18.4068"/>
    </g>
    <g class="34ae1e01-aba3-4d8e-9457-eb16547675f7">
      <rect class="ef7b168a-c31a-4714-843b-f44669c38b3c" x="127.2942" y="51.54" width="14.2006" height="14.2034"/>
    </g>
    <g class="592e40c9-430a-4751-98a7-97a8de50158a">
      <rect class="ef24c1a5-f92a-4fee-95e1-7c52f11d7b4a" x="83.1732" y="49.4385" width="18.4041" height="18.4068"/>
    </g>
    <g class="bbe1f6c8-887c-4e1f-99bd-d7a5e0927622">
      <rect class="95a92348-31e0-40b1-80a5-9d97d1f7bb9f" x="85.2749" y="51.54" width="14.2007" height="14.2034"/>
    </g>
    <g class="1891dbcb-b6a6-4e63-a2fd-a8966423de59">
      <rect class="ef24c1a5-f92a-4fee-95e1-7c52f11d7b4a" x="87.3756" y="24.2193" width="52.019" height="73.0483"/>
    </g>
    <g class="2d57edcf-0902-4ae1-836e-410ef5f47ea3">
      <rect class="95a92348-31e0-40b1-80a5-9d97d1f7bb9f" x="95.6501" y="62.974" width="43.2529" height="33.3621"/>
    </g>
    <g class="e55c4d03-21ae-40f4-b08c-92ef5579599f">
      <rect class="95a92348-31e0-40b1-80a5-9d97d1f7bb9f" x="87.3755" y="66.2521" width="52.019" height="31.0156"/>
    </g>
    <g class="acfb76fd-0d56-4119-9b1b-54be253153e3">
      <rect class="ef7b168a-c31a-4714-843b-f44669c38b3c" x="95.6501" y="66.2523" width="43.2529" height="30.0838"/>
    </g>
    <g class="1c2e3d6f-3468-4dd9-8b6b-229b83c3ac8b">
      <rect class="ca8f5f8c-698f-4a74-a30b-f2a347e2cbac" x="94.7287" y="62.0488" width="37.3126" height="16.2881"/>
    </g>
    <g class="594fdfc4-0001-4820-8645-f0e96593e344">
      <rect class="ad93be0a-569c-4a42-9618-060bb7f69cea" x="93.6779" y="49.4385" width="18.4041" height="18.4068"/>
    </g>
    <g class="3565689f-1327-423d-ba12-2fab46ff5dcb">
      <rect class="ad93be0a-569c-4a42-9618-060bb7f69cea" x="114.6879" y="49.4385" width="18.4041" height="18.4081"/>
    </g>
    <g class="ad7cb8d9-8d61-46d5-8be1-aa06c0ce5b63">
      <rect class="2fcc6b15-4d3a-4089-9435-3d23a20fcaf5" x="95.7796" y="51.54" width="14.2007" height="14.2034"/>
    </g>
    <g class="c19d60ec-c0f7-42dc-8541-6b86e9738128">
      <rect class="2fcc6b15-4d3a-4089-9435-3d23a20fcaf5" x="116.7896" y="51.54" width="14.2007" height="14.2034"/>
    </g>
    <g class="c5aba16b-d8b3-4a67-8140-0403d9bc1a3c">
      <rect class="ad93be0a-569c-4a42-9618-060bb7f69cea" x="94.7282" y="52.5912" width="12.1017" height="12.1011"/>
    </g>
    <g class="f54f3735-1d01-4544-b69d-e4f85afb45ff">
      <rect class="ad93be0a-569c-4a42-9618-060bb7f69cea" x="115.7381" y="52.5912" width="12.1003" height="12.1011"/>
    </g>
    <g class="6019426a-f2b6-42d6-84d6-22d6e5100323">
      <rect class="ca8f5f8c-698f-4a74-a30b-f2a347e2cbac" x="86.3244" y="23.1675" width="54.1207" height="54.1349"/>
    </g>
    <g class="4ec098ee-78b0-4708-adc0-55367e1a89f1">
      <rect class="124f3af2-50aa-4d62-bd3d-27fe53da04a6" x="86.3244" y="23.1675" width="32.0597" height="54.1349"/>
    </g>
    <g class="3c0bd049-9a4d-4ae5-b801-9a6814fca9f8">
      <rect class="ca8f5f8c-698f-4a74-a30b-f2a347e2cbac" x="90.5266" y="49.4385" width="45.7166" height="21.0341"/>
    </g>
    <g class="7f04480e-29bd-489d-84c6-d17274f739e8">
      <rect class="3ad94065-4f49-4198-904e-1e5fda41ed27" x="90.5257" y="49.4382" width="44.9994" height="20.6313"/>
    </g>
    <g class="402d8078-72cd-4a16-80ff-935e75e5ee51">
      <rect class="ca8f5f8c-698f-4a74-a30b-f2a347e2cbac" x="92.136" y="46.2861" width="21.4875" height="14.1992"/>
    </g>
    <g class="18c566e7-0e98-4637-9bb3-d0bcc6953bef">
      <rect class="ca8f5f8c-698f-4a74-a30b-f2a347e2cbac" x="113.1459" y="44.1851" width="21.4874" height="14.1986"/>
    </g>
    <g class="829bd36c-0e54-4f27-965f-18b298fd72d4">
      <rect class="7396db4f-a962-4a6a-9e39-0728ae80c41c" x="107.335" y="48.3887" width="34.1559" height="23.1351"/>
    </g>
    <g class="322d5866-1ae2-4be3-9365-91d8a8dd7ffd">
      <rect class="ad93be0a-569c-4a42-9618-060bb7f69cea" x="85.2786" y="48.3887" width="33.1064" height="23.1351"/>
    </g>
    <g class="c04aaec6-ef95-4814-927f-92660c3fe0cd">
      <rect class="ef7b168a-c31a-4714-843b-f44669c38b3c" x="103.1321" y="52.5952" width="16.2983" height="20.5037"/>
    </g>
    <g class="e7a0c06e-8c6c-40c4-aa2a-00c48432112e">
      <rect class="ca8f5f8c-698f-4a74-a30b-f2a347e2cbac" x="91.5774" y="17.9157" width="45.7166" height="26.8123"/>
    </g>
    <g class="3b051665-f860-4410-bcc9-9d1ae9a9344b">
      <rect class="124f3af2-50aa-4d62-bd3d-27fe53da04a6" x="91.5771" y="17.9149" width="42.6183" height="20.5078"/>
    </g>
    <g class="3ed8c2a2-3fee-427b-ae01-f10b5a0e1cf9">
      <rect class="124f3af2-50aa-4d62-bd3d-27fe53da04a6" x="95.779" y="98.827" width="22.6061" height="20.5091"/>
    </g>
    <g class="c2f408e9-c16e-4a78-a633-df2865dbb841">
      <rect class="ca8f5f8c-698f-4a74-a30b-f2a347e2cbac" x="108.3847" y="98.827" width="22.6061" height="20.5091"/>
    </g>
    <g class="fb9ad7c2-a729-4962-afa2-d5a8064d5a9e">
      <rect class="ca8f5f8c-698f-4a74-a30b-f2a347e2cbac" x="105.2333" y="100.9288" width="16.3037" height="16.3044"/>
    </g>
    <g class="723750cc-cb8c-47eb-af01-cdd28f05c088">
      <rect class="7396db4f-a962-4a6a-9e39-0728ae80c41c" x="129.3945" y="91.4712" width="14.202" height="48.8492"/>
    </g>
    <g class="d9968993-9540-47ba-8531-ccae0a5b9927">
      <rect class="2fcc6b15-4d3a-4089-9435-3d23a20fcaf5" x="83.1729" y="173.4346" width="60.4231" height="16.3044"/>
    </g>
    <g class="cd135454-389f-46c5-a1e6-2e415aefdaf0">
      <rect class="f0ab7119-9dbf-4838-852e-b5db8c858329" x="70.5674" y="181.841" width="22.6061" height="18.4068"/>
    </g>
    <g class="16e7f4fe-e5f6-48ae-8423-14a6fa62573f">
      <rect class="f0ab7119-9dbf-4838-852e-b5db8c858329" x="133.5965" y="181.841" width="22.6061" height="18.4068"/>
    </g>
    <g class="26b2e281-09b4-40f7-9968-90fde8fc1165">
      <rect class="124f3af2-50aa-4d62-bd3d-27fe53da04a6" x="83.1735" y="165.0287" width="14.202" height="14.2034"/>
    </g>
    <g class="bf7e36e2-2cd6-4843-9a8d-35dd243bd2ed">
      <rect class="ca8f5f8c-698f-4a74-a30b-f2a347e2cbac" x="129.3945" y="165.0287" width="14.202" height="14.2034"/>
    </g>
    <g class="6273cd43-ed42-425e-ac5a-de75aff9dd7a">
      <rect class="ba0d792d-debc-4d2f-a501-3237967143f5" x="62.164" y="297.4327" width="47.8169" height="22.6075"/>
    </g>
    <g class="41d3724b-d1e5-4c9c-bbb4-df781771fa8c">
      <rect class="ba0d792d-debc-4d2f-a501-3237967143f5" x="116.788" y="305.8383" width="47.8183" height="18.4068"/>
    </g>
    <g class="e160ef0b-9f53-4bd8-8126-f3fbf46a4473">
      <rect class="7652bd67-9a0e-4674-b4df-3cb7cee718d7" x="116.7883" y="297.4327" width="47.8183" height="22.6075"/>
    </g>
  </g>
</svg>
