<svg id="5b9a5cf7-bd3f-43e3-96d4-84f6c6d3fc30" data-name="6838c3e1-efa4-4623-9be6-c272a445ec4c" xmlns="http://www.w3.org/2000/svg" viewBox="0 0 90 340.16">
    <defs>
        <style>
            .\35 b78e740-034c-4d73-b333-5c212d963a3a,.\37 95f8369-1bde-4815-8ae2-b73c2c8caad0{fill:none}.\37 95f8369-1bde-4815-8ae2-b73c2c8caad0{clip-rule:evenodd}.\33 f1e3988-7176-4b54-9cd5-88b10cf77729{clip-path:url(#d6e413ae-c7ae-4c99-bcb1-78e646d170e3)}.\38 b1f6ef9-4b32-4a68-baec-8720c5636eb2{fill:#a77841}.\30 5a1920c-799e-4aa6-ac3b-83184baa709f{clip-path:url(#ea6e06a5-4dc1-47f3-a48c-45cb494a11f7)}.\31 360b3f5-27a9-4773-abb3-4ffed76153b8{fill:#a4c4e7}.a8d70825-5d51-4f09-9db2-f71eaf811aed{clip-path:url(#3ce90289-dc22-4db1-9539-dec8f214b47b)}.\31 3011a8f-e9b8-4fef-85c7-c37a28376bb4{fill:#789bc7}.fed169f9-1f60-4e7e-a403-7f2599722637{clip-path:url(#60c6c314-7b74-4930-bf08-41daf5e7c0bd)}.\36 2c43a14-c1e8-4261-ba9f-3cba39e06cef{fill:#3f2410}.\39 fdbcdf4-cafc-4e2b-b163-b6ef1fbbafc9{clip-path:url(#b558df8f-be6f-4bea-b3e2-166e2e613c77)}.\39 efcc55e-697d-4a41-a66d-0a98d488b2b3{fill:#9d5031}.e5f659ea-539b-436f-beb9-a57b7d681ca4{clip-path:url(#51ee93f9-355a-4bd2-980f-9f62c7e5e35e)}.\39 0a4aeee-4167-45ee-89de-ad5a0292fd7f{clip-path:url(#5b214dee-9262-4516-8370-82ccd46f8391)}.\36 534374f-fa91-4297-a0d2-d68bc5632581{fill:#804026}.d104d90d-85ae-4139-8b50-5ce0bf12529d{clip-path:url(#d0e36671-677b-4522-8b1e-44c5487bb62d)}.\32 848d8d0-2f9a-4a16-a356-af05b14c34c1{fill:#fff}.\31 9fdb404-eb59-4352-a87c-dbfb601fdb09{clip-path:url(#9490c46c-66aa-4e5b-b1aa-db73838e3139)}.\39 1500a8a-2dcf-4015-ae5a-c504142d5572{fill:#ffcc05}.fb095dd5-65ef-4645-8571-1f9ffc0ec134{clip-path:url(#77511f83-8079-40d0-a793-9348c08f5fb9)}.adde0fef-3613-4e4b-8524-c5557ba6473d{fill:#b7942f}.da56efc8-bac5-4ba6-b080-dd79ff1cfef2{clip-path:url(#9cfbbdd7-d199-4446-9693-b7f5b35f1f11)}.\32 73863c3-9287-4e22-be3c-522a56a07592{fill:#424f55}.f96b5495-2fb2-407f-a7ab-0c6cdb8b95ab{clip-path:url(#da11e013-736e-45ed-a212-879e4b6057af)}.\33 bc5f5a7-6d7a-4e78-8c7d-93749c19cba4{fill:#222c30}.\37 38ed334-90f5-415a-9dda-d54c08a3be9c{clip-path:url(#054ed03a-ea78-4a7e-a1d1-81fae1b7d416)}.ac9189cd-d8c7-4500-a7d3-c1e91625f258{clip-path:url(#2d6f79d5-730c-429d-95c8-fa8ce32c3972)}.\37 f0d6cdc-ebed-4d83-8fb3-824a11995ee0{clip-path:url(#1a5923ea-9b5f-4133-aa41-9ee03ceb802e)}.\39 c101800-47ae-4334-8059-a8000b79113c{clip-path:url(#7ef078b7-acb0-4b68-b746-121cf05985ef)}.eb5d9f4f-95d4-46d3-9ff1-f0e615e24249{clip-path:url(#b58968d5-88a4-4a07-a312-1e3814702835)}.\39 642d7ea-2558-4fa9-8aae-a0afc8b9712c{clip-path:url(#c29066f6-cb6b-461a-ba30-511c179117bc)}.fe761013-94e4-47ad-9aea-280a58242cfd{clip-path:url(#839dd2a9-bf0a-4e16-8361-d9d2892e14d8)}.af65ad00-ee8a-4d78-85c9-52b394e88316{fill:#41494d}.a0d4cc46-d242-42df-8cd2-9c6c47d6a549{clip-path:url(#8cd42ca5-ebdd-428c-81b7-c88204a91f56)}.\33 bbc6cde-8652-44fd-bb0e-9b72db6fd97a{clip-path:url(#37ee9259-42ca-424c-b1f3-318554bc463e)}.bb7beac1-20bd-4e2c-84fe-dd878eb7beb8{clip-path:url(#9bdf9c30-3b0e-47e4-8853-3a4682b270ed)}.\35 6fec3fd-10e2-4808-b680-bc39eb001846{clip-path:url(#6537dc74-d3c5-41eb-96e4-1bdf82bbb013)}.\39 454f772-79f4-468e-afb9-82fbffa713e6{clip-path:url(#6e9337c5-0947-49d9-9207-99045b7c2bb5)}.\35 655b7f4-32c1-412e-b968-bd7a11d5d7a7{clip-path:url(#bc9e3603-835a-4ef3-9ffe-6931c1559731)}.\34 e1ff302-1433-493a-8d9c-345fb8043e21{clip-path:url(#8456d357-e5bd-40b6-8ee1-82c3b5542806)}.\38 d315902-c70d-4be0-a639-d7a1564fde98{clip-path:url(#e1ed37fb-1948-4dc0-b6a0-ce8a600f1344)}.e4d9b40a-5d85-4678-84e1-fd1bc885f91c{fill:#dd314e}.e3a746dc-1414-4ffe-aeeb-745ee7d2c1f6{clip-path:url(#21b37f41-01a2-47ce-8b5d-7b912e73d53e)}.\36 91b44fb-5368-446a-a1d6-0e0c14cf4422{clip-path:url(#0993e10c-94dc-4ccc-a04f-f8c8f004e45b)}.\31 75ce24d-ee19-47f1-a1b9-f85097337b62{clip-path:url(#a1178408-5334-4b4a-b067-565631f3f436)}.bb9234ed-c033-454a-9fc8-18301d65b36d{clip-path:url(#3d12478e-903d-4a8d-93d9-fd09f74b6551)}.df5ff1ef-0e79-4091-98d7-b1ba9b7f9665{clip-path:url(#c834cc5d-8c20-446c-b8e7-5d6eb38625c9)}.\30 4c86cad-c465-48f8-b956-c8e2b2013b4c{clip-path:url(#dd7ceca6-fead-4d7b-91b7-203f492a5da6)}.\35 e8bb9f3-f159-4b89-9a05-e187a2213399{clip-path:url(#6c6f8f2d-c9bd-40ba-8827-a1d7f93b1624)}.\34 e92eb16-e756-479a-a24d-21b7824611ee{clip-path:url(#5c0aa3a0-7124-4efd-8082-09acf34e39e2)}.b997f137-406d-4e8c-812b-7eb7e307827a{clip-path:url(#0dba4839-9dbf-4c01-bdad-8746af1d128c)}.\30 5028a6d-4cea-4edd-9a07-cbe2c8dbc09e{clip-path:url(#02df99c8-9ea9-4fc0-82f9-2878891124d9)}.\30 e0352c0-5de7-4165-9357-fb50b03c4446{clip-path:url(#1d2af7cb-0ed9-4d27-b55d-4ac898ed40e8)}.\32 1638ab5-ffd0-4dad-b904-61930c2c1345{clip-path:url(#a38f4092-0f68-4755-9f46-4b6d07aaf390)}.\30 ec357d1-77d3-489a-b731-23f2080c2cc0{clip-path:url(#632f89a3-44f5-4dd3-ae9a-c38ac5f1092e)}.\34 a9e1862-2785-416e-9833-18dc894380b6{clip-path:url(#16147453-e969-40dc-a066-7d94399917ce)}.\31 c670fbb-c11d-4e3b-a142-8bab924f0ca7{clip-path:url(#3d291c95-e22b-45b8-a00d-30f2e7db1309)}.\36 23efbc5-299c-4ea5-bfe3-35dd39530056{clip-path:url(#ea00b103-1339-470b-b7ca-c74374dd6544)}.fe343330-2b3a-4a03-a75b-9786d2ef8941{clip-path:url(#d4602712-c799-43ad-af54-18456fa534cb)}.bfa836fd-181d-4fb2-beb2-1ad7482f5515{clip-path:url(#46a51cb4-ad95-4658-987f-ebb994dd74d7)}.\33 a1de2d7-c746-4059-acb2-9719166c9927{fill:#e5e5e4}.\35 79dc2b2-23ae-457b-98b3-ca21beabf59c{clip-path:url(#c4fc36ca-9cb0-47f6-8668-5115ef4b5bb4)}.\38 caf4951-de55-4527-bace-8dc9e9872c49{clip-path:url(#08a03398-3e5a-4cfe-b98f-5f44ef9ededb)}.a21aeac4-6e3e-43e8-8bd9-080ac65f066a{clip-path:url(#e6c4e9d3-b6da-4a8e-83b9-2d50f8d8e1b9)}.\34 ce4c36e-a401-465b-978c-a6d70fa01421{clip-path:url(#20469470-0de7-4c69-977e-b6517f60669b)}.\37 0aca733-0a97-4c0b-986a-ce0843ac0aa7{clip-path:url(#d0330fbb-4539-4fb8-89b5-338a6d61b0d3)}.\30 04e6806-035d-43ab-b85e-3ac5bb2389d5{fill:#77878e}.\35 88096d0-5c36-43cb-b0d6-933f5e9aa9e0{clip-path:url(#411f277d-050a-4ed2-bfc2-6822a0d91ca9)}.c5a369b0-d24b-451c-9a7c-587c46fa1f69{clip-path:url(#c52cfb84-46dd-4733-ad87-13a70130bf56)}
        </style>
        <clipPath id="d6e413ae-c7ae-4c99-bcb1-78e646d170e3">
            <path class="5b78e740-034c-4d73-b333-5c212d963a3a" d="M33.368 86.689h23.264v27.152H33.368z"/>
        </clipPath>
        <clipPath id="ea6e06a5-4dc1-47f3-a48c-45cb494a11f7">
            <path class="795f8369-1bde-4815-8ae2-b73c2c8caad0" d="M21.735 179.777h46.532v41.9l-21.329-20.568a1.938 1.938 0 1 0-3.876 0l-7.754 91.15H21.735V179.777z"/>
        </clipPath>
        <clipPath id="3ce90289-dc22-4db1-9539-dec8f214b47b">
            <path class="795f8369-1bde-4815-8ae2-b73c2c8caad0" d="M68.266 221.681v70.579H54.693l-7.754-91.15a2.249 2.249 0 0 0-.532-1.292z"/>
        </clipPath>
        <clipPath id="60c6c314-7b74-4930-bf08-41daf5e7c0bd">
            <path class="795f8369-1bde-4815-8ae2-b73c2c8caad0" d="M56.632 179.777h11.634v11.636l-11.634-11.636z"/>
        </clipPath>
        <clipPath id="b558df8f-be6f-4bea-b3e2-166e2e613c77">
            <path class="795f8369-1bde-4815-8ae2-b73c2c8caad0" d="M21.737 212.746a.97.97 0 0 1-1.939 0v-3.879a.97.97 0 1 0-1.939 0v5.818a.97.97 0 0 1-1.939.012v.957a.97.97 0 1 1-1.939 0v-.97a.968.968 0 1 1-1.937 0v-2.909a.97.97 0 1 1-1.939 0v-74.664h11.632v75.635z"/>
        </clipPath>
        <clipPath id="51ee93f9-355a-4bd2-980f-9f62c7e5e35e">
            <path class="795f8369-1bde-4815-8ae2-b73c2c8caad0" d="M68.266 212.746a.968.968 0 1 0 1.937 0v-3.879a.97.97 0 1 1 1.939 0v5.818a.97.97 0 0 0 1.939.012v.957a.97.97 0 1 0 1.939 0v-.97a.97.97 0 1 0 1.939 0v-2.909a.968.968 0 1 0 1.937 0v-74.664h-11.63v75.635z"/>
        </clipPath>
        <clipPath id="5b214dee-9262-4516-8370-82ccd46f8391">
            <path class="795f8369-1bde-4815-8ae2-b73c2c8caad0" d="M79.9 195.292V156.5l-11.635-11.631v38.787zm0-58.181v12.578l-11.635-11.637v-.941H79.9z"/>
        </clipPath>
        <clipPath id="d0e36671-677b-4522-8b1e-44c5487bb62d">
            <path class="795f8369-1bde-4815-8ae2-b73c2c8caad0" d="M2.349 303.894h34.9v2.91a.973.973 0 0 1-.967.97H3.319a.973.973 0 0 1-.97-.97v-2.91z"/>
        </clipPath>
        <clipPath id="9490c46c-66aa-4e5b-b1aa-db73838e3139">
            <path class="795f8369-1bde-4815-8ae2-b73c2c8caad0" d="M35.327 291.289a.973.973 0 0 1 .97.97v.969a.98.98 0 0 1-.428.8 47.588 47.588 0 0 1 1.37 9.862H2.349a3.664 3.664 0 0 1 2.64-3.675l11.489-2.553a6.949 6.949 0 0 0 4.463-3.914.966.966 0 0 1-.156-.523v-.969a.973.973 0 0 1 .951-.97h13.591z"/>
        </clipPath>
        <clipPath id="77511f83-8079-40d0-a793-9348c08f5fb9">
            <path class="795f8369-1bde-4815-8ae2-b73c2c8caad0" d="M9.134 299.3l1.939-.432v1.151a.97.97 0 1 1-1.939 0v-.719zm3.938-.875l1.892-.425.455 1.7a.969.969 0 1 1-1.873.5zm3.9-.891a5.736 5.736 0 0 0 1.7-.916l1 1.729a.966.966 0 0 1-1.675.961zm2.809-1.984a9.031 9.031 0 0 0 1.092-1.651l1.553 1.555a.969.969 0 0 1-1.37 1.372z"/>
        </clipPath>
        <clipPath id="9cfbbdd7-d199-4446-9693-b7f5b35f1f11">
            <path class="5b78e740-034c-4d73-b333-5c212d963a3a" d="M10.104 189.474h5.816v3.879h-5.816z"/>
        </clipPath>
        <clipPath id="da11e013-736e-45ed-a212-879e4b6057af">
            <path class="5b78e740-034c-4d73-b333-5c212d963a3a" d="M15.918 189.474h5.816v3.879h-5.816z"/>
        </clipPath>
        <clipPath id="054ed03a-ea78-4a7e-a1d1-81fae1b7d416">
            <path class="795f8369-1bde-4815-8ae2-b73c2c8caad0" d="M33.368 86.688h23.264v27.152h-4.154l-19.11-19.119v-8.033z"/>
        </clipPath>
        <clipPath id="2d6f79d5-730c-429d-95c8-fa8ce32c3972">
            <path class="795f8369-1bde-4815-8ae2-b73c2c8caad0" d="M45 32.386a27.151 27.151 0 0 1 0 54.3l-1.939-27.15z"/>
        </clipPath>
        <clipPath id="1a5923ea-9b5f-4133-aa41-9ee03ceb802e">
            <path class="795f8369-1bde-4815-8ae2-b73c2c8caad0" d="M10.1 137.111v-23.272c0-3.879 1.967-4.864 3.876-5.819l19.388-9.7a11.632 11.632 0 1 0 23.264 0l19.389 9.7c1.908.955 3.876 1.941 3.876 5.819v21.333l-11.631 1.939v54.3H21.735v-54.3H10.1z"/>
        </clipPath>
        <clipPath id="7ef078b7-acb0-4b68-b746-121cf05985ef">
            <path class="795f8369-1bde-4815-8ae2-b73c2c8caad0" d="M68.266 144.868v38.787l-34.898-34.908 23.264-15.515 11.634 11.636z"/>
        </clipPath>
        <clipPath id="b58968d5-88a4-4a07-a312-1e3814702835">
            <path class="795f8369-1bde-4815-8ae2-b73c2c8caad0" d="M45 86.689a27.151 27.151 0 0 1 0-54.3v54.3z"/>
        </clipPath>
        <clipPath id="c29066f6-cb6b-461a-ba30-511c179117bc">
            <path class="795f8369-1bde-4815-8ae2-b73c2c8caad0" d="M36.775 106.552a11.631 11.631 0 0 0 19.858-8.228l19.388 9.7c1.909.955 3.876 1.94 3.876 5.818v23.273H68.266v.941z"/>
        </clipPath>
        <clipPath id="839dd2a9-bf0a-4e16-8361-d9d2892e14d8">
            <path class="795f8369-1bde-4815-8ae2-b73c2c8caad0" d="M31.429 99.294l1.939-.97v38.787l-1.939-3.879V99.294zm25.2 27.122l1.939.945v5.871l-1.939 3.879v-10.7z"/>
        </clipPath>
        <clipPath id="8cd42ca5-ebdd-428c-81b7-c88204a91f56">
            <path class="795f8369-1bde-4815-8ae2-b73c2c8caad0" d="M56.632 98.355v-.031l1.94.97v29.062l-1.94-1.94V98.355z"/>
        </clipPath>
        <clipPath id="37ee9259-42ca-424c-b1f3-318554bc463e">
            <path class="795f8369-1bde-4815-8ae2-b73c2c8caad0" d="M64.387 63.416a3.879 3.879 0 1 0 3.879 3.884 3.878 3.878 0 0 0-3.879-3.879"/>
        </clipPath>
        <clipPath id="9bdf9c30-3b0e-47e4-8853-3a4682b270ed">
            <path class="795f8369-1bde-4815-8ae2-b73c2c8caad0" d="M64.387 65.355a1.939 1.939 0 1 0 1.939 1.939 1.938 1.938 0 0 0-1.939-1.939"/>
        </clipPath>
        <clipPath id="6537dc74-d3c5-41eb-96e4-1bdf82bbb013">
            <path class="795f8369-1bde-4815-8ae2-b73c2c8caad0" d="M25.614 63.416a3.879 3.879 0 1 0 3.878 3.884 3.876 3.876 0 0 0-3.879-3.879"/>
        </clipPath>
        <clipPath id="6e9337c5-0947-49d9-9207-99045b7c2bb5">
            <path class="795f8369-1bde-4815-8ae2-b73c2c8caad0" d="M25.614 65.355a1.939 1.939 0 1 0 1.939 1.939 1.94 1.94 0 0 0-1.939-1.939"/>
        </clipPath>
        <clipPath id="bc9e3603-835a-4ef3-9ffe-6931c1559731">
            <path class="795f8369-1bde-4815-8ae2-b73c2c8caad0" d="M59.986 47.269a19.29 19.29 0 0 1 4.4 12.269v19.393a19.387 19.387 0 1 1-38.773 0V59.537a19.29 19.29 0 0 1 4.4-12.269 27.142 27.142 0 0 0 29.972 0"/>
        </clipPath>
        <clipPath id="8456d357-e5bd-40b6-8ee1-82c3b5542806">
            <path class="795f8369-1bde-4815-8ae2-b73c2c8caad0" d="M45 86.688a7.757 7.757 0 0 0 7.755-7.758H37.244A7.758 7.758 0 0 0 45 86.688"/>
        </clipPath>
        <clipPath id="e1ed37fb-1948-4dc0-b6a0-ce8a600f1344">
            <path class="795f8369-1bde-4815-8ae2-b73c2c8caad0" d="M45 86.688a7.7 7.7 0 0 0 3.754-.97 7.762 7.762 0 0 0-7.51 0 7.7 7.7 0 0 0 3.756.97"/>
        </clipPath>
        <clipPath id="21b37f41-01a2-47ce-8b5d-7b912e73d53e">
            <path class="795f8369-1bde-4815-8ae2-b73c2c8caad0" d="M35.308 63.416a3.879 3.879 0 1 1-3.879 3.884 3.878 3.878 0 0 1 3.879-3.879"/>
        </clipPath>
        <clipPath id="0993e10c-94dc-4ccc-a04f-f8c8f004e45b">
            <path class="795f8369-1bde-4815-8ae2-b73c2c8caad0" d="M50.817 78.931a1.948 1.948 0 0 1-1.939 1.939h-7.755a1.947 1.947 0 0 1-1.939-1.939h11.633z"/>
        </clipPath>
        <clipPath id="a1178408-5334-4b4a-b067-565631f3f436">
            <path class="795f8369-1bde-4815-8ae2-b73c2c8caad0" d="M54.693 63.416a3.879 3.879 0 1 1-3.876 3.884 3.879 3.879 0 0 1 3.876-3.879"/>
        </clipPath>
        <clipPath id="3d12478e-903d-4a8d-93d9-fd09f74b6551">
            <path class="795f8369-1bde-4815-8ae2-b73c2c8caad0" d="M35.308 65.355a1.939 1.939 0 1 1-1.939 1.939 1.938 1.938 0 0 1 1.939-1.939"/>
        </clipPath>
        <clipPath id="c834cc5d-8c20-446c-b8e7-5d6eb38625c9">
            <path class="795f8369-1bde-4815-8ae2-b73c2c8caad0" d="M54.693 65.355a1.939 1.939 0 1 1-1.937 1.94 1.939 1.939 0 0 1 1.937-1.94"/>
        </clipPath>
        <clipPath id="dd7ceca6-fead-4d7b-91b7-203f492a5da6">
            <path class="795f8369-1bde-4815-8ae2-b73c2c8caad0" d="M33.368 66.325a.969.969 0 1 1-.97.97.969.969 0 0 1 .97-.97"/>
        </clipPath>
        <clipPath id="6c6f8f2d-c9bd-40ba-8827-a1d7f93b1624">
            <path class="795f8369-1bde-4815-8ae2-b73c2c8caad0" d="M52.756 66.326a.969.969 0 1 1-.97.97.971.971 0 0 1 .97-.97"/>
        </clipPath>
        <clipPath id="5c0aa3a0-7124-4efd-8082-09acf34e39e2">
            <path class="795f8369-1bde-4815-8ae2-b73c2c8caad0" d="M40.362 61.8a.966.966 0 1 1-1.439 1.288 4.856 4.856 0 0 0-7.23 0 .966.966 0 0 1-1.44-1.288 6.771 6.771 0 0 1 10.109 0"/>
        </clipPath>
        <clipPath id="0dba4839-9dbf-4c01-bdad-8746af1d128c">
            <path class="795f8369-1bde-4815-8ae2-b73c2c8caad0" d="M59.747 60.833a.965.965 0 1 1-1.436 1.288 4.859 4.859 0 0 0-7.232 0 .966.966 0 0 1-1.44-1.288 6.771 6.771 0 0 1 10.109 0"/>
        </clipPath>
        <clipPath id="02df99c8-9ea9-4fc0-82f9-2878891124d9">
            <path class="795f8369-1bde-4815-8ae2-b73c2c8caad0" d="M63.418 51.78a.97.97 0 1 1 1.939 0v27.15A20.416 20.416 0 0 1 45 99.294l-1.939-4.364L45 90.567a11.589 11.589 0 0 0 7.756-2.967v8.03a18.488 18.488 0 0 0 10.662-16.7V51.78z"/>
        </clipPath>
        <clipPath id="1d2af7cb-0ed9-4d27-b55d-4ac898ed40e8">
            <path class="795f8369-1bde-4815-8ae2-b73c2c8caad0" d="M45 99.294a20.417 20.417 0 0 1-20.356-20.363v-27.15a.97.97 0 1 1 1.939 0v27.15a18.49 18.49 0 0 0 10.66 16.7V87.6A11.585 11.585 0 0 0 45 90.566v8.728z"/>
        </clipPath>
        <clipPath id="a38f4092-0f68-4755-9f46-4b6d07aaf390">
            <path class="795f8369-1bde-4815-8ae2-b73c2c8caad0" d="M60.512 64.386h-9.695a.969.969 0 0 0-.97.97V67.3a2.92 2.92 0 0 0 2.907 2.9H57.6a2.921 2.921 0 0 0 2.912-2.9v-2.91zM45 62.447a4.824 4.824 0 0 1 3.361 1.353 2.917 2.917 0 0 1 2.456-1.355h14.539a.969.969 0 1 1 0 1.939h-2.909V67.3a4.858 4.858 0 0 1-4.847 4.843h-4.846a4.861 4.861 0 0 1-4.846-4.849A2.909 2.909 0 0 0 45 64.386l-.776-.969z"/>
        </clipPath>
        <clipPath id="632f89a3-44f5-4dd3-ae9a-c38ac5f1092e">
            <path class="795f8369-1bde-4815-8ae2-b73c2c8caad0" d="M24.644 64.386a.969.969 0 1 1 0-1.939h14.54A2.917 2.917 0 0 1 41.64 63.8 4.823 4.823 0 0 1 45 62.447v1.939a2.907 2.907 0 0 0-2.907 2.91 4.861 4.861 0 0 1-4.849 4.848H32.4a4.858 4.858 0 0 1-4.848-4.844v-2.91h-2.908zm14.539 0h-9.694V67.3a2.921 2.921 0 0 0 2.911 2.9h4.846a2.921 2.921 0 0 0 2.909-2.91v-1.934a.969.969 0 0 0-.971-.97z"/>
        </clipPath>
        <clipPath id="16147453-e969-40dc-a066-7d94399917ce">
            <path class="795f8369-1bde-4815-8ae2-b73c2c8caad0" d="M47.9 67.295a.965.965 0 1 0-1.931 0v3.879a.969.969 0 0 0 .966.969h1.937a.972.972 0 0 1 0 1.944h-7.749a.972.972 0 0 1 0-1.944h1.939a.968.968 0 0 0 .965-.969v-3.879a.966.966 0 1 0-1.932 0V70.2h-.972a2.909 2.909 0 0 0 0 5.819h7.746a2.909 2.909 0 0 0 0-5.819H47.9v-2.905z"/>
        </clipPath>
        <clipPath id="3d291c95-e22b-45b8-a00d-30f2e7db1309">
            <path class="795f8369-1bde-4815-8ae2-b73c2c8caad0" d="M13.98 187.534h3.879a1.944 1.944 0 0 1 1.939 1.939v3.88a1.944 1.944 0 0 1-1.939 1.939H13.98a1.947 1.947 0 0 1-1.939-1.939v-3.88a1.947 1.947 0 0 1 1.939-1.939"/>
        </clipPath>
        <clipPath id="ea00b103-1339-470b-b7ca-c74374dd6544">
            <path class="5b78e740-034c-4d73-b333-5c212d963a3a" d="M13.98 189.474h3.879v3.879H13.98z"/>
        </clipPath>
        <clipPath id="d4602712-c799-43ad-af54-18456fa534cb">
            <path class="795f8369-1bde-4815-8ae2-b73c2c8caad0" d="M33.368 195.291a12.61 12.61 0 0 1-11.634 7.758v-1.94a10.654 10.654 0 0 0 9.5-5.818h2.131zm23.264 0a12.61 12.61 0 0 0 11.634 7.758v-1.94a10.621 10.621 0 0 1-6.152-1.949 10.728 10.728 0 0 1-3.351-3.869h-2.131z"/>
        </clipPath>
        <clipPath id="46a51cb4-ad95-4658-987f-ebb994dd74d7">
            <path class="795f8369-1bde-4815-8ae2-b73c2c8caad0" d="M87.651 303.894h-34.9v2.91a.973.973 0 0 0 .97.97h32.961a.973.973 0 0 0 .97-.97v-2.91z"/>
        </clipPath>
        <clipPath id="c4fc36ca-9cb0-47f6-8668-5115ef4b5bb4">
            <path class="795f8369-1bde-4815-8ae2-b73c2c8caad0" d="M54.674 291.289a.973.973 0 0 0-.97.97v.969a.98.98 0 0 0 .428.8 47.584 47.584 0 0 0-1.37 9.862h34.889a3.663 3.663 0 0 0-2.639-3.675l-11.489-2.553a6.949 6.949 0 0 1-4.463-3.914.966.966 0 0 0 .156-.523v-.969a.973.973 0 0 0-.951-.97H54.674z"/>
        </clipPath>
        <clipPath id="08a03398-3e5a-4cfe-b98f-5f44ef9ededb">
            <path class="795f8369-1bde-4815-8ae2-b73c2c8caad0" d="M80.866 299.3l-1.939-.432v1.151a.97.97 0 1 0 1.939 0v-.719zm-3.938-.875L75.037 298l-.455 1.7a.969.969 0 1 0 1.873.5zm-3.9-.891a5.736 5.736 0 0 1-1.7-.916l-1 1.729a.965.965 0 0 0 1.673.961zm-2.809-1.984a9.031 9.031 0 0 1-1.092-1.651l-1.553 1.555a.969.969 0 0 0 1.37 1.372z"/>
        </clipPath>
        <clipPath id="e6c4e9d3-b6da-4a8e-83b9-2d50f8d8e1b9">
            <path class="5b78e740-034c-4d73-b333-5c212d963a3a" d="M33.368 135.172h23.264v13.576H33.368z"/>
        </clipPath>
        <clipPath id="20469470-0de7-4c69-977e-b6517f60669b">
            <path class="5b78e740-034c-4d73-b333-5c212d963a3a" d="M33.368 133.232h23.264v3.879H33.368z"/>
        </clipPath>
        <clipPath id="d0330fbb-4539-4fb8-89b5-338a6d61b0d3">
            <path class="795f8369-1bde-4815-8ae2-b73c2c8caad0" d="M45 135.172a5.818 5.818 0 1 1-5.816 5.818A5.817 5.817 0 0 1 45 135.172"/>
        </clipPath>
        <clipPath id="411f277d-050a-4ed2-bfc2-6822a0d91ca9">
            <path class="795f8369-1bde-4815-8ae2-b73c2c8caad0" d="M45 137.6a3.394 3.394 0 1 1-3.392 3.393A3.395 3.395 0 0 1 45 137.6"/>
        </clipPath>
        <clipPath id="c52cfb84-46dd-4733-ad87-13a70130bf56">
            <path class="5b78e740-034c-4d73-b333-5c212d963a3a" d="M53.723 134.202h1.939v1.939h-1.939z"/>
        </clipPath>
    </defs>
    <title>
        people-originals
    </title>
    <path class="3f1e3988-7176-4b54-9cd5-88b10cf77729 8b1f6ef9-4b32-4a68-baec-8720c5636eb2" d="M28.754 82.075h32.492v36.379H28.754z"/>
    <path class="05a1920c-799e-4aa6-ac3b-83184baa709f 1360b3f5-27a9-4773-abb3-4ffed76153b8" d="M17.121 175.163h55.76v121.711h-55.76z"/>
    <path class="a8d70825-5d51-4f09-9db2-f71eaf811aed 13011a8f-e9b8-4fef-85c7-c37a28376bb4" d="M41.793 195.204H72.88v101.67H41.793z"/>
    <path class="fed169f9-1f60-4e7e-a403-7f2599722637 62c43a14-c1e8-4261-ba9f-3cba39e06cef" d="M52.019 175.163h20.862v20.864H52.019z"/>
    <path class="9fdbcdf4-cafc-4e2b-b163-b6ef1fbbafc9 9efcc55e-697d-4a41-a66d-0a98d488b2b3" d="M5.49 132.497h20.862v88.741H5.49z"/>
    <path class="e5f659ea-539b-436f-beb9-a57b7d681ca4 9efcc55e-697d-4a41-a66d-0a98d488b2b3" d="M63.652 132.497h20.859v88.741H63.652z"/>
    <path class="90a4aeee-4167-45ee-89de-ad5a0292fd7f 6534374f-fa91-4297-a0d2-d68bc5632581" d="M63.652 132.497h20.859v67.409H63.652z"/>
    <path class="d104d90d-85ae-4139-8b50-5ce0bf12529d 2848d8d0-2f9a-4a16-a356-af05b14c34c1" d="M-2.265 299.28h44.123v13.108H-2.265z"/>
    <path class="19fdb404-eb59-4352-a87c-dbfb601fdb09 91500a8a-2dcf-4015-ae5a-c504142d5572" d="M-2.265 286.675h44.118v21.832H-2.265z"/>
    <path class="fb095dd5-65ef-4645-8571-1f9ffc0ec134 adde0fef-3613-4e4b-8524-c5557ba6473d" d="M4.52 289.282h22.798V305.6H4.52z"/>
    <path class="da56efc8-bac5-4ba6-b080-dd79ff1cfef2 273863c3-9287-4e22-be3c-522a56a07592" d="M5.49 184.86h15.044v13.107H5.49z"/>
    <path class="f96b5495-2fb2-407f-a7ab-0c6cdb8b95ab 3bc5f5a7-6d7a-4e78-8c7d-93749c19cba4" d="M11.305 184.86h15.043v13.107H11.305z"/>
    <path class="3f1e3988-7176-4b54-9cd5-88b10cf77729 9efcc55e-697d-4a41-a66d-0a98d488b2b3" d="M28.754 82.075h32.492v36.379H28.754z"/>
    <path class="738ed334-90f5-415a-9dda-d54c08a3be9c 6534374f-fa91-4297-a0d2-d68bc5632581" d="M28.754 82.074h32.492v36.379H28.754z"/>
    <path class="ac9189cd-d8c7-4500-a7d3-c1e91625f258 3bc5f5a7-6d7a-4e78-8c7d-93749c19cba4" d="M38.448 27.772h38.308v63.53H38.448z"/>
    <path class="7f0d6cdc-ebed-4d83-8fb3-824a11995ee0 91500a8a-2dcf-4015-ae5a-c504142d5572" d="M5.49 93.71h79.021v102.317H5.49z"/>
    <path class="9c101800-47ae-4334-8059-a8000b79113c adde0fef-3613-4e4b-8524-c5557ba6473d" d="M28.754 128.618H72.88v59.651H28.754z"/>
    <path class="eb5d9f4f-95d4-46d3-9ff1-f0e615e24249 273863c3-9287-4e22-be3c-522a56a07592" d="M13.245 27.773h36.371v63.53H13.245z"/>
    <path class="9642d7ea-2558-4fa9-8aae-a0afc8b9712c adde0fef-3613-4e4b-8524-c5557ba6473d" d="M32.161 93.71h52.35v48.957h-52.35z"/>
    <path class="fe761013-94e4-47ad-9aea-280a58242cfd af65ad00-ee8a-4d78-85c9-52b394e88316" d="M26.815 93.71h36.371v48.015H26.815z"/>
    <path class="a0d4cc46-d242-42df-8cd2-9c6c47d6a549 3bc5f5a7-6d7a-4e78-8c7d-93749c19cba4" d="M52.019 93.71h11.167v39.259H52.019z"/>
    <path class="3bbc6cde-8652-44fd-bb0e-9b72db6fd97a 9efcc55e-697d-4a41-a66d-0a98d488b2b3" d="M55.897 58.802H72.88v16.985H55.897z"/>
    <path class="bb7beac1-20bd-4e2c-84fe-dd878eb7beb8 6534374f-fa91-4297-a0d2-d68bc5632581" d="M57.836 60.741H70.94v13.107H57.836z"/>
    <path class="56fec3fd-10e2-4808-b680-bc39eb001846 9efcc55e-697d-4a41-a66d-0a98d488b2b3" d="M17.123 58.802h16.983v16.985H17.123z"/>
    <path class="9454f772-79f4-468e-afb9-82fbffa713e6 6534374f-fa91-4297-a0d2-d68bc5632581" d="M19.06 60.741h13.107v13.107H19.06z"/>
    <path class="5655b7f4-32c1-412e-b968-bd7a11d5d7a7 9efcc55e-697d-4a41-a66d-0a98d488b2b3" d="M21 42.655h48.001v60.283H21z"/>
    <path class="4e1ff302-1433-493a-8d9c-345fb8043e21 3bc5f5a7-6d7a-4e78-8c7d-93749c19cba4" d="M32.63 74.317h24.741v16.985H32.63z"/>
    <path class="8d315902-c70d-4be0-a639-d7a1564fde98 e4d9b40a-5d85-4678-84e1-fd1bc885f91c" d="M36.632 80.135H53.37v11.167H36.632z"/>
    <path class="e3a746dc-1414-4ffe-aeeb-745ee7d2c1f6 2848d8d0-2f9a-4a16-a356-af05b14c34c1" d="M26.815 58.802h16.983v16.985H26.815z"/>
    <path class="691b44fb-5368-446a-a1d6-0e0c14cf4422 2848d8d0-2f9a-4a16-a356-af05b14c34c1" d="M34.569 74.317h20.862v11.167H34.569z"/>
    <path class="175ce24d-ee19-47f1-a1b9-f85097337b62 2848d8d0-2f9a-4a16-a356-af05b14c34c1" d="M46.203 58.802h16.983v16.985H46.203z"/>
    <path class="bb9234ed-c033-454a-9fc8-18301d65b36d 3bc5f5a7-6d7a-4e78-8c7d-93749c19cba4" d="M28.754 60.741h13.104v13.107H28.754z"/>
    <path class="df5ff1ef-0e79-4091-98d7-b1ba9b7f9665 3bc5f5a7-6d7a-4e78-8c7d-93749c19cba4" d="M48.142 60.741h13.104v13.107H48.142z"/>
    <path class="04c86cad-c465-48f8-b956-c8e2b2013b4c 2848d8d0-2f9a-4a16-a356-af05b14c34c1" d="M27.785 61.711h11.167v11.167H27.785z"/>
    <path class="5e8bb9f3-f159-4b89-9a05-e187a2213399 2848d8d0-2f9a-4a16-a356-af05b14c34c1" d="M47.173 61.712H58.34v11.167H47.173z"/>
    <path class="4e92eb16-e756-479a-a24d-21b7824611ee 3bc5f5a7-6d7a-4e78-8c7d-93749c19cba4" d="M25.393 54.923h19.829v13.102H25.393z"/>
    <path class="b997f137-406d-4e8c-812b-7eb7e307827a 3bc5f5a7-6d7a-4e78-8c7d-93749c19cba4" d="M44.78 53.953h19.828v13.103H44.78z"/>
    <path class="05028a6d-4cea-4edd-9a07-cbe2c8dbc09e 3bc5f5a7-6d7a-4e78-8c7d-93749c19cba4" d="M38.449 46.196h31.522v57.711H38.449z"/>
    <path class="0e0352c0-5de7-4165-9357-fb50b03c4446 273863c3-9287-4e22-be3c-522a56a07592" d="M20.03 46.197h29.585v57.711H20.03z"/>
    <path class="21638ab5-ffd0-4dad-b904-61930c2c1345 13011a8f-e9b8-4fef-85c7-c37a28376bb4" d="M39.609 57.833H70.94v18.924H39.609z"/>
    <path class="0ec357d1-77d3-489a-b731-23f2080c2cc0 1360b3f5-27a9-4773-abb3-4ffed76153b8" d="M19.061 57.833h30.552v18.924H19.061z"/>
    <path class="4a9e1862-2785-416e-9833-18dc894380b6 6534374f-fa91-4297-a0d2-d68bc5632581" d="M33.6 61.715h22.792v18.922H33.6z"/>
    <path class="1c670fbb-c11d-4e3b-a142-8bab924f0ca7 273863c3-9287-4e22-be3c-522a56a07592" d="M7.427 182.92h16.985v16.985H7.427z"/>
    <path class="623efbc5-299c-4ea5-bfe3-35dd39530056 2848d8d0-2f9a-4a16-a356-af05b14c34c1" d="M9.366 184.86h13.107v13.107H9.366z"/>
    <path class="fe343330-2b3a-4a03-a75b-9786d2ef8941 13011a8f-e9b8-4fef-85c7-c37a28376bb4" d="M17.121 190.677h55.76v16.985h-55.76z"/>
    <path class="bfa836fd-181d-4fb2-beb2-1ad7482f5515 3a1de2d7-c746-4059-acb2-9719166c9927" d="M48.142 299.28h44.123v13.108H48.142z"/>
    <path class="579dc2b2-23ae-457b-98b3-ca21beabf59c adde0fef-3613-4e4b-8524-c5557ba6473d" d="M48.148 286.675h44.117v21.832H48.148z"/>
    <path class="8caf4951-de55-4527-bace-8dc9e9872c49 91500a8a-2dcf-4015-ae5a-c504142d5572" d="M62.682 289.282H85.48V305.6H62.682z"/>
    <path class="a21aeac4-6e3e-43e8-8bd9-080ac65f066a af65ad00-ee8a-4d78-85c9-52b394e88316" d="M28.754 130.558h32.492v22.804H28.754z"/>
    <path class="4ce4c36e-a401-465b-978c-a6d70fa01421 2848d8d0-2f9a-4a16-a356-af05b14c34c1" d="M28.754 128.618h32.492v13.107H28.754z"/>
    <path class="70aca733-0a97-4c0b-986a-ce0843ac0aa7 004e6806-035d-43ab-b85e-3ac5bb2389d5" d="M34.569 130.558h20.862v20.864H34.569z"/>
    <path class="588096d0-5c36-43cb-b0d6-933f5e9aa9e0 3bc5f5a7-6d7a-4e78-8c7d-93749c19cba4" d="M36.993 132.982h16.016v16.015H36.993z"/>
    <path class="c5a369b0-d24b-451c-9a7c-587c46fa1f69 3bc5f5a7-6d7a-4e78-8c7d-93749c19cba4" d="M49.109 129.588h11.167v11.167H49.109z"/>
</svg>
