<svg id="b8f2e955-614a-4dc3-b21e-b171135577f5" data-name="6838c3e1-efa4-4623-9be6-c272a445ec4c" xmlns="http://www.w3.org/2000/svg" viewBox="0 0 90 340.16">
    <defs>
        <style>
            .\33 70af3c9-fc09-4a5c-bafa-b7fa6d8f7909,.\34 52318c2-46a9-46ba-8814-dad383b95b70{fill:none}.\33 70af3c9-fc09-4a5c-bafa-b7fa6d8f7909{clip-rule:evenodd}.\34 3d68e20-d94f-4ba0-bccd-eabf038681e5{clip-path:url(#5c59d672-360f-4894-bfec-c6e3529bebf7)}.d3c35da7-0ff5-4dda-9ea9-23249edc6ee5{fill:#fff}.\39 85137a1-dbaf-4440-aec6-f72a367b59d4{clip-path:url(#54cbfff3-69d1-44eb-ac2e-273eb98be8f8)}.\31 089c56e-ddfa-4aa8-bd36-3bde866ec5d7{fill:#424f55}.\32 5f62f84-35ea-4745-9280-40b7e62d8d2c{clip-path:url(#9ef913d3-ce13-46d8-8357-dc0761785294)}.c5e432ab-db93-4a2c-986b-cff7dea6713f{fill:#e7b174}.\37 87e08b3-64d3-4aea-9cc6-9303ffbe18db{clip-path:url(#1fd21461-5624-4891-bc3d-6c2ba287a7bd)}.c8f229a9-c05c-4189-b38e-973518401b9a{fill:#c69155}.e3f99ac1-6a79-49f3-b896-6ed5889e7dac{clip-path:url(#96ea22d8-f8f8-43b4-ad80-5aa468d67c9f)}.b425e579-06b1-4326-9131-75b2cc952e65{clip-path:url(#88a82188-3cb7-4ee0-be93-7d4cdae191b3)}.f59e20cc-28da-42a0-bb8f-ae0146b5045e{fill:#222c30}.\35 14a7d15-fe8f-4c25-b703-9d58f7a3543a{clip-path:url(#cd670f44-5317-40cb-a9a1-816a0cab10fc)}.eaf030f9-6a17-46d3-93ae-e49d8360dac5{clip-path:url(#42da7485-30f3-4241-95bb-d804c335ddc5)}.e513681a-8c71-491c-8891-b6056133e06d{fill:#f06162}.f2d3cb32-27b6-4570-af65-b4e47acf2ef1{clip-path:url(#fd22d3e2-c019-4ccf-aa85-2006277b9e6c)}.\37 4370198-4e79-40b8-ba93-13b61925210a{clip-path:url(#c6df1d2a-654a-4cba-9259-9063a37bb6d4)}.\31 06565c1-8588-4239-8337-61468d62bcb0{fill:#de3331}.\31 3a701d8-a728-4f94-9d99-5620bd842d00{clip-path:url(#3b25b4ae-8635-41dc-a9bc-d3a94fb51801)}.c406a27d-0ec2-440d-ac98-3add5750fd7a{clip-path:url(#e2bb9e00-304b-4c52-a99a-42c8ce47c79c)}.fde27cd2-fed9-4eda-81b9-ad2f5081e758{clip-path:url(#588d50a7-1058-4794-8f33-68e347bd0172)}.\33 77e486b-7997-4bed-a5a2-a04f920e4967{clip-path:url(#fcbef65e-633c-41a1-921d-b89ef821c0fd)}.\34 92384ac-4ce2-4d05-92f8-5541b749f1b8{clip-path:url(#faf189f5-6c9d-4dc7-a600-df50d3150791)}.a328f1d5-38bc-4c73-b894-035bdd6a2716{fill:#971b1e}.\36 9488c94-2a90-420b-8826-d5839a720cbe{clip-path:url(#1e6fc2e3-053c-4082-b940-2712a7858914)}.cb8c6e1b-3f5e-4efe-8d83-ad8930ad0d28{fill:#6c0d0f}.b7ccd431-9fbb-4b66-bc36-05a1dddaf9c1{clip-path:url(#e455d951-fdf6-40ed-8669-0972232664ad)}.\32 8a9964f-b229-4c7f-a756-a13a66d10c59{clip-path:url(#d3bd6b63-a7f3-4485-9129-64e6ae2fee49)}.b9871259-5ebf-408a-a196-73bf07e2afde{fill:#a77841}.\31 1b23201-e996-4adc-b6e4-43bdb2909424{clip-path:url(#cb64827f-00d6-43c6-8bbb-71572945a21d)}.bc7f77e3-152a-4e90-b2b5-b3dcf4966772{clip-path:url(#870cb549-caf9-48a3-8c02-eaf866a8e626)}.df75be03-4f1b-4f33-8205-961da875b5e9{clip-path:url(#d65ea779-058f-4dcc-8736-5549a80e5cb3)}.\30 0067399-3cb7-4c05-929f-6246e03b3b22{clip-path:url(#cc166ed8-38ad-4edf-8800-cc18ae98a5d5)}.\30 096929c-89c8-401a-afa9-fd53dbf105cb{clip-path:url(#8fabf01c-3f5f-44a5-b9f9-ecb2498f055e)}.f7240d44-8e14-4faf-9a19-b08a3d128f79{clip-path:url(#5d3cf33b-013b-4db2-a217-504b761ba602)}.\30 a6cd66a-e986-480f-a4d5-055704edc245{clip-path:url(#294af029-519f-4bd1-96bb-069260bef80d)}.\33 798ac45-3c89-4a09-84e1-df0902509f94{clip-path:url(#c0f3f37b-4ca4-43a7-a852-53061b7f7893)}.\34 af9eb8c-f667-4b45-b095-e8367ccecefe{fill:#e5e5e4}.\39 99afbad-dcf1-41b0-a8d8-9b9b7671214c{clip-path:url(#b86d5fa3-086c-4c0e-87e5-e7fd85d4c724)}.\33 6ecf981-c322-4af4-bd74-a51769f2d404{clip-path:url(#90f89a5b-1b68-432a-8509-4a67a628b577)}.\33 f805bc5-2ff3-48c8-947d-661033efb8b5{clip-path:url(#a1e5e38b-eb80-4665-901b-06de679eaa97)}.\37 d67f881-3334-4f1d-87df-affe0b367645{clip-path:url(#dcd9202f-152c-4739-a024-d6bcfe40f0fc)}.bc923eed-6d81-4f2e-933a-714b0b1d6eb1{clip-path:url(#6febc098-390e-45ff-8a89-54579a7d4bfe)}.\35 90e5a1d-9a30-4125-b97e-84a09ac34bc9{clip-path:url(#59788924-81ad-41b1-a3d2-166677be4068)}.\37 3c81855-5021-4cc1-80d5-af4fa1837416{clip-path:url(#ba5d4dd8-7a9b-4b49-a7c7-50ce09d80690)}.c0d0bfe8-d59b-48e2-bc96-b5cb8034f71c{clip-path:url(#7e08644a-23a2-4036-b412-c7dd7ac1b7d4)}.\35 17ce819-faca-4255-9218-4a0c5bb09b0f{clip-path:url(#b5c1b502-f647-49fc-be4e-321f071c40ff)}.\34 f4c6137-967d-44e3-9be0-11578032e585{clip-path:url(#6ad68368-2caf-47a1-a61b-dbad13d08ea0)}.ea11ab02-2a59-4ca6-83e6-a26532979bd0{clip-path:url(#66dd6d21-6d14-4c78-8ca8-145af388b9f7)}.cec0b42c-cefc-4969-87c5-93f51bff8baa{clip-path:url(#38ae7c6f-ccad-4e10-8479-441937685e4f)}.\34 368f9c5-6010-4c8e-b0e0-431ab645f5e9{clip-path:url(#7cc7242b-e340-4b5b-9d0f-f819e941ba0d)}.\32 944e0f1-55d5-4265-96ea-bf3b8ffdc973{clip-path:url(#244a3d19-3666-4503-a669-ccace98c4394)}.\39 b64eacc-297e-409a-98d6-95b034cd66be{clip-path:url(#38e3820b-f768-4d4f-8c4f-3fda2f63b5df)}.ce84036f-7206-4c4f-90eb-d5882aa7ef66{clip-path:url(#b865764b-abc2-45fb-a69b-32d270fc271c)}.\33 482e9cc-c1b4-4f7e-a7c4-a5bb70a13af0{clip-path:url(#3ed2d723-38bd-4834-9cdd-985b2c574692)}.\37 d5cc0b0-bf01-488f-8c8e-86cd61e9bf4b{clip-path:url(#c6672439-f24a-435c-a223-53ff43acb599)}.b3af05b6-c2ea-46e0-a484-a7c3b8273dca{clip-path:url(#3c4aca98-645b-435c-9470-ace0cfbe4f52)}.\34 e4c9bfe-7acf-4033-b3d7-c731269411e8{clip-path:url(#e8030766-1694-4165-b97e-1abd528b9032)}.\30 4c6bf89-0112-422c-8d9e-faacbe894a91{clip-path:url(#c584858b-50cc-47d7-b588-20fa2e4a4611)}
        </style>
        <clipPath id="5c59d672-360f-4894-bfec-c6e3529bebf7">
            <path class="452318c2-46a9-46ba-8814-dad383b95b70" d="M13.495 183.294h5.816v3.879h-5.816z"/>
        </clipPath>
        <clipPath id="54cbfff3-69d1-44eb-ac2e-273eb98be8f8">
            <path class="370af3c9-fc09-4a5c-bafa-b7fa6d8f7909" d="M18.343 183.293a1.939 1.939 0 1 1-1.938 1.94 1.94 1.94 0 0 1 1.938-1.94"/>
        </clipPath>
        <clipPath id="9ef913d3-ce13-46d8-8357-dc0761785294">
            <path class="370af3c9-fc09-4a5c-bafa-b7fa6d8f7909" d="M32.883 293.837h9.693v7.758h-9.693v-1.94l-1.938-1.939a1.939 1.939 0 0 0 1.938-1.915v-1.964z"/>
        </clipPath>
        <clipPath id="1fd21461-5624-4891-bc3d-6c2ba287a7bd">
            <path class="370af3c9-fc09-4a5c-bafa-b7fa6d8f7909" d="M56.148 293.837h-9.695v7.758h9.694v-1.94l1.938-1.939a1.939 1.939 0 0 1-1.938-1.915v-1.964z"/>
        </clipPath>
        <clipPath id="96ea22d8-f8f8-43b4-ad80-5aa468d67c9f">
            <path class="370af3c9-fc09-4a5c-bafa-b7fa6d8f7909" d="M42.576 239.451v56.325h-9.693l-11.002-77.027 10.347-1.286 10.348 21.988z"/>
        </clipPath>
        <clipPath id="88a82188-3cb7-4ee0-be93-7d4cdae191b3">
            <path class="370af3c9-fc09-4a5c-bafa-b7fa6d8f7909" d="M71.382 189.112L56.147 295.8l-9.693-.025v-95.027a1.939 1.939 0 1 0-3.878 0v38.7l-20.7-20.7-2.6-18.186 6.609-11.45h45.49z"/>
        </clipPath>
        <clipPath id="cd670f44-5317-40cb-a9a1-816a0cab10fc">
            <path class="370af3c9-fc09-4a5c-bafa-b7fa6d8f7909" d="M44.515 303.532H15.434v1.94a1.944 1.944 0 0 0 1.938 1.94h25.2a1.945 1.945 0 0 0 1.939-1.94v-1.94z"/>
        </clipPath>
        <clipPath id="42da7485-30f3-4241-95bb-d804c335ddc5">
            <path class="370af3c9-fc09-4a5c-bafa-b7fa6d8f7909" d="M15.434 303.532a3.878 3.878 0 0 1 2.867-3.744l13.453-3.7a6.785 6.785 0 0 0 10.7 1.653.775.775 0 0 1 1.285.339 19.42 19.42 0 0 1 .778 5.453H15.434z"/>
        </clipPath>
        <clipPath id="fd22d3e2-c019-4ccf-aa85-2006277b9e6c">
            <path class="370af3c9-fc09-4a5c-bafa-b7fa6d8f7909" d="M44.515 303.532H73.6v1.94a1.944 1.944 0 0 1-1.938 1.94h-25.2a1.945 1.945 0 0 1-1.939-1.94v-1.94z"/>
        </clipPath>
        <clipPath id="c6df1d2a-654a-4cba-9259-9063a37bb6d4">
            <path class="370af3c9-fc09-4a5c-bafa-b7fa6d8f7909" d="M73.6 303.532a3.879 3.879 0 0 0-2.865-3.744l-13.454-3.7a6.785 6.785 0 0 1-10.7 1.653.774.774 0 0 0-1.284.339 19.377 19.377 0 0 0-.778 5.453H73.6z"/>
        </clipPath>
        <clipPath id="3b25b4ae-8635-41dc-a9bc-d3a94fb51801">
            <path class="370af3c9-fc09-4a5c-bafa-b7fa6d8f7909" d="M75.536 121.234H13.5v-9.7c0-3.879 1.968-4.863 3.876-5.818l17.45-8.728V86.326H54.21v10.667l17.448 8.728c1.909.955 3.878 1.94 3.878 5.818v9.7z"/>
        </clipPath>
        <clipPath id="e2bb9e00-304b-4c52-a99a-42c8ce47c79c">
            <path class="370af3c9-fc09-4a5c-bafa-b7fa6d8f7909" d="M25.128 101.841l3.991-2a15.51 15.51 0 0 0 30.793 0l3.99 2v23.623a52.239 52.239 0 0 0-3.878 19.042 46.742 46.742 0 0 0 6.658 25.058c2.427 4.221 4.464 8.7 4.892 13.729l3.878 27.15H13.58l3.878-27.15c.438-5.053 2.519-9.609 4.885-13.723A51.791 51.791 0 0 0 29 144.507a48.167 48.167 0 0 0-3.876-19.447v-23.219z"/>
        </clipPath>
        <clipPath id="588d50a7-1058-4794-8f33-68e347bd0172">
            <path class="370af3c9-fc09-4a5c-bafa-b7fa6d8f7909" d="M71.657 183.871l3.8 26.573h-3.8v-26.573zm-3.876 26.573H63.9v-31.029zm-7.755 0h-3.878v-31.029zm-7.755 0h-3.878v-31.029zm-7.755 0h-3.878v-31.029zm-7.754 0h-3.878v-31.029zm-7.756 0h-3.877v-31.029zm-7.754 0h-3.878v-26.56l.084-.591q.071-.817.2-1.62z"/>
        </clipPath>
        <clipPath id="fcbef65e-633c-41a1-921d-b89ef821c0fd">
            <path class="370af3c9-fc09-4a5c-bafa-b7fa6d8f7909" d="M66.684 169.564a47.507 47.507 0 0 1 3.012 6.087L28.68 134.623l-.009-.074a9.7 9.7 0 0 0 13.075-.71 3.872 3.872 0 0 1 5.538 0 9.693 9.693 0 0 0 13.175.625 3.06 3.06 0 0 1 .8-.519 48.343 48.343 0 0 0-1.234 10.563 46.73 46.73 0 0 0 6.659 25.058"/>
        </clipPath>
        <clipPath id="faf189f5-6c9d-4dc7-a600-df50d3150791">
            <path class="370af3c9-fc09-4a5c-bafa-b7fa6d8f7909" d="M44.515 95.053v-12.6a23.273 23.273 0 1 1 23.266-23.277v7.756H44.515v28.12z"/>
        </clipPath>
        <clipPath id="1e6fc2e3-053c-4082-b940-2712a7858914">
            <path class="370af3c9-fc09-4a5c-bafa-b7fa6d8f7909" d="M67.78 95.053H44.515v-28.12H67.78v16.484a5.818 5.818 0 0 0 5.82 5.819 5.816 5.816 0 0 1-5.816 5.818"/>
        </clipPath>
        <clipPath id="e455d951-fdf6-40ed-8669-0972232664ad">
            <path class="370af3c9-fc09-4a5c-bafa-b7fa6d8f7909" d="M63.9 63.054a3.879 3.879 0 1 0 3.878 3.879 3.878 3.878 0 0 0-3.878-3.879"/>
        </clipPath>
        <clipPath id="d3bd6b63-a7f3-4485-9129-64e6ae2fee49">
            <path class="370af3c9-fc09-4a5c-bafa-b7fa6d8f7909" d="M63.9 64.993a1.939 1.939 0 1 0 1.938 1.94 1.939 1.939 0 0 0-1.938-1.94"/>
        </clipPath>
        <clipPath id="cb64827f-00d6-43c6-8bbb-71572945a21d">
            <path class="370af3c9-fc09-4a5c-bafa-b7fa6d8f7909" d="M63.9 204.627a.969.969 0 1 0 1.938 0v-3.879a.97.97 0 1 1 1.939 0v5.818a.969.969 0 0 0 1.938.013v.957a.97.97 0 0 0 1.939 0v-.97a.969.969 0 1 0 1.938 0v-2.909a.97.97 0 1 0 1.939 0v-84.362H63.9v5.765l1.938 23.325v38.787l-.711 1.422a11.131 11.131 0 0 0-1.227 5.2v10.829z"/>
        </clipPath>
        <clipPath id="870cb549-caf9-48a3-8c02-eaf866a8e626">
            <path class="370af3c9-fc09-4a5c-bafa-b7fa6d8f7909" d="M25.128 63.054a3.879 3.879 0 1 0 3.878 3.879 3.878 3.878 0 0 0-3.878-3.879"/>
        </clipPath>
        <clipPath id="d65ea779-058f-4dcc-8736-5549a80e5cb3">
            <path class="370af3c9-fc09-4a5c-bafa-b7fa6d8f7909" d="M25.128 64.993a1.939 1.939 0 1 0 1.938 1.94 1.939 1.939 0 0 0-1.938-1.94"/>
        </clipPath>
        <clipPath id="cc166ed8-38ad-4edf-8800-cc18ae98a5d5">
            <path class="370af3c9-fc09-4a5c-bafa-b7fa6d8f7909" d="M75.535 134.134L63.9 122.5 34.822 93.407v-7.08h19.387v10.666l17.448 8.728c1.909.954 3.879 1.939 3.879 5.816v22.6z"/>
        </clipPath>
        <clipPath id="8fabf01c-3f5f-44a5-b9f9-ecb2498f055e">
            <path class="370af3c9-fc09-4a5c-bafa-b7fa6d8f7909" d="M63.9 63.054v13.577a19.387 19.387 0 1 1-38.774 0V59.148a19.394 19.394 0 0 0 7.755-15.46A19.447 19.447 0 0 0 52.27 63.054H63.9z"/>
        </clipPath>
        <clipPath id="5d3cf33b-013b-4db2-a217-504b761ba602">
            <path class="370af3c9-fc09-4a5c-bafa-b7fa6d8f7909" d="M63.9 63.054v13.577a19.231 19.231 0 0 1-.759 5.361L38.562 57.4h.06a19.325 19.325 0 0 0 13.648 5.654H63.9z"/>
        </clipPath>
        <clipPath id="294af029-519f-4bd1-96bb-069260bef80d">
            <path class="370af3c9-fc09-4a5c-bafa-b7fa6d8f7909" d="M34.822 63.054a3.879 3.879 0 1 1-3.878 3.879 3.879 3.879 0 0 1 3.878-3.879"/>
        </clipPath>
        <clipPath id="c0f3f37b-4ca4-43a7-a852-53061b7f7893">
            <path class="370af3c9-fc09-4a5c-bafa-b7fa6d8f7909" d="M54.21 63.054a3.879 3.879 0 1 1-3.878 3.879 3.879 3.879 0 0 1 3.878-3.879"/>
        </clipPath>
        <clipPath id="b86d5fa3-086c-4c0e-87e5-e7fd85d4c724">
            <path class="370af3c9-fc09-4a5c-bafa-b7fa6d8f7909" d="M34.822 64.993a1.939 1.939 0 1 1-1.938 1.94 1.94 1.94 0 0 1 1.938-1.94"/>
        </clipPath>
        <clipPath id="90f89a5b-1b68-432a-8509-4a67a628b577">
            <path class="370af3c9-fc09-4a5c-bafa-b7fa6d8f7909" d="M54.21 64.993a1.939 1.939 0 1 1-1.938 1.94 1.939 1.939 0 0 1 1.938-1.94"/>
        </clipPath>
        <clipPath id="a1e5e38b-eb80-4665-901b-06de679eaa97">
            <path class="370af3c9-fc09-4a5c-bafa-b7fa6d8f7909" d="M25.128 204.627a.969.969 0 1 1-1.938 0v-3.879a.97.97 0 1 0-1.939 0v5.818a.97.97 0 0 1-1.939.013v.957a.969.969 0 0 1-1.938 0v-.97a.97.97 0 1 1-1.939 0v-2.909a.969.969 0 1 1-1.938 0v-84.362h11.631v5.765l-1.939 23.325v38.787l.711 1.422a11.132 11.132 0 0 1 1.229 5.2v10.829z"/>
        </clipPath>
        <clipPath id="dcd9202f-152c-4739-a024-d6bcfe40f0fc">
            <path class="370af3c9-fc09-4a5c-bafa-b7fa6d8f7909" d="M43.55 66.933a.965.965 0 1 1 1.931 0v3.878a.968.968 0 0 1-.965.97h-1.94a.972.972 0 0 0 0 1.944h1.939a.966.966 0 0 1 0 1.931h-1.939a2.909 2.909 0 0 1 0-5.818h.974v-2.905z"/>
        </clipPath>
        <clipPath id="6febc098-390e-45ff-8a89-54579a7d4bfe">
            <path class="370af3c9-fc09-4a5c-bafa-b7fa6d8f7909" d="M32.883 65.963a.969.969 0 1 1-.97.97.969.969 0 0 1 .97-.97"/>
        </clipPath>
        <clipPath id="59788924-81ad-41b1-a3d2-166677be4068">
            <path class="452318c2-46a9-46ba-8814-dad383b95b70" d="M19.311 183.294h3.878v3.879h-3.878z"/>
        </clipPath>
        <clipPath id="ba5d4dd8-7a9b-4b49-a7c7-50ce09d80690">
            <path class="370af3c9-fc09-4a5c-bafa-b7fa6d8f7909" d="M18.343 181.355a3.879 3.879 0 1 1-3.878 3.879 3.877 3.877 0 0 1 3.878-3.879"/>
        </clipPath>
        <clipPath id="7e08644a-23a2-4036-b412-c7dd7ac1b7d4">
            <path class="370af3c9-fc09-4a5c-bafa-b7fa6d8f7909" d="M65.842 186.2h9.693a.969.969 0 1 1 0 1.939h-9.693a.969.969 0 1 1 0-1.939m0-7.758h9.693a.97.97 0 0 1 0 1.94h-9.693a.97.97 0 0 1 0-1.94m0 3.879h9.693a.969.969 0 1 1 0 1.939h-9.693a.969.969 0 1 1 0-1.939"/>
        </clipPath>
        <clipPath id="b5c1b502-f647-49fc-be4e-321f071c40ff">
            <path class="370af3c9-fc09-4a5c-bafa-b7fa6d8f7909" d="M52.271 65.963a.969.969 0 1 1-.97.97.97.97 0 0 1 .97-.97"/>
        </clipPath>
        <clipPath id="6ad68368-2caf-47a1-a61b-dbad13d08ea0">
            <path class="370af3c9-fc09-4a5c-bafa-b7fa6d8f7909" d="M29.053 60.392a8.707 8.707 0 0 1 11.538 0l-1.28 1.447a6.8 6.8 0 0 0-8.978 0z"/>
        </clipPath>
        <clipPath id="66dd6d21-6d14-4c78-8ca8-145af388b9f7">
            <path class="370af3c9-fc09-4a5c-bafa-b7fa6d8f7909" d="M51.63 80.731a.966.966 0 0 1 1.28 1.447 12.672 12.672 0 0 1-16.789 0 .966.966 0 1 1 1.28-1.447 10.765 10.765 0 0 0 14.229 0"/>
        </clipPath>
        <clipPath id="38ae7c6f-ccad-4e10-8479-441937685e4f">
            <path class="370af3c9-fc09-4a5c-bafa-b7fa6d8f7909" d="M52.609 111.2a15.515 15.515 0 0 0 7.3-11.356l3.99 2V122.5z"/>
        </clipPath>
        <clipPath id="7cc7242b-e340-4b5b-9d0f-f819e941ba0d">
            <path class="370af3c9-fc09-4a5c-bafa-b7fa6d8f7909" d="M33.852 97.963a10.663 10.663 0 1 0 21.326 0h1.939a12.6 12.6 0 1 1-25.2 0h1.938z"/>
        </clipPath>
        <clipPath id="244a3d19-3666-4503-a669-ccace98c4394">
            <path class="370af3c9-fc09-4a5c-bafa-b7fa6d8f7909" d="M54.209 97.963a1.939 1.939 0 1 0 1.938-1.939 1.939 1.939 0 0 0-1.938 1.939m-9.695 9.7a1.939 1.939 0 1 0 1.939 1.94 1.938 1.938 0 0 0-1.939-1.94m-4.846-1.3a1.939 1.939 0 1 0 .709 2.648 1.938 1.938 0 0 0-.709-2.648m-3.548-3.55a1.939 1.939 0 1 0-.71 2.648 1.938 1.938 0 0 0 .71-2.648m-1.3-4.849a1.939 1.939 0 1 0-1.938 1.94 1.939 1.939 0 0 0 1.938-1.94m14.541 8.4a1.939 1.939 0 1 0 2.649.708 1.94 1.94 0 0 0-2.649-.708m3.548-3.55a1.939 1.939 0 1 0 2.648-.71 1.939 1.939 0 0 0-2.648.71"/>
        </clipPath>
        <clipPath id="38e3820b-f768-4d4f-8c4f-3fda2f63b5df">
            <path class="370af3c9-fc09-4a5c-bafa-b7fa6d8f7909" d="M61.248 156.143a43.03 43.03 0 0 0 1.081 3.879H26.521q.61-1.917 1.079-3.879h33.648z"/>
        </clipPath>
        <clipPath id="b865764b-abc2-45fb-a69b-32d270fc271c">
            <path class="370af3c9-fc09-4a5c-bafa-b7fa6d8f7909" d="M54.071 160.021l-3.878-3.879h11.055a43.03 43.03 0 0 0 1.081 3.879h-8.258z"/>
        </clipPath>
        <clipPath id="3ed2d723-38bd-4834-9cdd-985b2c574692">
            <path class="370af3c9-fc09-4a5c-bafa-b7fa6d8f7909" d="M54.209 175.536l-3.878-15.514 3.878-3.879 3.876 15.514-3.876 3.879z"/>
        </clipPath>
        <clipPath id="c6672439-f24a-435c-a223-53ff43acb599">
            <path class="370af3c9-fc09-4a5c-bafa-b7fa6d8f7909" d="M50.331 175.536l3.878-15.514-3.878-3.879-3.877 15.514 3.877 3.879z"/>
        </clipPath>
        <clipPath id="3c4aca98-645b-435c-9470-ace0cfbe4f52">
            <path class="370af3c9-fc09-4a5c-bafa-b7fa6d8f7909" d="M52.27 152.264a5.818 5.818 0 1 1-5.816 5.818 5.817 5.817 0 0 1 5.816-5.818"/>
        </clipPath>
        <clipPath id="e8030766-1694-4165-b97e-1abd528b9032">
            <path class="370af3c9-fc09-4a5c-bafa-b7fa6d8f7909" d="M65.892 70.811a1.939 1.939 0 1 1-1.939 1.94 1.94 1.94 0 0 1 1.939-1.94"/>
        </clipPath>
        <clipPath id="c584858b-50cc-47d7-b588-20fa2e4a4611">
            <path class="370af3c9-fc09-4a5c-bafa-b7fa6d8f7909" d="M23.189 70.811a1.939 1.939 0 1 1-1.938 1.94 1.94 1.94 0 0 1 1.938-1.94"/>
        </clipPath>
    </defs>
    <title>
        people-originals
    </title>
    <path class="43d68e20-d94f-4ba0-bccd-eabf038681e5 d3c35da7-0ff5-4dda-9ea9-23249edc6ee5" d="M8.882 178.68h15.044v13.107H8.882z"/>
    <path class="985137a1-dbaf-4440-aec6-f72a367b59d4 1089c56e-ddfa-4aa8-bd36-3bde866ec5d7" d="M11.791 178.679h13.104v13.107H11.791z"/>
    <path class="25f62f84-35ea-4745-9280-40b7e62d8d2c c5e432ab-db93-4a2c-986b-cff7dea6713f" d="M26.331 289.223H47.19v16.985H26.331z"/>
    <path class="787e08b3-64d3-4aea-9cc6-9303ffbe18db c8f229a9-c05c-4189-b38e-973518401b9a" d="M41.839 289.223h20.86v16.985h-20.86z"/>
    <path class="e3f99ac1-6a79-49f3-b896-6ed5889e7dac 1089c56e-ddfa-4aa8-bd36-3bde866ec5d7" d="M17.267 212.85H47.19v87.54H17.267z"/>
    <path class="b425e579-06b1-4326-9131-75b2cc952e65 f59e20cc-28da-42a0-bb8f-ae0146b5045e" d="M14.67 184.498h61.326v115.916H14.67z"/>
    <path class="514a7d15-fe8f-4c25-b703-9d58f7a3543a 1089c56e-ddfa-4aa8-bd36-3bde866ec5d7" d="M10.82 298.918h38.309v13.108H10.82z"/>
    <path class="eaf030f9-6a17-46d3-93ae-e49d8360dac5 e513681a-8c71-491c-8891-b6056133e06d" d="M10.821 291.472H49.13v16.674H10.821z"/>
    <path class="f2d3cb32-27b6-4570-af65-b4e47acf2ef1 f59e20cc-28da-42a0-bb8f-ae0146b5045e" d="M39.902 298.918H78.21v13.108H39.902z"/>
    <path class="74370198-4e79-40b8-ba93-13b61925210a 106565c1-8588-4239-8337-61468d62bcb0" d="M39.902 291.472H78.21v16.674H39.902z"/>
    <path class="13a701d8-a728-4f94-9d99-5620bd842d00 c5e432ab-db93-4a2c-986b-cff7dea6713f" d="M8.882 81.712h71.267v44.136H8.882z"/>
    <path class="c406a27d-0ec2-440d-ac98-3add5750fd7a e513681a-8c71-491c-8891-b6056133e06d" d="M8.966 95.231h71.101v119.827H8.966z"/>
    <path class="fde27cd2-fed9-4eda-81b9-ad2f5081e758 106565c1-8588-4239-8337-61468d62bcb0" d="M12.76 174.801h67.307v40.257H12.76z"/>
    <path class="377e486b-7997-4bed-a5a2-a04f920e4967 106565c1-8588-4239-8337-61468d62bcb0" d="M24.057 128.06h50.252v52.205H24.057z"/>
    <path class="492384ac-4ce2-4d05-92f8-5541b749f1b8 a328f1d5-38bc-4c73-b894-035bdd6a2716" d="M16.637 31.29h55.757v68.377H16.637z"/>
    <path class="69488c94-2a90-420b-8826-d5839a720cbe cb8c6e1b-3f5e-4efe-8d83-ad8930ad0d28" d="M39.901 62.319H78.21v37.348H39.901z"/>
    <path class="b7ccd431-9fbb-4b66-bc36-05a1dddaf9c1 c8f229a9-c05c-4189-b38e-973518401b9a" d="M55.412 58.44h16.983v16.985H55.412z"/>
    <path class="28a9964f-b229-4c7f-a756-a13a66d10c59 b9871259-5ebf-408a-a196-73bf07e2afde" d="M57.351 60.38h13.104v13.107H57.351z"/>
    <path class="11b23201-e996-4adc-b6e4-43bdb2909424 c5e432ab-db93-4a2c-986b-cff7dea6713f" d="M59.289 114.681h20.86v98.438h-20.86z"/>
    <path class="bc7f77e3-152a-4e90-b2b5-b3dcf4966772 c5e432ab-db93-4a2c-986b-cff7dea6713f" d="M16.637 58.44H33.62v16.985H16.637z"/>
    <path class="df75be03-4f1b-4f33-8205-961da875b5e9 b9871259-5ebf-408a-a196-73bf07e2afde" d="M18.576 60.38H31.68v13.107H18.576z"/>
    <path class="00067399-3cb7-4c05-929f-6246e03b3b22 c8f229a9-c05c-4189-b38e-973518401b9a" d="M30.208 81.713h49.943v57.035H30.208z"/>
    <path class="0096929c-89c8-401a-afa9-fd53dbf105cb c5e432ab-db93-4a2c-986b-cff7dea6713f" d="M20.515 39.074h48.002v61.564H20.515z"/>
    <path class="f7240d44-8e14-4faf-9a19-b08a3d128f79 c8f229a9-c05c-4189-b38e-973518401b9a" d="M33.948 52.787h34.569v33.819H33.948z"/>
    <path class="0a6cd66a-e986-480f-a4d5-055704edc245 d3c35da7-0ff5-4dda-9ea9-23249edc6ee5" d="M26.331 58.44h16.983v16.985H26.331z"/>
    <path class="3798ac45-3c89-4a09-84e1-df0902509f94 4af9eb8c-f667-4b45-b095-e8367ccecefe" d="M45.718 58.44h16.983v16.987H45.718z"/>
    <path class="999afbad-dcf1-41b0-a8d8-9b9b7671214c f59e20cc-28da-42a0-bb8f-ae0146b5045e" d="M28.27 60.38h13.104v13.107H28.27z"/>
    <path class="36ecf981-c322-4af4-bd74-a51769f2d404 f59e20cc-28da-42a0-bb8f-ae0146b5045e" d="M47.658 60.38h13.104v13.107H47.658z"/>
    <path class="3f805bc5-2ff3-48c8-947d-661033efb8b5 c5e432ab-db93-4a2c-986b-cff7dea6713f" d="M8.882 114.681h20.86v98.438H8.882z"/>
    <path class="7d67f881-3334-4f1d-87df-affe0b367645 b9871259-5ebf-408a-a196-73bf07e2afde" d="M35.055 61.353h15.04v18.92h-15.04z"/>
    <path class="bc923eed-6d81-4f2e-933a-714b0b1d6eb1 d3c35da7-0ff5-4dda-9ea9-23249edc6ee5" d="M27.3 61.35h11.166v11.167H27.3z"/>
    <path class="590e5a1d-9a30-4125-b97e-84a09ac34bc9 4af9eb8c-f667-4b45-b095-e8367ccecefe" d="M14.697 178.68h13.105v13.107H14.697z"/>
    <path class="73c81855-5021-4cc1-80d5-af4fa1837416 e513681a-8c71-491c-8891-b6056133e06d" d="M9.851 176.741h16.983v16.985H9.851z"/>
    <path class="c0d0bfe8-d59b-48e2-bc96-b5cb8034f71c d3c35da7-0ff5-4dda-9ea9-23249edc6ee5" d="M60.258 173.831h20.86v18.924h-20.86z"/>
    <path class="517ce819-faca-4255-9218-4a0c5bb09b0f d3c35da7-0ff5-4dda-9ea9-23249edc6ee5" d="M46.687 61.35h11.166v11.167H46.687z"/>
    <path class="4f4c6137-967d-44e3-9be0-11578032e585 a328f1d5-38bc-4c73-b894-035bdd6a2716" d="M24.439 53.592h20.765v12.86H24.439z"/>
    <path class="ea11ab02-2a59-4ca6-83e6-a26532979bd0 a328f1d5-38bc-4c73-b894-035bdd6a2716" d="M31.181 75.875H57.85v14.096H31.181z"/>
    <path class="cec0b42c-cefc-4969-87c5-93f51bff8baa 106565c1-8588-4239-8337-61468d62bcb0" d="M47.995 95.231h20.521v31.881H47.995z"/>
    <path class="4368f9c5-6010-4c8e-b0e0-431ab645f5e9 f59e20cc-28da-42a0-bb8f-ae0146b5045e" d="M27.3 93.349h34.431v21.834H27.3z"/>
    <path class="2944e0f1-55d5-4265-96ea-bf3b8ffdc973 d3c35da7-0ff5-4dda-9ea9-23249edc6ee5" d="M26.33 91.41h36.371v24.742H26.33z"/>
    <path class="9b64eacc-297e-409a-98d6-95b034cd66be 1089c56e-ddfa-4aa8-bd36-3bde866ec5d7" d="M21.907 151.529h45.035v13.107H21.907z"/>
    <path class="ce84036f-7206-4c4f-90eb-d5882aa7ef66 f59e20cc-28da-42a0-bb8f-ae0146b5045e" d="M45.579 151.529h21.363v13.107H45.579z"/>
    <path class="3482e9cc-c1b4-4f7e-a7c4-a5bb70a13af0 f59e20cc-28da-42a0-bb8f-ae0146b5045e" d="M45.717 151.529h16.982v28.621H45.717z"/>
    <path class="7d5cc0b0-bf01-488f-8c8e-86cd61e9bf4b 1089c56e-ddfa-4aa8-bd36-3bde866ec5d7" d="M41.84 151.529h16.983v28.621H41.84z"/>
    <path class="b3af05b6-c2ea-46e0-a484-a7c3b8273dca 1089c56e-ddfa-4aa8-bd36-3bde866ec5d7" d="M41.841 147.65H62.7v20.864H41.841z"/>
    <path class="4e4c9bfe-7acf-4033-b3d7-c731269411e8 4af9eb8c-f667-4b45-b095-e8367ccecefe" d="M59.338 66.197h13.105v13.107H59.338z"/>
    <path class="04c6bf89-0112-422c-8d9e-faacbe894a91 d3c35da7-0ff5-4dda-9ea9-23249edc6ee5" d="M16.637 66.197h13.105v13.107H16.637z"/>
</svg>
