<svg xmlns="http://www.w3.org/2000/svg" viewBox="0 0 202 12"><defs><style>.c3f3937e-f2b5-4679-906c-44d90ebd8f2f{opacity:0.4;}.f5dd263b-9adb-40c2-96b0-b68cfdb9533a{fill:#666;}</style></defs><title>placeholder-name</title><g id="9650b1c3-135e-42e7-86a4-957ec342cb40" data-name="Layer 2"><g id="489ce481-90b9-49ba-8808-b577c337690b" data-name="Layer 1"><g id="342a6cb6-b331-4282-9011-c46bac0b5a3b" data-name="derpydoo"><g class="c3f3937e-f2b5-4679-906c-44d90ebd8f2f"><polygon class="f5dd263b-9adb-40c2-96b0-b68cfdb9533a" points="196.05 0 195.92 0 190.12 0 189.98 0 184.18 0 184.05 0 178.24 0 178.11 0 172.31 0 172.17 0 166.37 0 166.23 0 160.43 0 160.3 0 154.49 0 154.36 0 148.56 0 148.42 0 142.62 0 142.49 0 136.68 0 136.55 0 130.75 0 130.61 0 124.81 0 124.67 0 118.87 0 118.74 0 112.93 0 112.8 0 107 0 106.86 0 101.06 0 100.92 0 95.12 0 94.99 0 89.18 0 89.05 0 83.25 0 83.11 0 77.31 0 77.17 0 71.37 0 71.24 0 65.43 0 65.3 0 59.5 0 59.36 0 53.56 0 53.43 0 47.62 0 47.49 0 41.69 0 41.55 0 35.75 0 35.61 0 29.81 0 29.68 0 23.87 0 23.74 0 17.94 0 17.8 0 12 0 11.87 0 6.06 0 5.93 0 0 0 0 12 5.93 12 6.06 12 11.87 12 12 12 17.8 12 17.94 12 23.74 12 23.87 12 29.68 12 29.81 12 35.61 12 35.75 12 41.55 12 41.69 12 47.49 12 47.62 12 53.43 12 53.56 12 59.36 12 59.5 12 65.3 12 65.43 12 71.24 12 71.37 12 77.17 12 77.31 12 83.11 12 83.25 12 89.05 12 89.18 12 94.99 12 95.12 12 100.92 12 101.06 12 106.86 12 107 12 112.8 12 112.93 12 118.74 12 118.87 12 124.67 12 124.81 12 130.61 12 130.75 12 136.55 12 136.68 12 142.49 12 142.62 12 148.42 12 148.56 12 154.36 12 154.49 12 160.3 12 160.43 12 166.23 12 166.37 12 172.17 12 172.31 12 178.11 12 178.24 12 184.05 12 184.18 12 189.98 12 190.12 12 195.92 12 196.05 12 202 12 202 0 196.05 0"/></g></g></g></g></svg>