<svg id="7616cc53-7cb5-403e-9317-1758d370a1f2" data-name="6838c3e1-efa4-4623-9be6-c272a445ec4c" xmlns="http://www.w3.org/2000/svg" viewBox="0 0 90 340.16">
    <defs>
        <style>
            .a84dd6ca-fb48-4dd7-8dd6-36fb3acccadf,.db496713-68fb-4d43-b8f1-380f0f98a385{fill:none}.db496713-68fb-4d43-b8f1-380f0f98a385{clip-rule:evenodd}.de2efb40-cb1f-4b21-be53-5ce22f94c7f1{clip-path:url(#e357a95f-038e-48c0-8a64-ab58139e1ced)}.\33 ae81cc6-11a2-4a34-bc44-a50a868056e2{fill:#fbd4cb}.\32 c616d3a-456d-4997-b3fe-fd964f0c50a0{clip-path:url(#8cb76ab7-b7e0-4c46-9bef-225bf9593f83)}.\31 420c63f-7167-48fe-99c6-d7d46873bfcd{fill:#f5bfb1}.\30 312ef17-65b0-4b0b-b2c0-35f7e4beda72{clip-path:url(#49e039b1-e99d-4ef1-a3fd-11e4594a704c)}.\39 594cfa9-7714-4a1f-8cb7-ea7ecf549169{fill:#ba643c}.b0d96284-eb02-4e97-85a9-06787e51e5b9{clip-path:url(#1209663c-79e9-472f-91c8-ecfa6b2ea215)}.de1740b2-af02-4c8a-a371-593d7ee695a0{fill:#653614}.\35 ed3ba12-c2b1-480c-abe5-b506a391cd4e{clip-path:url(#b104dfd7-cc24-4aac-8595-b558af7c5047)}.\31 7fc19e5-e99d-4985-abae-f2297e8e82b7{fill:#9d5031}.d2957c64-c345-42c2-bbec-6fe606912f6a{clip-path:url(#d9977329-b54e-4f8f-812b-8635eeb5ffdb)}.\31 5d3acfb-cb09-47e4-9ae5-487310c4c1ad{fill:#3f2410}.a3859f6b-5cc0-4185-9988-a313ef8cd03b{clip-path:url(#6da1a3b0-cae6-4db9-8176-896b0cee2d78)}.\30 8f25a0d-323e-411f-9652-b835da9600a8{fill:#e7b174}.\39 b0fe427-681a-4365-b120-afbe50cf50ff{clip-path:url(#fc8b7f67-2795-407e-bcd1-5db9bddb65f8)}.\33 c7d94f7-c5f8-4bd7-bc64-06285e05710d{fill:#c69155}.\32 7136953-a43b-45e3-bd3d-1666227d5d94{clip-path:url(#c29691e7-562f-4e48-b10a-b707fb953bc1)}.\33 49be895-e772-4409-84cc-b06838147892{clip-path:url(#e5ef7772-639c-4739-8f6f-b6a8de1fdf15)}.\34 4d3507e-18be-466e-9e3b-f5b94094a235{clip-path:url(#08360276-fb72-4836-87d4-c811e054292f)}.a312f3ec-ea75-4051-9527-4ba51a6b6082{fill:#a4c4e7}.\30 c6313e4-9817-4e03-8892-d237d5d6372c{clip-path:url(#9d07efa3-0bd7-4eeb-99c1-1f15198485bf)}.\34 30302b7-126e-42db-9236-dee18ebc5498{fill:#789bc7}.\35 a33908e-f97c-4adf-b1d6-a22f33d15341{clip-path:url(#9d199d1f-23dd-4ee6-aaee-db382cf59286)}.\35 56160d1-d764-49d1-8192-10e6862184c2{fill:#fff}.\36 fb1cbcc-4fe9-4d5c-9412-8792d74f0671{clip-path:url(#91b86cf7-e87a-4b72-914e-8322e8678004)}.b8df6647-115e-4ce6-b7f6-53b020ef2258{fill:#e5e5e4}.\33 e381aac-0a2b-4405-bf34-4248fe9bc4f9{clip-path:url(#89ab4e6f-b718-45b3-9e9e-ee74c6443ba4)}.e7eb2429-a3b7-44fc-9722-56098a502839{fill:#c93827}.\39 75a8ad4-021f-494e-b670-74c5771ba08d{clip-path:url(#772caf6f-afdf-4da8-9841-39351b2ffc38)}.\37 bdbb4b9-0c6d-4a6b-9cfe-8fe19f6810f0{fill:#971b1e}.ae11eb50-50a4-4397-8f74-f27e7c638114{clip-path:url(#feaa2249-778b-4597-b249-033cf9b2a10b)}.\36 47c8ce3-790d-41db-a7ac-f6def1370cc5{clip-path:url(#e34d6e6d-8313-4b8c-ad60-e58406212a5f)}.\33 9eec83b-6971-4b7c-b601-c7d3f5bf8c32{clip-path:url(#452885b6-0090-452c-851e-7f2eeba37fd0)}.\31 89f249f-609b-4bd4-9142-1d1e31e45187{clip-path:url(#96674ff7-9d62-4539-a300-5f9e87fab935)}.\38 256396a-d9a0-45a6-bf7b-6368f3bbdf50{clip-path:url(#fd43b828-c907-4e5a-a46c-5e634c4604d8)}.bbb32cab-6a3d-45f7-8c2d-1e0cfa349565{fill:#ffcc05}.e638a70f-263e-48c4-babc-8044014d869e{clip-path:url(#cd89eeba-e4c4-4c60-9a5d-a2324c0642c1)}.\39 3b172ee-6f62-46ce-9094-7a85a2ba347a{fill:#b7942f}.\37 710a256-27dd-417c-a4d6-9e116355b15c{clip-path:url(#3024d947-f74d-447e-9be7-f53590bf39f6)}.e96b55c4-c5c5-4a7f-a11c-c944dc4aa002{clip-path:url(#10afba27-7b20-43af-847d-b3d0ca2dafd1)}.\39 2be346e-5276-4674-a8b4-11f1775c32e4{clip-path:url(#d0791572-fb09-47fa-9bcf-39cb0031ba0c)}.\38 ed23c88-c4aa-4133-b855-32d656d63def{clip-path:url(#9e35f29e-6a2d-473d-8665-ecf6f208ee59)}.a385123f-2b38-4c01-bd15-1808bf2ca287{clip-path:url(#38adb4e9-3542-42fc-8579-8896f49a3551)}.\31 89c70ce-214f-4cfb-b376-6be8d7949075{clip-path:url(#bb237dee-0e7d-41cf-be23-b72a45218855)}.e1106844-a2b8-4736-b1f1-e85b9e2721b2{clip-path:url(#80df67bf-32d6-48b1-83d8-9cf770ef13dc)}.c7227262-46b8-4d1d-8396-fbdc172a2f80{clip-path:url(#4256f270-8e75-4c2b-9ea9-242889601b52)}.c31be925-fb6c-4b09-badb-8c87f058ac5e{fill:#424f55}.cf11ad5c-d65d-4ecf-af98-87c2c0412589{clip-path:url(#0c46618e-b747-47af-a5b7-354bcf1fb05d)}.\36 a21c49a-7d4e-487d-ab21-7487b2cf0966{clip-path:url(#0ab44f7f-08ff-458b-96ad-f9adad6d3ccc)}.aa676ecd-911e-4600-9383-9cda472c4c55{fill:#af8b81}.ee35115a-3d8b-42ff-b804-383815b92c02{clip-path:url(#f5a49030-abbd-4e53-a098-0dd5fb8293c7)}.c7bdf99f-f672-4146-8bc2-3895e97cf996{clip-path:url(#5a501e24-29d2-4f68-8e98-b82d08c8bc48)}.\37 6470c41-85ff-4955-990d-eb80bc0ca1aa{clip-path:url(#e33f02c3-c17d-4e53-8dfb-e34a70bbf4df)}.\37 dbb753d-1439-479f-a5c5-b3b40f4c680f{clip-path:url(#8134188f-6ddc-41e3-b1a5-141bd3a68d04)}.\35 2b653a4-04ad-4bd4-8e07-73bae56f9477{clip-path:url(#22ce6008-47da-417e-b318-041aae55d576)}.\36 df1253a-9e5d-4b82-a8bc-07c9984abb8a{clip-path:url(#661ee2c5-d8e4-428b-a371-8eea2c79bebd)}.\39 1d451cf-309c-4f0a-af50-13ba786c0c50{clip-path:url(#f8cfd8eb-bdf0-423d-ab5a-601425076f59)}.f2d0ee49-ae75-4c4f-a14a-b11232313c44{clip-path:url(#d53bb18b-0ec2-4cba-91f3-12f6cc034729)}.\34 3c582a4-25f8-4f86-bee0-5f74da43ab97{clip-path:url(#b68fdaa8-f4d6-40a8-9997-7b1c0d371c02)}.c0f16f05-900e-4178-8185-92243f3d55be{clip-path:url(#cf50f000-a340-4545-ac9b-d182e7129e3c)}.\38 9633e92-b729-4f19-b2c5-f0859b22edd3{clip-path:url(#2aef2d70-bf82-4104-9138-e743e55b1674)}.ebc5968a-3cdc-498b-91f7-897bd117046f{clip-path:url(#e5dc1f1e-6a2c-413b-9472-43ca2f70d937)}.\34 9d0ebc0-8847-45db-908d-a92ceb337a39{clip-path:url(#b31759f1-9021-4d62-aea6-015a8ca439da)}.\33 d9eb15c-2c12-4007-af55-95aa871ee76c{clip-path:url(#d1f9353e-4e32-416b-97f9-b6a82f0dc4dd)}.\30 d5f99bc-b373-4a21-851f-011070db9684{clip-path:url(#0b28fb7a-52ee-4099-92b6-2ad8055c1afb)}
        </style>
        <clipPath id="e357a95f-038e-48c0-8a64-ab58139e1ced">
            <path class="db496713-68fb-4d43-b8f1-380f0f98a385" d="M65.833 206.928l-1.978 13.842-15.612.109-3.421-13.951h21.011zm-26.315 0v95.028h-9.694l-1.937-3.879a1.854 1.854 0 0 0 1.937-1.94l-12.739-89.209h22.433z"/>
        </clipPath>
        <clipPath id="8cb76ab7-b7e0-4c46-9bef-225bf9593f83">
            <path class="db496713-68fb-4d43-b8f1-380f0f98a385" d="M63.855 220.77l-10.764 75.368a1.853 1.853 0 0 0 1.937 1.939l-1.937 3.879H43.4V201.11a1.964 1.964 0 0 0-.567-1.374z"/>
        </clipPath>
        <clipPath id="49e039b1-e99d-4ef1-a3fd-11e4594a704c">
            <path class="db496713-68fb-4d43-b8f1-380f0f98a385" d="M41.458 303.894h-29.08v1.94a1.944 1.944 0 0 0 1.939 1.939h25.2a1.944 1.944 0 0 0 1.939-1.939v-1.94z"/>
        </clipPath>
        <clipPath id="1209663c-79e9-472f-91c8-ecfa6b2ea215">
            <path class="db496713-68fb-4d43-b8f1-380f0f98a385" d="M12.378 303.894a3.88 3.88 0 0 1 2.864-3.745l13.455-3.7A6.786 6.786 0 0 0 39.4 298.1a.777.777 0 0 1 1.284.339 19.423 19.423 0 0 1 .778 5.455H12.378z"/>
        </clipPath>
        <clipPath id="b104dfd7-cc24-4aac-8595-b558af7c5047">
            <path class="db496713-68fb-4d43-b8f1-380f0f98a385" d="M41.458 303.894H70.54v1.94a1.944 1.944 0 0 1-1.939 1.939H43.4a1.944 1.944 0 0 1-1.939-1.939v-1.94z"/>
        </clipPath>
        <clipPath id="d9977329-b54e-4f8f-812b-8635eeb5ffdb">
            <path class="db496713-68fb-4d43-b8f1-380f0f98a385" d="M70.54 303.894a3.883 3.883 0 0 0-2.868-3.745l-13.453-3.7a6.786 6.786 0 0 1-10.7 1.653.753.753 0 0 0-.737-.192.761.761 0 0 0-.547.531 19.423 19.423 0 0 0-.778 5.455H70.54z"/>
        </clipPath>
        <clipPath id="6da1a3b0-cae6-4db9-8176-896b0cee2d78">
            <path class="db496713-68fb-4d43-b8f1-380f0f98a385" d="M72.48 121.6H10.439v-9.7c0-3.879 1.967-4.863 3.879-5.819l17.446-8.725V86.689h19.388v10.666L68.6 106.08c1.909.956 3.879 1.94 3.879 5.819v9.7z"/>
        </clipPath>
        <clipPath id="fc8b7f67-2795-407e-bcd1-5db9bddb65f8">
            <path class="db496713-68fb-4d43-b8f1-380f0f98a385" d="M72.477 134.5l-11.632-11.64-29.082-29.092v-7.079h19.389v10.666l17.448 8.727c1.909.955 3.879 1.94 3.879 5.818z"/>
        </clipPath>
        <clipPath id="c29691e7-562f-4e48-b10a-b707fb953bc1">
            <path class="db496713-68fb-4d43-b8f1-380f0f98a385" d="M72.477 120.394q-.98.62-1.992 1.2H12.43q-1.008-.58-1.992-1.2V111.9c0-3.879 1.967-4.863 3.876-5.819l17.448-8.726V86.69h19.39v10.665l17.448 8.726c1.909.956 3.876 1.94 3.876 5.819v8.494z"/>
        </clipPath>
        <clipPath id="e5ef7772-639c-4739-8f6f-b6a8de1fdf15">
            <path class="db496713-68fb-4d43-b8f1-380f0f98a385" d="M72.477 120.394q-.98.62-1.989 1.2H59.582L31.763 93.769V86.69h19.389v10.665l17.448 8.726c1.909.956 3.876 1.94 3.876 5.819v8.494z"/>
        </clipPath>
        <clipPath id="08360276-fb72-4836-87d4-c811e054292f">
            <path class="db496713-68fb-4d43-b8f1-380f0f98a385" d="M65.278 210.805h-18.65l-3.231-9.7a1.939 1.939 0 1 0-3.879 0v9.7H17.637l-3.044-21.338a27.281 27.281 0 0 1-.275-3.874 28.908 28.908 0 0 1 3.817-13.575h46.646a28.911 28.911 0 0 1 3.82 13.575 27.442 27.442 0 0 1-.278 3.874z"/>
        </clipPath>
        <clipPath id="9d07efa3-0bd7-4eeb-99c1-1f15198485bf">
            <path class="db496713-68fb-4d43-b8f1-380f0f98a385" d="M53.894 210.805H43.4v-9.7a1.949 1.949 0 0 0-.568-1.371z"/>
        </clipPath>
        <clipPath id="9d199d1f-23dd-4ee6-aaee-db382cf59286">
            <path class="db496713-68fb-4d43-b8f1-380f0f98a385" d="M65.277 210.806h-18v-3.878H65.83zm-25.759-3.878v3.878h-21.88l-.553-3.878h22.433z"/>
        </clipPath>
        <clipPath id="91b86cf7-e87a-4b72-914e-8322e8678004">
            <path class="db496713-68fb-4d43-b8f1-380f0f98a385" d="M53.894 210.805H43.398v-3.877h6.62l3.876 3.877z"/>
        </clipPath>
        <clipPath id="89ab4e6f-b718-45b3-9e9e-ee74c6443ba4">
            <path class="db496713-68fb-4d43-b8f1-380f0f98a385" d="M62.758 121.6a53.245 53.245 0 0 0-5.791 23.273 46.725 46.725 0 0 0 6.66 25.058 47.781 47.781 0 0 1 2.964 5.973H16.323a47.96 47.96 0 0 1 2.968-5.973 46.724 46.724 0 0 0 6.656-25.058 53.26 53.26 0 0 0-5.789-23.273h-9.72v-9.7c0-3.879 1.969-4.863 3.879-5.819l7.755-3.876L41.458 121.6l19.388-19.4 7.754 3.88c1.908.956 3.876 1.94 3.876 5.819v9.7h-9.72z"/>
        </clipPath>
        <clipPath id="772caf6f-afdf-4da8-9841-39351b2ffc38">
            <path class="db496713-68fb-4d43-b8f1-380f0f98a385" d="M62.758 121.6q-.537 1.063-1.025 2.152l-11.211-11.22L60.846 102.2l7.754 3.88c1.908.956 3.876 1.94 3.876 5.819v9.7h-9.72z"/>
        </clipPath>
        <clipPath id="feaa2249-778b-4597-b249-033cf9b2a10b">
            <path class="db496713-68fb-4d43-b8f1-380f0f98a385" d="M58.2 134.306a48.415 48.415 0 0 0-1.234 10.563 46.725 46.725 0 0 0 6.66 25.058 48.023 48.023 0 0 1 2.964 5.973h-.067l-40.9-40.915-.008-.075a9.686 9.686 0 0 0 13.073-.708 3.874 3.874 0 0 1 5.539 0 9.69 9.69 0 0 0 13.177.625 3.039 3.039 0 0 1 .8-.519"/>
        </clipPath>
        <clipPath id="e34d6e6d-8313-4b8c-ad60-e58406212a5f">
            <path class="db496713-68fb-4d43-b8f1-380f0f98a385" d="M62.757 121.6a55.04 55.04 0 0 0-1.769 3.88h-39.06a53.29 53.29 0 0 0-1.77-3.88h42.6zm-3.192 7.758a55.358 55.358 0 0 0-1.111 3.879H24.462c-.32-1.3-.692-2.595-1.109-3.879h36.212zm-1.919 7.758c-.22 1.3-.389 2.6-.5 3.879H25.773a51.726 51.726 0 0 0-.5-3.879h32.373zm-.678 7.758q0 2.013.119 3.879H25.828q.122-1.868.12-3.879h31.02zm.51 7.758c.187 1.339.426 2.628.712 3.878H24.726c.289-1.249.524-2.538.713-3.878h32.039zm1.793 7.758a44.47 44.47 0 0 0 1.483 3.878H22.163a45.107 45.107 0 0 0 1.481-3.878h35.627zm3.365 7.758c.319.595.647 1.189.992 1.785.4.69.783 1.388 1.152 2.093H18.134q.559-1.057 1.156-2.093c.342-.6.673-1.19.99-1.785h42.356zm-52.2-50.423v-3.88H33.7l3.879 3.88H10.438zm.206-7.758c.549-2.318 2.131-3.108 3.672-3.88h11.634l3.879 3.88H10.645zm34.692 7.758l3.876-3.88h23.267v3.88H45.336zm7.755-7.758l3.876-3.88H68.6c1.542.772 3.119 1.562 3.672 3.88H53.091z"/>
        </clipPath>
        <clipPath id="452885b6-0090-452c-851e-7f2eeba37fd0">
            <path class="db496713-68fb-4d43-b8f1-380f0f98a385" d="M62.757 121.6q-.537 1.063-1.025 2.15l-2.151-2.15h3.176zm-7.051-3.878l-3.879-3.88h20.65v3.88H55.706zm-2.615-7.758l3.876-3.88H68.6c1.542.772 3.119 1.562 3.672 3.88H53.091z"/>
        </clipPath>
        <clipPath id="96674ff7-9d62-4539-a300-5f9e87fab935">
            <path class="db496713-68fb-4d43-b8f1-380f0f98a385" d="M62.647 172.02l-3.879-3.878h3.868a63.9 63.9 0 0 0 .992 1.785c.4.69.783 1.388 1.152 2.093h-2.133zm-7.755-7.758l-3.879-3.878h8.258c.435 1.323.931 2.61 1.483 3.878h-5.862zm-7.755-7.762l-3.879-3.879h14.22c.186 1.341.425 2.63.712 3.879H47.137zm-7.755-7.756l-3.882-3.875h21.468q0 2.013.119 3.879h-17.7zm-7.754-7.758l-3.879-3.879h29.9c-.22 1.3-.389 2.6-.5 3.879H31.628zm8.58-7.758a4.053 4.053 0 0 1 2.5 0h-2.5z"/>
        </clipPath>
        <clipPath id="fd43b828-c907-4e5a-a46c-5e634c4604d8">
            <path class="db496713-68fb-4d43-b8f1-380f0f98a385" d="M41.458 32.387A27.147 27.147 0 0 1 68.6 59.537v31.03l-27.142-3.878a27.151 27.151 0 0 1 0-54.3"/>
        </clipPath>
        <clipPath id="cd89eeba-e4c4-4c60-9a5d-a2324c0642c1">
            <path class="db496713-68fb-4d43-b8f1-380f0f98a385" d="M60.846 59.556a7.758 7.758 0 0 1 7.754 7.758 15.518 15.518 0 0 0 10.962 14.835 15.481 15.481 0 0 1-6.44 3.869 15.484 15.484 0 0 0 6.44 3.889 15.5 15.5 0 0 1-6.44 3.87 15.481 15.481 0 0 0 6.44 3.888 15.518 15.518 0 0 1-6.44 3.87 15.508 15.508 0 0 0 6.44 3.888A15.463 15.463 0 0 1 68.6 109.96h-.4A18.427 18.427 0 0 1 53.091 81.6V59.538z"/>
        </clipPath>
        <clipPath id="3024d947-f74d-447e-9be7-f53590bf39f6">
            <path class="db496713-68fb-4d43-b8f1-380f0f98a385" d="M22.072 63.416a3.879 3.879 0 1 0 3.876 3.879 3.878 3.878 0 0 0-3.876-3.879"/>
        </clipPath>
        <clipPath id="10afba27-7b20-43af-847d-b3d0ca2dafd1">
            <path class="db496713-68fb-4d43-b8f1-380f0f98a385" d="M60.846 63.416a3.879 3.879 0 1 0 3.876 3.879 3.878 3.878 0 0 0-3.876-3.879"/>
        </clipPath>
        <clipPath id="d0791572-fb09-47fa-9bcf-39cb0031ba0c">
            <path class="db496713-68fb-4d43-b8f1-380f0f98a385" d="M22.072 65.355a1.94 1.94 0 1 0 1.937 1.94 1.94 1.94 0 0 0-1.937-1.94"/>
        </clipPath>
        <clipPath id="9e35f29e-6a2d-473d-8665-ecf6f208ee59">
            <path class="db496713-68fb-4d43-b8f1-380f0f98a385" d="M60.846 59.556v17.436a19.387 19.387 0 1 1-38.774 0V59.538a19.4 19.4 0 0 1 7.789-15.515h15.456a7.766 7.766 0 0 1 7.766 7.766 7.765 7.765 0 0 0 7.763 7.766"/>
        </clipPath>
        <clipPath id="38adb4e9-3542-42fc-8579-8896f49a3551">
            <path class="db496713-68fb-4d43-b8f1-380f0f98a385" d="M60.846 59.556v3.217l-5.5-5.5a7.726 7.726 0 0 0 5.493 2.279"/>
        </clipPath>
        <clipPath id="bb237dee-0e7d-41cf-be23-b72a45218855">
            <path class="db496713-68fb-4d43-b8f1-380f0f98a385" d="M31.763 63.416a3.879 3.879 0 1 1-3.876 3.879 3.878 3.878 0 0 1 3.876-3.879"/>
        </clipPath>
        <clipPath id="80df67bf-32d6-48b1-83d8-9cf770ef13dc">
            <path class="db496713-68fb-4d43-b8f1-380f0f98a385" d="M51.152 63.416a3.879 3.879 0 1 1-3.876 3.879 3.878 3.878 0 0 1 3.876-3.879"/>
        </clipPath>
        <clipPath id="4256f270-8e75-4c2b-9ea9-242889601b52">
            <path class="db496713-68fb-4d43-b8f1-380f0f98a385" d="M31.763 65.355a1.94 1.94 0 1 1-1.937 1.94 1.94 1.94 0 0 1 1.937-1.94"/>
        </clipPath>
        <clipPath id="0c46618e-b747-47af-a5b7-354bcf1fb05d">
            <path class="db496713-68fb-4d43-b8f1-380f0f98a385" d="M51.152 65.355a1.94 1.94 0 1 1-1.939 1.94 1.941 1.941 0 0 1 1.939-1.94"/>
        </clipPath>
        <clipPath id="0ab44f7f-08ff-458b-96ad-f9adad6d3ccc">
            <path class="db496713-68fb-4d43-b8f1-380f0f98a385" d="M40.494 67.295a.965.965 0 1 1 1.931 0v3.879a.971.971 0 0 1-.966.97h-1.94a.971.971 0 0 0 0 1.943h1.939a.966.966 0 0 1 0 1.932h-1.939a2.909 2.909 0 0 1 0-5.819h.975v-2.905z"/>
        </clipPath>
        <clipPath id="f5a49030-abbd-4e53-a098-0dd5fb8293c7">
            <path class="db496713-68fb-4d43-b8f1-380f0f98a385" d="M29.827 66.325a.97.97 0 1 1-.97.97.97.97 0 0 1 .97-.97"/>
        </clipPath>
        <clipPath id="5a501e24-29d2-4f68-8e98-b82d08c8bc48">
            <path class="db496713-68fb-4d43-b8f1-380f0f98a385" d="M49.213 66.325a.97.97 0 1 1-.97.97.97.97 0 0 1 .97-.97"/>
        </clipPath>
        <clipPath id="e33f02c3-c17d-4e53-8dfb-e34a70bbf4df">
            <path class="db496713-68fb-4d43-b8f1-380f0f98a385" d="M26 60.753a8.708 8.708 0 0 1 11.539 0L36.254 62.2a6.8 6.8 0 0 0-8.978 0z"/>
        </clipPath>
        <clipPath id="8134188f-6ddc-41e3-b1a5-141bd3a68d04">
            <path class="db496713-68fb-4d43-b8f1-380f0f98a385" d="M45.384 60.753a8.705 8.705 0 0 1 11.536 0L55.643 62.2a6.8 6.8 0 0 0-8.98 0z"/>
        </clipPath>
        <clipPath id="22ce6008-47da-417e-b318-041aae55d576">
            <path class="db496713-68fb-4d43-b8f1-380f0f98a385" d="M32.733 80.871a.97.97 0 1 1 1.939 0 .978.978 0 0 0 .283.688.972.972 0 0 0 .687.284h11.634a.957.957 0 0 0 .966-.969.97.97 0 1 1 1.939 0 2.894 2.894 0 0 1-.85 2.053h-.006a2.883 2.883 0 0 1-2.05.852H35.642a2.891 2.891 0 0 1-2.056-.852 2.9 2.9 0 0 1-.853-2.053"/>
        </clipPath>
        <clipPath id="661ee2c5-d8e4-428b-a371-8eea2c79bebd">
            <path class="db496713-68fb-4d43-b8f1-380f0f98a385" d="M29.827 179.777a12.6 12.6 0 0 1-11.634 7.758V185.6a10.67 10.67 0 0 0 9.5-5.819h2.131zm23.264 0a12.6 12.6 0 0 0 11.631 7.758V185.6a10.611 10.611 0 0 1-6.15-1.95 10.718 10.718 0 0 1-3.351-3.869h-2.13z"/>
        </clipPath>
        <clipPath id="f8cfd8eb-bdf0-423d-ab5a-601425076f59">
            <path class="db496713-68fb-4d43-b8f1-380f0f98a385" d="M56.967 64.386h-9.694a.968.968 0 0 0-.967.969v1.94a2.918 2.918 0 0 0 2.907 2.905h4.848a2.917 2.917 0 0 0 2.905-2.909v-2.905zm-15.509-1.94A4.83 4.83 0 0 1 44.82 63.8a2.914 2.914 0 0 1 2.454-1.357h14.541a.97.97 0 0 1 0 1.94h-2.909v2.909a4.859 4.859 0 0 1-4.845 4.849h-4.848a4.859 4.859 0 0 1-4.846-4.849 2.909 2.909 0 0 0-2.909-2.909l-.776-.97z"/>
        </clipPath>
        <clipPath id="d53bb18b-0ec2-4cba-91f3-12f6cc034729">
            <path class="db496713-68fb-4d43-b8f1-380f0f98a385" d="M21.1 64.386a.97.97 0 1 1 0-1.94h14.542A2.916 2.916 0 0 1 38.1 63.8a4.829 4.829 0 0 1 3.362-1.357v1.94a2.909 2.909 0 0 0-2.909 2.909 4.859 4.859 0 0 1-4.853 4.852h-4.843a4.861 4.861 0 0 1-4.848-4.849v-2.909H21.1zm14.539 0h-9.691v2.909a2.92 2.92 0 0 0 2.909 2.905H33.7a2.92 2.92 0 0 0 2.909-2.909v-1.94a.972.972 0 0 0-.967-.965z"/>
        </clipPath>
        <clipPath id="b68fdaa8-f4d6-40a8-9997-7b1c0d371c02">
            <path class="db496713-68fb-4d43-b8f1-380f0f98a385" d="M22.072 204.988a.97.97 0 1 1-1.939 0v-3.878a.97.97 0 1 0-1.939 0v5.819a.97.97 0 0 1-1.939.011v.96a.968.968 0 1 1-1.937 0v-.969a.97.97 0 0 1-1.939 0v-2.91a.97.97 0 1 1-1.939 0V121.6h11.632v3.826l-1.939 23.325v38.786l.711 1.422a11.132 11.132 0 0 1 1.229 5.2v10.829z"/>
        </clipPath>
        <clipPath id="cf50f000-a340-4545-ac9b-d182e7129e3c">
            <path class="a84dd6ca-fb48-4dd7-8dd6-36fb3acccadf" d="M10.438 183.655h5.816v3.879h-5.816z"/>
        </clipPath>
        <clipPath id="2aef2d70-bf82-4104-9138-e743e55b1674">
            <path class="a84dd6ca-fb48-4dd7-8dd6-36fb3acccadf" d="M16.254 183.655h3.879v3.879h-3.879z"/>
        </clipPath>
        <clipPath id="e5dc1f1e-6a2c-413b-9472-43ca2f70d937">
            <path class="db496713-68fb-4d43-b8f1-380f0f98a385" d="M15.284 181.716a3.879 3.879 0 1 1-3.876 3.878 3.878 3.878 0 0 1 3.876-3.878"/>
        </clipPath>
        <clipPath id="b31759f1-9021-4d62-aea6-015a8ca439da">
            <path class="db496713-68fb-4d43-b8f1-380f0f98a385" d="M15.284 183.655a1.939 1.939 0 1 1-1.937 1.939 1.939 1.939 0 0 1 1.937-1.939"/>
        </clipPath>
        <clipPath id="d1f9353e-4e32-416b-97f9-b6a82f0dc4dd">
            <path class="db496713-68fb-4d43-b8f1-380f0f98a385" d="M20.133 73.112a1.939 1.939 0 1 1-1.939 1.94 1.941 1.941 0 0 1 1.939-1.94"/>
        </clipPath>
        <clipPath id="0b28fb7a-52ee-4099-92b6-2ad8055c1afb">
            <path class="db496713-68fb-4d43-b8f1-380f0f98a385" d="M60.846 204.988a.97.97 0 1 0 1.939 0v-3.878a.968.968 0 1 1 1.937 0v5.819a.97.97 0 0 0 1.939.011v.96a.97.97 0 1 0 1.939 0v-.969a.97.97 0 0 0 1.939 0v-2.91a.97.97 0 1 0 1.939 0V121.6H60.846v3.826l1.939 23.325v38.786l-.711 1.422a11.132 11.132 0 0 0-1.229 5.2v10.829z"/>
        </clipPath>
    </defs>
    <title>
        people-originals
    </title>
    <path class="de2efb40-cb1f-4b21-be53-5ce22f94c7f1 3ae81cc6-11a2-4a34-bc44-a50a868056e2" d="M12.471 202.314h57.976v104.255H12.471z"/>
    <path class="2c616d3a-456d-4997-b3fe-fd964f0c50a0 1420c63f-7167-48fe-99c6-d7d46873bfcd" d="M38.217 195.122h30.252v111.447H38.217z"/>
    <path class="0312ef17-65b0-4b0b-b2c0-35f7e4beda72 9594cfa9-7714-4a1f-8cb7-ea7ecf549169" d="M7.764 299.28h38.308v13.107H7.764z"/>
    <path class="b0d96284-eb02-4e97-85a9-06787e51e5b9 de1740b2-af02-4c8a-a371-593d7ee695a0" d="M7.764 291.833h38.308v16.675H7.764z"/>
    <path class="5ed3ba12-c2b1-480c-abe5-b506a391cd4e 17fc19e5-e99d-4985-abae-f2297e8e82b7" d="M36.844 299.28h38.31v13.107h-38.31z"/>
    <path class="d2957c64-c345-42c2-bbec-6fe606912f6a 15d3acfb-cb09-47e4-9ae5-487310c4c1ad" d="M36.844 291.833h38.31v16.675h-38.31z"/>
    <path class="a3859f6b-5cc0-4185-9988-a313ef8cd03b 08f25a0d-323e-411f-9652-b835da9600a8" d="M5.825 82.075h71.269v44.135H5.825z"/>
    <path class="9b0fe427-681a-4365-b120-afbe50cf50ff 3c7d94f7-c5f8-4bd7-bc64-06285e05710d" d="M27.149 82.075h49.944v57.035H27.149z"/>
    <path class="27136953-a43b-45e3-bd3d-1666227d5d94 3ae81cc6-11a2-4a34-bc44-a50a868056e2" d="M5.825 82.076h71.266v44.133H5.825z"/>
    <path class="349be895-e772-4409-84cc-b06838147892 1420c63f-7167-48fe-99c6-d7d46873bfcd" d="M27.149 82.076H77.09v44.133H27.149z"/>
    <path class="44d3507e-18be-466e-9e3b-f5b94094a235 a312f3ec-ea75-4051-9527-4ba51a6b6082" d="M9.704 167.405h63.511v48.015H9.704z"/>
    <path class="0c6313e4-9817-4e03-8892-d237d5d6372c 430302b7-126e-42db-9236-dee18ebc5498" d="M38.216 195.122h20.292v20.297H38.216z"/>
    <path class="5a33908e-f97c-4adf-b1d6-a22f33d15341 556160d1-d764-49d1-8192-10e6862184c2" d="M12.471 202.314h57.973v13.105H12.471z"/>
    <path class="6fb1cbcc-4fe9-4d5c-9412-8792d74f0671 b8df6647-115e-4ce6-b7f6-53b020ef2258" d="M38.784 202.314h19.724v13.105H38.784z"/>
    <path class="3e381aac-0a2b-4405-bf34-4248fe9bc4f9 e7eb2429-a3b7-44fc-9722-56098a502839" d="M5.825 97.59h71.266v82.923H5.825z"/>
    <path class="975a8ad4-021f-494e-b670-74c5771ba08d 7bdbb4b9-0c6d-4a6b-9cfe-8fe19f6810f0" d="M45.908 97.59h31.183v30.771H45.908z"/>
    <path class="ae11eb50-50a4-4397-8f74-f27e7c638114 7bdbb4b9-0c6d-4a6b-9cfe-8fe19f6810f0" d="M21.001 128.421h50.204v52.091H21.001z"/>
    <path class="647c8ce3-790d-41db-a7ac-f6def1370cc5 556160d1-d764-49d1-8192-10e6862184c2" d="M5.824 101.467H77.09v75.166H5.824z"/>
    <path class="39eec83b-6971-4b7c-b601-c7d3f5bf8c32 b8df6647-115e-4ce6-b7f6-53b020ef2258" d="M47.214 101.467h29.877v26.893H47.214z"/>
    <path class="189f249f-609b-4bd4-9142-1d1e31e45187 b8df6647-115e-4ce6-b7f6-53b020ef2258" d="M23.135 128.421h46.259v48.212H23.135z"/>
    <path class="8256396a-d9a0-45a6-bf7b-6368f3bbdf50 bbb32cab-6a3d-45f7-8c2d-1e0cfa349565" d="M9.703 27.773h63.511V95.18H9.703z"/>
    <path class="e638a70f-263e-48c4-babc-8044014d869e 93b172ee-6f62-46ce-9094-7a85a2ba347a" d="M45.568 54.924h38.608v59.65H45.568z"/>
    <path class="7710a256-27dd-417c-a4d6-9e116355b15c 3ae81cc6-11a2-4a34-bc44-a50a868056e2" d="M13.58 58.802h16.983v16.985H13.58z"/>
    <path class="e96b55c4-c5c5-4a7f-a11c-c944dc4aa002 1420c63f-7167-48fe-99c6-d7d46873bfcd" d="M52.353 58.802h16.983v16.985H52.353z"/>
    <path class="92be346e-5276-4674-a8b4-11f1775c32e4 1420c63f-7167-48fe-99c6-d7d46873bfcd" d="M15.519 60.741h13.104v13.108H15.519z"/>
    <path class="8ed23c88-c4aa-4133-b855-32d656d63def 3ae81cc6-11a2-4a34-bc44-a50a868056e2" d="M17.458 39.409H65.46v61.59H17.458z"/>
    <path class="a385123f-2b38-4c01-bd15-1808bf2ca287 1420c63f-7167-48fe-99c6-d7d46873bfcd" d="M50.737 52.662H65.46v14.724H50.737z"/>
    <path class="189c70ce-214f-4cfb-b376-6be8d7949075 556160d1-d764-49d1-8192-10e6862184c2" d="M23.273 58.802h16.983v16.985H23.273z"/>
    <path class="e1106844-a2b8-4736-b1f1-e85b9e2721b2 556160d1-d764-49d1-8192-10e6862184c2" d="M42.662 58.802h16.983v16.987H42.662z"/>
    <path class="c7227262-46b8-4d1d-8396-fbdc172a2f80 c31be925-fb6c-4b09-badb-8c87f058ac5e" d="M25.213 60.741h13.104v13.108H25.213z"/>
    <path class="cf11ad5c-d65d-4ecf-af98-87c2c0412589 c31be925-fb6c-4b09-badb-8c87f058ac5e" d="M44.599 60.741h13.106v13.108H44.599z"/>
    <path class="6a21c49a-7d4e-487d-ab21-7487b2cf0966 aa676ecd-911e-4600-9383-9cda472c4c55" d="M31.998 61.715h15.04v18.922h-15.04z"/>
    <path class="ee35115a-3d8b-42ff-b804-383815b92c02 556160d1-d764-49d1-8192-10e6862184c2" d="M24.243 61.711h11.165v11.168H24.243z"/>
    <path class="c7bdf99f-f672-4146-8bc2-3895e97cf996 556160d1-d764-49d1-8192-10e6862184c2" d="M43.629 61.711h11.167v11.168H43.629z"/>
    <path class="76470c41-85ff-4955-990d-eb80bc0ca1aa aa676ecd-911e-4600-9383-9cda472c4c55" d="M21.382 53.954h20.767v12.86H21.382z"/>
    <path class="7dbb753d-1439-479f-a5c5-b3b40f4c680f aa676ecd-911e-4600-9383-9cda472c4c55" d="M40.77 53.954h20.764v12.86H40.77z"/>
    <path class="52b653a4-04ad-4bd4-8e07-73bae56f9477 aa676ecd-911e-4600-9383-9cda472c4c55" d="M28.119 75.287h26.676v13.107H28.119z"/>
    <path class="6df1253a-9e5d-4b82-a8bc-07c9984abb8a 430302b7-126e-42db-9236-dee18ebc5498" d="M13.579 175.163h55.757v16.985H13.579z"/>
    <path class="91d451cf-309c-4f0a-af50-13ba786c0c50 15d3acfb-cb09-47e4-9ae5-487310c4c1ad" d="M36.068 57.832h31.331v18.925H36.068z"/>
    <path class="f2d0ee49-ae75-4c4f-a14a-b11232313c44 de1740b2-af02-4c8a-a371-593d7ee695a0" d="M15.518 57.832h30.554v18.925H15.518z"/>
    <path class="43c582a4-25f8-4f86-bee0-5f74da43ab97 3ae81cc6-11a2-4a34-bc44-a50a868056e2" d="M5.824 116.982h20.862v96.499H5.824z"/>
    <path class="c0f16f05-900e-4178-8185-92243f3d55be e7eb2429-a3b7-44fc-9722-56098a502839" d="M5.824 179.041h15.044v13.107H5.824z"/>
    <path class="89633e92-b729-4f19-b2c5-f0859b22edd3 7bdbb4b9-0c6d-4a6b-9cfe-8fe19f6810f0" d="M11.64 179.041h13.107v13.107H11.64z"/>
    <path class="ebc5968a-3cdc-498b-91f7-897bd117046f bbb32cab-6a3d-45f7-8c2d-1e0cfa349565" d="M6.794 177.103h16.983v16.985H6.794z"/>
    <path class="49d0ebc0-8847-45db-908d-a92ceb337a39 556160d1-d764-49d1-8192-10e6862184c2" d="M8.733 179.041h13.104v13.107H8.733z"/>
    <path class="3d9eb15c-2c12-4007-af55-95aa871ee76c 556160d1-d764-49d1-8192-10e6862184c2" d="M13.58 68.498h13.107v13.107H13.58z"/>
    <path class="0d5f99bc-b373-4a21-851f-011070db9684 3ae81cc6-11a2-4a34-bc44-a50a868056e2" d="M56.232 116.982h20.862v96.499H56.232z"/>
</svg>
