<svg id="132673bb-986e-4a10-9741-18be91313bfa" data-name="6838c3e1-efa4-4623-9be6-c272a445ec4c" xmlns="http://www.w3.org/2000/svg" viewBox="0 0 90 340.16">
    <defs>
        <style>
            .\30 32a8da4-d902-4a2c-8683-2e4f1dbb2d57,.b0af092b-069c-4244-96c0-08c3675ecfda{fill:none}.b0af092b-069c-4244-96c0-08c3675ecfda{clip-rule:evenodd}.f4fe20fa-1653-48eb-bf68-3529c3e243d9{clip-path:url(#c3adb365-dcd9-4885-94c0-7afea18e4986)}.bbfd4fde-643b-4d33-9264-3f9794c2c79d{fill:#5ba2a2}.\30 82e2141-7d1a-480c-8bf4-1f80e9164fd2{clip-path:url(#21a93e6d-0f6d-42e0-ba02-945cc58a1f5e)}.f4672806-bb1c-4a19-b751-081ca43f6f9f{fill:#9fb2b9}.\32 e84b66f-0d5d-49fc-8548-f24bd113f7a4{clip-path:url(#5d34f8e6-3760-44f6-ba78-fb5cd3c4f84b)}.a2c8be8a-c2a1-4d8c-b5ba-f868e4990378{fill:#367878}.d0dd6a25-e161-40e0-a93f-3023b7ff8817{clip-path:url(#47647581-2036-4bbd-bcba-787e6469a5e5)}.b0f5b4ed-8437-481f-bda4-4b137058e6e2{fill:#77878e}.\33 069af32-d557-4191-bac5-1e8da109595a{clip-path:url(#f815e657-a6dc-4997-afe6-d88f26c5a8df)}.\33 164dac2-dd43-491c-9693-626fd44ab3ec{fill:#e7b174}.\35 dd4a6ba-c01c-4c90-9237-b2cd496faf98{clip-path:url(#74859c29-9080-48f6-86fe-229d6a6fc114)}.e45cd626-c499-4829-befd-ae859d0e54f6{clip-path:url(#732d026b-b191-4e4e-983b-83fd3e2bc07d)}.\32 d7b2773-1d39-4da7-a8c0-f07cae9a8a86{fill:#9d5031}.bb6ec9f7-3e26-4320-bbc8-a61f08c1c602{clip-path:url(#f8abdf46-1184-4fdc-a30f-a511b0b3b0bf)}.\36 403d4a1-5143-41e5-9b29-3fe412f9e3ab{fill:#c69155}.\34 4833c9d-e6b7-4944-9069-f36a07da5b08{clip-path:url(#ec2c4451-a438-4c91-b6ee-944642d1d2c1)}.\34 60dffd9-845a-4646-88d6-4ff16613519e{fill:#a77841}.\39 cd50e62-1da9-45c2-bfc8-e7ded1e58f10{clip-path:url(#caaa9c28-6ccb-449d-a9a2-fd9e00c46c20)}.\31 8ae20ee-fb61-4de1-ac27-d8a0ad0456cf{fill:#b82025}.\36 4ddf275-cd3a-485c-8274-f0f05a73aa2d{clip-path:url(#daf539be-794e-4298-beb1-76fdad0d06c5)}.\30 0b8f95f-2847-4c8e-9fba-a56cfe242434{fill:#971b1e}.\38 9ec28f7-c633-482b-b115-7ae2cdb95e7f{clip-path:url(#703058e9-a83d-4f68-9e59-519e66347dba)}.\31 fe04833-adb1-40b0-a865-aaffe3255cc7{fill:#fff}.\32 d86e742-a63a-4971-852b-14b57502357d{clip-path:url(#9240cde8-3788-4c82-a208-0baff7381e15)}.b4a8a4ef-4363-4a52-bad1-16186789df1e{clip-path:url(#5cae33cc-5636-4673-b5c6-daf22ee0c377)}.\37 203c3d6-b019-42a9-b69b-7d7d0f55508b{clip-path:url(#a9016dbf-e1b0-4295-9b1a-21e77b61925a)}.\34 c23f419-f7ce-4d33-8a3b-847c9820b033{clip-path:url(#8a7101ed-78bf-4d4e-9ef7-e1abd5bdd3df)}.\39 d6da3c7-d0de-46e1-94fe-8318b4f2b4d9{clip-path:url(#86a7c6b3-26b1-476b-a7ba-4e8e7c2c80b3)}.a6c278cb-f2fd-4b67-8091-649ab25ff4bb{clip-path:url(#dbbd860f-1d20-4070-92e0-8ddd07a6bbe3)}.f7b2edd3-9c6a-4d6e-a206-fe0b4e5dee3e{clip-path:url(#dc8de803-4964-4843-af20-5fb3cc8b525b)}.\35 41150d1-78fb-4044-b1d3-fb6b3caad8e0{clip-path:url(#b0786c06-3df8-4261-a7e4-ddbaaa9fffe6)}.ec2bc1e4-cb11-454f-a9f9-39fedff6b663{clip-path:url(#0e1573c9-1557-483e-bf46-3786cfc54270)}.\30 0ba05f4-0463-4155-9de1-629f30b94eab{clip-path:url(#4a9d956e-dabe-49a7-bc16-f61b1d6b30d5)}.de7becc2-95ae-4f4e-a41b-48e537fa128e{fill:#222c30}.\36 03fb9a0-44e6-416c-b4c5-bdec0bb15836{clip-path:url(#11762351-2b82-484f-8bc7-14d007060161)}.c5a05866-67af-4266-8407-16c242d92675{clip-path:url(#c5353a76-0f62-4115-96a9-3970f529d81b)}.\36 75cae1e-bbd0-4828-b5ec-cb6586d68096{clip-path:url(#03a761f7-e710-4d8d-a409-bff5915b10dd)}.a32e4f3d-43be-4c40-85ee-d82d21112ba0{clip-path:url(#effb1418-8cdd-4eb4-b659-6b8801d6174f)}.\36 ca39877-01cf-47ee-adf3-b010c74cb918{clip-path:url(#0236a167-2b45-4d34-99f6-a260cc39d49d)}.bcaa5204-c7e6-4892-9441-e1d7a362bd9d{clip-path:url(#ba430c71-0f00-4ff4-a3a8-1705349c82ec)}.c0f7a387-083b-4888-8db9-a6268e78d5e0{clip-path:url(#c61ea9d4-265d-45fb-8d0e-6abd569ec04c)}.b7ddf292-4b1e-42ff-b47c-28c31b263887{clip-path:url(#75900ef8-5f41-466c-8f19-4a1ff07b72dd)}.a0c4c6e1-ab17-430a-9079-7d6c3116ef86{fill:#424f55}.\34 258a180-3a8f-40f2-b5a2-584350e366d1{clip-path:url(#1333e32d-8c65-490a-9ab0-5e67315e3d50)}.\34 71701ca-bd47-4bba-a013-02bbf504b7a8{clip-path:url(#27c2dea8-128b-47b4-93bf-49e2838643c6)}.\32 ac5472b-f329-481e-be6f-13b778a02a2c{fill:#647278}.\32 38a6de4-d9b2-433d-98a3-f944b3d8ee75{clip-path:url(#748a2f70-af85-4c29-85dd-131f090ad1ea)}.\37 15b43d0-b822-465c-b22c-42372c14462b{clip-path:url(#8898dc18-42a9-4cc1-9edb-249de8b7cf6a)}.\32 05f27eb-71a3-4a9d-a2ab-467e6d5a31d2{clip-path:url(#b4497ac9-78a0-4a91-be33-a7105020d7ab)}.b9279307-0355-4647-93de-e46df99de133{fill:#e5e5e4}.\33 fe96872-2926-46d3-80a9-f37e0a24e5a2{clip-path:url(#b6077fbd-2d3b-4b3e-a6b7-fee0e13a8883)}.\35 4ae4f8a-2d05-4de1-91c7-4dd09ed54458{clip-path:url(#6daa669b-c218-4255-986c-c28da260e7f5)}.\31 2166f0f-d1de-446b-993f-01837fd746d7{clip-path:url(#0dcbd581-a824-4983-89f9-0254160ef8f5)}.\39 6793de7-0ffa-497b-bf01-1fe81e9f92f4{clip-path:url(#d894b124-f3f6-4f4e-a26c-ea0a6269f5ad)}.\39 3b06ac9-b31c-41e6-a2c4-258bb081cea7{clip-path:url(#63c316d2-39cf-4926-9807-5591820f0245)}.d2ed07b1-5bcb-4d96-a1d9-16aa0df2ff36{clip-path:url(#239d1c79-aea7-4eaa-a781-e48ad5482556)}.\30 4ef7a56-51dc-408f-aee7-94bf9cc349f3{clip-path:url(#78baad56-9973-467a-830f-db2819ada844)}.fdb4565b-e628-4807-8065-f70e2b0b81f5{clip-path:url(#e2361508-d042-45a3-b4d3-d1c7c8866ad0)}.\36 08f0062-deee-4985-b07e-52a0e422dc4a{clip-path:url(#f713f4fb-fefe-46f1-87b6-7ac03aaf1536)}.\32 55a31c9-6f57-400c-9eea-65f5011950d2{clip-path:url(#782081f5-bfdb-4465-b5ec-fef56604ef0e)}.b852150a-8a51-45d0-a452-864838664d22{fill:#f06162}.ab1d7b8a-5a64-4e05-ac3e-8217f352a4dd{clip-path:url(#0ab92430-c79d-47ef-8d61-f59f7f3ed488)}.b4cf21aa-3f72-4dfc-a24d-4ea5d23d203a{clip-path:url(#ade1bdf5-e25f-434d-bc56-43b21dc9f3e2)}.\31 257ddb2-af7b-423e-ba4c-421f46151e16{clip-path:url(#68f299e0-2d1a-4522-9674-f06690e939f6)}.d04085a3-ae4a-4cd5-b850-31296de7488c{clip-path:url(#5604c441-04eb-4450-900a-edae44d66b14)}.\37 d71ea70-076e-42e7-8b84-a74dcfd1eba5{fill:#804026}.a91fe496-07cb-4ed0-bcb5-4974a183b898{clip-path:url(#a71eb0cd-b7a5-41fe-acbd-840a92c3c098)}.\36 26bf0ff-f5d2-46a2-ac6f-3302117b6546{clip-path:url(#65b58a9f-f130-4efb-8803-5ff169d514f8)}.\38 0eec552-3976-4c19-9625-3a2accaae1f3{fill:#653614}
        </style>
        <clipPath id="c3adb365-dcd9-4885-94c0-7afea18e4986">
            <path class="b0af092b-069c-4244-96c0-08c3675ecfda" d="M21.735 172.658h46.53v49.662l-21.326-20.573a1.939 1.939 0 1 0-3.878 0L35.306 292.9H21.735V172.658z"/>
        </clipPath>
        <clipPath id="21a93e6d-0f6d-42e0-ba02-945cc58a1f5e">
            <path class="b0af092b-069c-4244-96c0-08c3675ecfda" d="M35.966 285.141l-.661 7.757H21.736v-7.757h14.23z"/>
        </clipPath>
        <clipPath id="5d34f8e6-3760-44f6-ba78-fb5cd3c4f84b">
            <path class="b0af092b-069c-4244-96c0-08c3675ecfda" d="M68.264 222.32v70.58h-13.57l-7.755-91.15a2.271 2.271 0 0 0-.53-1.293z"/>
        </clipPath>
        <clipPath id="47647581-2036-4bbd-bcba-787e6469a5e5">
            <path class="b0af092b-069c-4244-96c0-08c3675ecfda" d="M68.264 285.141v7.757h-13.57l-.661-7.757h14.231z"/>
        </clipPath>
        <clipPath id="f815e657-a6dc-4997-afe6-d88f26c5a8df">
            <path class="b0af092b-069c-4244-96c0-08c3675ecfda" d="M21.735 213.384a.97.97 0 1 1-1.939 0V209.5a.969.969 0 1 0-1.938 0v5.819a.969.969 0 0 1-1.938.013v.957a.97.97 0 0 1-1.939 0v-.97a.97.97 0 1 1-1.939 0v-2.909a.969.969 0 0 1-1.938 0v-76.6h11.631v77.574z"/>
        </clipPath>
        <clipPath id="74859c29-9080-48f6-86fe-229d6a6fc114">
            <path class="b0af092b-069c-4244-96c0-08c3675ecfda" d="M68.264 213.384a.97.97 0 1 0 1.939 0V209.5a.969.969 0 1 1 1.938 0v5.819a.97.97 0 0 0 1.939.013v.957a.969.969 0 0 0 1.938 0v-.97a.97.97 0 1 0 1.939 0v-2.909a.969.969 0 0 0 1.938 0v-76.6H68.264v77.574z"/>
        </clipPath>
        <clipPath id="732d026b-b191-4e4e-983b-83fd3e2bc07d">
            <path class="b0af092b-069c-4244-96c0-08c3675ecfda" d="M2.348 304.532l19.388-3.878 15.509 3.878v2.91a.973.973 0 0 1-.97.97H3.316a.973.973 0 0 1-.968-.97v-2.91z"/>
        </clipPath>
        <clipPath id="f8abdf46-1184-4fdc-a30f-a511b0b3b0bf">
            <path class="032a8da4-d902-4a2c-8683-2e4f1dbb2d57" d="M33.368 87.327h23.265v27.152H33.368z"/>
        </clipPath>
        <clipPath id="ec2c4451-a438-4c91-b6ee-944642d1d2c1">
            <path class="b0af092b-069c-4244-96c0-08c3675ecfda" d="M33.367 87.327h23.266v27.151h-4.154L33.367 95.36v-8.033z"/>
        </clipPath>
        <clipPath id="caaa9c28-6ccb-449d-a9a2-fd9e00c46c20">
            <path class="b0af092b-069c-4244-96c0-08c3675ecfda" d="M10.1 114.478v-.355l.007-.171c0-.056.006-.113.01-.168l.013-.163.015-.16c0-.053.011-.1.018-.157l.02-.15c.006-.05.016-.1.024-.149s.016-.1.025-.144l.028-.141.03-.138c.011-.045.021-.09.033-.134l.035-.13.036-.128c.012-.043.026-.083.04-.123s.026-.081.041-.121.027-.079.043-.118.03-.078.046-.114.031-.075.046-.113.033-.074.05-.109l.051-.105c.017-.035.035-.07.054-.1s.035-.066.054-.1l.056-.1c.02-.031.039-.064.059-.1L11 110.9c.02-.031.041-.06.063-.09s.041-.059.063-.088.043-.058.065-.085l.066-.084.068-.081c.023-.026.046-.053.07-.078l.07-.076.071-.075.074-.073.074-.071.076-.069c.026-.023.05-.045.076-.066s.051-.045.078-.066.051-.043.079-.064l.079-.063.08-.06.081-.06.083-.058.083-.056.085-.056.084-.054.085-.054.086-.053.086-.051.086-.05.088-.05.089-.049.086-.048.089-.048.089-.048.089-.045.089-.046.089-.046.09-.045.09-.045.089-.045.09-.045 19.388-9.7a11.632 11.632 0 1 0 23.264 0l19.388 9.7.089.045.09.045.09.045.179.091A5.363 5.363 0 0 1 79.9 114.3v75.814H68.265v-17.456h-46.53v17.454H10.1v-75.634z"/>
        </clipPath>
        <clipPath id="daf539be-794e-4298-beb1-76fdad0d06c5">
            <path class="b0af092b-069c-4244-96c0-08c3675ecfda" d="M45 110.6a11.635 11.635 0 0 0 11.632-11.637l19.386 9.7c1.911.955 3.879 1.94 3.879 5.819v35.849L36.774 107.19A11.592 11.592 0 0 0 45 110.6"/>
        </clipPath>
        <clipPath id="703058e9-a83d-4f68-9e59-519e66347dba">
            <path class="b0af092b-069c-4244-96c0-08c3675ecfda" d="M21.735 104.781l3.878-1.939v69.816h-3.878v-67.877z"/>
        </clipPath>
        <clipPath id="9240cde8-3788-4c82-a208-0baff7381e15">
            <path class="b0af092b-069c-4244-96c0-08c3675ecfda" d="M64.387 102.841l3.878 1.939v67.878h-3.878v-69.817z"/>
        </clipPath>
        <clipPath id="5cae33cc-5636-4673-b5c6-daf22ee0c377">
            <path class="b0af092b-069c-4244-96c0-08c3675ecfda" d="M64.387 64.054a3.879 3.879 0 1 0 3.878 3.879 3.879 3.879 0 0 0-3.878-3.879"/>
        </clipPath>
        <clipPath id="a9016dbf-e1b0-4295-9b1a-21e77b61925a">
            <path class="b0af092b-069c-4244-96c0-08c3675ecfda" d="M64.387 65.993a1.939 1.939 0 1 0 1.938 1.94 1.94 1.94 0 0 0-1.938-1.94"/>
        </clipPath>
        <clipPath id="8a7101ed-78bf-4d4e-9ef7-e1abd5bdd3df">
            <path class="b0af092b-069c-4244-96c0-08c3675ecfda" d="M25.613 64.054a3.879 3.879 0 1 0 3.878 3.879 3.878 3.878 0 0 0-3.878-3.879"/>
        </clipPath>
        <clipPath id="86a7c6b3-26b1-476b-a7ba-4e8e7c2c80b3">
            <path class="b0af092b-069c-4244-96c0-08c3675ecfda" d="M25.613 65.993a1.939 1.939 0 1 0 1.938 1.94 1.939 1.939 0 0 0-1.938-1.94"/>
        </clipPath>
        <clipPath id="dbbd860f-1d20-4070-92e0-8ddd07a6bbe3">
            <path class="b0af092b-069c-4244-96c0-08c3675ecfda" d="M45 40.782a19.448 19.448 0 0 1 19.387 19.394v19.393a19.387 19.387 0 1 1-38.774 0V60.176A19.447 19.447 0 0 1 45 40.782"/>
        </clipPath>
        <clipPath id="dc8de803-4964-4843-af20-5fb3cc8b525b">
            <path class="b0af092b-069c-4244-96c0-08c3675ecfda" d="M63.934 83.73A19.524 19.524 0 0 1 50.7 98.1L33.248 80.647l4-.509 18.609.012.891-3.606z"/>
        </clipPath>
        <clipPath id="b0786c06-3df8-4261-a7e4-ddbaaa9fffe6">
            <path class="b0af092b-069c-4244-96c0-08c3675ecfda" d="M64.387 79.569a19.387 19.387 0 1 1-38.774 0h38.774z"/>
        </clipPath>
        <clipPath id="0e1573c9-1557-483e-bf46-3786cfc54270">
            <path class="b0af092b-069c-4244-96c0-08c3675ecfda" d="M63.934 83.73A19.524 19.524 0 0 1 50.7 98.1L33.248 80.647l4-.509 18.609.012.143-.58h3.772z"/>
        </clipPath>
        <clipPath id="4a9d956e-dabe-49a7-bc16-f61b1d6b30d5">
            <path class="b0af092b-069c-4244-96c0-08c3675ecfda" d="M35.306 75.691a.969.969 0 1 1 0 1.939.966.966 0 0 0-.968.97.948.948 0 0 0 .96.957h1.947a1.944 1.944 0 0 0 1.939-1.933 2.074 2.074 0 0 1 1.933-1.932h7.766a2.075 2.075 0 0 1 1.933 1.932 1.943 1.943 0 0 0 1.938 1.933H54.7a.949.949 0 0 0 .961-.957.967.967 0 0 0-.968-.97.969.969 0 1 1 0-1.939 2.9 2.9 0 1 1 .007 5.8h-7.763A2.911 2.911 0 0 1 45 80.755a2.908 2.908 0 0 1-1.938.735h-7.764a2.9 2.9 0 1 1 .009-5.8"/>
        </clipPath>
        <clipPath id="11762351-2b82-484f-8bc7-14d007060161">
            <path class="b0af092b-069c-4244-96c0-08c3675ecfda" d="M35.306 64.054a3.879 3.879 0 1 1-3.878 3.879 3.879 3.879 0 0 1 3.878-3.879"/>
        </clipPath>
        <clipPath id="c5353a76-0f62-4115-96a9-3970f529d81b">
            <path class="b0af092b-069c-4244-96c0-08c3675ecfda" d="M54.694 64.054a3.879 3.879 0 1 1-3.878 3.879 3.878 3.878 0 0 1 3.878-3.879"/>
        </clipPath>
        <clipPath id="03a761f7-e710-4d8d-a409-bff5915b10dd">
            <path class="b0af092b-069c-4244-96c0-08c3675ecfda" d="M35.306 65.993a1.939 1.939 0 1 1-1.938 1.94 1.94 1.94 0 0 1 1.938-1.94"/>
        </clipPath>
        <clipPath id="effb1418-8cdd-4eb4-b659-6b8801d6174f">
            <path class="b0af092b-069c-4244-96c0-08c3675ecfda" d="M54.694 65.993a1.939 1.939 0 1 1-1.938 1.94 1.939 1.939 0 0 1 1.938-1.94"/>
        </clipPath>
        <clipPath id="0236a167-2b45-4d34-99f6-a260cc39d49d">
            <path class="b0af092b-069c-4244-96c0-08c3675ecfda" d="M33.367 66.963a.969.969 0 1 1-.97.97.97.97 0 0 1 .97-.97"/>
        </clipPath>
        <clipPath id="ba430c71-0f00-4ff4-a3a8-1705349c82ec">
            <path class="b0af092b-069c-4244-96c0-08c3675ecfda" d="M52.755 66.963a.969.969 0 1 1-.97.97.969.969 0 0 1 .97-.97"/>
        </clipPath>
        <clipPath id="c61ea9d4-265d-45fb-8d0e-6abd569ec04c">
            <path class="b0af092b-069c-4244-96c0-08c3675ecfda" d="M26.582 79.569a.97.97 0 1 1-1.939 0V60.176a20.357 20.357 0 0 1 40.714 0v19.393a.97.97 0 1 1-1.939 0V60.176a18.417 18.417 0 0 0-36.835 0v19.393z"/>
        </clipPath>
        <clipPath id="75900ef8-5f41-466c-8f19-4a1ff07b72dd">
            <path class="b0af092b-069c-4244-96c0-08c3675ecfda" d="M26.582 79.569a.97.97 0 1 1-1.939 0V60.176A20.419 20.419 0 0 1 45 39.812v1.94a18.477 18.477 0 0 0-18.418 18.424v19.393z"/>
        </clipPath>
        <clipPath id="1333e32d-8c65-490a-9ab0-5e67315e3d50">
            <path class="b0af092b-069c-4244-96c0-08c3675ecfda" d="M37.245 64.054a3.888 3.888 0 0 1 3.876 3.879 6.3 6.3 0 1 1-12.6 0v-3.879h8.725zm15.509 0h8.725v3.879a6.3 6.3 0 1 1-12.6 0 3.89 3.89 0 0 1 3.875-3.879z"/>
        </clipPath>
        <clipPath id="27c2dea8-128b-47b4-93bf-49e2838643c6">
            <path class="b0af092b-069c-4244-96c0-08c3675ecfda" d="M40.752 70.069a6.345 6.345 0 0 1-.98 1.764L32 64.054h2.743zm-1.518 2.362a6.316 6.316 0 0 1-1.6 1.143l-9.114-9.118v-.4h2.341zm14.892-8.377l6.69 6.692a6.353 6.353 0 0 1-1.142 1.6l-8.1-8.107a3.868 3.868 0 0 1 1.185-.187h1.371zm-3.338.541l8.288 8.29a6.33 6.33 0 0 1-1.763.98l-7.9-7.9a3.915 3.915 0 0 1 1.375-1.37z"/>
        </clipPath>
        <clipPath id="748a2f70-af85-4c29-85dd-131f090ad1ea">
            <path class="b0af092b-069c-4244-96c0-08c3675ecfda" d="M40.36 63.411a.966.966 0 1 1-1.439 1.289 4.858 4.858 0 0 0-7.231 0 .966.966 0 0 1-1.439-1.288 6.771 6.771 0 0 1 10.109 0"/>
        </clipPath>
        <clipPath id="8898dc18-42a9-4cc1-9edb-249de8b7cf6a">
            <path class="b0af092b-069c-4244-96c0-08c3675ecfda" d="M59.748 61.471a.966.966 0 1 1-1.439 1.288 4.858 4.858 0 0 0-7.231 0 .966.966 0 1 1-1.439-1.288 6.773 6.773 0 0 1 10.109 0"/>
        </clipPath>
        <clipPath id="b4497ac9-78a0-4a91-be33-a7105020d7ab">
            <path class="b0af092b-069c-4244-96c0-08c3675ecfda" d="M52.755 65.024a2.919 2.919 0 0 0-2.908 2.909 5.331 5.331 0 1 0 10.663 0v-2.909h-7.755zm-7.755 0l-.968-.97.968-.969a4.836 4.836 0 0 1 3.88 1.941 4.844 4.844 0 0 1 3.875-1.939h12.6a.966.966 0 0 1 0 1.932h-2.906v2.913a7.27 7.27 0 1 1-14.541 0A2.909 2.909 0 0 0 45 65.024z"/>
        </clipPath>
        <clipPath id="b6077fbd-2d3b-4b3e-a6b7-fee0e13a8883">
            <path class="b0af092b-069c-4244-96c0-08c3675ecfda" d="M45 65.024a2.908 2.908 0 0 0-2.908 2.909 7.27 7.27 0 1 1-14.541 0V65.02h-2.908a.966.966 0 0 1 0-1.932h12.6a4.844 4.844 0 0 1 3.875 1.939A4.836 4.836 0 0 1 45 63.085v1.939zm-7.755 0H29.49v2.909a5.331 5.331 0 1 0 10.663 0 2.919 2.919 0 0 0-2.908-2.909z"/>
        </clipPath>
        <clipPath id="6daa669b-c218-4255-986c-c28da260e7f5">
            <path class="b0af092b-069c-4244-96c0-08c3675ecfda" d="M44.034 67.933a.965.965 0 1 1 1.931 0v3.878a.968.968 0 0 1-.965.97h-1.939a.972.972 0 0 0 0 1.944H45a.966.966 0 0 1 0 1.931h-1.939a2.909 2.909 0 0 1 0-5.818h.973v-2.905z"/>
        </clipPath>
        <clipPath id="0dcbd581-a824-4983-89f9-0254160ef8f5">
            <path class="b0af092b-069c-4244-96c0-08c3675ecfda" d="M54.694 50.48a7.757 7.757 0 0 0 .05-15.514 1.939 1.939 0 0 1-.05 3.878H35.306a5.818 5.818 0 0 0 0 11.635h19.388z"/>
        </clipPath>
        <clipPath id="d894b124-f3f6-4f4e-a26c-ea0a6269f5ad">
            <path class="b0af092b-069c-4244-96c0-08c3675ecfda" d="M54.913 34.969h-.169a1.94 1.94 0 0 1-.05 3.879H35.306a5.817 5.817 0 0 0-5.816 5.818h25.254a4.848 4.848 0 0 0 .169-9.693"/>
        </clipPath>
        <clipPath id="63c316d2-39cf-4926-9807-5591820f0245">
            <path class="b0af092b-069c-4244-96c0-08c3675ecfda" d="M33.367 119.326L45 114.478l-11.633-4.849v9.697z"/>
        </clipPath>
        <clipPath id="239d1c79-aea7-4eaa-a781-e48ad5482556">
            <path class="b0af092b-069c-4244-96c0-08c3675ecfda" d="M56.632 119.326L45 114.478l11.632-4.849v9.697z"/>
        </clipPath>
        <clipPath id="78baad56-9973-467a-830f-db2819ada844">
            <path class="b0af092b-069c-4244-96c0-08c3675ecfda" d="M45 111.568a2.909 2.909 0 1 0 2.909 2.91 2.908 2.908 0 0 0-2.909-2.91"/>
        </clipPath>
        <clipPath id="e2361508-d042-45a3-b4d3-d1c7c8866ad0">
            <path class="b0af092b-069c-4244-96c0-08c3675ecfda" d="M64.387 102.841l3.878 1.939-.002 33.91-3.876-3.878v-31.971z"/>
        </clipPath>
        <clipPath id="f713f4fb-fefe-46f1-87b6-7ac03aaf1536">
            <path class="b0af092b-069c-4244-96c0-08c3675ecfda" d="M33.842 178.475a15.481 15.481 0 0 1-12.107 5.818v-5.818h12.107zm22.316 0a15.481 15.481 0 0 0 12.107 5.818v-5.818H56.157z"/>
        </clipPath>
        <clipPath id="782081f5-bfdb-4465-b5ec-fef56604ef0e">
            <path class="032a8da4-d902-4a2c-8683-2e4f1dbb2d57" d="M10.103 186.233h11.633v7.758H10.103z"/>
        </clipPath>
        <clipPath id="0ab92430-c79d-47ef-8d61-f59f7f3ed488">
            <path class="032a8da4-d902-4a2c-8683-2e4f1dbb2d57" d="M68.265 186.233h11.633v7.758H68.265z"/>
        </clipPath>
        <clipPath id="ade1bdf5-e25f-434d-bc56-43b21dc9f3e2">
            <path class="032a8da4-d902-4a2c-8683-2e4f1dbb2d57" d="M21.735 170.719h3.878v3.879h-3.878z"/>
        </clipPath>
        <clipPath id="68f299e0-2d1a-4522-9674-f06690e939f6">
            <path class="032a8da4-d902-4a2c-8683-2e4f1dbb2d57" d="M64.387 170.719h3.878v3.879h-3.878z"/>
        </clipPath>
        <clipPath id="5604c441-04eb-4450-900a-edae44d66b14">
            <path class="b0af092b-069c-4244-96c0-08c3675ecfda" d="M35.305 295.636a21.249 21.249 0 0 1 1.939 8.9H2.348a3.67 3.67 0 0 1 2.387-3.581l14.616-4.473a3.67 3.67 0 0 0 2.384-3.58h13.57v2.737z"/>
        </clipPath>
        <clipPath id="a71eb0cd-b7a5-41fe-acbd-840a92c3c098">
            <path class="b0af092b-069c-4244-96c0-08c3675ecfda" d="M87.652 304.532l-19.388-3.878-15.51 3.878v2.91a.974.974 0 0 0 .97.97h32.958a.973.973 0 0 0 .97-.97v-2.91z"/>
        </clipPath>
        <clipPath id="65b58a9f-f130-4efb-8803-5ff169d514f8">
            <path class="b0af092b-069c-4244-96c0-08c3675ecfda" d="M54.694 295.636a21.249 21.249 0 0 0-1.939 8.9h34.9a3.673 3.673 0 0 0-2.389-3.581l-14.616-4.473a3.67 3.67 0 0 1-2.384-3.58H54.694v2.737z"/>
        </clipPath>
    </defs>
    <title>
        people-originals
    </title>
    <path class="f4fe20fa-1653-48eb-bf68-3529c3e243d9 bbfd4fde-643b-4d33-9264-3f9794c2c79d" d="M17.121 168.044h55.757v129.467H17.121z"/>
    <path class="082e2141-7d1a-480c-8bf4-1f80e9164fd2 f4672806-bb1c-4a19-b751-081ca43f6f9f" d="M17.122 280.527H40.58v16.985H17.122z"/>
    <path class="2e84b66f-0d5d-49fc-8548-f24bd113f7a4 a2c8be8a-c2a1-4d8c-b5ba-f868e4990378" d="M41.794 195.842h31.084v101.671H41.794z"/>
    <path class="d0dd6a25-e161-40e0-a93f-3023b7ff8817 b0f5b4ed-8437-481f-bda4-4b137058e6e2" d="M49.419 280.527h23.459v16.985H49.419z"/>
    <path class="3069af32-d557-4191-bac5-1e8da109595a 3164dac2-dd43-491c-9693-626fd44ab3ec" d="M5.489 131.196h20.86v90.68H5.489z"/>
    <path class="5dd4a6ba-c01c-4c90-9237-b2cd496faf98 3164dac2-dd43-491c-9693-626fd44ab3ec" d="M63.65 131.196h20.86v90.68H63.65z"/>
    <path class="e45cd626-c499-4829-befd-ae859d0e54f6 2d7b2773-1d39-4da7-a8c0-f07cae9a8a86" d="M-2.266 296.041h44.125v16.985H-2.266z"/>
    <path class="bb6ec9f7-3e26-4320-bbc8-a61f08c1c602 6403d4a1-5143-41e5-9b29-3fe412f9e3ab" d="M28.754 82.713h32.493v36.379H28.754z"/>
    <path class="44833c9d-e6b7-4944-9069-f36a07da5b08 460dffd9-845a-4646-88d6-4ff16613519e" d="M28.754 82.713h32.493v36.379H28.754z"/>
    <path class="9cd50e62-1da9-45c2-bfc8-e7ded1e58f10 18ae20ee-fb61-4de1-ac27-d8a0ad0456cf" d="M5.489 94.349h79.023v100.377H5.489z"/>
    <path class="64ddf275-cd3a-485c-8274-f0f05a73aa2d 00b8f95f-2847-4c8e-9fba-a56cfe242434" d="M32.16 94.349h52.351v60.592H32.16z"/>
    <path class="89ec28f7-c633-482b-b115-7ae2cdb95e7f 1fe04833-adb1-40b0-a865-aaffe3255cc7" d="M17.121 98.228h13.105v79.044H17.121z"/>
    <path class="2d86e742-a63a-4971-852b-14b57502357d 1fe04833-adb1-40b0-a865-aaffe3255cc7" d="M59.773 98.227h13.105v79.045H59.773z"/>
    <path class="b4a8a4ef-4363-4a52-bad1-16186789df1e 6403d4a1-5143-41e5-9b29-3fe412f9e3ab" d="M55.896 59.44h16.983v16.985H55.896z"/>
    <path class="7203c3d6-b019-42a9-b69b-7d7d0f55508b 460dffd9-845a-4646-88d6-4ff16613519e" d="M57.835 61.38h13.104v13.107H57.835z"/>
    <path class="4c23f419-f7ce-4d33-8a3b-847c9820b033 3164dac2-dd43-491c-9693-626fd44ab3ec" d="M17.121 59.44h16.983v16.985H17.121z"/>
    <path class="9d6da3c7-d0de-46e1-94fe-8318b4f2b4d9 6403d4a1-5143-41e5-9b29-3fe412f9e3ab" d="M19.061 61.38h13.104v13.107H19.061z"/>
    <path class="a6c278cb-f2fd-4b67-8091-649ab25ff4bb 3164dac2-dd43-491c-9693-626fd44ab3ec" d="M20.999 36.169h48.002v67.407H20.999z"/>
    <path class="f7b2edd3-9c6a-4d6e-a206-fe0b4e5dee3e 6403d4a1-5143-41e5-9b29-3fe412f9e3ab" d="M28.635 71.931h39.913v30.786H28.635z"/>
    <path class="541150d1-78fb-4044-b1d3-fb6b3caad8e0 6403d4a1-5143-41e5-9b29-3fe412f9e3ab" d="M20.999 74.956h48.002v28.621H20.999z"/>
    <path class="ec2bc1e4-cb11-454f-a9f9-39fedff6b663 460dffd9-845a-4646-88d6-4ff16613519e" d="M28.635 74.956h39.913v27.761H28.635z"/>
    <path class="00ba05f4-0463-4155-9de1-629f30b94eab de7becc2-95ae-4f4e-a41b-48e537fa128e" d="M27.784 71.077h34.431v15.03H27.784z"/>
    <path class="603fb9a0-44e6-416c-b4c5-bdec0bb15836 1fe04833-adb1-40b0-a865-aaffe3255cc7" d="M26.815 59.44h16.983v16.985H26.815z"/>
    <path class="c5a05866-67af-4266-8407-16c242d92675 1fe04833-adb1-40b0-a865-aaffe3255cc7" d="M46.202 59.44h16.983v16.987H46.202z"/>
    <path class="675cae1e-bbd0-4828-b5ec-cb6586d68096 a2c8be8a-c2a1-4d8c-b5ba-f868e4990378" d="M28.754 61.38h13.104v13.107H28.754z"/>
    <path class="a32e4f3d-43be-4c40-85ee-d82d21112ba0 a2c8be8a-c2a1-4d8c-b5ba-f868e4990378" d="M48.142 61.38h13.104v13.107H48.142z"/>
    <path class="6ca39877-01cf-47ee-adf3-b010c74cb918 1fe04833-adb1-40b0-a865-aaffe3255cc7" d="M27.784 62.35h11.167v11.167H27.784z"/>
    <path class="bcaa5204-c7e6-4892-9441-e1d7a362bd9d 1fe04833-adb1-40b0-a865-aaffe3255cc7" d="M47.171 62.35h11.166v11.167H47.171z"/>
    <path class="c0f7a387-083b-4888-8db9-a6268e78d5e0 de7becc2-95ae-4f4e-a41b-48e537fa128e" d="M20.029 35.198H69.97v49.955H20.029z"/>
    <path class="b7ddf292-4b1e-42ff-b47c-28c31b263887 a0c4c6e1-ab17-430a-9079-7d6c3116ef86" d="M20.029 35.198h29.584v49.955H20.029z"/>
    <path class="4258a180-3a8f-40f2-b5a2-584350e366d1 de7becc2-95ae-4f4e-a41b-48e537fa128e" d="M23.907 59.44h42.186v19.41H23.907z"/>
    <path class="471701ca-bd47-4bba-a013-02bbf504b7a8 2ac5472b-f329-481e-be6f-13b778a02a2c" d="M23.906 59.44h41.525v19.038H23.906z"/>
    <path class="238a6de4-d9b2-433d-98a3-f944b3d8ee75 de7becc2-95ae-4f4e-a41b-48e537fa128e" d="M25.392 56.531H45.22v13.103H25.392z"/>
    <path class="715b43d0-b822-465c-b22c-42372c14462b de7becc2-95ae-4f4e-a41b-48e537fa128e" d="M44.779 54.593h19.828v13.102H44.779z"/>
    <path class="205f27eb-71a3-4a9d-a2ab-467e6d5a31d2 b9279307-0355-4647-93de-e46df99de133" d="M39.417 58.472h31.518v21.349H39.417z"/>
    <path class="3fe96872-2926-46d3-80a9-f37e0a24e5a2 1fe04833-adb1-40b0-a865-aaffe3255cc7" d="M19.064 58.472h30.55v21.349h-30.55z"/>
    <path class="54ae4f8a-2d05-4de1-91c7-4dd09ed54458 460dffd9-845a-4646-88d6-4ff16613519e" d="M35.539 62.353h15.04v18.92h-15.04z"/>
    <path class="12166f0f-d1de-446b-993f-01837fd746d7 de7becc2-95ae-4f4e-a41b-48e537fa128e" d="M24.876 30.352h42.186v24.742H24.876z"/>
    <path class="96793de7-0ffa-497b-bf01-1fe81e9f92f4 a0c4c6e1-ab17-430a-9079-7d6c3116ef86" d="M24.876 30.351h39.327v18.924H24.876z"/>
    <path class="93b06ac9-b31c-41e6-a2c4-258bb081cea7 a0c4c6e1-ab17-430a-9079-7d6c3116ef86" d="M28.754 105.015h20.86v18.925h-20.86z"/>
    <path class="d2ed07b1-5bcb-4d96-a1d9-16aa0df2ff36 de7becc2-95ae-4f4e-a41b-48e537fa128e" d="M40.386 105.015h20.86v18.925h-20.86z"/>
    <path class="04ef7a56-51dc-408f-aee7-94bf9cc349f3 de7becc2-95ae-4f4e-a41b-48e537fa128e" d="M37.478 106.955h15.045V122H37.478z"/>
    <path class="fdb4565b-e628-4807-8065-f70e2b0b81f5 b9279307-0355-4647-93de-e46df99de133" d="M59.773 98.227h13.105v45.077H59.773z"/>
    <path class="608f0062-deee-4985-b07e-52a0e422dc4a a2c8be8a-c2a1-4d8c-b5ba-f868e4990378" d="M17.121 173.861h55.757v15.045H17.121z"/>
    <path class="255a31c9-6f57-400c-9eea-65f5011950d2 b852150a-8a51-45d0-a452-864838664d22" d="M5.489 181.619h20.86v16.985H5.489z"/>
    <path class="ab1d7b8a-5a64-4e05-ac3e-8217f352a4dd b852150a-8a51-45d0-a452-864838664d22" d="M63.651 181.619h20.86v16.985h-20.86z"/>
    <path class="b4cf21aa-3f72-4dfc-a24d-4ea5d23d203a a0c4c6e1-ab17-430a-9079-7d6c3116ef86" d="M17.121 166.105h13.105v13.107H17.121z"/>
    <path class="1257ddb2-af7b-423e-ba4c-421f46151e16 de7becc2-95ae-4f4e-a41b-48e537fa128e" d="M59.773 166.105h13.105v13.107H59.773z"/>
    <path class="d04085a3-ae4a-4cd5-b850-31296de7488c 7d71ea70-076e-42e7-8b84-a74dcfd1eba5" d="M-2.266 288.284h44.124v20.862H-2.266z"/>
    <path class="a91fe496-07cb-4ed0-bcb5-4974a183b898 7d71ea70-076e-42e7-8b84-a74dcfd1eba5" d="M48.14 296.041h44.126v16.985H48.14z"/>
    <path class="626bf0ff-f5d2-46a2-ac6f-3302117b6546 80eec552-3976-4c19-9625-3a2accaae1f3" d="M48.14 288.284h44.126v20.862H48.14z"/>
</svg>
