<svg id="7eeaebdd-a63a-4578-a1b5-205bef5c2cdd" data-name="6838c3e1-efa4-4623-9be6-c272a445ec4c" xmlns="http://www.w3.org/2000/svg" viewBox="0 0 90 340.16">
    <defs>
        <style>
            .\38 8ce83e4-3a35-4d7c-b45e-482fb0df2a44{fill:none;clip-rule:evenodd}.\34 755339d-98ec-440b-9838-d29793d1ce7a{clip-path:url(#1368cf50-ede3-479f-b055-8ec88c3337eb)}.\35 4fe1a04-1e23-449b-889f-8caad2715396{fill:#424f55}.\36 d4a4617-0955-4824-9396-4c301a70514e{clip-path:url(#00d7f059-b882-45be-ba0d-ae2c76650471)}.\34 b5c2081-3be8-4264-ae71-b03cceab0b68{fill:#222c30}.\33 0a89d78-6438-4199-8e46-7291ff09dccb{clip-path:url(#f4e40f30-3dee-4275-92b5-84007091b38b)}.\37 f44bf3c-ff6e-4fc4-b368-9649f56545c5{fill:#9d5031}.ba7a427d-411b-4889-a3c6-075ce9223c66{clip-path:url(#f5d2c1e3-a26d-4337-bed7-9b39dc79b075)}.a4662869-2870-4a8e-b455-915a2ea910a0{clip-path:url(#1183c369-d020-49e2-9378-0859551d5ed6)}.\36 874cbd2-8e14-4c6b-8227-492c2e092d73{fill:#77878e}.bf5fef65-5105-4f9f-91f2-388868910ba7{clip-path:url(#933b0ebc-2f28-400c-b44a-65527b994cfb)}.\31 24f196b-f983-4577-8781-f069e9201816{fill:#647278}.ab6fae19-34eb-4582-b6d9-ecb88edb190d{clip-path:url(#c9e548e6-f50d-47a0-a7c9-75e54147aca0)}.e84e6c6c-162e-4005-80fd-2910da2f0c84{clip-path:url(#83d424f6-f46a-4833-ba6d-33116d647576)}.a5396ca5-718e-4f71-8b5e-a70f0562a4f5{clip-path:url(#13e37604-c14c-4b4c-819b-c6b2bc4cf547)}.db39a9b0-8748-428c-8308-b39013f02378{clip-path:url(#ec678cbf-a737-4f13-a70a-4637410d42d2)}.\37 c9caca8-08f4-48c9-8e4d-007151b8d017{fill:#804026}.\35 0158b91-dd5f-4323-a60d-abf38e57e837{clip-path:url(#6b7bd1a0-c336-4cad-b2bf-65b7c1abc9a9)}.ee65ec21-540e-4209-921d-d6ccb1b4fd2a{clip-path:url(#765feedb-38f8-4286-9a9b-03c8e426db4b)}.\33 4139e18-4dc1-482e-b121-56125d587405{clip-path:url(#9d725af9-2a46-4d39-81c8-cb5b5112a0ec)}.d0d4a76b-3118-429e-8bbe-29b28143fdfd{clip-path:url(#2f72e50f-f84c-4fda-996a-5e8ca8292980)}.ef68d441-534b-43d4-b5af-68b75efdeac6{clip-path:url(#d576146d-2f88-49cc-8093-7a11fd2bae65)}.a693c236-a1f3-4deb-ac2b-ee96c5f34828{clip-path:url(#5030c8c6-9e62-442f-ba1f-1aea49104d83)}.dd2fd03f-1439-4fde-bd14-dc7dcf9648de{clip-path:url(#7763b9cb-714a-4208-843c-f5a4c4ff7af1)}.\31 d01a263-107a-4a04-b31f-6a0c13a380a1{clip-path:url(#9c490c22-476f-4343-8fcf-ad6b472dbacc)}.\34 65ed01c-9426-43fa-9460-5960a63985d0{clip-path:url(#e5c5cf4e-ca0b-4fef-8518-426ee15d253d)}.\36 cac54f1-f471-466f-b3e9-d85164ecb086{clip-path:url(#342d0162-fbbf-4a5e-bfac-a55ca97d9fc8)}.\37 10478f6-a711-430f-96cb-2a4b418c914e{fill:#fff}.d787bd53-c38e-4168-9e5f-7087177be9d5{clip-path:url(#09e5d509-eac8-4b0a-b3a6-e6e05f9dbb2e)}.b70e171e-00f2-48d3-8fa7-c440f2bee451{clip-path:url(#0cf07228-b8d7-4d96-a5a0-71cdb210b33e)}.\38 18a52cd-d7f2-45fe-b00b-862c432d2626{fill:#653614}.\38 ea9148a-85ef-4d11-8865-29aab4143ca0{clip-path:url(#303ecf56-6cdf-4773-ab84-53b934aed3ac)}.bf80c696-5679-4fd5-b97b-a7a42ec13b6d{clip-path:url(#7ccea76f-036b-44a0-9a8c-2a07c46e6a58)}.f8360f42-7352-4848-9146-b1a42396e5fb{clip-path:url(#7f416700-8a54-4382-90ff-2eb8b0f8d1af)}.c7a0aa6a-275d-4ca4-a986-472a84d0d8b7{clip-path:url(#cce88179-2fc3-4231-b613-6b8f05af5cd7)}.\31 a982903-7a38-45ca-9b60-c5a3bf31fa6b{clip-path:url(#784a1f48-d892-4e1e-a8a3-c2a5fcc0e152)}.b8c6f2e3-e506-42c9-8814-2bb519c53b71{fill:#de3331}.be6eb740-98e1-4a06-8df7-71aa6972effd{clip-path:url(#e48bad0e-3473-49b9-8142-1a4e01a1bd36)}.b5749cce-1537-40f1-a4cd-1af557a8f1a3{fill:#f06162}.\37 fa45e59-30fa-4647-b997-6afc920d1f41{clip-path:url(#c6ef88c8-c078-42cd-97aa-3f2ae6a31486)}.\38 f2a08e8-ae4d-4c4e-bc35-c95d09acfd1b{fill:#ffcc05}.\32 f6266c7-c4d7-4dc3-8a88-dcf67d50fc7a{clip-path:url(#48575ec6-7c06-4b8c-8db7-2bbf47c90f6e)}.\32 3e8fb53-9605-4307-890f-b981e15d923c{clip-path:url(#fbc6052f-615a-4ebb-9f93-496aab47ae03)}.\30 186af03-e94c-4b12-bad5-b8260529aa34{fill:#b7942f}.\30 7791867-89c4-41aa-841b-1fd6081ed9e4{clip-path:url(#4a983053-1d9c-493f-aa1b-e97403a7923f)}.f468a715-50cc-451d-8f4a-7d411bd394ba{clip-path:url(#01709fe7-b611-425f-88d3-d656aa8a0b36)}.ca887748-20c2-4496-9bf7-4c4292e69d37{fill:#9fb2b9}.\37 5a7719f-d040-4ff1-9398-24ab74c7e4f7{clip-path:url(#a5600e85-2009-474c-95a6-e94c1c571bb2)}.\31 1bdfe27-6aab-4994-9890-95702bf43785{clip-path:url(#dc7657bd-89e3-41c5-930a-5a25cec23826)}.a550ed80-50c6-4b6c-91a2-1a382e026e0a{clip-path:url(#435e40dd-36a3-4c31-ab3c-5d1abc42ffb8)}.\36 896604d-38f1-4a73-ae2e-3ec4cf1a1cdf{fill:#b82025}.\30 47b96c3-7f63-47f8-b2af-42293f7256c0{clip-path:url(#ee05c46b-688b-4832-a8e3-5990747762bd)}.\33 692b12b-7e07-4871-98e3-44d515f68066{clip-path:url(#21d1b3d7-5888-41ea-98c5-6545e34f3b33)}.\32 8edce30-324c-42ed-96ef-e7f607767b94{clip-path:url(#ea67b984-5f49-4b7f-9682-d472aa502523)}.\33 767c4fc-3259-4fd3-8d26-309167355528{clip-path:url(#4e3102a0-a17f-4b78-bcbc-6abbb56a98aa)}.\36 fde0a2d-603f-4223-8329-c79265ec636d{fill:#971b1e}.cc7e902c-077e-4673-b18b-ef162e662d48{clip-path:url(#485b936c-dc02-4248-880e-ccdab6a88979)}.c4bc1e51-22a5-40ae-8828-8d5ccb579032{clip-path:url(#9b056831-a073-48b6-abc3-3551d359b973)}
        </style>
        <clipPath id="1368cf50-ede3-479f-b055-8ec88c3337eb">
            <path class="88ce83e4-3a35-4d7c-b45e-482fb0df2a44" d="M21.736 180.867h46.528v41.9L46.939 202.2a1.939 1.939 0 1 0-3.879 0l-7.755 91.149H21.736V180.867z"/>
        </clipPath>
        <clipPath id="00d7f059-b882-45be-ba0d-ae2c76650471">
            <path class="88ce83e4-3a35-4d7c-b45e-482fb0df2a44" d="M68.264 222.772v70.577h-13.57L46.94 202.2a2.29 2.29 0 0 0-.53-1.292z"/>
        </clipPath>
        <clipPath id="f4e40f30-3dee-4275-92b5-84007091b38b">
            <path class="88ce83e4-3a35-4d7c-b45e-482fb0df2a44" d="M21.736 213.836a.97.97 0 1 1-1.939 0v-3.88a.97.97 0 0 0-1.939 0v5.82a.97.97 0 0 1-1.939.012v.958a.968.968 0 1 1-1.937 0v-.97a.97.97 0 1 1-1.939 0v-2.91a.97.97 0 1 1-1.939 0v-28.12h11.632v29.09z"/>
        </clipPath>
        <clipPath id="f5d2c1e3-a26d-4337-bed7-9b39dc79b075">
            <path class="88ce83e4-3a35-4d7c-b45e-482fb0df2a44" d="M68.264 213.836a.97.97 0 1 0 1.939 0v-3.88a.968.968 0 1 1 1.937 0v5.82a.968.968 0 0 0 1.937.012v.958a.97.97 0 0 0 1.939 0v-.97a.97.97 0 1 0 1.939 0v-2.91a.968.968 0 1 0 1.937 0v-28.12H68.264v29.09z"/>
        </clipPath>
        <clipPath id="1183c369-d020-49e2-9378-0859551d5ed6">
            <path class="88ce83e4-3a35-4d7c-b45e-482fb0df2a44" d="M10.1 192.5v-77.571c0-3.878 1.967-4.863 3.879-5.818l19.385-9.7a11.606 11.606 0 0 0 3.956 8.741l7.68 7.684 7.676-7.68a11.608 11.608 0 0 0 3.954-8.741l19.389 9.7c1.908.955 3.879 1.94 3.879 5.818V192.5H68.264v-7.758H21.736v7.758H10.1z"/>
        </clipPath>
        <clipPath id="933b0ebc-2f28-400c-b44a-65527b994cfb">
            <path class="88ce83e4-3a35-4d7c-b45e-482fb0df2a44" d="M36.776 107.643c2.734 2.735 5.488 5.456 8.224 8.192l7.678-7.679a11.615 11.615 0 0 0 3.953-8.741l19.389 9.7c1.908.954 3.879 1.94 3.879 5.816V192.5H68.264v-42.39L31.29 113.128z"/>
        </clipPath>
        <clipPath id="c9e548e6-f50d-47a0-a7c9-75e54147aca0">
            <path class="88ce83e4-3a35-4d7c-b45e-482fb0df2a44" d="M31.291 85.7l23 30.74a19.394 19.394 0 0 1-23-30.74"/>
        </clipPath>
        <clipPath id="83d424f6-f46a-4833-ba6d-33116d647576">
            <path class="88ce83e4-3a35-4d7c-b45e-482fb0df2a44" d="M55.436 83.068a19.671 19.671 0 0 1 3.273 2.632 19.409 19.409 0 0 1-4.418 30.74l-16.11-16.115z"/>
        </clipPath>
        <clipPath id="13e37604-c14c-4b4c-819b-c6b2bc4cf547">
            <path class="88ce83e4-3a35-4d7c-b45e-482fb0df2a44" d="M33.366 87.78h23.265v11.635s-3.312 8.1-3.954 8.74L45 115.835l-7.678-7.68a12.4 12.4 0 0 1-3.956-8.74V87.78z"/>
        </clipPath>
        <clipPath id="ec678cbf-a737-4f13-a70a-4637410d42d2">
            <path class="88ce83e4-3a35-4d7c-b45e-482fb0df2a44" d="M33.366 87.78h23.265v11.635a11.607 11.607 0 0 1-3.954 8.74l-3.333 3.336-15.978-15.982V87.78z"/>
        </clipPath>
        <clipPath id="6b7bd1a0-c336-4cad-b2bf-65b7c1abc9a9">
            <path class="88ce83e4-3a35-4d7c-b45e-482fb0df2a44" d="M64.385 64.507a3.879 3.879 0 1 0 3.879 3.879 3.878 3.878 0 0 0-3.879-3.879"/>
        </clipPath>
        <clipPath id="765feedb-38f8-4286-9a9b-03c8e426db4b">
            <path class="88ce83e4-3a35-4d7c-b45e-482fb0df2a44" d="M64.385 66.445a1.94 1.94 0 1 0 1.939 1.94 1.938 1.938 0 0 0-1.939-1.94"/>
        </clipPath>
        <clipPath id="9d725af9-2a46-4d39-81c8-cb5b5112a0ec">
            <path class="88ce83e4-3a35-4d7c-b45e-482fb0df2a44" d="M25.612 64.507a3.879 3.879 0 1 0 3.879 3.879 3.876 3.876 0 0 0-3.879-3.879"/>
        </clipPath>
        <clipPath id="2f72e50f-f84c-4fda-996a-5e8ca8292980">
            <path class="88ce83e4-3a35-4d7c-b45e-482fb0df2a44" d="M25.612 66.445a1.94 1.94 0 1 0 1.939 1.94 1.941 1.941 0 0 0-1.939-1.94"/>
        </clipPath>
        <clipPath id="d576146d-2f88-49cc-8093-7a11fd2bae65">
            <path class="88ce83e4-3a35-4d7c-b45e-482fb0df2a44" d="M45 41.235a19.444 19.444 0 0 1 19.385 19.393v19.394a19.387 19.387 0 1 1-38.773 0V60.628A19.446 19.446 0 0 1 45 41.235"/>
        </clipPath>
        <clipPath id="5030c8c6-9e62-442f-ba1f-1aea49104d83">
            <path class="88ce83e4-3a35-4d7c-b45e-482fb0df2a44" d="M44.033 95.537A.969.969 0 0 1 45 94.57l.97 2.906-.97 2.905a.968.968 0 0 1-.967-.966v-3.878zM45 52.1h-9.6a3.6 3.6 0 0 1-2.743-.969l-2.739-2.841a1.933 1.933 0 0 1 0-2.741A21.248 21.248 0 0 1 45 39.3l3.876 6.4zm-15.51 9.548a.966.966 0 0 0 0-1.931h-3.878a.966.966 0 0 0 0 1.931h3.878zm.279-4.048a.965.965 0 1 0 .5-1.865l-3.745-1a.965.965 0 1 0-.5 1.865zm1.316-3.839a.966.966 0 1 0 .965-1.673l-3.357-1.939a.966.966 0 0 0-.967 1.673zm-1.6 25.3a.966.966 0 0 1 0 1.931h-3.873a.966.966 0 0 1 0-1.931h3.878zm.284 4.039a.965.965 0 1 1 .5 1.865l-3.745 1a.965.965 0 1 1-.5-1.865zm1.316 3.839a.966.966 0 1 1 .965 1.673l-3.357 1.936a.965.965 0 1 1-.967-1.671zm2.265 3.366a.965.965 0 1 1 1.364 1.366l-2.739 2.742a.966.966 0 0 1-1.368-1.364zm3.059 2.666a.966.966 0 1 1 1.673.965L36.143 97.3a.966.966 0 0 1-1.673-.966zm3.642 1.782a.966.966 0 0 1 1.867.5l-1 3.746a.967.967 0 0 1-1.868-.5z"/>
        </clipPath>
        <clipPath id="7763b9cb-714a-4208-843c-f5a4c4ff7af1">
            <path class="88ce83e4-3a35-4d7c-b45e-482fb0df2a44" d="M40.36 63.863a.965.965 0 1 1-1.439 1.287 4.856 4.856 0 0 0-7.23 0 .966.966 0 1 1-1.44-1.287 6.771 6.771 0 0 1 10.109 0"/>
        </clipPath>
        <clipPath id="9c490c22-476f-4343-8fcf-ad6b472dbacc">
            <path class="88ce83e4-3a35-4d7c-b45e-482fb0df2a44" d="M59.748 63.863a.965.965 0 0 1-1.439 1.287 4.859 4.859 0 0 0-7.232 0 .964.964 0 1 1-1.436-1.287 6.769 6.769 0 0 1 10.107 0zM45 94.57a.966.966 0 0 1 .965.968v3.878a.967.967 0 0 1-.965.968V94.57zm0-42.47V39.3a21.253 21.253 0 0 1 15.08 6.248 1.937 1.937 0 0 1 0 2.742l-2.743 2.84a3.593 3.593 0 0 1-2.74.969H45zm15.51 7.621a.966.966 0 1 0 0 1.931h3.876a.966.966 0 1 0 0-1.931H60.51zm-.778-3.983a.965.965 0 1 0 .5 1.865l3.742-1a.965.965 0 1 0-.5-1.865zm-1.784-3.646a.966.966 0 1 0 .967 1.672l3.357-1.939a.965.965 0 0 0-.965-1.672zm2.562 28.9a.966.966 0 1 1 0-1.931h3.876a.966.966 0 1 1 0 1.931H60.51zm-.778 3.978a.965.965 0 1 1 .5-1.865l3.745 1a.965.965 0 0 1-.5 1.865zm-1.784 3.647a.967.967 0 0 1 .967-1.675l3.357 1.94a.966.966 0 0 1-.965 1.673zm-2.664 3.059a.966.966 0 0 1 1.366-1.367l2.74 2.744a.965.965 0 1 1-1.364 1.364zm-3.365 2.264a.965.965 0 1 1 1.672-.965l1.937 3.358a.966.966 0 0 1-1.673.966zm-3.838 1.318a.965.965 0 1 1 1.864-.5l1 3.747a.965.965 0 1 1-1.864.5z"/>
        </clipPath>
        <clipPath id="e5c5cf4e-ca0b-4fef-8518-426ee15d253d">
            <path class="88ce83e4-3a35-4d7c-b45e-482fb0df2a44" d="M36.276 81.96a.97.97 0 0 1 1.939 0 .966.966 0 0 0 .967.97h11.634a.968.968 0 0 0 .97-.97.97.97 0 0 1 1.939 0 2.912 2.912 0 0 1-2.909 2.91H39.182a2.908 2.908 0 0 1-2.907-2.91"/>
        </clipPath>
        <clipPath id="342d0162-fbbf-4a5e-bfac-a55ca97d9fc8">
            <path class="88ce83e4-3a35-4d7c-b45e-482fb0df2a44" d="M35.306 64.507a3.879 3.879 0 1 1-3.876 3.879 3.876 3.876 0 0 1 3.876-3.879"/>
        </clipPath>
        <clipPath id="09e5d509-eac8-4b0a-b3a6-e6e05f9dbb2e">
            <path class="88ce83e4-3a35-4d7c-b45e-482fb0df2a44" d="M54.694 64.507a3.879 3.879 0 1 1-3.879 3.879 3.878 3.878 0 0 1 3.879-3.879"/>
        </clipPath>
        <clipPath id="0cf07228-b8d7-4d96-a5a0-71cdb210b33e">
            <path class="88ce83e4-3a35-4d7c-b45e-482fb0df2a44" d="M35.306 66.445a1.94 1.94 0 1 1-1.939 1.94 1.941 1.941 0 0 1 1.939-1.94"/>
        </clipPath>
        <clipPath id="303ecf56-6cdf-4773-ab84-53b934aed3ac">
            <path class="88ce83e4-3a35-4d7c-b45e-482fb0df2a44" d="M54.694 66.445a1.94 1.94 0 1 1-1.939 1.94 1.939 1.939 0 0 1 1.939-1.94"/>
        </clipPath>
        <clipPath id="7ccea76f-036b-44a0-9a8c-2a07c46e6a58">
            <path class="88ce83e4-3a35-4d7c-b45e-482fb0df2a44" d="M33.366 67.415a.97.97 0 1 1-.97.97.97.97 0 0 1 .97-.97"/>
        </clipPath>
        <clipPath id="7f416700-8a54-4382-90ff-2eb8b0f8d1af">
            <path class="88ce83e4-3a35-4d7c-b45e-482fb0df2a44" d="M52.755 67.415a.97.97 0 1 1-.97.97.97.97 0 0 1 .97-.97"/>
        </clipPath>
        <clipPath id="cce88179-2fc3-4231-b613-6b8f05af5cd7">
            <path class="88ce83e4-3a35-4d7c-b45e-482fb0df2a44" d="M47.9 70.323a.965.965 0 1 0-1.931 0V74.2a.968.968 0 0 0 .963.97h1.939a.971.971 0 0 1 0 1.943h-7.744a.971.971 0 0 1 0-1.943h1.937a.971.971 0 0 0 .967-.97v-3.877a.966.966 0 1 0-1.932 0v2.907h-.972a2.909 2.909 0 0 0 0 5.819h7.746a2.909 2.909 0 0 0 0-5.819H47.9v-2.907z"/>
        </clipPath>
        <clipPath id="784a1f48-d892-4e1e-a8a3-c2a5fcc0e152">
            <path class="88ce83e4-3a35-4d7c-b45e-482fb0df2a44" d="M52.755 65.475a2.921 2.921 0 0 0-2.909 2.91 5.331 5.331 0 1 0 10.663 0v-2.91h-7.754zm-7.755 0l-.97-.97.97-.97a4.837 4.837 0 0 1 3.879 1.942 4.843 4.843 0 0 1 3.876-1.939h12.6a.966.966 0 1 1 0 1.933h-2.907v2.912a7.271 7.271 0 1 1-14.542 0A2.907 2.907 0 0 0 45 65.477z"/>
        </clipPath>
        <clipPath id="e48bad0e-3473-49b9-8142-1a4e01a1bd36">
            <path class="88ce83e4-3a35-4d7c-b45e-482fb0df2a44" d="M45 65.477a2.909 2.909 0 0 0-2.909 2.909 7.27 7.27 0 1 1-14.54 0v-2.913h-2.909a.966.966 0 0 1 0-1.933h12.6a4.836 4.836 0 0 1 3.873 1.939A4.844 4.844 0 0 1 45 63.537v1.94zm-7.755 0H29.49v2.91a5.331 5.331 0 1 0 10.662 0 2.919 2.919 0 0 0-2.907-2.912z"/>
        </clipPath>
        <clipPath id="c6ef88c8-c078-42cd-97aa-3f2ae6a31486">
            <path class="88ce83e4-3a35-4d7c-b45e-482fb0df2a44" d="M50.426 112.576l2.044.7.7 2.044a1.939 1.939 0 1 1-2.743-2.742"/>
        </clipPath>
        <clipPath id="48575ec6-7c06-4b8c-8db7-2bbf47c90f6e">
            <path class="88ce83e4-3a35-4d7c-b45e-482fb0df2a44" d="M38.215 112.022a1.939 1.939 0 1 1-1.939 1.939 1.937 1.937 0 0 1 1.939-1.939"/>
        </clipPath>
        <clipPath id="fbc6052f-615a-4ebb-9f93-496aab47ae03">
            <path class="88ce83e4-3a35-4d7c-b45e-482fb0df2a44" d="M53.169 115.318l-2.743-2.742a1.939 1.939 0 0 1 2.743 2.742"/>
        </clipPath>
        <clipPath id="4a983053-1d9c-493f-aa1b-e97403a7923f">
            <path class="88ce83e4-3a35-4d7c-b45e-482fb0df2a44" d="M52.755 114.9v14.572a.97.97 0 0 1-1.939 0V113.96a.962.962 0 0 1 .3-.7l1.091.354z"/>
        </clipPath>
        <clipPath id="01709fe7-b611-425f-88d3-d656aa8a0b36">
            <path class="88ce83e4-3a35-4d7c-b45e-482fb0df2a44" d="M51.785 112.99a.97.97 0 0 1 .97.97v.94l-1.642-1.643a.966.966 0 0 1 .672-.27"/>
        </clipPath>
        <clipPath id="a5600e85-2009-474c-95a6-e94c1c571bb2">
            <path class="88ce83e4-3a35-4d7c-b45e-482fb0df2a44" d="M39.182 129.475a.968.968 0 1 1-1.937 0v-15.514a.968.968 0 1 1 1.937 0v15.514z"/>
        </clipPath>
        <clipPath id="dc7657bd-89e3-41c5-930a-5a25cec23826">
            <path class="88ce83e4-3a35-4d7c-b45e-482fb0df2a44" d="M2.347 304.985h34.9v2.909a.973.973 0 0 1-.97.97H3.317a.973.973 0 0 1-.97-.97v-2.909z"/>
        </clipPath>
        <clipPath id="435e40dd-36a3-4c31-ab3c-5d1abc42ffb8">
            <path class="88ce83e4-3a35-4d7c-b45e-482fb0df2a44" d="M35.306 298a13.052 13.052 0 0 1 1.931 6.987H2.347a3.66 3.66 0 0 1 2.64-3.676l11.961-2.638c2.451-.538 4.177-2.8 4.788-5.322h13.57V298z"/>
        </clipPath>
        <clipPath id="ee05c46b-688b-4832-a8e3-5990747762bd">
            <path class="88ce83e4-3a35-4d7c-b45e-482fb0df2a44" d="M35.306 298c.084.139.161.275.239.414a6.791 6.791 0 0 0-5.087 6.572H28.52a8.727 8.727 0 0 1 6.785-8.511V298z"/>
        </clipPath>
        <clipPath id="21d1b3d7-5888-41ea-98c5-6545e34f3b33">
            <path class="88ce83e4-3a35-4d7c-b45e-482fb0df2a44" d="M6.226 301.035l10.722-2.364c2.451-.538 4.177-2.8 4.787-5.322h1.937c-.492 3.633-2.489 6.375-6.308 7.217l-7.262 1.6c-1.876.414-3.134-.023-3.876-1.131"/>
        </clipPath>
        <clipPath id="ea67b984-5f49-4b7f-9682-d472aa502523">
            <path class="88ce83e4-3a35-4d7c-b45e-482fb0df2a44" d="M87.653 304.985h-34.9v2.909a.973.973 0 0 0 .97.97h32.96a.975.975 0 0 0 .97-.97v-2.909z"/>
        </clipPath>
        <clipPath id="4e3102a0-a17f-4b78-bcbc-6abbb56a98aa">
            <path class="88ce83e4-3a35-4d7c-b45e-482fb0df2a44" d="M54.694 298a13.033 13.033 0 0 0-1.934 6.987h34.893a3.664 3.664 0 0 0-2.64-3.676l-11.964-2.638c-2.447-.538-4.173-2.8-4.783-5.322H54.694V298z"/>
        </clipPath>
        <clipPath id="485b936c-dc02-4248-880e-ccdab6a88979">
            <path class="88ce83e4-3a35-4d7c-b45e-482fb0df2a44" d="M54.694 298c-.084.139-.164.275-.242.414a6.788 6.788 0 0 1 5.088 6.572h1.94a8.731 8.731 0 0 0-6.785-8.511V298z"/>
        </clipPath>
        <clipPath id="9b056831-a073-48b6-abc3-3551d359b973">
            <path class="88ce83e4-3a35-4d7c-b45e-482fb0df2a44" d="M83.774 301.035l-10.724-2.364c-2.449-.538-4.174-2.8-4.785-5.322h-1.94c.494 3.633 2.489 6.375 6.306 7.217l7.263 1.6c1.878.414 3.137-.023 3.879-1.131"/>
        </clipPath>
    </defs>
    <title>
        people-originals
    </title>
    <path class="4755339d-98ec-440b-9838-d29793d1ce7a 54fe1a04-1e23-449b-889f-8caad2715396" d="M17.122 176.253h55.756v121.709H17.122z"/>
    <path class="6d4a4617-0955-4824-9396-4c301a70514e 4b5c2081-3be8-4264-ae71-b03cceab0b68" d="M41.795 196.295h31.083v101.668H41.795z"/>
    <path class="30a89d78-6438-4199-8e46-7291ff09dccb 7f44bf3c-ff6e-4fc4-b368-9649f56545c5" d="M5.488 180.132H26.35v42.197H5.488z"/>
    <path class="ba7a427d-411b-4889-a3c6-075ce9223c66 7f44bf3c-ff6e-4fc4-b368-9649f56545c5" d="M63.65 180.132h20.859v42.197H63.65z"/>
    <path class="a4662869-2870-4a8e-b455-915a2ea910a0 6874cbd2-8e14-4c6b-8227-492c2e092d73" d="M5.488 94.8h79.024v102.317H5.488z"/>
    <path class="bf5fef65-5105-4f9f-91f2-388868910ba7 124f196b-f983-4577-8781-f069e9201816" d="M26.676 94.801h57.835v102.317H26.676z"/>
    <path class="ab6fae19-34eb-4582-b6d9-ecb88edb190d 6874cbd2-8e14-4c6b-8227-492c2e092d73" d="M20.999 81.087h37.906v42.34H20.999z"/>
    <path class="e84e6c6c-162e-4005-80fd-2910da2f0c84 124f196b-f983-4577-8781-f069e9201816" d="M33.568 78.454h35.434v42.601H33.568z"/>
    <path class="a5396ca5-718e-4f71-8b5e-a70f0562a4f5 7f44bf3c-ff6e-4fc4-b368-9649f56545c5" d="M28.753 83.166h32.492v37.283H28.753z"/>
    <path class="db39a9b0-8748-428c-8308-b39013f02378 7c9caca8-08f4-48c9-8e4d-007151b8d017" d="M28.753 83.166h32.492v32.939H28.753z"/>
    <path class="50158b91-dd5f-4323-a60d-abf38e57e837 7f44bf3c-ff6e-4fc4-b368-9649f56545c5" d="M55.895 59.893h16.983v16.985H55.895z"/>
    <path class="ee65ec21-540e-4209-921d-d6ccb1b4fd2a 7c9caca8-08f4-48c9-8e4d-007151b8d017" d="M57.835 61.832h13.104V74.94H57.835z"/>
    <path class="34139e18-4dc1-482e-b121-56125d587405 7f44bf3c-ff6e-4fc4-b368-9649f56545c5" d="M17.122 59.893h16.983v16.985H17.122z"/>
    <path class="d0d4a76b-3118-429e-8bbe-29b28143fdfd 7c9caca8-08f4-48c9-8e4d-007151b8d017" d="M19.059 61.832h13.107V74.94H19.059z"/>
    <path class="ef68d441-534b-43d4-b5af-68b75efdeac6 7f44bf3c-ff6e-4fc4-b368-9649f56545c5" d="M20.998 36.621h48.001v67.407H20.998z"/>
    <path class="a693c236-a1f3-4deb-ac2b-ee96c5f34828 54fe1a04-1e23-449b-889f-8caad2715396" d="M20.034 34.683h33.457v70.312H20.034z"/>
    <path class="dd2fd03f-1439-4fde-bd14-dc7dcf9648de 54fe1a04-1e23-449b-889f-8caad2715396" d="M25.391 56.984H45.22v13.102H25.391z"/>
    <path class="1d01a263-107a-4a04-b31f-6a0c13a380a1 4b5c2081-3be8-4264-ae71-b03cceab0b68" d="M40.386 34.682h29.58v70.314h-29.58z"/>
    <path class="465ed01c-9426-43fa-9460-5960a63985d0 7c9caca8-08f4-48c9-8e4d-007151b8d017" d="M31.662 76.377h26.677v13.107H31.662z"/>
    <path class="6cac54f1-f471-466f-b3e9-d85164ecb086 710478f6-a711-430f-96cb-2a4b418c914e" d="M26.816 59.893h16.98v16.985h-16.98z"/>
    <path class="d787bd53-c38e-4168-9e5f-7087177be9d5 710478f6-a711-430f-96cb-2a4b418c914e" d="M46.201 59.893h16.983v16.985H46.201z"/>
    <path class="b70e171e-00f2-48d3-8fa7-c440f2bee451 818a52cd-d7f2-45fe-b00b-862c432d2626" d="M28.753 61.832H41.86V74.94H28.753z"/>
    <path class="8ea9148a-85ef-4d11-8865-29aab4143ca0 818a52cd-d7f2-45fe-b00b-862c432d2626" d="M48.141 61.832h13.104V74.94H48.141z"/>
    <path class="bf80c696-5679-4fd5-b97b-a7a42ec13b6d 710478f6-a711-430f-96cb-2a4b418c914e" d="M27.783 62.801H38.95v11.168H27.783z"/>
    <path class="f8360f42-7352-4848-9146-b1a42396e5fb 710478f6-a711-430f-96cb-2a4b418c914e" d="M47.171 62.801h11.167v11.168H47.171z"/>
    <path class="c7a0aa6a-275d-4ca4-a986-472a84d0d8b7 7c9caca8-08f4-48c9-8e4d-007151b8d017" d="M33.604 64.741h22.792v18.922H33.604z"/>
    <path class="1a982903-7a38-45ca-9b60-c5a3bf31fa6b b8c6f2e3-e506-42c9-8814-2bb519c53b71" d="M39.417 58.923h31.52v21.35h-31.52z"/>
    <path class="be6eb740-98e1-4a06-8df7-71aa6972effd b5749cce-1537-40f1-a4cd-1af557a8f1a3" d="M19.064 58.923h30.55v21.35h-30.55z"/>
    <path class="7fa45e59-30fa-4647-b997-6afc920d1f41 8f2a08e8-ae4d-4c4e-bc35-c95d09acfd1b" d="M45.239 107.962h12.544v12.545H45.239z"/>
    <path class="2f6266c7-c4d7-4dc3-8a88-dcf67d50fc7a 8f2a08e8-ae4d-4c4e-bc35-c95d09acfd1b" d="M31.662 107.408h13.104v13.105H31.662z"/>
    <path class="23e8fb53-9605-4307-890f-b981e15d923c 0186af03-e94c-4b12-bad5-b8260529aa34" d="M45.812 107.408h12.526v12.525H45.812z"/>
    <path class="07791867-89c4-41aa-841b-1fd6081ed9e4 710478f6-a711-430f-96cb-2a4b418c914e" d="M46.201 108.648h11.167v26.41H46.201z"/>
    <path class="f468a715-50cc-451d-8f4a-7d411bd394ba ca887748-20c2-4496-9bf7-4c4292e69d37" d="M46.499 108.376h10.869v11.142H46.499z"/>
    <path class="75a7719f-d040-4ff1-9398-24ab74c7e4f7 710478f6-a711-430f-96cb-2a4b418c914e" d="M32.631 108.377h11.165v26.681H32.631z"/>
    <path class="11bdfe27-6aab-4994-9890-95702bf43785 710478f6-a711-430f-96cb-2a4b418c914e" d="M-2.267 300.371h44.126v13.107H-2.267z"/>
    <path class="a550ed80-50c6-4b6c-91a2-1a382e026e0a 6896604d-38f1-4a73-ae2e-3ec4cf1a1cdf" d="M-2.267 288.735H41.85v20.864H-2.267z"/>
    <path class="047b96c3-7f63-47f8-b2af-42293f7256c0 b5749cce-1537-40f1-a4cd-1af557a8f1a3" d="M23.907 291.861h16.252V309.6H23.907z"/>
    <path class="3692b12b-7e07-4871-98e3-44d515f68066 b5749cce-1537-40f1-a4cd-1af557a8f1a3" d="M1.612 288.735h26.674v18.199H1.612z"/>
    <path class="28edce30-324c-42ed-96ef-e7f607767b94 710478f6-a711-430f-96cb-2a4b418c914e" d="M48.141 300.371h44.126v13.107H48.141z"/>
    <path class="3767c4fc-3259-4fd3-8d26-309167355528 6fde0a2d-603f-4223-8329-c79265ec636d" d="M48.146 288.735h44.121v20.864H48.146z"/>
    <path class="cc7e902c-077e-4673-b18b-ef162e662d48 b8c6f2e3-e506-42c9-8814-2bb519c53b71" d="M49.839 291.861h16.255V309.6H49.839z"/>
    <path class="c4bc1e51-22a5-40ae-8828-8d5ccb579032 b8c6f2e3-e506-42c9-8814-2bb519c53b71" d="M61.711 288.735h26.676v18.199H61.711z"/>
</svg>
