<svg id="ff787f19-e71c-4ff7-bfe6-b90cfaa732bc" data-name="6838c3e1-efa4-4623-9be6-c272a445ec4c" xmlns="http://www.w3.org/2000/svg" viewBox="0 0 90 340.16">
    <defs>
        <style>
            .\30 f1b560c-274c-4219-a9ec-5f2642e416c7,.\38 4e05b37-bce2-48bc-b2a1-c4fae6d53ba6{fill:none}.\30 f1b560c-274c-4219-a9ec-5f2642e416c7{clip-rule:evenodd}.\39 ec8c2cc-b32a-4be6-8668-a9ceea33e37c{clip-path:url(#bbbc085d-8482-43b0-b848-43e67507454e)}.\38 8519df8-668e-4c40-af7a-1a7d8cd27588{fill:#424f55}.d1c6f385-98c2-441e-8df5-654dd8fa6e42{clip-path:url(#2c587008-16fc-4365-b9a6-c10eac50b522)}.b0c52038-d8de-40fd-9ada-d803a0b574bd{fill:#222c30}.c9816537-02d6-4a3d-84f7-0a5379dab3b0{clip-path:url(#cbb2dba6-e51a-44bd-bed4-a80664dbe3f9)}.a877549e-e0df-43dd-93ce-ed010e0ba519{fill:#fff}.\32 1a1462e-0327-4eb6-93cf-1df8c4dd28e6{clip-path:url(#ffa53760-9b55-4386-b173-34f5d7c67498)}.\34 d3a9665-cefb-4a57-afde-8d7f8176e2cb{fill:#a4c4e7}.b5ff01e0-6fa9-450c-b222-a706818f4e8d{clip-path:url(#fe54b615-0484-49d9-a66e-8ed114f59ade)}.\30 7e34bc0-67ef-4e77-812b-d407f9f159fe{fill:#e5e5e4}.\32 7db11e5-6223-4fe0-b0be-cbcc5c6bca0c{clip-path:url(#25f33788-c9c6-4df2-b700-5ac7f978bff2)}.\33 e6384b2-c11b-44a3-b7fa-2e15c88e16e7{fill:#789bc7}.\34 4b50e6c-e4f2-4565-b946-3ea4db93949e{clip-path:url(#877741b6-abc5-44a2-a84b-68058e989629)}.c0dba0cd-74ca-49a7-9799-731df64e20a6{clip-path:url(#29fbae85-52ef-4a49-8825-d11974d68fd6)}.\30 cfff607-2540-4ada-b300-c4bdc8236589{clip-path:url(#9a386cd3-f89c-4def-ba19-3a5264ef5fa2)}.\34 e53103a-baee-44df-acd4-458363e59e92{fill:#fadabd}.\33 4aa5216-98e2-4496-9c1d-d004d553499c{clip-path:url(#30be5c00-7f9d-43c5-a468-960b05c9fd99)}.\39 4eb8394-ad81-4ecf-8dcf-b7bd56508304{fill:#ebb988}.c7c0a5ac-51c2-492f-b664-ec461c7da60b{clip-path:url(#57d83b70-9718-49f2-aa2a-a6d9a8248e55)}.bde9c1c7-9c7e-4eee-a4ef-602452061ff5{clip-path:url(#a53291dd-338f-40d8-8812-3a810c8bf00d)}.\37 ecbd40b-c4c9-47cf-955b-31446985084b{fill:#ac7b4c}.\30 b2f290e-7346-4dd5-b8d5-6b302f5b3c27{clip-path:url(#b2617594-c02a-4ea4-a879-6fa4819f85f5)}.\38 383a476-03ef-4365-aa38-4dbd5dba2e92{clip-path:url(#e2b2a282-6cdb-4717-af1c-dff0867fa88b)}.\33 af30beb-12ef-49bb-954a-63a24e4d3c35{clip-path:url(#17ea5308-9c5c-45bc-be2d-7ca408bf5df6)}.\34 2737551-83f5-4fe5-b2e3-731e555a6ad1{clip-path:url(#2a9d455e-4a8c-4b1e-bec1-d24118482aba)}.a49d9f1b-53a3-4eaa-a49f-c294de981c48{clip-path:url(#fe40c2fd-10b6-48bf-b77b-937c7a3264c6)}.ecb489b8-1377-4942-8b90-9fe15488378e{clip-path:url(#8188bb7f-19b5-4b47-b70a-53a6276352bb)}.\31 7d7aa49-0535-4e13-95a5-d66b0d5ba76e{fill:#dd314e}.\38 b794b9e-d3bc-4f2c-acfc-e8234703cb53{clip-path:url(#fe6d25a3-49ac-41a8-8062-8630a98f6d30)}.\39 e124937-51da-45ed-909b-73a85034fe58{clip-path:url(#f865a69e-d09d-461c-9146-de8819b97ea8)}.a18a1cfc-9106-4e29-af11-c55da640e356{fill:#971b1e}.\33 cdfae7a-3fe1-406b-a959-a31e65431a8d{clip-path:url(#641a3b19-71bb-4b0c-9880-f385b58b0646)}.ccba1e0f-f489-4af7-bdbc-2b37ef62a33d{clip-path:url(#7d5b8e39-b214-412b-8df3-56796c5ae973)}.\38 4efeca4-a4c4-4ffe-94a1-1af1340f6d63{clip-path:url(#add68168-f594-4239-9ca5-68b21dd9ece5)}.\31 19a84ef-be09-4987-ab20-74912f276818{fill:#b82025}.a22c7c93-445d-4666-a9e0-bc16e05213e2{clip-path:url(#50973aa6-25d5-4151-9319-65366cdf735d)}.\31 51cd0b6-62d7-4cc3-a5c5-dee4c4054138{clip-path:url(#2d3bb35d-42a4-485a-8954-d16911bc7b38)}.\35 9c55f4a-f460-4253-8a64-39392ae0bae3{clip-path:url(#058a5a28-bb6a-468a-8cf9-3b7456277ab2)}.\36 e32458d-515a-43f8-80f1-4f3b6c241f0c{clip-path:url(#166ea2c3-2a2c-4ac1-ac97-87b539bc7595)}.\37 885baf9-44c8-4b8b-b7cb-8f85963c72b7{clip-path:url(#e1e051aa-6939-4f4a-b69b-5bcaea073e8d)}.\31 7d2d473-d9d6-4542-9aca-2ad59c642ef2{clip-path:url(#0784aeaa-8920-4ef2-8161-91c9fa19acff)}.c53b0666-a648-4552-8315-bc6d5586266e{clip-path:url(#35bc1b11-9eac-45c5-8f4e-dfba94f05a1a)}.d677648c-f662-4117-ba0d-2906c945f70b{clip-path:url(#369a9336-b505-40aa-88bf-3767693bdc2e)}.\31 141d6b3-cd9f-4249-b08d-6bc955e05b94{clip-path:url(#1be4f69c-0179-4a94-8ea4-68b7d1a76e15)}.\34 b2b607e-515a-494a-9cfd-1f4f591187d6{clip-path:url(#283a524c-7fb9-42ac-aacf-2c0955267b14)}.\31 c989eb0-6c2f-4112-932e-fc266f16e6b8{clip-path:url(#04f1236e-16b4-4bcb-99f4-021dd0a83a6d)}.\37 d9b6fea-fbee-4398-8950-4e14bb09613f{clip-path:url(#1814fb00-27e2-45e4-8320-1538235b3cda)}.\31 56556fa-b852-4eef-99e5-de9370ea9f94{clip-path:url(#992eb799-e354-43e7-af1b-8cb2b5178070)}
        </style>
        <clipPath id="bbbc085d-8482-43b0-b848-43e67507454e">
            <path class="0f1b560c-274c-4219-a9ec-5f2642e416c7" d="M65.458 220.83l-15.612.11L45 201.171a1.938 1.938 0 1 0-3.876 0v100.845h-9.695l-1.939-3.879a1.856 1.856 0 0 0 1.939-1.94L16.2 189.528a27.472 27.472 0 0 1-.275-3.874 28.9 28.9 0 0 1 3.819-13.574h46.639a28.9 28.9 0 0 1 3.82 13.574 27.443 27.443 0 0 1-.277 3.874z"/>
        </clipPath>
        <clipPath id="2c587008-16fc-4365-b9a6-c10eac50b522">
            <path class="0f1b560c-274c-4219-a9ec-5f2642e416c7" d="M65.458 220.83L54.693 296.2a1.855 1.855 0 0 0 1.939 1.939l-1.939 3.879H45V201.171a1.948 1.948 0 0 0-.567-1.372z"/>
        </clipPath>
        <clipPath id="cbb2dba6-e51a-44bd-bed4-a80664dbe3f9">
            <path class="0f1b560c-274c-4219-a9ec-5f2642e416c7" d="M43.061 303.955h-29.08v1.94a1.943 1.943 0 0 0 1.937 1.939h25.2a1.944 1.944 0 0 0 1.938-1.939v-1.94z"/>
        </clipPath>
        <clipPath id="ffa53760-9b55-4386-b173-34f5d7c67498">
            <path class="0f1b560c-274c-4219-a9ec-5f2642e416c7" d="M13.981 303.955a3.881 3.881 0 0 1 2.865-3.745l13.454-3.7a6.785 6.785 0 0 0 10.7 1.651.778.778 0 0 1 1.285.339 19.422 19.422 0 0 1 .777 5.455H13.981z"/>
        </clipPath>
        <clipPath id="fe54b615-0484-49d9-a66e-8ed114f59ade">
            <path class="0f1b560c-274c-4219-a9ec-5f2642e416c7" d="M43.061 303.955h29.081v1.94a1.944 1.944 0 0 1-1.939 1.939H45a1.945 1.945 0 0 1-1.939-1.939v-1.94z"/>
        </clipPath>
        <clipPath id="25f33788-c9c6-4df2-b700-5ac7f978bff2">
            <path class="0f1b560c-274c-4219-a9ec-5f2642e416c7" d="M72.142 303.955a3.881 3.881 0 0 0-2.865-3.745l-13.456-3.7a6.783 6.783 0 0 1-10.7 1.653.778.778 0 0 0-1.285.339 19.422 19.422 0 0 0-.778 5.455h29.084z"/>
        </clipPath>
        <clipPath id="877741b6-abc5-44a2-a84b-68058e989629">
            <path class="0f1b560c-274c-4219-a9ec-5f2642e416c7" d="M19.8 107.52V59.6a23.265 23.265 0 1 1 46.529 0v47.92H19.8z"/>
        </clipPath>
        <clipPath id="29fbae85-52ef-4a49-8825-d11974d68fd6">
            <path class="0f1b560c-274c-4219-a9ec-5f2642e416c7" d="M43.061 36.326A23.269 23.269 0 0 1 66.326 59.6v47.92H43.061V36.326z"/>
        </clipPath>
        <clipPath id="9a386cd3-f89c-4def-ba19-3a5264ef5fa2">
            <path class="0f1b560c-274c-4219-a9ec-5f2642e416c7" d="M33.367 86.75h19.388v15.514l9.693 2.154 2.9.646a23.277 23.277 0 0 1-22.284 16.593h-.01a23.277 23.277 0 0 1-22.284-16.593l3.8-.844 8.8-1.956V86.75z"/>
        </clipPath>
        <clipPath id="30be5c00-7f9d-43c5-a468-960b05c9fd99">
            <path class="0f1b560c-274c-4219-a9ec-5f2642e416c7" d="M52.755 90.766v11.5l12.6 2.8a23.316 23.316 0 0 1-9.17 12.54L33.367 94.783v-4.017h19.388z"/>
        </clipPath>
        <clipPath id="57d83b70-9718-49f2-aa2a-a6d9a8248e55">
            <path class="0f1b560c-274c-4219-a9ec-5f2642e416c7" d="M62.449 63.477a3.879 3.879 0 1 0 3.878 3.879 3.879 3.879 0 0 0-3.878-3.879"/>
        </clipPath>
        <clipPath id="a53291dd-338f-40d8-8812-3a810c8bf00d">
            <path class="0f1b560c-274c-4219-a9ec-5f2642e416c7" d="M62.449 65.415a1.94 1.94 0 1 0 1.938 1.94 1.94 1.94 0 0 0-1.938-1.94"/>
        </clipPath>
        <clipPath id="b2617594-c02a-4ea4-a879-6fa4819f85f5">
            <path class="0f1b560c-274c-4219-a9ec-5f2642e416c7" d="M23.674 63.477a3.879 3.879 0 1 0 3.878 3.879 3.878 3.878 0 0 0-3.878-3.879"/>
        </clipPath>
        <clipPath id="e2b2a282-6cdb-4717-af1c-dff0867fa88b">
            <path class="0f1b560c-274c-4219-a9ec-5f2642e416c7" d="M23.674 65.415a1.94 1.94 0 1 0 1.938 1.94 1.94 1.94 0 0 0-1.938-1.94"/>
        </clipPath>
        <clipPath id="17ea5308-9c5c-45bc-be2d-7ca408bf5df6">
            <path class="0f1b560c-274c-4219-a9ec-5f2642e416c7" d="M62.449 59.6v17.452a19.387 19.387 0 1 1-38.774 0V59.6h38.774z"/>
        </clipPath>
        <clipPath id="2a9d455e-4a8c-4b1e-bec1-d24118482aba">
            <path class="0f1b560c-274c-4219-a9ec-5f2642e416c7" d="M62.449 59.6v17.452a19.367 19.367 0 0 1-6.7 14.632L23.674 59.6h38.775z"/>
        </clipPath>
        <clipPath id="fe40c2fd-10b6-48bf-b77b-937c7a3264c6">
            <path class="0f1b560c-274c-4219-a9ec-5f2642e416c7" d="M46.818 85.78a7.756 7.756 0 0 0 4-6.789H35.306a7.756 7.756 0 0 0 4 6.789h7.512z"/>
        </clipPath>
        <clipPath id="8188bb7f-19b5-4b47-b70a-53a6276352bb">
            <path class="0f1b560c-274c-4219-a9ec-5f2642e416c7" d="M43.061 86.75a7.722 7.722 0 0 0 3.756-.97 7.757 7.757 0 0 0-7.512 0 7.726 7.726 0 0 0 3.756.97"/>
        </clipPath>
        <clipPath id="fe6d25a3-49ac-41a8-8062-8630a98f6d30">
            <path class="0f1b560c-274c-4219-a9ec-5f2642e416c7" d="M48.878 78.991a1.947 1.947 0 0 1-1.939 1.94h-7.756a1.946 1.946 0 0 1-1.938-1.94h11.633z"/>
        </clipPath>
        <clipPath id="f865a69e-d09d-461c-9146-de8819b97ea8">
            <path class="0f1b560c-274c-4219-a9ec-5f2642e416c7" d="M50.816 64.447a2.919 2.919 0 0 0-2.908 2.909 5.331 5.331 0 1 0 10.663 0v-2.909h-7.755zm-7.755 0l-.968-.97.968-.97a4.835 4.835 0 0 1 3.88 1.944 4.84 4.84 0 0 1 3.875-1.94h12.6a.966.966 0 1 1 0 1.933h-2.905v2.912a7.27 7.27 0 1 1-14.541 0 2.909 2.909 0 0 0-2.909-2.909z"/>
        </clipPath>
        <clipPath id="641a3b19-71bb-4b0c-9880-f385b58b0646">
            <path class="0f1b560c-274c-4219-a9ec-5f2642e416c7" d="M29.631 68.626a.967.967 0 0 1-1.067-1.613 6.772 6.772 0 0 1 7.5 0 .968.968 0 1 1-1.068 1.613 4.863 4.863 0 0 0-5.363 0"/>
        </clipPath>
        <clipPath id="7d5b8e39-b214-412b-8df3-56796c5ae973">
            <path class="0f1b560c-274c-4219-a9ec-5f2642e416c7" d="M51.13 68.626a.968.968 0 1 1-1.069-1.613 6.772 6.772 0 0 1 7.5 0 .967.967 0 0 1-1.067 1.613 4.863 4.863 0 0 0-5.363 0"/>
        </clipPath>
        <clipPath id="add68168-f594-4239-9ca5-68b21dd9ece5">
            <path class="0f1b560c-274c-4219-a9ec-5f2642e416c7" d="M63.454 104.642l6.749 1.5c2.085.464 3.878 1.941 3.878 5.819v21.333H62.448v-7.407a52.239 52.239 0 0 0-3.878 19.044 46.728 46.728 0 0 0 6.658 25.058c2.8 4.871 4.974 9.913 4.974 15.667a27.285 27.285 0 0 1-.277 3.875l-.831 5.823H17.026l-.826-5.825a27.3 27.3 0 0 1-.277-3.875c0-5.739 2.185-10.817 4.975-15.667a46.738 46.738 0 0 0 6.658-25.058 52.241 52.241 0 0 0-3.878-19.044v7.407H12.041V111.96c0-3.879 1.794-5.354 3.878-5.819l6.749-1.5a21.331 21.331 0 0 0 40.786 0"/>
        </clipPath>
        <clipPath id="50973aa6-25d5-4151-9319-65366cdf735d">
            <path class="0f1b560c-274c-4219-a9ec-5f2642e416c7" d="M65.229 169.987a47.247 47.247 0 0 1 3.012 6.087l-41.015-41.03-.009-.074a9.692 9.692 0 0 0 13.075-.71 3.876 3.876 0 0 1 5.538 0 9.691 9.691 0 0 0 13.175.626 3.033 3.033 0 0 1 .8-.519 48.335 48.335 0 0 0-1.234 10.563 46.728 46.728 0 0 0 6.659 25.058"/>
        </clipPath>
        <clipPath id="2d3bb35d-42a4-485a-8954-d16911bc7b38">
            <path class="84e05b37-bce2-48bc-b2a1-c4fae6d53ba6" d="M54.693 168.202h23.265v46.544H54.693z"/>
        </clipPath>
        <clipPath id="058a5a28-bb6a-468a-8cf9-3b7456277ab2">
            <path class="0f1b560c-274c-4219-a9ec-5f2642e416c7" d="M71.74 214.746l-9.008-9.01 3.367-26.126-7.528-7.531 3.877-3.877h15.51v46.544H71.74z"/>
        </clipPath>
        <clipPath id="166ea2c3-2a2c-4ac1-ac97-87b539bc7595">
            <path class="0f1b560c-274c-4219-a9ec-5f2642e416c7" d="M63.454 104.642l6.749 1.5c2.085.464 3.878 1.941 3.878 5.819v21.333h-2.215l-9.418-9.422-7.663-7.664a21.388 21.388 0 0 0 8.669-11.565"/>
        </clipPath>
        <clipPath id="e1e051aa-6939-4f4a-b69b-5bcaea073e8d">
            <path class="0f1b560c-274c-4219-a9ec-5f2642e416c7" d="M43.061 64.447a2.908 2.908 0 0 0-2.908 2.909 7.27 7.27 0 1 1-14.541 0v-2.913H22.7a.966.966 0 0 1 0-1.933h12.6a4.841 4.841 0 0 1 3.875 1.939 4.837 4.837 0 0 1 3.88-1.942v1.94zm-7.755 0h-7.755v2.909a5.331 5.331 0 1 0 10.663 0 2.919 2.919 0 0 0-2.908-2.909z"/>
        </clipPath>
        <clipPath id="0784aeaa-8920-4ef2-8161-91c9fa19acff">
            <path class="0f1b560c-274c-4219-a9ec-5f2642e416c7" d="M42.1 67.355a.965.965 0 1 1 1.931 0v3.879a.97.97 0 0 1-.965.97h-1.944a.971.971 0 0 0 0 1.943h1.939a.966.966 0 0 1 0 1.932h-1.939a2.909 2.909 0 0 1 0-5.819h.978v-2.905z"/>
        </clipPath>
        <clipPath id="35bc1b11-9eac-45c5-8f4e-dfba94f05a1a">
            <path class="0f1b560c-274c-4219-a9ec-5f2642e416c7" d="M62.449 205.049a.969.969 0 1 0 1.938 0v-3.879a.97.97 0 1 1 1.939 0v5.819a.969.969 0 0 0 1.938.011v.957a.97.97 0 1 0 1.939 0v-.969a.969.969 0 0 0 1.938 0v-2.91a.97.97 0 1 0 1.939 0v-70.785H63.1l1.289 15.515v38.786l-.709 1.422a11.132 11.132 0 0 0-1.229 5.2v10.829z"/>
        </clipPath>
        <clipPath id="369a9336-b505-40aa-88bf-3767693bdc2e">
            <path class="0f1b560c-274c-4219-a9ec-5f2642e416c7" d="M23.674 205.049a.969.969 0 1 1-1.938 0v-3.879a.97.97 0 1 0-1.939 0v5.819a.97.97 0 0 1-1.939.011v.957a.969.969 0 1 1-1.938 0v-.969a.969.969 0 0 1-1.938 0v-2.91a.97.97 0 1 1-1.939 0v-70.785h10.982l-1.29 15.515v38.786l.711 1.422a11.132 11.132 0 0 1 1.229 5.2v10.829z"/>
        </clipPath>
        <clipPath id="1be4f69c-0179-4a94-8ea4-68b7d1a76e15">
            <path class="84e05b37-bce2-48bc-b2a1-c4fae6d53ba6" d="M12.042 183.716h5.816v3.879h-5.816z"/>
        </clipPath>
        <clipPath id="283a524c-7fb9-42ac-aacf-2c0955267b14">
            <path class="84e05b37-bce2-48bc-b2a1-c4fae6d53ba6" d="M17.857 183.716h3.878v3.879h-3.878z"/>
        </clipPath>
        <clipPath id="04f1236e-16b4-4bcb-99f4-021dd0a83a6d">
            <path class="0f1b560c-274c-4219-a9ec-5f2642e416c7" d="M16.888 181.777a3.879 3.879 0 1 1-3.878 3.878 3.878 3.878 0 0 1 3.878-3.878"/>
        </clipPath>
        <clipPath id="1814fb00-27e2-45e4-8320-1538235b3cda">
            <path class="0f1b560c-274c-4219-a9ec-5f2642e416c7" d="M16.888 183.716a1.939 1.939 0 1 1-1.938 1.939 1.938 1.938 0 0 1 1.938-1.939"/>
        </clipPath>
        <clipPath id="992eb799-e354-43e7-af1b-8cb2b5178070">
            <path class="0f1b560c-274c-4219-a9ec-5f2642e416c7" d="M58.57 103.557l3.878.861v67.662H58.57v-68.523z"/>
        </clipPath>
    </defs>
    <title>
        people-originals
    </title>
    <path class="9ec8c2cc-b32a-4be6-8668-a9ceea33e37c 88519df8-668e-4c40-af7a-1a7d8cd27588" d="M11.306 167.467h63.511V306.63H11.306z"/>
    <path class="d1c6f385-98c2-441e-8df5-654dd8fa6e42 b0c52038-d8de-40fd-9ada-d803a0b574bd" d="M39.818 195.185h30.255V306.63H39.818z"/>
    <path class="c9816537-02d6-4a3d-84f7-0a5379dab3b0 a877549e-e0df-43dd-93ce-ed010e0ba519" d="M9.367 299.341h38.308v13.107H9.367z"/>
    <path class="21a1462e-0327-4eb6-93cf-1df8c4dd28e6 4d3a9665-cefb-4a57-afde-8d7f8176e2cb" d="M9.367 291.894h38.308v16.675H9.367z"/>
    <path class="b5ff01e0-6fa9-450c-b222-a706818f4e8d 07e34bc0-67ef-4e77-812b-d407f9f159fe" d="M38.447 299.341h38.309v13.107H38.447z"/>
    <path class="27db11e5-6223-4fe0-b0be-cbcc5c6bca0c 3e6384b2-c11b-44a3-b7fa-2e15c88e16e7" d="M38.447 291.894h38.309v16.675H38.447z"/>
    <path class="44b50e6c-e4f2-4565-b946-3ea4db93949e 88519df8-668e-4c40-af7a-1a7d8cd27588" d="M15.183 31.712H70.94v80.422H15.183z"/>
    <path class="c0dba0cd-74ca-49a7-9799-731df64e20a6 b0c52038-d8de-40fd-9ada-d803a0b574bd" d="M38.447 31.713H70.94v80.422H38.447z"/>
    <path class="0cfff607-2540-4ada-b300-c4bdc8236589 4e53103a-baee-44df-acd4-458363e59e92" d="M16.156 82.136h53.81v44.135h-53.81z"/>
    <path class="34aa5216-98e2-4496-9c1d-d004d553499c 94eb8394-ad81-4ecf-8dcf-b7bd56508304" d="M28.753 86.152h41.213v36.065H28.753z"/>
    <path class="c7c0a5ac-51c2-492f-b664-ec461c7da60b 94eb8394-ad81-4ecf-8dcf-b7bd56508304" d="M53.957 58.863H70.94v16.985H53.957z"/>
    <path class="bde9c1c7-9c7e-4eee-a4ef-602452061ff5 7ecbd40b-c4c9-47cf-955b-31446985084b" d="M55.897 60.802h13.104V73.91H55.897z"/>
    <path class="0b2f290e-7346-4dd5-b8d5-6b302f5b3c27 4e53103a-baee-44df-acd4-458363e59e92" d="M15.183 58.863h16.983v16.985H15.183z"/>
    <path class="8383a476-03ef-4365-aa38-4dbd5dba2e92 7ecbd40b-c4c9-47cf-955b-31446985084b" d="M17.122 60.802h13.104V73.91H17.122z"/>
    <path class="3af30beb-12ef-49bb-954a-63a24e4d3c35 4e53103a-baee-44df-acd4-458363e59e92" d="M19.06 54.984h48.002v46.076H19.06z"/>
    <path class="42737551-83f5-4fe5-b2e3-731e555a6ad1 94eb8394-ad81-4ecf-8dcf-b7bd56508304" d="M19.06 54.984h48.002v41.313H19.06z"/>
    <path class="a49d9f1b-53a3-4eaa-a49f-c294de981c48 b0c52038-d8de-40fd-9ada-d803a0b574bd" d="M30.692 74.377H55.43v16.017H30.692z"/>
    <path class="ecb489b8-1377-4942-8b90-9fe15488378e 17d7aa49-0535-4e13-95a5-d66b0d5ba76e" d="M34.691 80.196h16.74v11.168h-16.74z"/>
    <path class="8b794b9e-d3bc-4f2c-acfc-e8234703cb53 a877549e-e0df-43dd-93ce-ed010e0ba519" d="M32.631 74.377h20.86v11.168h-20.86z"/>
    <path class="9e124937-51da-45ed-909b-73a85034fe58 a18a1cfc-9106-4e29-af11-c55da640e356" d="M37.479 57.893h31.52v21.35h-31.52z"/>
    <path class="3cdfae7a-3fe1-406b-a959-a31e65431a8d b0c52038-d8de-40fd-9ada-d803a0b574bd" d="M23.516 61.266h17.593V73.4H23.516z"/>
    <path class="ccba1e0f-f489-4af7-bdbc-2b37ef62a33d b0c52038-d8de-40fd-9ada-d803a0b574bd" d="M45.014 61.266h17.593V73.4H45.014z"/>
    <path class="84efeca4-a4c4-4ffe-94a1-1af1340f6d63 119a84ef-be09-4987-ab20-74912f276818" d="M7.428 100.028h71.267v99.937H7.428z"/>
    <path class="a22c7c93-445d-4666-a9e0-bc16e05213e2 a18a1cfc-9106-4e29-af11-c55da640e356" d="M22.603 128.483h50.252v52.205H22.603z"/>
    <path class="151cd0b6-62d7-4cc3-a5c5-dee4c4054138 4d3a9665-cefb-4a57-afde-8d7f8176e2cb" d="M50.079 163.588h32.493v55.772H50.079z"/>
    <path class="59c55f4a-f460-4253-8a64-39392ae0bae3 3e6384b2-c11b-44a3-b7fa-2e15c88e16e7" d="M53.957 163.588h28.615v55.772H53.957z"/>
    <path class="6e32458d-515a-43f8-80f1-4f3b6c241f0c a18a1cfc-9106-4e29-af11-c55da640e356" d="M50.172 100.028h28.523v37.879H50.172z"/>
    <path class="7885baf9-44c8-4b8b-b7cb-8f85963c72b7 119a84ef-be09-4987-ab20-74912f276818" d="M17.125 57.893h30.55v21.35h-30.55z"/>
    <path class="17d2d473-d9d6-4542-9aca-2ad59c642ef2 7ecbd40b-c4c9-47cf-955b-31446985084b" d="M33.6 61.775h15.04v18.922H33.6z"/>
    <path class="c53b0666-a648-4552-8315-bc6d5586266e 4e53103a-baee-44df-acd4-458363e59e92" d="M57.835 128.679h20.86v84.863h-20.86z"/>
    <path class="d677648c-f662-4117-ba0d-2906c945f70b 4e53103a-baee-44df-acd4-458363e59e92" d="M7.427 128.679h20.86v84.863H7.427z"/>
    <path class="1141d6b3-cd9f-4249-b08d-6bc955e05b94 88519df8-668e-4c40-af7a-1a7d8cd27588" d="M7.428 179.102h15.044v13.107H7.428z"/>
    <path class="4b2b607e-515a-494a-9cfd-1f4f591187d6 b0c52038-d8de-40fd-9ada-d803a0b574bd" d="M13.243 179.102h13.105v13.107H13.243z"/>
    <path class="1c989eb0-6c2f-4112-932e-fc266f16e6b8 88519df8-668e-4c40-af7a-1a7d8cd27588" d="M8.397 177.163H25.38v16.985H8.397z"/>
    <path class="7d9b6fea-fbee-4398-8950-4e14bb09613f a877549e-e0df-43dd-93ce-ed010e0ba519" d="M10.336 179.102H23.44v13.107H10.336z"/>
    <path class="156556fa-b852-4eef-99e5-de9370ea9f94 3e6384b2-c11b-44a3-b7fa-2e15c88e16e7" d="M53.957 98.943h13.105v77.751H53.957z"/>
</svg>
