<svg id="fb14d011-2556-455c-80e5-482222df099a" data-name="6838c3e1-efa4-4623-9be6-c272a445ec4c" xmlns="http://www.w3.org/2000/svg" viewBox="0 0 90 340.16">
    <defs>
        <style>
            .\30 916ab9c-4419-4d15-805a-757bfe79dd79,.c0ac8b13-e05a-4efb-b726-edfed89b0562{fill:none}.\30 916ab9c-4419-4d15-805a-757bfe79dd79{clip-rule:evenodd}.\36 b35d0e3-5b24-47d6-bed2-e7dbbdbe50e8{clip-path:url(#e5c3505c-e853-435d-8aa2-a0eb0bc64960)}.\39 7f3b1e4-e6d2-479a-a5b1-3ed7f9cbb5b8{fill:#a77841}.a466883f-bdd4-48c3-a9cf-a90cc2e101d1{clip-path:url(#37bb01e1-8f4f-4bbb-aff5-a24c17b93192)}.\37 92f8123-05b9-48a5-8160-fb0cd8cabe64{fill:#653614}.\37 d985ea0-368f-452c-aa31-8b52f6e60c03{clip-path:url(#3a3fcc6b-0155-4c9f-93db-1daf69e5ea93)}.c0a921fe-97ae-4d25-bf35-fb44c9d6f3d4{fill:#3f2410}.\31 3f9b27f-88a9-4f66-a6ec-1a3eca7b952e{clip-path:url(#e61aaabb-e9c0-4c73-b0ab-83a99c686f49)}.\31 79240dd-6010-4ce2-aaac-0e9924e420c5{fill:#424f55}.b379346c-ef78-4e4e-b42e-9cfd18ff7230{clip-path:url(#8f393944-aaa7-476c-9b1f-fb5dc1718613)}.d70f6916-8962-4f07-adec-15a396dfa5a5{fill:#222c30}.afd0e1e2-db9f-4edc-9742-b68ff5abbe7a{clip-path:url(#4f3efb6d-0add-4219-821a-21f16d29215f)}.\37 b8fa7ea-a4f0-45bf-86b6-09fbde0c4d67{fill:#a4c4e7}.\31 3d119d4-ce6f-4c65-910f-28419e256773{clip-path:url(#3589fc0c-4acf-455b-b885-a680b1442ec3)}.\34 930c6c8-c7bc-4d28-87c6-d9eadd6ce4ce{fill:#c69155}.a07f09bd-7426-4ffb-a854-f8ca846fc731{clip-path:url(#f446c035-79b7-4747-9e67-0d4aacf982e9)}.\39 cfd8485-4a68-4943-adfe-755c3ad0cde4{clip-path:url(#9c75726e-0f2f-478f-9e0b-5dce93c8735a)}.\37 e94631a-1df9-4069-b751-3c9e9c166f2a{fill:#e7b174}.\34 dea15ad-e612-45bd-acca-f6095cc151aa{clip-path:url(#0f37d5ee-a374-4ce7-ad71-e37976e8af2d)}.\36 cd7f34e-869d-4733-b020-ab7f971146f8{clip-path:url(#6aeecc61-ed2f-4a78-a0f1-e12342d9e68b)}.\33 1070ebf-dea4-4de6-a28b-538379b98b38{clip-path:url(#6bbd8aa1-265b-41b0-b651-aba4d0adc89e)}.\35 396fbfc-d92e-4a77-ac93-8e23e1ad6217{clip-path:url(#992887bf-c8d3-40c8-a10a-e0ce312083df)}.f9dd54eb-b82e-4c6f-adaa-96fa56904a4c{fill:#fff}.b3278638-9d33-48c9-92cd-a3dee60a39db{clip-path:url(#f4c18e9c-9fa6-48a9-b761-add1dcbf41b3)}.c4d74a39-dd53-4eae-8fda-a4da8ce3a043{fill:#e5e5e4}.\31 2e02cb4-8546-4f3d-9638-798dd7d7f56e{clip-path:url(#85a7914f-3a16-45bd-90a0-5ae26e61df0f)}.\39 6ec59c5-5450-4461-b09a-ddea23749a9c{fill:#41494d}.b0db64dc-79c4-461a-b09d-944f3fb50a01{clip-path:url(#b13bcd4b-802f-4299-9ec6-c0ca9d217102)}.eb2d7075-2997-459d-b514-79628a0b0e57{clip-path:url(#5747ce34-7a2d-471a-8fc7-fe6df75ea57e)}.fa452d2a-e6e2-4f6b-914e-ec176a84ba5f{clip-path:url(#812eb1fc-d1ce-4e7c-8d3a-dab20b896e33)}.\38 d5857ce-ab54-4500-ac00-d445a9099308{clip-path:url(#93c53207-1591-4a8d-aea3-a8bdf028a892)}.\36 6c313f2-0633-4d91-b964-67b9ef8d192b{clip-path:url(#897ce50d-eeaa-499d-a641-933f1336b13d)}.c98dd7c0-0525-4da6-b65a-c45c2ff36696{clip-path:url(#dc25e6f0-f49a-44d8-9f12-a218c37e2878)}.d9998a75-7818-4699-bce9-7896311062bb{clip-path:url(#66b41785-68b9-446c-827e-691df481e203)}.\34 ccbf710-0b56-4e7f-bc48-50f0a6093e6b{clip-path:url(#5e59f36d-d053-4e5d-924f-d112dbbdec80)}.a4541373-eaa1-4508-9074-79976f5dc1c4{clip-path:url(#25cfa788-bb95-4fe5-94fe-9bdc13ab85ee)}.\31 0ff22e9-bb64-4002-a88d-d58cc38cb8be{clip-path:url(#81490c21-2db3-4cb7-9cdf-3d9937fb69d4)}.c162caf9-8805-4078-bed9-cf34027d52fe{clip-path:url(#b5a80bb9-92d9-48d1-9e9c-6081a56403e8)}.\35 1672820-0101-4188-a3d9-26e570b1639e{clip-path:url(#25d37127-aab9-4f57-b2a3-5bd07d80227e)}.\35 c9b4de5-5726-469a-8fc9-99ae034d0441{clip-path:url(#ad5748ae-9863-452a-973e-ffd32f10214a)}.\39 4555cef-5370-4dfb-85f0-3898d45ed0b4{clip-path:url(#12eacb17-d3f3-46bb-995a-963414db3e11)}.a38226c2-952f-47f4-b766-f8969dfed8a2{fill:#c93827}.\32 363a0e6-3f35-4a3a-92b9-9755c05a76eb{clip-path:url(#41db2a39-2b76-4ec3-b2d9-c7b8b43bb0f7)}.e58e0ad2-7ae5-46c4-bb64-1837d9049a66{fill:#971b1e}.b3731ffc-1903-4823-9402-598abf94b661{clip-path:url(#d4107a94-6e9b-4073-b68b-2b8312065c8e)}.\39 716d764-ff11-45de-82de-df230f87dd5d{fill:#77878e}.\34 ad05283-5308-4fa8-bc73-e6cb8131802b{clip-path:url(#90709d05-5050-4ffc-ac92-d2430f85753a)}.\33 da51bb2-c036-4503-a591-bb9904ce7923{fill:#9fb2b9}.b55c1a2d-1193-41b4-a9fe-d6d2356a3a6f{clip-path:url(#a10bf0db-a254-4942-8450-fc53e15c8f83)}.c3642a98-51b3-4e1c-a260-083325b6868f{clip-path:url(#81e866c0-c22e-4380-b904-09a38fceecb6)}.eead6041-c8a4-45b2-ad16-450a0aba0ca5{clip-path:url(#a22a0285-6b4c-4396-8fef-70e6f09a3e4e)}.\37 02a6aab-3503-42ce-ab4e-8c4d2db26be2{clip-path:url(#0a02eca5-a7bf-4b80-bfd2-409ba53f8b75)}.ae550ef1-0d94-47d3-9e71-ea5bf6f78aa9{clip-path:url(#a22a12cf-34e7-48c5-b39f-352acd8449a9)}.ebaabd85-4798-4b77-a683-23668b98f1e6{clip-path:url(#74b661d4-6573-4081-b095-ff6e4056b7fd)}.b570770e-b287-43a7-b384-176509282a3c{fill:#789bc7}.c04fd312-de26-408c-ad02-71904d36aa3c{clip-path:url(#64ff77d5-39d8-4329-ba50-d9fae3a1944e)}.\30 1f62a2d-19f7-4201-aa75-cc833e2de2c8{clip-path:url(#73bb1bd7-13df-442e-8902-9c7e423a926c)}.c038d8b0-30c1-491c-a8bc-64bda1a70921{clip-path:url(#672126b0-6eeb-4b5c-8f56-79e89b89a675)}.daa30922-1e5a-451d-a30d-515863fca41b{clip-path:url(#74fb5c07-9ea2-413e-9cb1-71958650e5a3)}.\32 296495d-7e5a-422b-bc2c-a07ed79f41c7{clip-path:url(#b5bab5f6-f9c2-4b6e-9f84-4b0b8943b7c6)}.\33 607e487-baa4-473c-adb7-960e4765395e{clip-path:url(#bda8c82e-7d03-43d7-885a-48b037f3761e)}.\35 a756684-1bec-4806-9d6c-f290deb5fd66{clip-path:url(#1473b543-027c-4083-9571-f52b26c0dda0)}.db7caee6-29ac-45ed-8f2d-27feb6cbdd8e{clip-path:url(#73487113-9eca-4fef-9181-ee1ee9bf8d64)}.c3ed1863-f8dc-4699-a821-1004014f7908{clip-path:url(#45dfa25c-3ab1-41f3-83e4-421ba4952ac3)}.a74118cf-ab8c-48d0-8092-0fba293199d2{clip-path:url(#159a68b3-ad96-476f-8316-0d34125725e4)}.\38 7a1c180-dc4f-4938-b004-7a800083e94a{clip-path:url(#1159fa3c-357c-4dfc-9a87-dd3e36a8c165)}.\32 1e9f2e4-c4c6-4e34-9d44-d9142e5c6bff{clip-path:url(#c65c63a2-4282-4dad-9ba9-f0a8ea0a43b6)}.\35 a22e015-4a55-4211-9a93-bfe1892a46eb{clip-path:url(#41dd632a-c143-48d5-9f92-0c65f793167d)}
        </style>
        <clipPath id="e5c3505c-e853-435d-8aa2-a0eb0bc64960">
            <path class="c0ac8b13-e05a-4efb-b726-edfed89b0562" d="M33.368 86.749h23.264v27.152H33.368z"/>
        </clipPath>
        <clipPath id="37bb01e1-8f4f-4bbb-aff5-a24c17b93192">
            <path class="0916ab9c-4419-4d15-805a-757bfe79dd79" d="M25.613 67.355a3.876 3.876 0 0 1-3.876-3.879 3.879 3.879 0 0 0 3.876-3.876h3.879v11.633a3.878 3.878 0 1 1-7.755 0 3.877 3.877 0 0 0 3.876-3.878"/>
        </clipPath>
        <clipPath id="3a3fcc6b-0155-4c9f-93db-1daf69e5ea93">
            <path class="0916ab9c-4419-4d15-805a-757bfe79dd79" d="M64.387 67.355a3.878 3.878 0 0 0 3.879-3.879 3.879 3.879 0 0 1-3.879-3.876h-3.876v11.633a3.878 3.878 0 1 0 7.755 0 3.877 3.877 0 0 1-3.879-3.878"/>
        </clipPath>
        <clipPath id="e61aaabb-e9c0-4c73-b0ab-83a99c686f49">
            <path class="0916ab9c-4419-4d15-805a-757bfe79dd79" d="M10.1 139.111V113.9c0-3.878 1.967-4.864 3.879-5.818l19.385-9.7a11.632 11.632 0 1 0 23.264 0l19.389 9.7c1.908.954 3.879 1.941 3.879 5.818v25.212h-11.63v52.362H21.737v-52.363H10.1z"/>
        </clipPath>
        <clipPath id="8f393944-aaa7-476c-9b1f-fb5dc1718613">
            <path class="0916ab9c-4419-4d15-805a-757bfe79dd79" d="M36.9 106.737a11.631 11.631 0 0 0 19.731-8.353l19.388 9.7c1.908.954 3.879 1.941 3.879 5.819v25.21H68.265v40.727H56.633l-7.755-7.756 7.755-45.606z"/>
        </clipPath>
        <clipPath id="4f3efb6d-0add-4219-821a-21f16d29215f">
            <path class="0916ab9c-4419-4d15-805a-757bfe79dd79" d="M33.368 98.385a11.648 11.648 0 0 0 7.755 10.974v62.721H21.736v-33.1a24.9 24.9 0 0 0 3.876-13.439v-11.62a7.748 7.748 0 0 0-7.754-7.774z"/>
        </clipPath>
        <clipPath id="3589fc0c-4acf-455b-b885-a680b1442ec3">
            <path class="0916ab9c-4419-4d15-805a-757bfe79dd79" d="M64.387 63.476a3.879 3.879 0 1 0 3.879 3.879 3.879 3.879 0 0 0-3.879-3.879"/>
        </clipPath>
        <clipPath id="f446c035-79b7-4747-9e67-0d4aacf982e9">
            <path class="0916ab9c-4419-4d15-805a-757bfe79dd79" d="M64.387 65.415a1.939 1.939 0 1 0 1.939 1.94 1.939 1.939 0 0 0-1.939-1.94"/>
        </clipPath>
        <clipPath id="9c75726e-0f2f-478f-9e0b-5dce93c8735a">
            <path class="0916ab9c-4419-4d15-805a-757bfe79dd79" d="M25.613 63.476a3.879 3.879 0 1 0 3.879 3.879 3.877 3.877 0 0 0-3.879-3.879"/>
        </clipPath>
        <clipPath id="0f37d5ee-a374-4ce7-ad71-e37976e8af2d">
            <path class="0916ab9c-4419-4d15-805a-757bfe79dd79" d="M25.613 65.415a1.939 1.939 0 1 0 1.939 1.94 1.941 1.941 0 0 0-1.939-1.94"/>
        </clipPath>
        <clipPath id="6aeecc61-ed2f-4a78-a0f1-e12342d9e68b">
            <path class="0916ab9c-4419-4d15-805a-757bfe79dd79" d="M45 40.2c10.664 0 18.416 8.728 18.416 19.394v19.397c0 10.666-7.754 19.393-18.416 19.393s-18.417-8.726-18.417-19.393V59.6c0-10.669 7.754-19.4 18.417-19.4"/>
        </clipPath>
        <clipPath id="6bbd8aa1-265b-41b0-b651-aba4d0adc89e">
            <path class="0916ab9c-4419-4d15-805a-757bfe79dd79" d="M45 40.2c10.664 0 18.416 8.728 18.416 19.394v19.397a20.048 20.048 0 0 1-4.979 13.444L26.583 60.567V59.6c0-10.669 7.754-19.4 18.417-19.4"/>
        </clipPath>
        <clipPath id="992887bf-c8d3-40c8-a10a-e0ce312083df">
            <path class="0916ab9c-4419-4d15-805a-757bfe79dd79" d="M35.307 63.476a3.879 3.879 0 1 1-3.879 3.879 3.877 3.877 0 0 1 3.879-3.879"/>
        </clipPath>
        <clipPath id="f4c18e9c-9fa6-48a9-b761-add1dcbf41b3">
            <path class="0916ab9c-4419-4d15-805a-757bfe79dd79" d="M54.7 63.476a3.879 3.879 0 1 1-3.879 3.879 3.879 3.879 0 0 1 3.879-3.879"/>
        </clipPath>
        <clipPath id="85a7914f-3a16-45bd-90a0-5ae26e61df0f">
            <path class="0916ab9c-4419-4d15-805a-757bfe79dd79" d="M35.307 65.415a1.939 1.939 0 1 1-1.939 1.94 1.941 1.941 0 0 1 1.939-1.94"/>
        </clipPath>
        <clipPath id="b13bcd4b-802f-4299-9ec6-c0ca9d217102">
            <path class="0916ab9c-4419-4d15-805a-757bfe79dd79" d="M25.613 57.659h1.939v17.454a3.879 3.879 0 0 0 3.876 3.879 13.57 13.57 0 0 0 23.99 8.7l9.155 9.156a3.863 3.863 0 0 1-2.626 1.509 3.885 3.885 0 0 1-4.751 1.717 3.878 3.878 0 0 1-5.315 1.735 3.263 3.263 0 0 1-3 1.426h-7.758a3.869 3.869 0 0 1-3-1.426 3.878 3.878 0 0 1-5.315-1.735 3.882 3.882 0 0 1-4.748-1.717 3.876 3.876 0 0 1-3.412-3.849 3.88 3.88 0 0 0 3.535-2.283 3.879 3.879 0 0 1-5.483-3.537 3.879 3.879 0 0 0 3.38-1.968 3.8 3.8 0 0 1-.467.029 3.877 3.877 0 0 1-3.876-3.879 3.847 3.847 0 0 0 1.937-.519 3.876 3.876 0 0 1-1.937-3.359 3.847 3.847 0 0 0 1.937-.519 3.876 3.876 0 0 1-1.937-3.359 3.876 3.876 0 0 0 3.876-3.866V57.659z"/>
        </clipPath>
        <clipPath id="5747ce34-7a2d-471a-8fc7-fe6df75ea57e">
            <path class="0916ab9c-4419-4d15-805a-757bfe79dd79" d="M54.6 88.591a13.543 13.543 0 0 0 3.974-9.6 3.879 3.879 0 0 0 3.879-3.879V57.659h1.936v13.588a3.882 3.882 0 0 0 3.879 3.866 3.878 3.878 0 0 1-1.939 3.359 3.86 3.86 0 0 0 1.939.519 3.878 3.878 0 0 1-1.939 3.359 3.872 3.872 0 0 0 1.939.518 3.878 3.878 0 0 1-3.879 3.879 3.82 3.82 0 0 1-.467-.027 3.879 3.879 0 0 0 3.378 1.968 3.878 3.878 0 0 1-5.473 3.536 3.877 3.877 0 0 0 3.534 2.283 3.888 3.888 0 0 1-1.662 3.184z"/>
        </clipPath>
        <clipPath id="812eb1fc-d1ce-4e7c-8d3a-dab20b896e33">
            <path class="0916ab9c-4419-4d15-805a-757bfe79dd79" d="M54.7 65.415a1.939 1.939 0 1 1-1.939 1.94 1.938 1.938 0 0 1 1.939-1.94"/>
        </clipPath>
        <clipPath id="93c53207-1591-4a8d-aea3-a8bdf028a892">
            <path class="0916ab9c-4419-4d15-805a-757bfe79dd79" d="M33.368 66.385a.969.969 0 1 1-.97.97.969.969 0 0 1 .97-.97"/>
        </clipPath>
        <clipPath id="897ce50d-eeaa-499d-a641-933f1336b13d">
            <path class="0916ab9c-4419-4d15-805a-757bfe79dd79" d="M64.387 59.035V51.84a15.558 15.558 0 0 0-15.51-15.514h-7.754a15.559 15.559 0 0 0-15.51 15.514v7.194a58.34 58.34 0 0 1 38.774 0"/>
        </clipPath>
        <clipPath id="dc25e6f0-f49a-44d8-9f12-a218c37e2878">
            <path class="0916ab9c-4419-4d15-805a-757bfe79dd79" d="M64.387 59.035V51.84a15.558 15.558 0 0 0-15.51-15.514H45v19.393a58.026 58.026 0 0 1 19.385 3.316"/>
        </clipPath>
        <clipPath id="66b41785-68b9-446c-827e-691df481e203">
            <path class="0916ab9c-4419-4d15-805a-757bfe79dd79" d="M52.756 66.385a.969.969 0 1 1-.97.97.972.972 0 0 1 .97-.97"/>
        </clipPath>
        <clipPath id="5e59f36d-d053-4e5d-924f-d112dbbdec80">
            <path class="0916ab9c-4419-4d15-805a-757bfe79dd79" d="M35.3 78.979h1.948a1.947 1.947 0 0 0 1.939-1.932 2.071 2.071 0 0 1 1.931-1.932l5.818 1.929v3.869A2.911 2.911 0 0 1 45 80.177a2.914 2.914 0 0 1-1.939.734h-7.763a2.895 2.895 0 0 1-2.9-2.892.97.97 0 1 1 1.939 0 .95.95 0 0 0 .961.957"/>
        </clipPath>
        <clipPath id="25cfa788-bb95-4fe5-94fe-9bdc13ab85ee">
            <path class="0916ab9c-4419-4d15-805a-757bfe79dd79" d="M41.123 75.113h7.76a2.076 2.076 0 0 1 1.934 1.932 1.942 1.942 0 0 0 1.939 1.933H54.7a.947.947 0 0 0 .958-.957.97.97 0 1 1 1.939 0 2.886 2.886 0 0 1-2.9 2.894h-7.779z"/>
        </clipPath>
        <clipPath id="81490c21-2db3-4cb7-9cdf-3d9937fb69d4">
            <path class="0916ab9c-4419-4d15-805a-757bfe79dd79" d="M40.361 62.833a.966.966 0 1 1-1.439 1.288 4.856 4.856 0 0 0-7.23 0 .966.966 0 1 1-1.439-1.288 6.769 6.769 0 0 1 10.107 0"/>
        </clipPath>
        <clipPath id="b5a80bb9-92d9-48d1-9e9c-6081a56403e8">
            <path class="0916ab9c-4419-4d15-805a-757bfe79dd79" d="M59.749 62.833a.966.966 0 0 1-1.439 1.288 4.86 4.86 0 0 0-7.233 0 .964.964 0 1 1-1.435-1.288 6.769 6.769 0 0 1 10.107 0"/>
        </clipPath>
        <clipPath id="25d37127-aab9-4f57-b2a3-5bd07d80227e">
            <path class="0916ab9c-4419-4d15-805a-757bfe79dd79" d="M43.062 71.233a1.939 1.939 0 0 0 0 3.879h5.816L45 71.233h-1.938z"/>
        </clipPath>
        <clipPath id="ad5748ae-9863-452a-973e-ffd32f10214a">
            <path class="0916ab9c-4419-4d15-805a-757bfe79dd79" d="M44.035 67.355a.965.965 0 1 1 1.931 0v3.878A.967.967 0 0 1 45 72.2h-1.938a.972.972 0 0 0 0 1.944H45a.966.966 0 0 1 0 1.931h-1.939a2.909 2.909 0 1 1 0-5.818h.972v-2.902z"/>
        </clipPath>
        <clipPath id="12eacb17-d3f3-46bb-995a-963414db3e11">
            <path class="0916ab9c-4419-4d15-805a-757bfe79dd79" d="M45 36.326A15.557 15.557 0 0 0 29.492 51.84v5.975A58.14 58.14 0 0 1 45 55.719l3.876-7.756z"/>
        </clipPath>
        <clipPath id="41db2a39-2b76-4ec3-b2d9-c7b8b43bb0f7">
            <path class="0916ab9c-4419-4d15-805a-757bfe79dd79" d="M45 36.326v19.393a58.177 58.177 0 0 1 15.51 2.1V51.84A15.559 15.559 0 0 0 45 36.326"/>
        </clipPath>
        <clipPath id="d4107a94-6e9b-4073-b68b-2b8312065c8e">
            <path class="0916ab9c-4419-4d15-805a-757bfe79dd79" d="M45 54.749a59.447 59.447 0 0 1 10.014.849 58.68 58.68 0 0 1 9.694 2.525.967.967 0 1 1-.642 1.825A57.089 57.089 0 0 0 45 56.688l-.97-.97z"/>
        </clipPath>
        <clipPath id="90709d05-5050-4ffc-ac92-d2430f85753a">
            <path class="0916ab9c-4419-4d15-805a-757bfe79dd79" d="M25.935 59.948a.968.968 0 0 1-.644-1.826A59.094 59.094 0 0 1 45 54.75v1.939a57.476 57.476 0 0 0-9.688.819 56.842 56.842 0 0 0-9.378 2.441"/>
        </clipPath>
        <clipPath id="a10bf0db-a254-4942-8450-fc53e15c8f83">
            <path class="0916ab9c-4419-4d15-805a-757bfe79dd79" d="M21.737 179.837h46.528v41.9L46.938 201.17a1.938 1.938 0 1 0-3.876 0l-7.754 91.15H21.737V179.837z"/>
        </clipPath>
        <clipPath id="81e866c0-c22e-4380-b904-09a38fceecb6">
            <path class="0916ab9c-4419-4d15-805a-757bfe79dd79" d="M68.266 221.742v70.578H54.695l-7.756-91.15a2.255 2.255 0 0 0-.532-1.293z"/>
        </clipPath>
        <clipPath id="a22a0285-6b4c-4396-8fef-70e6f09a3e4e">
            <path class="0916ab9c-4419-4d15-805a-757bfe79dd79" d="M56.632 179.837h11.634v11.637l-11.634-11.637z"/>
        </clipPath>
        <clipPath id="0a02eca5-a7bf-4b80-bfd2-409ba53f8b75">
            <path class="0916ab9c-4419-4d15-805a-757bfe79dd79" d="M21.737 212.806a.97.97 0 1 1-1.939 0v-3.879a.97.97 0 1 0-1.939 0v5.819a.97.97 0 0 1-1.939.013v.957a.968.968 0 1 1-1.937 0v-.97a.97.97 0 1 1-1.939 0v-2.909a.97.97 0 0 1-1.939 0v-72.726h11.632v73.695z"/>
        </clipPath>
        <clipPath id="a22a12cf-34e7-48c5-b39f-352acd8449a9">
            <path class="0916ab9c-4419-4d15-805a-757bfe79dd79" d="M56.632 98.385a11.648 11.648 0 0 1-7.755 10.974v62.721h19.389v-33.1a25.089 25.089 0 0 1-3.879-13.439v-11.62a7.752 7.752 0 0 1 7.755-7.774z"/>
        </clipPath>
        <clipPath id="74b661d4-6573-4081-b095-ff6e4056b7fd">
            <path class="0916ab9c-4419-4d15-805a-757bfe79dd79" d="M56.632 98.385a11.648 11.648 0 0 1-7.755 10.974v9.357l18.247 18.253a25.117 25.117 0 0 1-2.736-11.432v-11.62a7.752 7.752 0 0 1 7.755-7.774z"/>
        </clipPath>
        <clipPath id="64ff77d5-39d8-4329-ba50-d9fae3a1944e">
            <path class="0916ab9c-4419-4d15-805a-757bfe79dd79" d="M68.266 212.806a.97.97 0 1 0 1.939 0v-3.879a.968.968 0 1 1 1.937 0v5.819a.97.97 0 0 0 1.939.013v.957a.97.97 0 0 0 1.939 0v-.97a.97.97 0 1 0 1.939 0v-2.909a.968.968 0 1 0 1.936 0v-72.726H68.266v73.695z"/>
        </clipPath>
        <clipPath id="73bb1bd7-13df-442e-8902-9c7e423a926c">
            <path class="0916ab9c-4419-4d15-805a-757bfe79dd79" d="M68.266 212.806a.97.97 0 1 0 1.939 0v-3.879a.968.968 0 1 1 1.937 0v5.819a.97.97 0 0 0 1.939.013v.957a.97.97 0 0 0 1.939 0v-.97a.97.97 0 1 0 1.939 0v-2.909a.968.968 0 1 0 1.936 0v-8.728l-11.63-11.635v21.332z"/>
        </clipPath>
        <clipPath id="672126b0-6eeb-4b5c-8f56-79e89b89a675">
            <path class="0916ab9c-4419-4d15-805a-757bfe79dd79" d="M2.349 303.954h34.9v2.91a.974.974 0 0 1-.97.97H3.318a.973.973 0 0 1-.97-.97v-2.91z"/>
        </clipPath>
        <clipPath id="74fb5c07-9ea2-413e-9cb1-71958650e5a3">
            <path class="0916ab9c-4419-4d15-805a-757bfe79dd79" d="M35.327 290.38a.973.973 0 0 1 .97.97v1.939a.971.971 0 0 1-.428.8 47.586 47.586 0 0 1 1.37 9.862H2.349a3.666 3.666 0 0 1 2.639-3.675l11.489-2.553a6.952 6.952 0 0 0 4.463-3.914.967.967 0 0 1-.153-.523v-1.936a.972.972 0 0 1 .95-.97h13.59z"/>
        </clipPath>
        <clipPath id="b5bab5f6-f9c2-4b6e-9f84-4b0b8943b7c6">
            <path class="0916ab9c-4419-4d15-805a-757bfe79dd79" d="M36.144 295.3c.139.631.264 1.269.38 1.909a6.785 6.785 0 0 0-6.062 6.749h-1.94a8.722 8.722 0 0 1 7.621-8.658m-17.316 8.658h-1.938a2.905 2.905 0 0 0-2.907-2.909H3.554a3.063 3.063 0 0 1 1.434-.767l5.274-1.172h3.72a4.849 4.849 0 0 1 4.846 4.848"/>
        </clipPath>
        <clipPath id="bda8c82e-7d03-43d7-885a-48b037f3761e">
            <path class="c0ac8b13-e05a-4efb-b726-edfed89b0562" d="M10.104 189.534h5.816v3.879h-5.816z"/>
        </clipPath>
        <clipPath id="1473b543-027c-4083-9571-f52b26c0dda0">
            <path class="c0ac8b13-e05a-4efb-b726-edfed89b0562" d="M15.919 189.534h5.818v3.879h-5.818z"/>
        </clipPath>
        <clipPath id="73487113-9eca-4fef-9181-ee1ee9bf8d64">
            <path class="0916ab9c-4419-4d15-805a-757bfe79dd79" d="M15.919 187.594a3.879 3.879 0 1 1-3.876 3.879 3.879 3.879 0 0 1 3.876-3.879"/>
        </clipPath>
        <clipPath id="45dfa25c-3ab1-41f3-83e4-421ba4952ac3">
            <path class="0916ab9c-4419-4d15-805a-757bfe79dd79" d="M15.919 189.534a1.939 1.939 0 1 1-1.937 1.939 1.938 1.938 0 0 1 1.937-1.939"/>
        </clipPath>
        <clipPath id="159a68b3-ad96-476f-8316-0d34125725e4">
            <path class="0916ab9c-4419-4d15-805a-757bfe79dd79" d="M34.338 150.747a12.6 12.6 0 0 1-12.6 12.605v-1.939A10.665 10.665 0 0 0 32.4 150.747h1.939zm21.325 0a12.6 12.6 0 0 0 12.6 12.605v-1.939A10.665 10.665 0 0 1 57.6 150.747h-1.938z"/>
        </clipPath>
        <clipPath id="1159fa3c-357c-4dfc-9a87-dd3e36a8c165">
            <path class="0916ab9c-4419-4d15-805a-757bfe79dd79" d="M87.651 303.954h-34.9v2.91a.974.974 0 0 0 .97.97h32.963a.973.973 0 0 0 .967-.97v-2.91z"/>
        </clipPath>
        <clipPath id="c65c63a2-4282-4dad-9ba9-f0a8ea0a43b6">
            <path class="0916ab9c-4419-4d15-805a-757bfe79dd79" d="M54.676 290.38a.973.973 0 0 0-.97.97v1.939a.975.975 0 0 0 .425.8 47.592 47.592 0 0 0-1.37 9.862h34.89a3.664 3.664 0 0 0-2.636-3.675l-11.493-2.553a6.953 6.953 0 0 1-4.462-3.914.968.968 0 0 0 .155-.523v-1.936a.971.971 0 0 0-.95-.97H54.676z"/>
        </clipPath>
        <clipPath id="41dd632a-c143-48d5-9f92-0c65f793167d">
            <path class="0916ab9c-4419-4d15-805a-757bfe79dd79" d="M53.856 295.3a54.116 54.116 0 0 0-.378 1.909 6.785 6.785 0 0 1 6.062 6.749h1.941a8.729 8.729 0 0 0-7.625-8.658m17.316 8.658h1.939a2.912 2.912 0 0 1 2.909-2.909h10.426a3.068 3.068 0 0 0-1.431-.767l-5.276-1.172H76.02a4.849 4.849 0 0 0-4.849 4.848"/>
        </clipPath>
    </defs>
    <title>
        people-originals
    </title>
    <path class="6b35d0e3-5b24-47d6-bed2-e7dbbdbe50e8 97f3b1e4-e6d2-479a-a5b1-3ed7f9cbb5b8" d="M28.754 82.135h32.492v36.379H28.754z"/>
    <path class="a466883f-bdd4-48c3-a9cf-a90cc2e101d1 792f8123-05b9-48a5-8160-fb0cd8cabe64" d="M17.123 54.984h16.983v24.743H17.123z"/>
    <path class="7d985ea0-368f-452c-aa31-8b52f6e60c03 c0a921fe-97ae-4d25-bf35-fb44c9d6f3d4" d="M55.897 54.984H72.88v24.743H55.897z"/>
    <path class="13f9b27f-88a9-4f66-a6ec-1a3eca7b952e 179240dd-6010-4ce2-aaac-0e9924e420c5" d="M5.49 93.77h79.024v102.317H5.49z"/>
    <path class="b379346c-ef78-4e4e-b42e-9cfd18ff7230 d70f6916-8962-4f07-adec-15a396dfa5a5" d="M32.288 93.77h52.225v90.681H32.288z"/>
    <path class="afd0e1e2-db9f-4edc-9742-b68ff5abbe7a 7b8fa7ea-a4f0-45bf-86b6-09fbde0c4d67" d="M13.245 93.771h32.492v82.923H13.245z"/>
    <path class="13d119d4-ce6f-4c65-910f-28419e256773 4930c6c8-c7bc-4d28-87c6-d9eadd6ce4ce" d="M55.897 58.862H72.88v16.985H55.897z"/>
    <path class="a07f09bd-7426-4ffb-a854-f8ca846fc731 97f3b1e4-e6d2-479a-a5b1-3ed7f9cbb5b8" d="M57.836 60.801H70.94v13.107H57.836z"/>
    <path class="9cfd8485-4a68-4943-adfe-755c3ad0cde4 7e94631a-1df9-4069-b751-3c9e9c166f2a" d="M17.123 58.862h16.983v16.985H17.123z"/>
    <path class="4dea15ad-e612-45bd-acca-f6095cc151aa 4930c6c8-c7bc-4d28-87c6-d9eadd6ce4ce" d="M19.06 60.801h13.107v13.107H19.06z"/>
    <path class="6cd7f34e-869d-4733-b020-ab7f971146f8 7e94631a-1df9-4069-b751-3c9e9c166f2a" d="M21.969 35.59H68.03v67.407H21.969z"/>
    <path class="31070ebf-dea4-4de6-a28b-538379b98b38 4930c6c8-c7bc-4d28-87c6-d9eadd6ce4ce" d="M21.969 35.59H68.03v61.458H21.969z"/>
    <path class="5396fbfc-d92e-4a77-ac93-8e23e1ad6217 f9dd54eb-b82e-4c6f-adaa-96fa56904a4c" d="M26.815 58.862h16.983v16.985H26.815z"/>
    <path class="b3278638-9d33-48c9-92cd-a3dee60a39db c4d74a39-dd53-4eae-8fda-a4da8ce3a043" d="M46.203 58.862h16.983v16.987H46.203z"/>
    <path class="12e02cb4-8546-4f3d-9638-798dd7d7f56e 96ec59c5-5450-4461-b09a-ddea23749a9c" d="M28.754 60.801h13.107v13.107H28.754z"/>
    <path class="b0db64dc-79c4-461a-b09d-944f3fb50a01 792f8123-05b9-48a5-8160-fb0cd8cabe64" d="M17.123 53.045h52.065v54.802H17.123z"/>
    <path class="eb2d7075-2997-459d-b514-79628a0b0e57 c0a921fe-97ae-4d25-bf35-fb44c9d6f3d4" d="M49.984 53.045h22.895v49.26H49.984z"/>
    <path class="fa452d2a-e6e2-4f6b-914e-ec176a84ba5f 96ec59c5-5450-4461-b09a-ddea23749a9c" d="M48.142 60.801h13.104v13.107H48.142z"/>
    <path class="8d5857ce-ab54-4500-ac00-d445a9099308 f9dd54eb-b82e-4c6f-adaa-96fa56904a4c" d="M27.784 61.771h11.167v11.167H27.784z"/>
    <path class="66c313f2-0633-4d91-b964-67b9ef8d192b f9dd54eb-b82e-4c6f-adaa-96fa56904a4c" d="M20.999 31.712h48.002v31.936H20.999z"/>
    <path class="c98dd7c0-0525-4da6-b65a-c45c2ff36696 c4d74a39-dd53-4eae-8fda-a4da8ce3a043" d="M40.388 31.712h28.613v31.936H40.388z"/>
    <path class="d9998a75-7818-4699-bce9-7896311062bb f9dd54eb-b82e-4c6f-adaa-96fa56904a4c" d="M47.172 61.771h11.167v11.167H47.172z"/>
    <path class="4ccbf710-0b56-4e7f-bc48-50f0a6093e6b 792f8123-05b9-48a5-8160-fb0cd8cabe64" d="M27.785 70.499h23.77v15.029h-23.77z"/>
    <path class="a4541373-eaa1-4508-9074-79976f5dc1c4 c0a921fe-97ae-4d25-bf35-fb44c9d6f3d4" d="M36.509 70.499h25.707v15.03H36.509z"/>
    <path class="10ff22e9-bb64-4002-a88d-d58cc38cb8be c0a921fe-97ae-4d25-bf35-fb44c9d6f3d4" d="M25.393 55.953h19.829v13.103H25.393z"/>
    <path class="c162caf9-8805-4078-bed9-cf34027d52fe c0a921fe-97ae-4d25-bf35-fb44c9d6f3d4" d="M44.781 55.953h19.826v13.103H44.781z"/>
    <path class="51672820-0101-4188-a3d9-26e570b1639e 7e94631a-1df9-4069-b751-3c9e9c166f2a" d="M36.509 66.619h16.983v13.107H36.509z"/>
    <path class="5c9b4de5-5726-469a-8fc9-99ae034d0441 97f3b1e4-e6d2-479a-a5b1-3ed7f9cbb5b8" d="M35.539 61.775h15.04v18.92h-15.04z"/>
    <path class="94555cef-5370-4dfb-85f0-3898d45ed0b4 a38226c2-952f-47f4-b766-f8969dfed8a2" d="M24.878 31.712h28.613v30.717H24.878z"/>
    <path class="2363a0e6-3f35-4a3a-92b9-9755c05a76eb e58e0ad2-7ae5-46c4-bb64-1837d9049a66" d="M40.387 31.712h24.738v30.717H40.387z"/>
    <path class="b3731ffc-1903-4823-9402-598abf94b661 9716d764-ff11-45de-82de-df230f87dd5d" d="M39.418 50.136h30.553v14.481H39.418z"/>
    <path class="4ad05283-5308-4fa8-bc73-e6cb8131802b 3da51bb2-c036-4503-a591-bb9904ce7923" d="M20.032 50.136h29.583v14.481H20.032z"/>
    <path class="b55c1a2d-1193-41b4-a9fe-d6d2356a3a6f 792f8123-05b9-48a5-8160-fb0cd8cabe64" d="M17.123 175.223h55.756v121.711H17.123z"/>
    <path class="c3642a98-51b3-4e1c-a260-083325b6868f c0a921fe-97ae-4d25-bf35-fb44c9d6f3d4" d="M41.793 195.263H72.88v101.671H41.793z"/>
    <path class="eead6041-c8a4-45b2-ad16-450a0aba0ca5 c0a921fe-97ae-4d25-bf35-fb44c9d6f3d4" d="M52.018 175.223H72.88v20.864H52.018z"/>
    <path class="702a6aab-3503-42ce-ab4e-8c4d2db26be2 7e94631a-1df9-4069-b751-3c9e9c166f2a" d="M5.489 134.497h20.862v86.801H5.489z"/>
    <path class="ae550ef1-0d94-47d3-9e71-ea5bf6f78aa9 7b8fa7ea-a4f0-45bf-86b6-09fbde0c4d67" d="M44.263 93.771h32.493v82.923H44.263z"/>
    <path class="ebaabd85-4798-4b77-a683-23668b98f1e6 b570770e-b287-43a7-b384-176509282a3c" d="M44.263 93.771h32.493v47.812H44.263z"/>
    <path class="c04fd312-de26-408c-ad02-71904d36aa3c 4930c6c8-c7bc-4d28-87c6-d9eadd6ce4ce" d="M63.652 134.497h20.862v86.801H63.652z"/>
    <path class="01f62a2d-19f7-4201-aa75-cc833e2de2c8 7e94631a-1df9-4069-b751-3c9e9c166f2a" d="M63.652 186.86H84.51v34.438H63.652z"/>
    <path class="c038d8b0-30c1-491c-a8bc-64bda1a70921 f9dd54eb-b82e-4c6f-adaa-96fa56904a4c" d="M-2.265 299.34h44.126v13.108H-2.265z"/>
    <path class="daa30922-1e5a-451d-a30d-515863fca41b a38226c2-952f-47f4-b766-f8969dfed8a2" d="M-2.265 285.766h44.117v22.802H-2.265z"/>
    <path class="2296495d-7e5a-422b-bc2c-a07ed79f41c7 e58e0ad2-7ae5-46c4-bb64-1837d9049a66" d="M-1.06 290.683h42.198v17.885H-1.06z"/>
    <path class="3607e487-baa4-473c-adb7-960e4765395e 792f8123-05b9-48a5-8160-fb0cd8cabe64" d="M5.49 184.921h15.043v13.107H5.49z"/>
    <path class="5a756684-1bec-4806-9d6c-f290deb5fd66 c0a921fe-97ae-4d25-bf35-fb44c9d6f3d4" d="M11.305 184.921h15.046v13.107H11.305z"/>
    <path class="db7caee6-29ac-45ed-8f2d-27feb6cbdd8e 179240dd-6010-4ce2-aaac-0e9924e420c5" d="M7.429 182.98h16.983v16.985H7.429z"/>
    <path class="c3ed1863-f8dc-4699-a821-1004014f7908 f9dd54eb-b82e-4c6f-adaa-96fa56904a4c" d="M9.368 184.92h13.104v13.107H9.368z"/>
    <path class="a74118cf-ab8c-48d0-8092-0fba293199d2 b570770e-b287-43a7-b384-176509282a3c" d="M17.123 146.133H72.88v21.833H17.123z"/>
    <path class="87a1c180-dc4f-4938-b004-7a800083e94a c4d74a39-dd53-4eae-8fda-a4da8ce3a043" d="M48.142 299.34h44.123v13.108H48.142z"/>
    <path class="21e9f2e4-c4c6-4e34-9d44-d9142e5c6bff e58e0ad2-7ae5-46c4-bb64-1837d9049a66" d="M48.148 285.766h44.117v22.802H48.148z"/>
    <path class="5a22e015-4a55-4211-9a93-bfe1892a46eb 792f8123-05b9-48a5-8160-fb0cd8cabe64" d="M48.864 290.683h42.195v17.885H48.864z"/>
</svg>
