<svg width="100" height="100" viewBox="0 0 100 100" xmlns="http://www.w3.org/2000/svg" xmlns:xlink="http://www.w3.org/1999/xlink">
    <title>
        Avatar1
    </title>
    <defs>
        <circle id="a" cx="50" cy="50" r="50"/>
    </defs>
    <g fill="none" fill-rule="evenodd">
        <mask id="b" fill="#fff">
            <use xlink:href="#a"/>
        </mask>
        <use fill="#95AFAC" xlink:href="#a"/>
        <g mask="url(#b)">
            <path d="M75 84.55H25.46v-7.732c0-3.092 1.57-3.877 3.098-4.64l13.93-6.956v-8.505H57.97v8.505l13.933 6.957c1.525.76 3.097 1.546 3.097 4.638v7.732z" fill="#E8B274"/>
            <path d="M74.998 94.836l-9.288-9.278L42.488 62.36v-5.643H57.97v8.505l13.933 6.958c1.524.76 3.097 1.547 3.097 4.638l-.002 18.018z" fill="#C79256"/>
            <path d="M74.998 83.592c-.522.33-1.052.65-1.59.958H27.05a45.058 45.058 0 0 1-1.59-.958V76.82c0-3.094 1.57-3.878 3.095-4.64l13.933-6.96v-8.503H57.97v8.504l13.933 6.96c1.524.762 3.095 1.546 3.095 4.64v6.772z" fill="#FFD6CC"/>
            <path d="M74.998 83.592c-.522.33-1.052.65-1.59.958h-8.707L42.49 62.362v-5.645H57.97v8.504l13.933 6.96c1.524.762 3.095 1.546 3.095 4.64v6.772z" fill="#F8C0B2"/>
            <path d="M67.237 84.55c-2.953 5.83-4.624 12.538-4.624 18.557 0 8.296 1.93 14.097 5.32 19.98.884 1.537 1.703 3.116 2.365 4.762h-40.14c.665-1.647 1.486-3.226 2.37-4.763 3.39-5.883 5.316-11.684 5.316-19.98 0-6.02-1.67-12.726-4.622-18.557H25.46v-7.732c0-3.092 1.573-3.877 3.098-4.64l6.192-3.09L50.23 84.55l15.48-15.462 6.193 3.09c1.524.763 3.095 1.548 3.095 4.64v7.732h-7.76z" fill="#C30"/>
            <path d="M67.237 84.55c-.286.565-.56 1.137-.818 1.715l-8.953-8.942 8.244-8.235 6.193 3.09c1.524.763 3.095 1.548 3.095 4.64v7.732h-7.76zM63.6 94.685c-.645 2.85-.986 5.706-.986 8.422 0 8.296 1.93 14.097 5.318 19.98.885 1.536 1.703 3.117 2.367 4.762h-.056l-32.66-32.625-.005-.06a7.71 7.71 0 0 0 4.908 1.757 7.72 7.72 0 0 0 5.53-2.32 2.996 2.996 0 0 1 2.212-.93c.862 0 1.605.312 2.21.93a7.723 7.723 0 0 0 5.53 2.32c1.9 0 3.643-.687 4.992-1.823.137-.138.353-.277.637-.415" fill="#900"/>
            <path d="M59.52 75.273l3.094-3.094h9.29c1.23.615 2.49 1.245 2.932 3.093H59.52zm-6.194 6.186l3.095-3.095H75v3.094H53.326zm-27.7-6.187c.437-1.848 1.7-2.478 2.93-3.094h9.29l3.096 3.093H25.625zm-.166 6.186v-3.095h18.577l3.098 3.094H25.46zm41.68 40.204c.255.474.516.948.792 1.423.317.55.626 1.107.92 1.67H31.606c.297-.563.606-1.12.923-1.67.27-.475.536-.95.79-1.423h33.82zm-2.687-6.186a35.55 35.55 0 0 0 1.184 3.092H34.823a36.2 36.2 0 0 0 1.183-3.092h28.447zm-1.432-6.185c.15 1.068.34 2.096.57 3.092H36.87c.23-.996.417-2.024.568-3.092H63.02zm-.406-6.186c0 1.07.033 2.1.095 3.093H37.75c.064-.993.095-2.023.095-3.093h24.77zm.54-6.185a38.533 38.533 0 0 0-.398 3.092h-25.05a39.957 39.957 0 0 0-.403-3.092h25.852zm1.534-6.186a44.292 44.292 0 0 0-.887 3.093H36.66a44.825 44.825 0 0 0-.885-3.094h28.915zm2.55-6.186a43.723 43.723 0 0 0-1.414 3.094h-31.19a42.423 42.423 0 0 0-1.413-3.094h34.017z" fill="#FFF"/>
            <path d="M59.52 75.273l3.094-3.094h9.29c1.23.615 2.49 1.245 2.932 3.093H59.52zm2.087 6.186l-3.098-3.095h16.488v3.094h-13.39zm5.63 3.09a40.84 40.84 0 0 0-.82 1.715l-1.716-1.715h2.537zM49.23 93.83a3.15 3.15 0 0 1 1-.16c.352 0 .687.055.998.16H49.23zm-6.85 6.185l-3.097-3.093h23.872a38.533 38.533 0 0 0-.4 3.093H42.38zm6.19 6.185l-3.096-3.093h17.14c0 1.07.033 2.1.095 3.093H48.57zm6.194 6.185l-3.097-3.093h11.355c.148 1.07.34 2.097.568 3.093h-8.826zm6.192 6.185l-3.097-3.09h6.593c.348 1.054.744 2.08 1.184 3.09h-4.68zm6.193 6.186l-3.098-3.092h3.088c.255.474.516.948.792 1.423.317.55.626 1.107.92 1.67H67.15z" fill="#E6E6E6"/>
            <path d="M50.23 13.42c11.968 0 21.673 9.69 21.673 21.647V59.81L50.23 56.716c-11.824.12-21.672-9.73-21.672-21.65 0-11.956 9.702-21.648 21.67-21.648" fill="#FC0"/>
            <path d="M65.71 35.082a6.19 6.19 0 0 1 6.193 6.186c0 5.57 3.685 10.28 8.752 11.83a12.365 12.365 0 0 1-5.142 3.084 12.367 12.367 0 0 0 5.142 3.1 12.385 12.385 0 0 1-5.142 3.086 12.365 12.365 0 0 0 5.142 3.1 12.396 12.396 0 0 1-5.142 3.086 12.386 12.386 0 0 0 5.142 3.1 12.357 12.357 0 0 1-9.073 3.614c-7.974-.17-14.387-6.68-14.387-14.686 0-2.918.855-5.64 2.323-7.926V35.068l6.193.014z" fill="#BA9400"/>
            <path d="M34.75 38.16a3.095 3.095 0 0 0-3.097 3.093 3.095 3.095 0 0 0 3.097 3.093 3.094 3.094 0 0 0 3.095-3.093 3.094 3.094 0 0 0-3.095-3.093" fill="#FFD6CC"/>
            <path d="M65.71 38.16a3.095 3.095 0 0 0-3.096 3.093 3.095 3.095 0 0 0 3.097 3.093 3.093 3.093 0 1 0 0-6.186M34.75 39.706a1.548 1.548 0 1 0-.002 3.095 1.548 1.548 0 0 0 .002-3.094" fill="#F8C0B2"/>
            <path d="M65.71 35.082v13.903c0 8.504-6.966 15.463-15.48 15.463-8.516 0-15.48-6.958-15.48-15.463V35.068c0-5.045 2.45-9.543 6.22-12.37h12.34c3.427 0 6.202 2.77 6.202 6.19a6.196 6.196 0 0 0 6.2 6.194" fill="#FFD6CC"/>
            <path d="M65.71 35.082v2.565l-4.387-4.383h.002a6.174 6.174 0 0 0 4.386 1.818" fill="#F8C0B2"/>
            <path d="M42.488 38.16a3.095 3.095 0 0 1 3.098 3.093 3.095 3.095 0 0 1-3.098 3.093 3.094 3.094 0 0 1-3.095-3.093 3.094 3.094 0 0 1 3.095-3.093M57.97 38.16a3.095 3.095 0 0 1 3.097 3.093 3.096 3.096 0 0 1-3.097 3.094 3.094 3.094 0 1 1 0-6.187" fill="#FFF"/>
            <path d="M42.488 39.706a1.548 1.548 0 1 1 .002 3.095 1.548 1.548 0 0 1-.002-3.094M57.97 39.706c.854 0 1.55.693 1.55 1.547a1.548 1.548 0 0 1-3.1 0 1.55 1.55 0 0 1 1.55-1.547" fill="#424F54"/>
            <path d="M49.46 41.253a.77.77 0 1 1 1.54 0v3.093a.775.775 0 0 1-.77.773h-1.55a.774.774 0 0 0 0 1.55l1.55-.002a.77.77 0 1 1 0 1.54l-1.55.004a2.32 2.32 0 1 1 0-4.64h.78v-2.32z" fill="#B08C82"/>
            <path d="M40.942 40.48a.774.774 0 1 1-.004 1.547.774.774 0 0 1 .004-1.548M56.42 40.48a.774.774 0 1 1 .002 1.547.774.774 0 0 1 0-1.548" fill="#FFF"/>
            <path d="M37.882 36.037a6.957 6.957 0 0 1 9.214 0l-1.022 1.154a5.4 5.4 0 0 0-3.586-1.35c-1.324 0-2.588.475-3.582 1.35l-1.024-1.153zM53.364 36.037a6.952 6.952 0 0 1 4.606-1.743c1.7 0 3.332.62 4.606 1.743l-1.02 1.154a5.405 5.405 0 0 0-3.586-1.35c-1.325 0-2.59.475-3.585 1.35l-1.02-1.153zM43.263 52.078a.774.774 0 0 1 1.55 0c-.002.213.085.41.224.548v-.003c.14.14.336.227.55.227h9.288a.78.78 0 0 0 .548-.224.773.773 0 0 0 .224-.548.774.774 0 0 1 1.55 0c0 .638-.26 1.217-.68 1.636l-.004.003c-.42.42-.998.68-1.637.68h-9.29a2.31 2.31 0 0 1-1.64-.68v-.003a2.31 2.31 0 0 1-.682-1.636" fill="#B08C82"/>
            <path d="M50.23 37.387a3.86 3.86 0 0 1 2.684 1.08 2.328 2.328 0 0 1 1.96-1.08h11.61a.775.775 0 0 1 0 1.546h-2.322v2.32a3.877 3.877 0 0 1-3.87 3.866h-3.87c-2.13 0-3.87-1.74-3.87-3.867a2.32 2.32 0 0 0-2.323-2.32l-.62-.773.62-.773zm12.383 1.546h-7.74a.773.773 0 0 0-.772.773v1.547a2.328 2.328 0 0 0 2.322 2.32h3.87a2.327 2.327 0 0 0 2.32-2.32v-2.32z" fill="#422100"/>
            <path d="M45.586 38.933h-7.74v2.32a2.33 2.33 0 0 0 2.32 2.32h3.87a2.33 2.33 0 0 0 2.324-2.32v-1.547a.776.776 0 0 0-.774-.773zm-11.61 0a.774.774 0 1 1 0-1.547h11.61a2.33 2.33 0 0 1 1.96 1.082 3.86 3.86 0 0 1 2.683-1.082v1.547a2.32 2.32 0 0 0-2.323 2.32 3.877 3.877 0 0 1-3.87 3.866h-3.87a3.88 3.88 0 0 1-3.87-3.867v-2.32h-2.32z" fill="#630"/>
            <path d="M34.75 151.044a.775.775 0 0 1-1.55 0v-3.093a.774.774 0 0 0-1.547 0v4.64a.775.775 0 0 1-1.55.01v.763a.773.773 0 1 1-1.546 0v-.772a.774.774 0 0 1-1.548 0v-2.32a.773.773 0 0 1-1.55 0V84.55h9.29v3.05l-1.55 18.6v30.926l.57 1.134c.674 1.35.98 2.64.98 4.15v8.634z" fill="#FFD6CC"/>
            <path d="M33.2 45.89a1.548 1.548 0 0 1 0 3.093 1.546 1.546 0 1 1 0-3.092" fill="#FFF"/>
            <path d="M65.71 151.044a.775.775 0 0 0 1.55 0v-3.093a.774.774 0 0 1 1.546 0v4.64a.774.774 0 0 0 1.55.01v.763a.773.773 0 1 0 1.547 0v-.772a.775.775 0 0 0 1.55 0v-2.32a.775.775 0 0 0 1.55 0l-.003-65.72h-9.29v3.05l1.55 18.6v30.926l-.568 1.134a8.866 8.866 0 0 0-.98 4.15v8.634z" fill="#FFD6CC"/>
        </g>
    </g>
</svg>
