<svg id="Layer_1" data-name="Layer 1" xmlns="http://www.w3.org/2000/svg" viewBox="0 0 254.69 124">
    <defs>
        <style>
            .cls-1{fill:#fff}.cls-2{fill:#365066}.cls-11,.cls-14,.cls-3,.cls-9{fill:#daf0f5}.cls-3{opacity:.43}.cls-11,.cls-14,.cls-23,.cls-29,.cls-3,.cls-4,.cls-5,.cls-9{isolation:isolate}.cls-4,.cls-8{fill:#263d4b}.cls-4,.cls-5{opacity:.79}.cls-13,.cls-5{fill:#9fb3a9}.cls-6{fill:#dbe4bb}.cls-7{fill:#2b495e}.cls-9{opacity:.74}.cls-10{fill:#d44c3d}.cls-11{opacity:.12}.cls-12{fill:#5d7886}.cls-14{opacity:.68}.cls-15{fill:#e79b59}.cls-16{fill:#d7864a}.cls-17{fill:#93abbd}.cls-18{fill:#e9ecf0}.cls-19{fill:#966945}.cls-20{fill:#875d3d}.cls-21{mask:url(#mask)}.cls-22{mask:url(#mask-2)}.cls-23{opacity:.05}.cls-24{fill:#b48363}.cls-25{mask:url(#mask-3)}.cls-26{fill:#7a5436}.cls-27{mask:url(#mask-5)}.cls-28{mask:url(#mask-6)}.cls-29,.cls-34{opacity:.1}.cls-30{mask:url(#mask-7)}.cls-31{fill:#bb3331}.cls-32{mask:url(#mask-8)}.cls-33{mask:url(#mask-9)}.cls-35{fill:#b87d4a}.cls-36{fill:#d8995c}.cls-37{fill:#1c1510}.cls-38{fill:#e1b283}.cls-39{mask:url(#mask-10)}.cls-40{mask:url(#mask-11)}.cls-41{mask:url(#mask-12)}.cls-42{fill:#a52828}.cls-43{mask:url(#mask-13)}.cls-44{mask:url(#mask-14)}.cls-45{fill:#ca3836}.cls-46{mask:url(#mask-15)}.cls-47{mask:url(#mask-16)}.cls-48{mask:url(#mask-17)}.cls-49{mask:url(#mask-18)}.cls-50{fill:#704c35}.cls-51{mask:url(#mask-19)}.cls-52{mask:url(#mask-20)}.cls-53{mask:url(#mask-21)}.cls-54{mask:url(#mask-22)}.cls-55{mask:url(#mask-23)}.cls-56{mask:url(#mask-24)}.cls-57{mask:url(#mask-25)}.cls-58{mask:url(#mask-26)}.cls-59{mask:url(#mask-27)}.cls-60{mask:url(#mask-28)}.cls-61{mask:url(#mask-29)}.cls-62{mask:url(#mask-30)}.cls-63{mask:url(#mask-31)}.cls-64{mask:url(#mask-32)}.cls-65{mask:url(#mask-33)}.cls-66{mask:url(#mask-34)}.cls-67{mask:url(#mask-35)}.cls-68{mask:url(#mask-36)}.cls-69{fill:#d74141}.cls-70{mask:url(#mask-37)}.cls-71{mask:url(#mask-38)}.cls-72{mask:url(#mask-39)}.cls-73{mask:url(#mask-40)}.cls-74{mask:url(#mask-41)}.cls-75{mask:url(#mask-42)}.cls-76{mask:url(#mask-43)}.cls-77{mask:url(#mask-44)}.cls-78{mask:url(#mask-45)}.cls-79{mask:url(#mask-46)}.cls-80{mask:url(#mask-47)}.cls-81{fill:#80583b}.cls-82{mask:url(#mask-48)}.cls-83{mask:url(#mask-49)}.cls-84{mask:url(#mask-51)}.cls-85{mask:url(#mask-52)}.cls-86{mask:url(#mask-53)}.cls-87{fill:#aa3030}.cls-88{fill:#7c2323}.cls-89{fill:none}
        </style>
        <mask id="mask" x="112.32" y="59.35" width="8.6" height="7.61" maskUnits="userSpaceOnUse">
            <g id="b">
                <path id="a" class="cls-1" d="M119.39 60.84a4.44 4.44 0 0 0-4.51-1.33 3.86 3.86 0 0 0-2.51 3.55 8.15 8.15 0 0 0 .28 3.14c1.66 1.24 4.67.59 4.67.59s2.9-1.83 3.6-3.75a11.41 11.41 0 0 0-1.53-2.2z"/>
            </g>
        </mask>
        <mask id="mask-2" x="112.06" y="59.35" width="8.87" height="7.8" maskUnits="userSpaceOnUse">
            <g id="d">
                <path id="c" class="cls-1" d="M119.39 60.84a4.44 4.44 0 0 0-4.51-1.33 3.86 3.86 0 0 0-2.51 3.55 8.15 8.15 0 0 0 .28 3.14c1.66 1.24 4.67.59 4.67.59s2.9-1.83 3.6-3.75a11.41 11.41 0 0 0-1.53-2.2z"/>
            </g>
        </mask>
        <mask id="mask-3" x="116.47" y="68.11" width="4.49" height="3.21" maskUnits="userSpaceOnUse">
            <g id="f">
                <path id="e" class="cls-1" d="M120.85 68.64s.61 1.26-1 2.68h-.52s-2.62-.22-2.86-2.2c0-.02 2.72-1.9 4.38-.48z"/>
            </g>
        </mask>
        <mask id="mask-5" x="113.05" y="66.72" width="3.96" height="4.73" maskUnits="userSpaceOnUse">
            <g id="j">
                <path id="i" class="cls-1" d="M117 69.18a2.29 2.29 0 0 0-1.7-1.31l-.13-1.15a3 3 0 0 0-1.44.72 2.32 2.32 0 0 0-.67 1.72 2.37 2.37 0 0 0 1.7 2.29h.74a2.55 2.55 0 0 0 1.5-2.27z"/>
            </g>
        </mask>
        <mask id="mask-6" x="112.33" y="66.72" width="4.67" height="4.73" maskUnits="userSpaceOnUse">
            <g id="l">
                <path id="k" class="cls-1" d="M117 69.18a2.29 2.29 0 0 0-1.7-1.31l-.13-1.15a3 3 0 0 0-1.44.72 2.32 2.32 0 0 0-.67 1.72 2.37 2.37 0 0 0 1.7 2.29h.74a2.55 2.55 0 0 0 1.5-2.27z"/>
            </g>
        </mask>
        <mask id="mask-7" x="113.07" y="64.88" width="6.71" height="3.53" maskUnits="userSpaceOnUse">
            <g id="n">
                <path id="m" class="cls-1" d="M114 66.17a7.87 7.87 0 0 0-.54 1.11c-.09.33-.37.85-.37.92a1.18 1.18 0 0 1 0 .13.13.13 0 0 0 .06.09 12.55 12.55 0 0 1 2.66-.57c1.26-.09 2-.85 2.86-.92a2.11 2.11 0 0 1 1.11.06.15.15 0 0 0 0-.13.14.14 0 0 0 0-.09h-.07a3.14 3.14 0 0 0-1-1.83 9.72 9.72 0 0 0-4.71 1.23z"/>
            </g>
        </mask>
        <mask id="mask-8" x="112.78" y="64.88" width="7.01" height="3.61" maskUnits="userSpaceOnUse">
            <g id="p">
                <path id="o" class="cls-1" d="M114 66.17a7.87 7.87 0 0 0-.54 1.11c-.09.33-.37.85-.37.92a1.18 1.18 0 0 1 0 .13.13.13 0 0 0 .06.09 12.55 12.55 0 0 1 2.66-.57c1.26-.09 2-.85 2.86-.92a2.11 2.11 0 0 1 1.11.06.15.15 0 0 0 0-.13.14.14 0 0 0 0-.09h-.07a3.14 3.14 0 0 0-1-1.83 9.72 9.72 0 0 0-4.71 1.23z"/>
            </g>
        </mask>
        <mask id="mask-9" x="113.01" y="64.88" width="6.78" height="3.53" maskUnits="userSpaceOnUse">
            <g id="r">
                <path id="q" class="cls-1" d="M114 66.17a7.87 7.87 0 0 0-.54 1.11c-.09.33-.37.85-.37.92a1.18 1.18 0 0 1 0 .13.13.13 0 0 0 .06.09 12.55 12.55 0 0 1 2.66-.57c1.26-.09 2-.85 2.86-.92a2.11 2.11 0 0 1 1.11.06.15.15 0 0 0 0-.13.14.14 0 0 0 0-.09h-.07a3.14 3.14 0 0 0-1-1.83 9.72 9.72 0 0 0-4.71 1.23z"/>
            </g>
        </mask>
        <mask id="mask-10" x="113.16" y="64.52" width="5.65" height="5.83" maskUnits="userSpaceOnUse">
            <g id="t">
                <path id="s" class="cls-1" d="M115.94 66.28a3.06 3.06 0 0 0 .41.61c.83 1.07.81 1.66 1.92 2.64l.15-.06a.26.26 0 0 1-.2.15 4.05 4.05 0 0 1-3.45-.44c-.74-.57-1.26-1.2-1.29-3 1.09-1.9 2.46.1 2.46.1z"/>
            </g>
        </mask>
        <mask id="mask-11" x="113.09" y="65.34" width="5.36" height="5.15" maskUnits="userSpaceOnUse">
            <g id="v">
                <path id="u" class="cls-1" d="M115.94 66.28a3.06 3.06 0 0 0 .41.61c.83 1.07.81 1.66 1.92 2.64l.15-.06a.26.26 0 0 1-.2.15 4.05 4.05 0 0 1-3.45-.44c-.74-.57-1.26-1.2-1.29-3 1.09-1.9 2.46.1 2.46.1z"/>
            </g>
        </mask>
        <mask id="mask-12" x="113.77" y="66.31" width="2.72" height="2.05" maskUnits="userSpaceOnUse">
            <g id="x">
                <path id="w" class="cls-1" d="M116.1 66.52l.26.35s-1.05 1.66-2.42 1.48c0 0-.15-.2-.17-.24a4.14 4.14 0 0 0 2.33-1.59z"/>
            </g>
        </mask>
        <mask id="mask-13" x="113.74" y="66.52" width="2.62" height="1.92" maskUnits="userSpaceOnUse">
            <g id="z">
                <path id="y" class="cls-1" d="M116.1 66.52l.26.35s-1.05 1.66-2.42 1.48c0 0-.15-.2-.17-.24a4.14 4.14 0 0 0 2.33-1.59z"/>
            </g>
        </mask>
        <mask id="mask-14" x="113.31" y="65.25" width="3.04" height="3.01" maskUnits="userSpaceOnUse">
            <g id="B-2" data-name="B">
                <path id="A-2" data-name="A" class="cls-1" d="M116.21 66.66s-1 1.57-2.4 1.51a.14.14 0 0 1-.07 0s-1-2 .26-2.73 2.22 1.15 2.22 1.16a.05.05 0 0 1-.01.06z"/>
            </g>
        </mask>
        <mask id="mask-15" x="112.76" y="65.27" width="3.47" height="3.11" maskUnits="userSpaceOnUse">
            <g id="D-2" data-name="D">
                <path id="C-2" data-name="C" class="cls-1" d="M116.21 66.66s-1 1.57-2.4 1.51a.14.14 0 0 1-.07 0s-1-2 .26-2.73 2.22 1.15 2.22 1.16a.05.05 0 0 1-.01.06z"/>
            </g>
        </mask>
        <mask id="mask-16" x="126.94" y="50.48" width="4.06" height="4.21" maskUnits="userSpaceOnUse">
            <g id="F-2" data-name="F">
                <path id="E-2" data-name="E" class="cls-1" d="M129.05 51.11a1.84 1.84 0 0 0-1 2.31 1.94 1.94 0 0 0-.44-.35 1.91 1.91 0 0 0 .46.87 4.68 4.68 0 0 0 1.37-.2 1.41 1.41 0 0 0 .39-.15z"/>
            </g>
        </mask>
        <mask id="mask-17" x="127.61" y="50.76" width="2.27" height="3.57" maskUnits="userSpaceOnUse">
            <g id="H-2" data-name="H">
                <path id="G-2" data-name="G" class="cls-1" d="M129.05 51.11a1.84 1.84 0 0 0-1 2.31 1.94 1.94 0 0 0-.44-.35 1.91 1.91 0 0 0 .46.87 4.68 4.68 0 0 0 1.37-.2 1.41 1.41 0 0 0 .39-.15z"/>
            </g>
        </mask>
        <mask id="mask-18" x="127.45" y="51.11" width="2.4" height="3.01" maskUnits="userSpaceOnUse">
            <g id="J-2" data-name="J">
                <path id="I-2" data-name="I" class="cls-1" d="M129.05 51.11a1.84 1.84 0 0 0-1 2.31 1.94 1.94 0 0 0-.44-.35 1.91 1.91 0 0 0 .46.87 4.68 4.68 0 0 0 1.37-.2 1.41 1.41 0 0 0 .39-.15z"/>
            </g>
        </mask>
        <mask id="mask-19" x="134.2" y="50.59" width="4.06" height="4.21" maskUnits="userSpaceOnUse">
            <g id="L-2" data-name="L">
                <path id="K-2" data-name="K" class="cls-1" d="M136.07 50.7a2.3 2.3 0 0 1 1.05 2.83 1.94 1.94 0 0 1 .44-.35 1.91 1.91 0 0 1-.46.87 4.68 4.68 0 0 1-1.37-.2 1.41 1.41 0 0 1-.39-.15z"/>
            </g>
        </mask>
        <mask id="mask-20" x="134.93" y="50.7" width="2.66" height="3.35" maskUnits="userSpaceOnUse">
            <g id="N-2" data-name="N">
                <path id="M-2" data-name="M" class="cls-1" d="M136.07 50.7a2.3 2.3 0 0 1 1.05 2.83 1.94 1.94 0 0 1 .44-.35 1.91 1.91 0 0 1-.46.87 4.68 4.68 0 0 1-1.37-.2 1.41 1.41 0 0 1-.39-.15z"/>
            </g>
        </mask>
        <mask id="mask-21" x="135.35" y="50.7" width="2.4" height="3.53" maskUnits="userSpaceOnUse">
            <g id="P-2" data-name="P">
                <path id="O-2" data-name="O" class="cls-1" d="M136.07 50.7a2.3 2.3 0 0 1 1.05 2.83 1.94 1.94 0 0 1 .44-.35 1.91 1.91 0 0 1-.46.87 4.68 4.68 0 0 1-1.37-.2 1.41 1.41 0 0 1-.39-.15z"/>
            </g>
        </mask>
        <mask id="mask-22" x="127.48" y="46.49" width="9.7" height="8.57" maskUnits="userSpaceOnUse">
            <g id="R-2" data-name="R">
                <path id="Q-2" data-name="Q" class="cls-1" d="M134.65 47.65a7.37 7.37 0 0 1 1.35 2.81 3.29 3.29 0 0 1 .39 3.68s-6 .24-7.85-.17a4 4 0 0 1 .52-4.06c.41-.57.42-1.42.85-2.22.01 0 3.95-.69 4.74-.04z"/>
            </g>
        </mask>
        <mask id="mask-23" x="127.63" y="47.37" width="9.22" height="6.83" maskUnits="userSpaceOnUse">
            <g id="T-2" data-name="T">
                <path id="S-2" data-name="S" class="cls-1" d="M134.65 47.65a7.37 7.37 0 0 1 1.35 2.81 3.29 3.29 0 0 1 .39 3.68s-6 .24-7.85-.17a4 4 0 0 1 .52-4.06c.41-.57.42-1.42.85-2.22.01 0 3.95-.69 4.74-.04z"/>
            </g>
        </mask>
        <mask id="mask-24" x="128.24" y="46.97" width="9.27" height="7.39" maskUnits="userSpaceOnUse">
            <g id="V-2" data-name="V">
                <path id="U-2" data-name="U" class="cls-1" d="M134.65 47.65a7.37 7.37 0 0 1 1.35 2.81 3.29 3.29 0 0 1 .39 3.68s-6 .24-7.85-.17a4 4 0 0 1 .52-4.06c.41-.57.42-1.42.85-2.22.01 0 3.95-.69 4.74-.04z"/>
            </g>
        </mask>
        <mask id="mask-25" x="132.6" y="43.02" width="5.83" height="6.26" maskUnits="userSpaceOnUse">
            <g id="Y-2" data-name="Y">
                <path id="X-2" data-name="X" class="cls-1" d="M134.21 46.4a21.27 21.27 0 0 1 3.88-3c.65 1.55-.67 3.92-.89 4.19-.63.76-.92 1.13-2.85 1.4-2.05-.91-.14-2.59-.14-2.59z"/>
            </g>
        </mask>
        <mask id="mask-26" x="133.4" y="43.37" width="4.96" height="6.02" maskUnits="userSpaceOnUse">
            <g id="aa">
                <path id="Z-2" data-name="Z" class="cls-1" d="M134.21 46.4a21.27 21.27 0 0 1 3.88-3c.65 1.55-.67 3.92-.89 4.19-.63.76-.92 1.13-2.85 1.4-2.05-.91-.14-2.59-.14-2.59z"/>
            </g>
        </mask>
        <mask id="mask-27" x="134.69" y="45.77" width="2" height="2.59" maskUnits="userSpaceOnUse">
            <g id="ac">
                <path id="ab" class="cls-1" d="M134.69 46l.28-.2s1.72.94 1.72 2.38l-.22.2a3.89 3.89 0 0 0-1.78-2.38z"/>
            </g>
        </mask>
        <mask id="mask-28" x="134.69" y="45.77" width="2.11" height="2.64" maskUnits="userSpaceOnUse">
            <g id="ae">
                <path id="ad" class="cls-1" d="M134.69 46l.28-.2s1.72.94 1.72 2.38l-.22.2a3.89 3.89 0 0 0-1.78-2.38z"/>
            </g>
        </mask>
        <mask id="mask-29" x="133.27" y="45.89" width="3.23" height="3.17" maskUnits="userSpaceOnUse">
            <g id="ag">
                <path id="af" class="cls-1" d="M134.78 45.9a3.67 3.67 0 0 1 1.72 2.4.09.09 0 0 1 0 .06c0 .06-2 1.46-3 .15s1.16-2.61 1.16-2.61a.15.15 0 0 1 .12 0z"/>
            </g>
        </mask>
        <mask id="mask-30" x="133.27" y="45.89" width="3.4" height="3.32" maskUnits="userSpaceOnUse">
            <g id="ai">
                <path id="ah" class="cls-1" d="M134.78 45.9a3.67 3.67 0 0 1 1.72 2.4.09.09 0 0 1 0 .06c0 .06-2 1.46-3 .15s1.16-2.61 1.16-2.61a.15.15 0 0 1 .12 0z"/>
            </g>
        </mask>
        <mask id="mask-31" x="127.57" y="41" width="9.22" height="7.83" maskUnits="userSpaceOnUse">
            <g id="ak">
                <path id="aj" class="cls-1" d="M127.61 45.31a4.49 4.49 0 0 1 7.63-3 5.9 5.9 0 0 1 1.55 1.83s0 2.83-3.55 4.25-5.49-.65-5.49-.65a5.56 5.56 0 0 1-.14-2.43z"/>
            </g>
        </mask>
        <mask id="mask-32" x="127.48" y="41" width="9.46" height="8.06" maskUnits="userSpaceOnUse">
            <g id="am">
                <path id="al" class="cls-1" d="M127.61 45.31a4.49 4.49 0 0 1 7.63-3 5.9 5.9 0 0 1 1.55 1.83s0 2.83-3.55 4.25-5.49-.65-5.49-.65a5.56 5.56 0 0 1-.14-2.43z"/>
            </g>
        </mask>
        <mask id="mask-33" x="128.88" y="47.45" width="7.21" height="3.13" maskUnits="userSpaceOnUse">
            <g id="ao">
                <path id="an" class="cls-1" d="M129.74 48.1a7.89 7.89 0 0 1 4.91-.44s.76.34 1.35 2.71a.14.14 0 0 1 0 .09 1.82 1.82 0 0 1-1.11.06c-.59-.17-3.47-1.59-6-.35a.21.21 0 0 1 0-.11c0-.06.17-.18.17-.22v-.06a.14.14 0 0 0 .07-.07 5.43 5.43 0 0 0 .31-.79 3.38 3.38 0 0 1 .3-.82z"/>
            </g>
        </mask>
        <mask id="mask-34" x="128.88" y="47.45" width="7.49" height="3.13" maskUnits="userSpaceOnUse">
            <g id="aq">
                <path id="ap" class="cls-1" d="M129.74 48.1a7.89 7.89 0 0 1 4.91-.44s.76.34 1.35 2.71a.14.14 0 0 1 0 .09 1.82 1.82 0 0 1-1.11.06c-.59-.17-3.47-1.59-6-.35a.21.21 0 0 1 0-.11c0-.06.17-.18.17-.22v-.06a.14.14 0 0 0 .07-.07 5.43 5.43 0 0 0 .31-.79 3.38 3.38 0 0 1 .3-.82z"/>
            </g>
        </mask>
        <mask id="mask-35" x="127.63" y="47.45" width="8.39" height="3.13" maskUnits="userSpaceOnUse">
            <g id="as">
                <path id="ar" class="cls-1" d="M129.74 48.1a7.89 7.89 0 0 1 4.91-.44s.76.34 1.35 2.71a.14.14 0 0 1 0 .09 1.82 1.82 0 0 1-1.11.06c-.59-.17-3.47-1.59-6-.35a.21.21 0 0 1 0-.11c0-.06.17-.18.17-.22v-.06a.14.14 0 0 0 .07-.07 5.43 5.43 0 0 0 .31-.79 3.38 3.38 0 0 1 .3-.82z"/>
            </g>
        </mask>
        <mask id="mask-36" x="128.88" y="47.39" width="7.14" height="3.19" maskUnits="userSpaceOnUse">
            <g id="au">
                <path id="at" class="cls-1" d="M129.74 48.1a7.89 7.89 0 0 1 4.91-.44s.76.34 1.35 2.71a.14.14 0 0 1 0 .09 1.82 1.82 0 0 1-1.11.06c-.59-.17-3.47-1.59-6-.35a.21.21 0 0 1 0-.11c0-.06.17-.18.17-.22v-.06a.14.14 0 0 0 .07-.07 5.43 5.43 0 0 0 .31-.79 3.38 3.38 0 0 1 .3-.82z"/>
            </g>
        </mask>
        <mask id="mask-37" x="126.01" y="60.86" width="4.8" height="4.21" maskUnits="userSpaceOnUse">
            <g id="aw">
                <path id="av" class="cls-1" d="M127.83 61.6s-1.26 1.55 0 2.66a1.84 1.84 0 0 0-.61-.06 1.68 1.68 0 0 0 .85.52 6 6 0 0 0 1.29-1 3 3 0 0 0 .33-.35z"/>
            </g>
        </mask>
        <mask id="mask-38" x="127.25" y="60.88" width="2.91" height="3.84" maskUnits="userSpaceOnUse">
            <g id="ay">
                <path id="ax" class="cls-1" d="M127.83 61.6s-1.26 1.55 0 2.66a1.84 1.84 0 0 0-.61-.06 1.68 1.68 0 0 0 .85.52 6 6 0 0 0 1.29-1 3 3 0 0 0 .33-.35z"/>
            </g>
        </mask>
        <mask id="mask-39" x="126.95" y="61.6" width="2.79" height="3.34" maskUnits="userSpaceOnUse">
            <g id="aA-2" data-name="aA">
                <path id="az" class="cls-1" d="M127.83 61.6s-1.26 1.55 0 2.66a1.84 1.84 0 0 0-.61-.06 1.68 1.68 0 0 0 .85.52 6 6 0 0 0 1.29-1 3 3 0 0 0 .33-.35z"/>
            </g>
        </mask>
        <mask id="mask-40" x="132.19" y="61.12" width="4.8" height="4.21" maskUnits="userSpaceOnUse">
            <g id="aC-2" data-name="aC">
                <path id="aB-2" data-name="aB" class="cls-1" d="M135.52 62s.85 1.81-.68 2.57a1.67 1.67 0 0 1 .61.09 1.6 1.6 0 0 1-1 .3 6.76 6.76 0 0 1-1-1.26c-.11-.17-.15-.26-.24-.42z"/>
            </g>
        </mask>
        <mask id="mask-41" x="132.88" y="61.23" width="2.96" height="3.74" maskUnits="userSpaceOnUse">
            <g id="aE-2" data-name="aE">
                <path id="aD-2" data-name="aD" class="cls-1" d="M135.52 62s.85 1.81-.68 2.57a1.67 1.67 0 0 1 .61.09 1.6 1.6 0 0 1-1 .3 6.76 6.76 0 0 1-1-1.26c-.11-.17-.15-.26-.24-.42z"/>
            </g>
        </mask>
        <mask id="mask-42" x="133.23" y="62.01" width="2.53" height="3.23" maskUnits="userSpaceOnUse">
            <g id="aG-2" data-name="aG">
                <path id="aF-2" data-name="aF" class="cls-1" d="M135.52 62s.85 1.81-.68 2.57a1.67 1.67 0 0 1 .61.09 1.6 1.6 0 0 1-1 .3 6.76 6.76 0 0 1-1-1.26c-.11-.17-.15-.26-.24-.42z"/>
            </g>
        </mask>
        <mask id="mask-43" x="126.98" y="55.76" width="9.7" height="8.57" maskUnits="userSpaceOnUse">
            <g id="aI-2" data-name="aI">
                <path id="aH-2" data-name="aH" class="cls-1" d="M130 57.19a6.9 6.9 0 0 0-1.37 2.64 2.86 2.86 0 0 0-.37 3.53s5.6.41 7.41 0c0 0 1.26-2.53-.63-6.08-.04 0-4.25-.74-5.04-.09z"/>
            </g>
        </mask>
        <mask id="mask-44" x="126.71" y="56.92" width="9.37" height="7.97" maskUnits="userSpaceOnUse">
            <g id="aK-2" data-name="aK">
                <path id="aJ-2" data-name="aJ" class="cls-1" d="M130 57.19a6.9 6.9 0 0 0-1.37 2.64 2.86 2.86 0 0 0-.37 3.53s5.6.41 7.41 0c0 0 1.26-2.53-.63-6.08-.04 0-4.25-.74-5.04-.09z"/>
            </g>
        </mask>
        <mask id="mask-45" x="127.77" y="56.92" width="8.58" height="6.62" maskUnits="userSpaceOnUse">
            <g id="aM-2" data-name="aM">
                <path id="aL-2" data-name="aL" class="cls-1" d="M130 57.19a6.9 6.9 0 0 0-1.37 2.64 2.86 2.86 0 0 0-.37 3.53s5.6.41 7.41 0c0 0 1.26-2.53-.63-6.08-.04 0-4.25-.74-5.04-.09z"/>
            </g>
        </mask>
        <mask id="mask-46" x="132.66" y="53.44" width="4.81" height="6.48" maskUnits="userSpaceOnUse">
            <g id="aO-2" data-name="aO">
                <path id="aN-2" data-name="aN" class="cls-1" d="M133.47 57.11a23.94 23.94 0 0 1 3.42-3.68c1.11 1.4.33 3.79.17 4.12-.5.92-.74 1.37-2.75 2.12-3.13 1.19-.84-2.56-.84-2.56z"/>
            </g>
        </mask>
        <mask id="mask-47" x="127.89" y="54.65" width="2.9" height="4.29" maskUnits="userSpaceOnUse">
            <g id="aQ-2" data-name="aQ">
                <path id="aP-2" data-name="aP" class="cls-1" d="M130.79 56.43s-2.66-2.11-2.72-1.74a3.63 3.63 0 0 0 .52 3.31c1.83 2.81 2.2-1.57 2.2-1.57z"/>
            </g>
        </mask>
        <mask id="mask-48" x="127.19" y="54.34" width="3.6" height="4.6" maskUnits="userSpaceOnUse">
            <g id="aS-2" data-name="aS">
                <path id="aR-2" data-name="aR" class="cls-1" d="M130.79 56.43s-2.66-2.11-2.72-1.74a3.63 3.63 0 0 0 .52 3.31c1.83 2.81 2.2-1.57 2.2-1.57z"/>
            </g>
        </mask>
        <mask id="mask-49" x="128.3" y="57.55" width="7.81" height="3.22" maskUnits="userSpaceOnUse">
            <g id="aU-2" data-name="aU">
                <path id="aT-2" data-name="aT" class="cls-1" d="M129.4 57.83a17.4 17.4 0 0 0-.83 1.92s-.11 0-.11.07v.08a.25.25 0 0 0-.15.15.39.39 0 0 0 0 .22 8.68 8.68 0 0 1 2.61-.39c1.5 0 3.25.89 3.75.89s1.44-.13 1.44-.13a5.16 5.16 0 0 0-.61-2.33s-1.83-1.31-6.1-.48z"/>
            </g>
        </mask>
        <mask id="mask-51" x="128.3" y="57.55" width="8.02" height="3.4" maskUnits="userSpaceOnUse">
            <g id="aY-2" data-name="aY">
                <path id="aX-2" data-name="aX" class="cls-1" d="M129.4 57.83a17.4 17.4 0 0 0-.83 1.92s-.11 0-.11.07v.08a.25.25 0 0 0-.15.15.39.39 0 0 0 0 .22 8.68 8.68 0 0 1 2.61-.39c1.5 0 3.25.89 3.75.89s1.44-.13 1.44-.13a5.16 5.16 0 0 0-.61-2.33s-1.83-1.31-6.1-.48z"/>
            </g>
        </mask>
        <mask id="mask-52" x="127.41" y="51.3" width="9.59" height="7.66" maskUnits="userSpaceOnUse">
            <g id="ba">
                <path id="aZ-2" data-name="aZ" class="cls-1" d="M136.65 54.75a4.49 4.49 0 0 0-8.07-1.5 5.84 5.84 0 0 0-1.16 2.11s.55 2.77 4.3 3.47 5.27-1.7 5.27-1.7a6.09 6.09 0 0 0-.34-2.38z"/>
            </g>
        </mask>
        <mask id="mask-53" x="126.61" y="51.3" width="10.38" height="8.29" maskUnits="userSpaceOnUse">
            <g id="bc">
                <path id="bb" class="cls-1" d="M136.65 54.75a4.49 4.49 0 0 0-8.07-1.5 5.84 5.84 0 0 0-1.16 2.11s.55 2.77 4.3 3.47 5.27-1.7 5.27-1.7a6.09 6.09 0 0 0-.34-2.38z"/>
            </g>
        </mask>
    </defs>
    <title>
        plan-images
    </title>
    <g id="New_Symbol_12-3" data-name="New Symbol 12">
        <path class="cls-2" d="M131.69 69.62l-10.16-1.7-2.82 3.08-16.63-11.14-14.25 17.28-7.69-5.27-21.83 16.45-3.94-4.1-9.47 7.53-4.9-.46-20 18.14h113.89l-2.2-39.81z"/>
        <path class="cls-3" d="M102.37 61.4l-6.23 8.22 3.12-1.35 1.24 2.24 1.26-2 8.78 2-2.46-3.21 5 .92-10.71-6.82z"/>
        <path class="cls-4" d="M102.08 59.86l-4.34 8.54 3.26-1.92-6.37 8.76-6.8 1.9 14.24-17.27z"/>
        <path class="cls-5" d="M102.37 71.87l-2.18 4.32-.55 6 2.73-6.82v-3.5zm5.38-6.12l7.09 4.36 3.49 3.94-7.33-4.43z"/>
        <path class="cls-4" d="M80.15 71.87l-8.24 12.35 5.09-.58-11 9.7-1.79-2.79L52 97.87l-1.31-3.81L38 106.09l8.57-2.25 3.27 5.52-29.84.07 20-18.14 4.1 1.88.79-1.42 9.48-7.54 3.94 4.1 21.84-16.44zm-15.39 24l-5.43 6 .44 3.88 4-4.18zm23.5-13.63l-2.62 6.67 1.31 3.36 2.4-3.42-1.09-6.61z"/>
        <path class="cls-6" d="M137.74 15.78h.72v13.66h-.72V15.78z"/>
        <path class="cls-7" d="M71.24 109.43l12.1-13.1 3.82 1.53 6.36-6.78 3.88.67 14.37-17.7L120 76.2l9.13-19.49 8.46-28 1.11.29 15.06 27.88 18.83 21.27 4.4-3.75 9.29 9.64 3-2.29 19.92 27.66H71.24z"/>
        <path class="cls-8" d="M172.58 78.17l-10.07 8.76-14.11-1.07-18.22 18.94 17.15-22.52 14.72.63 7-8.74 3.57 4z"/>
        <path class="cls-9" d="M120 77.8l-7.56-2.29-4.69 8.7 5.84-5.6 6.41-.81zm57.66-2l5.25 11-3-2-1.7 4.62-4.21-5.2-8.39 4.19zm-40.07-47.12l1.11.32 3.84 7-1.76-2.53-1.66-.24-1.53-1.48-2.24 4.1z"/>
        <path class="cls-10" d="M137.53 15.41v4.45l7.74-2.24z"/>
        <path class="cls-8" d="M111.78 74.05l-3.49 13.52 5.23-5.86-5.23 15.33-2.85-6.32-6.61 12.32 6.5-4.08 5.3 8.46 2.88-2.14 2.81 4.14H91.7l-6.5-4.8-3.68 4.8H71.24l12.1-13.1 3.82 1.53 6.36-6.78 3.88.67 14.37-17.7zm65.22.37l5.93 12.42-3-2 7 12.75 2.29-5.69 5.78 10.83-4.27-1-2 7.7h20.43l-19.93-27.65.09 5.47L177 74.42z"/>
        <path class="cls-11" d="M119.3 115.59a.53.53 0 0 1-.46-.24.57.57 0 0 1 .13-.81l17.85-21.39-11.63-12.8a.61.61 0 0 1-.15-.46.62.62 0 0 1 .26-.42l20-12.79-7.43-11.75a1.13 1.13 0 0 1-.09-.22l-.2-25a.58.58 0 1 1 1.15-.18l.18 24.89 7.69 12.14a.6.6 0 0 1-.18.81L126.5 80.1l11.6 12.75a.57.57 0 0 1 .15.44.58.58 0 0 1-.24.41l-18.36 21.78a.61.61 0 0 1-.35.11z"/>
        <path class="cls-12" d="M138.88 93.16a1.87 1.87 0 1 1-1.88-1.87 1.86 1.86 0 0 1 1.88 1.87zm-10.82-13.21a1.77 1.77 0 1 1-1.77-1.77 1.77 1.77 0 0 1 1.77 1.77zm19.53-13.1a1.5 1.5 0 1 1-1.5-1.5 1.51 1.51 0 0 1 1.49 1.5z"/>
        <path class="cls-13" d="M137 44.83l-4.29 9.57 2.14-1-5.93 12-1.79-.65-1.26 5.65-5.87 5.8 9.13-19.49zm-4.69 20.77l-1.21.4 1.57 2.66 3.42-4.29z"/>
        <path class="cls-8" d="M178.83 92.57l2.85 3.77 1.42 6.61-4.27-5.08v-5.3zm-16.61 5.19l-.41-5.84-23.59 11.92z"/>
        <path class="cls-14" d="M121 26.83H78.69C78.34 24.3 80.7 22 83 21.77a6.47 6.47 0 0 1 4.06.92 4.84 4.84 0 0 1 4.62-3.07c2.31-.13 5 1.66 7.43 3.88.28-2.24 1.77-3.81 4.75-3.62 2.18.13 4.16 1.46 5.95 3.09 1.27-3.49 9.48 1.53 11.18 3.86zm71.2 15.54h-38.8a2.68 2.68 0 0 1 .35-3.49c2.15-1.88 4.85-1.3 7.25.12a4.55 4.55 0 0 1 5.41-2.49 10 10 0 0 1 4.47 2.49c1-2.27 6.3-1.64 9.51.06 1.43-2.34 10.02.81 11.85 3.31z"/>
        <path class="cls-8" d="M147.68 50.81l5.95 8.26 4 5.67 7.22 7.13-5.06-3-4.21 2.13-5.8-8-2.11-12.19z"/>
        <path class="cls-15" d="M138 44.9l-.65-.24 3-8.22.65.24-3 8.22z"/>
        <path class="cls-16" d="M137.57 44.75l-.26-.09 3-8.22.26.09z"/>
        <path class="cls-17" d="M144.41 40a6.78 6.78 0 0 0-2.66-2.62 10.38 10.38 0 0 0-5.45-.81l.33.65a6.13 6.13 0 0 1 1.66.15 3.93 3.93 0 0 1 1.72.91 8.06 8.06 0 0 1 2.46.46 5.53 5.53 0 0 1 1.94 1.26z"/>
        <path class="cls-18" d="M140.9 37a.47.47 0 0 1 .09 0H141.2l.15.07.3.17a5.35 5.35 0 0 1 .54.35.78.78 0 0 0 .13.09l.18.32.11.09.11.09c.15.11.26.22.37.31s.2.18.28.26l.17.17.05.08-.06-.06-.18-.17-.28-.24-.39-.3-.46-.33-.54-.33a6.2 6.2 0 0 0-.61-.3h-.23l-.39-.27c-.22-.07-.46-.13-.68-.18h-.36l-.33-.06c-.22 0-.42-.06-.63-.07a.41.41 0 0 1-.15 0h-.15a1.4 1.4 0 0 1-.28 0H136.78a.22.22 0 0 0-.09 0h.7a4 4 0 0 1 .48 0h.57l.65.06.33.06a.17.17 0 0 1 .09 0h.27c.22.06.46.11.68.18l.17.06h.15z"/>
        <path class="cls-19" d="M117 59l-.44.54.5.46h.79a3.43 3.43 0 0 0-.85-1z"/>
        <path class="cls-20" d="M116.69 59.64l-.11-.13.42-.51.06.72-.39-.06z"/>
        <path class="cls-19" d="M112.89 60.23l.67.2-.09.7-.68.42a3.47 3.47 0 0 1 .11-1.33z"/>
        <path class="cls-20" d="M113.53 60.59v-.17l-.67-.18.37.63z"/>
        <path class="cls-21 cls-19" d="M119.39 60.84a4.44 4.44 0 0 0-4.51-1.33 3.86 3.86 0 0 0-2.51 3.55 8.15 8.15 0 0 0 .28 3.14c1.66 1.24 4.67.59 4.67.59s2.9-1.83 3.6-3.75a11.41 11.41 0 0 0-1.53-2.2z"/>
        <path class="cls-22 cls-23" d="M112.06 61.34l1-.35a5.89 5.89 0 0 0 .42 4.62 7 7 0 0 0 3.23.74l-3.31.79-1.27-.67z"/>
        <ellipse class="cls-20" cx="118.43" cy="63.44" rx="1.27" ry=".61" transform="rotate(-16.74 118.433 63.428)"/>
        <ellipse cx="118.39" cy="63.33" rx="1.27" ry=".61" transform="rotate(-16.74 118.38 63.316)"/>
        <path class="cls-24" d="M116.86 63.1a.28.28 0 1 1-.35-.18.29.29 0 0 1 .35.18z"/>
        <circle cx="116.66" cy="63.21" r=".2"/>
        <circle class="cls-1" cx="116.71" cy="63.23" r=".07"/>
        <path class="cls-24" d="M119.06 62.41a.28.28 0 1 0 .18-.35.31.31 0 0 0-.18.35z"/>
        <circle cx="119.33" cy="62.41" r=".2"/>
        <circle class="cls-1" cx="119.26" cy="62.47" r=".07"/>
        <path class="cls-25 cls-20" d="M120.85 68.64s.61 1.26-1 2.68h-.52s-2.62-.22-2.86-2.2c0-.02 2.72-1.9 4.38-.48z"/>
        <path class="cls-25 cls-23" d="M120.87 68.53a2.31 2.31 0 0 1-2.46 2.61z"/>
        <path class="cls-26" d="M120.42 71.21a.6.6 0 0 1-.57.13c-.28 0-.52 0-.52-.09a.59.59 0 0 1 .57-.3.55.55 0 0 1 .52.26z"/>
        <path class="cls-24" d="M114 66.65c-.09 1.18-.89 1.15-1 2.38 0 .74 1.24 2.48 4.32 2.25s3.73-1.83 3.34-3.44a9.59 9.59 0 0 0-1.79-3.23s-4.84.87-4.91 2z"/>
        <path class="cls-27 cls-19" d="M117 69.18a2.29 2.29 0 0 0-1.7-1.31l-.13-1.15a3 3 0 0 0-1.44.72 2.32 2.32 0 0 0-.67 1.72 2.37 2.37 0 0 0 1.7 2.29h.74a2.55 2.55 0 0 0 1.5-2.27z"/>
        <path class="cls-28 cls-23" d="M113.05 67.4l.68.44a3.24 3.24 0 0 0 1 3.55h-1.39l-1-3.16z"/>
        <path class="cls-26" d="M115.88 71.34a.64.64 0 0 1-.61.13c-.3 0-.54 0-.54-.09a.62.62 0 0 1 .61-.3.51.51 0 0 1 .54.26z"/>
        <path class="cls-29" d="M113.11 68.4s.72-.15.85-.15.11-.09.11-.09l-.15-.16-.81.35z"/>
        <path class="cls-30 cls-31" d="M114 66.17a7.87 7.87 0 0 0-.54 1.11c-.09.33-.37.85-.37.92a1.18 1.18 0 0 1 0 .13.13.13 0 0 0 .06.09 12.55 12.55 0 0 1 2.66-.57c1.26-.09 2-.85 2.86-.92a2.11 2.11 0 0 1 1.11.06.15.15 0 0 0 0-.13.14.14 0 0 0 0-.09h-.07a3.14 3.14 0 0 0-1-1.83 9.72 9.72 0 0 0-4.71 1.23z"/>
        <path class="cls-32 cls-29" d="M114.55 65.56l1.18-.3s-.44 1.29-.44 1.33.33.85.33.85l.28.42-2.9.63-.22-.49z"/>
        <path class="cls-33 cls-29" d="M113.05 67.4l.06.46s0 .24.18.17a3.18 3.18 0 0 1 .68-.18s-.87.37-.94.42a3.46 3.46 0 0 1 .02-.87z"/>
        <path class="cls-19" d="M122.36 68.27a1.46 1.46 0 0 1-.48.26.39.39 0 0 1-.31-.06z"/>
        <path d="M114 68.36a3.47 3.47 0 0 0 2.81 1.57v.06l.87-.13a2.64 2.64 0 0 0 .68 0l2.59-1v-.15a1.3 1.3 0 0 0-.18-.44c-.11-.06-6.74.07-6.74.07zm1.33-3.36l-.15.15.15.65.48-.15z" class="cls-34"/>
        <path class="cls-35" d="M124.36 67.67L116.79 70 115 64.35l7.61-2.35z"/>
        <path class="cls-36" d="M124.35 67.66l-5.67 1.75-1.75-5.67L122.6 62z"/>
        <path class="cls-37" d="M119.19 65.85l3.12-1 .33 1.15-1.55.48.06.18-.68.22-.06-.18-.87.28-.35-1.13zm.46.87l.35-.11-.17-.55.17-.06.17.55.17-.06-.22-.72-.68.22.22.72zm.65-1l.28.92.35-.11-.06-.18.35-.11-.22-.74-.7.22zm.39.07l.18-.06.13.38-.18.06zm.48-.35l.22.72.35-.11-.17-.55.17-.06.16.56.17-.06-.17-.54.17-.06.17.54.17-.06-.22-.72-1 .33z"/>
        <path class="cls-38" d="M121.14 64l-1.48.46-.44-1.46 1.48-.46z"/>
        <path class="cls-29" d="M115.47 65.74a1.9 1.9 0 0 1 .78.79.07.07 0 0 1 0 .07l.13.24a5.56 5.56 0 0 1 .87 1.35 3.36 3.36 0 0 0 1 1.31l-2.46-1.16-.33-2.64z"/>
        <path class="cls-39 cls-20" d="M118.82 70l-3.12-4.66-1.55-.81-.81.44-.17 2.38.61 1.53 1 .92s3.13 1.09 4.04.2z"/>
        <path class="cls-40 cls-23" d="M118.36 70.45l.09-.79s-4.43.18-4.6-3.62l-.76.06.26 2.48s2.65 2.24 5.01 1.87z"/>
        <path class="cls-41 cls-42" d="M116.12 66.31l.37.69s-1.18 1.55-2.55 1.39c0 0-.15-.2-.17-.24a5.13 5.13 0 0 0 2.35-1.84z"/>
        <path class="cls-43 cls-29" d="M114.64 68.35a2.15 2.15 0 0 1-.31-.44.72.72 0 0 0-.55.07v.13l.11.33z"/>
        <path class="cls-44 cls-45" d="M116.34 66.9a3.49 3.49 0 0 1-2.48 1.35.39.39 0 0 1-.15 0s-1.07-2.05.3-2.83 2.33 1.27 2.33 1.27a.73.73 0 0 1 0 .21z"/>
        <path class="cls-46 cls-29" d="M114.59 68.23a4.23 4.23 0 0 1-1.2-1.88c-.11-.87-.63.41-.63.41l.67 1.16.41.46z"/>
        <path class="cls-29" d="M137.85 52.92a1.27 1.27 0 0 0-.44.33 2.15 2.15 0 0 0-.83-2.62 2.18 2.18 0 0 0-.28-.37.17.17 0 0 0 0-.09 8.8 8.8 0 0 0-.35-1.11h-.28a.47.47 0 0 1 0-.09l.26-.07a1.91 1.91 0 0 0-.07-.18 4.53 4.53 0 0 0 1-.52.07.07 0 0 0 0-.06L137 48a3.75 3.75 0 0 0 .5-.55c.22-.26 1.26-2.57.61-4.08a8.66 8.66 0 0 0-1 .79V44a5.86 5.86 0 0 0-1.55-1.79 5.07 5.07 0 0 0-1.26-.67L133.63 65c.35 0 1.26-.06 1.26-.06h.48a.4.4 0 0 0 .15-.09c1.16-.41 2-3.9.79-4.49a1.05 1.05 0 0 0 0-.24 7.56 7.56 0 0 0-.26-1.59 2 2 0 0 0 1.09-1.16.29.29 0 0 0 .06-.11 4.82 4.82 0 0 0 .24-3.64l.09-.13a.88.88 0 0 0 .31-.61z"/>
        <ellipse class="cls-47 cls-20" cx="128.98" cy="52.59" rx="2.03" ry="2.11"/>
        <path class="cls-48 cls-23" d="M129.2 50.76l-.91 1a2.44 2.44 0 0 0 .44 2.61l1.15-.61z"/>
        <path class="cls-49 cls-50" d="M127.45 52.83l.33.11a4.16 4.16 0 0 1 .57 1.18 2.91 2.91 0 0 0-.5-.06z"/>
        <ellipse class="cls-51 cls-20" cx="136.23" cy="52.7" rx="2.03" ry="2.11"/>
        <path class="cls-52 cls-23" d="M135.63 50.74l.67.11a2.59 2.59 0 0 1 .22 3.2l-1.59-.35z"/>
        <path class="cls-53 cls-50" d="M137.75 52.94l-.33.11a4.16 4.16 0 0 0-.57 1.18 2.91 2.91 0 0 1 .5-.06z"/>
        <path class="cls-54 cls-19" d="M127.48 46.49h9.7v8.57h-9.7v-8.57z"/>
        <path class="cls-55 cls-29" d="M127.63 50.31a8.11 8.11 0 0 1 6.32-.13 7.23 7.23 0 0 0-4.82-.68z"/>
        <path class="cls-56 cls-23" d="M134.63 47v.68a10.09 10.09 0 0 1 .54 2.81S136 53 135 53.75s1.15.59 1.15.59l1.33-1.15-.28-2.55z"/>
        <g class="cls-34">
            <path d="M136.85 53.53v-.09l-.89.37.09.41zM136.89 53.44a1.24 1.24 0 0 1 .41.42l-.13.2-.31-.13v-.5"/>
        </g>
        <path class="cls-57 cls-20" d="M137.94 43l-4.69 3.77-.65 1.73.57.78 2.49-.13 1.51-.83.83-1.18s1-3.29-.06-4.14z"/>
        <path class="cls-58 cls-23" d="M138.22 43.37h-.13s0 4.54-3.88 5.21l.17.78 2.55-.59s1.97-3.06 1.29-5.4z"/>
        <path class="cls-59 cls-42" d="M134.69 46l.28-.2s1.72.94 1.72 2.38l-.22.2a3.89 3.89 0 0 0-1.78-2.38z"/>
        <path class="cls-60 cls-29" d="M136.59 47.43a1.82 1.82 0 0 1-.42.39.73.73 0 0 0 .15.55h.15l.33-.15z"/>
        <path class="cls-61 cls-31" d="M134.78 45.9a3.67 3.67 0 0 1 1.72 2.4.09.09 0 0 1 0 .06c0 .06-2 1.46-3 .15s1.16-2.61 1.16-2.61a.15.15 0 0 1 .12 0z"/>
        <path class="cls-62 cls-29" d="M136.41 47.54a3.85 3.85 0 0 1-1.55.87c-.89.22.28.79.28.79l1.09-.42.44-.48z"/>
        <path class="cls-29" d="M136.78 44.22s-.24 3.57-2.7 4.16l-1-1.94z"/>
        <path class="cls-19" d="M128.18 42.46l.76.15v.79l-.72.54a3.8 3.8 0 0 1 0-1.48z"/>
        <path class="cls-20" d="M128.94 42.79v-.17l-.78-.17.46.67.3-.33z"/>
        <path class="cls-63 cls-19" d="M127.61 45.31a4.49 4.49 0 0 1 7.63-3 5.9 5.9 0 0 1 1.55 1.83s0 2.83-3.55 4.25-5.49-.65-5.49-.65a5.56 5.56 0 0 1-.14-2.43z"/>
        <path class="cls-64 cls-23" d="M127.48 47.73h.26a5.29 5.29 0 0 0 4.51.09 13.47 13.47 0 0 0 4.53-3.7l.17.48-1 2.57-3.57 1.74s-3.82.18-3.84.17z"/>
        <path class="cls-19" d="M132.69 40.67l-.44.63.59.55.89-.11a5 5 0 0 0-1-1.07z"/>
        <path class="cls-20" d="M132.38 41.43l-.13-.11.44-.65.11.79z"/>
        <path class="cls-29" d="M129.5 49.28l-.59.91a6.34 6.34 0 0 1 2.35-.44 13.84 13.84 0 0 1 3.51.74c.18.06 0-.59 0-.59z"/>
        <path class="cls-65 cls-45" d="M129.74 48.1a7.89 7.89 0 0 1 4.91-.44s.83.37 1.44 2.81a2.05 2.05 0 0 1-1.16.06c-.59-.17-3.47-1.59-6-.35a.21.21 0 0 1 0-.11c0-.06.17-.18.17-.22v-.06a.14.14 0 0 0 .07-.07 5.43 5.43 0 0 0 .31-.79 3.51 3.51 0 0 1 .26-.83z"/>
        <path class="cls-66 cls-29" d="M134.63 47.87a3.34 3.34 0 0 1 .5 1.33c-.11.28-.61.41-.09.57s.81.5.57.54-1.29-.39-1.66-.41 1.07.54 1.26.55a2.13 2.13 0 0 0 1.13-.17c.28-.2-1.05-2.48-1.05-2.48z"/>
        <path class="cls-67 cls-29" d="M129.05 49.63a5.53 5.53 0 0 1 4.23-.44 8.12 8.12 0 0 0-4.16.54c-2.57.91-.41.22-.41.22l.35-.11a7 7 0 0 1 5.17 0 8.56 8.56 0 0 0-5.43.18l-1.18.3a3.75 3.75 0 0 1 .33-.48z"/>
        <path class="cls-68 cls-29" d="M129.53 48.19l-.09.48a3.16 3.16 0 0 1 2.14-.85 17.14 17.14 0 0 1 3.58.28l-.39-.44a12.73 12.73 0 0 0-3.12-.24 3.17 3.17 0 0 0-2.12.77z"/>
        <path class="cls-29" d="M129.59 48.13h-.06a2.52 2.52 0 0 1 1.83-.81 13.05 13.05 0 0 1 3.42.26l-3.42.15-1.77.44z"/>
        <path class="cls-69" d="M129.53 48.1l-.09.48a3.16 3.16 0 0 1 2.14-.85 17.14 17.14 0 0 1 3.58.28l-.39-.44a12.73 12.73 0 0 0-3.12-.24 3.28 3.28 0 0 0-2.12.77z"/>
        <path class="cls-29" d="M136.33 54a2.49 2.49 0 0 0-.74-1.4 2.76 2.76 0 0 0-.2-.63l-.31.13a4.12 4.12 0 0 0-2-1 4.29 4.29 0 0 0-2.22.18l-.24-.22a5.23 5.23 0 0 0-.42.52 4.78 4.78 0 0 0-1.83 1.92c-.48 1.58 8.31 2.1 7.96.5z"/>
        <ellipse class="cls-70 cls-19" cx="128.41" cy="62.96" rx="2.4" ry="2.11"/>
        <path class="cls-71 cls-23" d="M128.17 60.88l-.74 1a2.66 2.66 0 0 0 1.83 2.22l.91-1z"/>
        <path class="cls-72 cls-26" d="M126.95 64.08l.39-.09a3.3 3.3 0 0 1 1.11.74c-.09 0-.54.22-.54.22z"/>
        <ellipse class="cls-73 cls-19" cx="134.59" cy="63.22" rx="2.4" ry="2.11"/>
        <path class="cls-74 cls-23" d="M135.37 61.23l.46 1.18a2.67 2.67 0 0 1-2.31 1.7l-.64-1.11z"/>
        <path class="cls-75 cls-26" d="M135.76 64.63l-.35-.18a3.5 3.5 0 0 0-1.26.44 4.18 4.18 0 0 1 .46.35z"/>
        <path class="cls-76 cls-19" d="M127 55.76h9.7v8.57H127v-8.57z"/>
        <path class="cls-77 cls-24" d="M126.71 60.94a6.74 6.74 0 0 1 1.92-1.11 6.2 6.2 0 0 1 4.9.13c3.71 1.68-1 4.93-1 4.93l-4.27-.55z"/>
        <path class="cls-78 cls-23" d="M135.24 58.18s.41 2.66-.06 3.49l1.16-.83a25.21 25.21 0 0 0-.7-2.75z"/>
        <path class="cls-79 cls-20" d="M133.47 57.11a23.94 23.94 0 0 1 3.42-3.68c1.11 1.4.33 3.79.17 4.12-.5.92-.74 1.37-2.75 2.12-3.13 1.19-.84-2.56-.84-2.56z"/>
        <path class="cls-31" d="M136.39 57.54a3.92 3.92 0 0 0 .52.28v.09a2.38 2.38 0 0 1-1.24 1.16l-.67-.61 1-.91h.35z"/>
        <path class="cls-42" d="M136.42 57.41a3.35 3.35 0 0 0 .54.28l-.06.11a1.41 1.41 0 0 1-.48-.2c-.2-.13 0-.18 0-.18z"/>
        <path class="cls-23" d="M136.78 55a4.93 4.93 0 0 0-1.39-2.27c-.59-.55-7.3 5.65-3.55 6.34s5.27-1.7 5.27-1.7a5.58 5.58 0 0 0-.33-2.37z"/>
        <path class="cls-80 cls-81" d="M130.79 56.43s-2.66-2.11-2.72-1.74a3.63 3.63 0 0 0 .52 3.31c1.83 2.81 2.2-1.57 2.2-1.57z"/>
        <path class="cls-82 cls-23" d="M127.41 55.91a4.6 4.6 0 0 0 2.59 2.53l.24-2.53-.55-1.57-2.53.37z"/>
        <path class="cls-31" d="M129.11 57.15a1.78 1.78 0 0 1-.81.31v.07a3 3 0 0 0 .81 1.18l.48-.87v-.71z"/>
        <path class="cls-42" d="M129 57a4.14 4.14 0 0 1-.81.24.57.57 0 0 0 .07.17 1.78 1.78 0 0 0 .81-.26z"/>
        <path class="cls-23" d="M128.09 56.56a3.73 3.73 0 0 0 1.22 1.79l.3-.91-1.51-.89z"/>
        <path class="cls-29" d="M129.4 57.89a17.4 17.4 0 0 0-.83 1.92s-.11 0-.11.07V60a.17.17 0 0 0-.06.13.76.76 0 0 1-.07.17 10 10 0 0 1 2.61-.33c1.5 0 3.25.89 3.75.89a9.58 9.58 0 0 0 1.4-.18 5 5 0 0 0-.57-2.27s-1.85-1.31-6.12-.46z"/>
        <path class="cls-83 cls-45" d="M129.4 57.83a17.4 17.4 0 0 0-.83 1.92s-.11 0-.11.07v.08a.25.25 0 0 0-.15.15.39.39 0 0 0 0 .22 8.68 8.68 0 0 1 2.61-.39c1.5 0 3.25.89 3.75.89s1.44-.13 1.44-.13a5.16 5.16 0 0 0-.61-2.33s-1.83-1.31-6.1-.48z"/>
        <path class="cls-83 cls-1" d="M133.21 59.2l.74.07v.24h-.74zm0 .2h.07v-.13.13-.17h-.17v.17zm.22-.15v.2h.14v-.17h-.15zm.07.06v.09-.09zm.13 0v.17h.07v-.13.13-.13.13-.17h-.22z"/>
        <path d="M135.28 58.7a2.53 2.53 0 0 1 .06 1.22c-.18.24 0 .2.15.31a2.18 2.18 0 0 1-1.18 0 1.28 1.28 0 0 0 .87.22c.46-.06-.57.28-1.11.15a3.1 3.1 0 0 0 1.76.31c.67-.17.48-.33.48-.33l-.31-2zm-6.34 1a6.79 6.79 0 0 1 4.6.33 8.3 8.3 0 0 0-3.29-.83s.46.07.79.15a5.33 5.33 0 0 0-2.1.39z" class="cls-84 cls-34"/>
        <path class="cls-19" d="M131.69 58l-.55.59.72.41.89-.11-1.06-.89zM135.39 52.2l-.72.3.2.78.81.39a3.7 3.7 0 0 0-.3-1.46z"/>
        <path class="cls-20" d="M134.72 52.68v-.18l.7-.3-.31.74-.35-.26z"/>
        <path class="cls-19" d="M130.64 51.31l.55.54-.46.65-.89.07a3.66 3.66 0 0 1 .79-1.26z"/>
        <path class="cls-20" d="M131.09 52l.11-.15-.55-.54v.81z"/>
        <path class="cls-85 cls-19" d="M136.65 54.75a4.49 4.49 0 0 0-8.07-1.5 5.84 5.84 0 0 0-1.16 2.11s.55 2.77 4.3 3.47 5.27-1.7 5.27-1.7a6.09 6.09 0 0 0-.34-2.38z"/>
        <path class="cls-86 cls-23" d="M126.61 54.82l.78.52a7.81 7.81 0 0 0 6.87 3.47c4.21 0-7.54.78-7.54.78z"/>
        <ellipse class="cls-20" cx="132.43" cy="54.85" rx=".68" ry="1.42" transform="rotate(-79.46 132.434 54.855)"/>
        <ellipse cx="132.46" cy="54.73" rx=".68" ry="1.42" transform="rotate(-79.6 132.693 55)"/>
        <path class="cls-24" d="M131.16 53.81a.31.31 0 1 1-.24-.37.31.31 0 0 1 .24.37z"/>
        <circle cx="130.94" cy="53.71" r=".24"/>
        <path class="cls-1" d="M131 53.66c0 .09-.17.07-.15 0s.15-.1.15 0z"/>
        <path class="cls-24" d="M134 54.34a.31.31 0 1 0 .37-.24.3.3 0 0 0-.37.24z"/>
        <circle cx="134.28" cy="54.32" r=".24"/>
        <path class="cls-1" d="M134.34 54.29c0 .09-.17.07-.15 0a.08.08 0 1 1 .15 0z"/>
        <path d="M135.69 58.74s-.55.61-2.94.55l-.15-.2v.15a1.27 1.27 0 0 0-.7-.28l.52-.07 2.64-.07.67-.07zm-6.47-.57v.09A4 4 0 0 0 131 59l.15-.17.03.17a.75.75 0 0 1 .65 0l-.63-.39z" class="cls-34"/>
        <path class="cls-87" d="M132.16 58.92s-.11.42-.11.48l-.28-.06.09-.35.15-.07h.15z"/>
        <circle class="cls-88" cx="131.97" cy="59.16" r=".06"/>
        <path class="cls-31" d="M131.86 59a.57.57 0 0 1 .48-.24l.22.2v.2a.77.77 0 0 0-.67-.17zm-.61-.46h.06a.91.91 0 0 1 .55.5 1 1 0 0 0-.68-.15l-.11-.18.18-.15z"/>
        <path class="cls-89" d="M129.18 57.91a4.69 4.69 0 0 0 2 .79m4.58-.18a6.06 6.06 0 0 1-3.2.42"/>
    </g>
</svg>
