<svg id="vial" xmlns="http://www.w3.org/2000/svg" viewBox="0 0 170 170">
    <defs>
        <style>
            .cls-1{fill:#976844}.cls-2{fill:#885d3d}.cls-3{fill:#b68463}.cls-4{fill:#a47859}.cls-5{fill:#7a5336}.cls-6{fill:#ae7146}.cls-7{opacity:.7;fill:url(#radial-gradient)}.cls-11,.cls-7{isolation:isolate}.cls-8{fill:#fff}.cls-9{fill:#aeaeae}.cls-10{fill:#333}.cls-11{opacity:.1}.cls-12{fill:#cbcbcb}.cls-13{fill:#dcdcdc}.cls-14{fill:#cc3632}
        </style>
        <radialGradient id="radial-gradient" cx="-1758.26" cy="-1187.32" r="86.32" gradientTransform="matrix(.35 0 0 .28 710.83 472.75)" gradientUnits="userSpaceOnUse">
            <stop offset="0" stop-color="#1b90cb"/>
            <stop offset="1" stop-color="#fff" stop-opacity="0"/>
        </radialGradient>
    </defs>
    <title>
        plan-images
    </title>
    <g id="Layer_1-2" data-name="Layer 1">
        <g id="npm-wombat">
            <g id="body_legs" data-name="body + legs">
                <g id="body">
                    <g id="body-2" data-name="body">
                        <path id="body-3" data-name="body" class="cls-1" d="M132.72 104.55c-8-16.76-24.5-30-43.78-30s-35.74 13.21-43.78 30-8 36.85-8 36.85c17.52 11.85 51.83 12.79 51.83 12.79s34.32-.94 51.83-12.79c-.05 0-.06-20.08-8.1-36.85z"/>
                        <g id="body_shadow" data-name="body shadow">
                            <path class="cls-2" d="M58.19 149.94c-20-18-7.57-50.15-7.57-50.15l5.77-8s-2 .64-3.8 1.18a57.28 57.28 0 0 0-7.38 11.64c-7.49 15.62-8 34.12-8 36.57v.26c5 3.92 13.37 6.64 21 8.53zM120 149.94c20-18 7.44-50.15 7.44-50.15l-5.83-8s1.92.64 3.76 1.18a58.43 58.43 0 0 1 7.63 11.58c7.49 15.62 8.25 34.12 8.25 36.57v.26c-6 3.92-13.63 6.64-21.25 8.53z"/>
                        </g>
                    </g>
                    <g id="belly">
                        <path class="cls-3" d="M88.93 114.55C66.87 114.55 47.7 120.8 38 130a94.89 94.89 0 0 0-.91 11.41c17.52 11.85 51.83 12.79 51.83 12.79s34.32-.94 51.83-12.79a95 95 0 0 0-.91-11.41c-9.66-9.19-28.84-15.45-50.91-15.45z"/>
                        <g id="belly_shadow" data-name="belly shadow">
                            <path class="cls-4" d="M58.12 149.93s-10.51-8.12-11.3-26.16c0 0-6.4 3.5-8.81 6.23a95 95 0 0 0-.91 11.4c5.79 3.91 13.41 6.64 21 8.53zM119.75 149.93s10.51-8.12 11.3-26.16c0 0 6.41 3.5 8.81 6.23a94.88 94.88 0 0 1 .91 11.4c-5.79 3.91-13.41 6.64-21 8.53z"/>
                        </g>
                    </g>
                </g>
                <g id="legs">
                    <g id="leg">
                        <path class="cls-1" d="M67.33 128.36c-3-5.37-9.3-9.08-16.63-9.08-10.18 0-18.44 7.17-18.44 16 0 7.77 6.32 14.79 14.57 16.06s24.35 1.14 24.35 1.14c3.97-2.89-.47-18.11-3.85-24.12z"/>
                        <g id="shadow">
                            <path class="cls-2" d="M50.7 151.57c-23.11-13.67-3.9-31.93-3.89-31.94-8.31 1.55-14.54 8-14.54 15.65s6.32 14.79 14.57 16.06c1.28.2 2.75.36 4.32.5z"/>
                            <ellipse class="cls-2" cx="46.96" cy="144.98" rx="5.78" ry="6.46" transform="rotate(-30 46.97 144.986)"/>
                        </g>
                        <ellipse class="cls-5" cx="47.7" cy="146.31" rx="5.78" ry="6.46" transform="rotate(-30 47.717 146.306)"/>
                        <ellipse class="cls-6" cx="48.46" cy="147.62" rx="3.5" ry="3.92" transform="rotate(-30 48.464 147.626)"/>
                    </g>
                    <g id="leg-2" data-name="leg">
                        <path class="cls-1" d="M110.88 128.36c3-5.37 9.3-9.08 16.63-9.08 10.18 0 18.44 7.17 18.44 16 0 7.77-6.32 14.79-14.57 16.06S107 152.49 107 152.49c-3.95-2.9.49-18.12 3.88-24.13z"/>
                        <g id="shadow-2" data-name="shadow">
                            <path class="cls-2" d="M127.5 151.57c23.11-13.67 3.9-31.93 3.89-31.94 8.31 1.55 14.54 8 14.54 15.65s-6.32 14.79-14.57 16.06c-1.28.2-2.75.36-4.32.5z"/>
                            <ellipse class="cls-2" cx="131.24" cy="144.98" rx="6.46" ry="5.78" transform="rotate(-60 131.24 144.985)"/>
                        </g>
                        <ellipse class="cls-5" cx="130.5" cy="146.31" rx="6.46" ry="5.78" transform="rotate(-60 130.498 146.31)"/>
                        <ellipse class="cls-6" cx="129.75" cy="147.62" rx="3.92" ry="3.5" transform="rotate(-60 129.743 147.62)"/>
                    </g>
                </g>
            </g>
            <g id="arms">
                <g id="arm">
                    <path id="shaodw" class="cls-2" d="M44.48 106l-.43 1v.07c-4 13.73-1.64 18.28 2.48 26.3 1 2 9.54 12.63 19 19.11h5.69c5.68.85 10.63 1.28 13.85 1.5-.87-19.74-9-45.89-9-45.89S67.38 88.28 58.25 87l-1 .92q-1 .92-1.9 1.9l-.06.06q-.92 1-1.79 2l-.06.07-.85 1-.81 1-.78 1-.1.13q-.76 1-1.48 2.09l-.12.17-.69 1.05v.07l-.62 1-.11.19-.62 1.05-.26.3-.54 1-.08.15-.56 1.07-.12.24c-.18.36-.37.73-.54 1.1s-.38.8-.56 1.2z"/>
                    <path id="arm-2" data-name="arm" class="cls-1" d="M79 108.09s9.11 29.19 9.11 49.17c-20.59 0-36.86-20.51-38.61-23.91-4.85-9.44-7.24-14.07.25-34.52C61.23 67.37 79 108.09 79 108.09z"/>
                </g>
                <g id="arm-3" data-name="arm">
                    <path id="shaodw-2" data-name="shaodw" class="cls-2" d="M133.36 106l.43 1v.07c4 13.73 1.64 18.28-2.48 26.3-1 2-9.54 12.63-19 19.11h-5.69c-5.68.85-10.63 1.28-13.85 1.5.87-19.74 9-45.89 9-45.89s8.7-19.81 17.82-21.09l1 .92q1 .92 1.9 1.9l.06.06q.92 1 1.79 2l.06.07.85 1 .81 1 .79 1 .15.25q.76 1 1.48 2.09l.12.17.69 1.05v.07l.62 1 .11.19.62 1.05.11.19.54 1 .08.15q.29.53.56 1.07l.12.24c.18.36.37.73.54 1.1s.38.8.56 1.2z"/>
                    <path id="arm-4" data-name="arm" class="cls-1" d="M98.89 108.09s-9.11 29.19-9.11 49.17c20.59 0 36.86-20.51 38.61-23.91 4.85-9.44 7.24-14.07-.25-34.52-11.53-31.46-29.25 9.26-29.25 9.26z"/>
                    <path class="cls-7" d="M131.16 121.05c0 16.86-19.29 30.53-43.09 30.53S45 137.91 45 121.05"/>
                </g>
            </g>
            <path id="head_shadow" data-name="head shadow" class="cls-5" d="M88 80.1c-17 0-31.92 7.71-40.2 19.28 14.86 12.21 40.8 12.07 40.8 12.07s25.07.14 40-11.46C120.42 88.08 105.29 80.1 88 80.1z"/>
            <g id="npm_-_wombat_-_face" data-name="npm - wombat - face">
                <g id="ears">
                    <g id="ear">
                        <path class="cls-1" d="M117 8.76l-7.54 5 3.92 8.45 10.07 2.72S122 15.82 117 8.76z"/>
                        <path class="cls-2" d="M110.39 15.64l-.89-1.92 7.54-4.96-2.12 9.17-4.53-2.29z"/>
                    </g>
                    <g id="ear-2" data-name="ear">
                        <path class="cls-1" d="M60.83 8.76l7.54 5-3.92 8.45-10.06 2.69s1.51-9.08 6.44-16.14z"/>
                        <path class="cls-2" d="M67.48 15.64l.89-1.92-7.54-4.96 2.12 9.17 4.53-2.29z"/>
                    </g>
                </g>
                <path id="head" class="cls-1" d="M136.69 44C127.92 24.17 110 8.54 88.93 8.54S50 24.17 41.18 44 32.4 87.64 32.4 87.64c16 21.52 56.53 21.3 56.53 21.3s40.54.22 56.53-21.3c.01 0 0-23.78-8.77-43.64z"/>
                <g id="nose">
                    <ellipse id="nose-2" data-name="nose" class="cls-2" cx="88.93" cy="99.78" rx="16.63" ry="8.04"/>
                    <ellipse id="nose-3" data-name="nose" cx="88.93" cy="98.22" rx="16.63" ry="8.04"/>
                </g>
                <g id="face">
                    <g id="eyes">
                        <g id="eye">
                            <path class="cls-3" d="M72.16 89.54a3.62 3.62 0 1 1-3.62-3.62 3.62 3.62 0 0 1 3.62 3.62z"/>
                            <circle cx="69.23" cy="90.2" r="2.71"/>
                            <circle class="cls-8" cx="69.47" cy="91" r=".88"/>
                        </g>
                        <g id="eye-2" data-name="eye">
                            <path class="cls-3" d="M105.88 89.54a3.62 3.62 0 1 0 3.62-3.62 3.62 3.62 0 0 0-3.62 3.62z"/>
                            <circle cx="108.81" cy="90.2" r="2.71"/>
                            <circle class="cls-8" cx="108.58" cy="91" r=".88"/>
                        </g>
                    </g>
                </g>
                <path id="shadow-3" data-name="shadow" class="cls-2" d="M42.39 87a78.87 78.87 0 0 0 12.82 16.11C46.47 100 38 95.11 32.4 87.64c0 0 0-23.78 8.78-43.62 5.72-12.95 15.35-24.1 27.19-30.29-.52.32-26.78 17.13-25.98 73.27zm93.09 0a78.86 78.86 0 0 1-12.83 16.11c8.75-3.15 17.26-8 22.82-15.47 0 0 0-23.78-8.78-43.62-5.69-12.95-15.35-24.1-27.19-30.3.5.33 26.78 17.14 25.98 73.28z"/>
            </g>
        </g>
        <g id="Laptop">
            <g id="Base">
                <path class="cls-9" d="M89.14 156H50.2v.92a.86.86 0 0 0 1 1.08h75.84a1 1 0 0 0 1.14-1.08V156H89.14z"/>
                <path class="cls-10" d="M54.2 155h70v3h-70z"/>
                <path class="cls-11" d="M124.28 155H54.2v1h-4v.92s-.18.05.13.39a2.88 2.88 0 0 1-.06-.31h77.65c.09 0 0 .32.11.28.27-.33.16-.36.16-.36V156h-4v-1z"/>
            </g>
            <g id="Lid">
                <path class="cls-12" d="M132.4 122.31c0-.21-.24-.31-.59-.31H46.39c-.35 0-.61.1-.59.31l3.85 34.46c0 .21.3.21.62.21h77.65c.32 0 .59 0 .62-.22l3.85-34.55v.06z"/>
                <g id="Logo">
                    <path id="Logo-2" data-name="Logo" class="cls-11" d="M79 138h20.94l-.13 4H89.2v1h-4.29v-1h-5.74zm1.27 4h2.33v-3h1.16v3h1.14v-4h-4.65zm5.73-4v4h4.57v-4H86zm2.28 1h1.21v2h-1.2v-2zm3.51-1v4h2.29v-3h1.15v3h1.14v-3h1.15l-.05 3h1.15l.08-4h-6.9z"/>
                    <path id="Logo-3" data-name="Logo" class="cls-8" d="M79 138h20.93l-.13 4H89.2v1h-4.29v-1h-5.74zm1.27 4h2.33v-2h1.16v2h1.14v-3h-4.65zm5.73-4v4h4.57v-4H86zm2.28 1.62h1.21v1.32h-1.2v-1.32zM91.8 138v4h2.29v-2h1.15v2h1.14v-2h1.15l-.05 2h1.14l.08-4h-6.9z"/>
                </g>
                <path class="cls-11" d="M50.27 157h77.65c.32 0 .59 0 .62-.22l3.84-34a1.63 1.63 0 0 0-.57.21H46.39a1 1 0 0 0-.57-.13L49.66 157c.02.19.34 0 .61 0z"/>
            </g>
        </g>
        <path class="cls-12" d="M44.2 159.71c0 .71.51 1.29-.21 1.29H20.92a1.72 1.72 0 0 1-1.72-1.29v-2.57c0-.71 1-1.15 1.72-1.15H44c.72 0 .21.44.21 1.15v2.57z"/>
        <path class="cls-11" d="M44 156h-6.8v5H44c.72 0 .21-.58.21-1.29v-2.57c-.01-.7.5-1.14-.21-1.14z"/>
        <g id="Handle">
            <path class="cls-13" d="M45.79 155.09a12.82 12.82 0 0 1-2.25-.18l.65-3.36s3.91.7 6.3-1.28c1.34-1.11 2-2.94 2-5.45 0-3.51-.75-7.7-4.35-7.7a3.87 3.87 0 0 0-2.9.95l-2.75-2c.18-.24 1.84-2.34 5.66-2.34 2.34 0 7.78 1.08 7.78 11.13 0 3.59-1.1 6.31-3.27 8.1a10.79 10.79 0 0 1-6.87 2.13z"/>
            <path class="cls-11" d="M45.82 152.88a8.55 8.55 0 0 0 5.44-1.69c1.63-1.35 2.45-3.5 2.45-6.39a14.57 14.57 0 0 0-.93-5.65 4.83 4.83 0 0 0-4.64-3.27 6.1 6.1 0 0 0-2.77.6s-.51 0-.55.06l-.62-.14v1.51l.61.09a4.79 4.79 0 0 1 3.12-.95c3.6 0 4.46 4.19 4.46 7.7a6.9 6.9 0 0 1-2.39 5.51c-1.69 1.41-3.8 1.47-5.8 1.38v1.8l.54-.57h1.08z"/>
        </g>
        <path class="cls-13" d="M46.2 158.79a1.52 1.52 0 0 1-1.61 1.21H19.77a1.48 1.48 0 0 1-1.57-1.21v-26.42a1.61 1.61 0 0 1 1.57-1.37h24.82a1.65 1.65 0 0 1 1.61 1.37v26.42z"/>
        <path id="Rectangle_1" data-name="Rectangle 1" class="cls-14" d="M23.2 143h18v6h-9v1h-4v-1h-5v-6zm1 5h2v-3h1v3h1v-4h-4v4zm5-4v5h2v-1h2v-4h-4zm2.3.89h.66v2h-.68v-2zm2.7-.89v4h2v-3h1v3h1v-3h1v3h1v-4h-6z"/>
        <path class="cls-11" d="M44.65 131H37.2v29h7.45a1.43 1.43 0 0 0 1.55-1.14v-26.62a1.5 1.5 0 0 0-1.55-1.24z"/>
    </g>
</svg>
