<svg xmlns="http://www.w3.org/2000/svg" viewBox="0 0 157.2 157.2">
    <defs>
        <style>
            .cls-1{fill:none}.cls-2{fill:#c83737}.cls-3{clip-path:url(#clip-path)}.cls-4{fill:#ededed}.cls-5{opacity:.12}.cls-6{fill:#d0d0d0}.cls-7{opacity:.04}.cls-10,.cls-7{isolation:isolate}.cls-8{fill:#976844}.cls-9{fill:#885d3d}.cls-10,.cls-13{opacity:.1}.cls-11{fill:#b68463}.cls-12{fill:#fff}.cls-14{fill:#222}.cls-15{fill:#333}
        </style>
        <clipPath id="clip-path">
            <path class="cls-1" d="M78.85 72.14S36 87 36 125.5c0 0 7.58 22.38 42.82 22.38s42.82-22.38 42.82-22.38c.03-38.5-42.79-53.36-42.79-53.36z"/>
        </clipPath>
    </defs>
    <g id="New_Symbol_12" data-name="New Symbol 12">
        <g id="npm-wombat">
            <path class="cls-2" d="M78.85 72.14S36 87 36 125.5c0 0 7.58 22.38 42.82 22.38s42.82-22.38 42.82-22.38c.03-38.5-42.79-53.36-42.79-53.36z"/>
            <g class="cls-3">
                <g id="Page_1" data-name="Page 1">
                    <path id="Rectangle_1" data-name="Rectangle 1" class="cls-4" d="M64.2 113h4v-7h2v7h3v-9h-9v9zm10.6-9v11h4.4v-2h4v-9h-8.4zm4.4 2h2v4h-2v-4zm6-2v9h4v-7h3v7h1v-7h2v7h2v-9h-12z"/>
                </g>
            </g>
            <g class="cls-3">
                <path class="cls-4" d="M63.18 98.78L53 103.52s-.79 23.24 9 43.4l-28-11.09s-14.3-51.11 8.48-56.14 32.57 5.83 32.57 5.83z"/>
                <g class="cls-5">
                    <path d="M116.07 136h1.3v1.3h-1.3z"/>
                    <path d="M116.07 134.71h1.3v1.3h-1.3zM114.77 137.3h1.3v1.3h-1.3zM113.47 137.3h1.3v1.3h-1.3zM99.2 136h1.3v1.3h-1.3z"/>
                    <path d="M99.2 134.71h1.3v1.3h-1.3z"/>
                </g>
                <g class="cls-5">
                    <path d="M128.25 142.36h-.07a2.22 2.22 0 0 0-2.1 2c1 .13 2 .29 3 .46-.16-.83-.29-1.7-.42-2.6a2.19 2.19 0 0 1-.41.14zM133 128.08v.05a2.22 2.22 0 0 0 0 2.92c.82-.63 1.63-1.23 2.42-1.77-.7-.48-1.41-1-2.14-1.55a2.17 2.17 0 0 1-.28.35zM121.58 147.6a2.2 2.2 0 0 0-2.67 1.05l-.11.2c.89.52 1.75 1 2.55 1.58.19-.87.42-1.78.67-2.71h-.22zM114 149.45a2.22 2.22 0 0 0-2.92 0c.63.82 1.23 1.63 1.77 2.42.48-.7 1-1.41 1.55-2.14a2.18 2.18 0 0 1-.3-.22z"/>
                </g>
                <path d="M77.81 84.91v.05a2.22 2.22 0 0 0 0 2.92c.82-.63 1.63-1.23 2.42-1.77-.7-.48-1.41-1-2.14-1.55a2.17 2.17 0 0 1-.28.35z" class="cls-5"/>
            </g>
            <path class="cls-3 cls-6" d="M49.36 107s-.11 22.6 6.64 37.54l6 2.38c-9.82-20.16-9-43.4-9-43.4z"/>
            <path class="cls-3 cls-7" d="M43.22 128.22a102.85 102.85 0 0 1 7.63-37.9C42.74 98.69 36 110.23 36 125.5c0 18 20.18 28.34 20.18 28.34s-12.96-9.21-12.96-25.62zm71.2 0a102.85 102.85 0 0 0-7.63-37.9c8.11 8.38 14.83 19.92 14.83 35.18 0 18-20.18 28.34-20.18 28.34s12.98-9.21 12.98-25.62z"/>
            <g id="arms">
                <g id="arm">
                    <path id="arm-2" data-name="arm" class="cls-8" d="M37.32 96.26s6.94 1.38 17 12.27c-7.68 13.19-11.67 13.95-17.35 14.83-9.14 1.41-12.24-4.06-10.7-14.75 1.63-11.49 11.05-12.35 11.05-12.35z"/>
                </g>
            </g>
            <path id="head_shadow" data-name="head shadow" class="cls-7" d="M78.49 73.19c-15.24 0-28.59 6.91-36 17.27C55.78 101.4 79 101.28 79 101.28s22.48.12 35.89-10.28C107.55 80.34 94 73.19 78.49 73.19z"/>
            <g id="npm_-_wombat_-_face" data-name="npm - wombat - face">
                <g id="ears">
                    <g id="ear">
                        <path class="cls-8" d="M104.53 11.93l-6.76 4.45 3.51 7.57 9 2.44s-1.34-8.14-5.75-14.46z"/>
                        <path class="cls-9" d="M98.57 18.1l-.8-1.72 6.76-4.45-1.91 8.21-4.05-2.04z"/>
                    </g>
                    <g id="ear-2" data-name="ear">
                        <path class="cls-8" d="M54.17 11.93l6.76 4.45-3.51 7.57-9 2.44s1.33-8.14 5.75-14.46z"/>
                        <path class="cls-9" d="M60.13 18.1l.79-1.72-6.76-4.45 1.91 8.21 4.06-2.04z"/>
                    </g>
                </g>
                <path id="head" class="cls-8" d="M122.12 40.86C114.27 23.09 98.19 9.08 79.34 9.08s-34.92 14-42.78 31.78-7.86 39.08-7.86 39.08C43 99.22 79.34 99 79.34 99s36.32.2 50.65-19.08c.01.02.01-21.28-7.87-39.06z"/>
                <path id="shadow" class="cls-10" d="M37.65 79.38a70.64 70.64 0 0 0 11.49 14.43C41.3 91 33.67 86.64 28.7 79.94c0 0 0-21.3 7.86-39.08 5.13-11.6 13.75-21.59 24.36-27.14-.46.28-23.99 15.36-23.27 65.66zm83.39 0a70.63 70.63 0 0 1-11.49 14.43C117.39 91 125 86.64 130 79.94c0 0 0-21.3-7.86-39.08-5.14-11.59-13.76-21.59-24.37-27.13.47.27 23.99 15.35 23.23 65.65z"/>
                <g id="face">
                    <g id="eyes">
                        <g id="eye">
                            <path class="cls-11" d="M64.32 48.41a3.24 3.24 0 1 1-3.24-3.24 3.24 3.24 0 0 1 3.24 3.24z"/>
                            <circle cx="61.69" cy="49" r="2.43"/>
                            <circle class="cls-12" cx="61.9" cy="48.4" r=".78"/>
                        </g>
                        <g id="eye-2" data-name="eye">
                            <path class="cls-11" d="M94.53 48.41a3.24 3.24 0 1 0 3.24-3.24 3.24 3.24 0 0 0-3.24 3.24z"/>
                            <circle cx="97.15" cy="49" r="2.43"/>
                            <circle class="cls-12" cx="96.94" cy="48.4" r=".78"/>
                        </g>
                    </g>
                </g>
                <g id="Glasses">
                    <g id="Lens" class="cls-13">
                        <path class="cls-12" d="M36.67 36.71s33.3-1.16 36.7 4.5c0 0 3.76 22.57-20.86 22.57S39.69 39.69 36.67 36.71zM121.22 37.31s-33.3-1.16-36.7 4.5c0 0-3.76 22.57 20.86 22.57s12.82-24.09 15.84-27.07z"/>
                    </g>
                    <path class="cls-14" d="M125.62 37.47c-4.56-1.37-16.63-2.28-24.49-1.82-7.37.43-16.43 2.78-22.18 3.13-9.81-.3-14-2.7-21.38-3.13-7.86-.46-19.94.46-24.49 1.82 0 0-.23 7.18.23 14.35a6.14 6.14 0 0 1 3.19 3.53c.9 2.65 1.22 11.1 14.21 11.32 13.67.22 20.93-.58 23.14-15 0 0 .87-5.62 5.19-5.16 3.76 0 4.61 5.22 4.61 5.22 2.26 15.3 10.29 15.45 23.95 15 12.32-.44 14-8.51 14.87-11.13a7 7 0 0 1 2.92-3.7c.46-7.25.23-14.43.23-14.43zm-54.7 13.78c-1.65 7.3-4.32 12.05-12.47 12.38s-17.89 1.29-20-11.69c-.45-3.37-2.1-11.87 6.41-12.47A82.19 82.19 0 0 1 66.19 41c2.75.79 6.7 1.5 4.73 10.25zm49.39.25c-.83 10.74-9.14 11.9-14.31 12.16s-17.8.59-19.39-10.95c-1.34-9.71 2.24-11.29 3.53-11.64 6.64-1.77 19.31-2.24 23.44-1.64s7.66-.11 6.73 12.07z"/>
                    <path class="cls-15" d="M125.62 36c-4.56-1.37-16.63-2.28-24.49-1.82-7.37.43-16.43 2.78-22.18 3.13-9.81-.3-14-2.7-21.38-3.13-7.86-.46-19.94.46-24.49 1.82 0 0-.23 7.18.23 14.35a6.14 6.14 0 0 1 3.19 3.53c.9 2.66 1.22 11.12 14.21 11.35 13.67.22 20.93-.58 23.14-15 0 0 .87-5.62 5.19-5.16 3.76 0 4.61 5.22 4.61 5.22 2.26 15.3 10.29 15.45 23.95 15 12.32-.44 14-8.51 14.87-11.13a7 7 0 0 1 2.92-3.7c.46-7.25.23-14.46.23-14.46zm-54.7 13.81c-1.65 7.3-4.32 12.05-12.47 12.38s-17.89 1.29-20-11.69c-.45-3.37-2.1-11.87 6.41-12.5a82.19 82.19 0 0 1 21.33 1.55c2.75.8 6.7 1.51 4.73 10.26zm49.39.25C119.48 60.8 111.17 62 106 62.22s-17.8.59-19.39-10.95c-1.34-9.68 2.24-11.27 3.53-11.63 6.64-1.77 19.31-2.24 23.44-1.64s7.66-.12 6.73 12.06z"/>
                </g>
                <g id="nose">
                    <ellipse id="nose-2" data-name="nose" class="cls-10" cx="79.34" cy="59.04" rx="14.9" ry="7.21"/>
                    <ellipse id="nose-3" data-name="nose" cx="79.34" cy="57.65" rx="14.9" ry="7.21"/>
                </g>
            </g>
        </g>
    </g>
</svg>
