<svg viewBox="0 0 24 21" xmlns="http://www.w3.org/2000/svg">
  <g>
    <path d="M18 13.48c0 1.39-1.138 2.52-2.537 2.52H9.31c-.127 0-.25.05-.344.14l-3.672 3.49c-.084.08-.293.07-.294-.18V16.5c0-.28-.224-.5-.5-.5h-.87C2.203 16 1 14.84 1 13.48V8.51C1 7.15 2.204 6 3.63 6h11.833C16.863 6 18 7.13 18 8.51v4.97zM15.463 5H3.63C1.66 5 0 6.61 0 8.51v4.97C0 15.39 1.662 17 3.63 17H4v2.45c0 .7.51 1.25 1.16 1.25.296 0 .576-.12.817-.34L9.51 17h5.953C17.413 17 19 15.42 19 13.48V8.51C19 6.58 17.414 5 15.463 5z"/>
    <path d="M20.256 0h-9.852C8.61 0 7.18 1.36 7.002 3.24c-.026.27.175.51.45.54.282.03.52-.18.545-.45C8.127 1.96 9.117 1 10.404 1h9.852c1.45 0 2.723 1.2 2.723 2.58v3.87c0 1.28-1.036 2.41-2.357 2.56-.275.03-.472.27-.44.55.027.25.244.44.495.44h.057c1.82-.21 3.244-1.76 3.244-3.55V3.58c0-1.94-1.706-3.58-3.724-3.58M14.414 12H4.5c-.276 0-.5.22-.5.5s.224.5.5.5h9.914c.276 0 .5-.22.5-.5s-.224-.5-.5-.5M14.414 9H4.5c-.276 0-.5.22-.5.5s.224.5.5.5h9.914c.276 0 .5-.22.5-.5s-.224-.5-.5-.5"/>
  </g>
</svg>
